G04 #@! TF.GenerationSoftware,KiCad,Pcbnew,(6.0.1)*
G04 #@! TF.CreationDate,2022-08-24T16:53:37+03:00*
G04 #@! TF.ProjectId,hellen64_NA6_94,68656c6c-656e-4363-945f-4e41365f3934,b*
G04 #@! TF.SameCoordinates,PX141ef50PYa2cc1bc*
G04 #@! TF.FileFunction,Paste,Top*
G04 #@! TF.FilePolarity,Positive*
%FSLAX46Y46*%
G04 Gerber Fmt 4.6, Leading zero omitted, Abs format (unit mm)*
G04 Created by KiCad (PCBNEW (6.0.1)) date 2022-08-24 16:53:37*
%MOMM*%
%LPD*%
G01*
G04 APERTURE LIST*
%ADD10O,0.000001X0.000001*%
%ADD11R,0.375000X0.350000*%
%ADD12R,0.350000X0.375000*%
%ADD13R,2.600000X3.600000*%
%ADD14R,1.310000X0.650000*%
%ADD15R,1.310000X0.600000*%
%ADD16R,0.795000X0.900000*%
%ADD17R,0.800000X2.200000*%
%ADD18R,2.032000X5.080000*%
%ADD19R,11.430000X7.620000*%
G04 APERTURE END LIST*
D10*
G04 #@! TO.C,M4*
X89968539Y5845064D03*
X82218547Y19395047D03*
X82988541Y4570030D03*
G04 #@! TD*
G04 #@! TO.C,R57*
G36*
G01*
X58321680Y120375340D02*
X58321680Y119595340D01*
G75*
G02*
X58251680Y119525340I-70000J0D01*
G01*
X57691680Y119525340D01*
G75*
G02*
X57621680Y119595340I0J70000D01*
G01*
X57621680Y120375340D01*
G75*
G02*
X57691680Y120445340I70000J0D01*
G01*
X58251680Y120445340D01*
G75*
G02*
X58321680Y120375340I0J-70000D01*
G01*
G37*
G36*
G01*
X56721680Y120375340D02*
X56721680Y119595340D01*
G75*
G02*
X56651680Y119525340I-70000J0D01*
G01*
X56091680Y119525340D01*
G75*
G02*
X56021680Y119595340I0J70000D01*
G01*
X56021680Y120375340D01*
G75*
G02*
X56091680Y120445340I70000J0D01*
G01*
X56651680Y120445340D01*
G75*
G02*
X56721680Y120375340I0J-70000D01*
G01*
G37*
G04 #@! TD*
G04 #@! TO.C,R8*
G36*
G01*
X60886680Y121305339D02*
X59636680Y121305339D01*
G75*
G02*
X59536680Y121405339I0J100000D01*
G01*
X59536680Y122205339D01*
G75*
G02*
X59636680Y122305339I100000J0D01*
G01*
X60886680Y122305339D01*
G75*
G02*
X60986680Y122205339I0J-100000D01*
G01*
X60986680Y121405339D01*
G75*
G02*
X60886680Y121305339I-100000J0D01*
G01*
G37*
G36*
G01*
X60886680Y123205361D02*
X59636680Y123205361D01*
G75*
G02*
X59536680Y123305361I0J100000D01*
G01*
X59536680Y124105361D01*
G75*
G02*
X59636680Y124205361I100000J0D01*
G01*
X60886680Y124205361D01*
G75*
G02*
X60986680Y124105361I0J-100000D01*
G01*
X60986680Y123305361D01*
G75*
G02*
X60886680Y123205361I-100000J0D01*
G01*
G37*
G04 #@! TD*
G04 #@! TO.C,R32*
G36*
G01*
X38726680Y128255339D02*
X37476680Y128255339D01*
G75*
G02*
X37376680Y128355339I0J100000D01*
G01*
X37376680Y129155339D01*
G75*
G02*
X37476680Y129255339I100000J0D01*
G01*
X38726680Y129255339D01*
G75*
G02*
X38826680Y129155339I0J-100000D01*
G01*
X38826680Y128355339D01*
G75*
G02*
X38726680Y128255339I-100000J0D01*
G01*
G37*
G36*
G01*
X38726680Y130155361D02*
X37476680Y130155361D01*
G75*
G02*
X37376680Y130255361I0J100000D01*
G01*
X37376680Y131055361D01*
G75*
G02*
X37476680Y131155361I100000J0D01*
G01*
X38726680Y131155361D01*
G75*
G02*
X38826680Y131055361I0J-100000D01*
G01*
X38826680Y130255361D01*
G75*
G02*
X38726680Y130155361I-100000J0D01*
G01*
G37*
G04 #@! TD*
G04 #@! TO.C,R2*
G36*
G01*
X24710000Y87162500D02*
X25490000Y87162500D01*
G75*
G02*
X25560000Y87092500I0J-70000D01*
G01*
X25560000Y86532500D01*
G75*
G02*
X25490000Y86462500I-70000J0D01*
G01*
X24710000Y86462500D01*
G75*
G02*
X24640000Y86532500I0J70000D01*
G01*
X24640000Y87092500D01*
G75*
G02*
X24710000Y87162500I70000J0D01*
G01*
G37*
G36*
G01*
X24710000Y85562500D02*
X25490000Y85562500D01*
G75*
G02*
X25560000Y85492500I0J-70000D01*
G01*
X25560000Y84932500D01*
G75*
G02*
X25490000Y84862500I-70000J0D01*
G01*
X24710000Y84862500D01*
G75*
G02*
X24640000Y84932500I0J70000D01*
G01*
X24640000Y85492500D01*
G75*
G02*
X24710000Y85562500I70000J0D01*
G01*
G37*
G04 #@! TD*
G04 #@! TO.C,R4*
G36*
G01*
X113181680Y109745340D02*
X113181680Y110525340D01*
G75*
G02*
X113251680Y110595340I70000J0D01*
G01*
X113811680Y110595340D01*
G75*
G02*
X113881680Y110525340I0J-70000D01*
G01*
X113881680Y109745340D01*
G75*
G02*
X113811680Y109675340I-70000J0D01*
G01*
X113251680Y109675340D01*
G75*
G02*
X113181680Y109745340I0J70000D01*
G01*
G37*
G36*
G01*
X114781680Y109745340D02*
X114781680Y110525340D01*
G75*
G02*
X114851680Y110595340I70000J0D01*
G01*
X115411680Y110595340D01*
G75*
G02*
X115481680Y110525340I0J-70000D01*
G01*
X115481680Y109745340D01*
G75*
G02*
X115411680Y109675340I-70000J0D01*
G01*
X114851680Y109675340D01*
G75*
G02*
X114781680Y109745340I0J70000D01*
G01*
G37*
G04 #@! TD*
G04 #@! TO.C,C3*
G36*
G01*
X61596678Y25965340D02*
X61596678Y26645340D01*
G75*
G02*
X61681678Y26730340I85000J0D01*
G01*
X62361678Y26730340D01*
G75*
G02*
X62446678Y26645340I0J-85000D01*
G01*
X62446678Y25965340D01*
G75*
G02*
X62361678Y25880340I-85000J0D01*
G01*
X61681678Y25880340D01*
G75*
G02*
X61596678Y25965340I0J85000D01*
G01*
G37*
G36*
G01*
X63176680Y25965340D02*
X63176680Y26645340D01*
G75*
G02*
X63261680Y26730340I85000J0D01*
G01*
X63941680Y26730340D01*
G75*
G02*
X64026680Y26645340I0J-85000D01*
G01*
X64026680Y25965340D01*
G75*
G02*
X63941680Y25880340I-85000J0D01*
G01*
X63261680Y25880340D01*
G75*
G02*
X63176680Y25965340I0J85000D01*
G01*
G37*
G04 #@! TD*
G04 #@! TO.C,R9*
G36*
G01*
X44731680Y99275340D02*
X45511680Y99275340D01*
G75*
G02*
X45581680Y99205340I0J-70000D01*
G01*
X45581680Y98645340D01*
G75*
G02*
X45511680Y98575340I-70000J0D01*
G01*
X44731680Y98575340D01*
G75*
G02*
X44661680Y98645340I0J70000D01*
G01*
X44661680Y99205340D01*
G75*
G02*
X44731680Y99275340I70000J0D01*
G01*
G37*
G36*
G01*
X44731680Y97675340D02*
X45511680Y97675340D01*
G75*
G02*
X45581680Y97605340I0J-70000D01*
G01*
X45581680Y97045340D01*
G75*
G02*
X45511680Y96975340I-70000J0D01*
G01*
X44731680Y96975340D01*
G75*
G02*
X44661680Y97045340I0J70000D01*
G01*
X44661680Y97605340D01*
G75*
G02*
X44731680Y97675340I70000J0D01*
G01*
G37*
G04 #@! TD*
G04 #@! TO.C,R21*
G36*
G01*
X108791680Y123005340D02*
X108011680Y123005340D01*
G75*
G02*
X107941680Y123075340I0J70000D01*
G01*
X107941680Y123635340D01*
G75*
G02*
X108011680Y123705340I70000J0D01*
G01*
X108791680Y123705340D01*
G75*
G02*
X108861680Y123635340I0J-70000D01*
G01*
X108861680Y123075340D01*
G75*
G02*
X108791680Y123005340I-70000J0D01*
G01*
G37*
G36*
G01*
X108791680Y124605340D02*
X108011680Y124605340D01*
G75*
G02*
X107941680Y124675340I0J70000D01*
G01*
X107941680Y125235340D01*
G75*
G02*
X108011680Y125305340I70000J0D01*
G01*
X108791680Y125305340D01*
G75*
G02*
X108861680Y125235340I0J-70000D01*
G01*
X108861680Y124675340D01*
G75*
G02*
X108791680Y124605340I-70000J0D01*
G01*
G37*
G04 #@! TD*
G04 #@! TO.C,M5*
X57244999Y68321715D03*
G04 #@! TD*
G04 #@! TO.C,R36*
G36*
G01*
X30576680Y128255339D02*
X29326680Y128255339D01*
G75*
G02*
X29226680Y128355339I0J100000D01*
G01*
X29226680Y129155339D01*
G75*
G02*
X29326680Y129255339I100000J0D01*
G01*
X30576680Y129255339D01*
G75*
G02*
X30676680Y129155339I0J-100000D01*
G01*
X30676680Y128355339D01*
G75*
G02*
X30576680Y128255339I-100000J0D01*
G01*
G37*
G36*
G01*
X30576680Y130155361D02*
X29326680Y130155361D01*
G75*
G02*
X29226680Y130255361I0J100000D01*
G01*
X29226680Y131055361D01*
G75*
G02*
X29326680Y131155361I100000J0D01*
G01*
X30576680Y131155361D01*
G75*
G02*
X30676680Y131055361I0J-100000D01*
G01*
X30676680Y130255361D01*
G75*
G02*
X30576680Y130155361I-100000J0D01*
G01*
G37*
G04 #@! TD*
G04 #@! TO.C,D1*
G36*
G01*
X67906019Y6350340D02*
X67906019Y5110340D01*
G75*
G02*
X67776019Y4980340I-130000J0D01*
G01*
X66736019Y4980340D01*
G75*
G02*
X66606019Y5110340I0J130000D01*
G01*
X66606019Y6350340D01*
G75*
G02*
X66736019Y6480340I130000J0D01*
G01*
X67776019Y6480340D01*
G75*
G02*
X67906019Y6350340I0J-130000D01*
G01*
G37*
G36*
G01*
X69806040Y6350340D02*
X69806040Y5110340D01*
G75*
G02*
X69676040Y4980340I-130000J0D01*
G01*
X68636040Y4980340D01*
G75*
G02*
X68506040Y5110340I0J130000D01*
G01*
X68506040Y6350340D01*
G75*
G02*
X68636040Y6480340I130000J0D01*
G01*
X69676040Y6480340D01*
G75*
G02*
X69806040Y6350340I0J-130000D01*
G01*
G37*
G04 #@! TD*
G04 #@! TO.C,R48*
G36*
G01*
X112976680Y127555339D02*
X111726680Y127555339D01*
G75*
G02*
X111626680Y127655339I0J100000D01*
G01*
X111626680Y128455339D01*
G75*
G02*
X111726680Y128555339I100000J0D01*
G01*
X112976680Y128555339D01*
G75*
G02*
X113076680Y128455339I0J-100000D01*
G01*
X113076680Y127655339D01*
G75*
G02*
X112976680Y127555339I-100000J0D01*
G01*
G37*
G36*
G01*
X112976680Y129455361D02*
X111726680Y129455361D01*
G75*
G02*
X111626680Y129555361I0J100000D01*
G01*
X111626680Y130355361D01*
G75*
G02*
X111726680Y130455361I100000J0D01*
G01*
X112976680Y130455361D01*
G75*
G02*
X113076680Y130355361I0J-100000D01*
G01*
X113076680Y129555361D01*
G75*
G02*
X112976680Y129455361I-100000J0D01*
G01*
G37*
G04 #@! TD*
G04 #@! TO.C,D15*
G36*
G01*
X62411889Y79496090D02*
X62411889Y79016090D01*
G75*
G02*
X62351889Y78956090I-60000J0D01*
G01*
X61871889Y78956090D01*
G75*
G02*
X61811889Y79016090I0J60000D01*
G01*
X61811889Y79496090D01*
G75*
G02*
X61871889Y79556090I60000J0D01*
G01*
X62351889Y79556090D01*
G75*
G02*
X62411889Y79496090I0J-60000D01*
G01*
G37*
G36*
G01*
X62411889Y77296090D02*
X62411889Y76816090D01*
G75*
G02*
X62351889Y76756090I-60000J0D01*
G01*
X61871889Y76756090D01*
G75*
G02*
X61811889Y76816090I0J60000D01*
G01*
X61811889Y77296090D01*
G75*
G02*
X61871889Y77356090I60000J0D01*
G01*
X62351889Y77356090D01*
G75*
G02*
X62411889Y77296090I0J-60000D01*
G01*
G37*
G04 #@! TD*
G04 #@! TO.C,C7*
G36*
G01*
X34790197Y120526785D02*
X35470197Y120526785D01*
G75*
G02*
X35555197Y120441785I0J-85000D01*
G01*
X35555197Y119761785D01*
G75*
G02*
X35470197Y119676785I-85000J0D01*
G01*
X34790197Y119676785D01*
G75*
G02*
X34705197Y119761785I0J85000D01*
G01*
X34705197Y120441785D01*
G75*
G02*
X34790197Y120526785I85000J0D01*
G01*
G37*
G36*
G01*
X34790197Y118946783D02*
X35470197Y118946783D01*
G75*
G02*
X35555197Y118861783I0J-85000D01*
G01*
X35555197Y118181783D01*
G75*
G02*
X35470197Y118096783I-85000J0D01*
G01*
X34790197Y118096783D01*
G75*
G02*
X34705197Y118181783I0J85000D01*
G01*
X34705197Y118861783D01*
G75*
G02*
X34790197Y118946783I85000J0D01*
G01*
G37*
G04 #@! TD*
G04 #@! TO.C,C1*
G36*
G01*
X66211680Y22945341D02*
X66891680Y22945341D01*
G75*
G02*
X66976680Y22860341I0J-85000D01*
G01*
X66976680Y22180341D01*
G75*
G02*
X66891680Y22095341I-85000J0D01*
G01*
X66211680Y22095341D01*
G75*
G02*
X66126680Y22180341I0J85000D01*
G01*
X66126680Y22860341D01*
G75*
G02*
X66211680Y22945341I85000J0D01*
G01*
G37*
G36*
G01*
X66211680Y21365339D02*
X66891680Y21365339D01*
G75*
G02*
X66976680Y21280339I0J-85000D01*
G01*
X66976680Y20600339D01*
G75*
G02*
X66891680Y20515339I-85000J0D01*
G01*
X66211680Y20515339D01*
G75*
G02*
X66126680Y20600339I0J85000D01*
G01*
X66126680Y21280339D01*
G75*
G02*
X66211680Y21365339I85000J0D01*
G01*
G37*
G04 #@! TD*
G04 #@! TO.C,F3*
G36*
G01*
X22446670Y133905340D02*
X21756670Y133905340D01*
G75*
G02*
X21526670Y134135340I0J230000D01*
G01*
X21526670Y135475340D01*
G75*
G02*
X21756670Y135705340I230000J0D01*
G01*
X22446670Y135705340D01*
G75*
G02*
X22676670Y135475340I0J-230000D01*
G01*
X22676670Y134135340D01*
G75*
G02*
X22446670Y133905340I-230000J0D01*
G01*
G37*
G36*
G01*
X25346690Y133905340D02*
X24656690Y133905340D01*
G75*
G02*
X24426690Y134135340I0J230000D01*
G01*
X24426690Y135475340D01*
G75*
G02*
X24656690Y135705340I230000J0D01*
G01*
X25346690Y135705340D01*
G75*
G02*
X25576690Y135475340I0J-230000D01*
G01*
X25576690Y134135340D01*
G75*
G02*
X25346690Y133905340I-230000J0D01*
G01*
G37*
G04 #@! TD*
G04 #@! TO.C,S1*
G36*
G01*
X63221680Y21305341D02*
X65181680Y21305341D01*
G75*
G02*
X65301680Y21185341I0J-120000D01*
G01*
X65301680Y20225341D01*
G75*
G02*
X65181680Y20105341I-120000J0D01*
G01*
X63221680Y20105341D01*
G75*
G02*
X63101680Y20225341I0J120000D01*
G01*
X63101680Y21185341D01*
G75*
G02*
X63221680Y21305341I120000J0D01*
G01*
G37*
G36*
G01*
X63221680Y17105340D02*
X65181680Y17105340D01*
G75*
G02*
X65301680Y16985340I0J-120000D01*
G01*
X65301680Y16025340D01*
G75*
G02*
X65181680Y15905340I-120000J0D01*
G01*
X63221680Y15905340D01*
G75*
G02*
X63101680Y16025340I0J120000D01*
G01*
X63101680Y16985340D01*
G75*
G02*
X63221680Y17105340I120000J0D01*
G01*
G37*
G04 #@! TD*
G04 #@! TO.C,D6*
G36*
G01*
X71811891Y79556089D02*
X72711891Y79556089D01*
G75*
G02*
X72811891Y79456089I0J-100000D01*
G01*
X72811891Y78656089D01*
G75*
G02*
X72711891Y78556089I-100000J0D01*
G01*
X71811891Y78556089D01*
G75*
G02*
X71711891Y78656089I0J100000D01*
G01*
X71711891Y79456089D01*
G75*
G02*
X71811891Y79556089I100000J0D01*
G01*
G37*
G36*
G01*
X71811891Y77856089D02*
X72711891Y77856089D01*
G75*
G02*
X72811891Y77756089I0J-100000D01*
G01*
X72811891Y76956089D01*
G75*
G02*
X72711891Y76856089I-100000J0D01*
G01*
X71811891Y76856089D01*
G75*
G02*
X71711891Y76956089I0J100000D01*
G01*
X71711891Y77756089D01*
G75*
G02*
X71811891Y77856089I100000J0D01*
G01*
G37*
G04 #@! TD*
G04 #@! TO.C,C4*
G36*
G01*
X131806682Y84545340D02*
X131806682Y83865340D01*
G75*
G02*
X131721682Y83780340I-85000J0D01*
G01*
X131041682Y83780340D01*
G75*
G02*
X130956682Y83865340I0J85000D01*
G01*
X130956682Y84545340D01*
G75*
G02*
X131041682Y84630340I85000J0D01*
G01*
X131721682Y84630340D01*
G75*
G02*
X131806682Y84545340I0J-85000D01*
G01*
G37*
G36*
G01*
X130226680Y84545340D02*
X130226680Y83865340D01*
G75*
G02*
X130141680Y83780340I-85000J0D01*
G01*
X129461680Y83780340D01*
G75*
G02*
X129376680Y83865340I0J85000D01*
G01*
X129376680Y84545340D01*
G75*
G02*
X129461680Y84630340I85000J0D01*
G01*
X130141680Y84630340D01*
G75*
G02*
X130226680Y84545340I0J-85000D01*
G01*
G37*
G04 #@! TD*
G04 #@! TO.C,R24*
G36*
G01*
X112626680Y121305339D02*
X111376680Y121305339D01*
G75*
G02*
X111276680Y121405339I0J100000D01*
G01*
X111276680Y122205339D01*
G75*
G02*
X111376680Y122305339I100000J0D01*
G01*
X112626680Y122305339D01*
G75*
G02*
X112726680Y122205339I0J-100000D01*
G01*
X112726680Y121405339D01*
G75*
G02*
X112626680Y121305339I-100000J0D01*
G01*
G37*
G36*
G01*
X112626680Y123205361D02*
X111376680Y123205361D01*
G75*
G02*
X111276680Y123305361I0J100000D01*
G01*
X111276680Y124105361D01*
G75*
G02*
X111376680Y124205361I100000J0D01*
G01*
X112626680Y124205361D01*
G75*
G02*
X112726680Y124105361I0J-100000D01*
G01*
X112726680Y123305361D01*
G75*
G02*
X112626680Y123205361I-100000J0D01*
G01*
G37*
G04 #@! TD*
G04 #@! TO.C,D28*
G36*
G01*
X55996680Y77215340D02*
X55996680Y76195340D01*
G75*
G02*
X55906680Y76105340I-90000J0D01*
G01*
X55186680Y76105340D01*
G75*
G02*
X55096680Y76195340I0J90000D01*
G01*
X55096680Y77215340D01*
G75*
G02*
X55186680Y77305340I90000J0D01*
G01*
X55906680Y77305340D01*
G75*
G02*
X55996680Y77215340I0J-90000D01*
G01*
G37*
G36*
G01*
X52696680Y77215340D02*
X52696680Y76195340D01*
G75*
G02*
X52606680Y76105340I-90000J0D01*
G01*
X51886680Y76105340D01*
G75*
G02*
X51796680Y76195340I0J90000D01*
G01*
X51796680Y77215340D01*
G75*
G02*
X51886680Y77305340I90000J0D01*
G01*
X52606680Y77305340D01*
G75*
G02*
X52696680Y77215340I0J-90000D01*
G01*
G37*
G04 #@! TD*
G04 #@! TO.C,R33*
G36*
G01*
X32626680Y128255339D02*
X31376680Y128255339D01*
G75*
G02*
X31276680Y128355339I0J100000D01*
G01*
X31276680Y129155339D01*
G75*
G02*
X31376680Y129255339I100000J0D01*
G01*
X32626680Y129255339D01*
G75*
G02*
X32726680Y129155339I0J-100000D01*
G01*
X32726680Y128355339D01*
G75*
G02*
X32626680Y128255339I-100000J0D01*
G01*
G37*
G36*
G01*
X32626680Y130155361D02*
X31376680Y130155361D01*
G75*
G02*
X31276680Y130255361I0J100000D01*
G01*
X31276680Y131055361D01*
G75*
G02*
X31376680Y131155361I100000J0D01*
G01*
X32626680Y131155361D01*
G75*
G02*
X32726680Y131055361I0J-100000D01*
G01*
X32726680Y130255361D01*
G75*
G02*
X32626680Y130155361I-100000J0D01*
G01*
G37*
G04 #@! TD*
G04 #@! TO.C,D12*
G36*
G01*
X74199386Y79494591D02*
X74199386Y79014591D01*
G75*
G02*
X74139386Y78954591I-60000J0D01*
G01*
X73659386Y78954591D01*
G75*
G02*
X73599386Y79014591I0J60000D01*
G01*
X73599386Y79494591D01*
G75*
G02*
X73659386Y79554591I60000J0D01*
G01*
X74139386Y79554591D01*
G75*
G02*
X74199386Y79494591I0J-60000D01*
G01*
G37*
G36*
G01*
X74199386Y77294591D02*
X74199386Y76814591D01*
G75*
G02*
X74139386Y76754591I-60000J0D01*
G01*
X73659386Y76754591D01*
G75*
G02*
X73599386Y76814591I0J60000D01*
G01*
X73599386Y77294591D01*
G75*
G02*
X73659386Y77354591I60000J0D01*
G01*
X74139386Y77354591D01*
G75*
G02*
X74199386Y77294591I0J-60000D01*
G01*
G37*
G04 #@! TD*
G04 #@! TO.C,R42*
G36*
G01*
X14016221Y126259437D02*
X12766221Y126259437D01*
G75*
G02*
X12666221Y126359437I0J100000D01*
G01*
X12666221Y127159437D01*
G75*
G02*
X12766221Y127259437I100000J0D01*
G01*
X14016221Y127259437D01*
G75*
G02*
X14116221Y127159437I0J-100000D01*
G01*
X14116221Y126359437D01*
G75*
G02*
X14016221Y126259437I-100000J0D01*
G01*
G37*
G36*
G01*
X14016221Y128159459D02*
X12766221Y128159459D01*
G75*
G02*
X12666221Y128259459I0J100000D01*
G01*
X12666221Y129059459D01*
G75*
G02*
X12766221Y129159459I100000J0D01*
G01*
X14016221Y129159459D01*
G75*
G02*
X14116221Y129059459I0J-100000D01*
G01*
X14116221Y128259459D01*
G75*
G02*
X14016221Y128159459I-100000J0D01*
G01*
G37*
G04 #@! TD*
G04 #@! TO.C,D22*
G36*
G01*
X38989177Y92443841D02*
X38989177Y91963841D01*
G75*
G02*
X38929177Y91903841I-60000J0D01*
G01*
X38449177Y91903841D01*
G75*
G02*
X38389177Y91963841I0J60000D01*
G01*
X38389177Y92443841D01*
G75*
G02*
X38449177Y92503841I60000J0D01*
G01*
X38929177Y92503841D01*
G75*
G02*
X38989177Y92443841I0J-60000D01*
G01*
G37*
G36*
G01*
X38989177Y90243841D02*
X38989177Y89763841D01*
G75*
G02*
X38929177Y89703841I-60000J0D01*
G01*
X38449177Y89703841D01*
G75*
G02*
X38389177Y89763841I0J60000D01*
G01*
X38389177Y90243841D01*
G75*
G02*
X38449177Y90303841I60000J0D01*
G01*
X38929177Y90303841D01*
G75*
G02*
X38989177Y90243841I0J-60000D01*
G01*
G37*
G04 #@! TD*
G04 #@! TO.C,D11*
G36*
G01*
X28995000Y90212521D02*
X27755000Y90212521D01*
G75*
G02*
X27625000Y90342521I0J130000D01*
G01*
X27625000Y91382521D01*
G75*
G02*
X27755000Y91512521I130000J0D01*
G01*
X28995000Y91512521D01*
G75*
G02*
X29125000Y91382521I0J-130000D01*
G01*
X29125000Y90342521D01*
G75*
G02*
X28995000Y90212521I-130000J0D01*
G01*
G37*
G36*
G01*
X28995000Y88312500D02*
X27755000Y88312500D01*
G75*
G02*
X27625000Y88442500I0J130000D01*
G01*
X27625000Y89482500D01*
G75*
G02*
X27755000Y89612500I130000J0D01*
G01*
X28995000Y89612500D01*
G75*
G02*
X29125000Y89482500I0J-130000D01*
G01*
X29125000Y88442500D01*
G75*
G02*
X28995000Y88312500I-130000J0D01*
G01*
G37*
G04 #@! TD*
G04 #@! TO.C,C17*
G36*
G01*
X39526680Y100830340D02*
X40576680Y100830340D01*
G75*
G02*
X40676680Y100730340I0J-100000D01*
G01*
X40676680Y99930340D01*
G75*
G02*
X40576680Y99830340I-100000J0D01*
G01*
X39526680Y99830340D01*
G75*
G02*
X39426680Y99930340I0J100000D01*
G01*
X39426680Y100730340D01*
G75*
G02*
X39526680Y100830340I100000J0D01*
G01*
G37*
G36*
G01*
X39526680Y98830340D02*
X40576680Y98830340D01*
G75*
G02*
X40676680Y98730340I0J-100000D01*
G01*
X40676680Y97930340D01*
G75*
G02*
X40576680Y97830340I-100000J0D01*
G01*
X39526680Y97830340D01*
G75*
G02*
X39426680Y97930340I0J100000D01*
G01*
X39426680Y98730340D01*
G75*
G02*
X39526680Y98830340I100000J0D01*
G01*
G37*
G04 #@! TD*
G04 #@! TO.C,R11*
G36*
G01*
X93671680Y129895340D02*
X94451680Y129895340D01*
G75*
G02*
X94521680Y129825340I0J-70000D01*
G01*
X94521680Y129265340D01*
G75*
G02*
X94451680Y129195340I-70000J0D01*
G01*
X93671680Y129195340D01*
G75*
G02*
X93601680Y129265340I0J70000D01*
G01*
X93601680Y129825340D01*
G75*
G02*
X93671680Y129895340I70000J0D01*
G01*
G37*
G36*
G01*
X93671680Y128295340D02*
X94451680Y128295340D01*
G75*
G02*
X94521680Y128225340I0J-70000D01*
G01*
X94521680Y127665340D01*
G75*
G02*
X94451680Y127595340I-70000J0D01*
G01*
X93671680Y127595340D01*
G75*
G02*
X93601680Y127665340I0J70000D01*
G01*
X93601680Y128225340D01*
G75*
G02*
X93671680Y128295340I70000J0D01*
G01*
G37*
G04 #@! TD*
G04 #@! TO.C,R6*
G36*
G01*
X69611889Y83491090D02*
X69611889Y82821090D01*
G75*
G02*
X69546889Y82756090I-65000J0D01*
G01*
X69026889Y82756090D01*
G75*
G02*
X68961889Y82821090I0J65000D01*
G01*
X68961889Y83491090D01*
G75*
G02*
X69026889Y83556090I65000J0D01*
G01*
X69546889Y83556090D01*
G75*
G02*
X69611889Y83491090I0J-65000D01*
G01*
G37*
G36*
G01*
X68636889Y83511090D02*
X68636889Y82801090D01*
G75*
G02*
X68591889Y82756090I-45000J0D01*
G01*
X68231889Y82756090D01*
G75*
G02*
X68186889Y82801090I0J45000D01*
G01*
X68186889Y83511090D01*
G75*
G02*
X68231889Y83556090I45000J0D01*
G01*
X68591889Y83556090D01*
G75*
G02*
X68636889Y83511090I0J-45000D01*
G01*
G37*
G36*
G01*
X67836889Y83511090D02*
X67836889Y82801090D01*
G75*
G02*
X67791889Y82756090I-45000J0D01*
G01*
X67431889Y82756090D01*
G75*
G02*
X67386889Y82801090I0J45000D01*
G01*
X67386889Y83511090D01*
G75*
G02*
X67431889Y83556090I45000J0D01*
G01*
X67791889Y83556090D01*
G75*
G02*
X67836889Y83511090I0J-45000D01*
G01*
G37*
G36*
G01*
X67061889Y83491090D02*
X67061889Y82821090D01*
G75*
G02*
X66996889Y82756090I-65000J0D01*
G01*
X66476889Y82756090D01*
G75*
G02*
X66411889Y82821090I0J65000D01*
G01*
X66411889Y83491090D01*
G75*
G02*
X66476889Y83556090I65000J0D01*
G01*
X66996889Y83556090D01*
G75*
G02*
X67061889Y83491090I0J-65000D01*
G01*
G37*
G36*
G01*
X67061889Y81691090D02*
X67061889Y81021090D01*
G75*
G02*
X66996889Y80956090I-65000J0D01*
G01*
X66476889Y80956090D01*
G75*
G02*
X66411889Y81021090I0J65000D01*
G01*
X66411889Y81691090D01*
G75*
G02*
X66476889Y81756090I65000J0D01*
G01*
X66996889Y81756090D01*
G75*
G02*
X67061889Y81691090I0J-65000D01*
G01*
G37*
G36*
G01*
X67836889Y81711090D02*
X67836889Y81001090D01*
G75*
G02*
X67791889Y80956090I-45000J0D01*
G01*
X67431889Y80956090D01*
G75*
G02*
X67386889Y81001090I0J45000D01*
G01*
X67386889Y81711090D01*
G75*
G02*
X67431889Y81756090I45000J0D01*
G01*
X67791889Y81756090D01*
G75*
G02*
X67836889Y81711090I0J-45000D01*
G01*
G37*
G36*
G01*
X68636889Y81711090D02*
X68636889Y81001090D01*
G75*
G02*
X68591889Y80956090I-45000J0D01*
G01*
X68231889Y80956090D01*
G75*
G02*
X68186889Y81001090I0J45000D01*
G01*
X68186889Y81711090D01*
G75*
G02*
X68231889Y81756090I45000J0D01*
G01*
X68591889Y81756090D01*
G75*
G02*
X68636889Y81711090I0J-45000D01*
G01*
G37*
G36*
G01*
X69611889Y81691090D02*
X69611889Y81021090D01*
G75*
G02*
X69546889Y80956090I-65000J0D01*
G01*
X69026889Y80956090D01*
G75*
G02*
X68961889Y81021090I0J65000D01*
G01*
X68961889Y81691090D01*
G75*
G02*
X69026889Y81756090I65000J0D01*
G01*
X69546889Y81756090D01*
G75*
G02*
X69611889Y81691090I0J-65000D01*
G01*
G37*
G04 #@! TD*
G04 #@! TO.C,R43*
G36*
G01*
X128076680Y121105339D02*
X126826680Y121105339D01*
G75*
G02*
X126726680Y121205339I0J100000D01*
G01*
X126726680Y122005339D01*
G75*
G02*
X126826680Y122105339I100000J0D01*
G01*
X128076680Y122105339D01*
G75*
G02*
X128176680Y122005339I0J-100000D01*
G01*
X128176680Y121205339D01*
G75*
G02*
X128076680Y121105339I-100000J0D01*
G01*
G37*
G36*
G01*
X128076680Y123005361D02*
X126826680Y123005361D01*
G75*
G02*
X126726680Y123105361I0J100000D01*
G01*
X126726680Y123905361D01*
G75*
G02*
X126826680Y124005361I100000J0D01*
G01*
X128076680Y124005361D01*
G75*
G02*
X128176680Y123905361I0J-100000D01*
G01*
X128176680Y123105361D01*
G75*
G02*
X128076680Y123005361I-100000J0D01*
G01*
G37*
G04 #@! TD*
G04 #@! TO.C,R55*
G36*
G01*
X87151680Y108345340D02*
X87151680Y107565340D01*
G75*
G02*
X87081680Y107495340I-70000J0D01*
G01*
X86521680Y107495340D01*
G75*
G02*
X86451680Y107565340I0J70000D01*
G01*
X86451680Y108345340D01*
G75*
G02*
X86521680Y108415340I70000J0D01*
G01*
X87081680Y108415340D01*
G75*
G02*
X87151680Y108345340I0J-70000D01*
G01*
G37*
G36*
G01*
X85551680Y108345340D02*
X85551680Y107565340D01*
G75*
G02*
X85481680Y107495340I-70000J0D01*
G01*
X84921680Y107495340D01*
G75*
G02*
X84851680Y107565340I0J70000D01*
G01*
X84851680Y108345340D01*
G75*
G02*
X84921680Y108415340I70000J0D01*
G01*
X85481680Y108415340D01*
G75*
G02*
X85551680Y108345340I0J-70000D01*
G01*
G37*
G04 #@! TD*
G04 #@! TO.C,R52*
G36*
G01*
X63306680Y121295339D02*
X62056680Y121295339D01*
G75*
G02*
X61956680Y121395339I0J100000D01*
G01*
X61956680Y122195339D01*
G75*
G02*
X62056680Y122295339I100000J0D01*
G01*
X63306680Y122295339D01*
G75*
G02*
X63406680Y122195339I0J-100000D01*
G01*
X63406680Y121395339D01*
G75*
G02*
X63306680Y121295339I-100000J0D01*
G01*
G37*
G36*
G01*
X63306680Y123195361D02*
X62056680Y123195361D01*
G75*
G02*
X61956680Y123295361I0J100000D01*
G01*
X61956680Y124095361D01*
G75*
G02*
X62056680Y124195361I100000J0D01*
G01*
X63306680Y124195361D01*
G75*
G02*
X63406680Y124095361I0J-100000D01*
G01*
X63406680Y123295361D01*
G75*
G02*
X63306680Y123195361I-100000J0D01*
G01*
G37*
G04 #@! TD*
G04 #@! TO.C,D30*
G36*
G01*
X96662380Y100599897D02*
X97142380Y100599897D01*
G75*
G02*
X97202380Y100539897I0J-60000D01*
G01*
X97202380Y100059897D01*
G75*
G02*
X97142380Y99999897I-60000J0D01*
G01*
X96662380Y99999897D01*
G75*
G02*
X96602380Y100059897I0J60000D01*
G01*
X96602380Y100539897D01*
G75*
G02*
X96662380Y100599897I60000J0D01*
G01*
G37*
G36*
G01*
X98862380Y100599897D02*
X99342380Y100599897D01*
G75*
G02*
X99402380Y100539897I0J-60000D01*
G01*
X99402380Y100059897D01*
G75*
G02*
X99342380Y99999897I-60000J0D01*
G01*
X98862380Y99999897D01*
G75*
G02*
X98802380Y100059897I0J60000D01*
G01*
X98802380Y100539897D01*
G75*
G02*
X98862380Y100599897I60000J0D01*
G01*
G37*
G04 #@! TD*
G04 #@! TO.C,M8*
X58359046Y98199900D03*
G04 #@! TD*
G04 #@! TO.C,R17*
G36*
G01*
X130676680Y123865341D02*
X131926680Y123865341D01*
G75*
G02*
X132026680Y123765341I0J-100000D01*
G01*
X132026680Y122965341D01*
G75*
G02*
X131926680Y122865341I-100000J0D01*
G01*
X130676680Y122865341D01*
G75*
G02*
X130576680Y122965341I0J100000D01*
G01*
X130576680Y123765341D01*
G75*
G02*
X130676680Y123865341I100000J0D01*
G01*
G37*
G36*
G01*
X130676680Y121965319D02*
X131926680Y121965319D01*
G75*
G02*
X132026680Y121865319I0J-100000D01*
G01*
X132026680Y121065319D01*
G75*
G02*
X131926680Y120965319I-100000J0D01*
G01*
X130676680Y120965319D01*
G75*
G02*
X130576680Y121065319I0J100000D01*
G01*
X130576680Y121865319D01*
G75*
G02*
X130676680Y121965319I100000J0D01*
G01*
G37*
G04 #@! TD*
G04 #@! TO.C,M13*
X104618539Y19553554D03*
G04 #@! TD*
G04 #@! TO.C,S2*
G36*
G01*
X67796680Y21305341D02*
X69756680Y21305341D01*
G75*
G02*
X69876680Y21185341I0J-120000D01*
G01*
X69876680Y20225341D01*
G75*
G02*
X69756680Y20105341I-120000J0D01*
G01*
X67796680Y20105341D01*
G75*
G02*
X67676680Y20225341I0J120000D01*
G01*
X67676680Y21185341D01*
G75*
G02*
X67796680Y21305341I120000J0D01*
G01*
G37*
G36*
G01*
X67796680Y17105340D02*
X69756680Y17105340D01*
G75*
G02*
X69876680Y16985340I0J-120000D01*
G01*
X69876680Y16025340D01*
G75*
G02*
X69756680Y15905340I-120000J0D01*
G01*
X67796680Y15905340D01*
G75*
G02*
X67676680Y16025340I0J120000D01*
G01*
X67676680Y16985340D01*
G75*
G02*
X67796680Y17105340I120000J0D01*
G01*
G37*
G04 #@! TD*
G04 #@! TO.C,R40*
G36*
G01*
X18936680Y126305339D02*
X17686680Y126305339D01*
G75*
G02*
X17586680Y126405339I0J100000D01*
G01*
X17586680Y127205339D01*
G75*
G02*
X17686680Y127305339I100000J0D01*
G01*
X18936680Y127305339D01*
G75*
G02*
X19036680Y127205339I0J-100000D01*
G01*
X19036680Y126405339D01*
G75*
G02*
X18936680Y126305339I-100000J0D01*
G01*
G37*
G36*
G01*
X18936680Y128205361D02*
X17686680Y128205361D01*
G75*
G02*
X17586680Y128305361I0J100000D01*
G01*
X17586680Y129105361D01*
G75*
G02*
X17686680Y129205361I100000J0D01*
G01*
X18936680Y129205361D01*
G75*
G02*
X19036680Y129105361I0J-100000D01*
G01*
X19036680Y128305361D01*
G75*
G02*
X18936680Y128205361I-100000J0D01*
G01*
G37*
G04 #@! TD*
G04 #@! TO.C,D23*
G36*
G01*
X35701680Y92445340D02*
X35701680Y91965340D01*
G75*
G02*
X35641680Y91905340I-60000J0D01*
G01*
X35161680Y91905340D01*
G75*
G02*
X35101680Y91965340I0J60000D01*
G01*
X35101680Y92445340D01*
G75*
G02*
X35161680Y92505340I60000J0D01*
G01*
X35641680Y92505340D01*
G75*
G02*
X35701680Y92445340I0J-60000D01*
G01*
G37*
G36*
G01*
X35701680Y90245340D02*
X35701680Y89765340D01*
G75*
G02*
X35641680Y89705340I-60000J0D01*
G01*
X35161680Y89705340D01*
G75*
G02*
X35101680Y89765340I0J60000D01*
G01*
X35101680Y90245340D01*
G75*
G02*
X35161680Y90305340I60000J0D01*
G01*
X35641680Y90305340D01*
G75*
G02*
X35701680Y90245340I0J-60000D01*
G01*
G37*
G04 #@! TD*
G04 #@! TO.C,D26*
G36*
G01*
X96602381Y103412402D02*
X96602381Y104312402D01*
G75*
G02*
X96702381Y104412402I100000J0D01*
G01*
X97502381Y104412402D01*
G75*
G02*
X97602381Y104312402I0J-100000D01*
G01*
X97602381Y103412402D01*
G75*
G02*
X97502381Y103312402I-100000J0D01*
G01*
X96702381Y103312402D01*
G75*
G02*
X96602381Y103412402I0J100000D01*
G01*
G37*
G36*
G01*
X98302381Y103412402D02*
X98302381Y104312402D01*
G75*
G02*
X98402381Y104412402I100000J0D01*
G01*
X99202381Y104412402D01*
G75*
G02*
X99302381Y104312402I0J-100000D01*
G01*
X99302381Y103412402D01*
G75*
G02*
X99202381Y103312402I-100000J0D01*
G01*
X98402381Y103312402D01*
G75*
G02*
X98302381Y103412402I0J100000D01*
G01*
G37*
G04 #@! TD*
G04 #@! TO.C,C22*
G36*
G01*
X112616681Y109895340D02*
X112616681Y109215340D01*
G75*
G02*
X112531681Y109130340I-85000J0D01*
G01*
X111851681Y109130340D01*
G75*
G02*
X111766681Y109215340I0J85000D01*
G01*
X111766681Y109895340D01*
G75*
G02*
X111851681Y109980340I85000J0D01*
G01*
X112531681Y109980340D01*
G75*
G02*
X112616681Y109895340I0J-85000D01*
G01*
G37*
G36*
G01*
X111036679Y109895340D02*
X111036679Y109215340D01*
G75*
G02*
X110951679Y109130340I-85000J0D01*
G01*
X110271679Y109130340D01*
G75*
G02*
X110186679Y109215340I0J85000D01*
G01*
X110186679Y109895340D01*
G75*
G02*
X110271679Y109980340I85000J0D01*
G01*
X110951679Y109980340D01*
G75*
G02*
X111036679Y109895340I0J-85000D01*
G01*
G37*
G04 #@! TD*
G04 #@! TO.C,C16*
G36*
G01*
X43596680Y121225340D02*
X44646680Y121225340D01*
G75*
G02*
X44746680Y121125340I0J-100000D01*
G01*
X44746680Y120325340D01*
G75*
G02*
X44646680Y120225340I-100000J0D01*
G01*
X43596680Y120225340D01*
G75*
G02*
X43496680Y120325340I0J100000D01*
G01*
X43496680Y121125340D01*
G75*
G02*
X43596680Y121225340I100000J0D01*
G01*
G37*
G36*
G01*
X43596680Y119225340D02*
X44646680Y119225340D01*
G75*
G02*
X44746680Y119125340I0J-100000D01*
G01*
X44746680Y118325340D01*
G75*
G02*
X44646680Y118225340I-100000J0D01*
G01*
X43596680Y118225340D01*
G75*
G02*
X43496680Y118325340I0J100000D01*
G01*
X43496680Y119125340D01*
G75*
G02*
X43596680Y119225340I100000J0D01*
G01*
G37*
G04 #@! TD*
G04 #@! TO.C,R16*
G36*
G01*
X92367380Y104512400D02*
X93037380Y104512400D01*
G75*
G02*
X93102380Y104447400I0J-65000D01*
G01*
X93102380Y103927400D01*
G75*
G02*
X93037380Y103862400I-65000J0D01*
G01*
X92367380Y103862400D01*
G75*
G02*
X92302380Y103927400I0J65000D01*
G01*
X92302380Y104447400D01*
G75*
G02*
X92367380Y104512400I65000J0D01*
G01*
G37*
G36*
G01*
X92347380Y103537400D02*
X93057380Y103537400D01*
G75*
G02*
X93102380Y103492400I0J-45000D01*
G01*
X93102380Y103132400D01*
G75*
G02*
X93057380Y103087400I-45000J0D01*
G01*
X92347380Y103087400D01*
G75*
G02*
X92302380Y103132400I0J45000D01*
G01*
X92302380Y103492400D01*
G75*
G02*
X92347380Y103537400I45000J0D01*
G01*
G37*
G36*
G01*
X92347380Y102737400D02*
X93057380Y102737400D01*
G75*
G02*
X93102380Y102692400I0J-45000D01*
G01*
X93102380Y102332400D01*
G75*
G02*
X93057380Y102287400I-45000J0D01*
G01*
X92347380Y102287400D01*
G75*
G02*
X92302380Y102332400I0J45000D01*
G01*
X92302380Y102692400D01*
G75*
G02*
X92347380Y102737400I45000J0D01*
G01*
G37*
G36*
G01*
X92367380Y101962400D02*
X93037380Y101962400D01*
G75*
G02*
X93102380Y101897400I0J-65000D01*
G01*
X93102380Y101377400D01*
G75*
G02*
X93037380Y101312400I-65000J0D01*
G01*
X92367380Y101312400D01*
G75*
G02*
X92302380Y101377400I0J65000D01*
G01*
X92302380Y101897400D01*
G75*
G02*
X92367380Y101962400I65000J0D01*
G01*
G37*
G36*
G01*
X94167380Y101962400D02*
X94837380Y101962400D01*
G75*
G02*
X94902380Y101897400I0J-65000D01*
G01*
X94902380Y101377400D01*
G75*
G02*
X94837380Y101312400I-65000J0D01*
G01*
X94167380Y101312400D01*
G75*
G02*
X94102380Y101377400I0J65000D01*
G01*
X94102380Y101897400D01*
G75*
G02*
X94167380Y101962400I65000J0D01*
G01*
G37*
G36*
G01*
X94147380Y102737400D02*
X94857380Y102737400D01*
G75*
G02*
X94902380Y102692400I0J-45000D01*
G01*
X94902380Y102332400D01*
G75*
G02*
X94857380Y102287400I-45000J0D01*
G01*
X94147380Y102287400D01*
G75*
G02*
X94102380Y102332400I0J45000D01*
G01*
X94102380Y102692400D01*
G75*
G02*
X94147380Y102737400I45000J0D01*
G01*
G37*
G36*
G01*
X94147380Y103537400D02*
X94857380Y103537400D01*
G75*
G02*
X94902380Y103492400I0J-45000D01*
G01*
X94902380Y103132400D01*
G75*
G02*
X94857380Y103087400I-45000J0D01*
G01*
X94147380Y103087400D01*
G75*
G02*
X94102380Y103132400I0J45000D01*
G01*
X94102380Y103492400D01*
G75*
G02*
X94147380Y103537400I45000J0D01*
G01*
G37*
G36*
G01*
X94167380Y104512400D02*
X94837380Y104512400D01*
G75*
G02*
X94902380Y104447400I0J-65000D01*
G01*
X94902380Y103927400D01*
G75*
G02*
X94837380Y103862400I-65000J0D01*
G01*
X94167380Y103862400D01*
G75*
G02*
X94102380Y103927400I0J65000D01*
G01*
X94102380Y104447400D01*
G75*
G02*
X94167380Y104512400I65000J0D01*
G01*
G37*
G04 #@! TD*
G04 #@! TO.C,D9*
G36*
G01*
X63311891Y79556089D02*
X64211891Y79556089D01*
G75*
G02*
X64311891Y79456089I0J-100000D01*
G01*
X64311891Y78656089D01*
G75*
G02*
X64211891Y78556089I-100000J0D01*
G01*
X63311891Y78556089D01*
G75*
G02*
X63211891Y78656089I0J100000D01*
G01*
X63211891Y79456089D01*
G75*
G02*
X63311891Y79556089I100000J0D01*
G01*
G37*
G36*
G01*
X63311891Y77856089D02*
X64211891Y77856089D01*
G75*
G02*
X64311891Y77756089I0J-100000D01*
G01*
X64311891Y76956089D01*
G75*
G02*
X64211891Y76856089I-100000J0D01*
G01*
X63311891Y76856089D01*
G75*
G02*
X63211891Y76956089I0J100000D01*
G01*
X63211891Y77756089D01*
G75*
G02*
X63311891Y77856089I100000J0D01*
G01*
G37*
G04 #@! TD*
G04 #@! TO.C,D8*
G36*
G01*
X66611891Y79556089D02*
X67511891Y79556089D01*
G75*
G02*
X67611891Y79456089I0J-100000D01*
G01*
X67611891Y78656089D01*
G75*
G02*
X67511891Y78556089I-100000J0D01*
G01*
X66611891Y78556089D01*
G75*
G02*
X66511891Y78656089I0J100000D01*
G01*
X66511891Y79456089D01*
G75*
G02*
X66611891Y79556089I100000J0D01*
G01*
G37*
G36*
G01*
X66611891Y77856089D02*
X67511891Y77856089D01*
G75*
G02*
X67611891Y77756089I0J-100000D01*
G01*
X67611891Y76956089D01*
G75*
G02*
X67511891Y76856089I-100000J0D01*
G01*
X66611891Y76856089D01*
G75*
G02*
X66511891Y76956089I0J100000D01*
G01*
X66511891Y77756089D01*
G75*
G02*
X66611891Y77856089I100000J0D01*
G01*
G37*
G04 #@! TD*
G04 #@! TO.C,D14*
G36*
G01*
X65711889Y79496090D02*
X65711889Y79016090D01*
G75*
G02*
X65651889Y78956090I-60000J0D01*
G01*
X65171889Y78956090D01*
G75*
G02*
X65111889Y79016090I0J60000D01*
G01*
X65111889Y79496090D01*
G75*
G02*
X65171889Y79556090I60000J0D01*
G01*
X65651889Y79556090D01*
G75*
G02*
X65711889Y79496090I0J-60000D01*
G01*
G37*
G36*
G01*
X65711889Y77296090D02*
X65711889Y76816090D01*
G75*
G02*
X65651889Y76756090I-60000J0D01*
G01*
X65171889Y76756090D01*
G75*
G02*
X65111889Y76816090I0J60000D01*
G01*
X65111889Y77296090D01*
G75*
G02*
X65171889Y77356090I60000J0D01*
G01*
X65651889Y77356090D01*
G75*
G02*
X65711889Y77296090I0J-60000D01*
G01*
G37*
G04 #@! TD*
G04 #@! TO.C,C13*
G36*
G01*
X41646680Y118225340D02*
X40596680Y118225340D01*
G75*
G02*
X40496680Y118325340I0J100000D01*
G01*
X40496680Y119125340D01*
G75*
G02*
X40596680Y119225340I100000J0D01*
G01*
X41646680Y119225340D01*
G75*
G02*
X41746680Y119125340I0J-100000D01*
G01*
X41746680Y118325340D01*
G75*
G02*
X41646680Y118225340I-100000J0D01*
G01*
G37*
G36*
G01*
X41646680Y120225340D02*
X40596680Y120225340D01*
G75*
G02*
X40496680Y120325340I0J100000D01*
G01*
X40496680Y121125340D01*
G75*
G02*
X40596680Y121225340I100000J0D01*
G01*
X41646680Y121225340D01*
G75*
G02*
X41746680Y121125340I0J-100000D01*
G01*
X41746680Y120325340D01*
G75*
G02*
X41646680Y120225340I-100000J0D01*
G01*
G37*
G04 #@! TD*
G04 #@! TO.C,D29*
G36*
G01*
X96662380Y105812400D02*
X97142380Y105812400D01*
G75*
G02*
X97202380Y105752400I0J-60000D01*
G01*
X97202380Y105272400D01*
G75*
G02*
X97142380Y105212400I-60000J0D01*
G01*
X96662380Y105212400D01*
G75*
G02*
X96602380Y105272400I0J60000D01*
G01*
X96602380Y105752400D01*
G75*
G02*
X96662380Y105812400I60000J0D01*
G01*
G37*
G36*
G01*
X98862380Y105812400D02*
X99342380Y105812400D01*
G75*
G02*
X99402380Y105752400I0J-60000D01*
G01*
X99402380Y105272400D01*
G75*
G02*
X99342380Y105212400I-60000J0D01*
G01*
X98862380Y105212400D01*
G75*
G02*
X98802380Y105272400I0J60000D01*
G01*
X98802380Y105752400D01*
G75*
G02*
X98862380Y105812400I60000J0D01*
G01*
G37*
G04 #@! TD*
G04 #@! TO.C,R38*
G36*
G01*
X20976680Y126325339D02*
X19726680Y126325339D01*
G75*
G02*
X19626680Y126425339I0J100000D01*
G01*
X19626680Y127225339D01*
G75*
G02*
X19726680Y127325339I100000J0D01*
G01*
X20976680Y127325339D01*
G75*
G02*
X21076680Y127225339I0J-100000D01*
G01*
X21076680Y126425339D01*
G75*
G02*
X20976680Y126325339I-100000J0D01*
G01*
G37*
G36*
G01*
X20976680Y128225361D02*
X19726680Y128225361D01*
G75*
G02*
X19626680Y128325361I0J100000D01*
G01*
X19626680Y129125361D01*
G75*
G02*
X19726680Y129225361I100000J0D01*
G01*
X20976680Y129225361D01*
G75*
G02*
X21076680Y129125361I0J-100000D01*
G01*
X21076680Y128325361D01*
G75*
G02*
X20976680Y128225361I-100000J0D01*
G01*
G37*
G04 #@! TD*
G04 #@! TO.C,R44*
G36*
G01*
X127150000Y127499999D02*
X125900000Y127499999D01*
G75*
G02*
X125800000Y127599999I0J100000D01*
G01*
X125800000Y128399999D01*
G75*
G02*
X125900000Y128499999I100000J0D01*
G01*
X127150000Y128499999D01*
G75*
G02*
X127250000Y128399999I0J-100000D01*
G01*
X127250000Y127599999D01*
G75*
G02*
X127150000Y127499999I-100000J0D01*
G01*
G37*
G36*
G01*
X127150000Y129400021D02*
X125900000Y129400021D01*
G75*
G02*
X125800000Y129500021I0J100000D01*
G01*
X125800000Y130300021D01*
G75*
G02*
X125900000Y130400021I100000J0D01*
G01*
X127150000Y130400021D01*
G75*
G02*
X127250000Y130300021I0J-100000D01*
G01*
X127250000Y129500021D01*
G75*
G02*
X127150000Y129400021I-100000J0D01*
G01*
G37*
G04 #@! TD*
G04 #@! TO.C,C9*
G36*
G01*
X37146680Y118225340D02*
X36096680Y118225340D01*
G75*
G02*
X35996680Y118325340I0J100000D01*
G01*
X35996680Y119125340D01*
G75*
G02*
X36096680Y119225340I100000J0D01*
G01*
X37146680Y119225340D01*
G75*
G02*
X37246680Y119125340I0J-100000D01*
G01*
X37246680Y118325340D01*
G75*
G02*
X37146680Y118225340I-100000J0D01*
G01*
G37*
G36*
G01*
X37146680Y120225340D02*
X36096680Y120225340D01*
G75*
G02*
X35996680Y120325340I0J100000D01*
G01*
X35996680Y121125340D01*
G75*
G02*
X36096680Y121225340I100000J0D01*
G01*
X37146680Y121225340D01*
G75*
G02*
X37246680Y121125340I0J-100000D01*
G01*
X37246680Y120325340D01*
G75*
G02*
X37146680Y120225340I-100000J0D01*
G01*
G37*
G04 #@! TD*
G04 #@! TO.C,D16*
G36*
G01*
X45051680Y92512399D02*
X45951680Y92512399D01*
G75*
G02*
X46051680Y92412399I0J-100000D01*
G01*
X46051680Y91612399D01*
G75*
G02*
X45951680Y91512399I-100000J0D01*
G01*
X45051680Y91512399D01*
G75*
G02*
X44951680Y91612399I0J100000D01*
G01*
X44951680Y92412399D01*
G75*
G02*
X45051680Y92512399I100000J0D01*
G01*
G37*
G36*
G01*
X45051680Y90812399D02*
X45951680Y90812399D01*
G75*
G02*
X46051680Y90712399I0J-100000D01*
G01*
X46051680Y89912399D01*
G75*
G02*
X45951680Y89812399I-100000J0D01*
G01*
X45051680Y89812399D01*
G75*
G02*
X44951680Y89912399I0J100000D01*
G01*
X44951680Y90712399D01*
G75*
G02*
X45051680Y90812399I100000J0D01*
G01*
G37*
G04 #@! TD*
G04 #@! TO.C,R3*
G36*
G01*
X87401680Y76765340D02*
X87401680Y77545340D01*
G75*
G02*
X87471680Y77615340I70000J0D01*
G01*
X88031680Y77615340D01*
G75*
G02*
X88101680Y77545340I0J-70000D01*
G01*
X88101680Y76765340D01*
G75*
G02*
X88031680Y76695340I-70000J0D01*
G01*
X87471680Y76695340D01*
G75*
G02*
X87401680Y76765340I0J70000D01*
G01*
G37*
G36*
G01*
X89001680Y76765340D02*
X89001680Y77545340D01*
G75*
G02*
X89071680Y77615340I70000J0D01*
G01*
X89631680Y77615340D01*
G75*
G02*
X89701680Y77545340I0J-70000D01*
G01*
X89701680Y76765340D01*
G75*
G02*
X89631680Y76695340I-70000J0D01*
G01*
X89071680Y76695340D01*
G75*
G02*
X89001680Y76765340I0J70000D01*
G01*
G37*
G04 #@! TD*
G04 #@! TO.C,R10*
G36*
G01*
X43701680Y99445340D02*
X43701680Y98665340D01*
G75*
G02*
X43631680Y98595340I-70000J0D01*
G01*
X43071680Y98595340D01*
G75*
G02*
X43001680Y98665340I0J70000D01*
G01*
X43001680Y99445340D01*
G75*
G02*
X43071680Y99515340I70000J0D01*
G01*
X43631680Y99515340D01*
G75*
G02*
X43701680Y99445340I0J-70000D01*
G01*
G37*
G36*
G01*
X42101680Y99445340D02*
X42101680Y98665340D01*
G75*
G02*
X42031680Y98595340I-70000J0D01*
G01*
X41471680Y98595340D01*
G75*
G02*
X41401680Y98665340I0J70000D01*
G01*
X41401680Y99445340D01*
G75*
G02*
X41471680Y99515340I70000J0D01*
G01*
X42031680Y99515340D01*
G75*
G02*
X42101680Y99445340I0J-70000D01*
G01*
G37*
G04 #@! TD*
G04 #@! TO.C,D19*
G36*
G01*
X36601682Y92505339D02*
X37501682Y92505339D01*
G75*
G02*
X37601682Y92405339I0J-100000D01*
G01*
X37601682Y91605339D01*
G75*
G02*
X37501682Y91505339I-100000J0D01*
G01*
X36601682Y91505339D01*
G75*
G02*
X36501682Y91605339I0J100000D01*
G01*
X36501682Y92405339D01*
G75*
G02*
X36601682Y92505339I100000J0D01*
G01*
G37*
G36*
G01*
X36601682Y90805339D02*
X37501682Y90805339D01*
G75*
G02*
X37601682Y90705339I0J-100000D01*
G01*
X37601682Y89905339D01*
G75*
G02*
X37501682Y89805339I-100000J0D01*
G01*
X36601682Y89805339D01*
G75*
G02*
X36501682Y89905339I0J100000D01*
G01*
X36501682Y90705339D01*
G75*
G02*
X36601682Y90805339I100000J0D01*
G01*
G37*
G04 #@! TD*
G04 #@! TO.C,R30*
G36*
G01*
X41606680Y128215339D02*
X40356680Y128215339D01*
G75*
G02*
X40256680Y128315339I0J100000D01*
G01*
X40256680Y129115339D01*
G75*
G02*
X40356680Y129215339I100000J0D01*
G01*
X41606680Y129215339D01*
G75*
G02*
X41706680Y129115339I0J-100000D01*
G01*
X41706680Y128315339D01*
G75*
G02*
X41606680Y128215339I-100000J0D01*
G01*
G37*
G36*
G01*
X41606680Y130115361D02*
X40356680Y130115361D01*
G75*
G02*
X40256680Y130215361I0J100000D01*
G01*
X40256680Y131015361D01*
G75*
G02*
X40356680Y131115361I100000J0D01*
G01*
X41606680Y131115361D01*
G75*
G02*
X41706680Y131015361I0J-100000D01*
G01*
X41706680Y130215361D01*
G75*
G02*
X41606680Y130115361I-100000J0D01*
G01*
G37*
G04 #@! TD*
G04 #@! TO.C,D21*
G36*
G01*
X44201680Y92445340D02*
X44201680Y91965340D01*
G75*
G02*
X44141680Y91905340I-60000J0D01*
G01*
X43661680Y91905340D01*
G75*
G02*
X43601680Y91965340I0J60000D01*
G01*
X43601680Y92445340D01*
G75*
G02*
X43661680Y92505340I60000J0D01*
G01*
X44141680Y92505340D01*
G75*
G02*
X44201680Y92445340I0J-60000D01*
G01*
G37*
G36*
G01*
X44201680Y90245340D02*
X44201680Y89765340D01*
G75*
G02*
X44141680Y89705340I-60000J0D01*
G01*
X43661680Y89705340D01*
G75*
G02*
X43601680Y89765340I0J60000D01*
G01*
X43601680Y90245340D01*
G75*
G02*
X43661680Y90305340I60000J0D01*
G01*
X44141680Y90305340D01*
G75*
G02*
X44201680Y90245340I0J-60000D01*
G01*
G37*
G04 #@! TD*
G04 #@! TO.C,R31*
G36*
G01*
X36726680Y128255339D02*
X35476680Y128255339D01*
G75*
G02*
X35376680Y128355339I0J100000D01*
G01*
X35376680Y129155339D01*
G75*
G02*
X35476680Y129255339I100000J0D01*
G01*
X36726680Y129255339D01*
G75*
G02*
X36826680Y129155339I0J-100000D01*
G01*
X36826680Y128355339D01*
G75*
G02*
X36726680Y128255339I-100000J0D01*
G01*
G37*
G36*
G01*
X36726680Y130155361D02*
X35476680Y130155361D01*
G75*
G02*
X35376680Y130255361I0J100000D01*
G01*
X35376680Y131055361D01*
G75*
G02*
X35476680Y131155361I100000J0D01*
G01*
X36726680Y131155361D01*
G75*
G02*
X36826680Y131055361I0J-100000D01*
G01*
X36826680Y130255361D01*
G75*
G02*
X36726680Y130155361I-100000J0D01*
G01*
G37*
G04 #@! TD*
G04 #@! TO.C,R56*
G36*
G01*
X58321680Y122175340D02*
X58321680Y121395340D01*
G75*
G02*
X58251680Y121325340I-70000J0D01*
G01*
X57691680Y121325340D01*
G75*
G02*
X57621680Y121395340I0J70000D01*
G01*
X57621680Y122175340D01*
G75*
G02*
X57691680Y122245340I70000J0D01*
G01*
X58251680Y122245340D01*
G75*
G02*
X58321680Y122175340I0J-70000D01*
G01*
G37*
G36*
G01*
X56721680Y122175340D02*
X56721680Y121395340D01*
G75*
G02*
X56651680Y121325340I-70000J0D01*
G01*
X56091680Y121325340D01*
G75*
G02*
X56021680Y121395340I0J70000D01*
G01*
X56021680Y122175340D01*
G75*
G02*
X56091680Y122245340I70000J0D01*
G01*
X56651680Y122245340D01*
G75*
G02*
X56721680Y122175340I0J-70000D01*
G01*
G37*
G04 #@! TD*
D11*
G04 #@! TO.C,U1*
X64564180Y27855340D03*
X64564180Y28355340D03*
X64564180Y28855340D03*
X64564180Y29355340D03*
D12*
X64051680Y29367840D03*
X63551680Y29367840D03*
D11*
X63039180Y29355340D03*
X63039180Y28855340D03*
X63039180Y28355340D03*
X63039180Y27855340D03*
D12*
X63551680Y27842840D03*
X64051680Y27842840D03*
G04 #@! TD*
D13*
G04 #@! TO.C,BT1*
X43051680Y11705340D03*
X13751680Y11705340D03*
G04 #@! TD*
G04 #@! TO.C,R5*
G36*
G01*
X27260000Y87162500D02*
X28040000Y87162500D01*
G75*
G02*
X28110000Y87092500I0J-70000D01*
G01*
X28110000Y86532500D01*
G75*
G02*
X28040000Y86462500I-70000J0D01*
G01*
X27260000Y86462500D01*
G75*
G02*
X27190000Y86532500I0J70000D01*
G01*
X27190000Y87092500D01*
G75*
G02*
X27260000Y87162500I70000J0D01*
G01*
G37*
G36*
G01*
X27260000Y85562500D02*
X28040000Y85562500D01*
G75*
G02*
X28110000Y85492500I0J-70000D01*
G01*
X28110000Y84932500D01*
G75*
G02*
X28040000Y84862500I-70000J0D01*
G01*
X27260000Y84862500D01*
G75*
G02*
X27190000Y84932500I0J70000D01*
G01*
X27190000Y85492500D01*
G75*
G02*
X27260000Y85562500I70000J0D01*
G01*
G37*
G04 #@! TD*
G04 #@! TO.C,D2*
G36*
G01*
X67826659Y10450340D02*
X67826659Y9210340D01*
G75*
G02*
X67696659Y9080340I-130000J0D01*
G01*
X66656659Y9080340D01*
G75*
G02*
X66526659Y9210340I0J130000D01*
G01*
X66526659Y10450340D01*
G75*
G02*
X66656659Y10580340I130000J0D01*
G01*
X67696659Y10580340D01*
G75*
G02*
X67826659Y10450340I0J-130000D01*
G01*
G37*
G36*
G01*
X69726680Y10450340D02*
X69726680Y9210340D01*
G75*
G02*
X69596680Y9080340I-130000J0D01*
G01*
X68556680Y9080340D01*
G75*
G02*
X68426680Y9210340I0J130000D01*
G01*
X68426680Y10450340D01*
G75*
G02*
X68556680Y10580340I130000J0D01*
G01*
X69596680Y10580340D01*
G75*
G02*
X69726680Y10450340I0J-130000D01*
G01*
G37*
G04 #@! TD*
G04 #@! TO.C,D10*
G36*
G01*
X25284740Y90112522D02*
X24044740Y90112522D01*
G75*
G02*
X23914740Y90242522I0J130000D01*
G01*
X23914740Y91282522D01*
G75*
G02*
X24044740Y91412522I130000J0D01*
G01*
X25284740Y91412522D01*
G75*
G02*
X25414740Y91282522I0J-130000D01*
G01*
X25414740Y90242522D01*
G75*
G02*
X25284740Y90112522I-130000J0D01*
G01*
G37*
G36*
G01*
X25284740Y88212501D02*
X24044740Y88212501D01*
G75*
G02*
X23914740Y88342501I0J130000D01*
G01*
X23914740Y89382501D01*
G75*
G02*
X24044740Y89512501I130000J0D01*
G01*
X25284740Y89512501D01*
G75*
G02*
X25414740Y89382501I0J-130000D01*
G01*
X25414740Y88342501D01*
G75*
G02*
X25284740Y88212501I-130000J0D01*
G01*
G37*
G04 #@! TD*
D10*
G04 #@! TO.C,M10*
X19362887Y121064325D03*
X24865452Y120979124D03*
G36*
G01*
X29287884Y112239329D02*
X29287884Y112239329D01*
X29287884Y112239329D01*
X29287884Y112239329D01*
X29287884Y112239329D01*
G37*
X26287887Y111739320D03*
G04 #@! TD*
G04 #@! TO.C,D17*
G36*
G01*
X41801682Y92505339D02*
X42701682Y92505339D01*
G75*
G02*
X42801682Y92405339I0J-100000D01*
G01*
X42801682Y91605339D01*
G75*
G02*
X42701682Y91505339I-100000J0D01*
G01*
X41801682Y91505339D01*
G75*
G02*
X41701682Y91605339I0J100000D01*
G01*
X41701682Y92405339D01*
G75*
G02*
X41801682Y92505339I100000J0D01*
G01*
G37*
G36*
G01*
X41801682Y90805339D02*
X42701682Y90805339D01*
G75*
G02*
X42801682Y90705339I0J-100000D01*
G01*
X42801682Y89905339D01*
G75*
G02*
X42701682Y89805339I-100000J0D01*
G01*
X41801682Y89805339D01*
G75*
G02*
X41701682Y89905339I0J100000D01*
G01*
X41701682Y90705339D01*
G75*
G02*
X41801682Y90805339I100000J0D01*
G01*
G37*
G04 #@! TD*
G04 #@! TO.C,R19*
G36*
G01*
X114976680Y127555339D02*
X113726680Y127555339D01*
G75*
G02*
X113626680Y127655339I0J100000D01*
G01*
X113626680Y128455339D01*
G75*
G02*
X113726680Y128555339I100000J0D01*
G01*
X114976680Y128555339D01*
G75*
G02*
X115076680Y128455339I0J-100000D01*
G01*
X115076680Y127655339D01*
G75*
G02*
X114976680Y127555339I-100000J0D01*
G01*
G37*
G36*
G01*
X114976680Y129455361D02*
X113726680Y129455361D01*
G75*
G02*
X113626680Y129555361I0J100000D01*
G01*
X113626680Y130355361D01*
G75*
G02*
X113726680Y130455361I100000J0D01*
G01*
X114976680Y130455361D01*
G75*
G02*
X115076680Y130355361I0J-100000D01*
G01*
X115076680Y129555361D01*
G75*
G02*
X114976680Y129455361I-100000J0D01*
G01*
G37*
G04 #@! TD*
G04 #@! TO.C,R41*
G36*
G01*
X114661680Y113605340D02*
X115441680Y113605340D01*
G75*
G02*
X115511680Y113535340I0J-70000D01*
G01*
X115511680Y112975340D01*
G75*
G02*
X115441680Y112905340I-70000J0D01*
G01*
X114661680Y112905340D01*
G75*
G02*
X114591680Y112975340I0J70000D01*
G01*
X114591680Y113535340D01*
G75*
G02*
X114661680Y113605340I70000J0D01*
G01*
G37*
G36*
G01*
X114661680Y112005340D02*
X115441680Y112005340D01*
G75*
G02*
X115511680Y111935340I0J-70000D01*
G01*
X115511680Y111375340D01*
G75*
G02*
X115441680Y111305340I-70000J0D01*
G01*
X114661680Y111305340D01*
G75*
G02*
X114591680Y111375340I0J70000D01*
G01*
X114591680Y111935340D01*
G75*
G02*
X114661680Y112005340I70000J0D01*
G01*
G37*
G04 #@! TD*
G04 #@! TO.C,D3*
G36*
G01*
X124130830Y48690850D02*
X123230830Y48690850D01*
G75*
G02*
X123130830Y48790850I0J100000D01*
G01*
X123130830Y49590850D01*
G75*
G02*
X123230830Y49690850I100000J0D01*
G01*
X124130830Y49690850D01*
G75*
G02*
X124230830Y49590850I0J-100000D01*
G01*
X124230830Y48790850D01*
G75*
G02*
X124130830Y48690850I-100000J0D01*
G01*
G37*
G36*
G01*
X124130830Y50390850D02*
X123230830Y50390850D01*
G75*
G02*
X123130830Y50490850I0J100000D01*
G01*
X123130830Y51290850D01*
G75*
G02*
X123230830Y51390850I100000J0D01*
G01*
X124130830Y51390850D01*
G75*
G02*
X124230830Y51290850I0J-100000D01*
G01*
X124230830Y50490850D01*
G75*
G02*
X124130830Y50390850I-100000J0D01*
G01*
G37*
G04 #@! TD*
G04 #@! TO.C,U3*
G36*
G01*
X128156680Y85455340D02*
X128456680Y85455340D01*
G75*
G02*
X128606680Y85305340I0J-150000D01*
G01*
X128606680Y83655340D01*
G75*
G02*
X128456680Y83505340I-150000J0D01*
G01*
X128156680Y83505340D01*
G75*
G02*
X128006680Y83655340I0J150000D01*
G01*
X128006680Y85305340D01*
G75*
G02*
X128156680Y85455340I150000J0D01*
G01*
G37*
G36*
G01*
X126886680Y85455340D02*
X127186680Y85455340D01*
G75*
G02*
X127336680Y85305340I0J-150000D01*
G01*
X127336680Y83655340D01*
G75*
G02*
X127186680Y83505340I-150000J0D01*
G01*
X126886680Y83505340D01*
G75*
G02*
X126736680Y83655340I0J150000D01*
G01*
X126736680Y85305340D01*
G75*
G02*
X126886680Y85455340I150000J0D01*
G01*
G37*
G36*
G01*
X125616680Y85455340D02*
X125916680Y85455340D01*
G75*
G02*
X126066680Y85305340I0J-150000D01*
G01*
X126066680Y83655340D01*
G75*
G02*
X125916680Y83505340I-150000J0D01*
G01*
X125616680Y83505340D01*
G75*
G02*
X125466680Y83655340I0J150000D01*
G01*
X125466680Y85305340D01*
G75*
G02*
X125616680Y85455340I150000J0D01*
G01*
G37*
G36*
G01*
X124346680Y85455340D02*
X124646680Y85455340D01*
G75*
G02*
X124796680Y85305340I0J-150000D01*
G01*
X124796680Y83655340D01*
G75*
G02*
X124646680Y83505340I-150000J0D01*
G01*
X124346680Y83505340D01*
G75*
G02*
X124196680Y83655340I0J150000D01*
G01*
X124196680Y85305340D01*
G75*
G02*
X124346680Y85455340I150000J0D01*
G01*
G37*
G36*
G01*
X124346680Y80505340D02*
X124646680Y80505340D01*
G75*
G02*
X124796680Y80355340I0J-150000D01*
G01*
X124796680Y78705340D01*
G75*
G02*
X124646680Y78555340I-150000J0D01*
G01*
X124346680Y78555340D01*
G75*
G02*
X124196680Y78705340I0J150000D01*
G01*
X124196680Y80355340D01*
G75*
G02*
X124346680Y80505340I150000J0D01*
G01*
G37*
G36*
G01*
X125616680Y80505340D02*
X125916680Y80505340D01*
G75*
G02*
X126066680Y80355340I0J-150000D01*
G01*
X126066680Y78705340D01*
G75*
G02*
X125916680Y78555340I-150000J0D01*
G01*
X125616680Y78555340D01*
G75*
G02*
X125466680Y78705340I0J150000D01*
G01*
X125466680Y80355340D01*
G75*
G02*
X125616680Y80505340I150000J0D01*
G01*
G37*
G36*
G01*
X126886680Y80505340D02*
X127186680Y80505340D01*
G75*
G02*
X127336680Y80355340I0J-150000D01*
G01*
X127336680Y78705340D01*
G75*
G02*
X127186680Y78555340I-150000J0D01*
G01*
X126886680Y78555340D01*
G75*
G02*
X126736680Y78705340I0J150000D01*
G01*
X126736680Y80355340D01*
G75*
G02*
X126886680Y80505340I150000J0D01*
G01*
G37*
G36*
G01*
X128156680Y80505340D02*
X128456680Y80505340D01*
G75*
G02*
X128606680Y80355340I0J-150000D01*
G01*
X128606680Y78705340D01*
G75*
G02*
X128456680Y78555340I-150000J0D01*
G01*
X128156680Y78555340D01*
G75*
G02*
X128006680Y78705340I0J150000D01*
G01*
X128006680Y80355340D01*
G75*
G02*
X128156680Y80505340I150000J0D01*
G01*
G37*
G04 #@! TD*
G04 #@! TO.C,U4*
G36*
G01*
X134301680Y11530340D02*
X134301680Y11730340D01*
G75*
G02*
X134401680Y11830340I100000J0D01*
G01*
X134751680Y11830340D01*
G75*
G02*
X134851680Y11730340I0J-100000D01*
G01*
X134851680Y11530340D01*
G75*
G02*
X134751680Y11430340I-100000J0D01*
G01*
X134401680Y11430340D01*
G75*
G02*
X134301680Y11530340I0J100000D01*
G01*
G37*
G36*
G01*
X134301680Y10930340D02*
X134301680Y11130340D01*
G75*
G02*
X134401680Y11230340I100000J0D01*
G01*
X134751680Y11230340D01*
G75*
G02*
X134851680Y11130340I0J-100000D01*
G01*
X134851680Y10930340D01*
G75*
G02*
X134751680Y10830340I-100000J0D01*
G01*
X134401680Y10830340D01*
G75*
G02*
X134301680Y10930340I0J100000D01*
G01*
G37*
G36*
G01*
X134701680Y10230340D02*
X134701680Y10580340D01*
G75*
G02*
X134801680Y10680340I100000J0D01*
G01*
X135001680Y10680340D01*
G75*
G02*
X135101680Y10580340I0J-100000D01*
G01*
X135101680Y10230340D01*
G75*
G02*
X135001680Y10130340I-100000J0D01*
G01*
X134801680Y10130340D01*
G75*
G02*
X134701680Y10230340I0J100000D01*
G01*
G37*
G36*
G01*
X135301680Y10230340D02*
X135301680Y10580340D01*
G75*
G02*
X135401680Y10680340I100000J0D01*
G01*
X135601680Y10680340D01*
G75*
G02*
X135701680Y10580340I0J-100000D01*
G01*
X135701680Y10230340D01*
G75*
G02*
X135601680Y10130340I-100000J0D01*
G01*
X135401680Y10130340D01*
G75*
G02*
X135301680Y10230340I0J100000D01*
G01*
G37*
G36*
G01*
X135901680Y10230340D02*
X135901680Y10580340D01*
G75*
G02*
X136001680Y10680340I100000J0D01*
G01*
X136201680Y10680340D01*
G75*
G02*
X136301680Y10580340I0J-100000D01*
G01*
X136301680Y10230340D01*
G75*
G02*
X136201680Y10130340I-100000J0D01*
G01*
X136001680Y10130340D01*
G75*
G02*
X135901680Y10230340I0J100000D01*
G01*
G37*
G36*
G01*
X136151680Y10930340D02*
X136151680Y11130340D01*
G75*
G02*
X136251680Y11230340I100000J0D01*
G01*
X136601680Y11230340D01*
G75*
G02*
X136701680Y11130340I0J-100000D01*
G01*
X136701680Y10930340D01*
G75*
G02*
X136601680Y10830340I-100000J0D01*
G01*
X136251680Y10830340D01*
G75*
G02*
X136151680Y10930340I0J100000D01*
G01*
G37*
G36*
G01*
X136151680Y11530340D02*
X136151680Y11730340D01*
G75*
G02*
X136251680Y11830340I100000J0D01*
G01*
X136601680Y11830340D01*
G75*
G02*
X136701680Y11730340I0J-100000D01*
G01*
X136701680Y11530340D01*
G75*
G02*
X136601680Y11430340I-100000J0D01*
G01*
X136251680Y11430340D01*
G75*
G02*
X136151680Y11530340I0J100000D01*
G01*
G37*
G36*
G01*
X135901680Y12080340D02*
X135901680Y12430340D01*
G75*
G02*
X136001680Y12530340I100000J0D01*
G01*
X136201680Y12530340D01*
G75*
G02*
X136301680Y12430340I0J-100000D01*
G01*
X136301680Y12080340D01*
G75*
G02*
X136201680Y11980340I-100000J0D01*
G01*
X136001680Y11980340D01*
G75*
G02*
X135901680Y12080340I0J100000D01*
G01*
G37*
G36*
G01*
X135301680Y12080340D02*
X135301680Y12430340D01*
G75*
G02*
X135401680Y12530340I100000J0D01*
G01*
X135601680Y12530340D01*
G75*
G02*
X135701680Y12430340I0J-100000D01*
G01*
X135701680Y12080340D01*
G75*
G02*
X135601680Y11980340I-100000J0D01*
G01*
X135401680Y11980340D01*
G75*
G02*
X135301680Y12080340I0J100000D01*
G01*
G37*
G36*
G01*
X134701680Y12080340D02*
X134701680Y12430340D01*
G75*
G02*
X134801680Y12530340I100000J0D01*
G01*
X135001680Y12530340D01*
G75*
G02*
X135101680Y12430340I0J-100000D01*
G01*
X135101680Y12080340D01*
G75*
G02*
X135001680Y11980340I-100000J0D01*
G01*
X134801680Y11980340D01*
G75*
G02*
X134701680Y12080340I0J100000D01*
G01*
G37*
G04 #@! TD*
G04 #@! TO.C,C20*
G36*
G01*
X36076680Y97830340D02*
X35026680Y97830340D01*
G75*
G02*
X34926680Y97930340I0J100000D01*
G01*
X34926680Y98730340D01*
G75*
G02*
X35026680Y98830340I100000J0D01*
G01*
X36076680Y98830340D01*
G75*
G02*
X36176680Y98730340I0J-100000D01*
G01*
X36176680Y97930340D01*
G75*
G02*
X36076680Y97830340I-100000J0D01*
G01*
G37*
G36*
G01*
X36076680Y99830340D02*
X35026680Y99830340D01*
G75*
G02*
X34926680Y99930340I0J100000D01*
G01*
X34926680Y100730340D01*
G75*
G02*
X35026680Y100830340I100000J0D01*
G01*
X36076680Y100830340D01*
G75*
G02*
X36176680Y100730340I0J-100000D01*
G01*
X36176680Y99930340D01*
G75*
G02*
X36076680Y99830340I-100000J0D01*
G01*
G37*
G04 #@! TD*
G04 #@! TO.C,R47*
G36*
G01*
X119676680Y127655339D02*
X118426680Y127655339D01*
G75*
G02*
X118326680Y127755339I0J100000D01*
G01*
X118326680Y128555339D01*
G75*
G02*
X118426680Y128655339I100000J0D01*
G01*
X119676680Y128655339D01*
G75*
G02*
X119776680Y128555339I0J-100000D01*
G01*
X119776680Y127755339D01*
G75*
G02*
X119676680Y127655339I-100000J0D01*
G01*
G37*
G36*
G01*
X119676680Y129555361D02*
X118426680Y129555361D01*
G75*
G02*
X118326680Y129655361I0J100000D01*
G01*
X118326680Y130455361D01*
G75*
G02*
X118426680Y130555361I100000J0D01*
G01*
X119676680Y130555361D01*
G75*
G02*
X119776680Y130455361I0J-100000D01*
G01*
X119776680Y129655361D01*
G75*
G02*
X119676680Y129555361I-100000J0D01*
G01*
G37*
G04 #@! TD*
G04 #@! TO.C,C10*
G36*
G01*
X43816681Y100620340D02*
X43816681Y99940340D01*
G75*
G02*
X43731681Y99855340I-85000J0D01*
G01*
X43051681Y99855340D01*
G75*
G02*
X42966681Y99940340I0J85000D01*
G01*
X42966681Y100620340D01*
G75*
G02*
X43051681Y100705340I85000J0D01*
G01*
X43731681Y100705340D01*
G75*
G02*
X43816681Y100620340I0J-85000D01*
G01*
G37*
G36*
G01*
X42236679Y100620340D02*
X42236679Y99940340D01*
G75*
G02*
X42151679Y99855340I-85000J0D01*
G01*
X41471679Y99855340D01*
G75*
G02*
X41386679Y99940340I0J85000D01*
G01*
X41386679Y100620340D01*
G75*
G02*
X41471679Y100705340I85000J0D01*
G01*
X42151679Y100705340D01*
G75*
G02*
X42236679Y100620340I0J-85000D01*
G01*
G37*
G04 #@! TD*
G04 #@! TO.C,F1*
G36*
G01*
X22469990Y131500000D02*
X21779990Y131500000D01*
G75*
G02*
X21549990Y131730000I0J230000D01*
G01*
X21549990Y133070000D01*
G75*
G02*
X21779990Y133300000I230000J0D01*
G01*
X22469990Y133300000D01*
G75*
G02*
X22699990Y133070000I0J-230000D01*
G01*
X22699990Y131730000D01*
G75*
G02*
X22469990Y131500000I-230000J0D01*
G01*
G37*
G36*
G01*
X25370010Y131500000D02*
X24680010Y131500000D01*
G75*
G02*
X24450010Y131730000I0J230000D01*
G01*
X24450010Y133070000D01*
G75*
G02*
X24680010Y133300000I230000J0D01*
G01*
X25370010Y133300000D01*
G75*
G02*
X25600010Y133070000I0J-230000D01*
G01*
X25600010Y131730000D01*
G75*
G02*
X25370010Y131500000I-230000J0D01*
G01*
G37*
G04 #@! TD*
G04 #@! TO.C,C14*
G36*
G01*
X35560000Y117515001D02*
X36240000Y117515001D01*
G75*
G02*
X36325000Y117430001I0J-85000D01*
G01*
X36325000Y116750001D01*
G75*
G02*
X36240000Y116665001I-85000J0D01*
G01*
X35560000Y116665001D01*
G75*
G02*
X35475000Y116750001I0J85000D01*
G01*
X35475000Y117430001D01*
G75*
G02*
X35560000Y117515001I85000J0D01*
G01*
G37*
G36*
G01*
X35560000Y115934999D02*
X36240000Y115934999D01*
G75*
G02*
X36325000Y115849999I0J-85000D01*
G01*
X36325000Y115169999D01*
G75*
G02*
X36240000Y115084999I-85000J0D01*
G01*
X35560000Y115084999D01*
G75*
G02*
X35475000Y115169999I0J85000D01*
G01*
X35475000Y115849999D01*
G75*
G02*
X35560000Y115934999I85000J0D01*
G01*
G37*
G04 #@! TD*
G04 #@! TO.C,R14*
G36*
G01*
X102852380Y104302400D02*
X102852380Y103522400D01*
G75*
G02*
X102782380Y103452400I-70000J0D01*
G01*
X102222380Y103452400D01*
G75*
G02*
X102152380Y103522400I0J70000D01*
G01*
X102152380Y104302400D01*
G75*
G02*
X102222380Y104372400I70000J0D01*
G01*
X102782380Y104372400D01*
G75*
G02*
X102852380Y104302400I0J-70000D01*
G01*
G37*
G36*
G01*
X101252380Y104302400D02*
X101252380Y103522400D01*
G75*
G02*
X101182380Y103452400I-70000J0D01*
G01*
X100622380Y103452400D01*
G75*
G02*
X100552380Y103522400I0J70000D01*
G01*
X100552380Y104302400D01*
G75*
G02*
X100622380Y104372400I70000J0D01*
G01*
X101182380Y104372400D01*
G75*
G02*
X101252380Y104302400I0J-70000D01*
G01*
G37*
G04 #@! TD*
G04 #@! TO.C,D5*
G36*
G01*
X26775000Y91252500D02*
X26775000Y90772500D01*
G75*
G02*
X26715000Y90712500I-60000J0D01*
G01*
X26235000Y90712500D01*
G75*
G02*
X26175000Y90772500I0J60000D01*
G01*
X26175000Y91252500D01*
G75*
G02*
X26235000Y91312500I60000J0D01*
G01*
X26715000Y91312500D01*
G75*
G02*
X26775000Y91252500I0J-60000D01*
G01*
G37*
G36*
G01*
X26775000Y89052500D02*
X26775000Y88572500D01*
G75*
G02*
X26715000Y88512500I-60000J0D01*
G01*
X26235000Y88512500D01*
G75*
G02*
X26175000Y88572500I0J60000D01*
G01*
X26175000Y89052500D01*
G75*
G02*
X26235000Y89112500I60000J0D01*
G01*
X26715000Y89112500D01*
G75*
G02*
X26775000Y89052500I0J-60000D01*
G01*
G37*
G04 #@! TD*
G04 #@! TO.C,C11*
G36*
G01*
X38646680Y118225340D02*
X37596680Y118225340D01*
G75*
G02*
X37496680Y118325340I0J100000D01*
G01*
X37496680Y119125340D01*
G75*
G02*
X37596680Y119225340I100000J0D01*
G01*
X38646680Y119225340D01*
G75*
G02*
X38746680Y119125340I0J-100000D01*
G01*
X38746680Y118325340D01*
G75*
G02*
X38646680Y118225340I-100000J0D01*
G01*
G37*
G36*
G01*
X38646680Y120225340D02*
X37596680Y120225340D01*
G75*
G02*
X37496680Y120325340I0J100000D01*
G01*
X37496680Y121125340D01*
G75*
G02*
X37596680Y121225340I100000J0D01*
G01*
X38646680Y121225340D01*
G75*
G02*
X38746680Y121125340I0J-100000D01*
G01*
X38746680Y120325340D01*
G75*
G02*
X38646680Y120225340I-100000J0D01*
G01*
G37*
G04 #@! TD*
G04 #@! TO.C,C19*
G36*
G01*
X37576680Y97830340D02*
X36526680Y97830340D01*
G75*
G02*
X36426680Y97930340I0J100000D01*
G01*
X36426680Y98730340D01*
G75*
G02*
X36526680Y98830340I100000J0D01*
G01*
X37576680Y98830340D01*
G75*
G02*
X37676680Y98730340I0J-100000D01*
G01*
X37676680Y97930340D01*
G75*
G02*
X37576680Y97830340I-100000J0D01*
G01*
G37*
G36*
G01*
X37576680Y99830340D02*
X36526680Y99830340D01*
G75*
G02*
X36426680Y99930340I0J100000D01*
G01*
X36426680Y100730340D01*
G75*
G02*
X36526680Y100830340I100000J0D01*
G01*
X37576680Y100830340D01*
G75*
G02*
X37676680Y100730340I0J-100000D01*
G01*
X37676680Y99930340D01*
G75*
G02*
X37576680Y99830340I-100000J0D01*
G01*
G37*
G04 #@! TD*
G04 #@! TO.C,D31*
G36*
G01*
X53201680Y95595340D02*
X53201680Y96615340D01*
G75*
G02*
X53291680Y96705340I90000J0D01*
G01*
X54011680Y96705340D01*
G75*
G02*
X54101680Y96615340I0J-90000D01*
G01*
X54101680Y95595340D01*
G75*
G02*
X54011680Y95505340I-90000J0D01*
G01*
X53291680Y95505340D01*
G75*
G02*
X53201680Y95595340I0J90000D01*
G01*
G37*
G36*
G01*
X56501680Y95595340D02*
X56501680Y96615340D01*
G75*
G02*
X56591680Y96705340I90000J0D01*
G01*
X57311680Y96705340D01*
G75*
G02*
X57401680Y96615340I0J-90000D01*
G01*
X57401680Y95595340D01*
G75*
G02*
X57311680Y95505340I-90000J0D01*
G01*
X56591680Y95505340D01*
G75*
G02*
X56501680Y95595340I0J90000D01*
G01*
G37*
G04 #@! TD*
G04 #@! TO.C,R34*
G36*
G01*
X34626680Y128255339D02*
X33376680Y128255339D01*
G75*
G02*
X33276680Y128355339I0J100000D01*
G01*
X33276680Y129155339D01*
G75*
G02*
X33376680Y129255339I100000J0D01*
G01*
X34626680Y129255339D01*
G75*
G02*
X34726680Y129155339I0J-100000D01*
G01*
X34726680Y128355339D01*
G75*
G02*
X34626680Y128255339I-100000J0D01*
G01*
G37*
G36*
G01*
X34626680Y130155361D02*
X33376680Y130155361D01*
G75*
G02*
X33276680Y130255361I0J100000D01*
G01*
X33276680Y131055361D01*
G75*
G02*
X33376680Y131155361I100000J0D01*
G01*
X34626680Y131155361D01*
G75*
G02*
X34726680Y131055361I0J-100000D01*
G01*
X34726680Y130255361D01*
G75*
G02*
X34626680Y130155361I-100000J0D01*
G01*
G37*
G04 #@! TD*
G04 #@! TO.C,R35*
G36*
G01*
X25816221Y126234437D02*
X24566221Y126234437D01*
G75*
G02*
X24466221Y126334437I0J100000D01*
G01*
X24466221Y127134437D01*
G75*
G02*
X24566221Y127234437I100000J0D01*
G01*
X25816221Y127234437D01*
G75*
G02*
X25916221Y127134437I0J-100000D01*
G01*
X25916221Y126334437D01*
G75*
G02*
X25816221Y126234437I-100000J0D01*
G01*
G37*
G36*
G01*
X25816221Y128134459D02*
X24566221Y128134459D01*
G75*
G02*
X24466221Y128234459I0J100000D01*
G01*
X24466221Y129034459D01*
G75*
G02*
X24566221Y129134459I100000J0D01*
G01*
X25816221Y129134459D01*
G75*
G02*
X25916221Y129034459I0J-100000D01*
G01*
X25916221Y128234459D01*
G75*
G02*
X25816221Y128134459I-100000J0D01*
G01*
G37*
G04 #@! TD*
G04 #@! TO.C,D18*
G36*
G01*
X39901682Y92505339D02*
X40801682Y92505339D01*
G75*
G02*
X40901682Y92405339I0J-100000D01*
G01*
X40901682Y91605339D01*
G75*
G02*
X40801682Y91505339I-100000J0D01*
G01*
X39901682Y91505339D01*
G75*
G02*
X39801682Y91605339I0J100000D01*
G01*
X39801682Y92405339D01*
G75*
G02*
X39901682Y92505339I100000J0D01*
G01*
G37*
G36*
G01*
X39901682Y90805339D02*
X40801682Y90805339D01*
G75*
G02*
X40901682Y90705339I0J-100000D01*
G01*
X40901682Y89905339D01*
G75*
G02*
X40801682Y89805339I-100000J0D01*
G01*
X39901682Y89805339D01*
G75*
G02*
X39801682Y89905339I0J100000D01*
G01*
X39801682Y90705339D01*
G75*
G02*
X39901682Y90805339I100000J0D01*
G01*
G37*
G04 #@! TD*
G04 #@! TO.C,D20*
G36*
G01*
X47401680Y92450901D02*
X47401680Y91970901D01*
G75*
G02*
X47341680Y91910901I-60000J0D01*
G01*
X46861680Y91910901D01*
G75*
G02*
X46801680Y91970901I0J60000D01*
G01*
X46801680Y92450901D01*
G75*
G02*
X46861680Y92510901I60000J0D01*
G01*
X47341680Y92510901D01*
G75*
G02*
X47401680Y92450901I0J-60000D01*
G01*
G37*
G36*
G01*
X47401680Y90250901D02*
X47401680Y89770901D01*
G75*
G02*
X47341680Y89710901I-60000J0D01*
G01*
X46861680Y89710901D01*
G75*
G02*
X46801680Y89770901I0J60000D01*
G01*
X46801680Y90250901D01*
G75*
G02*
X46861680Y90310901I60000J0D01*
G01*
X47341680Y90310901D01*
G75*
G02*
X47401680Y90250901I0J-60000D01*
G01*
G37*
G04 #@! TD*
G04 #@! TO.C,D33*
G36*
G01*
X40315182Y96617842D02*
X39835182Y96617842D01*
G75*
G02*
X39775182Y96677842I0J60000D01*
G01*
X39775182Y97157842D01*
G75*
G02*
X39835182Y97217842I60000J0D01*
G01*
X40315182Y97217842D01*
G75*
G02*
X40375182Y97157842I0J-60000D01*
G01*
X40375182Y96677842D01*
G75*
G02*
X40315182Y96617842I-60000J0D01*
G01*
G37*
G36*
G01*
X38115182Y96617842D02*
X37635182Y96617842D01*
G75*
G02*
X37575182Y96677842I0J60000D01*
G01*
X37575182Y97157842D01*
G75*
G02*
X37635182Y97217842I60000J0D01*
G01*
X38115182Y97217842D01*
G75*
G02*
X38175182Y97157842I0J-60000D01*
G01*
X38175182Y96677842D01*
G75*
G02*
X38115182Y96617842I-60000J0D01*
G01*
G37*
G04 #@! TD*
G04 #@! TO.C,D27*
G36*
G01*
X96602381Y101512402D02*
X96602381Y102412402D01*
G75*
G02*
X96702381Y102512402I100000J0D01*
G01*
X97502381Y102512402D01*
G75*
G02*
X97602381Y102412402I0J-100000D01*
G01*
X97602381Y101512402D01*
G75*
G02*
X97502381Y101412402I-100000J0D01*
G01*
X96702381Y101412402D01*
G75*
G02*
X96602381Y101512402I0J100000D01*
G01*
G37*
G36*
G01*
X98302381Y101512402D02*
X98302381Y102412402D01*
G75*
G02*
X98402381Y102512402I100000J0D01*
G01*
X99202381Y102512402D01*
G75*
G02*
X99302381Y102412402I0J-100000D01*
G01*
X99302381Y101512402D01*
G75*
G02*
X99202381Y101412402I-100000J0D01*
G01*
X98402381Y101412402D01*
G75*
G02*
X98302381Y101512402I0J100000D01*
G01*
G37*
G04 #@! TD*
G04 #@! TO.C,C18*
G36*
G01*
X38026680Y100830340D02*
X39076680Y100830340D01*
G75*
G02*
X39176680Y100730340I0J-100000D01*
G01*
X39176680Y99930340D01*
G75*
G02*
X39076680Y99830340I-100000J0D01*
G01*
X38026680Y99830340D01*
G75*
G02*
X37926680Y99930340I0J100000D01*
G01*
X37926680Y100730340D01*
G75*
G02*
X38026680Y100830340I100000J0D01*
G01*
G37*
G36*
G01*
X38026680Y98830340D02*
X39076680Y98830340D01*
G75*
G02*
X39176680Y98730340I0J-100000D01*
G01*
X39176680Y97930340D01*
G75*
G02*
X39076680Y97830340I-100000J0D01*
G01*
X38026680Y97830340D01*
G75*
G02*
X37926680Y97930340I0J100000D01*
G01*
X37926680Y98730340D01*
G75*
G02*
X38026680Y98830340I100000J0D01*
G01*
G37*
G04 #@! TD*
G04 #@! TO.C,R22*
G36*
G01*
X63466680Y127945339D02*
X62216680Y127945339D01*
G75*
G02*
X62116680Y128045339I0J100000D01*
G01*
X62116680Y128845339D01*
G75*
G02*
X62216680Y128945339I100000J0D01*
G01*
X63466680Y128945339D01*
G75*
G02*
X63566680Y128845339I0J-100000D01*
G01*
X63566680Y128045339D01*
G75*
G02*
X63466680Y127945339I-100000J0D01*
G01*
G37*
G36*
G01*
X63466680Y129845361D02*
X62216680Y129845361D01*
G75*
G02*
X62116680Y129945361I0J100000D01*
G01*
X62116680Y130745361D01*
G75*
G02*
X62216680Y130845361I100000J0D01*
G01*
X63466680Y130845361D01*
G75*
G02*
X63566680Y130745361I0J-100000D01*
G01*
X63566680Y129945361D01*
G75*
G02*
X63466680Y129845361I-100000J0D01*
G01*
G37*
G04 #@! TD*
G04 #@! TO.C,R37*
G36*
G01*
X16816680Y126435339D02*
X15566680Y126435339D01*
G75*
G02*
X15466680Y126535339I0J100000D01*
G01*
X15466680Y127335339D01*
G75*
G02*
X15566680Y127435339I100000J0D01*
G01*
X16816680Y127435339D01*
G75*
G02*
X16916680Y127335339I0J-100000D01*
G01*
X16916680Y126535339D01*
G75*
G02*
X16816680Y126435339I-100000J0D01*
G01*
G37*
G36*
G01*
X16816680Y128335361D02*
X15566680Y128335361D01*
G75*
G02*
X15466680Y128435361I0J100000D01*
G01*
X15466680Y129235361D01*
G75*
G02*
X15566680Y129335361I100000J0D01*
G01*
X16816680Y129335361D01*
G75*
G02*
X16916680Y129235361I0J-100000D01*
G01*
X16916680Y128435361D01*
G75*
G02*
X16816680Y128335361I-100000J0D01*
G01*
G37*
G04 #@! TD*
G04 #@! TO.C,R28*
G36*
G01*
X47426680Y128215339D02*
X46176680Y128215339D01*
G75*
G02*
X46076680Y128315339I0J100000D01*
G01*
X46076680Y129115339D01*
G75*
G02*
X46176680Y129215339I100000J0D01*
G01*
X47426680Y129215339D01*
G75*
G02*
X47526680Y129115339I0J-100000D01*
G01*
X47526680Y128315339D01*
G75*
G02*
X47426680Y128215339I-100000J0D01*
G01*
G37*
G36*
G01*
X47426680Y130115361D02*
X46176680Y130115361D01*
G75*
G02*
X46076680Y130215361I0J100000D01*
G01*
X46076680Y131015361D01*
G75*
G02*
X46176680Y131115361I100000J0D01*
G01*
X47426680Y131115361D01*
G75*
G02*
X47526680Y131015361I0J-100000D01*
G01*
X47526680Y130215361D01*
G75*
G02*
X47426680Y130115361I-100000J0D01*
G01*
G37*
G04 #@! TD*
G04 #@! TO.C,R26*
G36*
G01*
X134937640Y121050339D02*
X133687640Y121050339D01*
G75*
G02*
X133587640Y121150339I0J100000D01*
G01*
X133587640Y121950339D01*
G75*
G02*
X133687640Y122050339I100000J0D01*
G01*
X134937640Y122050339D01*
G75*
G02*
X135037640Y121950339I0J-100000D01*
G01*
X135037640Y121150339D01*
G75*
G02*
X134937640Y121050339I-100000J0D01*
G01*
G37*
G36*
G01*
X134937640Y122950361D02*
X133687640Y122950361D01*
G75*
G02*
X133587640Y123050361I0J100000D01*
G01*
X133587640Y123850361D01*
G75*
G02*
X133687640Y123950361I100000J0D01*
G01*
X134937640Y123950361D01*
G75*
G02*
X135037640Y123850361I0J-100000D01*
G01*
X135037640Y123050361D01*
G75*
G02*
X134937640Y122950361I-100000J0D01*
G01*
G37*
G04 #@! TD*
G04 #@! TO.C,D24*
G36*
G01*
X45314183Y5866838D02*
X45314183Y6346838D01*
G75*
G02*
X45374183Y6406838I60000J0D01*
G01*
X45854183Y6406838D01*
G75*
G02*
X45914183Y6346838I0J-60000D01*
G01*
X45914183Y5866838D01*
G75*
G02*
X45854183Y5806838I-60000J0D01*
G01*
X45374183Y5806838D01*
G75*
G02*
X45314183Y5866838I0J60000D01*
G01*
G37*
G36*
G01*
X45314183Y8066838D02*
X45314183Y8546838D01*
G75*
G02*
X45374183Y8606838I60000J0D01*
G01*
X45854183Y8606838D01*
G75*
G02*
X45914183Y8546838I0J-60000D01*
G01*
X45914183Y8066838D01*
G75*
G02*
X45854183Y8006838I-60000J0D01*
G01*
X45374183Y8006838D01*
G75*
G02*
X45314183Y8066838I0J60000D01*
G01*
G37*
G04 #@! TD*
G04 #@! TO.C,R25*
G36*
G01*
X135176680Y127596039D02*
X133926680Y127596039D01*
G75*
G02*
X133826680Y127696039I0J100000D01*
G01*
X133826680Y128496039D01*
G75*
G02*
X133926680Y128596039I100000J0D01*
G01*
X135176680Y128596039D01*
G75*
G02*
X135276680Y128496039I0J-100000D01*
G01*
X135276680Y127696039D01*
G75*
G02*
X135176680Y127596039I-100000J0D01*
G01*
G37*
G36*
G01*
X135176680Y129496061D02*
X133926680Y129496061D01*
G75*
G02*
X133826680Y129596061I0J100000D01*
G01*
X133826680Y130396061D01*
G75*
G02*
X133926680Y130496061I100000J0D01*
G01*
X135176680Y130496061D01*
G75*
G02*
X135276680Y130396061I0J-100000D01*
G01*
X135276680Y129596061D01*
G75*
G02*
X135176680Y129496061I-100000J0D01*
G01*
G37*
G04 #@! TD*
G04 #@! TO.C,C8*
G36*
G01*
X44046679Y100035340D02*
X44046679Y100715340D01*
G75*
G02*
X44131679Y100800340I85000J0D01*
G01*
X44811679Y100800340D01*
G75*
G02*
X44896679Y100715340I0J-85000D01*
G01*
X44896679Y100035340D01*
G75*
G02*
X44811679Y99950340I-85000J0D01*
G01*
X44131679Y99950340D01*
G75*
G02*
X44046679Y100035340I0J85000D01*
G01*
G37*
G36*
G01*
X45626681Y100035340D02*
X45626681Y100715340D01*
G75*
G02*
X45711681Y100800340I85000J0D01*
G01*
X46391681Y100800340D01*
G75*
G02*
X46476681Y100715340I0J-85000D01*
G01*
X46476681Y100035340D01*
G75*
G02*
X46391681Y99950340I-85000J0D01*
G01*
X45711681Y99950340D01*
G75*
G02*
X45626681Y100035340I0J85000D01*
G01*
G37*
G04 #@! TD*
G04 #@! TO.C,R51*
G36*
G01*
X61136680Y127985339D02*
X59886680Y127985339D01*
G75*
G02*
X59786680Y128085339I0J100000D01*
G01*
X59786680Y128885339D01*
G75*
G02*
X59886680Y128985339I100000J0D01*
G01*
X61136680Y128985339D01*
G75*
G02*
X61236680Y128885339I0J-100000D01*
G01*
X61236680Y128085339D01*
G75*
G02*
X61136680Y127985339I-100000J0D01*
G01*
G37*
G36*
G01*
X61136680Y129885361D02*
X59886680Y129885361D01*
G75*
G02*
X59786680Y129985361I0J100000D01*
G01*
X59786680Y130785361D01*
G75*
G02*
X59886680Y130885361I100000J0D01*
G01*
X61136680Y130885361D01*
G75*
G02*
X61236680Y130785361I0J-100000D01*
G01*
X61236680Y129985361D01*
G75*
G02*
X61136680Y129885361I-100000J0D01*
G01*
G37*
G04 #@! TD*
G04 #@! TO.C,D34*
G36*
G01*
X44031680Y97395340D02*
X43551680Y97395340D01*
G75*
G02*
X43491680Y97455340I0J60000D01*
G01*
X43491680Y97935340D01*
G75*
G02*
X43551680Y97995340I60000J0D01*
G01*
X44031680Y97995340D01*
G75*
G02*
X44091680Y97935340I0J-60000D01*
G01*
X44091680Y97455340D01*
G75*
G02*
X44031680Y97395340I-60000J0D01*
G01*
G37*
G36*
G01*
X41831680Y97395340D02*
X41351680Y97395340D01*
G75*
G02*
X41291680Y97455340I0J60000D01*
G01*
X41291680Y97935340D01*
G75*
G02*
X41351680Y97995340I60000J0D01*
G01*
X41831680Y97995340D01*
G75*
G02*
X41891680Y97935340I0J-60000D01*
G01*
X41891680Y97455340D01*
G75*
G02*
X41831680Y97395340I-60000J0D01*
G01*
G37*
G04 #@! TD*
G04 #@! TO.C,R27*
G36*
G01*
X109376680Y126555341D02*
X110626680Y126555341D01*
G75*
G02*
X110726680Y126455341I0J-100000D01*
G01*
X110726680Y125655341D01*
G75*
G02*
X110626680Y125555341I-100000J0D01*
G01*
X109376680Y125555341D01*
G75*
G02*
X109276680Y125655341I0J100000D01*
G01*
X109276680Y126455341D01*
G75*
G02*
X109376680Y126555341I100000J0D01*
G01*
G37*
G36*
G01*
X109376680Y124655319D02*
X110626680Y124655319D01*
G75*
G02*
X110726680Y124555319I0J-100000D01*
G01*
X110726680Y123755319D01*
G75*
G02*
X110626680Y123655319I-100000J0D01*
G01*
X109376680Y123655319D01*
G75*
G02*
X109276680Y123755319I0J100000D01*
G01*
X109276680Y124555319D01*
G75*
G02*
X109376680Y124655319I100000J0D01*
G01*
G37*
G04 #@! TD*
G04 #@! TO.C,R50*
G36*
G01*
X71726680Y9440340D02*
X71726680Y10220340D01*
G75*
G02*
X71796680Y10290340I70000J0D01*
G01*
X72356680Y10290340D01*
G75*
G02*
X72426680Y10220340I0J-70000D01*
G01*
X72426680Y9440340D01*
G75*
G02*
X72356680Y9370340I-70000J0D01*
G01*
X71796680Y9370340D01*
G75*
G02*
X71726680Y9440340I0J70000D01*
G01*
G37*
G36*
G01*
X73326680Y9440340D02*
X73326680Y10220340D01*
G75*
G02*
X73396680Y10290340I70000J0D01*
G01*
X73956680Y10290340D01*
G75*
G02*
X74026680Y10220340I0J-70000D01*
G01*
X74026680Y9440340D01*
G75*
G02*
X73956680Y9370340I-70000J0D01*
G01*
X73396680Y9370340D01*
G75*
G02*
X73326680Y9440340I0J70000D01*
G01*
G37*
G04 #@! TD*
G04 #@! TO.C,C6*
G36*
G01*
X136806682Y14595354D02*
X136806682Y13915354D01*
G75*
G02*
X136721682Y13830354I-85000J0D01*
G01*
X136041682Y13830354D01*
G75*
G02*
X135956682Y13915354I0J85000D01*
G01*
X135956682Y14595354D01*
G75*
G02*
X136041682Y14680354I85000J0D01*
G01*
X136721682Y14680354D01*
G75*
G02*
X136806682Y14595354I0J-85000D01*
G01*
G37*
G36*
G01*
X135226680Y14595354D02*
X135226680Y13915354D01*
G75*
G02*
X135141680Y13830354I-85000J0D01*
G01*
X134461680Y13830354D01*
G75*
G02*
X134376680Y13915354I0J85000D01*
G01*
X134376680Y14595354D01*
G75*
G02*
X134461680Y14680354I85000J0D01*
G01*
X135141680Y14680354D01*
G75*
G02*
X135226680Y14595354I0J-85000D01*
G01*
G37*
G04 #@! TD*
G04 #@! TO.C,R15*
G36*
G01*
X102852380Y102402400D02*
X102852380Y101622400D01*
G75*
G02*
X102782380Y101552400I-70000J0D01*
G01*
X102222380Y101552400D01*
G75*
G02*
X102152380Y101622400I0J70000D01*
G01*
X102152380Y102402400D01*
G75*
G02*
X102222380Y102472400I70000J0D01*
G01*
X102782380Y102472400D01*
G75*
G02*
X102852380Y102402400I0J-70000D01*
G01*
G37*
G36*
G01*
X101252380Y102402400D02*
X101252380Y101622400D01*
G75*
G02*
X101182380Y101552400I-70000J0D01*
G01*
X100622380Y101552400D01*
G75*
G02*
X100552380Y101622400I0J70000D01*
G01*
X100552380Y102402400D01*
G75*
G02*
X100622380Y102472400I70000J0D01*
G01*
X101182380Y102472400D01*
G75*
G02*
X101252380Y102402400I0J-70000D01*
G01*
G37*
G04 #@! TD*
G04 #@! TO.C,R39*
G36*
G01*
X23666680Y126325339D02*
X22416680Y126325339D01*
G75*
G02*
X22316680Y126425339I0J100000D01*
G01*
X22316680Y127225339D01*
G75*
G02*
X22416680Y127325339I100000J0D01*
G01*
X23666680Y127325339D01*
G75*
G02*
X23766680Y127225339I0J-100000D01*
G01*
X23766680Y126425339D01*
G75*
G02*
X23666680Y126325339I-100000J0D01*
G01*
G37*
G36*
G01*
X23666680Y128225361D02*
X22416680Y128225361D01*
G75*
G02*
X22316680Y128325361I0J100000D01*
G01*
X22316680Y129125361D01*
G75*
G02*
X22416680Y129225361I100000J0D01*
G01*
X23666680Y129225361D01*
G75*
G02*
X23766680Y129125361I0J-100000D01*
G01*
X23766680Y128325361D01*
G75*
G02*
X23666680Y128225361I-100000J0D01*
G01*
G37*
G04 #@! TD*
G04 #@! TO.C,R49*
G36*
G01*
X104726680Y127805339D02*
X103476680Y127805339D01*
G75*
G02*
X103376680Y127905339I0J100000D01*
G01*
X103376680Y128705339D01*
G75*
G02*
X103476680Y128805339I100000J0D01*
G01*
X104726680Y128805339D01*
G75*
G02*
X104826680Y128705339I0J-100000D01*
G01*
X104826680Y127905339D01*
G75*
G02*
X104726680Y127805339I-100000J0D01*
G01*
G37*
G36*
G01*
X104726680Y129705361D02*
X103476680Y129705361D01*
G75*
G02*
X103376680Y129805361I0J100000D01*
G01*
X103376680Y130605361D01*
G75*
G02*
X103476680Y130705361I100000J0D01*
G01*
X104726680Y130705361D01*
G75*
G02*
X104826680Y130605361I0J-100000D01*
G01*
X104826680Y129805361D01*
G75*
G02*
X104726680Y129705361I-100000J0D01*
G01*
G37*
G04 #@! TD*
G04 #@! TO.C,D4*
G36*
G01*
X122130830Y48690850D02*
X121230830Y48690850D01*
G75*
G02*
X121130830Y48790850I0J100000D01*
G01*
X121130830Y49590850D01*
G75*
G02*
X121230830Y49690850I100000J0D01*
G01*
X122130830Y49690850D01*
G75*
G02*
X122230830Y49590850I0J-100000D01*
G01*
X122230830Y48790850D01*
G75*
G02*
X122130830Y48690850I-100000J0D01*
G01*
G37*
G36*
G01*
X122130830Y50390850D02*
X121230830Y50390850D01*
G75*
G02*
X121130830Y50490850I0J100000D01*
G01*
X121130830Y51290850D01*
G75*
G02*
X121230830Y51390850I100000J0D01*
G01*
X122130830Y51390850D01*
G75*
G02*
X122230830Y51290850I0J-100000D01*
G01*
X122230830Y50490850D01*
G75*
G02*
X122130830Y50390850I-100000J0D01*
G01*
G37*
G04 #@! TD*
G04 #@! TO.C,R45*
G36*
G01*
X125576680Y121055318D02*
X124326680Y121055318D01*
G75*
G02*
X124226680Y121155318I0J100000D01*
G01*
X124226680Y121955318D01*
G75*
G02*
X124326680Y122055318I100000J0D01*
G01*
X125576680Y122055318D01*
G75*
G02*
X125676680Y121955318I0J-100000D01*
G01*
X125676680Y121155318D01*
G75*
G02*
X125576680Y121055318I-100000J0D01*
G01*
G37*
G36*
G01*
X125576680Y122955340D02*
X124326680Y122955340D01*
G75*
G02*
X124226680Y123055340I0J100000D01*
G01*
X124226680Y123855340D01*
G75*
G02*
X124326680Y123955340I100000J0D01*
G01*
X125576680Y123955340D01*
G75*
G02*
X125676680Y123855340I0J-100000D01*
G01*
X125676680Y123055340D01*
G75*
G02*
X125576680Y122955340I-100000J0D01*
G01*
G37*
G04 #@! TD*
G04 #@! TO.C,D7*
G36*
G01*
X68511891Y79556089D02*
X69411891Y79556089D01*
G75*
G02*
X69511891Y79456089I0J-100000D01*
G01*
X69511891Y78656089D01*
G75*
G02*
X69411891Y78556089I-100000J0D01*
G01*
X68511891Y78556089D01*
G75*
G02*
X68411891Y78656089I0J100000D01*
G01*
X68411891Y79456089D01*
G75*
G02*
X68511891Y79556089I100000J0D01*
G01*
G37*
G36*
G01*
X68511891Y77856089D02*
X69411891Y77856089D01*
G75*
G02*
X69511891Y77756089I0J-100000D01*
G01*
X69511891Y76956089D01*
G75*
G02*
X69411891Y76856089I-100000J0D01*
G01*
X68511891Y76856089D01*
G75*
G02*
X68411891Y76956089I0J100000D01*
G01*
X68411891Y77756089D01*
G75*
G02*
X68511891Y77856089I100000J0D01*
G01*
G37*
G04 #@! TD*
G04 #@! TO.C,C5*
G36*
G01*
X129561680Y80920341D02*
X130241680Y80920341D01*
G75*
G02*
X130326680Y80835341I0J-85000D01*
G01*
X130326680Y80155341D01*
G75*
G02*
X130241680Y80070341I-85000J0D01*
G01*
X129561680Y80070341D01*
G75*
G02*
X129476680Y80155341I0J85000D01*
G01*
X129476680Y80835341D01*
G75*
G02*
X129561680Y80920341I85000J0D01*
G01*
G37*
G36*
G01*
X129561680Y79340339D02*
X130241680Y79340339D01*
G75*
G02*
X130326680Y79255339I0J-85000D01*
G01*
X130326680Y78575339D01*
G75*
G02*
X130241680Y78490339I-85000J0D01*
G01*
X129561680Y78490339D01*
G75*
G02*
X129476680Y78575339I0J85000D01*
G01*
X129476680Y79255339D01*
G75*
G02*
X129561680Y79340339I85000J0D01*
G01*
G37*
G04 #@! TD*
G04 #@! TO.C,R1*
G36*
G01*
X124330832Y55225849D02*
X124330832Y54555849D01*
G75*
G02*
X124265832Y54490849I-65000J0D01*
G01*
X123745832Y54490849D01*
G75*
G02*
X123680832Y54555849I0J65000D01*
G01*
X123680832Y55225849D01*
G75*
G02*
X123745832Y55290849I65000J0D01*
G01*
X124265832Y55290849D01*
G75*
G02*
X124330832Y55225849I0J-65000D01*
G01*
G37*
G36*
G01*
X123355832Y55245849D02*
X123355832Y54535849D01*
G75*
G02*
X123310832Y54490849I-45000J0D01*
G01*
X122950832Y54490849D01*
G75*
G02*
X122905832Y54535849I0J45000D01*
G01*
X122905832Y55245849D01*
G75*
G02*
X122950832Y55290849I45000J0D01*
G01*
X123310832Y55290849D01*
G75*
G02*
X123355832Y55245849I0J-45000D01*
G01*
G37*
G36*
G01*
X122555832Y55245849D02*
X122555832Y54535849D01*
G75*
G02*
X122510832Y54490849I-45000J0D01*
G01*
X122150832Y54490849D01*
G75*
G02*
X122105832Y54535849I0J45000D01*
G01*
X122105832Y55245849D01*
G75*
G02*
X122150832Y55290849I45000J0D01*
G01*
X122510832Y55290849D01*
G75*
G02*
X122555832Y55245849I0J-45000D01*
G01*
G37*
G36*
G01*
X121780832Y55225849D02*
X121780832Y54555849D01*
G75*
G02*
X121715832Y54490849I-65000J0D01*
G01*
X121195832Y54490849D01*
G75*
G02*
X121130832Y54555849I0J65000D01*
G01*
X121130832Y55225849D01*
G75*
G02*
X121195832Y55290849I65000J0D01*
G01*
X121715832Y55290849D01*
G75*
G02*
X121780832Y55225849I0J-65000D01*
G01*
G37*
G36*
G01*
X121780832Y53425849D02*
X121780832Y52755849D01*
G75*
G02*
X121715832Y52690849I-65000J0D01*
G01*
X121195832Y52690849D01*
G75*
G02*
X121130832Y52755849I0J65000D01*
G01*
X121130832Y53425849D01*
G75*
G02*
X121195832Y53490849I65000J0D01*
G01*
X121715832Y53490849D01*
G75*
G02*
X121780832Y53425849I0J-65000D01*
G01*
G37*
G36*
G01*
X122555832Y53445849D02*
X122555832Y52735849D01*
G75*
G02*
X122510832Y52690849I-45000J0D01*
G01*
X122150832Y52690849D01*
G75*
G02*
X122105832Y52735849I0J45000D01*
G01*
X122105832Y53445849D01*
G75*
G02*
X122150832Y53490849I45000J0D01*
G01*
X122510832Y53490849D01*
G75*
G02*
X122555832Y53445849I0J-45000D01*
G01*
G37*
G36*
G01*
X123355832Y53445849D02*
X123355832Y52735849D01*
G75*
G02*
X123310832Y52690849I-45000J0D01*
G01*
X122950832Y52690849D01*
G75*
G02*
X122905832Y52735849I0J45000D01*
G01*
X122905832Y53445849D01*
G75*
G02*
X122950832Y53490849I45000J0D01*
G01*
X123310832Y53490849D01*
G75*
G02*
X123355832Y53445849I0J-45000D01*
G01*
G37*
G36*
G01*
X124330832Y53425849D02*
X124330832Y52755849D01*
G75*
G02*
X124265832Y52690849I-65000J0D01*
G01*
X123745832Y52690849D01*
G75*
G02*
X123680832Y52755849I0J65000D01*
G01*
X123680832Y53425849D01*
G75*
G02*
X123745832Y53490849I65000J0D01*
G01*
X124265832Y53490849D01*
G75*
G02*
X124330832Y53425849I0J-65000D01*
G01*
G37*
G04 #@! TD*
G04 #@! TO.C,R59*
G36*
G01*
X46851680Y95675340D02*
X46071680Y95675340D01*
G75*
G02*
X46001680Y95745340I0J70000D01*
G01*
X46001680Y96305340D01*
G75*
G02*
X46071680Y96375340I70000J0D01*
G01*
X46851680Y96375340D01*
G75*
G02*
X46921680Y96305340I0J-70000D01*
G01*
X46921680Y95745340D01*
G75*
G02*
X46851680Y95675340I-70000J0D01*
G01*
G37*
G36*
G01*
X46851680Y97275340D02*
X46071680Y97275340D01*
G75*
G02*
X46001680Y97345340I0J70000D01*
G01*
X46001680Y97905340D01*
G75*
G02*
X46071680Y97975340I70000J0D01*
G01*
X46851680Y97975340D01*
G75*
G02*
X46921680Y97905340I0J-70000D01*
G01*
X46921680Y97345340D01*
G75*
G02*
X46851680Y97275340I-70000J0D01*
G01*
G37*
G04 #@! TD*
G04 #@! TO.C,D25*
G36*
G01*
X58291680Y69300340D02*
X59311680Y69300340D01*
G75*
G02*
X59401680Y69210340I0J-90000D01*
G01*
X59401680Y68490340D01*
G75*
G02*
X59311680Y68400340I-90000J0D01*
G01*
X58291680Y68400340D01*
G75*
G02*
X58201680Y68490340I0J90000D01*
G01*
X58201680Y69210340D01*
G75*
G02*
X58291680Y69300340I90000J0D01*
G01*
G37*
G36*
G01*
X58291680Y66000340D02*
X59311680Y66000340D01*
G75*
G02*
X59401680Y65910340I0J-90000D01*
G01*
X59401680Y65190340D01*
G75*
G02*
X59311680Y65100340I-90000J0D01*
G01*
X58291680Y65100340D01*
G75*
G02*
X58201680Y65190340I0J90000D01*
G01*
X58201680Y65910340D01*
G75*
G02*
X58291680Y66000340I90000J0D01*
G01*
G37*
G04 #@! TD*
G04 #@! TO.C,R7*
G36*
G01*
X42876680Y95765340D02*
X42876680Y95095340D01*
G75*
G02*
X42811680Y95030340I-65000J0D01*
G01*
X42291680Y95030340D01*
G75*
G02*
X42226680Y95095340I0J65000D01*
G01*
X42226680Y95765340D01*
G75*
G02*
X42291680Y95830340I65000J0D01*
G01*
X42811680Y95830340D01*
G75*
G02*
X42876680Y95765340I0J-65000D01*
G01*
G37*
G36*
G01*
X41901680Y95785340D02*
X41901680Y95075340D01*
G75*
G02*
X41856680Y95030340I-45000J0D01*
G01*
X41496680Y95030340D01*
G75*
G02*
X41451680Y95075340I0J45000D01*
G01*
X41451680Y95785340D01*
G75*
G02*
X41496680Y95830340I45000J0D01*
G01*
X41856680Y95830340D01*
G75*
G02*
X41901680Y95785340I0J-45000D01*
G01*
G37*
G36*
G01*
X41101680Y95785340D02*
X41101680Y95075340D01*
G75*
G02*
X41056680Y95030340I-45000J0D01*
G01*
X40696680Y95030340D01*
G75*
G02*
X40651680Y95075340I0J45000D01*
G01*
X40651680Y95785340D01*
G75*
G02*
X40696680Y95830340I45000J0D01*
G01*
X41056680Y95830340D01*
G75*
G02*
X41101680Y95785340I0J-45000D01*
G01*
G37*
G36*
G01*
X40326680Y95765340D02*
X40326680Y95095340D01*
G75*
G02*
X40261680Y95030340I-65000J0D01*
G01*
X39741680Y95030340D01*
G75*
G02*
X39676680Y95095340I0J65000D01*
G01*
X39676680Y95765340D01*
G75*
G02*
X39741680Y95830340I65000J0D01*
G01*
X40261680Y95830340D01*
G75*
G02*
X40326680Y95765340I0J-65000D01*
G01*
G37*
G36*
G01*
X40326680Y93965340D02*
X40326680Y93295340D01*
G75*
G02*
X40261680Y93230340I-65000J0D01*
G01*
X39741680Y93230340D01*
G75*
G02*
X39676680Y93295340I0J65000D01*
G01*
X39676680Y93965340D01*
G75*
G02*
X39741680Y94030340I65000J0D01*
G01*
X40261680Y94030340D01*
G75*
G02*
X40326680Y93965340I0J-65000D01*
G01*
G37*
G36*
G01*
X41101680Y93985340D02*
X41101680Y93275340D01*
G75*
G02*
X41056680Y93230340I-45000J0D01*
G01*
X40696680Y93230340D01*
G75*
G02*
X40651680Y93275340I0J45000D01*
G01*
X40651680Y93985340D01*
G75*
G02*
X40696680Y94030340I45000J0D01*
G01*
X41056680Y94030340D01*
G75*
G02*
X41101680Y93985340I0J-45000D01*
G01*
G37*
G36*
G01*
X41901680Y93985340D02*
X41901680Y93275340D01*
G75*
G02*
X41856680Y93230340I-45000J0D01*
G01*
X41496680Y93230340D01*
G75*
G02*
X41451680Y93275340I0J45000D01*
G01*
X41451680Y93985340D01*
G75*
G02*
X41496680Y94030340I45000J0D01*
G01*
X41856680Y94030340D01*
G75*
G02*
X41901680Y93985340I0J-45000D01*
G01*
G37*
G36*
G01*
X42876680Y93965340D02*
X42876680Y93295340D01*
G75*
G02*
X42811680Y93230340I-65000J0D01*
G01*
X42291680Y93230340D01*
G75*
G02*
X42226680Y93295340I0J65000D01*
G01*
X42226680Y93965340D01*
G75*
G02*
X42291680Y94030340I65000J0D01*
G01*
X42811680Y94030340D01*
G75*
G02*
X42876680Y93965340I0J-65000D01*
G01*
G37*
G04 #@! TD*
D14*
G04 #@! TO.C,U6*
X107696680Y116050340D03*
X107696680Y114780340D03*
X107696680Y113510340D03*
D15*
X107696680Y112240340D03*
D14*
X113386680Y112240340D03*
X113386680Y113510340D03*
X113386680Y114780340D03*
X113386680Y116050340D03*
D16*
X111204180Y114895340D03*
X111204180Y113395340D03*
X109879180Y113395340D03*
X109879180Y114895340D03*
G04 #@! TD*
G04 #@! TO.C,R13*
G36*
G01*
X71806040Y5340340D02*
X71806040Y6120340D01*
G75*
G02*
X71876040Y6190340I70000J0D01*
G01*
X72436040Y6190340D01*
G75*
G02*
X72506040Y6120340I0J-70000D01*
G01*
X72506040Y5340340D01*
G75*
G02*
X72436040Y5270340I-70000J0D01*
G01*
X71876040Y5270340D01*
G75*
G02*
X71806040Y5340340I0J70000D01*
G01*
G37*
G36*
G01*
X73406040Y5340340D02*
X73406040Y6120340D01*
G75*
G02*
X73476040Y6190340I70000J0D01*
G01*
X74036040Y6190340D01*
G75*
G02*
X74106040Y6120340I0J-70000D01*
G01*
X74106040Y5340340D01*
G75*
G02*
X74036040Y5270340I-70000J0D01*
G01*
X73476040Y5270340D01*
G75*
G02*
X73406040Y5340340I0J70000D01*
G01*
G37*
G04 #@! TD*
G04 #@! TO.C,R46*
G36*
G01*
X117626680Y127705339D02*
X116376680Y127705339D01*
G75*
G02*
X116276680Y127805339I0J100000D01*
G01*
X116276680Y128605339D01*
G75*
G02*
X116376680Y128705339I100000J0D01*
G01*
X117626680Y128705339D01*
G75*
G02*
X117726680Y128605339I0J-100000D01*
G01*
X117726680Y127805339D01*
G75*
G02*
X117626680Y127705339I-100000J0D01*
G01*
G37*
G36*
G01*
X117626680Y129605361D02*
X116376680Y129605361D01*
G75*
G02*
X116276680Y129705361I0J100000D01*
G01*
X116276680Y130505361D01*
G75*
G02*
X116376680Y130605361I100000J0D01*
G01*
X117626680Y130605361D01*
G75*
G02*
X117726680Y130505361I0J-100000D01*
G01*
X117726680Y129705361D01*
G75*
G02*
X117626680Y129605361I-100000J0D01*
G01*
G37*
G04 #@! TD*
G04 #@! TO.C,C2*
G36*
G01*
X125662380Y45127401D02*
X126342380Y45127401D01*
G75*
G02*
X126427380Y45042401I0J-85000D01*
G01*
X126427380Y44362401D01*
G75*
G02*
X126342380Y44277401I-85000J0D01*
G01*
X125662380Y44277401D01*
G75*
G02*
X125577380Y44362401I0J85000D01*
G01*
X125577380Y45042401D01*
G75*
G02*
X125662380Y45127401I85000J0D01*
G01*
G37*
G36*
G01*
X125662380Y43547399D02*
X126342380Y43547399D01*
G75*
G02*
X126427380Y43462399I0J-85000D01*
G01*
X126427380Y42782399D01*
G75*
G02*
X126342380Y42697399I-85000J0D01*
G01*
X125662380Y42697399D01*
G75*
G02*
X125577380Y42782399I0J85000D01*
G01*
X125577380Y43462399D01*
G75*
G02*
X125662380Y43547399I85000J0D01*
G01*
G37*
G04 #@! TD*
G04 #@! TO.C,R58*
G36*
G01*
X43756680Y128185339D02*
X42506680Y128185339D01*
G75*
G02*
X42406680Y128285339I0J100000D01*
G01*
X42406680Y129085339D01*
G75*
G02*
X42506680Y129185339I100000J0D01*
G01*
X43756680Y129185339D01*
G75*
G02*
X43856680Y129085339I0J-100000D01*
G01*
X43856680Y128285339D01*
G75*
G02*
X43756680Y128185339I-100000J0D01*
G01*
G37*
G36*
G01*
X43756680Y130085361D02*
X42506680Y130085361D01*
G75*
G02*
X42406680Y130185361I0J100000D01*
G01*
X42406680Y130985361D01*
G75*
G02*
X42506680Y131085361I100000J0D01*
G01*
X43756680Y131085361D01*
G75*
G02*
X43856680Y130985361I0J-100000D01*
G01*
X43856680Y130185361D01*
G75*
G02*
X43756680Y130085361I-100000J0D01*
G01*
G37*
G04 #@! TD*
G04 #@! TO.C,R54*
G36*
G01*
X85501680Y79505340D02*
X85501680Y78725340D01*
G75*
G02*
X85431680Y78655340I-70000J0D01*
G01*
X84871680Y78655340D01*
G75*
G02*
X84801680Y78725340I0J70000D01*
G01*
X84801680Y79505340D01*
G75*
G02*
X84871680Y79575340I70000J0D01*
G01*
X85431680Y79575340D01*
G75*
G02*
X85501680Y79505340I0J-70000D01*
G01*
G37*
G36*
G01*
X83901680Y79505340D02*
X83901680Y78725340D01*
G75*
G02*
X83831680Y78655340I-70000J0D01*
G01*
X83271680Y78655340D01*
G75*
G02*
X83201680Y78725340I0J70000D01*
G01*
X83201680Y79505340D01*
G75*
G02*
X83271680Y79575340I70000J0D01*
G01*
X83831680Y79575340D01*
G75*
G02*
X83901680Y79505340I0J-70000D01*
G01*
G37*
G04 #@! TD*
G04 #@! TO.C,R12*
G36*
G01*
X130126680Y127405339D02*
X128876680Y127405339D01*
G75*
G02*
X128776680Y127505339I0J100000D01*
G01*
X128776680Y128305339D01*
G75*
G02*
X128876680Y128405339I100000J0D01*
G01*
X130126680Y128405339D01*
G75*
G02*
X130226680Y128305339I0J-100000D01*
G01*
X130226680Y127505339D01*
G75*
G02*
X130126680Y127405339I-100000J0D01*
G01*
G37*
G36*
G01*
X130126680Y129305361D02*
X128876680Y129305361D01*
G75*
G02*
X128776680Y129405361I0J100000D01*
G01*
X128776680Y130205361D01*
G75*
G02*
X128876680Y130305361I100000J0D01*
G01*
X130126680Y130305361D01*
G75*
G02*
X130226680Y130205361I0J-100000D01*
G01*
X130226680Y129405361D01*
G75*
G02*
X130126680Y129305361I-100000J0D01*
G01*
G37*
G04 #@! TD*
G04 #@! TO.C,C12*
G36*
G01*
X40146680Y118225340D02*
X39096680Y118225340D01*
G75*
G02*
X38996680Y118325340I0J100000D01*
G01*
X38996680Y119125340D01*
G75*
G02*
X39096680Y119225340I100000J0D01*
G01*
X40146680Y119225340D01*
G75*
G02*
X40246680Y119125340I0J-100000D01*
G01*
X40246680Y118325340D01*
G75*
G02*
X40146680Y118225340I-100000J0D01*
G01*
G37*
G36*
G01*
X40146680Y120225340D02*
X39096680Y120225340D01*
G75*
G02*
X38996680Y120325340I0J100000D01*
G01*
X38996680Y121125340D01*
G75*
G02*
X39096680Y121225340I100000J0D01*
G01*
X40146680Y121225340D01*
G75*
G02*
X40246680Y121125340I0J-100000D01*
G01*
X40246680Y120325340D01*
G75*
G02*
X40146680Y120225340I-100000J0D01*
G01*
G37*
G04 #@! TD*
G04 #@! TO.C,C15*
G36*
G01*
X43146680Y118225340D02*
X42096680Y118225340D01*
G75*
G02*
X41996680Y118325340I0J100000D01*
G01*
X41996680Y119125340D01*
G75*
G02*
X42096680Y119225340I100000J0D01*
G01*
X43146680Y119225340D01*
G75*
G02*
X43246680Y119125340I0J-100000D01*
G01*
X43246680Y118325340D01*
G75*
G02*
X43146680Y118225340I-100000J0D01*
G01*
G37*
G36*
G01*
X43146680Y120225340D02*
X42096680Y120225340D01*
G75*
G02*
X41996680Y120325340I0J100000D01*
G01*
X41996680Y121125340D01*
G75*
G02*
X42096680Y121225340I100000J0D01*
G01*
X43146680Y121225340D01*
G75*
G02*
X43246680Y121125340I0J-100000D01*
G01*
X43246680Y120325340D01*
G75*
G02*
X43146680Y120225340I-100000J0D01*
G01*
G37*
G04 #@! TD*
G04 #@! TO.C,R18*
G36*
G01*
X123201680Y121005339D02*
X121951680Y121005339D01*
G75*
G02*
X121851680Y121105339I0J100000D01*
G01*
X121851680Y121905339D01*
G75*
G02*
X121951680Y122005339I100000J0D01*
G01*
X123201680Y122005339D01*
G75*
G02*
X123301680Y121905339I0J-100000D01*
G01*
X123301680Y121105339D01*
G75*
G02*
X123201680Y121005339I-100000J0D01*
G01*
G37*
G36*
G01*
X123201680Y122905361D02*
X121951680Y122905361D01*
G75*
G02*
X121851680Y123005361I0J100000D01*
G01*
X121851680Y123805361D01*
G75*
G02*
X121951680Y123905361I100000J0D01*
G01*
X123201680Y123905361D01*
G75*
G02*
X123301680Y123805361I0J-100000D01*
G01*
X123301680Y123005361D01*
G75*
G02*
X123201680Y122905361I-100000J0D01*
G01*
G37*
G04 #@! TD*
G04 #@! TO.C,U7*
G36*
G01*
X144932980Y46795340D02*
X145440380Y46795340D01*
G75*
G02*
X145481680Y46754040I0J-41300D01*
G01*
X145481680Y44816640D01*
G75*
G02*
X145440380Y44775340I-41300J0D01*
G01*
X144932980Y44775340D01*
G75*
G02*
X144891680Y44816640I0J41300D01*
G01*
X144891680Y46754040D01*
G75*
G02*
X144932980Y46795340I41300J0D01*
G01*
G37*
G36*
G01*
X143662980Y46795340D02*
X144170380Y46795340D01*
G75*
G02*
X144211680Y46754040I0J-41300D01*
G01*
X144211680Y44816640D01*
G75*
G02*
X144170380Y44775340I-41300J0D01*
G01*
X143662980Y44775340D01*
G75*
G02*
X143621680Y44816640I0J41300D01*
G01*
X143621680Y46754040D01*
G75*
G02*
X143662980Y46795340I41300J0D01*
G01*
G37*
G36*
G01*
X142392980Y46795340D02*
X142900380Y46795340D01*
G75*
G02*
X142941680Y46754040I0J-41300D01*
G01*
X142941680Y44816640D01*
G75*
G02*
X142900380Y44775340I-41300J0D01*
G01*
X142392980Y44775340D01*
G75*
G02*
X142351680Y44816640I0J41300D01*
G01*
X142351680Y46754040D01*
G75*
G02*
X142392980Y46795340I41300J0D01*
G01*
G37*
G36*
G01*
X141122980Y46795340D02*
X141630380Y46795340D01*
G75*
G02*
X141671680Y46754040I0J-41300D01*
G01*
X141671680Y44816640D01*
G75*
G02*
X141630380Y44775340I-41300J0D01*
G01*
X141122980Y44775340D01*
G75*
G02*
X141081680Y44816640I0J41300D01*
G01*
X141081680Y46754040D01*
G75*
G02*
X141122980Y46795340I41300J0D01*
G01*
G37*
G36*
G01*
X141122980Y37435340D02*
X141630380Y37435340D01*
G75*
G02*
X141671680Y37394040I0J-41300D01*
G01*
X141671680Y35456640D01*
G75*
G02*
X141630380Y35415340I-41300J0D01*
G01*
X141122980Y35415340D01*
G75*
G02*
X141081680Y35456640I0J41300D01*
G01*
X141081680Y37394040D01*
G75*
G02*
X141122980Y37435340I41300J0D01*
G01*
G37*
G36*
G01*
X142392980Y37435340D02*
X142900380Y37435340D01*
G75*
G02*
X142941680Y37394040I0J-41300D01*
G01*
X142941680Y35456640D01*
G75*
G02*
X142900380Y35415340I-41300J0D01*
G01*
X142392980Y35415340D01*
G75*
G02*
X142351680Y35456640I0J41300D01*
G01*
X142351680Y37394040D01*
G75*
G02*
X142392980Y37435340I41300J0D01*
G01*
G37*
G36*
G01*
X143662980Y37435340D02*
X144170380Y37435340D01*
G75*
G02*
X144211680Y37394040I0J-41300D01*
G01*
X144211680Y35456640D01*
G75*
G02*
X144170380Y35415340I-41300J0D01*
G01*
X143662980Y35415340D01*
G75*
G02*
X143621680Y35456640I0J41300D01*
G01*
X143621680Y37394040D01*
G75*
G02*
X143662980Y37435340I41300J0D01*
G01*
G37*
G36*
G01*
X144932980Y37435340D02*
X145440380Y37435340D01*
G75*
G02*
X145481680Y37394040I0J-41300D01*
G01*
X145481680Y35456640D01*
G75*
G02*
X145440380Y35415340I-41300J0D01*
G01*
X144932980Y35415340D01*
G75*
G02*
X144891680Y35456640I0J41300D01*
G01*
X144891680Y37394040D01*
G75*
G02*
X144932980Y37435340I41300J0D01*
G01*
G37*
G04 #@! TD*
G04 #@! TO.C,D13*
G36*
G01*
X70899386Y79494591D02*
X70899386Y79014591D01*
G75*
G02*
X70839386Y78954591I-60000J0D01*
G01*
X70359386Y78954591D01*
G75*
G02*
X70299386Y79014591I0J60000D01*
G01*
X70299386Y79494591D01*
G75*
G02*
X70359386Y79554591I60000J0D01*
G01*
X70839386Y79554591D01*
G75*
G02*
X70899386Y79494591I0J-60000D01*
G01*
G37*
G36*
G01*
X70899386Y77294591D02*
X70899386Y76814591D01*
G75*
G02*
X70839386Y76754591I-60000J0D01*
G01*
X70359386Y76754591D01*
G75*
G02*
X70299386Y76814591I0J60000D01*
G01*
X70299386Y77294591D01*
G75*
G02*
X70359386Y77354591I60000J0D01*
G01*
X70839386Y77354591D01*
G75*
G02*
X70899386Y77294591I0J-60000D01*
G01*
G37*
G04 #@! TD*
D10*
G04 #@! TO.C,M11*
X14612477Y72900000D03*
X18018188Y58024998D03*
X18562492Y96719996D03*
X16662491Y96720001D03*
X20020165Y59725015D03*
G04 #@! TD*
D17*
G04 #@! TO.C,U5*
X37961680Y102655340D03*
X39231680Y102655340D03*
X40501680Y102655340D03*
X41771680Y102655340D03*
X43041680Y102655340D03*
X44311680Y102655340D03*
X45581680Y102655340D03*
X46851680Y102655340D03*
X48121680Y102655340D03*
X49391680Y102655340D03*
X49391680Y115855340D03*
X48121680Y115855340D03*
X46851680Y115855340D03*
X45581680Y115855340D03*
X44311680Y115855340D03*
X43041680Y115855340D03*
X41771680Y115855340D03*
X40501680Y115855340D03*
X39231680Y115855340D03*
X37961680Y115855340D03*
D18*
X36564680Y109255340D03*
D19*
X43676680Y109255340D03*
D18*
X50788680Y109255340D03*
G04 #@! TD*
G04 #@! TO.C,F2*
G36*
G01*
X14376670Y131505340D02*
X13686670Y131505340D01*
G75*
G02*
X13456670Y131735340I0J230000D01*
G01*
X13456670Y133075340D01*
G75*
G02*
X13686670Y133305340I230000J0D01*
G01*
X14376670Y133305340D01*
G75*
G02*
X14606670Y133075340I0J-230000D01*
G01*
X14606670Y131735340D01*
G75*
G02*
X14376670Y131505340I-230000J0D01*
G01*
G37*
G36*
G01*
X17276690Y131505340D02*
X16586690Y131505340D01*
G75*
G02*
X16356690Y131735340I0J230000D01*
G01*
X16356690Y133075340D01*
G75*
G02*
X16586690Y133305340I230000J0D01*
G01*
X17276690Y133305340D01*
G75*
G02*
X17506690Y133075340I0J-230000D01*
G01*
X17506690Y131735340D01*
G75*
G02*
X17276690Y131505340I-230000J0D01*
G01*
G37*
G04 #@! TD*
M02*
