G04 #@! TF.GenerationSoftware,KiCad,Pcbnew,(5.99.0-10200-gdf5f010514)*
G04 #@! TF.CreationDate,2021-04-10T18:58:20+03:00*
G04 #@! TF.ProjectId,hellen64_miataNA6_94,68656c6c-656e-4363-945f-6d696174614e,R0.4*
G04 #@! TF.SameCoordinates,PX1406f40PYa852d20*
G04 #@! TF.FileFunction,Legend,Bot*
G04 #@! TF.FilePolarity,Positive*
%FSLAX46Y46*%
G04 Gerber Fmt 4.6, Leading zero omitted, Abs format (unit mm)*
G04 Created by KiCad (PCBNEW (5.99.0-10200-gdf5f010514)) date 2021-04-10 18:58:20*
%MOMM*%
%LPD*%
G01*
G04 APERTURE LIST*
%ADD10C,0.127000*%
%ADD11C,0.200000*%
G04 APERTURE END LIST*
D10*
X132794809Y143969048D02*
X132794809Y143654572D01*
X132988333Y143823905D01*
X132988333Y143751334D01*
X133012523Y143702953D01*
X133036714Y143678762D01*
X133085095Y143654572D01*
X133206047Y143654572D01*
X133254428Y143678762D01*
X133278619Y143702953D01*
X133302809Y143751334D01*
X133302809Y143896477D01*
X133278619Y143944858D01*
X133254428Y143969048D01*
X133060904Y143340096D02*
X133302809Y143340096D01*
X132794809Y143509429D02*
X133060904Y143340096D01*
X132794809Y143170762D01*
X80265190Y148365667D02*
X80241000Y148341477D01*
X80216809Y148293096D01*
X80216809Y148172143D01*
X80241000Y148123762D01*
X80265190Y148099572D01*
X80313571Y148075381D01*
X80361952Y148075381D01*
X80434523Y148099572D01*
X80724809Y148389858D01*
X80724809Y148075381D01*
X80216809Y147712524D02*
X80579666Y147712524D01*
X80652238Y147736715D01*
X80700619Y147785096D01*
X80724809Y147857667D01*
X80724809Y147906048D01*
X44529809Y147948381D02*
X44529809Y148238667D01*
X44529809Y148093524D02*
X44021809Y148093524D01*
X44094380Y148141905D01*
X44142761Y148190286D01*
X44166952Y148238667D01*
X44021809Y147585524D02*
X44384666Y147585524D01*
X44457238Y147609715D01*
X44505619Y147658096D01*
X44529809Y147730667D01*
X44529809Y147779048D01*
X107775809Y148389858D02*
X107775809Y148075381D01*
X107969333Y148244715D01*
X107969333Y148172143D01*
X107993523Y148123762D01*
X108017714Y148099572D01*
X108066095Y148075381D01*
X108187047Y148075381D01*
X108235428Y148099572D01*
X108259619Y148123762D01*
X108283809Y148172143D01*
X108283809Y148317286D01*
X108259619Y148365667D01*
X108235428Y148389858D01*
X107775809Y147712524D02*
X108138666Y147712524D01*
X108211238Y147736715D01*
X108259619Y147785096D01*
X108283809Y147857667D01*
X108283809Y147906048D01*
X71248190Y148426143D02*
X71224000Y148401953D01*
X71199809Y148353572D01*
X71199809Y148232620D01*
X71224000Y148184239D01*
X71248190Y148160048D01*
X71296571Y148135858D01*
X71344952Y148135858D01*
X71417523Y148160048D01*
X71707809Y148450334D01*
X71707809Y148135858D01*
X71707809Y147918143D02*
X71199809Y147918143D01*
X71199809Y147797191D01*
X71224000Y147724620D01*
X71272380Y147676239D01*
X71320761Y147652048D01*
X71417523Y147627858D01*
X71490095Y147627858D01*
X71586857Y147652048D01*
X71635238Y147676239D01*
X71683619Y147724620D01*
X71707809Y147797191D01*
X71707809Y147918143D01*
X53673809Y143575953D02*
X53673809Y143866239D01*
X53673809Y143721096D02*
X53165809Y143721096D01*
X53238380Y143769477D01*
X53286761Y143817858D01*
X53310952Y143866239D01*
X53165809Y143261477D02*
X53165809Y143164715D01*
X53190000Y143116334D01*
X53238380Y143067953D01*
X53335142Y143043762D01*
X53504476Y143043762D01*
X53601238Y143067953D01*
X53649619Y143116334D01*
X53673809Y143164715D01*
X53673809Y143261477D01*
X53649619Y143309858D01*
X53601238Y143358239D01*
X53504476Y143382429D01*
X53335142Y143382429D01*
X53238380Y143358239D01*
X53190000Y143309858D01*
X53165809Y143261477D01*
X83313190Y143854143D02*
X83289000Y143829953D01*
X83264809Y143781572D01*
X83264809Y143660620D01*
X83289000Y143612239D01*
X83313190Y143588048D01*
X83361571Y143563858D01*
X83409952Y143563858D01*
X83482523Y143588048D01*
X83772809Y143878334D01*
X83772809Y143563858D01*
X83772809Y143346143D02*
X83264809Y143346143D01*
X83772809Y143055858D02*
X83482523Y143273572D01*
X83264809Y143055858D02*
X83555095Y143346143D01*
X110694809Y148429953D02*
X110694809Y148115477D01*
X110888333Y148284810D01*
X110888333Y148212239D01*
X110912523Y148163858D01*
X110936714Y148139667D01*
X110985095Y148115477D01*
X111106047Y148115477D01*
X111154428Y148139667D01*
X111178619Y148163858D01*
X111202809Y148212239D01*
X111202809Y148357381D01*
X111178619Y148405762D01*
X111154428Y148429953D01*
X111202809Y147655858D02*
X111202809Y147897762D01*
X110694809Y147897762D01*
X62817809Y143575953D02*
X62817809Y143866239D01*
X62817809Y143721096D02*
X62309809Y143721096D01*
X62382380Y143769477D01*
X62430761Y143817858D01*
X62454952Y143866239D01*
X62309809Y143358239D02*
X62721047Y143358239D01*
X62769428Y143334048D01*
X62793619Y143309858D01*
X62817809Y143261477D01*
X62817809Y143164715D01*
X62793619Y143116334D01*
X62769428Y143092143D01*
X62721047Y143067953D01*
X62309809Y143067953D01*
X122761809Y148317858D02*
X122761809Y148003381D01*
X122955333Y148172715D01*
X122955333Y148100143D01*
X122979523Y148051762D01*
X123003714Y148027572D01*
X123052095Y148003381D01*
X123173047Y148003381D01*
X123221428Y148027572D01*
X123245619Y148051762D01*
X123269809Y148100143D01*
X123269809Y148245286D01*
X123245619Y148293667D01*
X123221428Y148317858D01*
X122761809Y147858239D02*
X122761809Y147567953D01*
X123269809Y147713096D02*
X122761809Y147713096D01*
X47577809Y147960477D02*
X47577809Y148250762D01*
X47577809Y148105620D02*
X47069809Y148105620D01*
X47142380Y148154000D01*
X47190761Y148202381D01*
X47214952Y148250762D01*
X47577809Y147500858D02*
X47577809Y147742762D01*
X47069809Y147742762D01*
X74169190Y143829953D02*
X74145000Y143805762D01*
X74120809Y143757381D01*
X74120809Y143636429D01*
X74145000Y143588048D01*
X74169190Y143563858D01*
X74217571Y143539667D01*
X74265952Y143539667D01*
X74338523Y143563858D01*
X74628809Y143854143D01*
X74628809Y143539667D01*
X74362714Y143321953D02*
X74362714Y143152620D01*
X74628809Y143080048D02*
X74628809Y143321953D01*
X74120809Y143321953D01*
X74120809Y143080048D01*
X80265190Y143721096D02*
X80241000Y143696905D01*
X80216809Y143648524D01*
X80216809Y143527572D01*
X80241000Y143479191D01*
X80265190Y143455000D01*
X80313571Y143430810D01*
X80361952Y143430810D01*
X80434523Y143455000D01*
X80724809Y143745286D01*
X80724809Y143430810D01*
X80724809Y143213096D02*
X80216809Y143213096D01*
X74169190Y148389858D02*
X74145000Y148365667D01*
X74120809Y148317286D01*
X74120809Y148196334D01*
X74145000Y148147953D01*
X74169190Y148123762D01*
X74217571Y148099572D01*
X74265952Y148099572D01*
X74338523Y148123762D01*
X74628809Y148414048D01*
X74628809Y148099572D01*
X74362714Y147712524D02*
X74362714Y147881858D01*
X74628809Y147881858D02*
X74120809Y147881858D01*
X74120809Y147639953D01*
X95202809Y148450334D02*
X95202809Y148135858D01*
X95396333Y148305191D01*
X95396333Y148232620D01*
X95420523Y148184239D01*
X95444714Y148160048D01*
X95493095Y148135858D01*
X95614047Y148135858D01*
X95662428Y148160048D01*
X95686619Y148184239D01*
X95710809Y148232620D01*
X95710809Y148377762D01*
X95686619Y148426143D01*
X95662428Y148450334D01*
X95444714Y147748810D02*
X95468904Y147676239D01*
X95493095Y147652048D01*
X95541476Y147627858D01*
X95614047Y147627858D01*
X95662428Y147652048D01*
X95686619Y147676239D01*
X95710809Y147724620D01*
X95710809Y147918143D01*
X95202809Y147918143D01*
X95202809Y147748810D01*
X95227000Y147700429D01*
X95251190Y147676239D01*
X95299571Y147652048D01*
X95347952Y147652048D01*
X95396333Y147676239D01*
X95420523Y147700429D01*
X95444714Y147748810D01*
X95444714Y147918143D01*
X116792809Y148450334D02*
X116792809Y148135858D01*
X116986333Y148305191D01*
X116986333Y148232620D01*
X117010523Y148184239D01*
X117034714Y148160048D01*
X117083095Y148135858D01*
X117204047Y148135858D01*
X117252428Y148160048D01*
X117276619Y148184239D01*
X117300809Y148232620D01*
X117300809Y148377762D01*
X117276619Y148426143D01*
X117252428Y148450334D01*
X117300809Y147918143D02*
X116792809Y147918143D01*
X116792809Y147724620D01*
X116817000Y147676239D01*
X116841190Y147652048D01*
X116889571Y147627858D01*
X116962142Y147627858D01*
X117010523Y147652048D01*
X117034714Y147676239D01*
X117058904Y147724620D01*
X117058904Y147918143D01*
X98631809Y148450334D02*
X98631809Y148135858D01*
X98825333Y148305191D01*
X98825333Y148232620D01*
X98849523Y148184239D01*
X98873714Y148160048D01*
X98922095Y148135858D01*
X99043047Y148135858D01*
X99091428Y148160048D01*
X99115619Y148184239D01*
X99139809Y148232620D01*
X99139809Y148377762D01*
X99115619Y148426143D01*
X99091428Y148450334D01*
X99139809Y147918143D02*
X98631809Y147918143D01*
X98631809Y147797191D01*
X98656000Y147724620D01*
X98704380Y147676239D01*
X98752761Y147652048D01*
X98849523Y147627858D01*
X98922095Y147627858D01*
X99018857Y147652048D01*
X99067238Y147676239D01*
X99115619Y147724620D01*
X99139809Y147797191D01*
X99139809Y147918143D01*
X122634809Y143866239D02*
X122634809Y143551762D01*
X122828333Y143721096D01*
X122828333Y143648524D01*
X122852523Y143600143D01*
X122876714Y143575953D01*
X122925095Y143551762D01*
X123046047Y143551762D01*
X123094428Y143575953D01*
X123118619Y143600143D01*
X123142809Y143648524D01*
X123142809Y143793667D01*
X123118619Y143842048D01*
X123094428Y143866239D01*
X123118619Y143358239D02*
X123142809Y143285667D01*
X123142809Y143164715D01*
X123118619Y143116334D01*
X123094428Y143092143D01*
X123046047Y143067953D01*
X122997666Y143067953D01*
X122949285Y143092143D01*
X122925095Y143116334D01*
X122900904Y143164715D01*
X122876714Y143261477D01*
X122852523Y143309858D01*
X122828333Y143334048D01*
X122779952Y143358239D01*
X122731571Y143358239D01*
X122683190Y143334048D01*
X122659000Y143309858D01*
X122634809Y143261477D01*
X122634809Y143140524D01*
X122659000Y143067953D01*
X113744809Y143814620D02*
X113744809Y143500143D01*
X113938333Y143669477D01*
X113938333Y143596905D01*
X113962523Y143548524D01*
X113986714Y143524334D01*
X114035095Y143500143D01*
X114156047Y143500143D01*
X114204428Y143524334D01*
X114228619Y143548524D01*
X114252809Y143596905D01*
X114252809Y143742048D01*
X114228619Y143790429D01*
X114204428Y143814620D01*
X114252809Y143282429D02*
X113744809Y143282429D01*
X114107666Y143113096D01*
X113744809Y142943762D01*
X114252809Y142943762D01*
X101806809Y148414048D02*
X101806809Y148099572D01*
X102000333Y148268905D01*
X102000333Y148196334D01*
X102024523Y148147953D01*
X102048714Y148123762D01*
X102097095Y148099572D01*
X102218047Y148099572D01*
X102266428Y148123762D01*
X102290619Y148147953D01*
X102314809Y148196334D01*
X102314809Y148341477D01*
X102290619Y148389858D01*
X102266428Y148414048D01*
X102048714Y147712524D02*
X102048714Y147881858D01*
X102314809Y147881858D02*
X101806809Y147881858D01*
X101806809Y147639953D01*
X56721809Y148008858D02*
X56721809Y148299143D01*
X56721809Y148154000D02*
X56213809Y148154000D01*
X56286380Y148202381D01*
X56334761Y148250762D01*
X56358952Y148299143D01*
X56721809Y147500858D02*
X56479904Y147670191D01*
X56721809Y147791143D02*
X56213809Y147791143D01*
X56213809Y147597620D01*
X56238000Y147549239D01*
X56262190Y147525048D01*
X56310571Y147500858D01*
X56383142Y147500858D01*
X56431523Y147525048D01*
X56455714Y147549239D01*
X56479904Y147597620D01*
X56479904Y147791143D01*
X98758809Y143878334D02*
X98758809Y143563858D01*
X98952333Y143733191D01*
X98952333Y143660620D01*
X98976523Y143612239D01*
X99000714Y143588048D01*
X99049095Y143563858D01*
X99170047Y143563858D01*
X99218428Y143588048D01*
X99242619Y143612239D01*
X99266809Y143660620D01*
X99266809Y143805762D01*
X99242619Y143854143D01*
X99218428Y143878334D01*
X99218428Y143055858D02*
X99242619Y143080048D01*
X99266809Y143152620D01*
X99266809Y143201000D01*
X99242619Y143273572D01*
X99194238Y143321953D01*
X99145857Y143346143D01*
X99049095Y143370334D01*
X98976523Y143370334D01*
X98879761Y143346143D01*
X98831380Y143321953D01*
X98783000Y143273572D01*
X98758809Y143201000D01*
X98758809Y143152620D01*
X98783000Y143080048D01*
X98807190Y143055858D01*
X77217190Y148438239D02*
X77193000Y148414048D01*
X77168809Y148365667D01*
X77168809Y148244715D01*
X77193000Y148196334D01*
X77217190Y148172143D01*
X77265571Y148147953D01*
X77313952Y148147953D01*
X77386523Y148172143D01*
X77676809Y148462429D01*
X77676809Y148147953D01*
X77676809Y147930239D02*
X77168809Y147930239D01*
X77410714Y147930239D02*
X77410714Y147639953D01*
X77676809Y147639953D02*
X77168809Y147639953D01*
X71143190Y143854143D02*
X71119000Y143829953D01*
X71094809Y143781572D01*
X71094809Y143660620D01*
X71119000Y143612239D01*
X71143190Y143588048D01*
X71191571Y143563858D01*
X71239952Y143563858D01*
X71312523Y143588048D01*
X71602809Y143878334D01*
X71602809Y143563858D01*
X71554428Y143055858D02*
X71578619Y143080048D01*
X71602809Y143152620D01*
X71602809Y143201000D01*
X71578619Y143273572D01*
X71530238Y143321953D01*
X71481857Y143346143D01*
X71385095Y143370334D01*
X71312523Y143370334D01*
X71215761Y143346143D01*
X71167380Y143321953D01*
X71119000Y143273572D01*
X71094809Y143201000D01*
X71094809Y143152620D01*
X71119000Y143080048D01*
X71143190Y143055858D01*
X95202809Y143842048D02*
X95202809Y143527572D01*
X95396333Y143696905D01*
X95396333Y143624334D01*
X95420523Y143575953D01*
X95444714Y143551762D01*
X95493095Y143527572D01*
X95614047Y143527572D01*
X95662428Y143551762D01*
X95686619Y143575953D01*
X95710809Y143624334D01*
X95710809Y143769477D01*
X95686619Y143817858D01*
X95662428Y143842048D01*
X95565666Y143334048D02*
X95565666Y143092143D01*
X95710809Y143382429D02*
X95202809Y143213096D01*
X95710809Y143043762D01*
X129365809Y143914620D02*
X129365809Y143600143D01*
X129559333Y143769477D01*
X129559333Y143696905D01*
X129583523Y143648524D01*
X129607714Y143624334D01*
X129656095Y143600143D01*
X129777047Y143600143D01*
X129825428Y143624334D01*
X129849619Y143648524D01*
X129873809Y143696905D01*
X129873809Y143842048D01*
X129849619Y143890429D01*
X129825428Y143914620D01*
X129365809Y143430810D02*
X129873809Y143309858D01*
X129510952Y143213096D01*
X129873809Y143116334D01*
X129365809Y142995381D01*
X35385809Y143563858D02*
X35385809Y143854143D01*
X35385809Y143709000D02*
X34877809Y143709000D01*
X34950380Y143757381D01*
X34998761Y143805762D01*
X35022952Y143854143D01*
X35337428Y143055858D02*
X35361619Y143080048D01*
X35385809Y143152620D01*
X35385809Y143201000D01*
X35361619Y143273572D01*
X35313238Y143321953D01*
X35264857Y143346143D01*
X35168095Y143370334D01*
X35095523Y143370334D01*
X34998761Y143346143D01*
X34950380Y143321953D01*
X34902000Y143273572D01*
X34877809Y143201000D01*
X34877809Y143152620D01*
X34902000Y143080048D01*
X34926190Y143055858D01*
X113694809Y148390429D02*
X113694809Y148075953D01*
X113888333Y148245286D01*
X113888333Y148172715D01*
X113912523Y148124334D01*
X113936714Y148100143D01*
X113985095Y148075953D01*
X114106047Y148075953D01*
X114154428Y148100143D01*
X114178619Y148124334D01*
X114202809Y148172715D01*
X114202809Y148317858D01*
X114178619Y148366239D01*
X114154428Y148390429D01*
X114202809Y147858239D02*
X113694809Y147858239D01*
X114202809Y147567953D01*
X113694809Y147567953D01*
X59642809Y143551762D02*
X59642809Y143842048D01*
X59642809Y143696905D02*
X59134809Y143696905D01*
X59207380Y143745286D01*
X59255761Y143793667D01*
X59279952Y143842048D01*
X59618619Y143358239D02*
X59642809Y143285667D01*
X59642809Y143164715D01*
X59618619Y143116334D01*
X59594428Y143092143D01*
X59546047Y143067953D01*
X59497666Y143067953D01*
X59449285Y143092143D01*
X59425095Y143116334D01*
X59400904Y143164715D01*
X59376714Y143261477D01*
X59352523Y143309858D01*
X59328333Y143334048D01*
X59279952Y143358239D01*
X59231571Y143358239D01*
X59183190Y143334048D01*
X59159000Y143309858D01*
X59134809Y143261477D01*
X59134809Y143140524D01*
X59159000Y143067953D01*
X86234190Y143890429D02*
X86210000Y143866239D01*
X86185809Y143817858D01*
X86185809Y143696905D01*
X86210000Y143648524D01*
X86234190Y143624334D01*
X86282571Y143600143D01*
X86330952Y143600143D01*
X86403523Y143624334D01*
X86693809Y143914620D01*
X86693809Y143600143D01*
X86693809Y143382429D02*
X86185809Y143382429D01*
X86548666Y143213096D01*
X86185809Y143043762D01*
X86693809Y143043762D01*
X132794809Y148438239D02*
X132794809Y148123762D01*
X132988333Y148293096D01*
X132988333Y148220524D01*
X133012523Y148172143D01*
X133036714Y148147953D01*
X133085095Y148123762D01*
X133206047Y148123762D01*
X133254428Y148147953D01*
X133278619Y148172143D01*
X133302809Y148220524D01*
X133302809Y148365667D01*
X133278619Y148414048D01*
X133254428Y148438239D01*
X132794809Y147954429D02*
X132794809Y147615762D01*
X133302809Y147954429D01*
X133302809Y147615762D01*
X77217190Y143854143D02*
X77193000Y143829953D01*
X77168809Y143781572D01*
X77168809Y143660620D01*
X77193000Y143612239D01*
X77217190Y143588048D01*
X77265571Y143563858D01*
X77313952Y143563858D01*
X77386523Y143588048D01*
X77676809Y143878334D01*
X77676809Y143563858D01*
X77193000Y143080048D02*
X77168809Y143128429D01*
X77168809Y143201000D01*
X77193000Y143273572D01*
X77241380Y143321953D01*
X77289761Y143346143D01*
X77386523Y143370334D01*
X77459095Y143370334D01*
X77555857Y143346143D01*
X77604238Y143321953D01*
X77652619Y143273572D01*
X77676809Y143201000D01*
X77676809Y143152620D01*
X77652619Y143080048D01*
X77628428Y143055858D01*
X77459095Y143055858D01*
X77459095Y143152620D01*
X50625809Y148020953D02*
X50625809Y148311239D01*
X50625809Y148166096D02*
X50117809Y148166096D01*
X50190380Y148214477D01*
X50238761Y148262858D01*
X50262952Y148311239D01*
X50625809Y147803239D02*
X50117809Y147803239D01*
X50625809Y147512953D01*
X50117809Y147512953D01*
X110823809Y143878334D02*
X110823809Y143563858D01*
X111017333Y143733191D01*
X111017333Y143660620D01*
X111041523Y143612239D01*
X111065714Y143588048D01*
X111114095Y143563858D01*
X111235047Y143563858D01*
X111283428Y143588048D01*
X111307619Y143612239D01*
X111331809Y143660620D01*
X111331809Y143805762D01*
X111307619Y143854143D01*
X111283428Y143878334D01*
X111331809Y143346143D02*
X110823809Y143346143D01*
X111331809Y143055858D02*
X111041523Y143273572D01*
X110823809Y143055858D02*
X111114095Y143346143D01*
X129365809Y148438239D02*
X129365809Y148123762D01*
X129559333Y148293096D01*
X129559333Y148220524D01*
X129583523Y148172143D01*
X129607714Y148147953D01*
X129656095Y148123762D01*
X129777047Y148123762D01*
X129825428Y148147953D01*
X129849619Y148172143D01*
X129873809Y148220524D01*
X129873809Y148365667D01*
X129849619Y148414048D01*
X129825428Y148438239D01*
X129365809Y147954429D02*
X129873809Y147615762D01*
X129365809Y147615762D02*
X129873809Y147954429D01*
X89282190Y143866239D02*
X89258000Y143842048D01*
X89233809Y143793667D01*
X89233809Y143672715D01*
X89258000Y143624334D01*
X89282190Y143600143D01*
X89330571Y143575953D01*
X89378952Y143575953D01*
X89451523Y143600143D01*
X89741809Y143890429D01*
X89741809Y143575953D01*
X89233809Y143261477D02*
X89233809Y143164715D01*
X89258000Y143116334D01*
X89306380Y143067953D01*
X89403142Y143043762D01*
X89572476Y143043762D01*
X89669238Y143067953D01*
X89717619Y143116334D01*
X89741809Y143164715D01*
X89741809Y143261477D01*
X89717619Y143309858D01*
X89669238Y143358239D01*
X89572476Y143382429D01*
X89403142Y143382429D01*
X89306380Y143358239D01*
X89258000Y143309858D01*
X89233809Y143261477D01*
X68143190Y143817858D02*
X68119000Y143793667D01*
X68094809Y143745286D01*
X68094809Y143624334D01*
X68119000Y143575953D01*
X68143190Y143551762D01*
X68191571Y143527572D01*
X68239952Y143527572D01*
X68312523Y143551762D01*
X68602809Y143842048D01*
X68602809Y143527572D01*
X68457666Y143334048D02*
X68457666Y143092143D01*
X68602809Y143382429D02*
X68094809Y143213096D01*
X68602809Y143043762D01*
X50625809Y143600143D02*
X50625809Y143890429D01*
X50625809Y143745286D02*
X50117809Y143745286D01*
X50190380Y143793667D01*
X50238761Y143842048D01*
X50262952Y143890429D01*
X50625809Y143382429D02*
X50117809Y143382429D01*
X50480666Y143213096D01*
X50117809Y143043762D01*
X50625809Y143043762D01*
X38560809Y147972572D02*
X38560809Y148262858D01*
X38560809Y148117715D02*
X38052809Y148117715D01*
X38125380Y148166096D01*
X38173761Y148214477D01*
X38197952Y148262858D01*
X38294714Y147585524D02*
X38294714Y147754858D01*
X38560809Y147754858D02*
X38052809Y147754858D01*
X38052809Y147512953D01*
X38560809Y143539667D02*
X38560809Y143829953D01*
X38560809Y143684810D02*
X38052809Y143684810D01*
X38125380Y143733191D01*
X38173761Y143781572D01*
X38197952Y143829953D01*
X38294714Y143321953D02*
X38294714Y143152620D01*
X38560809Y143080048D02*
X38560809Y143321953D01*
X38052809Y143321953D01*
X38052809Y143080048D01*
X104727809Y143878334D02*
X104727809Y143563858D01*
X104921333Y143733191D01*
X104921333Y143660620D01*
X104945523Y143612239D01*
X104969714Y143588048D01*
X105018095Y143563858D01*
X105139047Y143563858D01*
X105187428Y143588048D01*
X105211619Y143612239D01*
X105235809Y143660620D01*
X105235809Y143805762D01*
X105211619Y143854143D01*
X105187428Y143878334D01*
X104752000Y143080048D02*
X104727809Y143128429D01*
X104727809Y143201000D01*
X104752000Y143273572D01*
X104800380Y143321953D01*
X104848761Y143346143D01*
X104945523Y143370334D01*
X105018095Y143370334D01*
X105114857Y143346143D01*
X105163238Y143321953D01*
X105211619Y143273572D01*
X105235809Y143201000D01*
X105235809Y143152620D01*
X105211619Y143080048D01*
X105187428Y143055858D01*
X105018095Y143055858D01*
X105018095Y143152620D01*
X104727809Y148462429D02*
X104727809Y148147953D01*
X104921333Y148317286D01*
X104921333Y148244715D01*
X104945523Y148196334D01*
X104969714Y148172143D01*
X105018095Y148147953D01*
X105139047Y148147953D01*
X105187428Y148172143D01*
X105211619Y148196334D01*
X105235809Y148244715D01*
X105235809Y148389858D01*
X105211619Y148438239D01*
X105187428Y148462429D01*
X105235809Y147930239D02*
X104727809Y147930239D01*
X104969714Y147930239D02*
X104969714Y147639953D01*
X105235809Y147639953D02*
X104727809Y147639953D01*
X107775809Y143745286D02*
X107775809Y143430810D01*
X107969333Y143600143D01*
X107969333Y143527572D01*
X107993523Y143479191D01*
X108017714Y143455000D01*
X108066095Y143430810D01*
X108187047Y143430810D01*
X108235428Y143455000D01*
X108259619Y143479191D01*
X108283809Y143527572D01*
X108283809Y143672715D01*
X108259619Y143721096D01*
X108235428Y143745286D01*
X108283809Y143213096D02*
X107775809Y143213096D01*
X41608809Y143563858D02*
X41608809Y143854143D01*
X41608809Y143709000D02*
X41100809Y143709000D01*
X41173380Y143757381D01*
X41221761Y143805762D01*
X41245952Y143854143D01*
X41125000Y143080048D02*
X41100809Y143128429D01*
X41100809Y143201000D01*
X41125000Y143273572D01*
X41173380Y143321953D01*
X41221761Y143346143D01*
X41318523Y143370334D01*
X41391095Y143370334D01*
X41487857Y143346143D01*
X41536238Y143321953D01*
X41584619Y143273572D01*
X41608809Y143201000D01*
X41608809Y143152620D01*
X41584619Y143080048D01*
X41560428Y143055858D01*
X41391095Y143055858D01*
X41391095Y143152620D01*
X53673809Y148008858D02*
X53673809Y148299143D01*
X53673809Y148154000D02*
X53165809Y148154000D01*
X53238380Y148202381D01*
X53286761Y148250762D01*
X53310952Y148299143D01*
X53673809Y147791143D02*
X53165809Y147791143D01*
X53165809Y147597620D01*
X53190000Y147549239D01*
X53214190Y147525048D01*
X53262571Y147500858D01*
X53335142Y147500858D01*
X53383523Y147525048D01*
X53407714Y147549239D01*
X53431904Y147597620D01*
X53431904Y147791143D01*
X125809809Y148414048D02*
X125809809Y148099572D01*
X126003333Y148268905D01*
X126003333Y148196334D01*
X126027523Y148147953D01*
X126051714Y148123762D01*
X126100095Y148099572D01*
X126221047Y148099572D01*
X126269428Y148123762D01*
X126293619Y148147953D01*
X126317809Y148196334D01*
X126317809Y148341477D01*
X126293619Y148389858D01*
X126269428Y148414048D01*
X125809809Y147954429D02*
X126317809Y147785096D01*
X125809809Y147615762D01*
X44656809Y143430810D02*
X44656809Y143721096D01*
X44656809Y143575953D02*
X44148809Y143575953D01*
X44221380Y143624334D01*
X44269761Y143672715D01*
X44293952Y143721096D01*
X44656809Y143213096D02*
X44148809Y143213096D01*
X119794809Y148378334D02*
X119794809Y148063858D01*
X119988333Y148233191D01*
X119988333Y148160620D01*
X120012523Y148112239D01*
X120036714Y148088048D01*
X120085095Y148063858D01*
X120206047Y148063858D01*
X120254428Y148088048D01*
X120278619Y148112239D01*
X120302809Y148160620D01*
X120302809Y148305762D01*
X120278619Y148354143D01*
X120254428Y148378334D01*
X120302809Y147555858D02*
X120060904Y147725191D01*
X120302809Y147846143D02*
X119794809Y147846143D01*
X119794809Y147652620D01*
X119819000Y147604239D01*
X119843190Y147580048D01*
X119891571Y147555858D01*
X119964142Y147555858D01*
X120012523Y147580048D01*
X120036714Y147604239D01*
X120060904Y147652620D01*
X120060904Y147846143D01*
X31702809Y143527572D02*
X31702809Y143817858D01*
X31702809Y143672715D02*
X31194809Y143672715D01*
X31267380Y143721096D01*
X31315761Y143769477D01*
X31339952Y143817858D01*
X31557666Y143334048D02*
X31557666Y143092143D01*
X31702809Y143382429D02*
X31194809Y143213096D01*
X31702809Y143043762D01*
X59769809Y147948381D02*
X59769809Y148238667D01*
X59769809Y148093524D02*
X59261809Y148093524D01*
X59334380Y148141905D01*
X59382761Y148190286D01*
X59406952Y148238667D01*
X59261809Y147803239D02*
X59261809Y147512953D01*
X59769809Y147658096D02*
X59261809Y147658096D01*
X31829809Y148008858D02*
X31829809Y148299143D01*
X31829809Y148154000D02*
X31321809Y148154000D01*
X31394380Y148202381D01*
X31442761Y148250762D01*
X31466952Y148299143D01*
X31563714Y147621810D02*
X31587904Y147549239D01*
X31612095Y147525048D01*
X31660476Y147500858D01*
X31733047Y147500858D01*
X31781428Y147525048D01*
X31805619Y147549239D01*
X31829809Y147597620D01*
X31829809Y147791143D01*
X31321809Y147791143D01*
X31321809Y147621810D01*
X31346000Y147573429D01*
X31370190Y147549239D01*
X31418571Y147525048D01*
X31466952Y147525048D01*
X31515333Y147549239D01*
X31539523Y147573429D01*
X31563714Y147621810D01*
X31563714Y147791143D01*
X62817809Y147972572D02*
X62817809Y148262858D01*
X62817809Y148117715D02*
X62309809Y148117715D01*
X62382380Y148166096D01*
X62430761Y148214477D01*
X62454952Y148262858D01*
X62309809Y147827429D02*
X62817809Y147658096D01*
X62309809Y147488762D01*
X119713809Y143890429D02*
X119713809Y143575953D01*
X119907333Y143745286D01*
X119907333Y143672715D01*
X119931523Y143624334D01*
X119955714Y143600143D01*
X120004095Y143575953D01*
X120125047Y143575953D01*
X120173428Y143600143D01*
X120197619Y143624334D01*
X120221809Y143672715D01*
X120221809Y143817858D01*
X120197619Y143866239D01*
X120173428Y143890429D01*
X120270190Y143019572D02*
X120246000Y143067953D01*
X120197619Y143116334D01*
X120125047Y143188905D01*
X120100857Y143237286D01*
X120100857Y143285667D01*
X120221809Y143261477D02*
X120197619Y143309858D01*
X120149238Y143358239D01*
X120052476Y143382429D01*
X119883142Y143382429D01*
X119786380Y143358239D01*
X119738000Y143309858D01*
X119713809Y143261477D01*
X119713809Y143164715D01*
X119738000Y143116334D01*
X119786380Y143067953D01*
X119883142Y143043762D01*
X120052476Y143043762D01*
X120149238Y143067953D01*
X120197619Y143116334D01*
X120221809Y143164715D01*
X120221809Y143261477D01*
X125809809Y143890429D02*
X125809809Y143575953D01*
X126003333Y143745286D01*
X126003333Y143672715D01*
X126027523Y143624334D01*
X126051714Y143600143D01*
X126100095Y143575953D01*
X126221047Y143575953D01*
X126269428Y143600143D01*
X126293619Y143624334D01*
X126317809Y143672715D01*
X126317809Y143817858D01*
X126293619Y143866239D01*
X126269428Y143890429D01*
X125809809Y143358239D02*
X126221047Y143358239D01*
X126269428Y143334048D01*
X126293619Y143309858D01*
X126317809Y143261477D01*
X126317809Y143164715D01*
X126293619Y143116334D01*
X126269428Y143092143D01*
X126221047Y143067953D01*
X125809809Y143067953D01*
X89282190Y148426143D02*
X89258000Y148401953D01*
X89233809Y148353572D01*
X89233809Y148232620D01*
X89258000Y148184239D01*
X89282190Y148160048D01*
X89330571Y148135858D01*
X89378952Y148135858D01*
X89451523Y148160048D01*
X89741809Y148450334D01*
X89741809Y148135858D01*
X89741809Y147918143D02*
X89233809Y147918143D01*
X89233809Y147724620D01*
X89258000Y147676239D01*
X89282190Y147652048D01*
X89330571Y147627858D01*
X89403142Y147627858D01*
X89451523Y147652048D01*
X89475714Y147676239D01*
X89499904Y147724620D01*
X89499904Y147918143D01*
X116792809Y143890429D02*
X116792809Y143575953D01*
X116986333Y143745286D01*
X116986333Y143672715D01*
X117010523Y143624334D01*
X117034714Y143600143D01*
X117083095Y143575953D01*
X117204047Y143575953D01*
X117252428Y143600143D01*
X117276619Y143624334D01*
X117300809Y143672715D01*
X117300809Y143817858D01*
X117276619Y143866239D01*
X117252428Y143890429D01*
X116792809Y143261477D02*
X116792809Y143164715D01*
X116817000Y143116334D01*
X116865380Y143067953D01*
X116962142Y143043762D01*
X117131476Y143043762D01*
X117228238Y143067953D01*
X117276619Y143116334D01*
X117300809Y143164715D01*
X117300809Y143261477D01*
X117276619Y143309858D01*
X117228238Y143358239D01*
X117131476Y143382429D01*
X116962142Y143382429D01*
X116865380Y143358239D01*
X116817000Y143309858D01*
X116792809Y143261477D01*
X68243190Y148354143D02*
X68219000Y148329953D01*
X68194809Y148281572D01*
X68194809Y148160620D01*
X68219000Y148112239D01*
X68243190Y148088048D01*
X68291571Y148063858D01*
X68339952Y148063858D01*
X68412523Y148088048D01*
X68702809Y148378334D01*
X68702809Y148063858D01*
X68436714Y147676810D02*
X68460904Y147604239D01*
X68485095Y147580048D01*
X68533476Y147555858D01*
X68606047Y147555858D01*
X68654428Y147580048D01*
X68678619Y147604239D01*
X68702809Y147652620D01*
X68702809Y147846143D01*
X68194809Y147846143D01*
X68194809Y147676810D01*
X68219000Y147628429D01*
X68243190Y147604239D01*
X68291571Y147580048D01*
X68339952Y147580048D01*
X68388333Y147604239D01*
X68412523Y147628429D01*
X68436714Y147676810D01*
X68436714Y147846143D01*
X41608809Y148020953D02*
X41608809Y148311239D01*
X41608809Y148166096D02*
X41100809Y148166096D01*
X41173380Y148214477D01*
X41221761Y148262858D01*
X41245952Y148311239D01*
X41608809Y147803239D02*
X41100809Y147803239D01*
X41342714Y147803239D02*
X41342714Y147512953D01*
X41608809Y147512953D02*
X41100809Y147512953D01*
X86234190Y148438239D02*
X86210000Y148414048D01*
X86185809Y148365667D01*
X86185809Y148244715D01*
X86210000Y148196334D01*
X86234190Y148172143D01*
X86282571Y148147953D01*
X86330952Y148147953D01*
X86403523Y148172143D01*
X86693809Y148462429D01*
X86693809Y148147953D01*
X86693809Y147930239D02*
X86185809Y147930239D01*
X86693809Y147639953D01*
X86185809Y147639953D01*
X83313190Y148377762D02*
X83289000Y148353572D01*
X83264809Y148305191D01*
X83264809Y148184239D01*
X83289000Y148135858D01*
X83313190Y148111667D01*
X83361571Y148087477D01*
X83409952Y148087477D01*
X83482523Y148111667D01*
X83772809Y148401953D01*
X83772809Y148087477D01*
X83772809Y147627858D02*
X83772809Y147869762D01*
X83264809Y147869762D01*
X35385809Y148008858D02*
X35385809Y148299143D01*
X35385809Y148154000D02*
X34877809Y148154000D01*
X34950380Y148202381D01*
X34998761Y148250762D01*
X35022952Y148299143D01*
X35385809Y147791143D02*
X34877809Y147791143D01*
X34877809Y147670191D01*
X34902000Y147597620D01*
X34950380Y147549239D01*
X34998761Y147525048D01*
X35095523Y147500858D01*
X35168095Y147500858D01*
X35264857Y147525048D01*
X35313238Y147549239D01*
X35361619Y147597620D01*
X35385809Y147670191D01*
X35385809Y147791143D01*
X47577809Y143563858D02*
X47577809Y143854143D01*
X47577809Y143709000D02*
X47069809Y143709000D01*
X47142380Y143757381D01*
X47190761Y143805762D01*
X47214952Y143854143D01*
X47577809Y143346143D02*
X47069809Y143346143D01*
X47577809Y143055858D02*
X47287523Y143273572D01*
X47069809Y143055858D02*
X47360095Y143346143D01*
X101806809Y143854143D02*
X101806809Y143539667D01*
X102000333Y143709000D01*
X102000333Y143636429D01*
X102024523Y143588048D01*
X102048714Y143563858D01*
X102097095Y143539667D01*
X102218047Y143539667D01*
X102266428Y143563858D01*
X102290619Y143588048D01*
X102314809Y143636429D01*
X102314809Y143781572D01*
X102290619Y143829953D01*
X102266428Y143854143D01*
X102048714Y143321953D02*
X102048714Y143152620D01*
X102314809Y143080048D02*
X102314809Y143321953D01*
X101806809Y143321953D01*
X101806809Y143080048D01*
X56721809Y143575953D02*
X56721809Y143866239D01*
X56721809Y143721096D02*
X56213809Y143721096D01*
X56286380Y143769477D01*
X56334761Y143817858D01*
X56358952Y143866239D01*
X56770190Y143019572D02*
X56746000Y143067953D01*
X56697619Y143116334D01*
X56625047Y143188905D01*
X56600857Y143237286D01*
X56600857Y143285667D01*
X56721809Y143261477D02*
X56697619Y143309858D01*
X56649238Y143358239D01*
X56552476Y143382429D01*
X56383142Y143382429D01*
X56286380Y143358239D01*
X56238000Y143309858D01*
X56213809Y143261477D01*
X56213809Y143164715D01*
X56238000Y143116334D01*
X56286380Y143067953D01*
X56383142Y143043762D01*
X56552476Y143043762D01*
X56649238Y143067953D01*
X56697619Y143116334D01*
X56721809Y143164715D01*
X56721809Y143261477D01*
D11*
G04 #@! TO.C,M4*
X75891859Y10114690D02*
X90343217Y10114690D01*
X90343217Y10114693D02*
X90343217Y12625081D01*
X91091861Y12625081D02*
X91091861Y25189689D01*
X72241861Y22889694D02*
X72241861Y25389691D01*
X72241861Y22889694D02*
X75441857Y22889694D01*
X75891859Y10114690D02*
X75891859Y22439692D01*
X72241861Y25389691D02*
X90891859Y25389691D01*
X90343217Y12625081D02*
X91091861Y12625081D01*
X75441857Y22889694D02*
X75891859Y22439692D01*
G04 #@! TO.C,M9*
X107409785Y95613404D02*
X89134785Y95613404D01*
X100659786Y92038405D02*
X99934786Y91313405D01*
X89134785Y95613404D02*
X89134785Y92038405D01*
X107409785Y95613404D02*
X107409785Y92038405D01*
X107409785Y92038405D02*
X100659786Y92038405D01*
X94334782Y91313405D02*
X93609782Y92038405D01*
X93609782Y92038405D02*
X89134785Y92038405D01*
X99934786Y91313405D02*
X94334782Y91313405D01*
G04 #@! TO.C,M5*
X57613316Y61837664D02*
X57613316Y37087665D01*
X30021286Y78345635D02*
X29638315Y77962664D01*
X29638315Y77962664D02*
X29638315Y35987665D01*
X30113315Y35512665D02*
X29638315Y35987665D01*
X57613316Y37087665D02*
X56038315Y35512665D01*
X57748861Y78102120D02*
X57748861Y61973209D01*
X56038315Y35512665D02*
X30113315Y35512665D01*
X57748861Y61973209D02*
X57613316Y61837664D01*
X57505346Y78345635D02*
X30021286Y78345635D01*
X57748861Y78102120D02*
X57505346Y78345635D01*
G04 #@! TO.C,M8*
X59432368Y110269562D02*
X59157362Y109994558D01*
X58282363Y109938356D02*
X58282363Y99094562D01*
X59432368Y110269562D02*
X65130190Y110269562D01*
X65130190Y110269562D02*
X65169037Y99094562D01*
X58332363Y109994558D02*
X58282363Y109938356D01*
X58332363Y109994558D02*
X59157362Y109994558D01*
X58276160Y99094562D02*
X65169037Y99094562D01*
G04 #@! TO.C,M7*
X46927363Y34095801D02*
X46953769Y34122207D01*
X46927365Y17538793D02*
X46927363Y34095801D01*
X57328414Y17614843D02*
X57328414Y33962743D01*
X57328414Y33962743D02*
X57194353Y34096804D01*
X57194353Y34096804D02*
X46953769Y34122207D01*
X55802364Y16088793D02*
X48377365Y16088793D01*
X55802364Y16088793D02*
X57328414Y17614843D01*
X48377365Y16088793D02*
X46927365Y17538793D01*
G04 #@! TO.C,M1*
X85635960Y66804681D02*
X85135960Y67304681D01*
X115935958Y79729684D02*
X114385958Y81279684D01*
X115535953Y66804678D02*
X85635960Y66804681D01*
X86060958Y81279684D02*
X85135960Y80354687D01*
X115935958Y67204683D02*
X115535953Y66804678D01*
X114385958Y81279684D02*
X86055960Y81279684D01*
X85135960Y80354687D02*
X85135960Y67304681D01*
X115935958Y79729684D02*
X115935958Y67204683D01*
G04 #@! TO.C,M3*
X71491861Y27708503D02*
X69966859Y27708503D01*
X70085086Y64157510D02*
X69742651Y63815075D01*
X116066864Y27496141D02*
X115579227Y27008503D01*
X116066864Y27496141D02*
X116066861Y63588426D01*
X72191859Y27008503D02*
X71491861Y27708503D01*
X69742659Y27932703D02*
X69742651Y63815075D01*
X116066861Y63588426D02*
X115497772Y64157515D01*
X115497772Y64157515D02*
X70085086Y64157510D01*
X69966859Y27708503D02*
X69742659Y27932703D01*
X115579227Y27008503D02*
X72191859Y27008503D01*
G04 #@! TO.C,M10*
X29026710Y127053864D02*
X24626708Y127053864D01*
X30101709Y128128863D02*
X30101709Y137203864D01*
X14576708Y121028865D02*
X14576708Y137203864D01*
X23876745Y126303901D02*
X24626708Y127053864D01*
X29026710Y127053864D02*
X30101709Y128128863D01*
X30101709Y137203864D02*
X14576708Y137203864D01*
X23751711Y121028865D02*
X23876745Y121153899D01*
X23751711Y121028865D02*
X14576708Y121028865D01*
X23876745Y121153899D02*
X23876745Y126303901D01*
G04 #@! TO.C,M12*
X66625700Y138307060D02*
X81525700Y138307060D01*
X81525700Y138307060D02*
X81525700Y99157060D01*
X81525700Y99157060D02*
X66625700Y99157060D01*
X66625700Y99157060D02*
X66625700Y138307060D01*
G04 #@! TO.C,M6*
X110716857Y25473217D02*
X110660655Y25523217D01*
X110991861Y18675390D02*
X99816861Y18636543D01*
X110991861Y24373212D02*
X110991861Y18675390D01*
X110660655Y25523217D02*
X99816861Y25523217D01*
X110716857Y25473217D02*
X110716857Y24648218D01*
X110991861Y24373212D02*
X110716857Y24648218D01*
X99816861Y25529420D02*
X99816861Y18636543D01*
G04 #@! TO.C,M2*
X125974470Y39166355D02*
X125724470Y39416354D01*
X125612822Y25743026D02*
X119874472Y25743026D01*
X119124471Y27091736D02*
X118124470Y27091736D01*
X119874472Y26341735D02*
X119874472Y25743026D01*
X118124470Y39166736D02*
X118124470Y27091736D01*
X125974470Y39166355D02*
X125974470Y26104674D01*
X125724470Y39416354D02*
X118374089Y39416354D01*
X119874472Y26341735D02*
X119124471Y27091736D01*
X118374089Y39416354D02*
X118124470Y39166736D01*
X125974470Y26104674D02*
X125612822Y25743026D01*
G04 #@! TO.C,M11*
X21823460Y77687499D02*
X21823460Y115337497D01*
X16098455Y108462502D02*
X16098455Y111087503D01*
X21823460Y77687499D02*
X14573640Y77687499D01*
X21223459Y116462491D02*
X20573453Y117112497D01*
X14573640Y77687499D02*
X14648118Y117112497D01*
X21223459Y115937499D02*
X21223459Y116462491D01*
X21823460Y115337497D02*
X21223459Y115937499D01*
X20573453Y117112497D02*
X14648118Y117112497D01*
G04 #@! TD*
M02*
