G04 #@! TF.GenerationSoftware,KiCad,Pcbnew,(5.99.0-10192-g8d0191151d)*
G04 #@! TF.CreationDate,2021-04-16T20:15:54+03:00*
G04 #@! TF.ProjectId,hellen64_miataNA6_94,68656c6c-656e-4363-945f-6d696174614e,R0.4*
G04 #@! TF.SameCoordinates,PX1406f40PYa852d20*
G04 #@! TF.FileFunction,Paste,Top*
G04 #@! TF.FilePolarity,Positive*
%FSLAX46Y46*%
G04 Gerber Fmt 4.6, Leading zero omitted, Abs format (unit mm)*
G04 Created by KiCad (PCBNEW (5.99.0-10192-g8d0191151d)) date 2021-04-16 20:15:54*
%MOMM*%
%LPD*%
G01*
G04 APERTURE LIST*
%ADD10O,0.000001X0.000001*%
%ADD11R,1.200000X2.500000*%
%ADD12R,0.375000X0.350000*%
%ADD13R,0.350000X0.375000*%
%ADD14R,2.600000X3.600000*%
G04 APERTURE END LIST*
G04 #@! TO.C,R23*
G36*
G01*
X52161360Y120410880D02*
X52161360Y121190880D01*
G75*
G02*
X52231360Y121260880I70000J0D01*
G01*
X52791360Y121260880D01*
G75*
G02*
X52861360Y121190880I0J-70000D01*
G01*
X52861360Y120410880D01*
G75*
G02*
X52791360Y120340880I-70000J0D01*
G01*
X52231360Y120340880D01*
G75*
G02*
X52161360Y120410880I0J70000D01*
G01*
G37*
G36*
G01*
X53761360Y120410880D02*
X53761360Y121190880D01*
G75*
G02*
X53831360Y121260880I70000J0D01*
G01*
X54391360Y121260880D01*
G75*
G02*
X54461360Y121190880I0J-70000D01*
G01*
X54461360Y120410880D01*
G75*
G02*
X54391360Y120340880I-70000J0D01*
G01*
X53831360Y120340880D01*
G75*
G02*
X53761360Y120410880I0J70000D01*
G01*
G37*
G04 #@! TD*
G04 #@! TO.C,R22*
G36*
G01*
X113460960Y117705000D02*
X113460960Y118485000D01*
G75*
G02*
X113530960Y118555000I70000J0D01*
G01*
X114090960Y118555000D01*
G75*
G02*
X114160960Y118485000I0J-70000D01*
G01*
X114160960Y117705000D01*
G75*
G02*
X114090960Y117635000I-70000J0D01*
G01*
X113530960Y117635000D01*
G75*
G02*
X113460960Y117705000I0J70000D01*
G01*
G37*
G36*
G01*
X115060960Y117705000D02*
X115060960Y118485000D01*
G75*
G02*
X115130960Y118555000I70000J0D01*
G01*
X115690960Y118555000D01*
G75*
G02*
X115760960Y118485000I0J-70000D01*
G01*
X115760960Y117705000D01*
G75*
G02*
X115690960Y117635000I-70000J0D01*
G01*
X115130960Y117635000D01*
G75*
G02*
X115060960Y117705000I0J70000D01*
G01*
G37*
G04 #@! TD*
G04 #@! TO.C,R21*
G36*
G01*
X109800960Y117100001D02*
X109020960Y117100001D01*
G75*
G02*
X108950960Y117170001I0J70000D01*
G01*
X108950960Y117730001D01*
G75*
G02*
X109020960Y117800001I70000J0D01*
G01*
X109800960Y117800001D01*
G75*
G02*
X109870960Y117730001I0J-70000D01*
G01*
X109870960Y117170001D01*
G75*
G02*
X109800960Y117100001I-70000J0D01*
G01*
G37*
G36*
G01*
X109800960Y118700001D02*
X109020960Y118700001D01*
G75*
G02*
X108950960Y118770001I0J70000D01*
G01*
X108950960Y119330001D01*
G75*
G02*
X109020960Y119400001I70000J0D01*
G01*
X109800960Y119400001D01*
G75*
G02*
X109870960Y119330001I0J-70000D01*
G01*
X109870960Y118770001D01*
G75*
G02*
X109800960Y118700001I-70000J0D01*
G01*
G37*
G04 #@! TD*
D10*
G04 #@! TO.C,M4*
X90066859Y11639724D03*
X82316867Y25189707D03*
X83086861Y10364690D03*
G04 #@! TD*
G04 #@! TO.C,R8*
G36*
G01*
X80136360Y75965880D02*
X80136360Y76635880D01*
G75*
G02*
X80201360Y76700880I65000J0D01*
G01*
X80721360Y76700880D01*
G75*
G02*
X80786360Y76635880I0J-65000D01*
G01*
X80786360Y75965880D01*
G75*
G02*
X80721360Y75900880I-65000J0D01*
G01*
X80201360Y75900880D01*
G75*
G02*
X80136360Y75965880I0J65000D01*
G01*
G37*
G36*
G01*
X81111360Y75945880D02*
X81111360Y76655880D01*
G75*
G02*
X81156360Y76700880I45000J0D01*
G01*
X81516360Y76700880D01*
G75*
G02*
X81561360Y76655880I0J-45000D01*
G01*
X81561360Y75945880D01*
G75*
G02*
X81516360Y75900880I-45000J0D01*
G01*
X81156360Y75900880D01*
G75*
G02*
X81111360Y75945880I0J45000D01*
G01*
G37*
G36*
G01*
X81911360Y75945880D02*
X81911360Y76655880D01*
G75*
G02*
X81956360Y76700880I45000J0D01*
G01*
X82316360Y76700880D01*
G75*
G02*
X82361360Y76655880I0J-45000D01*
G01*
X82361360Y75945880D01*
G75*
G02*
X82316360Y75900880I-45000J0D01*
G01*
X81956360Y75900880D01*
G75*
G02*
X81911360Y75945880I0J45000D01*
G01*
G37*
G36*
G01*
X82686360Y75965880D02*
X82686360Y76635880D01*
G75*
G02*
X82751360Y76700880I65000J0D01*
G01*
X83271360Y76700880D01*
G75*
G02*
X83336360Y76635880I0J-65000D01*
G01*
X83336360Y75965880D01*
G75*
G02*
X83271360Y75900880I-65000J0D01*
G01*
X82751360Y75900880D01*
G75*
G02*
X82686360Y75965880I0J65000D01*
G01*
G37*
G36*
G01*
X82686360Y77765880D02*
X82686360Y78435880D01*
G75*
G02*
X82751360Y78500880I65000J0D01*
G01*
X83271360Y78500880D01*
G75*
G02*
X83336360Y78435880I0J-65000D01*
G01*
X83336360Y77765880D01*
G75*
G02*
X83271360Y77700880I-65000J0D01*
G01*
X82751360Y77700880D01*
G75*
G02*
X82686360Y77765880I0J65000D01*
G01*
G37*
G36*
G01*
X81911360Y77745880D02*
X81911360Y78455880D01*
G75*
G02*
X81956360Y78500880I45000J0D01*
G01*
X82316360Y78500880D01*
G75*
G02*
X82361360Y78455880I0J-45000D01*
G01*
X82361360Y77745880D01*
G75*
G02*
X82316360Y77700880I-45000J0D01*
G01*
X81956360Y77700880D01*
G75*
G02*
X81911360Y77745880I0J45000D01*
G01*
G37*
G36*
G01*
X81111360Y77745880D02*
X81111360Y78455880D01*
G75*
G02*
X81156360Y78500880I45000J0D01*
G01*
X81516360Y78500880D01*
G75*
G02*
X81561360Y78455880I0J-45000D01*
G01*
X81561360Y77745880D01*
G75*
G02*
X81516360Y77700880I-45000J0D01*
G01*
X81156360Y77700880D01*
G75*
G02*
X81111360Y77745880I0J45000D01*
G01*
G37*
G36*
G01*
X80136360Y77765880D02*
X80136360Y78435880D01*
G75*
G02*
X80201360Y78500880I65000J0D01*
G01*
X80721360Y78500880D01*
G75*
G02*
X80786360Y78435880I0J-65000D01*
G01*
X80786360Y77765880D01*
G75*
G02*
X80721360Y77700880I-65000J0D01*
G01*
X80201360Y77700880D01*
G75*
G02*
X80136360Y77765880I0J65000D01*
G01*
G37*
G04 #@! TD*
G04 #@! TO.C,R32*
G36*
G01*
X52325700Y126849999D02*
X51075700Y126849999D01*
G75*
G02*
X50975700Y126949999I0J100000D01*
G01*
X50975700Y127749999D01*
G75*
G02*
X51075700Y127849999I100000J0D01*
G01*
X52325700Y127849999D01*
G75*
G02*
X52425700Y127749999I0J-100000D01*
G01*
X52425700Y126949999D01*
G75*
G02*
X52325700Y126849999I-100000J0D01*
G01*
G37*
G36*
G01*
X52325700Y128750021D02*
X51075700Y128750021D01*
G75*
G02*
X50975700Y128850021I0J100000D01*
G01*
X50975700Y129650021D01*
G75*
G02*
X51075700Y129750021I100000J0D01*
G01*
X52325700Y129750021D01*
G75*
G02*
X52425700Y129650021I0J-100000D01*
G01*
X52425700Y128850021D01*
G75*
G02*
X52325700Y128750021I-100000J0D01*
G01*
G37*
G04 #@! TD*
G04 #@! TO.C,R2*
G36*
G01*
X74364360Y9479880D02*
X73694360Y9479880D01*
G75*
G02*
X73629360Y9544880I0J65000D01*
G01*
X73629360Y10064880D01*
G75*
G02*
X73694360Y10129880I65000J0D01*
G01*
X74364360Y10129880D01*
G75*
G02*
X74429360Y10064880I0J-65000D01*
G01*
X74429360Y9544880D01*
G75*
G02*
X74364360Y9479880I-65000J0D01*
G01*
G37*
G36*
G01*
X74384360Y10454880D02*
X73674360Y10454880D01*
G75*
G02*
X73629360Y10499880I0J45000D01*
G01*
X73629360Y10859880D01*
G75*
G02*
X73674360Y10904880I45000J0D01*
G01*
X74384360Y10904880D01*
G75*
G02*
X74429360Y10859880I0J-45000D01*
G01*
X74429360Y10499880D01*
G75*
G02*
X74384360Y10454880I-45000J0D01*
G01*
G37*
G36*
G01*
X74384360Y11254880D02*
X73674360Y11254880D01*
G75*
G02*
X73629360Y11299880I0J45000D01*
G01*
X73629360Y11659880D01*
G75*
G02*
X73674360Y11704880I45000J0D01*
G01*
X74384360Y11704880D01*
G75*
G02*
X74429360Y11659880I0J-45000D01*
G01*
X74429360Y11299880D01*
G75*
G02*
X74384360Y11254880I-45000J0D01*
G01*
G37*
G36*
G01*
X74364360Y12029880D02*
X73694360Y12029880D01*
G75*
G02*
X73629360Y12094880I0J65000D01*
G01*
X73629360Y12614880D01*
G75*
G02*
X73694360Y12679880I65000J0D01*
G01*
X74364360Y12679880D01*
G75*
G02*
X74429360Y12614880I0J-65000D01*
G01*
X74429360Y12094880D01*
G75*
G02*
X74364360Y12029880I-65000J0D01*
G01*
G37*
G36*
G01*
X72564360Y12029880D02*
X71894360Y12029880D01*
G75*
G02*
X71829360Y12094880I0J65000D01*
G01*
X71829360Y12614880D01*
G75*
G02*
X71894360Y12679880I65000J0D01*
G01*
X72564360Y12679880D01*
G75*
G02*
X72629360Y12614880I0J-65000D01*
G01*
X72629360Y12094880D01*
G75*
G02*
X72564360Y12029880I-65000J0D01*
G01*
G37*
G36*
G01*
X72584360Y11254880D02*
X71874360Y11254880D01*
G75*
G02*
X71829360Y11299880I0J45000D01*
G01*
X71829360Y11659880D01*
G75*
G02*
X71874360Y11704880I45000J0D01*
G01*
X72584360Y11704880D01*
G75*
G02*
X72629360Y11659880I0J-45000D01*
G01*
X72629360Y11299880D01*
G75*
G02*
X72584360Y11254880I-45000J0D01*
G01*
G37*
G36*
G01*
X72584360Y10454880D02*
X71874360Y10454880D01*
G75*
G02*
X71829360Y10499880I0J45000D01*
G01*
X71829360Y10859880D01*
G75*
G02*
X71874360Y10904880I45000J0D01*
G01*
X72584360Y10904880D01*
G75*
G02*
X72629360Y10859880I0J-45000D01*
G01*
X72629360Y10499880D01*
G75*
G02*
X72584360Y10454880I-45000J0D01*
G01*
G37*
G36*
G01*
X72564360Y9479880D02*
X71894360Y9479880D01*
G75*
G02*
X71829360Y9544880I0J65000D01*
G01*
X71829360Y10064880D01*
G75*
G02*
X71894360Y10129880I65000J0D01*
G01*
X72564360Y10129880D01*
G75*
G02*
X72629360Y10064880I0J-65000D01*
G01*
X72629360Y9544880D01*
G75*
G02*
X72564360Y9479880I-65000J0D01*
G01*
G37*
G04 #@! TD*
G04 #@! TO.C,R4*
G36*
G01*
X118010700Y124857060D02*
X118790700Y124857060D01*
G75*
G02*
X118860700Y124787060I0J-70000D01*
G01*
X118860700Y124227060D01*
G75*
G02*
X118790700Y124157060I-70000J0D01*
G01*
X118010700Y124157060D01*
G75*
G02*
X117940700Y124227060I0J70000D01*
G01*
X117940700Y124787060D01*
G75*
G02*
X118010700Y124857060I70000J0D01*
G01*
G37*
G36*
G01*
X118010700Y123257060D02*
X118790700Y123257060D01*
G75*
G02*
X118860700Y123187060I0J-70000D01*
G01*
X118860700Y122627060D01*
G75*
G02*
X118790700Y122557060I-70000J0D01*
G01*
X118010700Y122557060D01*
G75*
G02*
X117940700Y122627060I0J70000D01*
G01*
X117940700Y123187060D01*
G75*
G02*
X118010700Y123257060I70000J0D01*
G01*
G37*
G04 #@! TD*
G04 #@! TO.C,C3*
G36*
G01*
X61705958Y34460000D02*
X61705958Y35140000D01*
G75*
G02*
X61790958Y35225000I85000J0D01*
G01*
X62470958Y35225000D01*
G75*
G02*
X62555958Y35140000I0J-85000D01*
G01*
X62555958Y34460000D01*
G75*
G02*
X62470958Y34375000I-85000J0D01*
G01*
X61790958Y34375000D01*
G75*
G02*
X61705958Y34460000I0J85000D01*
G01*
G37*
G36*
G01*
X63285960Y34460000D02*
X63285960Y35140000D01*
G75*
G02*
X63370960Y35225000I85000J0D01*
G01*
X64050960Y35225000D01*
G75*
G02*
X64135960Y35140000I0J-85000D01*
G01*
X64135960Y34460000D01*
G75*
G02*
X64050960Y34375000I-85000J0D01*
G01*
X63370960Y34375000D01*
G75*
G02*
X63285960Y34460000I0J85000D01*
G01*
G37*
G04 #@! TD*
G04 #@! TO.C,R11*
G36*
G01*
X114785960Y123340001D02*
X116035960Y123340001D01*
G75*
G02*
X116135960Y123240001I0J-100000D01*
G01*
X116135960Y122440001D01*
G75*
G02*
X116035960Y122340001I-100000J0D01*
G01*
X114785960Y122340001D01*
G75*
G02*
X114685960Y122440001I0J100000D01*
G01*
X114685960Y123240001D01*
G75*
G02*
X114785960Y123340001I100000J0D01*
G01*
G37*
G36*
G01*
X114785960Y121439979D02*
X116035960Y121439979D01*
G75*
G02*
X116135960Y121339979I0J-100000D01*
G01*
X116135960Y120539979D01*
G75*
G02*
X116035960Y120439979I-100000J0D01*
G01*
X114785960Y120439979D01*
G75*
G02*
X114685960Y120539979I0J100000D01*
G01*
X114685960Y121339979D01*
G75*
G02*
X114785960Y121439979I100000J0D01*
G01*
G37*
G04 #@! TD*
G04 #@! TO.C,R41*
G36*
G01*
X37435960Y126849999D02*
X36185960Y126849999D01*
G75*
G02*
X36085960Y126949999I0J100000D01*
G01*
X36085960Y127749999D01*
G75*
G02*
X36185960Y127849999I100000J0D01*
G01*
X37435960Y127849999D01*
G75*
G02*
X37535960Y127749999I0J-100000D01*
G01*
X37535960Y126949999D01*
G75*
G02*
X37435960Y126849999I-100000J0D01*
G01*
G37*
G36*
G01*
X37435960Y128750021D02*
X36185960Y128750021D01*
G75*
G02*
X36085960Y128850021I0J100000D01*
G01*
X36085960Y129650021D01*
G75*
G02*
X36185960Y129750021I100000J0D01*
G01*
X37435960Y129750021D01*
G75*
G02*
X37535960Y129650021I0J-100000D01*
G01*
X37535960Y128850021D01*
G75*
G02*
X37435960Y128750021I-100000J0D01*
G01*
G37*
G04 #@! TD*
G04 #@! TO.C,M5*
X57343319Y74116375D03*
G04 #@! TD*
G04 #@! TO.C,R36*
G36*
G01*
X41935960Y133349999D02*
X40685960Y133349999D01*
G75*
G02*
X40585960Y133449999I0J100000D01*
G01*
X40585960Y134249999D01*
G75*
G02*
X40685960Y134349999I100000J0D01*
G01*
X41935960Y134349999D01*
G75*
G02*
X42035960Y134249999I0J-100000D01*
G01*
X42035960Y133449999D01*
G75*
G02*
X41935960Y133349999I-100000J0D01*
G01*
G37*
G36*
G01*
X41935960Y135250021D02*
X40685960Y135250021D01*
G75*
G02*
X40585960Y135350021I0J100000D01*
G01*
X40585960Y136150021D01*
G75*
G02*
X40685960Y136250021I100000J0D01*
G01*
X41935960Y136250021D01*
G75*
G02*
X42035960Y136150021I0J-100000D01*
G01*
X42035960Y135350021D01*
G75*
G02*
X41935960Y135250021I-100000J0D01*
G01*
G37*
G04 #@! TD*
G04 #@! TO.C,D1*
G36*
G01*
X67979339Y10424880D02*
X67979339Y9184880D01*
G75*
G02*
X67849339Y9054880I-130000J0D01*
G01*
X66809339Y9054880D01*
G75*
G02*
X66679339Y9184880I0J130000D01*
G01*
X66679339Y10424880D01*
G75*
G02*
X66809339Y10554880I130000J0D01*
G01*
X67849339Y10554880D01*
G75*
G02*
X67979339Y10424880I0J-130000D01*
G01*
G37*
G36*
G01*
X69879360Y10424880D02*
X69879360Y9184880D01*
G75*
G02*
X69749360Y9054880I-130000J0D01*
G01*
X68709360Y9054880D01*
G75*
G02*
X68579360Y9184880I0J130000D01*
G01*
X68579360Y10424880D01*
G75*
G02*
X68709360Y10554880I130000J0D01*
G01*
X69749360Y10554880D01*
G75*
G02*
X69879360Y10424880I0J-130000D01*
G01*
G37*
G04 #@! TD*
G04 #@! TO.C,R48*
G36*
G01*
X110035960Y126844999D02*
X108785960Y126844999D01*
G75*
G02*
X108685960Y126944999I0J100000D01*
G01*
X108685960Y127744999D01*
G75*
G02*
X108785960Y127844999I100000J0D01*
G01*
X110035960Y127844999D01*
G75*
G02*
X110135960Y127744999I0J-100000D01*
G01*
X110135960Y126944999D01*
G75*
G02*
X110035960Y126844999I-100000J0D01*
G01*
G37*
G36*
G01*
X110035960Y128745021D02*
X108785960Y128745021D01*
G75*
G02*
X108685960Y128845021I0J100000D01*
G01*
X108685960Y129645021D01*
G75*
G02*
X108785960Y129745021I100000J0D01*
G01*
X110035960Y129745021D01*
G75*
G02*
X110135960Y129645021I0J-100000D01*
G01*
X110135960Y128845021D01*
G75*
G02*
X110035960Y128745021I-100000J0D01*
G01*
G37*
G04 #@! TD*
G04 #@! TO.C,D15*
G36*
G01*
X62510209Y85290750D02*
X62510209Y84810750D01*
G75*
G02*
X62450209Y84750750I-60000J0D01*
G01*
X61970209Y84750750D01*
G75*
G02*
X61910209Y84810750I0J60000D01*
G01*
X61910209Y85290750D01*
G75*
G02*
X61970209Y85350750I60000J0D01*
G01*
X62450209Y85350750D01*
G75*
G02*
X62510209Y85290750I0J-60000D01*
G01*
G37*
G36*
G01*
X62510209Y83090750D02*
X62510209Y82610750D01*
G75*
G02*
X62450209Y82550750I-60000J0D01*
G01*
X61970209Y82550750D01*
G75*
G02*
X61910209Y82610750I0J60000D01*
G01*
X61910209Y83090750D01*
G75*
G02*
X61970209Y83150750I60000J0D01*
G01*
X62450209Y83150750D01*
G75*
G02*
X62510209Y83090750I0J-60000D01*
G01*
G37*
G04 #@! TD*
G04 #@! TO.C,C1*
G36*
G01*
X69024358Y20864880D02*
X69024358Y21544880D01*
G75*
G02*
X69109358Y21629880I85000J0D01*
G01*
X69789358Y21629880D01*
G75*
G02*
X69874358Y21544880I0J-85000D01*
G01*
X69874358Y20864880D01*
G75*
G02*
X69789358Y20779880I-85000J0D01*
G01*
X69109358Y20779880D01*
G75*
G02*
X69024358Y20864880I0J85000D01*
G01*
G37*
G36*
G01*
X70604360Y20864880D02*
X70604360Y21544880D01*
G75*
G02*
X70689360Y21629880I85000J0D01*
G01*
X71369360Y21629880D01*
G75*
G02*
X71454360Y21544880I0J-85000D01*
G01*
X71454360Y20864880D01*
G75*
G02*
X71369360Y20779880I-85000J0D01*
G01*
X70689360Y20779880D01*
G75*
G02*
X70604360Y20864880I0J85000D01*
G01*
G37*
G04 #@! TD*
G04 #@! TO.C,S1*
G36*
G01*
X66109360Y19704881D02*
X67949360Y19704881D01*
G75*
G02*
X68029360Y19624881I0J-80000D01*
G01*
X68029360Y18984881D01*
G75*
G02*
X67949360Y18904881I-80000J0D01*
G01*
X66109360Y18904881D01*
G75*
G02*
X66029360Y18984881I0J80000D01*
G01*
X66029360Y19624881D01*
G75*
G02*
X66109360Y19704881I80000J0D01*
G01*
G37*
G36*
G01*
X66109360Y15504880D02*
X67949360Y15504880D01*
G75*
G02*
X68029360Y15424880I0J-80000D01*
G01*
X68029360Y14784880D01*
G75*
G02*
X67949360Y14704880I-80000J0D01*
G01*
X66109360Y14704880D01*
G75*
G02*
X66029360Y14784880I0J80000D01*
G01*
X66029360Y15424880D01*
G75*
G02*
X66109360Y15504880I80000J0D01*
G01*
G37*
G04 #@! TD*
G04 #@! TO.C,D6*
G36*
G01*
X71910211Y85350749D02*
X72810211Y85350749D01*
G75*
G02*
X72910211Y85250749I0J-100000D01*
G01*
X72910211Y84450749D01*
G75*
G02*
X72810211Y84350749I-100000J0D01*
G01*
X71910211Y84350749D01*
G75*
G02*
X71810211Y84450749I0J100000D01*
G01*
X71810211Y85250749D01*
G75*
G02*
X71910211Y85350749I100000J0D01*
G01*
G37*
G36*
G01*
X71910211Y83650749D02*
X72810211Y83650749D01*
G75*
G02*
X72910211Y83550749I0J-100000D01*
G01*
X72910211Y82750749D01*
G75*
G02*
X72810211Y82650749I-100000J0D01*
G01*
X71910211Y82650749D01*
G75*
G02*
X71810211Y82750749I0J100000D01*
G01*
X71810211Y83550749D01*
G75*
G02*
X71910211Y83650749I100000J0D01*
G01*
G37*
G04 #@! TD*
G04 #@! TO.C,C4*
G36*
G01*
X131905002Y90340000D02*
X131905002Y89660000D01*
G75*
G02*
X131820002Y89575000I-85000J0D01*
G01*
X131140002Y89575000D01*
G75*
G02*
X131055002Y89660000I0J85000D01*
G01*
X131055002Y90340000D01*
G75*
G02*
X131140002Y90425000I85000J0D01*
G01*
X131820002Y90425000D01*
G75*
G02*
X131905002Y90340000I0J-85000D01*
G01*
G37*
G36*
G01*
X130325000Y90340000D02*
X130325000Y89660000D01*
G75*
G02*
X130240000Y89575000I-85000J0D01*
G01*
X129560000Y89575000D01*
G75*
G02*
X129475000Y89660000I0J85000D01*
G01*
X129475000Y90340000D01*
G75*
G02*
X129560000Y90425000I85000J0D01*
G01*
X130240000Y90425000D01*
G75*
G02*
X130325000Y90340000I0J-85000D01*
G01*
G37*
G04 #@! TD*
G04 #@! TO.C,R24*
G36*
G01*
X108035960Y122795000D02*
X106785960Y122795000D01*
G75*
G02*
X106685960Y122895000I0J100000D01*
G01*
X106685960Y123695000D01*
G75*
G02*
X106785960Y123795000I100000J0D01*
G01*
X108035960Y123795000D01*
G75*
G02*
X108135960Y123695000I0J-100000D01*
G01*
X108135960Y122895000D01*
G75*
G02*
X108035960Y122795000I-100000J0D01*
G01*
G37*
G36*
G01*
X108035960Y124695022D02*
X106785960Y124695022D01*
G75*
G02*
X106685960Y124795022I0J100000D01*
G01*
X106685960Y125595022D01*
G75*
G02*
X106785960Y125695022I100000J0D01*
G01*
X108035960Y125695022D01*
G75*
G02*
X108135960Y125595022I0J-100000D01*
G01*
X108135960Y124795022D01*
G75*
G02*
X108035960Y124695022I-100000J0D01*
G01*
G37*
G04 #@! TD*
G04 #@! TO.C,R33*
G36*
G01*
X47935960Y133349999D02*
X46685960Y133349999D01*
G75*
G02*
X46585960Y133449999I0J100000D01*
G01*
X46585960Y134249999D01*
G75*
G02*
X46685960Y134349999I100000J0D01*
G01*
X47935960Y134349999D01*
G75*
G02*
X48035960Y134249999I0J-100000D01*
G01*
X48035960Y133449999D01*
G75*
G02*
X47935960Y133349999I-100000J0D01*
G01*
G37*
G36*
G01*
X47935960Y135250021D02*
X46685960Y135250021D01*
G75*
G02*
X46585960Y135350021I0J100000D01*
G01*
X46585960Y136150021D01*
G75*
G02*
X46685960Y136250021I100000J0D01*
G01*
X47935960Y136250021D01*
G75*
G02*
X48035960Y136150021I0J-100000D01*
G01*
X48035960Y135350021D01*
G75*
G02*
X47935960Y135250021I-100000J0D01*
G01*
G37*
G04 #@! TD*
G04 #@! TO.C,D12*
G36*
G01*
X74297706Y85289251D02*
X74297706Y84809251D01*
G75*
G02*
X74237706Y84749251I-60000J0D01*
G01*
X73757706Y84749251D01*
G75*
G02*
X73697706Y84809251I0J60000D01*
G01*
X73697706Y85289251D01*
G75*
G02*
X73757706Y85349251I60000J0D01*
G01*
X74237706Y85349251D01*
G75*
G02*
X74297706Y85289251I0J-60000D01*
G01*
G37*
G36*
G01*
X74297706Y83089251D02*
X74297706Y82609251D01*
G75*
G02*
X74237706Y82549251I-60000J0D01*
G01*
X73757706Y82549251D01*
G75*
G02*
X73697706Y82609251I0J60000D01*
G01*
X73697706Y83089251D01*
G75*
G02*
X73757706Y83149251I60000J0D01*
G01*
X74237706Y83149251D01*
G75*
G02*
X74297706Y83089251I0J-60000D01*
G01*
G37*
G04 #@! TD*
G04 #@! TO.C,R42*
G36*
G01*
X33435960Y126849999D02*
X32185960Y126849999D01*
G75*
G02*
X32085960Y126949999I0J100000D01*
G01*
X32085960Y127749999D01*
G75*
G02*
X32185960Y127849999I100000J0D01*
G01*
X33435960Y127849999D01*
G75*
G02*
X33535960Y127749999I0J-100000D01*
G01*
X33535960Y126949999D01*
G75*
G02*
X33435960Y126849999I-100000J0D01*
G01*
G37*
G36*
G01*
X33435960Y128750021D02*
X32185960Y128750021D01*
G75*
G02*
X32085960Y128850021I0J100000D01*
G01*
X32085960Y129650021D01*
G75*
G02*
X32185960Y129750021I100000J0D01*
G01*
X33435960Y129750021D01*
G75*
G02*
X33535960Y129650021I0J-100000D01*
G01*
X33535960Y128850021D01*
G75*
G02*
X33435960Y128750021I-100000J0D01*
G01*
G37*
G04 #@! TD*
G04 #@! TO.C,D22*
G36*
G01*
X39087497Y98238501D02*
X39087497Y97758501D01*
G75*
G02*
X39027497Y97698501I-60000J0D01*
G01*
X38547497Y97698501D01*
G75*
G02*
X38487497Y97758501I0J60000D01*
G01*
X38487497Y98238501D01*
G75*
G02*
X38547497Y98298501I60000J0D01*
G01*
X39027497Y98298501D01*
G75*
G02*
X39087497Y98238501I0J-60000D01*
G01*
G37*
G36*
G01*
X39087497Y96038501D02*
X39087497Y95558501D01*
G75*
G02*
X39027497Y95498501I-60000J0D01*
G01*
X38547497Y95498501D01*
G75*
G02*
X38487497Y95558501I0J60000D01*
G01*
X38487497Y96038501D01*
G75*
G02*
X38547497Y96098501I60000J0D01*
G01*
X39027497Y96098501D01*
G75*
G02*
X39087497Y96038501I0J-60000D01*
G01*
G37*
G04 #@! TD*
G04 #@! TO.C,D11*
G36*
G01*
X31930960Y119300021D02*
X30690960Y119300021D01*
G75*
G02*
X30560960Y119430021I0J130000D01*
G01*
X30560960Y120470021D01*
G75*
G02*
X30690960Y120600021I130000J0D01*
G01*
X31930960Y120600021D01*
G75*
G02*
X32060960Y120470021I0J-130000D01*
G01*
X32060960Y119430021D01*
G75*
G02*
X31930960Y119300021I-130000J0D01*
G01*
G37*
G36*
G01*
X31930960Y117400000D02*
X30690960Y117400000D01*
G75*
G02*
X30560960Y117530000I0J130000D01*
G01*
X30560960Y118570000D01*
G75*
G02*
X30690960Y118700000I130000J0D01*
G01*
X31930960Y118700000D01*
G75*
G02*
X32060960Y118570000I0J-130000D01*
G01*
X32060960Y117530000D01*
G75*
G02*
X31930960Y117400000I-130000J0D01*
G01*
G37*
G04 #@! TD*
G04 #@! TO.C,R6*
G36*
G01*
X69710209Y89285750D02*
X69710209Y88615750D01*
G75*
G02*
X69645209Y88550750I-65000J0D01*
G01*
X69125209Y88550750D01*
G75*
G02*
X69060209Y88615750I0J65000D01*
G01*
X69060209Y89285750D01*
G75*
G02*
X69125209Y89350750I65000J0D01*
G01*
X69645209Y89350750D01*
G75*
G02*
X69710209Y89285750I0J-65000D01*
G01*
G37*
G36*
G01*
X68735209Y89305750D02*
X68735209Y88595750D01*
G75*
G02*
X68690209Y88550750I-45000J0D01*
G01*
X68330209Y88550750D01*
G75*
G02*
X68285209Y88595750I0J45000D01*
G01*
X68285209Y89305750D01*
G75*
G02*
X68330209Y89350750I45000J0D01*
G01*
X68690209Y89350750D01*
G75*
G02*
X68735209Y89305750I0J-45000D01*
G01*
G37*
G36*
G01*
X67935209Y89305750D02*
X67935209Y88595750D01*
G75*
G02*
X67890209Y88550750I-45000J0D01*
G01*
X67530209Y88550750D01*
G75*
G02*
X67485209Y88595750I0J45000D01*
G01*
X67485209Y89305750D01*
G75*
G02*
X67530209Y89350750I45000J0D01*
G01*
X67890209Y89350750D01*
G75*
G02*
X67935209Y89305750I0J-45000D01*
G01*
G37*
G36*
G01*
X67160209Y89285750D02*
X67160209Y88615750D01*
G75*
G02*
X67095209Y88550750I-65000J0D01*
G01*
X66575209Y88550750D01*
G75*
G02*
X66510209Y88615750I0J65000D01*
G01*
X66510209Y89285750D01*
G75*
G02*
X66575209Y89350750I65000J0D01*
G01*
X67095209Y89350750D01*
G75*
G02*
X67160209Y89285750I0J-65000D01*
G01*
G37*
G36*
G01*
X67160209Y87485750D02*
X67160209Y86815750D01*
G75*
G02*
X67095209Y86750750I-65000J0D01*
G01*
X66575209Y86750750D01*
G75*
G02*
X66510209Y86815750I0J65000D01*
G01*
X66510209Y87485750D01*
G75*
G02*
X66575209Y87550750I65000J0D01*
G01*
X67095209Y87550750D01*
G75*
G02*
X67160209Y87485750I0J-65000D01*
G01*
G37*
G36*
G01*
X67935209Y87505750D02*
X67935209Y86795750D01*
G75*
G02*
X67890209Y86750750I-45000J0D01*
G01*
X67530209Y86750750D01*
G75*
G02*
X67485209Y86795750I0J45000D01*
G01*
X67485209Y87505750D01*
G75*
G02*
X67530209Y87550750I45000J0D01*
G01*
X67890209Y87550750D01*
G75*
G02*
X67935209Y87505750I0J-45000D01*
G01*
G37*
G36*
G01*
X68735209Y87505750D02*
X68735209Y86795750D01*
G75*
G02*
X68690209Y86750750I-45000J0D01*
G01*
X68330209Y86750750D01*
G75*
G02*
X68285209Y86795750I0J45000D01*
G01*
X68285209Y87505750D01*
G75*
G02*
X68330209Y87550750I45000J0D01*
G01*
X68690209Y87550750D01*
G75*
G02*
X68735209Y87505750I0J-45000D01*
G01*
G37*
G36*
G01*
X69710209Y87485750D02*
X69710209Y86815750D01*
G75*
G02*
X69645209Y86750750I-65000J0D01*
G01*
X69125209Y86750750D01*
G75*
G02*
X69060209Y86815750I0J65000D01*
G01*
X69060209Y87485750D01*
G75*
G02*
X69125209Y87550750I65000J0D01*
G01*
X69645209Y87550750D01*
G75*
G02*
X69710209Y87485750I0J-65000D01*
G01*
G37*
G04 #@! TD*
G04 #@! TO.C,R43*
G36*
G01*
X123535960Y133344999D02*
X122285960Y133344999D01*
G75*
G02*
X122185960Y133444999I0J100000D01*
G01*
X122185960Y134244999D01*
G75*
G02*
X122285960Y134344999I100000J0D01*
G01*
X123535960Y134344999D01*
G75*
G02*
X123635960Y134244999I0J-100000D01*
G01*
X123635960Y133444999D01*
G75*
G02*
X123535960Y133344999I-100000J0D01*
G01*
G37*
G36*
G01*
X123535960Y135245021D02*
X122285960Y135245021D01*
G75*
G02*
X122185960Y135345021I0J100000D01*
G01*
X122185960Y136145021D01*
G75*
G02*
X122285960Y136245021I100000J0D01*
G01*
X123535960Y136245021D01*
G75*
G02*
X123635960Y136145021I0J-100000D01*
G01*
X123635960Y135345021D01*
G75*
G02*
X123535960Y135245021I-100000J0D01*
G01*
G37*
G04 #@! TD*
G04 #@! TO.C,D30*
G36*
G01*
X96760700Y106394557D02*
X97240700Y106394557D01*
G75*
G02*
X97300700Y106334557I0J-60000D01*
G01*
X97300700Y105854557D01*
G75*
G02*
X97240700Y105794557I-60000J0D01*
G01*
X96760700Y105794557D01*
G75*
G02*
X96700700Y105854557I0J60000D01*
G01*
X96700700Y106334557D01*
G75*
G02*
X96760700Y106394557I60000J0D01*
G01*
G37*
G36*
G01*
X98960700Y106394557D02*
X99440700Y106394557D01*
G75*
G02*
X99500700Y106334557I0J-60000D01*
G01*
X99500700Y105854557D01*
G75*
G02*
X99440700Y105794557I-60000J0D01*
G01*
X98960700Y105794557D01*
G75*
G02*
X98900700Y105854557I0J60000D01*
G01*
X98900700Y106334557D01*
G75*
G02*
X98960700Y106394557I60000J0D01*
G01*
G37*
G04 #@! TD*
G04 #@! TO.C,R45*
G36*
G01*
X119035960Y126844999D02*
X117785960Y126844999D01*
G75*
G02*
X117685960Y126944999I0J100000D01*
G01*
X117685960Y127744999D01*
G75*
G02*
X117785960Y127844999I100000J0D01*
G01*
X119035960Y127844999D01*
G75*
G02*
X119135960Y127744999I0J-100000D01*
G01*
X119135960Y126944999D01*
G75*
G02*
X119035960Y126844999I-100000J0D01*
G01*
G37*
G36*
G01*
X119035960Y128745021D02*
X117785960Y128745021D01*
G75*
G02*
X117685960Y128845021I0J100000D01*
G01*
X117685960Y129645021D01*
G75*
G02*
X117785960Y129745021I100000J0D01*
G01*
X119035960Y129745021D01*
G75*
G02*
X119135960Y129645021I0J-100000D01*
G01*
X119135960Y128845021D01*
G75*
G02*
X119035960Y128745021I-100000J0D01*
G01*
G37*
G04 #@! TD*
G04 #@! TO.C,M8*
X58457366Y103994560D03*
G04 #@! TD*
G04 #@! TO.C,R17*
G36*
G01*
X126535960Y133344999D02*
X125285960Y133344999D01*
G75*
G02*
X125185960Y133444999I0J100000D01*
G01*
X125185960Y134244999D01*
G75*
G02*
X125285960Y134344999I100000J0D01*
G01*
X126535960Y134344999D01*
G75*
G02*
X126635960Y134244999I0J-100000D01*
G01*
X126635960Y133444999D01*
G75*
G02*
X126535960Y133344999I-100000J0D01*
G01*
G37*
G36*
G01*
X126535960Y135245021D02*
X125285960Y135245021D01*
G75*
G02*
X125185960Y135345021I0J100000D01*
G01*
X125185960Y136145021D01*
G75*
G02*
X125285960Y136245021I100000J0D01*
G01*
X126535960Y136245021D01*
G75*
G02*
X126635960Y136145021I0J-100000D01*
G01*
X126635960Y135345021D01*
G75*
G02*
X126535960Y135245021I-100000J0D01*
G01*
G37*
G04 #@! TD*
G04 #@! TO.C,S2*
G36*
G01*
X70109360Y19704881D02*
X71949360Y19704881D01*
G75*
G02*
X72029360Y19624881I0J-80000D01*
G01*
X72029360Y18984881D01*
G75*
G02*
X71949360Y18904881I-80000J0D01*
G01*
X70109360Y18904881D01*
G75*
G02*
X70029360Y18984881I0J80000D01*
G01*
X70029360Y19624881D01*
G75*
G02*
X70109360Y19704881I80000J0D01*
G01*
G37*
G36*
G01*
X70109360Y15504880D02*
X71949360Y15504880D01*
G75*
G02*
X72029360Y15424880I0J-80000D01*
G01*
X72029360Y14784880D01*
G75*
G02*
X71949360Y14704880I-80000J0D01*
G01*
X70109360Y14704880D01*
G75*
G02*
X70029360Y14784880I0J80000D01*
G01*
X70029360Y15424880D01*
G75*
G02*
X70109360Y15504880I80000J0D01*
G01*
G37*
G04 #@! TD*
G04 #@! TO.C,R29*
G36*
G01*
X56935960Y133349999D02*
X55685960Y133349999D01*
G75*
G02*
X55585960Y133449999I0J100000D01*
G01*
X55585960Y134249999D01*
G75*
G02*
X55685960Y134349999I100000J0D01*
G01*
X56935960Y134349999D01*
G75*
G02*
X57035960Y134249999I0J-100000D01*
G01*
X57035960Y133449999D01*
G75*
G02*
X56935960Y133349999I-100000J0D01*
G01*
G37*
G36*
G01*
X56935960Y135250021D02*
X55685960Y135250021D01*
G75*
G02*
X55585960Y135350021I0J100000D01*
G01*
X55585960Y136150021D01*
G75*
G02*
X55685960Y136250021I100000J0D01*
G01*
X56935960Y136250021D01*
G75*
G02*
X57035960Y136150021I0J-100000D01*
G01*
X57035960Y135350021D01*
G75*
G02*
X56935960Y135250021I-100000J0D01*
G01*
G37*
G04 #@! TD*
G04 #@! TO.C,R40*
G36*
G01*
X35935960Y133349999D02*
X34685960Y133349999D01*
G75*
G02*
X34585960Y133449999I0J100000D01*
G01*
X34585960Y134249999D01*
G75*
G02*
X34685960Y134349999I100000J0D01*
G01*
X35935960Y134349999D01*
G75*
G02*
X36035960Y134249999I0J-100000D01*
G01*
X36035960Y133449999D01*
G75*
G02*
X35935960Y133349999I-100000J0D01*
G01*
G37*
G36*
G01*
X35935960Y135250021D02*
X34685960Y135250021D01*
G75*
G02*
X34585960Y135350021I0J100000D01*
G01*
X34585960Y136150021D01*
G75*
G02*
X34685960Y136250021I100000J0D01*
G01*
X35935960Y136250021D01*
G75*
G02*
X36035960Y136150021I0J-100000D01*
G01*
X36035960Y135350021D01*
G75*
G02*
X35935960Y135250021I-100000J0D01*
G01*
G37*
G04 #@! TD*
G04 #@! TO.C,D23*
G36*
G01*
X35800000Y98240000D02*
X35800000Y97760000D01*
G75*
G02*
X35740000Y97700000I-60000J0D01*
G01*
X35260000Y97700000D01*
G75*
G02*
X35200000Y97760000I0J60000D01*
G01*
X35200000Y98240000D01*
G75*
G02*
X35260000Y98300000I60000J0D01*
G01*
X35740000Y98300000D01*
G75*
G02*
X35800000Y98240000I0J-60000D01*
G01*
G37*
G36*
G01*
X35800000Y96040000D02*
X35800000Y95560000D01*
G75*
G02*
X35740000Y95500000I-60000J0D01*
G01*
X35260000Y95500000D01*
G75*
G02*
X35200000Y95560000I0J60000D01*
G01*
X35200000Y96040000D01*
G75*
G02*
X35260000Y96100000I60000J0D01*
G01*
X35740000Y96100000D01*
G75*
G02*
X35800000Y96040000I0J-60000D01*
G01*
G37*
G04 #@! TD*
G04 #@! TO.C,D26*
G36*
G01*
X96700701Y109207062D02*
X96700701Y110107062D01*
G75*
G02*
X96800701Y110207062I100000J0D01*
G01*
X97600701Y110207062D01*
G75*
G02*
X97700701Y110107062I0J-100000D01*
G01*
X97700701Y109207062D01*
G75*
G02*
X97600701Y109107062I-100000J0D01*
G01*
X96800701Y109107062D01*
G75*
G02*
X96700701Y109207062I0J100000D01*
G01*
G37*
G36*
G01*
X98400701Y109207062D02*
X98400701Y110107062D01*
G75*
G02*
X98500701Y110207062I100000J0D01*
G01*
X99300701Y110207062D01*
G75*
G02*
X99400701Y110107062I0J-100000D01*
G01*
X99400701Y109207062D01*
G75*
G02*
X99300701Y109107062I-100000J0D01*
G01*
X98500701Y109107062D01*
G75*
G02*
X98400701Y109207062I0J100000D01*
G01*
G37*
G04 #@! TD*
G04 #@! TO.C,R16*
G36*
G01*
X92465700Y110307060D02*
X93135700Y110307060D01*
G75*
G02*
X93200700Y110242060I0J-65000D01*
G01*
X93200700Y109722060D01*
G75*
G02*
X93135700Y109657060I-65000J0D01*
G01*
X92465700Y109657060D01*
G75*
G02*
X92400700Y109722060I0J65000D01*
G01*
X92400700Y110242060D01*
G75*
G02*
X92465700Y110307060I65000J0D01*
G01*
G37*
G36*
G01*
X92445700Y109332060D02*
X93155700Y109332060D01*
G75*
G02*
X93200700Y109287060I0J-45000D01*
G01*
X93200700Y108927060D01*
G75*
G02*
X93155700Y108882060I-45000J0D01*
G01*
X92445700Y108882060D01*
G75*
G02*
X92400700Y108927060I0J45000D01*
G01*
X92400700Y109287060D01*
G75*
G02*
X92445700Y109332060I45000J0D01*
G01*
G37*
G36*
G01*
X92445700Y108532060D02*
X93155700Y108532060D01*
G75*
G02*
X93200700Y108487060I0J-45000D01*
G01*
X93200700Y108127060D01*
G75*
G02*
X93155700Y108082060I-45000J0D01*
G01*
X92445700Y108082060D01*
G75*
G02*
X92400700Y108127060I0J45000D01*
G01*
X92400700Y108487060D01*
G75*
G02*
X92445700Y108532060I45000J0D01*
G01*
G37*
G36*
G01*
X92465700Y107757060D02*
X93135700Y107757060D01*
G75*
G02*
X93200700Y107692060I0J-65000D01*
G01*
X93200700Y107172060D01*
G75*
G02*
X93135700Y107107060I-65000J0D01*
G01*
X92465700Y107107060D01*
G75*
G02*
X92400700Y107172060I0J65000D01*
G01*
X92400700Y107692060D01*
G75*
G02*
X92465700Y107757060I65000J0D01*
G01*
G37*
G36*
G01*
X94265700Y107757060D02*
X94935700Y107757060D01*
G75*
G02*
X95000700Y107692060I0J-65000D01*
G01*
X95000700Y107172060D01*
G75*
G02*
X94935700Y107107060I-65000J0D01*
G01*
X94265700Y107107060D01*
G75*
G02*
X94200700Y107172060I0J65000D01*
G01*
X94200700Y107692060D01*
G75*
G02*
X94265700Y107757060I65000J0D01*
G01*
G37*
G36*
G01*
X94245700Y108532060D02*
X94955700Y108532060D01*
G75*
G02*
X95000700Y108487060I0J-45000D01*
G01*
X95000700Y108127060D01*
G75*
G02*
X94955700Y108082060I-45000J0D01*
G01*
X94245700Y108082060D01*
G75*
G02*
X94200700Y108127060I0J45000D01*
G01*
X94200700Y108487060D01*
G75*
G02*
X94245700Y108532060I45000J0D01*
G01*
G37*
G36*
G01*
X94245700Y109332060D02*
X94955700Y109332060D01*
G75*
G02*
X95000700Y109287060I0J-45000D01*
G01*
X95000700Y108927060D01*
G75*
G02*
X94955700Y108882060I-45000J0D01*
G01*
X94245700Y108882060D01*
G75*
G02*
X94200700Y108927060I0J45000D01*
G01*
X94200700Y109287060D01*
G75*
G02*
X94245700Y109332060I45000J0D01*
G01*
G37*
G36*
G01*
X94265700Y110307060D02*
X94935700Y110307060D01*
G75*
G02*
X95000700Y110242060I0J-65000D01*
G01*
X95000700Y109722060D01*
G75*
G02*
X94935700Y109657060I-65000J0D01*
G01*
X94265700Y109657060D01*
G75*
G02*
X94200700Y109722060I0J65000D01*
G01*
X94200700Y110242060D01*
G75*
G02*
X94265700Y110307060I65000J0D01*
G01*
G37*
G04 #@! TD*
G04 #@! TO.C,R9*
G36*
G01*
X79911360Y68065880D02*
X79911360Y68735880D01*
G75*
G02*
X79976360Y68800880I65000J0D01*
G01*
X80496360Y68800880D01*
G75*
G02*
X80561360Y68735880I0J-65000D01*
G01*
X80561360Y68065880D01*
G75*
G02*
X80496360Y68000880I-65000J0D01*
G01*
X79976360Y68000880D01*
G75*
G02*
X79911360Y68065880I0J65000D01*
G01*
G37*
G36*
G01*
X80886360Y68045880D02*
X80886360Y68755880D01*
G75*
G02*
X80931360Y68800880I45000J0D01*
G01*
X81291360Y68800880D01*
G75*
G02*
X81336360Y68755880I0J-45000D01*
G01*
X81336360Y68045880D01*
G75*
G02*
X81291360Y68000880I-45000J0D01*
G01*
X80931360Y68000880D01*
G75*
G02*
X80886360Y68045880I0J45000D01*
G01*
G37*
G36*
G01*
X81686360Y68045880D02*
X81686360Y68755880D01*
G75*
G02*
X81731360Y68800880I45000J0D01*
G01*
X82091360Y68800880D01*
G75*
G02*
X82136360Y68755880I0J-45000D01*
G01*
X82136360Y68045880D01*
G75*
G02*
X82091360Y68000880I-45000J0D01*
G01*
X81731360Y68000880D01*
G75*
G02*
X81686360Y68045880I0J45000D01*
G01*
G37*
G36*
G01*
X82461360Y68065880D02*
X82461360Y68735880D01*
G75*
G02*
X82526360Y68800880I65000J0D01*
G01*
X83046360Y68800880D01*
G75*
G02*
X83111360Y68735880I0J-65000D01*
G01*
X83111360Y68065880D01*
G75*
G02*
X83046360Y68000880I-65000J0D01*
G01*
X82526360Y68000880D01*
G75*
G02*
X82461360Y68065880I0J65000D01*
G01*
G37*
G36*
G01*
X82461360Y69865880D02*
X82461360Y70535880D01*
G75*
G02*
X82526360Y70600880I65000J0D01*
G01*
X83046360Y70600880D01*
G75*
G02*
X83111360Y70535880I0J-65000D01*
G01*
X83111360Y69865880D01*
G75*
G02*
X83046360Y69800880I-65000J0D01*
G01*
X82526360Y69800880D01*
G75*
G02*
X82461360Y69865880I0J65000D01*
G01*
G37*
G36*
G01*
X81686360Y69845880D02*
X81686360Y70555880D01*
G75*
G02*
X81731360Y70600880I45000J0D01*
G01*
X82091360Y70600880D01*
G75*
G02*
X82136360Y70555880I0J-45000D01*
G01*
X82136360Y69845880D01*
G75*
G02*
X82091360Y69800880I-45000J0D01*
G01*
X81731360Y69800880D01*
G75*
G02*
X81686360Y69845880I0J45000D01*
G01*
G37*
G36*
G01*
X80886360Y69845880D02*
X80886360Y70555880D01*
G75*
G02*
X80931360Y70600880I45000J0D01*
G01*
X81291360Y70600880D01*
G75*
G02*
X81336360Y70555880I0J-45000D01*
G01*
X81336360Y69845880D01*
G75*
G02*
X81291360Y69800880I-45000J0D01*
G01*
X80931360Y69800880D01*
G75*
G02*
X80886360Y69845880I0J45000D01*
G01*
G37*
G36*
G01*
X79911360Y69865880D02*
X79911360Y70535880D01*
G75*
G02*
X79976360Y70600880I65000J0D01*
G01*
X80496360Y70600880D01*
G75*
G02*
X80561360Y70535880I0J-65000D01*
G01*
X80561360Y69865880D01*
G75*
G02*
X80496360Y69800880I-65000J0D01*
G01*
X79976360Y69800880D01*
G75*
G02*
X79911360Y69865880I0J65000D01*
G01*
G37*
G04 #@! TD*
G04 #@! TO.C,D9*
G36*
G01*
X63410211Y85350749D02*
X64310211Y85350749D01*
G75*
G02*
X64410211Y85250749I0J-100000D01*
G01*
X64410211Y84450749D01*
G75*
G02*
X64310211Y84350749I-100000J0D01*
G01*
X63410211Y84350749D01*
G75*
G02*
X63310211Y84450749I0J100000D01*
G01*
X63310211Y85250749D01*
G75*
G02*
X63410211Y85350749I100000J0D01*
G01*
G37*
G36*
G01*
X63410211Y83650749D02*
X64310211Y83650749D01*
G75*
G02*
X64410211Y83550749I0J-100000D01*
G01*
X64410211Y82750749D01*
G75*
G02*
X64310211Y82650749I-100000J0D01*
G01*
X63410211Y82650749D01*
G75*
G02*
X63310211Y82750749I0J100000D01*
G01*
X63310211Y83550749D01*
G75*
G02*
X63410211Y83650749I100000J0D01*
G01*
G37*
G04 #@! TD*
G04 #@! TO.C,D8*
G36*
G01*
X66710211Y85350749D02*
X67610211Y85350749D01*
G75*
G02*
X67710211Y85250749I0J-100000D01*
G01*
X67710211Y84450749D01*
G75*
G02*
X67610211Y84350749I-100000J0D01*
G01*
X66710211Y84350749D01*
G75*
G02*
X66610211Y84450749I0J100000D01*
G01*
X66610211Y85250749D01*
G75*
G02*
X66710211Y85350749I100000J0D01*
G01*
G37*
G36*
G01*
X66710211Y83650749D02*
X67610211Y83650749D01*
G75*
G02*
X67710211Y83550749I0J-100000D01*
G01*
X67710211Y82750749D01*
G75*
G02*
X67610211Y82650749I-100000J0D01*
G01*
X66710211Y82650749D01*
G75*
G02*
X66610211Y82750749I0J100000D01*
G01*
X66610211Y83550749D01*
G75*
G02*
X66710211Y83650749I100000J0D01*
G01*
G37*
G04 #@! TD*
G04 #@! TO.C,D14*
G36*
G01*
X65810209Y85290750D02*
X65810209Y84810750D01*
G75*
G02*
X65750209Y84750750I-60000J0D01*
G01*
X65270209Y84750750D01*
G75*
G02*
X65210209Y84810750I0J60000D01*
G01*
X65210209Y85290750D01*
G75*
G02*
X65270209Y85350750I60000J0D01*
G01*
X65750209Y85350750D01*
G75*
G02*
X65810209Y85290750I0J-60000D01*
G01*
G37*
G36*
G01*
X65810209Y83090750D02*
X65810209Y82610750D01*
G75*
G02*
X65750209Y82550750I-60000J0D01*
G01*
X65270209Y82550750D01*
G75*
G02*
X65210209Y82610750I0J60000D01*
G01*
X65210209Y83090750D01*
G75*
G02*
X65270209Y83150750I60000J0D01*
G01*
X65750209Y83150750D01*
G75*
G02*
X65810209Y83090750I0J-60000D01*
G01*
G37*
G04 #@! TD*
G04 #@! TO.C,D29*
G36*
G01*
X96760700Y111607060D02*
X97240700Y111607060D01*
G75*
G02*
X97300700Y111547060I0J-60000D01*
G01*
X97300700Y111067060D01*
G75*
G02*
X97240700Y111007060I-60000J0D01*
G01*
X96760700Y111007060D01*
G75*
G02*
X96700700Y111067060I0J60000D01*
G01*
X96700700Y111547060D01*
G75*
G02*
X96760700Y111607060I60000J0D01*
G01*
G37*
G36*
G01*
X98960700Y111607060D02*
X99440700Y111607060D01*
G75*
G02*
X99500700Y111547060I0J-60000D01*
G01*
X99500700Y111067060D01*
G75*
G02*
X99440700Y111007060I-60000J0D01*
G01*
X98960700Y111007060D01*
G75*
G02*
X98900700Y111067060I0J60000D01*
G01*
X98900700Y111547060D01*
G75*
G02*
X98960700Y111607060I60000J0D01*
G01*
G37*
G04 #@! TD*
D11*
G04 #@! TO.C,J26*
X145745000Y63250000D03*
X148745000Y63250000D03*
X140645000Y69750000D03*
X141745000Y63250000D03*
G04 #@! TD*
G04 #@! TO.C,R38*
G36*
G01*
X38935960Y133349999D02*
X37685960Y133349999D01*
G75*
G02*
X37585960Y133449999I0J100000D01*
G01*
X37585960Y134249999D01*
G75*
G02*
X37685960Y134349999I100000J0D01*
G01*
X38935960Y134349999D01*
G75*
G02*
X39035960Y134249999I0J-100000D01*
G01*
X39035960Y133449999D01*
G75*
G02*
X38935960Y133349999I-100000J0D01*
G01*
G37*
G36*
G01*
X38935960Y135250021D02*
X37685960Y135250021D01*
G75*
G02*
X37585960Y135350021I0J100000D01*
G01*
X37585960Y136150021D01*
G75*
G02*
X37685960Y136250021I100000J0D01*
G01*
X38935960Y136250021D01*
G75*
G02*
X39035960Y136150021I0J-100000D01*
G01*
X39035960Y135350021D01*
G75*
G02*
X38935960Y135250021I-100000J0D01*
G01*
G37*
G04 #@! TD*
G04 #@! TO.C,R18*
G36*
G01*
X122025000Y122999978D02*
X120775000Y122999978D01*
G75*
G02*
X120675000Y123099978I0J100000D01*
G01*
X120675000Y123899978D01*
G75*
G02*
X120775000Y123999978I100000J0D01*
G01*
X122025000Y123999978D01*
G75*
G02*
X122125000Y123899978I0J-100000D01*
G01*
X122125000Y123099978D01*
G75*
G02*
X122025000Y122999978I-100000J0D01*
G01*
G37*
G36*
G01*
X122025000Y124900000D02*
X120775000Y124900000D01*
G75*
G02*
X120675000Y125000000I0J100000D01*
G01*
X120675000Y125800000D01*
G75*
G02*
X120775000Y125900000I100000J0D01*
G01*
X122025000Y125900000D01*
G75*
G02*
X122125000Y125800000I0J-100000D01*
G01*
X122125000Y125000000D01*
G75*
G02*
X122025000Y124900000I-100000J0D01*
G01*
G37*
G04 #@! TD*
G04 #@! TO.C,R44*
G36*
G01*
X125035960Y126844999D02*
X123785960Y126844999D01*
G75*
G02*
X123685960Y126944999I0J100000D01*
G01*
X123685960Y127744999D01*
G75*
G02*
X123785960Y127844999I100000J0D01*
G01*
X125035960Y127844999D01*
G75*
G02*
X125135960Y127744999I0J-100000D01*
G01*
X125135960Y126944999D01*
G75*
G02*
X125035960Y126844999I-100000J0D01*
G01*
G37*
G36*
G01*
X125035960Y128745021D02*
X123785960Y128745021D01*
G75*
G02*
X123685960Y128845021I0J100000D01*
G01*
X123685960Y129645021D01*
G75*
G02*
X123785960Y129745021I100000J0D01*
G01*
X125035960Y129745021D01*
G75*
G02*
X125135960Y129645021I0J-100000D01*
G01*
X125135960Y128845021D01*
G75*
G02*
X125035960Y128745021I-100000J0D01*
G01*
G37*
G04 #@! TD*
G04 #@! TO.C,D16*
G36*
G01*
X45150000Y98307059D02*
X46050000Y98307059D01*
G75*
G02*
X46150000Y98207059I0J-100000D01*
G01*
X46150000Y97407059D01*
G75*
G02*
X46050000Y97307059I-100000J0D01*
G01*
X45150000Y97307059D01*
G75*
G02*
X45050000Y97407059I0J100000D01*
G01*
X45050000Y98207059D01*
G75*
G02*
X45150000Y98307059I100000J0D01*
G01*
G37*
G36*
G01*
X45150000Y96607059D02*
X46050000Y96607059D01*
G75*
G02*
X46150000Y96507059I0J-100000D01*
G01*
X46150000Y95707059D01*
G75*
G02*
X46050000Y95607059I-100000J0D01*
G01*
X45150000Y95607059D01*
G75*
G02*
X45050000Y95707059I0J100000D01*
G01*
X45050000Y96507059D01*
G75*
G02*
X45150000Y96607059I100000J0D01*
G01*
G37*
G04 #@! TD*
G04 #@! TO.C,R3*
G36*
G01*
X87550700Y83417060D02*
X87550700Y84197060D01*
G75*
G02*
X87620700Y84267060I70000J0D01*
G01*
X88180700Y84267060D01*
G75*
G02*
X88250700Y84197060I0J-70000D01*
G01*
X88250700Y83417060D01*
G75*
G02*
X88180700Y83347060I-70000J0D01*
G01*
X87620700Y83347060D01*
G75*
G02*
X87550700Y83417060I0J70000D01*
G01*
G37*
G36*
G01*
X89150700Y83417060D02*
X89150700Y84197060D01*
G75*
G02*
X89220700Y84267060I70000J0D01*
G01*
X89780700Y84267060D01*
G75*
G02*
X89850700Y84197060I0J-70000D01*
G01*
X89850700Y83417060D01*
G75*
G02*
X89780700Y83347060I-70000J0D01*
G01*
X89220700Y83347060D01*
G75*
G02*
X89150700Y83417060I0J70000D01*
G01*
G37*
G04 #@! TD*
G04 #@! TO.C,D19*
G36*
G01*
X36700002Y98299999D02*
X37600002Y98299999D01*
G75*
G02*
X37700002Y98199999I0J-100000D01*
G01*
X37700002Y97399999D01*
G75*
G02*
X37600002Y97299999I-100000J0D01*
G01*
X36700002Y97299999D01*
G75*
G02*
X36600002Y97399999I0J100000D01*
G01*
X36600002Y98199999D01*
G75*
G02*
X36700002Y98299999I100000J0D01*
G01*
G37*
G36*
G01*
X36700002Y96599999D02*
X37600002Y96599999D01*
G75*
G02*
X37700002Y96499999I0J-100000D01*
G01*
X37700002Y95699999D01*
G75*
G02*
X37600002Y95599999I-100000J0D01*
G01*
X36700002Y95599999D01*
G75*
G02*
X36600002Y95699999I0J100000D01*
G01*
X36600002Y96499999D01*
G75*
G02*
X36700002Y96599999I100000J0D01*
G01*
G37*
G04 #@! TD*
G04 #@! TO.C,R30*
G36*
G01*
X58935960Y126849999D02*
X57685960Y126849999D01*
G75*
G02*
X57585960Y126949999I0J100000D01*
G01*
X57585960Y127749999D01*
G75*
G02*
X57685960Y127849999I100000J0D01*
G01*
X58935960Y127849999D01*
G75*
G02*
X59035960Y127749999I0J-100000D01*
G01*
X59035960Y126949999D01*
G75*
G02*
X58935960Y126849999I-100000J0D01*
G01*
G37*
G36*
G01*
X58935960Y128750021D02*
X57685960Y128750021D01*
G75*
G02*
X57585960Y128850021I0J100000D01*
G01*
X57585960Y129650021D01*
G75*
G02*
X57685960Y129750021I100000J0D01*
G01*
X58935960Y129750021D01*
G75*
G02*
X59035960Y129650021I0J-100000D01*
G01*
X59035960Y128850021D01*
G75*
G02*
X58935960Y128750021I-100000J0D01*
G01*
G37*
G04 #@! TD*
G04 #@! TO.C,D21*
G36*
G01*
X44300000Y98240000D02*
X44300000Y97760000D01*
G75*
G02*
X44240000Y97700000I-60000J0D01*
G01*
X43760000Y97700000D01*
G75*
G02*
X43700000Y97760000I0J60000D01*
G01*
X43700000Y98240000D01*
G75*
G02*
X43760000Y98300000I60000J0D01*
G01*
X44240000Y98300000D01*
G75*
G02*
X44300000Y98240000I0J-60000D01*
G01*
G37*
G36*
G01*
X44300000Y96040000D02*
X44300000Y95560000D01*
G75*
G02*
X44240000Y95500000I-60000J0D01*
G01*
X43760000Y95500000D01*
G75*
G02*
X43700000Y95560000I0J60000D01*
G01*
X43700000Y96040000D01*
G75*
G02*
X43760000Y96100000I60000J0D01*
G01*
X44240000Y96100000D01*
G75*
G02*
X44300000Y96040000I0J-60000D01*
G01*
G37*
G04 #@! TD*
G04 #@! TO.C,R31*
G36*
G01*
X50935960Y133349999D02*
X49685960Y133349999D01*
G75*
G02*
X49585960Y133449999I0J100000D01*
G01*
X49585960Y134249999D01*
G75*
G02*
X49685960Y134349999I100000J0D01*
G01*
X50935960Y134349999D01*
G75*
G02*
X51035960Y134249999I0J-100000D01*
G01*
X51035960Y133449999D01*
G75*
G02*
X50935960Y133349999I-100000J0D01*
G01*
G37*
G36*
G01*
X50935960Y135250021D02*
X49685960Y135250021D01*
G75*
G02*
X49585960Y135350021I0J100000D01*
G01*
X49585960Y136150021D01*
G75*
G02*
X49685960Y136250021I100000J0D01*
G01*
X50935960Y136250021D01*
G75*
G02*
X51035960Y136150021I0J-100000D01*
G01*
X51035960Y135350021D01*
G75*
G02*
X50935960Y135250021I-100000J0D01*
G01*
G37*
G04 #@! TD*
D12*
G04 #@! TO.C,U1*
X65291860Y31954880D03*
X65291860Y32454880D03*
X65291860Y32954880D03*
X65291860Y33454880D03*
D13*
X64779360Y33467380D03*
X64279360Y33467380D03*
D12*
X63766860Y33454880D03*
X63766860Y32954880D03*
X63766860Y32454880D03*
X63766860Y31954880D03*
D13*
X64279360Y31942380D03*
X64779360Y31942380D03*
G04 #@! TD*
D14*
G04 #@! TO.C,BT1*
X44550000Y17500000D03*
X15250000Y17500000D03*
G04 #@! TD*
G04 #@! TO.C,R5*
G36*
G01*
X27710960Y113765000D02*
X27710960Y114435000D01*
G75*
G02*
X27775960Y114500000I65000J0D01*
G01*
X28295960Y114500000D01*
G75*
G02*
X28360960Y114435000I0J-65000D01*
G01*
X28360960Y113765000D01*
G75*
G02*
X28295960Y113700000I-65000J0D01*
G01*
X27775960Y113700000D01*
G75*
G02*
X27710960Y113765000I0J65000D01*
G01*
G37*
G36*
G01*
X28685960Y113745000D02*
X28685960Y114455000D01*
G75*
G02*
X28730960Y114500000I45000J0D01*
G01*
X29090960Y114500000D01*
G75*
G02*
X29135960Y114455000I0J-45000D01*
G01*
X29135960Y113745000D01*
G75*
G02*
X29090960Y113700000I-45000J0D01*
G01*
X28730960Y113700000D01*
G75*
G02*
X28685960Y113745000I0J45000D01*
G01*
G37*
G36*
G01*
X29485960Y113745000D02*
X29485960Y114455000D01*
G75*
G02*
X29530960Y114500000I45000J0D01*
G01*
X29890960Y114500000D01*
G75*
G02*
X29935960Y114455000I0J-45000D01*
G01*
X29935960Y113745000D01*
G75*
G02*
X29890960Y113700000I-45000J0D01*
G01*
X29530960Y113700000D01*
G75*
G02*
X29485960Y113745000I0J45000D01*
G01*
G37*
G36*
G01*
X30260960Y113765000D02*
X30260960Y114435000D01*
G75*
G02*
X30325960Y114500000I65000J0D01*
G01*
X30845960Y114500000D01*
G75*
G02*
X30910960Y114435000I0J-65000D01*
G01*
X30910960Y113765000D01*
G75*
G02*
X30845960Y113700000I-65000J0D01*
G01*
X30325960Y113700000D01*
G75*
G02*
X30260960Y113765000I0J65000D01*
G01*
G37*
G36*
G01*
X30260960Y115565000D02*
X30260960Y116235000D01*
G75*
G02*
X30325960Y116300000I65000J0D01*
G01*
X30845960Y116300000D01*
G75*
G02*
X30910960Y116235000I0J-65000D01*
G01*
X30910960Y115565000D01*
G75*
G02*
X30845960Y115500000I-65000J0D01*
G01*
X30325960Y115500000D01*
G75*
G02*
X30260960Y115565000I0J65000D01*
G01*
G37*
G36*
G01*
X29485960Y115545000D02*
X29485960Y116255000D01*
G75*
G02*
X29530960Y116300000I45000J0D01*
G01*
X29890960Y116300000D01*
G75*
G02*
X29935960Y116255000I0J-45000D01*
G01*
X29935960Y115545000D01*
G75*
G02*
X29890960Y115500000I-45000J0D01*
G01*
X29530960Y115500000D01*
G75*
G02*
X29485960Y115545000I0J45000D01*
G01*
G37*
G36*
G01*
X28685960Y115545000D02*
X28685960Y116255000D01*
G75*
G02*
X28730960Y116300000I45000J0D01*
G01*
X29090960Y116300000D01*
G75*
G02*
X29135960Y116255000I0J-45000D01*
G01*
X29135960Y115545000D01*
G75*
G02*
X29090960Y115500000I-45000J0D01*
G01*
X28730960Y115500000D01*
G75*
G02*
X28685960Y115545000I0J45000D01*
G01*
G37*
G36*
G01*
X27710960Y115565000D02*
X27710960Y116235000D01*
G75*
G02*
X27775960Y116300000I65000J0D01*
G01*
X28295960Y116300000D01*
G75*
G02*
X28360960Y116235000I0J-65000D01*
G01*
X28360960Y115565000D01*
G75*
G02*
X28295960Y115500000I-65000J0D01*
G01*
X27775960Y115500000D01*
G75*
G02*
X27710960Y115565000I0J65000D01*
G01*
G37*
G04 #@! TD*
G04 #@! TO.C,D25*
G36*
G01*
X45412503Y11661498D02*
X45412503Y12141498D01*
G75*
G02*
X45472503Y12201498I60000J0D01*
G01*
X45952503Y12201498D01*
G75*
G02*
X46012503Y12141498I0J-60000D01*
G01*
X46012503Y11661498D01*
G75*
G02*
X45952503Y11601498I-60000J0D01*
G01*
X45472503Y11601498D01*
G75*
G02*
X45412503Y11661498I0J60000D01*
G01*
G37*
G36*
G01*
X45412503Y13861498D02*
X45412503Y14341498D01*
G75*
G02*
X45472503Y14401498I60000J0D01*
G01*
X45952503Y14401498D01*
G75*
G02*
X46012503Y14341498I0J-60000D01*
G01*
X46012503Y13861498D01*
G75*
G02*
X45952503Y13801498I-60000J0D01*
G01*
X45472503Y13801498D01*
G75*
G02*
X45412503Y13861498I0J60000D01*
G01*
G37*
G04 #@! TD*
G04 #@! TO.C,D2*
G36*
G01*
X67929339Y12924880D02*
X67929339Y11684880D01*
G75*
G02*
X67799339Y11554880I-130000J0D01*
G01*
X66759339Y11554880D01*
G75*
G02*
X66629339Y11684880I0J130000D01*
G01*
X66629339Y12924880D01*
G75*
G02*
X66759339Y13054880I130000J0D01*
G01*
X67799339Y13054880D01*
G75*
G02*
X67929339Y12924880I0J-130000D01*
G01*
G37*
G36*
G01*
X69829360Y12924880D02*
X69829360Y11684880D01*
G75*
G02*
X69699360Y11554880I-130000J0D01*
G01*
X68659360Y11554880D01*
G75*
G02*
X68529360Y11684880I0J130000D01*
G01*
X68529360Y12924880D01*
G75*
G02*
X68659360Y13054880I130000J0D01*
G01*
X69699360Y13054880D01*
G75*
G02*
X69829360Y12924880I0J-130000D01*
G01*
G37*
G04 #@! TD*
G04 #@! TO.C,D10*
G36*
G01*
X28220700Y119200022D02*
X26980700Y119200022D01*
G75*
G02*
X26850700Y119330022I0J130000D01*
G01*
X26850700Y120370022D01*
G75*
G02*
X26980700Y120500022I130000J0D01*
G01*
X28220700Y120500022D01*
G75*
G02*
X28350700Y120370022I0J-130000D01*
G01*
X28350700Y119330022D01*
G75*
G02*
X28220700Y119200022I-130000J0D01*
G01*
G37*
G36*
G01*
X28220700Y117300001D02*
X26980700Y117300001D01*
G75*
G02*
X26850700Y117430001I0J130000D01*
G01*
X26850700Y118470001D01*
G75*
G02*
X26980700Y118600001I130000J0D01*
G01*
X28220700Y118600001D01*
G75*
G02*
X28350700Y118470001I0J-130000D01*
G01*
X28350700Y117430001D01*
G75*
G02*
X28220700Y117300001I-130000J0D01*
G01*
G37*
G04 #@! TD*
D10*
G04 #@! TO.C,M10*
X19501707Y136653865D03*
X25004272Y136568664D03*
G36*
G01*
X29426704Y127828869D02*
X29426704Y127828869D01*
X29426704Y127828869D01*
X29426704Y127828869D01*
X29426704Y127828869D01*
G37*
X26426707Y127328860D03*
G04 #@! TD*
G04 #@! TO.C,D17*
G36*
G01*
X41900002Y98299999D02*
X42800002Y98299999D01*
G75*
G02*
X42900002Y98199999I0J-100000D01*
G01*
X42900002Y97399999D01*
G75*
G02*
X42800002Y97299999I-100000J0D01*
G01*
X41900002Y97299999D01*
G75*
G02*
X41800002Y97399999I0J100000D01*
G01*
X41800002Y98199999D01*
G75*
G02*
X41900002Y98299999I100000J0D01*
G01*
G37*
G36*
G01*
X41900002Y96599999D02*
X42800002Y96599999D01*
G75*
G02*
X42900002Y96499999I0J-100000D01*
G01*
X42900002Y95699999D01*
G75*
G02*
X42800002Y95599999I-100000J0D01*
G01*
X41900002Y95599999D01*
G75*
G02*
X41800002Y95699999I0J100000D01*
G01*
X41800002Y96499999D01*
G75*
G02*
X41900002Y96599999I100000J0D01*
G01*
G37*
G04 #@! TD*
G04 #@! TO.C,D3*
G36*
G01*
X124229150Y54485510D02*
X123329150Y54485510D01*
G75*
G02*
X123229150Y54585510I0J100000D01*
G01*
X123229150Y55385510D01*
G75*
G02*
X123329150Y55485510I100000J0D01*
G01*
X124229150Y55485510D01*
G75*
G02*
X124329150Y55385510I0J-100000D01*
G01*
X124329150Y54585510D01*
G75*
G02*
X124229150Y54485510I-100000J0D01*
G01*
G37*
G36*
G01*
X124229150Y56185510D02*
X123329150Y56185510D01*
G75*
G02*
X123229150Y56285510I0J100000D01*
G01*
X123229150Y57085510D01*
G75*
G02*
X123329150Y57185510I100000J0D01*
G01*
X124229150Y57185510D01*
G75*
G02*
X124329150Y57085510I0J-100000D01*
G01*
X124329150Y56285510D01*
G75*
G02*
X124229150Y56185510I-100000J0D01*
G01*
G37*
G04 #@! TD*
G04 #@! TO.C,U3*
G36*
G01*
X128255000Y91250000D02*
X128555000Y91250000D01*
G75*
G02*
X128705000Y91100000I0J-150000D01*
G01*
X128705000Y89450000D01*
G75*
G02*
X128555000Y89300000I-150000J0D01*
G01*
X128255000Y89300000D01*
G75*
G02*
X128105000Y89450000I0J150000D01*
G01*
X128105000Y91100000D01*
G75*
G02*
X128255000Y91250000I150000J0D01*
G01*
G37*
G36*
G01*
X126985000Y91250000D02*
X127285000Y91250000D01*
G75*
G02*
X127435000Y91100000I0J-150000D01*
G01*
X127435000Y89450000D01*
G75*
G02*
X127285000Y89300000I-150000J0D01*
G01*
X126985000Y89300000D01*
G75*
G02*
X126835000Y89450000I0J150000D01*
G01*
X126835000Y91100000D01*
G75*
G02*
X126985000Y91250000I150000J0D01*
G01*
G37*
G36*
G01*
X125715000Y91250000D02*
X126015000Y91250000D01*
G75*
G02*
X126165000Y91100000I0J-150000D01*
G01*
X126165000Y89450000D01*
G75*
G02*
X126015000Y89300000I-150000J0D01*
G01*
X125715000Y89300000D01*
G75*
G02*
X125565000Y89450000I0J150000D01*
G01*
X125565000Y91100000D01*
G75*
G02*
X125715000Y91250000I150000J0D01*
G01*
G37*
G36*
G01*
X124445000Y91250000D02*
X124745000Y91250000D01*
G75*
G02*
X124895000Y91100000I0J-150000D01*
G01*
X124895000Y89450000D01*
G75*
G02*
X124745000Y89300000I-150000J0D01*
G01*
X124445000Y89300000D01*
G75*
G02*
X124295000Y89450000I0J150000D01*
G01*
X124295000Y91100000D01*
G75*
G02*
X124445000Y91250000I150000J0D01*
G01*
G37*
G36*
G01*
X124445000Y86300000D02*
X124745000Y86300000D01*
G75*
G02*
X124895000Y86150000I0J-150000D01*
G01*
X124895000Y84500000D01*
G75*
G02*
X124745000Y84350000I-150000J0D01*
G01*
X124445000Y84350000D01*
G75*
G02*
X124295000Y84500000I0J150000D01*
G01*
X124295000Y86150000D01*
G75*
G02*
X124445000Y86300000I150000J0D01*
G01*
G37*
G36*
G01*
X125715000Y86300000D02*
X126015000Y86300000D01*
G75*
G02*
X126165000Y86150000I0J-150000D01*
G01*
X126165000Y84500000D01*
G75*
G02*
X126015000Y84350000I-150000J0D01*
G01*
X125715000Y84350000D01*
G75*
G02*
X125565000Y84500000I0J150000D01*
G01*
X125565000Y86150000D01*
G75*
G02*
X125715000Y86300000I150000J0D01*
G01*
G37*
G36*
G01*
X126985000Y86300000D02*
X127285000Y86300000D01*
G75*
G02*
X127435000Y86150000I0J-150000D01*
G01*
X127435000Y84500000D01*
G75*
G02*
X127285000Y84350000I-150000J0D01*
G01*
X126985000Y84350000D01*
G75*
G02*
X126835000Y84500000I0J150000D01*
G01*
X126835000Y86150000D01*
G75*
G02*
X126985000Y86300000I150000J0D01*
G01*
G37*
G36*
G01*
X128255000Y86300000D02*
X128555000Y86300000D01*
G75*
G02*
X128705000Y86150000I0J-150000D01*
G01*
X128705000Y84500000D01*
G75*
G02*
X128555000Y84350000I-150000J0D01*
G01*
X128255000Y84350000D01*
G75*
G02*
X128105000Y84500000I0J150000D01*
G01*
X128105000Y86150000D01*
G75*
G02*
X128255000Y86300000I150000J0D01*
G01*
G37*
G04 #@! TD*
G04 #@! TO.C,R47*
G36*
G01*
X116035960Y126844999D02*
X114785960Y126844999D01*
G75*
G02*
X114685960Y126944999I0J100000D01*
G01*
X114685960Y127744999D01*
G75*
G02*
X114785960Y127844999I100000J0D01*
G01*
X116035960Y127844999D01*
G75*
G02*
X116135960Y127744999I0J-100000D01*
G01*
X116135960Y126944999D01*
G75*
G02*
X116035960Y126844999I-100000J0D01*
G01*
G37*
G36*
G01*
X116035960Y128745021D02*
X114785960Y128745021D01*
G75*
G02*
X114685960Y128845021I0J100000D01*
G01*
X114685960Y129645021D01*
G75*
G02*
X114785960Y129745021I100000J0D01*
G01*
X116035960Y129745021D01*
G75*
G02*
X116135960Y129645021I0J-100000D01*
G01*
X116135960Y128845021D01*
G75*
G02*
X116035960Y128745021I-100000J0D01*
G01*
G37*
G04 #@! TD*
G04 #@! TO.C,R14*
G36*
G01*
X102950700Y110097060D02*
X102950700Y109317060D01*
G75*
G02*
X102880700Y109247060I-70000J0D01*
G01*
X102320700Y109247060D01*
G75*
G02*
X102250700Y109317060I0J70000D01*
G01*
X102250700Y110097060D01*
G75*
G02*
X102320700Y110167060I70000J0D01*
G01*
X102880700Y110167060D01*
G75*
G02*
X102950700Y110097060I0J-70000D01*
G01*
G37*
G36*
G01*
X101350700Y110097060D02*
X101350700Y109317060D01*
G75*
G02*
X101280700Y109247060I-70000J0D01*
G01*
X100720700Y109247060D01*
G75*
G02*
X100650700Y109317060I0J70000D01*
G01*
X100650700Y110097060D01*
G75*
G02*
X100720700Y110167060I70000J0D01*
G01*
X101280700Y110167060D01*
G75*
G02*
X101350700Y110097060I0J-70000D01*
G01*
G37*
G04 #@! TD*
G04 #@! TO.C,D5*
G36*
G01*
X29710960Y120340000D02*
X29710960Y119860000D01*
G75*
G02*
X29650960Y119800000I-60000J0D01*
G01*
X29170960Y119800000D01*
G75*
G02*
X29110960Y119860000I0J60000D01*
G01*
X29110960Y120340000D01*
G75*
G02*
X29170960Y120400000I60000J0D01*
G01*
X29650960Y120400000D01*
G75*
G02*
X29710960Y120340000I0J-60000D01*
G01*
G37*
G36*
G01*
X29710960Y118140000D02*
X29710960Y117660000D01*
G75*
G02*
X29650960Y117600000I-60000J0D01*
G01*
X29170960Y117600000D01*
G75*
G02*
X29110960Y117660000I0J60000D01*
G01*
X29110960Y118140000D01*
G75*
G02*
X29170960Y118200000I60000J0D01*
G01*
X29650960Y118200000D01*
G75*
G02*
X29710960Y118140000I0J-60000D01*
G01*
G37*
G04 #@! TD*
G04 #@! TO.C,R34*
G36*
G01*
X49435960Y126849999D02*
X48185960Y126849999D01*
G75*
G02*
X48085960Y126949999I0J100000D01*
G01*
X48085960Y127749999D01*
G75*
G02*
X48185960Y127849999I100000J0D01*
G01*
X49435960Y127849999D01*
G75*
G02*
X49535960Y127749999I0J-100000D01*
G01*
X49535960Y126949999D01*
G75*
G02*
X49435960Y126849999I-100000J0D01*
G01*
G37*
G36*
G01*
X49435960Y128750021D02*
X48185960Y128750021D01*
G75*
G02*
X48085960Y128850021I0J100000D01*
G01*
X48085960Y129650021D01*
G75*
G02*
X48185960Y129750021I100000J0D01*
G01*
X49435960Y129750021D01*
G75*
G02*
X49535960Y129650021I0J-100000D01*
G01*
X49535960Y128850021D01*
G75*
G02*
X49435960Y128750021I-100000J0D01*
G01*
G37*
G04 #@! TD*
G04 #@! TO.C,R35*
G36*
G01*
X44935960Y133349999D02*
X43685960Y133349999D01*
G75*
G02*
X43585960Y133449999I0J100000D01*
G01*
X43585960Y134249999D01*
G75*
G02*
X43685960Y134349999I100000J0D01*
G01*
X44935960Y134349999D01*
G75*
G02*
X45035960Y134249999I0J-100000D01*
G01*
X45035960Y133449999D01*
G75*
G02*
X44935960Y133349999I-100000J0D01*
G01*
G37*
G36*
G01*
X44935960Y135250021D02*
X43685960Y135250021D01*
G75*
G02*
X43585960Y135350021I0J100000D01*
G01*
X43585960Y136150021D01*
G75*
G02*
X43685960Y136250021I100000J0D01*
G01*
X44935960Y136250021D01*
G75*
G02*
X45035960Y136150021I0J-100000D01*
G01*
X45035960Y135350021D01*
G75*
G02*
X44935960Y135250021I-100000J0D01*
G01*
G37*
G04 #@! TD*
G04 #@! TO.C,D18*
G36*
G01*
X40000002Y98299999D02*
X40900002Y98299999D01*
G75*
G02*
X41000002Y98199999I0J-100000D01*
G01*
X41000002Y97399999D01*
G75*
G02*
X40900002Y97299999I-100000J0D01*
G01*
X40000002Y97299999D01*
G75*
G02*
X39900002Y97399999I0J100000D01*
G01*
X39900002Y98199999D01*
G75*
G02*
X40000002Y98299999I100000J0D01*
G01*
G37*
G36*
G01*
X40000002Y96599999D02*
X40900002Y96599999D01*
G75*
G02*
X41000002Y96499999I0J-100000D01*
G01*
X41000002Y95699999D01*
G75*
G02*
X40900002Y95599999I-100000J0D01*
G01*
X40000002Y95599999D01*
G75*
G02*
X39900002Y95699999I0J100000D01*
G01*
X39900002Y96499999D01*
G75*
G02*
X40000002Y96599999I100000J0D01*
G01*
G37*
G04 #@! TD*
G04 #@! TO.C,D20*
G36*
G01*
X47500000Y98245561D02*
X47500000Y97765561D01*
G75*
G02*
X47440000Y97705561I-60000J0D01*
G01*
X46960000Y97705561D01*
G75*
G02*
X46900000Y97765561I0J60000D01*
G01*
X46900000Y98245561D01*
G75*
G02*
X46960000Y98305561I60000J0D01*
G01*
X47440000Y98305561D01*
G75*
G02*
X47500000Y98245561I0J-60000D01*
G01*
G37*
G36*
G01*
X47500000Y96045561D02*
X47500000Y95565561D01*
G75*
G02*
X47440000Y95505561I-60000J0D01*
G01*
X46960000Y95505561D01*
G75*
G02*
X46900000Y95565561I0J60000D01*
G01*
X46900000Y96045561D01*
G75*
G02*
X46960000Y96105561I60000J0D01*
G01*
X47440000Y96105561D01*
G75*
G02*
X47500000Y96045561I0J-60000D01*
G01*
G37*
G04 #@! TD*
G04 #@! TO.C,D27*
G36*
G01*
X96700701Y107307062D02*
X96700701Y108207062D01*
G75*
G02*
X96800701Y108307062I100000J0D01*
G01*
X97600701Y108307062D01*
G75*
G02*
X97700701Y108207062I0J-100000D01*
G01*
X97700701Y107307062D01*
G75*
G02*
X97600701Y107207062I-100000J0D01*
G01*
X96800701Y107207062D01*
G75*
G02*
X96700701Y107307062I0J100000D01*
G01*
G37*
G36*
G01*
X98400701Y107307062D02*
X98400701Y108207062D01*
G75*
G02*
X98500701Y108307062I100000J0D01*
G01*
X99300701Y108307062D01*
G75*
G02*
X99400701Y108207062I0J-100000D01*
G01*
X99400701Y107307062D01*
G75*
G02*
X99300701Y107207062I-100000J0D01*
G01*
X98500701Y107207062D01*
G75*
G02*
X98400701Y107307062I0J100000D01*
G01*
G37*
G04 #@! TD*
G04 #@! TO.C,R37*
G36*
G01*
X43435960Y126849999D02*
X42185960Y126849999D01*
G75*
G02*
X42085960Y126949999I0J100000D01*
G01*
X42085960Y127749999D01*
G75*
G02*
X42185960Y127849999I100000J0D01*
G01*
X43435960Y127849999D01*
G75*
G02*
X43535960Y127749999I0J-100000D01*
G01*
X43535960Y126949999D01*
G75*
G02*
X43435960Y126849999I-100000J0D01*
G01*
G37*
G36*
G01*
X43435960Y128750021D02*
X42185960Y128750021D01*
G75*
G02*
X42085960Y128850021I0J100000D01*
G01*
X42085960Y129650021D01*
G75*
G02*
X42185960Y129750021I100000J0D01*
G01*
X43435960Y129750021D01*
G75*
G02*
X43535960Y129650021I0J-100000D01*
G01*
X43535960Y128850021D01*
G75*
G02*
X43435960Y128750021I-100000J0D01*
G01*
G37*
G04 #@! TD*
G04 #@! TO.C,R28*
G36*
G01*
X62935960Y133349999D02*
X61685960Y133349999D01*
G75*
G02*
X61585960Y133449999I0J100000D01*
G01*
X61585960Y134249999D01*
G75*
G02*
X61685960Y134349999I100000J0D01*
G01*
X62935960Y134349999D01*
G75*
G02*
X63035960Y134249999I0J-100000D01*
G01*
X63035960Y133449999D01*
G75*
G02*
X62935960Y133349999I-100000J0D01*
G01*
G37*
G36*
G01*
X62935960Y135250021D02*
X61685960Y135250021D01*
G75*
G02*
X61585960Y135350021I0J100000D01*
G01*
X61585960Y136150021D01*
G75*
G02*
X61685960Y136250021I100000J0D01*
G01*
X62935960Y136250021D01*
G75*
G02*
X63035960Y136150021I0J-100000D01*
G01*
X63035960Y135350021D01*
G75*
G02*
X62935960Y135250021I-100000J0D01*
G01*
G37*
G04 #@! TD*
G04 #@! TO.C,R26*
G36*
G01*
X135035960Y126844999D02*
X133785960Y126844999D01*
G75*
G02*
X133685960Y126944999I0J100000D01*
G01*
X133685960Y127744999D01*
G75*
G02*
X133785960Y127844999I100000J0D01*
G01*
X135035960Y127844999D01*
G75*
G02*
X135135960Y127744999I0J-100000D01*
G01*
X135135960Y126944999D01*
G75*
G02*
X135035960Y126844999I-100000J0D01*
G01*
G37*
G36*
G01*
X135035960Y128745021D02*
X133785960Y128745021D01*
G75*
G02*
X133685960Y128845021I0J100000D01*
G01*
X133685960Y129645021D01*
G75*
G02*
X133785960Y129745021I100000J0D01*
G01*
X135035960Y129745021D01*
G75*
G02*
X135135960Y129645021I0J-100000D01*
G01*
X135135960Y128845021D01*
G75*
G02*
X135035960Y128745021I-100000J0D01*
G01*
G37*
G04 #@! TD*
G04 #@! TO.C,D24*
G36*
G01*
X83101360Y71950880D02*
X82321360Y71950880D01*
G75*
G02*
X82261360Y72010880I0J60000D01*
G01*
X82261360Y72490880D01*
G75*
G02*
X82321360Y72550880I60000J0D01*
G01*
X83101360Y72550880D01*
G75*
G02*
X83161360Y72490880I0J-60000D01*
G01*
X83161360Y72010880D01*
G75*
G02*
X83101360Y71950880I-60000J0D01*
G01*
G37*
G36*
G01*
X83101360Y72900880D02*
X82321360Y72900880D01*
G75*
G02*
X82261360Y72960880I0J60000D01*
G01*
X82261360Y73440880D01*
G75*
G02*
X82321360Y73500880I60000J0D01*
G01*
X83101360Y73500880D01*
G75*
G02*
X83161360Y73440880I0J-60000D01*
G01*
X83161360Y72960880D01*
G75*
G02*
X83101360Y72900880I-60000J0D01*
G01*
G37*
G36*
G01*
X83101360Y73850880D02*
X82321360Y73850880D01*
G75*
G02*
X82261360Y73910880I0J60000D01*
G01*
X82261360Y74390880D01*
G75*
G02*
X82321360Y74450880I60000J0D01*
G01*
X83101360Y74450880D01*
G75*
G02*
X83161360Y74390880I0J-60000D01*
G01*
X83161360Y73910880D01*
G75*
G02*
X83101360Y73850880I-60000J0D01*
G01*
G37*
G36*
G01*
X80701360Y73850880D02*
X79921360Y73850880D01*
G75*
G02*
X79861360Y73910880I0J60000D01*
G01*
X79861360Y74390880D01*
G75*
G02*
X79921360Y74450880I60000J0D01*
G01*
X80701360Y74450880D01*
G75*
G02*
X80761360Y74390880I0J-60000D01*
G01*
X80761360Y73910880D01*
G75*
G02*
X80701360Y73850880I-60000J0D01*
G01*
G37*
G36*
G01*
X80701360Y72900880D02*
X79921360Y72900880D01*
G75*
G02*
X79861360Y72960880I0J60000D01*
G01*
X79861360Y73440880D01*
G75*
G02*
X79921360Y73500880I60000J0D01*
G01*
X80701360Y73500880D01*
G75*
G02*
X80761360Y73440880I0J-60000D01*
G01*
X80761360Y72960880D01*
G75*
G02*
X80701360Y72900880I-60000J0D01*
G01*
G37*
G36*
G01*
X80701360Y71950880D02*
X79921360Y71950880D01*
G75*
G02*
X79861360Y72010880I0J60000D01*
G01*
X79861360Y72490880D01*
G75*
G02*
X79921360Y72550880I60000J0D01*
G01*
X80701360Y72550880D01*
G75*
G02*
X80761360Y72490880I0J-60000D01*
G01*
X80761360Y72010880D01*
G75*
G02*
X80701360Y71950880I-60000J0D01*
G01*
G37*
G04 #@! TD*
G04 #@! TO.C,R25*
G36*
G01*
X133535960Y133349999D02*
X132285960Y133349999D01*
G75*
G02*
X132185960Y133449999I0J100000D01*
G01*
X132185960Y134249999D01*
G75*
G02*
X132285960Y134349999I100000J0D01*
G01*
X133535960Y134349999D01*
G75*
G02*
X133635960Y134249999I0J-100000D01*
G01*
X133635960Y133449999D01*
G75*
G02*
X133535960Y133349999I-100000J0D01*
G01*
G37*
G36*
G01*
X133535960Y135250021D02*
X132285960Y135250021D01*
G75*
G02*
X132185960Y135350021I0J100000D01*
G01*
X132185960Y136150021D01*
G75*
G02*
X132285960Y136250021I100000J0D01*
G01*
X133535960Y136250021D01*
G75*
G02*
X133635960Y136150021I0J-100000D01*
G01*
X133635960Y135350021D01*
G75*
G02*
X133535960Y135250021I-100000J0D01*
G01*
G37*
G04 #@! TD*
G04 #@! TO.C,R27*
G36*
G01*
X108785960Y123945001D02*
X110035960Y123945001D01*
G75*
G02*
X110135960Y123845001I0J-100000D01*
G01*
X110135960Y123045001D01*
G75*
G02*
X110035960Y122945001I-100000J0D01*
G01*
X108785960Y122945001D01*
G75*
G02*
X108685960Y123045001I0J100000D01*
G01*
X108685960Y123845001D01*
G75*
G02*
X108785960Y123945001I100000J0D01*
G01*
G37*
G36*
G01*
X108785960Y122044979D02*
X110035960Y122044979D01*
G75*
G02*
X110135960Y121944979I0J-100000D01*
G01*
X110135960Y121144979D01*
G75*
G02*
X110035960Y121044979I-100000J0D01*
G01*
X108785960Y121044979D01*
G75*
G02*
X108685960Y121144979I0J100000D01*
G01*
X108685960Y121944979D01*
G75*
G02*
X108785960Y122044979I100000J0D01*
G01*
G37*
G04 #@! TD*
G04 #@! TO.C,M6*
X104716859Y25348214D03*
G04 #@! TD*
G04 #@! TO.C,R15*
G36*
G01*
X102950700Y108197060D02*
X102950700Y107417060D01*
G75*
G02*
X102880700Y107347060I-70000J0D01*
G01*
X102320700Y107347060D01*
G75*
G02*
X102250700Y107417060I0J70000D01*
G01*
X102250700Y108197060D01*
G75*
G02*
X102320700Y108267060I70000J0D01*
G01*
X102880700Y108267060D01*
G75*
G02*
X102950700Y108197060I0J-70000D01*
G01*
G37*
G36*
G01*
X101350700Y108197060D02*
X101350700Y107417060D01*
G75*
G02*
X101280700Y107347060I-70000J0D01*
G01*
X100720700Y107347060D01*
G75*
G02*
X100650700Y107417060I0J70000D01*
G01*
X100650700Y108197060D01*
G75*
G02*
X100720700Y108267060I70000J0D01*
G01*
X101280700Y108267060D01*
G75*
G02*
X101350700Y108197060I0J-70000D01*
G01*
G37*
G04 #@! TD*
G04 #@! TO.C,R19*
G36*
G01*
X57025700Y126857059D02*
X55775700Y126857059D01*
G75*
G02*
X55675700Y126957059I0J100000D01*
G01*
X55675700Y127757059D01*
G75*
G02*
X55775700Y127857059I100000J0D01*
G01*
X57025700Y127857059D01*
G75*
G02*
X57125700Y127757059I0J-100000D01*
G01*
X57125700Y126957059D01*
G75*
G02*
X57025700Y126857059I-100000J0D01*
G01*
G37*
G36*
G01*
X57025700Y128757081D02*
X55775700Y128757081D01*
G75*
G02*
X55675700Y128857081I0J100000D01*
G01*
X55675700Y129657081D01*
G75*
G02*
X55775700Y129757081I100000J0D01*
G01*
X57025700Y129757081D01*
G75*
G02*
X57125700Y129657081I0J-100000D01*
G01*
X57125700Y128857081D01*
G75*
G02*
X57025700Y128757081I-100000J0D01*
G01*
G37*
G04 #@! TD*
G04 #@! TO.C,R39*
G36*
G01*
X40435960Y126849999D02*
X39185960Y126849999D01*
G75*
G02*
X39085960Y126949999I0J100000D01*
G01*
X39085960Y127749999D01*
G75*
G02*
X39185960Y127849999I100000J0D01*
G01*
X40435960Y127849999D01*
G75*
G02*
X40535960Y127749999I0J-100000D01*
G01*
X40535960Y126949999D01*
G75*
G02*
X40435960Y126849999I-100000J0D01*
G01*
G37*
G36*
G01*
X40435960Y128750021D02*
X39185960Y128750021D01*
G75*
G02*
X39085960Y128850021I0J100000D01*
G01*
X39085960Y129650021D01*
G75*
G02*
X39185960Y129750021I100000J0D01*
G01*
X40435960Y129750021D01*
G75*
G02*
X40535960Y129650021I0J-100000D01*
G01*
X40535960Y128850021D01*
G75*
G02*
X40435960Y128750021I-100000J0D01*
G01*
G37*
G04 #@! TD*
G04 #@! TO.C,R49*
G36*
G01*
X102535960Y133394098D02*
X101285960Y133394098D01*
G75*
G02*
X101185960Y133494098I0J100000D01*
G01*
X101185960Y134294098D01*
G75*
G02*
X101285960Y134394098I100000J0D01*
G01*
X102535960Y134394098D01*
G75*
G02*
X102635960Y134294098I0J-100000D01*
G01*
X102635960Y133494098D01*
G75*
G02*
X102535960Y133394098I-100000J0D01*
G01*
G37*
G36*
G01*
X102535960Y135294120D02*
X101285960Y135294120D01*
G75*
G02*
X101185960Y135394120I0J100000D01*
G01*
X101185960Y136194120D01*
G75*
G02*
X101285960Y136294120I100000J0D01*
G01*
X102535960Y136294120D01*
G75*
G02*
X102635960Y136194120I0J-100000D01*
G01*
X102635960Y135394120D01*
G75*
G02*
X102535960Y135294120I-100000J0D01*
G01*
G37*
G04 #@! TD*
G04 #@! TO.C,D4*
G36*
G01*
X122229150Y54485510D02*
X121329150Y54485510D01*
G75*
G02*
X121229150Y54585510I0J100000D01*
G01*
X121229150Y55385510D01*
G75*
G02*
X121329150Y55485510I100000J0D01*
G01*
X122229150Y55485510D01*
G75*
G02*
X122329150Y55385510I0J-100000D01*
G01*
X122329150Y54585510D01*
G75*
G02*
X122229150Y54485510I-100000J0D01*
G01*
G37*
G36*
G01*
X122229150Y56185510D02*
X121329150Y56185510D01*
G75*
G02*
X121229150Y56285510I0J100000D01*
G01*
X121229150Y57085510D01*
G75*
G02*
X121329150Y57185510I100000J0D01*
G01*
X122229150Y57185510D01*
G75*
G02*
X122329150Y57085510I0J-100000D01*
G01*
X122329150Y56285510D01*
G75*
G02*
X122229150Y56185510I-100000J0D01*
G01*
G37*
G04 #@! TD*
G04 #@! TO.C,D7*
G36*
G01*
X68610211Y85350749D02*
X69510211Y85350749D01*
G75*
G02*
X69610211Y85250749I0J-100000D01*
G01*
X69610211Y84450749D01*
G75*
G02*
X69510211Y84350749I-100000J0D01*
G01*
X68610211Y84350749D01*
G75*
G02*
X68510211Y84450749I0J100000D01*
G01*
X68510211Y85250749D01*
G75*
G02*
X68610211Y85350749I100000J0D01*
G01*
G37*
G36*
G01*
X68610211Y83650749D02*
X69510211Y83650749D01*
G75*
G02*
X69610211Y83550749I0J-100000D01*
G01*
X69610211Y82750749D01*
G75*
G02*
X69510211Y82650749I-100000J0D01*
G01*
X68610211Y82650749D01*
G75*
G02*
X68510211Y82750749I0J100000D01*
G01*
X68510211Y83550749D01*
G75*
G02*
X68610211Y83650749I100000J0D01*
G01*
G37*
G04 #@! TD*
G04 #@! TO.C,C5*
G36*
G01*
X129660000Y86715001D02*
X130340000Y86715001D01*
G75*
G02*
X130425000Y86630001I0J-85000D01*
G01*
X130425000Y85950001D01*
G75*
G02*
X130340000Y85865001I-85000J0D01*
G01*
X129660000Y85865001D01*
G75*
G02*
X129575000Y85950001I0J85000D01*
G01*
X129575000Y86630001D01*
G75*
G02*
X129660000Y86715001I85000J0D01*
G01*
G37*
G36*
G01*
X129660000Y85134999D02*
X130340000Y85134999D01*
G75*
G02*
X130425000Y85049999I0J-85000D01*
G01*
X130425000Y84369999D01*
G75*
G02*
X130340000Y84284999I-85000J0D01*
G01*
X129660000Y84284999D01*
G75*
G02*
X129575000Y84369999I0J85000D01*
G01*
X129575000Y85049999D01*
G75*
G02*
X129660000Y85134999I85000J0D01*
G01*
G37*
G04 #@! TD*
G04 #@! TO.C,R1*
G36*
G01*
X124429152Y61020509D02*
X124429152Y60350509D01*
G75*
G02*
X124364152Y60285509I-65000J0D01*
G01*
X123844152Y60285509D01*
G75*
G02*
X123779152Y60350509I0J65000D01*
G01*
X123779152Y61020509D01*
G75*
G02*
X123844152Y61085509I65000J0D01*
G01*
X124364152Y61085509D01*
G75*
G02*
X124429152Y61020509I0J-65000D01*
G01*
G37*
G36*
G01*
X123454152Y61040509D02*
X123454152Y60330509D01*
G75*
G02*
X123409152Y60285509I-45000J0D01*
G01*
X123049152Y60285509D01*
G75*
G02*
X123004152Y60330509I0J45000D01*
G01*
X123004152Y61040509D01*
G75*
G02*
X123049152Y61085509I45000J0D01*
G01*
X123409152Y61085509D01*
G75*
G02*
X123454152Y61040509I0J-45000D01*
G01*
G37*
G36*
G01*
X122654152Y61040509D02*
X122654152Y60330509D01*
G75*
G02*
X122609152Y60285509I-45000J0D01*
G01*
X122249152Y60285509D01*
G75*
G02*
X122204152Y60330509I0J45000D01*
G01*
X122204152Y61040509D01*
G75*
G02*
X122249152Y61085509I45000J0D01*
G01*
X122609152Y61085509D01*
G75*
G02*
X122654152Y61040509I0J-45000D01*
G01*
G37*
G36*
G01*
X121879152Y61020509D02*
X121879152Y60350509D01*
G75*
G02*
X121814152Y60285509I-65000J0D01*
G01*
X121294152Y60285509D01*
G75*
G02*
X121229152Y60350509I0J65000D01*
G01*
X121229152Y61020509D01*
G75*
G02*
X121294152Y61085509I65000J0D01*
G01*
X121814152Y61085509D01*
G75*
G02*
X121879152Y61020509I0J-65000D01*
G01*
G37*
G36*
G01*
X121879152Y59220509D02*
X121879152Y58550509D01*
G75*
G02*
X121814152Y58485509I-65000J0D01*
G01*
X121294152Y58485509D01*
G75*
G02*
X121229152Y58550509I0J65000D01*
G01*
X121229152Y59220509D01*
G75*
G02*
X121294152Y59285509I65000J0D01*
G01*
X121814152Y59285509D01*
G75*
G02*
X121879152Y59220509I0J-65000D01*
G01*
G37*
G36*
G01*
X122654152Y59240509D02*
X122654152Y58530509D01*
G75*
G02*
X122609152Y58485509I-45000J0D01*
G01*
X122249152Y58485509D01*
G75*
G02*
X122204152Y58530509I0J45000D01*
G01*
X122204152Y59240509D01*
G75*
G02*
X122249152Y59285509I45000J0D01*
G01*
X122609152Y59285509D01*
G75*
G02*
X122654152Y59240509I0J-45000D01*
G01*
G37*
G36*
G01*
X123454152Y59240509D02*
X123454152Y58530509D01*
G75*
G02*
X123409152Y58485509I-45000J0D01*
G01*
X123049152Y58485509D01*
G75*
G02*
X123004152Y58530509I0J45000D01*
G01*
X123004152Y59240509D01*
G75*
G02*
X123049152Y59285509I45000J0D01*
G01*
X123409152Y59285509D01*
G75*
G02*
X123454152Y59240509I0J-45000D01*
G01*
G37*
G36*
G01*
X124429152Y59220509D02*
X124429152Y58550509D01*
G75*
G02*
X124364152Y58485509I-65000J0D01*
G01*
X123844152Y58485509D01*
G75*
G02*
X123779152Y58550509I0J65000D01*
G01*
X123779152Y59220509D01*
G75*
G02*
X123844152Y59285509I65000J0D01*
G01*
X124364152Y59285509D01*
G75*
G02*
X124429152Y59220509I0J-65000D01*
G01*
G37*
G04 #@! TD*
G04 #@! TO.C,R7*
G36*
G01*
X43000000Y102235000D02*
X43000000Y101565000D01*
G75*
G02*
X42935000Y101500000I-65000J0D01*
G01*
X42415000Y101500000D01*
G75*
G02*
X42350000Y101565000I0J65000D01*
G01*
X42350000Y102235000D01*
G75*
G02*
X42415000Y102300000I65000J0D01*
G01*
X42935000Y102300000D01*
G75*
G02*
X43000000Y102235000I0J-65000D01*
G01*
G37*
G36*
G01*
X42025000Y102255000D02*
X42025000Y101545000D01*
G75*
G02*
X41980000Y101500000I-45000J0D01*
G01*
X41620000Y101500000D01*
G75*
G02*
X41575000Y101545000I0J45000D01*
G01*
X41575000Y102255000D01*
G75*
G02*
X41620000Y102300000I45000J0D01*
G01*
X41980000Y102300000D01*
G75*
G02*
X42025000Y102255000I0J-45000D01*
G01*
G37*
G36*
G01*
X41225000Y102255000D02*
X41225000Y101545000D01*
G75*
G02*
X41180000Y101500000I-45000J0D01*
G01*
X40820000Y101500000D01*
G75*
G02*
X40775000Y101545000I0J45000D01*
G01*
X40775000Y102255000D01*
G75*
G02*
X40820000Y102300000I45000J0D01*
G01*
X41180000Y102300000D01*
G75*
G02*
X41225000Y102255000I0J-45000D01*
G01*
G37*
G36*
G01*
X40450000Y102235000D02*
X40450000Y101565000D01*
G75*
G02*
X40385000Y101500000I-65000J0D01*
G01*
X39865000Y101500000D01*
G75*
G02*
X39800000Y101565000I0J65000D01*
G01*
X39800000Y102235000D01*
G75*
G02*
X39865000Y102300000I65000J0D01*
G01*
X40385000Y102300000D01*
G75*
G02*
X40450000Y102235000I0J-65000D01*
G01*
G37*
G36*
G01*
X40450000Y100435000D02*
X40450000Y99765000D01*
G75*
G02*
X40385000Y99700000I-65000J0D01*
G01*
X39865000Y99700000D01*
G75*
G02*
X39800000Y99765000I0J65000D01*
G01*
X39800000Y100435000D01*
G75*
G02*
X39865000Y100500000I65000J0D01*
G01*
X40385000Y100500000D01*
G75*
G02*
X40450000Y100435000I0J-65000D01*
G01*
G37*
G36*
G01*
X41225000Y100455000D02*
X41225000Y99745000D01*
G75*
G02*
X41180000Y99700000I-45000J0D01*
G01*
X40820000Y99700000D01*
G75*
G02*
X40775000Y99745000I0J45000D01*
G01*
X40775000Y100455000D01*
G75*
G02*
X40820000Y100500000I45000J0D01*
G01*
X41180000Y100500000D01*
G75*
G02*
X41225000Y100455000I0J-45000D01*
G01*
G37*
G36*
G01*
X42025000Y100455000D02*
X42025000Y99745000D01*
G75*
G02*
X41980000Y99700000I-45000J0D01*
G01*
X41620000Y99700000D01*
G75*
G02*
X41575000Y99745000I0J45000D01*
G01*
X41575000Y100455000D01*
G75*
G02*
X41620000Y100500000I45000J0D01*
G01*
X41980000Y100500000D01*
G75*
G02*
X42025000Y100455000I0J-45000D01*
G01*
G37*
G36*
G01*
X43000000Y100435000D02*
X43000000Y99765000D01*
G75*
G02*
X42935000Y99700000I-65000J0D01*
G01*
X42415000Y99700000D01*
G75*
G02*
X42350000Y99765000I0J65000D01*
G01*
X42350000Y100435000D01*
G75*
G02*
X42415000Y100500000I65000J0D01*
G01*
X42935000Y100500000D01*
G75*
G02*
X43000000Y100435000I0J-65000D01*
G01*
G37*
G04 #@! TD*
G04 #@! TO.C,R20*
G36*
G01*
X54636360Y123080879D02*
X53386360Y123080879D01*
G75*
G02*
X53286360Y123180879I0J100000D01*
G01*
X53286360Y123980879D01*
G75*
G02*
X53386360Y124080879I100000J0D01*
G01*
X54636360Y124080879D01*
G75*
G02*
X54736360Y123980879I0J-100000D01*
G01*
X54736360Y123180879D01*
G75*
G02*
X54636360Y123080879I-100000J0D01*
G01*
G37*
G36*
G01*
X54636360Y124980901D02*
X53386360Y124980901D01*
G75*
G02*
X53286360Y125080901I0J100000D01*
G01*
X53286360Y125880901D01*
G75*
G02*
X53386360Y125980901I100000J0D01*
G01*
X54636360Y125980901D01*
G75*
G02*
X54736360Y125880901I0J-100000D01*
G01*
X54736360Y125080901D01*
G75*
G02*
X54636360Y124980901I-100000J0D01*
G01*
G37*
G04 #@! TD*
G04 #@! TO.C,R46*
G36*
G01*
X114535960Y133344999D02*
X113285960Y133344999D01*
G75*
G02*
X113185960Y133444999I0J100000D01*
G01*
X113185960Y134244999D01*
G75*
G02*
X113285960Y134344999I100000J0D01*
G01*
X114535960Y134344999D01*
G75*
G02*
X114635960Y134244999I0J-100000D01*
G01*
X114635960Y133444999D01*
G75*
G02*
X114535960Y133344999I-100000J0D01*
G01*
G37*
G36*
G01*
X114535960Y135245021D02*
X113285960Y135245021D01*
G75*
G02*
X113185960Y135345021I0J100000D01*
G01*
X113185960Y136145021D01*
G75*
G02*
X113285960Y136245021I100000J0D01*
G01*
X114535960Y136245021D01*
G75*
G02*
X114635960Y136145021I0J-100000D01*
G01*
X114635960Y135345021D01*
G75*
G02*
X114535960Y135245021I-100000J0D01*
G01*
G37*
G04 #@! TD*
G04 #@! TO.C,C2*
G36*
G01*
X125760700Y50922061D02*
X126440700Y50922061D01*
G75*
G02*
X126525700Y50837061I0J-85000D01*
G01*
X126525700Y50157061D01*
G75*
G02*
X126440700Y50072061I-85000J0D01*
G01*
X125760700Y50072061D01*
G75*
G02*
X125675700Y50157061I0J85000D01*
G01*
X125675700Y50837061D01*
G75*
G02*
X125760700Y50922061I85000J0D01*
G01*
G37*
G36*
G01*
X125760700Y49342059D02*
X126440700Y49342059D01*
G75*
G02*
X126525700Y49257059I0J-85000D01*
G01*
X126525700Y48577059D01*
G75*
G02*
X126440700Y48492059I-85000J0D01*
G01*
X125760700Y48492059D01*
G75*
G02*
X125675700Y48577059I0J85000D01*
G01*
X125675700Y49257059D01*
G75*
G02*
X125760700Y49342059I85000J0D01*
G01*
G37*
G04 #@! TD*
G04 #@! TO.C,R12*
G36*
G01*
X128035960Y126844999D02*
X126785960Y126844999D01*
G75*
G02*
X126685960Y126944999I0J100000D01*
G01*
X126685960Y127744999D01*
G75*
G02*
X126785960Y127844999I100000J0D01*
G01*
X128035960Y127844999D01*
G75*
G02*
X128135960Y127744999I0J-100000D01*
G01*
X128135960Y126944999D01*
G75*
G02*
X128035960Y126844999I-100000J0D01*
G01*
G37*
G36*
G01*
X128035960Y128745021D02*
X126785960Y128745021D01*
G75*
G02*
X126685960Y128845021I0J100000D01*
G01*
X126685960Y129645021D01*
G75*
G02*
X126785960Y129745021I100000J0D01*
G01*
X128035960Y129745021D01*
G75*
G02*
X128135960Y129645021I0J-100000D01*
G01*
X128135960Y128845021D01*
G75*
G02*
X128035960Y128745021I-100000J0D01*
G01*
G37*
G04 #@! TD*
G04 #@! TO.C,R10*
G36*
G01*
X114035960Y122894978D02*
X112785960Y122894978D01*
G75*
G02*
X112685960Y122994978I0J100000D01*
G01*
X112685960Y123794978D01*
G75*
G02*
X112785960Y123894978I100000J0D01*
G01*
X114035960Y123894978D01*
G75*
G02*
X114135960Y123794978I0J-100000D01*
G01*
X114135960Y122994978D01*
G75*
G02*
X114035960Y122894978I-100000J0D01*
G01*
G37*
G36*
G01*
X114035960Y124795000D02*
X112785960Y124795000D01*
G75*
G02*
X112685960Y124895000I0J100000D01*
G01*
X112685960Y125695000D01*
G75*
G02*
X112785960Y125795000I100000J0D01*
G01*
X114035960Y125795000D01*
G75*
G02*
X114135960Y125695000I0J-100000D01*
G01*
X114135960Y124895000D01*
G75*
G02*
X114035960Y124795000I-100000J0D01*
G01*
G37*
G04 #@! TD*
G04 #@! TO.C,D13*
G36*
G01*
X70997706Y85289251D02*
X70997706Y84809251D01*
G75*
G02*
X70937706Y84749251I-60000J0D01*
G01*
X70457706Y84749251D01*
G75*
G02*
X70397706Y84809251I0J60000D01*
G01*
X70397706Y85289251D01*
G75*
G02*
X70457706Y85349251I60000J0D01*
G01*
X70937706Y85349251D01*
G75*
G02*
X70997706Y85289251I0J-60000D01*
G01*
G37*
G36*
G01*
X70997706Y83089251D02*
X70997706Y82609251D01*
G75*
G02*
X70937706Y82549251I-60000J0D01*
G01*
X70457706Y82549251D01*
G75*
G02*
X70397706Y82609251I0J60000D01*
G01*
X70397706Y83089251D01*
G75*
G02*
X70457706Y83149251I60000J0D01*
G01*
X70937706Y83149251D01*
G75*
G02*
X70997706Y83089251I0J-60000D01*
G01*
G37*
G04 #@! TD*
G04 #@! TO.C,M11*
X18204148Y77912497D03*
X14798437Y92787499D03*
X18748452Y116607495D03*
X16848451Y116607500D03*
X20206125Y79612514D03*
G04 #@! TD*
M02*
