M48
; DRILL file {KiCad (5.99.0-10192-g8d0191151d)} date Mon Apr 12 23:11:14 2021
; FORMAT={2:4/ absolute / inch / suppress leading zeros}
; #@! TF.CreationDate,2021-04-12T23:11:14+03:00
; #@! TF.GenerationSoftware,Kicad,Pcbnew,(5.99.0-10192-g8d0191151d)
; #@! TF.FileFunction,MixedPlating,1,2
FMAT,2
INCH,TZ
; #@! TA.AperFunction,Plated,PTH,ComponentDrill
T1C0.0118
; #@! TA.AperFunction,Plated,PTH,ViaDrill
T2C0.0118
; #@! TA.AperFunction,Plated,PTH,ComponentDrill
T3C0.0118
; #@! TA.AperFunction,Plated,PTH,ViaDrill
T4C0.0120
; #@! TA.AperFunction,Plated,PTH,ViaDrill
T5C0.0130
; #@! TA.AperFunction,Plated,PTH,ViaDrill
T6C0.0197
; #@! TA.AperFunction,Plated,PTH,ComponentDrill
T7C0.0276
; #@! TA.AperFunction,Plated,PTH,ComponentDrill
T8C0.0320
; #@! TA.AperFunction,Plated,PTH,ComponentDrill
T9C0.0335
; #@! TA.AperFunction,Plated,PTH,ComponentDrill
T10C0.0394
; #@! TA.AperFunction,Plated,PTH,ComponentDrill
T11C0.0433
; #@! TA.AperFunction,Plated,PTH,ComponentDrill
T12C0.1200
; #@! TA.AperFunction,Plated,PTH,ComponentDrill
T13C0.1378
; #@! TA.AperFunction,Plated,PTH,ComponentDrill
T14C0.1890
%
G90
G05
T1
X5906Y53338
X5915Y45507
X5915Y41216
X5915Y35625
X5915Y30797
X6428Y50100
X7411Y31344
X8488Y50107
X8682Y50848
X9125Y47954
X23448Y40421
X23654Y40766
X23950Y40303
X25347Y40333
X29751Y9287
X30371Y7356
X32034Y7092
X32497Y7092
X33353Y7092
X34229Y7092
X35372Y7360
X40587Y9045
X40617Y7647
X40705Y9547
X41050Y9340
X46614Y13432
X46614Y12664
X46614Y11640
X47130Y13176
X47307Y12536
X47336Y11473
X47336Y12201
X47342Y10725
X47421Y11857
X48947Y10607
T2
X12953Y47244
X12953Y40197
X18898Y36811
X20906Y40121
X34803Y37444
X39055Y33780
X41210Y32835
T3
X27687Y39215
X28081Y39215
X29479Y39215
X29872Y39215
X30305Y54274
X30699Y54274
X31093Y54274
X31486Y54274
T4
X7681Y54449
X9125Y35289
X10910Y49213
X14544Y31353
X14646Y37402
X14791Y43782
X15211Y43782
X15276Y37402
X15787Y47126
X18307Y37756
X18307Y31614
X18311Y33819
X18863Y33819
X19252Y31614
X20549Y34252
X20630Y47953
X20630Y39215
X20957Y37074
X21260Y37402
X21457Y34685
X21890Y42995
X22113Y38900
X22126Y42759
X22283Y35630
X22533Y38900
X22642Y32362
X22721Y31142
X23193Y23937
X23193Y10906
X23213Y30826
X23236Y30440
X23339Y27530
X23501Y6732
X23587Y15700
X23626Y32874
X23798Y18040
X23819Y6732
X23902Y32362
X24138Y6732
X24146Y29696
X24151Y33268
X24449Y13152
X24457Y6732
X24488Y12641
X24493Y31417
X24500Y27333
X24749Y32618
X24807Y36850
X24901Y28568
X25083Y13425
X25083Y10512
X25122Y38747
X25205Y27381
X25378Y28495
X25398Y12874
X25551Y13507
X25752Y32047
X25945Y38861
X26087Y32618
X26107Y36850
X26409Y14848
X26579Y13472
X26579Y13153
X26579Y12835
X26590Y12509
X26717Y14766
X26733Y9215
X26925Y54908
X27014Y14469
X27128Y31695
X27209Y13977
X27520Y9215
X27543Y32618
X27563Y36850
X27914Y10711
X27957Y8740
X28465Y36341
X28485Y38979
X28583Y26656
X28789Y26372
X28863Y36850
X28863Y32618
X29055Y38979
X29086Y26075
X29160Y34097
X29580Y34097
X29611Y10394
X29882Y35318
X29882Y25869
X30040Y3704
X30507Y35634
X30827Y3704
X31112Y34994
X31225Y28819
X31264Y10276
X31304Y27913
X31409Y34697
X31654Y31220
X31737Y10276
X31930Y28071
X32087Y36341
X32249Y28071
X32481Y48822
X32839Y27953
X32918Y10433
X32957Y28819
X33213Y29436
X33229Y30251
X33587Y32999
X33626Y10433
X33694Y25862
X34611Y36575
X35083Y10394
X35244Y32520
X36973Y33346
X37170Y33071
X37485Y32953
X38307Y33898
X38740Y34331
X39523Y32527
X39606Y35709
X39768Y32323
X40740Y10354
X41610Y42443
X41863Y43223
X42323Y39606
X43189Y10239
X43544Y10239
X43622Y59685
X43622Y58898
X44374Y33701
X44528Y26066
X44528Y25475
X44650Y33346
X44953Y25973
X45713Y32323
X46067Y54606
X46618Y33189
X47406Y3386
X47445Y32586
X48307Y46220
X48307Y25987
X48701Y39370
X49016Y19885
X49055Y40118
X49292Y19412
X49449Y38386
X49764Y38701
X50157Y38189
X50394Y32837
X51654Y52717
X51654Y49449
X51654Y39055
X52209Y39094
X52861Y38979
X53281Y38979
X53780Y21725
X54055Y21932
T5
X31445Y25475
X33898Y32247
X34803Y37011
X35866Y32247
X36496Y7916
X36496Y3822
X36536Y2759
X36536Y1597
X39095Y32247
X44843Y59724
X44843Y58898
X45315Y32050
T6
X12284Y48310
X14724Y32283
T7
X35000Y49350
X35315Y50039
X35630Y49350
X35945Y50039
X36260Y49350
T8
X12918Y51262
X12918Y49762
X13902Y53821
X13902Y52321
X14493Y51262
X14493Y49762
X15083Y53821
X15083Y52321
X15674Y51262
X15674Y49762
X16264Y53821
X16264Y52321
X16855Y51262
X16855Y49762
X17445Y53821
X17445Y52321
X18626Y53821
X18626Y52321
X19217Y51262
X19217Y49762
X19807Y53821
X19807Y52321
X20355Y51262
X20355Y49762
X21264Y49778
X21264Y48278
X22170Y53821
X22170Y52321
X22205Y51265
X22205Y49765
X22957Y51262
X22957Y49762
X24532Y53821
X24532Y52321
X40122Y53838
X40122Y52338
X42288Y49665
X42288Y48165
X43075Y51260
X43075Y49760
X43075Y48976
X43075Y47476
X44650Y49705
X44650Y48205
X44847Y53819
X44847Y52319
X45437Y51260
X45437Y49760
X45437Y48738
X45437Y47238
X46618Y51260
X46618Y49760
X47795Y49746
X47795Y48246
X48390Y53819
X48390Y52319
X48981Y51260
X48981Y49760
X49571Y53819
X49571Y52319
X50162Y51260
X50162Y49760
X50394Y20868
X50394Y19868
X50394Y18868
X50394Y17868
X50394Y16868
X50394Y15868
X52327Y53821
X52327Y52321
X52918Y51260
X52918Y49760
T9
X33937Y52641
X34922Y52641
X35906Y52641
X36890Y52641
X37874Y52641
T10
X2000Y26000
X2000Y25000
X2000Y24000
X2000Y23000
X2000Y22000
X2000Y17000
X2000Y16000
X2000Y15000
X2000Y14000
X2000Y13000
X3000Y26000
X3000Y25000
X3000Y24000
X3000Y23000
X3000Y22000
X3000Y17000
X3000Y16000
X3000Y15000
X3000Y14000
X3000Y13000
X4000Y26000
X4000Y25000
X4000Y24000
X4000Y23000
X4000Y22000
X4000Y17000
X4000Y16000
X4000Y15000
X4000Y14000
X4000Y13000
X8000Y26000
X8000Y25000
X8000Y24000
X8000Y23000
X8000Y22000
X8000Y17000
X8000Y16000
X8000Y15000
X8000Y14000
X8000Y13000
X9000Y26000
X9000Y25000
X9000Y24000
X9000Y23000
X9000Y22000
X9000Y17000
X9000Y16000
X9000Y15000
X9000Y14000
X9000Y13000
X10000Y26000
X10000Y25000
X10000Y24000
X10000Y23000
X10000Y22000
X10000Y17000
X10000Y16000
X10000Y15000
X10000Y14000
X10000Y13000
X11999Y33378
X11999Y32378
X12999Y33378
X12999Y32378
X17784Y33273
X17784Y32273
X18036Y50512
X18784Y33273
X18784Y32273
X19784Y33273
X19784Y32273
X20989Y53071
X21284Y51103
X23351Y53071
X24138Y50512
X24567Y19373
X24567Y16419
X25516Y50512
X25674Y19372
X25674Y16419
X26177Y29852
X26177Y28852
X26177Y27852
X26177Y26852
X27177Y29852
X27177Y28852
X27177Y27852
X27177Y26852
X30189Y2837
X31181Y32363
X31189Y2837
X32189Y2837
X32288Y33467
X32288Y32363
X33189Y2837
X34060Y35331
X34060Y34331
X34189Y2837
X35060Y35331
X35060Y34331
X35189Y2837
X36060Y35331
X36060Y34331
X37395Y5820
X37395Y4820
X38395Y5820
X38395Y4820
X39395Y5820
X39395Y4820
X40395Y5820
X40395Y4820
X40627Y35331
X40627Y34331
X41146Y53069
X41395Y5820
X41395Y4820
X41627Y35331
X41627Y34331
X42395Y5820
X42395Y4820
X42406Y53069
X42627Y35331
X42627Y34331
X43110Y37244
X43395Y5820
X43395Y4820
X43627Y35331
X43627Y34331
X43666Y53069
X44395Y5820
X44395Y4820
X45395Y5820
X45395Y4820
X46395Y5820
X46395Y4820
X46830Y18388
X46830Y17388
X47209Y53069
X47395Y5820
X47395Y4820
X47830Y18388
X47830Y17388
X48395Y5820
X48395Y4820
X48830Y18388
X48830Y17388
X50949Y53069
T11
X13083Y58218
X13083Y56446
X14460Y58218
X14460Y56446
X15681Y58218
X15681Y56446
X16862Y58218
X16862Y56446
X18043Y58218
X18043Y56446
X19224Y58218
X19224Y56446
X20405Y58218
X20405Y56446
X21586Y58218
X21586Y56446
X22767Y58218
X22767Y56446
X23948Y58218
X23948Y56446
X25169Y58218
X25169Y56446
X27511Y58218
X27511Y56446
X28692Y58218
X28692Y56446
X29873Y58218
X29873Y56446
X31054Y58218
X31054Y56446
X32236Y58218
X32236Y56446
X33417Y58218
X33417Y56446
X34598Y58218
X34598Y56446
X35779Y58218
X35779Y56446
X38120Y58218
X38120Y56446
X39498Y58218
X39498Y56446
X40720Y58218
X40720Y56446
X41901Y58218
X41901Y56446
X43082Y58218
X43082Y56446
X44263Y58218
X44263Y56446
X45444Y58218
X45444Y56446
X46625Y58218
X46625Y56446
X47806Y58218
X47806Y56446
X48987Y58218
X48987Y56446
X50208Y58218
X50208Y56446
X51586Y58218
X51586Y56446
X52964Y58218
X52964Y56446
T12
X55394Y22868
X55394Y13868
T13
X11094Y60462
X26389Y60462
X36901Y60462
X54952Y60462
T14
X1575Y55906
X1575Y30512
X1575Y7283
X6693Y60709
X53780Y1932
X59055Y30512
X59055Y7283
X59099Y55906
T7
X34193Y49950G85X34193Y49439
G05
X37067Y49950G85X37067Y49439
G05
T0
M30
