G04 #@! TF.GenerationSoftware,KiCad,Pcbnew,(5.99.0-10200-gdf5f010514)*
G04 #@! TF.CreationDate,2021-04-10T18:58:20+03:00*
G04 #@! TF.ProjectId,hellen64_miataNA6_94,68656c6c-656e-4363-945f-6d696174614e,R0.4*
G04 #@! TF.SameCoordinates,PX1406f40PYa852d20*
G04 #@! TF.FileFunction,Profile,NP*
%FSLAX46Y46*%
G04 Gerber Fmt 4.6, Leading zero omitted, Abs format (unit mm)*
G04 Created by KiCad (PCBNEW (5.99.0-10200-gdf5f010514)) date 2021-04-10 18:58:20*
%MOMM*%
%LPD*%
G01*
G04 APERTURE LIST*
G04 #@! TA.AperFunction,Profile*
%ADD10C,0.127000*%
G04 #@! TD*
G04 #@! TA.AperFunction,Profile*
%ADD11C,0.120000*%
G04 #@! TD*
G04 APERTURE END LIST*
D10*
X5500000Y12500000D02*
G75*
G02*
X11500000Y6500000I0J-6000000D01*
G01*
X3000000Y12500000D02*
G75*
G02*
X0Y15500000I0J3000000D01*
G01*
X6500000Y152000000D02*
X3000000Y152000000D01*
X15500000Y161500000D02*
X138500000Y161500000D01*
X12500000Y158000000D02*
G75*
G02*
X6500000Y152000000I-6000000J0D01*
G01*
X138500000Y161500000D02*
G75*
G02*
X141500000Y158500000I0J-3000000D01*
G01*
X14000000Y0D02*
G75*
G02*
X11500000Y2500000I0J2500000D01*
G01*
X11500000Y6500000D02*
X11500000Y2500000D01*
X154000000Y149000000D02*
X154000000Y15500000D01*
X141500000Y158500000D02*
X141500000Y158000000D01*
X12500000Y158500000D02*
X12500000Y158000000D01*
X0Y149000000D02*
X0Y15500000D01*
X147500000Y152000000D02*
G75*
G02*
X141500000Y158000000I0J6000000D01*
G01*
X151000000Y152000000D02*
G75*
G02*
X154000000Y149000000I0J-3000000D01*
G01*
X140000000Y0D02*
X14000000Y0D01*
X147500000Y152000000D02*
X151000000Y152000000D01*
X0Y149000000D02*
G75*
G02*
X3000000Y152000000I3000000J0D01*
G01*
X5500000Y12500000D02*
X3000000Y12500000D01*
X142500000Y2500000D02*
G75*
G02*
X140000000Y0I-2500000J0D01*
G01*
X148500000Y12500000D02*
X151000000Y12500000D01*
X142500000Y6500000D02*
G75*
G02*
X148500000Y12500000I6000000J0D01*
G01*
X154000000Y15500000D02*
G75*
G02*
X151000000Y12500000I-3000000J0D01*
G01*
X142500000Y2500000D02*
X142500000Y6500000D01*
X12500000Y158500000D02*
G75*
G02*
X15500000Y161500000I3000000J0D01*
G01*
D11*
G04 #@! TO.C,J1*
X87297293Y126878120D02*
X87297293Y125498465D01*
X94591814Y126871981D02*
X94591814Y125492326D01*
X93704107Y125557962D02*
X93704107Y126937617D01*
X86409586Y125564101D02*
X86409586Y126943756D01*
X93704109Y125557962D02*
G75*
G03*
X94591813Y125492326I446835J7526D01*
G01*
X86409588Y125564101D02*
G75*
G03*
X87297292Y125498465I446835J7526D01*
G01*
X94591815Y126871981D02*
G75*
G03*
X93704108Y126937617I-446837J-7527D01*
G01*
X87297294Y126878120D02*
G75*
G03*
X86409587Y126943756I-446837J-7527D01*
G01*
G04 #@! TD*
M02*
