G04 #@! TF.GenerationSoftware,KiCad,Pcbnew,(5.99.0-10483-ga6ad7a4a70)*
G04 #@! TF.CreationDate,2021-06-23T22:09:19+03:00*
G04 #@! TF.ProjectId,hellen64_miataNA6_94,68656c6c-656e-4363-945f-6d696174614e,b*
G04 #@! TF.SameCoordinates,PX1406f40PYa852d20*
G04 #@! TF.FileFunction,Legend,Bot*
G04 #@! TF.FilePolarity,Positive*
%FSLAX46Y46*%
G04 Gerber Fmt 4.6, Leading zero omitted, Abs format (unit mm)*
G04 Created by KiCad (PCBNEW (5.99.0-10483-ga6ad7a4a70)) date 2021-06-23 22:09:19*
%MOMM*%
%LPD*%
G01*
G04 APERTURE LIST*
%ADD10C,0.250000*%
%ADD11C,0.223520*%
%ADD12C,0.350000*%
%ADD13C,0.150000*%
%ADD14C,0.500000*%
%ADD15C,0.200000*%
%ADD16C,0.400000*%
%ADD17C,0.300000*%
%ADD18C,0.127000*%
%ADD19C,0.099060*%
%ADD20C,0.120000*%
G04 APERTURE END LIST*
D10*
X71200000Y156300000D02*
X71200000Y146900000D01*
X70600000Y146300000D02*
X70600000Y145100000D01*
X80500000Y138700000D02*
X80500000Y156300000D01*
X70600000Y145100000D02*
X71100000Y144600000D01*
X71200000Y146900000D02*
X70600000Y146300000D01*
X71100000Y144600000D02*
X71100000Y138800000D01*
X80500000Y156300000D02*
X71200000Y156300000D01*
D11*
X127140380Y137596953D02*
X128156380Y137596953D01*
X127140380Y138080762D02*
X128156380Y138080762D01*
X127140380Y138661334D01*
X128156380Y138661334D01*
X128156380Y139435429D02*
X127430666Y139435429D01*
X127285523Y139387048D01*
X127188761Y139290286D01*
X127140380Y139145143D01*
X127140380Y139048381D01*
X127140380Y140451429D02*
X127140380Y139870858D01*
X127140380Y140161143D02*
X128156380Y140161143D01*
X128011238Y140064381D01*
X127914476Y139967620D01*
X127866095Y139870858D01*
X39969333Y140985381D02*
X40549904Y140985381D01*
X40259619Y140985381D02*
X40259619Y142001381D01*
X40356380Y141856239D01*
X40453142Y141759477D01*
X40549904Y141711096D01*
X39533904Y141517572D02*
X39195238Y141517572D01*
X39050095Y140985381D02*
X39533904Y140985381D01*
X39533904Y142001381D01*
X39050095Y142001381D01*
X122111666Y150256381D02*
X121482714Y150256381D01*
X121821380Y149869334D01*
X121676238Y149869334D01*
X121579476Y149820953D01*
X121531095Y149772572D01*
X121482714Y149675810D01*
X121482714Y149433905D01*
X121531095Y149337143D01*
X121579476Y149288762D01*
X121676238Y149240381D01*
X121966523Y149240381D01*
X122063285Y149288762D01*
X122111666Y149337143D01*
X120466714Y149240381D02*
X120805380Y149724191D01*
X121047285Y149240381D02*
X121047285Y150256381D01*
X120660238Y150256381D01*
X120563476Y150208000D01*
X120515095Y150159620D01*
X120466714Y150062858D01*
X120466714Y149917715D01*
X120515095Y149820953D01*
X120563476Y149772572D01*
X120660238Y149724191D01*
X121047285Y149724191D01*
D12*
X78604761Y155495239D02*
X78128571Y153495239D01*
X77747619Y154923810D01*
X77366666Y153495239D01*
X76890476Y155495239D01*
X75461904Y154542858D02*
X75176190Y154447620D01*
X75080952Y154352381D01*
X74985714Y154161905D01*
X74985714Y153876191D01*
X75080952Y153685715D01*
X75176190Y153590477D01*
X75366666Y153495239D01*
X76128571Y153495239D01*
X76128571Y155495239D01*
X75461904Y155495239D01*
X75271428Y155400000D01*
X75176190Y155304762D01*
X75080952Y155114286D01*
X75080952Y154923810D01*
X75176190Y154733334D01*
X75271428Y154638096D01*
X75461904Y154542858D01*
X76128571Y154542858D01*
X73747619Y155495239D02*
X73366666Y155495239D01*
X73176190Y155400000D01*
X72985714Y155209524D01*
X72890476Y154828572D01*
X72890476Y154161905D01*
X72985714Y153780953D01*
X73176190Y153590477D01*
X73366666Y153495239D01*
X73747619Y153495239D01*
X73938095Y153590477D01*
X74128571Y153780953D01*
X74223809Y154161905D01*
X74223809Y154828572D01*
X74128571Y155209524D01*
X73938095Y155400000D01*
X73747619Y155495239D01*
D11*
X79522476Y152556381D02*
X79183809Y151540381D01*
X78845142Y152556381D01*
X78554857Y151588762D02*
X78409714Y151540381D01*
X78167809Y151540381D01*
X78071047Y151588762D01*
X78022666Y151637143D01*
X77974285Y151733905D01*
X77974285Y151830667D01*
X78022666Y151927429D01*
X78071047Y151975810D01*
X78167809Y152024191D01*
X78361333Y152072572D01*
X78458095Y152120953D01*
X78506476Y152169334D01*
X78554857Y152266096D01*
X78554857Y152362858D01*
X78506476Y152459620D01*
X78458095Y152508000D01*
X78361333Y152556381D01*
X78119428Y152556381D01*
X77974285Y152508000D01*
X118960857Y142001381D02*
X118331904Y142001381D01*
X118670571Y141614334D01*
X118525428Y141614334D01*
X118428666Y141565953D01*
X118380285Y141517572D01*
X118331904Y141420810D01*
X118331904Y141178905D01*
X118380285Y141082143D01*
X118428666Y141033762D01*
X118525428Y140985381D01*
X118815714Y140985381D01*
X118912476Y141033762D01*
X118960857Y141082143D01*
X117702952Y142001381D02*
X117509428Y142001381D01*
X117412666Y141953000D01*
X117315904Y141856239D01*
X117267523Y141662715D01*
X117267523Y141324048D01*
X117315904Y141130524D01*
X117412666Y141033762D01*
X117509428Y140985381D01*
X117702952Y140985381D01*
X117799714Y141033762D01*
X117896476Y141130524D01*
X117944857Y141324048D01*
X117944857Y141662715D01*
X117896476Y141856239D01*
X117799714Y141953000D01*
X117702952Y142001381D01*
X54831904Y140985381D02*
X55412476Y140985381D01*
X55122190Y140985381D02*
X55122190Y142001381D01*
X55218952Y141856239D01*
X55315714Y141759477D01*
X55412476Y141711096D01*
X54202952Y142001381D02*
X54009428Y142001381D01*
X53912666Y141953000D01*
X53815904Y141856239D01*
X53767523Y141662715D01*
X53767523Y141324048D01*
X53815904Y141130524D01*
X53912666Y141033762D01*
X54009428Y140985381D01*
X54202952Y140985381D01*
X54299714Y141033762D01*
X54396476Y141130524D01*
X54444857Y141324048D01*
X54444857Y141662715D01*
X54396476Y141856239D01*
X54299714Y141953000D01*
X54202952Y142001381D01*
X48995952Y149240381D02*
X49576523Y149240381D01*
X49286238Y149240381D02*
X49286238Y150256381D01*
X49383000Y150111239D01*
X49479761Y150014477D01*
X49576523Y149966096D01*
X48076714Y149240381D02*
X48560523Y149240381D01*
X48560523Y150256381D01*
X109925714Y150256381D02*
X109296761Y150256381D01*
X109635428Y149869334D01*
X109490285Y149869334D01*
X109393523Y149820953D01*
X109345142Y149772572D01*
X109296761Y149675810D01*
X109296761Y149433905D01*
X109345142Y149337143D01*
X109393523Y149288762D01*
X109490285Y149240381D01*
X109780571Y149240381D01*
X109877333Y149288762D01*
X109925714Y149337143D01*
X108571047Y150256381D02*
X108571047Y149530667D01*
X108619428Y149385524D01*
X108716190Y149288762D01*
X108861333Y149240381D01*
X108958095Y149240381D01*
X122135857Y142001381D02*
X121506904Y142001381D01*
X121845571Y141614334D01*
X121700428Y141614334D01*
X121603666Y141565953D01*
X121555285Y141517572D01*
X121506904Y141420810D01*
X121506904Y141178905D01*
X121555285Y141082143D01*
X121603666Y141033762D01*
X121700428Y140985381D01*
X121990714Y140985381D01*
X122087476Y141033762D01*
X122135857Y141082143D01*
X120394142Y140888620D02*
X120490904Y140937000D01*
X120587666Y141033762D01*
X120732809Y141178905D01*
X120829571Y141227286D01*
X120926333Y141227286D01*
X120877952Y140985381D02*
X120974714Y141033762D01*
X121071476Y141130524D01*
X121119857Y141324048D01*
X121119857Y141662715D01*
X121071476Y141856239D01*
X120974714Y141953000D01*
X120877952Y142001381D01*
X120684428Y142001381D01*
X120587666Y141953000D01*
X120490904Y141856239D01*
X120442523Y141662715D01*
X120442523Y141324048D01*
X120490904Y141130524D01*
X120587666Y141033762D01*
X120684428Y140985381D01*
X120877952Y140985381D01*
X42040380Y150876000D02*
X43056380Y150876000D01*
X43008000Y151892000D02*
X43056380Y151795239D01*
X43056380Y151650096D01*
X43008000Y151504953D01*
X42911238Y151408191D01*
X42814476Y151359810D01*
X42620952Y151311429D01*
X42475809Y151311429D01*
X42282285Y151359810D01*
X42185523Y151408191D01*
X42088761Y151504953D01*
X42040380Y151650096D01*
X42040380Y151746858D01*
X42088761Y151892000D01*
X42137142Y151940381D01*
X42475809Y151940381D01*
X42475809Y151746858D01*
X42040380Y152375810D02*
X43056380Y152375810D01*
X42040380Y152956381D01*
X43056380Y152956381D01*
X42959619Y153391810D02*
X43008000Y153440191D01*
X43056380Y153536953D01*
X43056380Y153778858D01*
X43008000Y153875620D01*
X42959619Y153924000D01*
X42862857Y153972381D01*
X42766095Y153972381D01*
X42620952Y153924000D01*
X42040380Y153343429D01*
X42040380Y153972381D01*
X37027714Y149240381D02*
X37608285Y149240381D01*
X37318000Y149240381D02*
X37318000Y150256381D01*
X37414761Y150111239D01*
X37511523Y150014477D01*
X37608285Y149966096D01*
X36592285Y149240381D02*
X36592285Y150256381D01*
X36350380Y150256381D01*
X36205238Y150208000D01*
X36108476Y150111239D01*
X36060095Y150014477D01*
X36011714Y149820953D01*
X36011714Y149675810D01*
X36060095Y149482286D01*
X36108476Y149385524D01*
X36205238Y149288762D01*
X36350380Y149240381D01*
X36592285Y149240381D01*
X88056380Y151361524D02*
X88056380Y151942096D01*
X87040380Y151651810D02*
X88056380Y151651810D01*
X87572571Y152280762D02*
X87572571Y152619429D01*
X87040380Y152764572D02*
X87040380Y152280762D01*
X88056380Y152280762D01*
X88056380Y152764572D01*
X87040380Y153200000D02*
X88056380Y153200000D01*
X87330666Y153538667D01*
X88056380Y153877334D01*
X87040380Y153877334D01*
X87040380Y154361143D02*
X88056380Y154361143D01*
X88056380Y154748191D01*
X88008000Y154844953D01*
X87959619Y154893334D01*
X87862857Y154941715D01*
X87717714Y154941715D01*
X87620952Y154893334D01*
X87572571Y154844953D01*
X87524190Y154748191D01*
X87524190Y154361143D01*
X97346666Y150256381D02*
X96717714Y150256381D01*
X97056380Y149869334D01*
X96911238Y149869334D01*
X96814476Y149820953D01*
X96766095Y149772572D01*
X96717714Y149675810D01*
X96717714Y149433905D01*
X96766095Y149337143D01*
X96814476Y149288762D01*
X96911238Y149240381D01*
X97201523Y149240381D01*
X97298285Y149288762D01*
X97346666Y149337143D01*
X95943619Y149772572D02*
X95798476Y149724191D01*
X95750095Y149675810D01*
X95701714Y149579048D01*
X95701714Y149433905D01*
X95750095Y149337143D01*
X95798476Y149288762D01*
X95895238Y149240381D01*
X96282285Y149240381D01*
X96282285Y150256381D01*
X95943619Y150256381D01*
X95846857Y150208000D01*
X95798476Y150159620D01*
X95750095Y150062858D01*
X95750095Y149966096D01*
X95798476Y149869334D01*
X95846857Y149820953D01*
X95943619Y149772572D01*
X96282285Y149772572D01*
D13*
X80207142Y140688096D02*
X79940476Y139888096D01*
X79673809Y140688096D01*
X79445238Y139926191D02*
X79330952Y139888096D01*
X79140476Y139888096D01*
X79064285Y139926191D01*
X79026190Y139964286D01*
X78988095Y140040477D01*
X78988095Y140116667D01*
X79026190Y140192858D01*
X79064285Y140230953D01*
X79140476Y140269048D01*
X79292857Y140307143D01*
X79369047Y140345239D01*
X79407142Y140383334D01*
X79445238Y140459524D01*
X79445238Y140535715D01*
X79407142Y140611905D01*
X79369047Y140650000D01*
X79292857Y140688096D01*
X79102380Y140688096D01*
X78988095Y140650000D01*
X78073809Y140726191D02*
X78759523Y139697620D01*
X77807142Y139888096D02*
X77807142Y140688096D01*
X77426190Y139888096D02*
X77426190Y140688096D01*
X77121428Y140688096D01*
X77045238Y140650000D01*
X77007142Y140611905D01*
X76969047Y140535715D01*
X76969047Y140421429D01*
X77007142Y140345239D01*
X77045238Y140307143D01*
X77121428Y140269048D01*
X77426190Y140269048D01*
D11*
X91408000Y138425905D02*
X91456380Y138329143D01*
X91456380Y138184000D01*
X91408000Y138038858D01*
X91311238Y137942096D01*
X91214476Y137893715D01*
X91020952Y137845334D01*
X90875809Y137845334D01*
X90682285Y137893715D01*
X90585523Y137942096D01*
X90488761Y138038858D01*
X90440380Y138184000D01*
X90440380Y138280762D01*
X90488761Y138425905D01*
X90537142Y138474286D01*
X90875809Y138474286D01*
X90875809Y138280762D01*
X90440380Y138909715D02*
X91456380Y138909715D01*
X90440380Y139490286D01*
X91456380Y139490286D01*
X90440380Y139974096D02*
X91456380Y139974096D01*
X91456380Y140216000D01*
X91408000Y140361143D01*
X91311238Y140457905D01*
X91214476Y140506286D01*
X91020952Y140554667D01*
X90875809Y140554667D01*
X90682285Y140506286D01*
X90585523Y140457905D01*
X90488761Y140361143D01*
X90440380Y140216000D01*
X90440380Y139974096D01*
X70074095Y140308000D02*
X70170857Y140356381D01*
X70316000Y140356381D01*
X70461142Y140308000D01*
X70557904Y140211239D01*
X70606285Y140114477D01*
X70654666Y139920953D01*
X70654666Y139775810D01*
X70606285Y139582286D01*
X70557904Y139485524D01*
X70461142Y139388762D01*
X70316000Y139340381D01*
X70219238Y139340381D01*
X70074095Y139388762D01*
X70025714Y139437143D01*
X70025714Y139775810D01*
X70219238Y139775810D01*
X69590285Y139340381D02*
X69590285Y140356381D01*
X69009714Y139340381D01*
X69009714Y140356381D01*
X68525904Y139340381D02*
X68525904Y140356381D01*
X68284000Y140356381D01*
X68138857Y140308000D01*
X68042095Y140211239D01*
X67993714Y140114477D01*
X67945333Y139920953D01*
X67945333Y139775810D01*
X67993714Y139582286D01*
X68042095Y139485524D01*
X68138857Y139388762D01*
X68284000Y139340381D01*
X68525904Y139340381D01*
X82956380Y138338858D02*
X81940380Y138677524D01*
X82956380Y139016191D01*
X82956380Y139209715D02*
X81940380Y139548381D01*
X82956380Y139887048D01*
X82956380Y140080572D02*
X82956380Y140661143D01*
X81940380Y140370858D02*
X82956380Y140370858D01*
X125262476Y142001381D02*
X124633523Y142001381D01*
X124972190Y141614334D01*
X124827047Y141614334D01*
X124730285Y141565953D01*
X124681904Y141517572D01*
X124633523Y141420810D01*
X124633523Y141178905D01*
X124681904Y141082143D01*
X124730285Y141033762D01*
X124827047Y140985381D01*
X125117333Y140985381D01*
X125214095Y141033762D01*
X125262476Y141082143D01*
X124246476Y141033762D02*
X124101333Y140985381D01*
X123859428Y140985381D01*
X123762666Y141033762D01*
X123714285Y141082143D01*
X123665904Y141178905D01*
X123665904Y141275667D01*
X123714285Y141372429D01*
X123762666Y141420810D01*
X123859428Y141469191D01*
X124052952Y141517572D01*
X124149714Y141565953D01*
X124198095Y141614334D01*
X124246476Y141711096D01*
X124246476Y141807858D01*
X124198095Y141904620D01*
X124149714Y141953000D01*
X124052952Y142001381D01*
X123811047Y142001381D01*
X123665904Y141953000D01*
X131709238Y142001381D02*
X131080285Y142001381D01*
X131418952Y141614334D01*
X131273809Y141614334D01*
X131177047Y141565953D01*
X131128666Y141517572D01*
X131080285Y141420810D01*
X131080285Y141178905D01*
X131128666Y141082143D01*
X131177047Y141033762D01*
X131273809Y140985381D01*
X131564095Y140985381D01*
X131660857Y141033762D01*
X131709238Y141082143D01*
X130741619Y142001381D02*
X130499714Y140985381D01*
X130306190Y141711096D01*
X130112666Y140985381D01*
X129870761Y142001381D01*
X113221666Y142001381D02*
X112592714Y142001381D01*
X112931380Y141614334D01*
X112786238Y141614334D01*
X112689476Y141565953D01*
X112641095Y141517572D01*
X112592714Y141420810D01*
X112592714Y141178905D01*
X112641095Y141082143D01*
X112689476Y141033762D01*
X112786238Y140985381D01*
X113076523Y140985381D01*
X113173285Y141033762D01*
X113221666Y141082143D01*
X112157285Y140985381D02*
X112157285Y142001381D01*
X111576714Y140985381D02*
X112012142Y141565953D01*
X111576714Y142001381D02*
X112157285Y141420810D01*
X79542476Y150159620D02*
X79494095Y150208000D01*
X79397333Y150256381D01*
X79155428Y150256381D01*
X79058666Y150208000D01*
X79010285Y150159620D01*
X78961904Y150062858D01*
X78961904Y149966096D01*
X79010285Y149820953D01*
X79590857Y149240381D01*
X78961904Y149240381D01*
X78526476Y149240381D02*
X78526476Y150256381D01*
X78526476Y149772572D02*
X77945904Y149772572D01*
X77945904Y149240381D02*
X77945904Y150256381D01*
X107246666Y141956381D02*
X106617714Y141956381D01*
X106956380Y141569334D01*
X106811238Y141569334D01*
X106714476Y141520953D01*
X106666095Y141472572D01*
X106617714Y141375810D01*
X106617714Y141133905D01*
X106666095Y141037143D01*
X106714476Y140988762D01*
X106811238Y140940381D01*
X107101523Y140940381D01*
X107198285Y140988762D01*
X107246666Y141037143D01*
X105650095Y141908000D02*
X105746857Y141956381D01*
X105892000Y141956381D01*
X106037142Y141908000D01*
X106133904Y141811239D01*
X106182285Y141714477D01*
X106230666Y141520953D01*
X106230666Y141375810D01*
X106182285Y141182286D01*
X106133904Y141085524D01*
X106037142Y140988762D01*
X105892000Y140940381D01*
X105795238Y140940381D01*
X105650095Y140988762D01*
X105601714Y141037143D01*
X105601714Y141375810D01*
X105795238Y141375810D01*
X53841714Y145527429D02*
X53067619Y145527429D01*
X53454666Y145140381D02*
X53454666Y145914477D01*
X52100000Y146156381D02*
X52583809Y146156381D01*
X52632190Y145672572D01*
X52583809Y145720953D01*
X52487047Y145769334D01*
X52245142Y145769334D01*
X52148380Y145720953D01*
X52100000Y145672572D01*
X52051619Y145575810D01*
X52051619Y145333905D01*
X52100000Y145237143D01*
X52148380Y145188762D01*
X52245142Y145140381D01*
X52487047Y145140381D01*
X52583809Y145188762D01*
X52632190Y145237143D01*
X51761333Y146156381D02*
X51422666Y145140381D01*
X51084000Y146156381D01*
X50793714Y145430667D02*
X50309904Y145430667D01*
X50890476Y145140381D02*
X50551809Y146156381D01*
X50213142Y145140381D01*
X61036761Y149240381D02*
X61617333Y149240381D01*
X61327047Y149240381D02*
X61327047Y150256381D01*
X61423809Y150111239D01*
X61520571Y150014477D01*
X61617333Y149966096D01*
X60746476Y150256381D02*
X60165904Y150256381D01*
X60456190Y149240381D02*
X60456190Y150256381D01*
X116219238Y142001381D02*
X115590285Y142001381D01*
X115928952Y141614334D01*
X115783809Y141614334D01*
X115687047Y141565953D01*
X115638666Y141517572D01*
X115590285Y141420810D01*
X115590285Y141178905D01*
X115638666Y141082143D01*
X115687047Y141033762D01*
X115783809Y140985381D01*
X116074095Y140985381D01*
X116170857Y141033762D01*
X116219238Y141082143D01*
X115154857Y140985381D02*
X115154857Y142001381D01*
X114816190Y141275667D01*
X114477523Y142001381D01*
X114477523Y140985381D01*
D14*
X6342857Y85504762D02*
X9342857Y85504762D01*
X7914285Y85504762D02*
X7914285Y86647620D01*
X6342857Y86647620D02*
X9342857Y86647620D01*
X6485714Y88361905D02*
X6342857Y88171429D01*
X6342857Y87790477D01*
X6485714Y87600000D01*
X6771428Y87504762D01*
X7914285Y87504762D01*
X8200000Y87600000D01*
X8342857Y87790477D01*
X8342857Y88171429D01*
X8200000Y88361905D01*
X7914285Y88457143D01*
X7628571Y88457143D01*
X7342857Y87504762D01*
X6342857Y89600000D02*
X6485714Y89409524D01*
X6771428Y89314286D01*
X9342857Y89314286D01*
X6342857Y90647620D02*
X6485714Y90457143D01*
X6771428Y90361905D01*
X9342857Y90361905D01*
X6485714Y92171429D02*
X6342857Y91980953D01*
X6342857Y91600000D01*
X6485714Y91409524D01*
X6771428Y91314286D01*
X7914285Y91314286D01*
X8200000Y91409524D01*
X8342857Y91600000D01*
X8342857Y91980953D01*
X8200000Y92171429D01*
X7914285Y92266667D01*
X7628571Y92266667D01*
X7342857Y91314286D01*
X8342857Y93123810D02*
X6342857Y93123810D01*
X8057142Y93123810D02*
X8200000Y93219048D01*
X8342857Y93409524D01*
X8342857Y93695239D01*
X8200000Y93885715D01*
X7914285Y93980953D01*
X6342857Y93980953D01*
X6342857Y94933334D02*
X9342857Y94933334D01*
X6342857Y96076191D01*
X9342857Y96076191D01*
X7200000Y96933334D02*
X7200000Y97885715D01*
X6342857Y96742858D02*
X9342857Y97409524D01*
X6342857Y98076191D01*
X9342857Y99600000D02*
X9342857Y99219048D01*
X9200000Y99028572D01*
X9057142Y98933334D01*
X8628571Y98742858D01*
X8057142Y98647620D01*
X6914285Y98647620D01*
X6628571Y98742858D01*
X6485714Y98838096D01*
X6342857Y99028572D01*
X6342857Y99409524D01*
X6485714Y99600000D01*
X6628571Y99695239D01*
X6914285Y99790477D01*
X7628571Y99790477D01*
X7914285Y99695239D01*
X8057142Y99600000D01*
X8200000Y99409524D01*
X8200000Y99028572D01*
X8057142Y98838096D01*
X7914285Y98742858D01*
X7628571Y98647620D01*
D11*
X90140380Y151453524D02*
X91156380Y151453524D01*
X90140380Y152034096D02*
X90720952Y151598667D01*
X91156380Y152034096D02*
X90575809Y151453524D01*
X90140380Y152469524D02*
X91156380Y152469524D01*
X90140380Y153050096D01*
X91156380Y153050096D01*
X91156380Y153727429D02*
X91156380Y153920953D01*
X91108000Y154017715D01*
X91011238Y154114477D01*
X90817714Y154162858D01*
X90479047Y154162858D01*
X90285523Y154114477D01*
X90188761Y154017715D01*
X90140380Y153920953D01*
X90140380Y153727429D01*
X90188761Y153630667D01*
X90285523Y153533905D01*
X90479047Y153485524D01*
X90817714Y153485524D01*
X91011238Y153533905D01*
X91108000Y153630667D01*
X91156380Y153727429D01*
X90237142Y155178858D02*
X90188761Y155130477D01*
X90140380Y154985334D01*
X90140380Y154888572D01*
X90188761Y154743429D01*
X90285523Y154646667D01*
X90382285Y154598286D01*
X90575809Y154549905D01*
X90720952Y154549905D01*
X90914476Y154598286D01*
X91011238Y154646667D01*
X91108000Y154743429D01*
X91156380Y154888572D01*
X91156380Y154985334D01*
X91108000Y155130477D01*
X91059619Y155178858D01*
X90140380Y155614286D02*
X91156380Y155614286D01*
X90140380Y156194858D02*
X90720952Y155759429D01*
X91156380Y156194858D02*
X90575809Y155614286D01*
X118940380Y137490477D02*
X119956380Y137490477D01*
X119230666Y137829143D01*
X119956380Y138167810D01*
X118940380Y138167810D01*
X119230666Y138603239D02*
X119230666Y139087048D01*
X118940380Y138506477D02*
X119956380Y138845143D01*
X118940380Y139183810D01*
X119472571Y139861143D02*
X119472571Y139522477D01*
X118940380Y139522477D02*
X119956380Y139522477D01*
X119956380Y140006286D01*
X115856380Y151335620D02*
X115856380Y151529143D01*
X115808000Y151625905D01*
X115711238Y151722667D01*
X115517714Y151771048D01*
X115179047Y151771048D01*
X114985523Y151722667D01*
X114888761Y151625905D01*
X114840380Y151529143D01*
X114840380Y151335620D01*
X114888761Y151238858D01*
X114985523Y151142096D01*
X115179047Y151093715D01*
X115517714Y151093715D01*
X115711238Y151142096D01*
X115808000Y151238858D01*
X115856380Y151335620D01*
X115759619Y152158096D02*
X115808000Y152206477D01*
X115856380Y152303239D01*
X115856380Y152545143D01*
X115808000Y152641905D01*
X115759619Y152690286D01*
X115662857Y152738667D01*
X115566095Y152738667D01*
X115420952Y152690286D01*
X114840380Y152109715D01*
X114840380Y152738667D01*
X114888761Y153125715D02*
X114840380Y153270858D01*
X114840380Y153512762D01*
X114888761Y153609524D01*
X114937142Y153657905D01*
X115033904Y153706286D01*
X115130666Y153706286D01*
X115227428Y153657905D01*
X115275809Y153609524D01*
X115324190Y153512762D01*
X115372571Y153319239D01*
X115420952Y153222477D01*
X115469333Y153174096D01*
X115566095Y153125715D01*
X115662857Y153125715D01*
X115759619Y153174096D01*
X115808000Y153222477D01*
X115856380Y153319239D01*
X115856380Y153561143D01*
X115808000Y153706286D01*
X109780571Y142001381D02*
X109151619Y142001381D01*
X109490285Y141614334D01*
X109345142Y141614334D01*
X109248380Y141565953D01*
X109200000Y141517572D01*
X109151619Y141420810D01*
X109151619Y141178905D01*
X109200000Y141082143D01*
X109248380Y141033762D01*
X109345142Y140985381D01*
X109635428Y140985381D01*
X109732190Y141033762D01*
X109780571Y141082143D01*
X108716190Y140985381D02*
X108716190Y142001381D01*
X81972571Y151737334D02*
X81924190Y151882477D01*
X81875809Y151930858D01*
X81779047Y151979239D01*
X81633904Y151979239D01*
X81537142Y151930858D01*
X81488761Y151882477D01*
X81440380Y151785715D01*
X81440380Y151398667D01*
X82456380Y151398667D01*
X82456380Y151737334D01*
X82408000Y151834096D01*
X82359619Y151882477D01*
X82262857Y151930858D01*
X82166095Y151930858D01*
X82069333Y151882477D01*
X82020952Y151834096D01*
X81972571Y151737334D01*
X81972571Y151398667D01*
X82456380Y152608191D02*
X82456380Y152801715D01*
X82408000Y152898477D01*
X82311238Y152995239D01*
X82117714Y153043620D01*
X81779047Y153043620D01*
X81585523Y152995239D01*
X81488761Y152898477D01*
X81440380Y152801715D01*
X81440380Y152608191D01*
X81488761Y152511429D01*
X81585523Y152414667D01*
X81779047Y152366286D01*
X82117714Y152366286D01*
X82311238Y152414667D01*
X82408000Y152511429D01*
X82456380Y152608191D01*
X82456380Y153672572D02*
X82456380Y153866096D01*
X82408000Y153962858D01*
X82311238Y154059620D01*
X82117714Y154108000D01*
X81779047Y154108000D01*
X81585523Y154059620D01*
X81488761Y153962858D01*
X81440380Y153866096D01*
X81440380Y153672572D01*
X81488761Y153575810D01*
X81585523Y153479048D01*
X81779047Y153430667D01*
X82117714Y153430667D01*
X82311238Y153479048D01*
X82408000Y153575810D01*
X82456380Y153672572D01*
X81488761Y154495048D02*
X81440380Y154640191D01*
X81440380Y154882096D01*
X81488761Y154978858D01*
X81537142Y155027239D01*
X81633904Y155075620D01*
X81730666Y155075620D01*
X81827428Y155027239D01*
X81875809Y154978858D01*
X81924190Y154882096D01*
X81972571Y154688572D01*
X82020952Y154591810D01*
X82069333Y154543429D01*
X82166095Y154495048D01*
X82262857Y154495048D01*
X82359619Y154543429D01*
X82408000Y154591810D01*
X82456380Y154688572D01*
X82456380Y154930477D01*
X82408000Y155075620D01*
X82456380Y155365905D02*
X82456380Y155946477D01*
X81440380Y155656191D02*
X82456380Y155656191D01*
D15*
X73171428Y5657500D02*
X72457142Y5657500D01*
X73314285Y5228929D02*
X72814285Y6728929D01*
X72314285Y5228929D01*
X71600000Y5228929D02*
X71742857Y5300358D01*
X71814285Y5443215D01*
X71814285Y6728929D01*
X71171428Y6228929D02*
X70885714Y5228929D01*
X70600000Y5943215D01*
X70314285Y5228929D01*
X70028571Y6228929D01*
X68814285Y5228929D02*
X68814285Y6014643D01*
X68885714Y6157500D01*
X69028571Y6228929D01*
X69314285Y6228929D01*
X69457142Y6157500D01*
X68814285Y5300358D02*
X68957142Y5228929D01*
X69314285Y5228929D01*
X69457142Y5300358D01*
X69528571Y5443215D01*
X69528571Y5586072D01*
X69457142Y5728929D01*
X69314285Y5800358D01*
X68957142Y5800358D01*
X68814285Y5871786D01*
X68242857Y6228929D02*
X67885714Y5228929D01*
X67528571Y6228929D02*
X67885714Y5228929D01*
X68028571Y4871786D01*
X68100000Y4800358D01*
X68242857Y4728929D01*
X67028571Y5300358D02*
X66885714Y5228929D01*
X66600000Y5228929D01*
X66457142Y5300358D01*
X66385714Y5443215D01*
X66385714Y5514643D01*
X66457142Y5657500D01*
X66600000Y5728929D01*
X66814285Y5728929D01*
X66957142Y5800358D01*
X67028571Y5943215D01*
X67028571Y6014643D01*
X66957142Y6157500D01*
X66814285Y6228929D01*
X66600000Y6228929D01*
X66457142Y6157500D01*
X64385714Y5228929D02*
X64528571Y5300358D01*
X64600000Y5443215D01*
X64600000Y6728929D01*
X63600000Y5228929D02*
X63742857Y5300358D01*
X63814285Y5371786D01*
X63885714Y5514643D01*
X63885714Y5943215D01*
X63814285Y6086072D01*
X63742857Y6157500D01*
X63600000Y6228929D01*
X63385714Y6228929D01*
X63242857Y6157500D01*
X63171428Y6086072D01*
X63100000Y5943215D01*
X63100000Y5514643D01*
X63171428Y5371786D01*
X63242857Y5300358D01*
X63385714Y5228929D01*
X63600000Y5228929D01*
X62242857Y5228929D02*
X62385714Y5300358D01*
X62457142Y5371786D01*
X62528571Y5514643D01*
X62528571Y5943215D01*
X62457142Y6086072D01*
X62385714Y6157500D01*
X62242857Y6228929D01*
X62028571Y6228929D01*
X61885714Y6157500D01*
X61814285Y6086072D01*
X61742857Y5943215D01*
X61742857Y5514643D01*
X61814285Y5371786D01*
X61885714Y5300358D01*
X62028571Y5228929D01*
X62242857Y5228929D01*
X61100000Y5228929D02*
X61100000Y6728929D01*
X60957142Y5800358D02*
X60528571Y5228929D01*
X60528571Y6228929D02*
X61100000Y5657500D01*
X59885714Y5228929D02*
X59885714Y6228929D01*
X59885714Y6728929D02*
X59957142Y6657500D01*
X59885714Y6586072D01*
X59814285Y6657500D01*
X59885714Y6728929D01*
X59885714Y6586072D01*
X59171428Y6228929D02*
X59171428Y5228929D01*
X59171428Y6086072D02*
X59100000Y6157500D01*
X58957142Y6228929D01*
X58742857Y6228929D01*
X58600000Y6157500D01*
X58528571Y6014643D01*
X58528571Y5228929D01*
X57171428Y6228929D02*
X57171428Y5014643D01*
X57242857Y4871786D01*
X57314285Y4800358D01*
X57457142Y4728929D01*
X57671428Y4728929D01*
X57814285Y4800358D01*
X57171428Y5300358D02*
X57314285Y5228929D01*
X57600000Y5228929D01*
X57742857Y5300358D01*
X57814285Y5371786D01*
X57885714Y5514643D01*
X57885714Y5943215D01*
X57814285Y6086072D01*
X57742857Y6157500D01*
X57600000Y6228929D01*
X57314285Y6228929D01*
X57171428Y6157500D01*
X55528571Y6228929D02*
X54957142Y6228929D01*
X55314285Y5228929D02*
X55314285Y6514643D01*
X55242857Y6657500D01*
X55100000Y6728929D01*
X54957142Y6728929D01*
X54242857Y5228929D02*
X54385714Y5300358D01*
X54457142Y5371786D01*
X54528571Y5514643D01*
X54528571Y5943215D01*
X54457142Y6086072D01*
X54385714Y6157500D01*
X54242857Y6228929D01*
X54028571Y6228929D01*
X53885714Y6157500D01*
X53814285Y6086072D01*
X53742857Y5943215D01*
X53742857Y5514643D01*
X53814285Y5371786D01*
X53885714Y5300358D01*
X54028571Y5228929D01*
X54242857Y5228929D01*
X53100000Y5228929D02*
X53100000Y6228929D01*
X53100000Y5943215D02*
X53028571Y6086072D01*
X52957142Y6157500D01*
X52814285Y6228929D01*
X52671428Y6228929D01*
X50171428Y5371786D02*
X50242857Y5300358D01*
X50457142Y5228929D01*
X50600000Y5228929D01*
X50814285Y5300358D01*
X50957142Y5443215D01*
X51028571Y5586072D01*
X51100000Y5871786D01*
X51100000Y6086072D01*
X51028571Y6371786D01*
X50957142Y6514643D01*
X50814285Y6657500D01*
X50600000Y6728929D01*
X50457142Y6728929D01*
X50242857Y6657500D01*
X50171428Y6586072D01*
X48457142Y6800358D02*
X49742857Y4871786D01*
X47100000Y5371786D02*
X47171428Y5300358D01*
X47385714Y5228929D01*
X47528571Y5228929D01*
X47742857Y5300358D01*
X47885714Y5443215D01*
X47957142Y5586072D01*
X48028571Y5871786D01*
X48028571Y6086072D01*
X47957142Y6371786D01*
X47885714Y6514643D01*
X47742857Y6657500D01*
X47528571Y6728929D01*
X47385714Y6728929D01*
X47171428Y6657500D01*
X47100000Y6586072D01*
X46457142Y5800358D02*
X45314285Y5800358D01*
X45885714Y5228929D02*
X45885714Y6371786D01*
X44600000Y5800358D02*
X43457142Y5800358D01*
X44028571Y5228929D02*
X44028571Y6371786D01*
X41671428Y6800358D02*
X42957142Y4871786D01*
X41171428Y5228929D02*
X41171428Y6728929D01*
X40600000Y6728929D01*
X40457142Y6657500D01*
X40385714Y6586072D01*
X40314285Y6443215D01*
X40314285Y6228929D01*
X40385714Y6086072D01*
X40457142Y6014643D01*
X40600000Y5943215D01*
X41171428Y5943215D01*
X39671428Y5228929D02*
X39671428Y6728929D01*
X39671428Y6014643D02*
X38814285Y6014643D01*
X38814285Y5228929D02*
X38814285Y6728929D01*
X38100000Y5228929D02*
X38100000Y6728929D01*
X37528571Y6728929D01*
X37385714Y6657500D01*
X37314285Y6586072D01*
X37242857Y6443215D01*
X37242857Y6228929D01*
X37314285Y6086072D01*
X37385714Y6014643D01*
X37528571Y5943215D01*
X38100000Y5943215D01*
X35528571Y6800358D02*
X36814285Y4871786D01*
X34600000Y6728929D02*
X34600000Y5657500D01*
X34671428Y5443215D01*
X34814285Y5300358D01*
X35028571Y5228929D01*
X35171428Y5228929D01*
X33242857Y5228929D02*
X33242857Y6014643D01*
X33314285Y6157500D01*
X33457142Y6228929D01*
X33742857Y6228929D01*
X33885714Y6157500D01*
X33242857Y5300358D02*
X33385714Y5228929D01*
X33742857Y5228929D01*
X33885714Y5300358D01*
X33957142Y5443215D01*
X33957142Y5586072D01*
X33885714Y5728929D01*
X33742857Y5800358D01*
X33385714Y5800358D01*
X33242857Y5871786D01*
X32671428Y6228929D02*
X32314285Y5228929D01*
X31957142Y6228929D01*
X30742857Y5228929D02*
X30742857Y6014643D01*
X30814285Y6157500D01*
X30957142Y6228929D01*
X31242857Y6228929D01*
X31385714Y6157500D01*
X30742857Y5300358D02*
X30885714Y5228929D01*
X31242857Y5228929D01*
X31385714Y5300358D01*
X31457142Y5443215D01*
X31457142Y5586072D01*
X31385714Y5728929D01*
X31242857Y5800358D01*
X30885714Y5800358D01*
X30742857Y5871786D01*
X28242857Y5228929D02*
X28242857Y6728929D01*
X28242857Y5300358D02*
X28385714Y5228929D01*
X28671428Y5228929D01*
X28814285Y5300358D01*
X28885714Y5371786D01*
X28957142Y5514643D01*
X28957142Y5943215D01*
X28885714Y6086072D01*
X28814285Y6157500D01*
X28671428Y6228929D01*
X28385714Y6228929D01*
X28242857Y6157500D01*
X26957142Y5300358D02*
X27100000Y5228929D01*
X27385714Y5228929D01*
X27528571Y5300358D01*
X27600000Y5443215D01*
X27600000Y6014643D01*
X27528571Y6157500D01*
X27385714Y6228929D01*
X27100000Y6228929D01*
X26957142Y6157500D01*
X26885714Y6014643D01*
X26885714Y5871786D01*
X27600000Y5728929D01*
X26385714Y6228929D02*
X26028571Y5228929D01*
X25671428Y6228929D01*
X24528571Y5300358D02*
X24671428Y5228929D01*
X24957142Y5228929D01*
X25100000Y5300358D01*
X25171428Y5443215D01*
X25171428Y6014643D01*
X25100000Y6157500D01*
X24957142Y6228929D01*
X24671428Y6228929D01*
X24528571Y6157500D01*
X24457142Y6014643D01*
X24457142Y5871786D01*
X25171428Y5728929D01*
X23600000Y5228929D02*
X23742857Y5300358D01*
X23814285Y5443215D01*
X23814285Y6728929D01*
X22814285Y5228929D02*
X22957142Y5300358D01*
X23028571Y5371786D01*
X23100000Y5514643D01*
X23100000Y5943215D01*
X23028571Y6086072D01*
X22957142Y6157500D01*
X22814285Y6228929D01*
X22600000Y6228929D01*
X22457142Y6157500D01*
X22385714Y6086072D01*
X22314285Y5943215D01*
X22314285Y5514643D01*
X22385714Y5371786D01*
X22457142Y5300358D01*
X22600000Y5228929D01*
X22814285Y5228929D01*
X21671428Y6228929D02*
X21671428Y4728929D01*
X21671428Y6157500D02*
X21528571Y6228929D01*
X21242857Y6228929D01*
X21100000Y6157500D01*
X21028571Y6086072D01*
X20957142Y5943215D01*
X20957142Y5514643D01*
X21028571Y5371786D01*
X21100000Y5300358D01*
X21242857Y5228929D01*
X21528571Y5228929D01*
X21671428Y5300358D01*
X19742857Y5300358D02*
X19885714Y5228929D01*
X20171428Y5228929D01*
X20314285Y5300358D01*
X20385714Y5443215D01*
X20385714Y6014643D01*
X20314285Y6157500D01*
X20171428Y6228929D01*
X19885714Y6228929D01*
X19742857Y6157500D01*
X19671428Y6014643D01*
X19671428Y5871786D01*
X20385714Y5728929D01*
X19028571Y5228929D02*
X19028571Y6228929D01*
X19028571Y5943215D02*
X18957142Y6086072D01*
X18885714Y6157500D01*
X18742857Y6228929D01*
X18600000Y6228929D01*
X18171428Y5300358D02*
X18028571Y5228929D01*
X17742857Y5228929D01*
X17600000Y5300358D01*
X17528571Y5443215D01*
X17528571Y5514643D01*
X17600000Y5657500D01*
X17742857Y5728929D01*
X17957142Y5728929D01*
X18100000Y5800358D01*
X18171428Y5943215D01*
X18171428Y6014643D01*
X18100000Y6157500D01*
X17957142Y6228929D01*
X17742857Y6228929D01*
X17600000Y6157500D01*
X62064285Y2813929D02*
X62064285Y4313929D01*
X61421428Y2813929D02*
X61421428Y3599643D01*
X61492857Y3742500D01*
X61635714Y3813929D01*
X61850000Y3813929D01*
X61992857Y3742500D01*
X62064285Y3671072D01*
X60921428Y3813929D02*
X60350000Y3813929D01*
X60707142Y4313929D02*
X60707142Y3028215D01*
X60635714Y2885358D01*
X60492857Y2813929D01*
X60350000Y2813929D01*
X60064285Y3813929D02*
X59492857Y3813929D01*
X59850000Y4313929D02*
X59850000Y3028215D01*
X59778571Y2885358D01*
X59635714Y2813929D01*
X59492857Y2813929D01*
X58992857Y3813929D02*
X58992857Y2313929D01*
X58992857Y3742500D02*
X58850000Y3813929D01*
X58564285Y3813929D01*
X58421428Y3742500D01*
X58350000Y3671072D01*
X58278571Y3528215D01*
X58278571Y3099643D01*
X58350000Y2956786D01*
X58421428Y2885358D01*
X58564285Y2813929D01*
X58850000Y2813929D01*
X58992857Y2885358D01*
X57707142Y2885358D02*
X57564285Y2813929D01*
X57278571Y2813929D01*
X57135714Y2885358D01*
X57064285Y3028215D01*
X57064285Y3099643D01*
X57135714Y3242500D01*
X57278571Y3313929D01*
X57492857Y3313929D01*
X57635714Y3385358D01*
X57707142Y3528215D01*
X57707142Y3599643D01*
X57635714Y3742500D01*
X57492857Y3813929D01*
X57278571Y3813929D01*
X57135714Y3742500D01*
X56421428Y2956786D02*
X56350000Y2885358D01*
X56421428Y2813929D01*
X56492857Y2885358D01*
X56421428Y2956786D01*
X56421428Y2813929D01*
X56421428Y3742500D02*
X56350000Y3671072D01*
X56421428Y3599643D01*
X56492857Y3671072D01*
X56421428Y3742500D01*
X56421428Y3599643D01*
X54635714Y4385358D02*
X55921428Y2456786D01*
X53064285Y4385358D02*
X54350000Y2456786D01*
X52564285Y2813929D02*
X52564285Y3813929D01*
X52564285Y3528215D02*
X52492857Y3671072D01*
X52421428Y3742500D01*
X52278571Y3813929D01*
X52135714Y3813929D01*
X50992857Y3813929D02*
X50992857Y2813929D01*
X51635714Y3813929D02*
X51635714Y3028215D01*
X51564285Y2885358D01*
X51421428Y2813929D01*
X51207142Y2813929D01*
X51064285Y2885358D01*
X50992857Y2956786D01*
X50350000Y2885358D02*
X50207142Y2813929D01*
X49921428Y2813929D01*
X49778571Y2885358D01*
X49707142Y3028215D01*
X49707142Y3099643D01*
X49778571Y3242500D01*
X49921428Y3313929D01*
X50135714Y3313929D01*
X50278571Y3385358D01*
X50350000Y3528215D01*
X50350000Y3599643D01*
X50278571Y3742500D01*
X50135714Y3813929D01*
X49921428Y3813929D01*
X49778571Y3742500D01*
X48492857Y2885358D02*
X48635714Y2813929D01*
X48921428Y2813929D01*
X49064285Y2885358D01*
X49135714Y3028215D01*
X49135714Y3599643D01*
X49064285Y3742500D01*
X48921428Y3813929D01*
X48635714Y3813929D01*
X48492857Y3742500D01*
X48421428Y3599643D01*
X48421428Y3456786D01*
X49135714Y3313929D01*
X47992857Y3813929D02*
X47421428Y3813929D01*
X47778571Y2813929D02*
X47778571Y4099643D01*
X47707142Y4242500D01*
X47564285Y4313929D01*
X47421428Y4313929D01*
X46921428Y2813929D02*
X46921428Y3813929D01*
X46921428Y4313929D02*
X46992857Y4242500D01*
X46921428Y4171072D01*
X46850000Y4242500D01*
X46921428Y4313929D01*
X46921428Y4171072D01*
X46207142Y2956786D02*
X46135714Y2885358D01*
X46207142Y2813929D01*
X46278571Y2885358D01*
X46207142Y2956786D01*
X46207142Y2813929D01*
X44850000Y2885358D02*
X44992857Y2813929D01*
X45278571Y2813929D01*
X45421428Y2885358D01*
X45492857Y2956786D01*
X45564285Y3099643D01*
X45564285Y3528215D01*
X45492857Y3671072D01*
X45421428Y3742500D01*
X45278571Y3813929D01*
X44992857Y3813929D01*
X44850000Y3742500D01*
X43992857Y2813929D02*
X44135714Y2885358D01*
X44207142Y2956786D01*
X44278571Y3099643D01*
X44278571Y3528215D01*
X44207142Y3671072D01*
X44135714Y3742500D01*
X43992857Y3813929D01*
X43778571Y3813929D01*
X43635714Y3742500D01*
X43564285Y3671072D01*
X43492857Y3528215D01*
X43492857Y3099643D01*
X43564285Y2956786D01*
X43635714Y2885358D01*
X43778571Y2813929D01*
X43992857Y2813929D01*
X42850000Y2813929D02*
X42850000Y3813929D01*
X42850000Y3671072D02*
X42778571Y3742500D01*
X42635714Y3813929D01*
X42421428Y3813929D01*
X42278571Y3742500D01*
X42207142Y3599643D01*
X42207142Y2813929D01*
X42207142Y3599643D02*
X42135714Y3742500D01*
X41992857Y3813929D01*
X41778571Y3813929D01*
X41635714Y3742500D01*
X41564285Y3599643D01*
X41564285Y2813929D01*
X39778571Y4385358D02*
X41064285Y2456786D01*
X39350000Y2885358D02*
X39207142Y2813929D01*
X38921428Y2813929D01*
X38778571Y2885358D01*
X38707142Y3028215D01*
X38707142Y3099643D01*
X38778571Y3242500D01*
X38921428Y3313929D01*
X39135714Y3313929D01*
X39278571Y3385358D01*
X39350000Y3528215D01*
X39350000Y3599643D01*
X39278571Y3742500D01*
X39135714Y3813929D01*
X38921428Y3813929D01*
X38778571Y3742500D01*
X36992857Y4385358D02*
X38278571Y2456786D01*
X36492857Y2813929D02*
X36492857Y3813929D01*
X36492857Y3671072D02*
X36421428Y3742500D01*
X36278571Y3813929D01*
X36064285Y3813929D01*
X35921428Y3742500D01*
X35850000Y3599643D01*
X35850000Y2813929D01*
X35850000Y3599643D02*
X35778571Y3742500D01*
X35635714Y3813929D01*
X35421428Y3813929D01*
X35278571Y3742500D01*
X35207142Y3599643D01*
X35207142Y2813929D01*
X34492857Y2813929D02*
X34492857Y3813929D01*
X34492857Y4313929D02*
X34564285Y4242500D01*
X34492857Y4171072D01*
X34421428Y4242500D01*
X34492857Y4313929D01*
X34492857Y4171072D01*
X33850000Y2885358D02*
X33707142Y2813929D01*
X33421428Y2813929D01*
X33278571Y2885358D01*
X33207142Y3028215D01*
X33207142Y3099643D01*
X33278571Y3242500D01*
X33421428Y3313929D01*
X33635714Y3313929D01*
X33778571Y3385358D01*
X33850000Y3528215D01*
X33850000Y3599643D01*
X33778571Y3742500D01*
X33635714Y3813929D01*
X33421428Y3813929D01*
X33278571Y3742500D01*
X32635714Y2885358D02*
X32492857Y2813929D01*
X32207142Y2813929D01*
X32064285Y2885358D01*
X31992857Y3028215D01*
X31992857Y3099643D01*
X32064285Y3242500D01*
X32207142Y3313929D01*
X32421428Y3313929D01*
X32564285Y3385358D01*
X32635714Y3528215D01*
X32635714Y3599643D01*
X32564285Y3742500D01*
X32421428Y3813929D01*
X32207142Y3813929D01*
X32064285Y3742500D01*
X31350000Y2813929D02*
X31350000Y3813929D01*
X31350000Y4313929D02*
X31421428Y4242500D01*
X31350000Y4171072D01*
X31278571Y4242500D01*
X31350000Y4313929D01*
X31350000Y4171072D01*
X30421428Y2813929D02*
X30564285Y2885358D01*
X30635714Y2956786D01*
X30707142Y3099643D01*
X30707142Y3528215D01*
X30635714Y3671072D01*
X30564285Y3742500D01*
X30421428Y3813929D01*
X30207142Y3813929D01*
X30064285Y3742500D01*
X29992857Y3671072D01*
X29921428Y3528215D01*
X29921428Y3099643D01*
X29992857Y2956786D01*
X30064285Y2885358D01*
X30207142Y2813929D01*
X30421428Y2813929D01*
X29278571Y3813929D02*
X29278571Y2813929D01*
X29278571Y3671072D02*
X29207142Y3742500D01*
X29064285Y3813929D01*
X28850000Y3813929D01*
X28707142Y3742500D01*
X28635714Y3599643D01*
X28635714Y2813929D01*
D11*
X104037142Y136630858D02*
X103988761Y136582477D01*
X103940380Y136437334D01*
X103940380Y136340572D01*
X103988761Y136195429D01*
X104085523Y136098667D01*
X104182285Y136050286D01*
X104375809Y136001905D01*
X104520952Y136001905D01*
X104714476Y136050286D01*
X104811238Y136098667D01*
X104908000Y136195429D01*
X104956380Y136340572D01*
X104956380Y136437334D01*
X104908000Y136582477D01*
X104859619Y136630858D01*
X103940380Y137646858D02*
X104424190Y137308191D01*
X103940380Y137066286D02*
X104956380Y137066286D01*
X104956380Y137453334D01*
X104908000Y137550096D01*
X104859619Y137598477D01*
X104762857Y137646858D01*
X104617714Y137646858D01*
X104520952Y137598477D01*
X104472571Y137550096D01*
X104424190Y137453334D01*
X104424190Y137066286D01*
X104230666Y138033905D02*
X104230666Y138517715D01*
X103940380Y137937143D02*
X104956380Y138275810D01*
X103940380Y138614477D01*
X103940380Y138953143D02*
X104956380Y138953143D01*
X103940380Y139533715D01*
X104956380Y139533715D01*
X103940380Y140017524D02*
X104956380Y140017524D01*
X103940380Y140598096D02*
X104520952Y140162667D01*
X104956380Y140598096D02*
X104375809Y140017524D01*
X109856380Y137034096D02*
X109856380Y137614667D01*
X108840380Y137324381D02*
X109856380Y137324381D01*
X109130666Y137904953D02*
X109130666Y138388762D01*
X108840380Y137808191D02*
X109856380Y138146858D01*
X108840380Y138485524D01*
X108937142Y139404762D02*
X108888761Y139356381D01*
X108840380Y139211239D01*
X108840380Y139114477D01*
X108888761Y138969334D01*
X108985523Y138872572D01*
X109082285Y138824191D01*
X109275809Y138775810D01*
X109420952Y138775810D01*
X109614476Y138824191D01*
X109711238Y138872572D01*
X109808000Y138969334D01*
X109856380Y139114477D01*
X109856380Y139211239D01*
X109808000Y139356381D01*
X109759619Y139404762D01*
X108840380Y139840191D02*
X109856380Y139840191D01*
X109372571Y139840191D02*
X109372571Y140420762D01*
X108840380Y140420762D02*
X109856380Y140420762D01*
X134040380Y151396953D02*
X135056380Y151396953D01*
X134040380Y151880762D02*
X135056380Y151880762D01*
X134040380Y152461334D01*
X135056380Y152461334D01*
X135056380Y153235429D02*
X134330666Y153235429D01*
X134185523Y153187048D01*
X134088761Y153090286D01*
X134040380Y152945143D01*
X134040380Y152848381D01*
X134717714Y154154667D02*
X134040380Y154154667D01*
X135104761Y153912762D02*
X134379047Y153670858D01*
X134379047Y154299810D01*
X88480857Y141904620D02*
X88432476Y141953000D01*
X88335714Y142001381D01*
X88093809Y142001381D01*
X87997047Y141953000D01*
X87948666Y141904620D01*
X87900285Y141807858D01*
X87900285Y141711096D01*
X87948666Y141565953D01*
X88529238Y140985381D01*
X87900285Y140985381D01*
X87464857Y140985381D02*
X87464857Y142001381D01*
X87126190Y141275667D01*
X86787523Y142001381D01*
X86787523Y140985381D01*
X45796761Y149240381D02*
X46377333Y149240381D01*
X46087047Y149240381D02*
X46087047Y150256381D01*
X46183809Y150111239D01*
X46280571Y150014477D01*
X46377333Y149966096D01*
X45071047Y150256381D02*
X45071047Y149530667D01*
X45119428Y149385524D01*
X45216190Y149288762D01*
X45361333Y149240381D01*
X45458095Y149240381D01*
X107270857Y150256381D02*
X106641904Y150256381D01*
X106980571Y149869334D01*
X106835428Y149869334D01*
X106738666Y149820953D01*
X106690285Y149772572D01*
X106641904Y149675810D01*
X106641904Y149433905D01*
X106690285Y149337143D01*
X106738666Y149288762D01*
X106835428Y149240381D01*
X107125714Y149240381D01*
X107222476Y149288762D01*
X107270857Y149337143D01*
X106206476Y149240381D02*
X106206476Y150256381D01*
X106206476Y149772572D02*
X105625904Y149772572D01*
X105625904Y149240381D02*
X105625904Y150256381D01*
X63721904Y140985381D02*
X64302476Y140985381D01*
X64012190Y140985381D02*
X64012190Y142001381D01*
X64108952Y141856239D01*
X64205714Y141759477D01*
X64302476Y141711096D01*
X63286476Y142001381D02*
X63286476Y141178905D01*
X63238095Y141082143D01*
X63189714Y141033762D01*
X63092952Y140985381D01*
X62899428Y140985381D01*
X62802666Y141033762D01*
X62754285Y141082143D01*
X62705904Y141178905D01*
X62705904Y142001381D01*
X76270714Y150159620D02*
X76222333Y150208000D01*
X76125571Y150256381D01*
X75883666Y150256381D01*
X75786904Y150208000D01*
X75738523Y150159620D01*
X75690142Y150062858D01*
X75690142Y149966096D01*
X75738523Y149820953D01*
X76319095Y149240381D01*
X75690142Y149240381D01*
X74916047Y149772572D02*
X75254714Y149772572D01*
X75254714Y149240381D02*
X75254714Y150256381D01*
X74770904Y150256381D01*
X124472571Y138277524D02*
X124472571Y137938858D01*
X123940380Y137938858D02*
X124956380Y137938858D01*
X124956380Y138422667D01*
X124230666Y138761334D02*
X124230666Y139245143D01*
X123940380Y138664572D02*
X124956380Y139003239D01*
X123940380Y139341905D01*
X123940380Y139680572D02*
X124956380Y139680572D01*
X123940380Y140261143D01*
X124956380Y140261143D01*
X101156666Y142001381D02*
X100527714Y142001381D01*
X100866380Y141614334D01*
X100721238Y141614334D01*
X100624476Y141565953D01*
X100576095Y141517572D01*
X100527714Y141420810D01*
X100527714Y141178905D01*
X100576095Y141082143D01*
X100624476Y141033762D01*
X100721238Y140985381D01*
X101011523Y140985381D01*
X101108285Y141033762D01*
X101156666Y141082143D01*
X99511714Y141082143D02*
X99560095Y141033762D01*
X99705238Y140985381D01*
X99802000Y140985381D01*
X99947142Y141033762D01*
X100043904Y141130524D01*
X100092285Y141227286D01*
X100140666Y141420810D01*
X100140666Y141565953D01*
X100092285Y141759477D01*
X100043904Y141856239D01*
X99947142Y141953000D01*
X99802000Y142001381D01*
X99705238Y142001381D01*
X99560095Y141953000D01*
X99511714Y141904620D01*
X112956380Y151017905D02*
X112956380Y151598477D01*
X111940380Y151308191D02*
X112956380Y151308191D01*
X111940380Y151937143D02*
X112956380Y151937143D01*
X112956380Y152324191D01*
X112908000Y152420953D01*
X112859619Y152469334D01*
X112762857Y152517715D01*
X112617714Y152517715D01*
X112520952Y152469334D01*
X112472571Y152420953D01*
X112424190Y152324191D01*
X112424190Y151937143D01*
X111988761Y152904762D02*
X111940380Y153049905D01*
X111940380Y153291810D01*
X111988761Y153388572D01*
X112037142Y153436953D01*
X112133904Y153485334D01*
X112230666Y153485334D01*
X112327428Y153436953D01*
X112375809Y153388572D01*
X112424190Y153291810D01*
X112472571Y153098286D01*
X112520952Y153001524D01*
X112569333Y152953143D01*
X112666095Y152904762D01*
X112762857Y152904762D01*
X112859619Y152953143D01*
X112908000Y153001524D01*
X112956380Y153098286D01*
X112956380Y153340191D01*
X112908000Y153485334D01*
X85136523Y150159620D02*
X85088142Y150208000D01*
X84991380Y150256381D01*
X84749476Y150256381D01*
X84652714Y150208000D01*
X84604333Y150159620D01*
X84555952Y150062858D01*
X84555952Y149966096D01*
X84604333Y149820953D01*
X85184904Y149240381D01*
X84555952Y149240381D01*
X83636714Y149240381D02*
X84120523Y149240381D01*
X84120523Y150256381D01*
X79518285Y141904620D02*
X79469904Y141953000D01*
X79373142Y142001381D01*
X79131238Y142001381D01*
X79034476Y141953000D01*
X78986095Y141904620D01*
X78937714Y141807858D01*
X78937714Y141711096D01*
X78986095Y141565953D01*
X79566666Y140985381D01*
X78937714Y140985381D01*
X77970095Y141953000D02*
X78066857Y142001381D01*
X78212000Y142001381D01*
X78357142Y141953000D01*
X78453904Y141856239D01*
X78502285Y141759477D01*
X78550666Y141565953D01*
X78550666Y141420810D01*
X78502285Y141227286D01*
X78453904Y141130524D01*
X78357142Y141033762D01*
X78212000Y140985381D01*
X78115238Y140985381D01*
X77970095Y141033762D01*
X77921714Y141082143D01*
X77921714Y141420810D01*
X78115238Y141420810D01*
X84240380Y151308381D02*
X85256380Y151308381D01*
X85256380Y151550286D01*
X85208000Y151695429D01*
X85111238Y151792191D01*
X85014476Y151840572D01*
X84820952Y151888953D01*
X84675809Y151888953D01*
X84482285Y151840572D01*
X84385523Y151792191D01*
X84288761Y151695429D01*
X84240380Y151550286D01*
X84240380Y151308381D01*
X84240380Y152324381D02*
X85256380Y152324381D01*
X85208000Y153340381D02*
X85256380Y153243620D01*
X85256380Y153098477D01*
X85208000Y152953334D01*
X85111238Y152856572D01*
X85014476Y152808191D01*
X84820952Y152759810D01*
X84675809Y152759810D01*
X84482285Y152808191D01*
X84385523Y152856572D01*
X84288761Y152953334D01*
X84240380Y153098477D01*
X84240380Y153195239D01*
X84288761Y153340381D01*
X84337142Y153388762D01*
X84675809Y153388762D01*
X84675809Y153195239D01*
X84240380Y153824191D02*
X85256380Y153824191D01*
X85256380Y154162858D02*
X85256380Y154743429D01*
X84240380Y154453143D02*
X85256380Y154453143D01*
X84530666Y155033715D02*
X84530666Y155517524D01*
X84240380Y154936953D02*
X85256380Y155275620D01*
X84240380Y155614286D01*
X84240380Y156436762D02*
X84240380Y155952953D01*
X85256380Y155952953D01*
X117740380Y151177524D02*
X118756380Y151177524D01*
X118030666Y151612953D02*
X118030666Y152096762D01*
X117740380Y151516191D02*
X118756380Y151854858D01*
X117740380Y152193524D01*
X118756380Y152387048D02*
X118756380Y152967620D01*
X117740380Y152677334D02*
X118756380Y152677334D01*
X130440380Y137421143D02*
X131456380Y137421143D01*
X130440380Y137904953D02*
X131456380Y137904953D01*
X131456380Y138146858D01*
X131408000Y138292000D01*
X131311238Y138388762D01*
X131214476Y138437143D01*
X131020952Y138485524D01*
X130875809Y138485524D01*
X130682285Y138437143D01*
X130585523Y138388762D01*
X130488761Y138292000D01*
X130440380Y138146858D01*
X130440380Y137904953D01*
X130440380Y139404762D02*
X130440380Y138920953D01*
X131456380Y138920953D01*
X130972571Y139743429D02*
X130972571Y140082096D01*
X130440380Y140227239D02*
X130440380Y139743429D01*
X131456380Y139743429D01*
X131456380Y140227239D01*
X51656904Y149240381D02*
X52237476Y149240381D01*
X51947190Y149240381D02*
X51947190Y150256381D01*
X52043952Y150111239D01*
X52140714Y150014477D01*
X52237476Y149966096D01*
X51221476Y149240381D02*
X51221476Y150256381D01*
X50640904Y149240381D01*
X50640904Y150256381D01*
X127140380Y151196953D02*
X128156380Y151196953D01*
X127140380Y151680762D02*
X128156380Y151680762D01*
X127140380Y152261334D01*
X128156380Y152261334D01*
X128156380Y153035429D02*
X127430666Y153035429D01*
X127285523Y152987048D01*
X127188761Y152890286D01*
X127140380Y152745143D01*
X127140380Y152648381D01*
X128059619Y153470858D02*
X128108000Y153519239D01*
X128156380Y153616000D01*
X128156380Y153857905D01*
X128108000Y153954667D01*
X128059619Y154003048D01*
X127962857Y154051429D01*
X127866095Y154051429D01*
X127720952Y154003048D01*
X127140380Y153422477D01*
X127140380Y154051429D01*
X73619238Y139540381D02*
X73619238Y140556381D01*
X73619238Y140072572D02*
X73038666Y140072572D01*
X73038666Y139540381D02*
X73038666Y140556381D01*
X72554857Y139927429D02*
X71780761Y139927429D01*
X57982714Y149240381D02*
X58563285Y149240381D01*
X58273000Y149240381D02*
X58273000Y150256381D01*
X58369761Y150111239D01*
X58466523Y150014477D01*
X58563285Y149966096D01*
X56966714Y149240381D02*
X57305380Y149724191D01*
X57547285Y149240381D02*
X57547285Y150256381D01*
X57160238Y150256381D01*
X57063476Y150208000D01*
X57015095Y150159620D01*
X56966714Y150062858D01*
X56966714Y149917715D01*
X57015095Y149820953D01*
X57063476Y149772572D01*
X57160238Y149724191D01*
X57547285Y149724191D01*
X61133523Y140985381D02*
X61714095Y140985381D01*
X61423809Y140985381D02*
X61423809Y142001381D01*
X61520571Y141856239D01*
X61617333Y141759477D01*
X61714095Y141711096D01*
X60746476Y141033762D02*
X60601333Y140985381D01*
X60359428Y140985381D01*
X60262666Y141033762D01*
X60214285Y141082143D01*
X60165904Y141178905D01*
X60165904Y141275667D01*
X60214285Y141372429D01*
X60262666Y141420810D01*
X60359428Y141469191D01*
X60552952Y141517572D01*
X60649714Y141565953D01*
X60698095Y141614334D01*
X60746476Y141711096D01*
X60746476Y141807858D01*
X60698095Y141904620D01*
X60649714Y141953000D01*
X60552952Y142001381D01*
X60311047Y142001381D01*
X60165904Y141953000D01*
X58006904Y140985381D02*
X58587476Y140985381D01*
X58297190Y140985381D02*
X58297190Y142001381D01*
X58393952Y141856239D01*
X58490714Y141759477D01*
X58587476Y141711096D01*
X56894142Y140888620D02*
X56990904Y140937000D01*
X57087666Y141033762D01*
X57232809Y141178905D01*
X57329571Y141227286D01*
X57426333Y141227286D01*
X57377952Y140985381D02*
X57474714Y141033762D01*
X57571476Y141130524D01*
X57619857Y141324048D01*
X57619857Y141662715D01*
X57571476Y141856239D01*
X57474714Y141953000D01*
X57377952Y142001381D01*
X57184428Y142001381D01*
X57087666Y141953000D01*
X56990904Y141856239D01*
X56942523Y141662715D01*
X56942523Y141324048D01*
X56990904Y141130524D01*
X57087666Y141033762D01*
X57184428Y140985381D01*
X57377952Y140985381D01*
X73619238Y151540381D02*
X73619238Y152556381D01*
X73619238Y152072572D02*
X73038666Y152072572D01*
X73038666Y151540381D02*
X73038666Y152556381D01*
X72554857Y151927429D02*
X71780761Y151927429D01*
X72167809Y151540381D02*
X72167809Y152314477D01*
X69993285Y150159620D02*
X69944904Y150208000D01*
X69848142Y150256381D01*
X69606238Y150256381D01*
X69509476Y150208000D01*
X69461095Y150159620D01*
X69412714Y150062858D01*
X69412714Y149966096D01*
X69461095Y149820953D01*
X70041666Y149240381D01*
X69412714Y149240381D01*
X68638619Y149772572D02*
X68493476Y149724191D01*
X68445095Y149675810D01*
X68396714Y149579048D01*
X68396714Y149433905D01*
X68445095Y149337143D01*
X68493476Y149288762D01*
X68590238Y149240381D01*
X68977285Y149240381D01*
X68977285Y150256381D01*
X68638619Y150256381D01*
X68541857Y150208000D01*
X68493476Y150159620D01*
X68445095Y150062858D01*
X68445095Y149966096D01*
X68493476Y149869334D01*
X68541857Y149820953D01*
X68638619Y149772572D01*
X68977285Y149772572D01*
X128270857Y141956381D02*
X127641904Y141956381D01*
X127980571Y141569334D01*
X127835428Y141569334D01*
X127738666Y141520953D01*
X127690285Y141472572D01*
X127641904Y141375810D01*
X127641904Y141133905D01*
X127690285Y141037143D01*
X127738666Y140988762D01*
X127835428Y140940381D01*
X128125714Y140940381D01*
X128222476Y140988762D01*
X128270857Y141037143D01*
X127206476Y141956381D02*
X127206476Y141133905D01*
X127158095Y141037143D01*
X127109714Y140988762D01*
X127012952Y140940381D01*
X126819428Y140940381D01*
X126722666Y140988762D01*
X126674285Y141037143D01*
X126625904Y141133905D01*
X126625904Y141956381D01*
X32440380Y134363239D02*
X32440380Y133782667D01*
X32440380Y134072953D02*
X33456380Y134072953D01*
X33311238Y133976191D01*
X33214476Y133879429D01*
X33166095Y133782667D01*
X33359619Y134750286D02*
X33408000Y134798667D01*
X33456380Y134895429D01*
X33456380Y135137334D01*
X33408000Y135234096D01*
X33359619Y135282477D01*
X33262857Y135330858D01*
X33166095Y135330858D01*
X33020952Y135282477D01*
X32440380Y134701905D01*
X32440380Y135330858D01*
X32343619Y135524381D02*
X32343619Y136298477D01*
X32440380Y136540381D02*
X33456380Y136540381D01*
X33456380Y136927429D01*
X33408000Y137024191D01*
X33359619Y137072572D01*
X33262857Y137120953D01*
X33117714Y137120953D01*
X33020952Y137072572D01*
X32972571Y137024191D01*
X32924190Y136927429D01*
X32924190Y136540381D01*
X32972571Y137556381D02*
X32972571Y137895048D01*
X32440380Y138040191D02*
X32440380Y137556381D01*
X33456380Y137556381D01*
X33456380Y138040191D01*
X32440380Y139056191D02*
X32924190Y138717524D01*
X32440380Y138475620D02*
X33456380Y138475620D01*
X33456380Y138862667D01*
X33408000Y138959429D01*
X33359619Y139007810D01*
X33262857Y139056191D01*
X33117714Y139056191D01*
X33020952Y139007810D01*
X32972571Y138959429D01*
X32924190Y138862667D01*
X32924190Y138475620D01*
X32440380Y139491620D02*
X33456380Y139491620D01*
X32730666Y139830286D01*
X33456380Y140168953D01*
X32440380Y140168953D01*
X39845142Y149240381D02*
X40425714Y149240381D01*
X40135428Y149240381D02*
X40135428Y150256381D01*
X40232190Y150111239D01*
X40328952Y150014477D01*
X40425714Y149966096D01*
X39071047Y149772572D02*
X39409714Y149772572D01*
X39409714Y149240381D02*
X39409714Y150256381D01*
X38925904Y150256381D01*
X134340380Y137396953D02*
X135356380Y137396953D01*
X134340380Y137880762D02*
X135356380Y137880762D01*
X134340380Y138461334D01*
X135356380Y138461334D01*
X135356380Y139235429D02*
X134630666Y139235429D01*
X134485523Y139187048D01*
X134388761Y139090286D01*
X134340380Y138945143D01*
X134340380Y138848381D01*
X135356380Y139622477D02*
X135356380Y140251429D01*
X134969333Y139912762D01*
X134969333Y140057905D01*
X134920952Y140154667D01*
X134872571Y140203048D01*
X134775809Y140251429D01*
X134533904Y140251429D01*
X134437142Y140203048D01*
X134388761Y140154667D01*
X134340380Y140057905D01*
X134340380Y139767620D01*
X134388761Y139670858D01*
X134437142Y139622477D01*
X63625142Y149240381D02*
X64205714Y149240381D01*
X63915428Y149240381D02*
X63915428Y150256381D01*
X64012190Y150111239D01*
X64108952Y150014477D01*
X64205714Y149966096D01*
X63334857Y150256381D02*
X62996190Y149240381D01*
X62657523Y150256381D01*
X91607476Y141904620D02*
X91559095Y141953000D01*
X91462333Y142001381D01*
X91220428Y142001381D01*
X91123666Y141953000D01*
X91075285Y141904620D01*
X91026904Y141807858D01*
X91026904Y141711096D01*
X91075285Y141565953D01*
X91655857Y140985381D01*
X91026904Y140985381D01*
X90397952Y142001381D02*
X90204428Y142001381D01*
X90107666Y141953000D01*
X90010904Y141856239D01*
X89962523Y141662715D01*
X89962523Y141324048D01*
X90010904Y141130524D01*
X90107666Y141033762D01*
X90204428Y140985381D01*
X90397952Y140985381D01*
X90494714Y141033762D01*
X90591476Y141130524D01*
X90639857Y141324048D01*
X90639857Y141662715D01*
X90591476Y141856239D01*
X90494714Y141953000D01*
X90397952Y142001381D01*
X87140380Y133098858D02*
X88156380Y133098858D01*
X88156380Y133485905D01*
X88108000Y133582667D01*
X88059619Y133631048D01*
X87962857Y133679429D01*
X87817714Y133679429D01*
X87720952Y133631048D01*
X87672571Y133582667D01*
X87624190Y133485905D01*
X87624190Y133098858D01*
X87140380Y134695429D02*
X87624190Y134356762D01*
X87140380Y134114858D02*
X88156380Y134114858D01*
X88156380Y134501905D01*
X88108000Y134598667D01*
X88059619Y134647048D01*
X87962857Y134695429D01*
X87817714Y134695429D01*
X87720952Y134647048D01*
X87672571Y134598667D01*
X87624190Y134501905D01*
X87624190Y134114858D01*
X87672571Y135130858D02*
X87672571Y135469524D01*
X87140380Y135614667D02*
X87140380Y135130858D01*
X88156380Y135130858D01*
X88156380Y135614667D01*
X87188761Y136001715D02*
X87140380Y136146858D01*
X87140380Y136388762D01*
X87188761Y136485524D01*
X87237142Y136533905D01*
X87333904Y136582286D01*
X87430666Y136582286D01*
X87527428Y136533905D01*
X87575809Y136485524D01*
X87624190Y136388762D01*
X87672571Y136195239D01*
X87720952Y136098477D01*
X87769333Y136050096D01*
X87866095Y136001715D01*
X87962857Y136001715D01*
X88059619Y136050096D01*
X88108000Y136098477D01*
X88156380Y136195239D01*
X88156380Y136437143D01*
X88108000Y136582286D01*
X87188761Y136969334D02*
X87140380Y137114477D01*
X87140380Y137356381D01*
X87188761Y137453143D01*
X87237142Y137501524D01*
X87333904Y137549905D01*
X87430666Y137549905D01*
X87527428Y137501524D01*
X87575809Y137453143D01*
X87624190Y137356381D01*
X87672571Y137162858D01*
X87720952Y137066096D01*
X87769333Y137017715D01*
X87866095Y136969334D01*
X87962857Y136969334D01*
X88059619Y137017715D01*
X88108000Y137066096D01*
X88156380Y137162858D01*
X88156380Y137404762D01*
X88108000Y137549905D01*
X88156380Y137985334D02*
X87333904Y137985334D01*
X87237142Y138033715D01*
X87188761Y138082096D01*
X87140380Y138178858D01*
X87140380Y138372381D01*
X87188761Y138469143D01*
X87237142Y138517524D01*
X87333904Y138565905D01*
X88156380Y138565905D01*
X87140380Y139630286D02*
X87624190Y139291620D01*
X87140380Y139049715D02*
X88156380Y139049715D01*
X88156380Y139436762D01*
X88108000Y139533524D01*
X88059619Y139581905D01*
X87962857Y139630286D01*
X87817714Y139630286D01*
X87720952Y139581905D01*
X87672571Y139533524D01*
X87624190Y139436762D01*
X87624190Y139049715D01*
X87672571Y140065715D02*
X87672571Y140404381D01*
X87140380Y140549524D02*
X87140380Y140065715D01*
X88156380Y140065715D01*
X88156380Y140549524D01*
X88432476Y150159620D02*
X88384095Y150208000D01*
X88287333Y150256381D01*
X88045428Y150256381D01*
X87948666Y150208000D01*
X87900285Y150159620D01*
X87851904Y150062858D01*
X87851904Y149966096D01*
X87900285Y149820953D01*
X88480857Y149240381D01*
X87851904Y149240381D01*
X87416476Y149240381D02*
X87416476Y150256381D01*
X86835904Y149240381D01*
X86835904Y150256381D01*
X76008000Y151540381D02*
X76008000Y152556381D01*
X75524190Y151540381D02*
X75524190Y152556381D01*
X75137142Y152556381D01*
X75040380Y152508000D01*
X74992000Y152459620D01*
X74943619Y152362858D01*
X74943619Y152217715D01*
X74992000Y152120953D01*
X75040380Y152072572D01*
X75137142Y152024191D01*
X75524190Y152024191D01*
X113124904Y150256381D02*
X112495952Y150256381D01*
X112834619Y149869334D01*
X112689476Y149869334D01*
X112592714Y149820953D01*
X112544333Y149772572D01*
X112495952Y149675810D01*
X112495952Y149433905D01*
X112544333Y149337143D01*
X112592714Y149288762D01*
X112689476Y149240381D01*
X112979761Y149240381D01*
X113076523Y149288762D01*
X113124904Y149337143D01*
X111576714Y149240381D02*
X112060523Y149240381D01*
X112060523Y150256381D01*
X57672571Y151038858D02*
X57672571Y151377524D01*
X57140380Y151522667D02*
X57140380Y151038858D01*
X58156380Y151038858D01*
X58156380Y151522667D01*
X57237142Y152538667D02*
X57188761Y152490286D01*
X57140380Y152345143D01*
X57140380Y152248381D01*
X57188761Y152103239D01*
X57285523Y152006477D01*
X57382285Y151958096D01*
X57575809Y151909715D01*
X57720952Y151909715D01*
X57914476Y151958096D01*
X58011238Y152006477D01*
X58108000Y152103239D01*
X58156380Y152248381D01*
X58156380Y152345143D01*
X58108000Y152490286D01*
X58059619Y152538667D01*
X57672571Y153312762D02*
X57672571Y152974096D01*
X57140380Y152974096D02*
X58156380Y152974096D01*
X58156380Y153457905D01*
X82572333Y150159620D02*
X82523952Y150208000D01*
X82427190Y150256381D01*
X82185285Y150256381D01*
X82088523Y150208000D01*
X82040142Y150159620D01*
X81991761Y150062858D01*
X81991761Y149966096D01*
X82040142Y149820953D01*
X82620714Y149240381D01*
X81991761Y149240381D01*
X81266047Y150256381D02*
X81266047Y149530667D01*
X81314428Y149385524D01*
X81411190Y149288762D01*
X81556333Y149240381D01*
X81653095Y149240381D01*
X85233285Y141904620D02*
X85184904Y141953000D01*
X85088142Y142001381D01*
X84846238Y142001381D01*
X84749476Y141953000D01*
X84701095Y141904620D01*
X84652714Y141807858D01*
X84652714Y141711096D01*
X84701095Y141565953D01*
X85281666Y140985381D01*
X84652714Y140985381D01*
X84217285Y140985381D02*
X84217285Y142001381D01*
X83636714Y140985381D02*
X84072142Y141565953D01*
X83636714Y142001381D02*
X84217285Y141420810D01*
X135374095Y142001381D02*
X134745142Y142001381D01*
X135083809Y141614334D01*
X134938666Y141614334D01*
X134841904Y141565953D01*
X134793523Y141517572D01*
X134745142Y141420810D01*
X134745142Y141178905D01*
X134793523Y141082143D01*
X134841904Y141033762D01*
X134938666Y140985381D01*
X135228952Y140985381D01*
X135325714Y141033762D01*
X135374095Y141082143D01*
X134116190Y141469191D02*
X134116190Y140985381D01*
X134454857Y142001381D02*
X134116190Y141469191D01*
X133777523Y142001381D01*
X37027714Y140985381D02*
X37608285Y140985381D01*
X37318000Y140985381D02*
X37318000Y142001381D01*
X37414761Y141856239D01*
X37511523Y141759477D01*
X37608285Y141711096D01*
X36011714Y141082143D02*
X36060095Y141033762D01*
X36205238Y140985381D01*
X36302000Y140985381D01*
X36447142Y141033762D01*
X36543904Y141130524D01*
X36592285Y141227286D01*
X36640666Y141420810D01*
X36640666Y141565953D01*
X36592285Y141759477D01*
X36543904Y141856239D01*
X36447142Y141953000D01*
X36302000Y142001381D01*
X36205238Y142001381D01*
X36060095Y141953000D01*
X36011714Y141904620D01*
X73168285Y141904620D02*
X73119904Y141953000D01*
X73023142Y142001381D01*
X72781238Y142001381D01*
X72684476Y141953000D01*
X72636095Y141904620D01*
X72587714Y141807858D01*
X72587714Y141711096D01*
X72636095Y141565953D01*
X73216666Y140985381D01*
X72587714Y140985381D01*
X71571714Y141082143D02*
X71620095Y141033762D01*
X71765238Y140985381D01*
X71862000Y140985381D01*
X72007142Y141033762D01*
X72103904Y141130524D01*
X72152285Y141227286D01*
X72200666Y141420810D01*
X72200666Y141565953D01*
X72152285Y141759477D01*
X72103904Y141856239D01*
X72007142Y141953000D01*
X71862000Y142001381D01*
X71765238Y142001381D01*
X71620095Y141953000D01*
X71571714Y141904620D01*
X49092714Y140985381D02*
X49673285Y140985381D01*
X49383000Y140985381D02*
X49383000Y142001381D01*
X49479761Y141856239D01*
X49576523Y141759477D01*
X49673285Y141711096D01*
X48657285Y140985381D02*
X48657285Y142001381D01*
X48076714Y140985381D02*
X48512142Y141565953D01*
X48076714Y142001381D02*
X48657285Y141420810D01*
X116170857Y150256381D02*
X115541904Y150256381D01*
X115880571Y149869334D01*
X115735428Y149869334D01*
X115638666Y149820953D01*
X115590285Y149772572D01*
X115541904Y149675810D01*
X115541904Y149433905D01*
X115590285Y149337143D01*
X115638666Y149288762D01*
X115735428Y149240381D01*
X116025714Y149240381D01*
X116122476Y149288762D01*
X116170857Y149337143D01*
X115106476Y149240381D02*
X115106476Y150256381D01*
X114525904Y149240381D01*
X114525904Y150256381D01*
X33145142Y140985381D02*
X33725714Y140985381D01*
X33435428Y140985381D02*
X33435428Y142001381D01*
X33532190Y141856239D01*
X33628952Y141759477D01*
X33725714Y141711096D01*
X32758095Y141275667D02*
X32274285Y141275667D01*
X32854857Y140985381D02*
X32516190Y142001381D01*
X32177523Y140985381D01*
X117640380Y136813143D02*
X118656380Y136813143D01*
X118656380Y137200191D01*
X118608000Y137296953D01*
X118559619Y137345334D01*
X118462857Y137393715D01*
X118317714Y137393715D01*
X118220952Y137345334D01*
X118172571Y137296953D01*
X118124190Y137200191D01*
X118124190Y136813143D01*
X118656380Y137829143D02*
X117833904Y137829143D01*
X117737142Y137877524D01*
X117688761Y137925905D01*
X117640380Y138022667D01*
X117640380Y138216191D01*
X117688761Y138312953D01*
X117737142Y138361334D01*
X117833904Y138409715D01*
X118656380Y138409715D01*
X117640380Y138893524D02*
X118656380Y138893524D01*
X117930666Y139232191D01*
X118656380Y139570858D01*
X117640380Y139570858D01*
X117640380Y140054667D02*
X118656380Y140054667D01*
X118656380Y140441715D01*
X118608000Y140538477D01*
X118559619Y140586858D01*
X118462857Y140635239D01*
X118317714Y140635239D01*
X118220952Y140586858D01*
X118172571Y140538477D01*
X118124190Y140441715D01*
X118124190Y140054667D01*
D16*
X9423809Y124700000D02*
X9614285Y124795239D01*
X9900000Y124795239D01*
X10185714Y124700000D01*
X10376190Y124509524D01*
X10471428Y124319048D01*
X10566666Y123938096D01*
X10566666Y123652381D01*
X10471428Y123271429D01*
X10376190Y123080953D01*
X10185714Y122890477D01*
X9900000Y122795239D01*
X9709523Y122795239D01*
X9423809Y122890477D01*
X9328571Y122985715D01*
X9328571Y123652381D01*
X9709523Y123652381D01*
X8471428Y122795239D02*
X8471428Y124795239D01*
X7328571Y122795239D01*
X7328571Y124795239D01*
X6376190Y122795239D02*
X6376190Y124795239D01*
X5900000Y124795239D01*
X5614285Y124700000D01*
X5423809Y124509524D01*
X5328571Y124319048D01*
X5233333Y123938096D01*
X5233333Y123652381D01*
X5328571Y123271429D01*
X5423809Y123080953D01*
X5614285Y122890477D01*
X5900000Y122795239D01*
X6376190Y122795239D01*
D11*
X45651619Y140985381D02*
X46232190Y140985381D01*
X45941904Y140985381D02*
X45941904Y142001381D01*
X46038666Y141856239D01*
X46135428Y141759477D01*
X46232190Y141711096D01*
X45216190Y140985381D02*
X45216190Y142001381D01*
X69920714Y141904620D02*
X69872333Y141953000D01*
X69775571Y142001381D01*
X69533666Y142001381D01*
X69436904Y141953000D01*
X69388523Y141904620D01*
X69340142Y141807858D01*
X69340142Y141711096D01*
X69388523Y141565953D01*
X69969095Y140985381D01*
X69340142Y140985381D01*
X68953095Y141275667D02*
X68469285Y141275667D01*
X69049857Y140985381D02*
X68711190Y142001381D01*
X68372523Y140985381D01*
X118936666Y150256381D02*
X118307714Y150256381D01*
X118646380Y149869334D01*
X118501238Y149869334D01*
X118404476Y149820953D01*
X118356095Y149772572D01*
X118307714Y149675810D01*
X118307714Y149433905D01*
X118356095Y149337143D01*
X118404476Y149288762D01*
X118501238Y149240381D01*
X118791523Y149240381D01*
X118888285Y149288762D01*
X118936666Y149337143D01*
X117872285Y149240381D02*
X117872285Y150256381D01*
X117485238Y150256381D01*
X117388476Y150208000D01*
X117340095Y150159620D01*
X117291714Y150062858D01*
X117291714Y149917715D01*
X117340095Y149820953D01*
X117388476Y149772572D01*
X117485238Y149724191D01*
X117872285Y149724191D01*
X115856380Y137917905D02*
X115856380Y138498477D01*
X114840380Y138208191D02*
X115856380Y138208191D01*
X114840380Y138837143D02*
X115856380Y138837143D01*
X115856380Y139224191D01*
X115808000Y139320953D01*
X115759619Y139369334D01*
X115662857Y139417715D01*
X115517714Y139417715D01*
X115420952Y139369334D01*
X115372571Y139320953D01*
X115324190Y139224191D01*
X115324190Y138837143D01*
X114888761Y139804762D02*
X114840380Y139949905D01*
X114840380Y140191810D01*
X114888761Y140288572D01*
X114937142Y140336953D01*
X115033904Y140385334D01*
X115130666Y140385334D01*
X115227428Y140336953D01*
X115275809Y140288572D01*
X115324190Y140191810D01*
X115372571Y139998286D01*
X115420952Y139901524D01*
X115469333Y139853143D01*
X115566095Y139804762D01*
X115662857Y139804762D01*
X115759619Y139853143D01*
X115808000Y139901524D01*
X115856380Y139998286D01*
X115856380Y140240191D01*
X115808000Y140385334D01*
X101156666Y150256381D02*
X100527714Y150256381D01*
X100866380Y149869334D01*
X100721238Y149869334D01*
X100624476Y149820953D01*
X100576095Y149772572D01*
X100527714Y149675810D01*
X100527714Y149433905D01*
X100576095Y149337143D01*
X100624476Y149288762D01*
X100721238Y149240381D01*
X101011523Y149240381D01*
X101108285Y149288762D01*
X101156666Y149337143D01*
X100092285Y149240381D02*
X100092285Y150256381D01*
X99850380Y150256381D01*
X99705238Y150208000D01*
X99608476Y150111239D01*
X99560095Y150014477D01*
X99511714Y149820953D01*
X99511714Y149675810D01*
X99560095Y149482286D01*
X99608476Y149385524D01*
X99705238Y149288762D01*
X99850380Y149240381D01*
X100092285Y149240381D01*
D10*
X995238Y85409524D02*
X2995238Y85409524D01*
X995238Y86266667D02*
X2042857Y86266667D01*
X2233333Y86171429D01*
X2328571Y85980953D01*
X2328571Y85695239D01*
X2233333Y85504762D01*
X2138095Y85409524D01*
X2328571Y86933334D02*
X2328571Y87695239D01*
X2995238Y87219048D02*
X1280952Y87219048D01*
X1090476Y87314286D01*
X995238Y87504762D01*
X995238Y87695239D01*
X2328571Y88076191D02*
X2328571Y88838096D01*
X2995238Y88361905D02*
X1280952Y88361905D01*
X1090476Y88457143D01*
X995238Y88647620D01*
X995238Y88838096D01*
X2328571Y89504762D02*
X328571Y89504762D01*
X2233333Y89504762D02*
X2328571Y89695239D01*
X2328571Y90076191D01*
X2233333Y90266667D01*
X2138095Y90361905D01*
X1947619Y90457143D01*
X1376190Y90457143D01*
X1185714Y90361905D01*
X1090476Y90266667D01*
X995238Y90076191D01*
X995238Y89695239D01*
X1090476Y89504762D01*
X1185714Y91314286D02*
X1090476Y91409524D01*
X995238Y91314286D01*
X1090476Y91219048D01*
X1185714Y91314286D01*
X995238Y91314286D01*
X2233333Y91314286D02*
X2138095Y91409524D01*
X2042857Y91314286D01*
X2138095Y91219048D01*
X2233333Y91314286D01*
X2042857Y91314286D01*
X3090476Y93695239D02*
X519047Y91980953D01*
X3090476Y95790477D02*
X519047Y94076191D01*
X995238Y96457143D02*
X2328571Y96457143D01*
X1947619Y96457143D02*
X2138095Y96552381D01*
X2233333Y96647620D01*
X2328571Y96838096D01*
X2328571Y97028572D01*
X2328571Y98552381D02*
X995238Y98552381D01*
X2328571Y97695239D02*
X1280952Y97695239D01*
X1090476Y97790477D01*
X995238Y97980953D01*
X995238Y98266667D01*
X1090476Y98457143D01*
X1185714Y98552381D01*
X1090476Y99409524D02*
X995238Y99600000D01*
X995238Y99980953D01*
X1090476Y100171429D01*
X1280952Y100266667D01*
X1376190Y100266667D01*
X1566666Y100171429D01*
X1661904Y99980953D01*
X1661904Y99695239D01*
X1757142Y99504762D01*
X1947619Y99409524D01*
X2042857Y99409524D01*
X2233333Y99504762D01*
X2328571Y99695239D01*
X2328571Y99980953D01*
X2233333Y100171429D01*
X1090476Y101885715D02*
X995238Y101695239D01*
X995238Y101314286D01*
X1090476Y101123810D01*
X1280952Y101028572D01*
X2042857Y101028572D01*
X2233333Y101123810D01*
X2328571Y101314286D01*
X2328571Y101695239D01*
X2233333Y101885715D01*
X2042857Y101980953D01*
X1852380Y101980953D01*
X1661904Y101028572D01*
X2328571Y102552381D02*
X2328571Y103314286D01*
X995238Y102838096D02*
X2709523Y102838096D01*
X2900000Y102933334D01*
X2995238Y103123810D01*
X2995238Y103314286D01*
X995238Y103980953D02*
X2328571Y103980953D01*
X2995238Y103980953D02*
X2900000Y103885715D01*
X2804761Y103980953D01*
X2900000Y104076191D01*
X2995238Y103980953D01*
X2804761Y103980953D01*
X1185714Y104933334D02*
X1090476Y105028572D01*
X995238Y104933334D01*
X1090476Y104838096D01*
X1185714Y104933334D01*
X995238Y104933334D01*
X1090476Y106742858D02*
X995238Y106552381D01*
X995238Y106171429D01*
X1090476Y105980953D01*
X1185714Y105885715D01*
X1376190Y105790477D01*
X1947619Y105790477D01*
X2138095Y105885715D01*
X2233333Y105980953D01*
X2328571Y106171429D01*
X2328571Y106552381D01*
X2233333Y106742858D01*
X995238Y107885715D02*
X1090476Y107695239D01*
X1185714Y107600000D01*
X1376190Y107504762D01*
X1947619Y107504762D01*
X2138095Y107600000D01*
X2233333Y107695239D01*
X2328571Y107885715D01*
X2328571Y108171429D01*
X2233333Y108361905D01*
X2138095Y108457143D01*
X1947619Y108552381D01*
X1376190Y108552381D01*
X1185714Y108457143D01*
X1090476Y108361905D01*
X995238Y108171429D01*
X995238Y107885715D01*
X995238Y109409524D02*
X2328571Y109409524D01*
X2138095Y109409524D02*
X2233333Y109504762D01*
X2328571Y109695239D01*
X2328571Y109980953D01*
X2233333Y110171429D01*
X2042857Y110266667D01*
X995238Y110266667D01*
X2042857Y110266667D02*
X2233333Y110361905D01*
X2328571Y110552381D01*
X2328571Y110838096D01*
X2233333Y111028572D01*
X2042857Y111123810D01*
X995238Y111123810D01*
X3090476Y113504762D02*
X519047Y111790477D01*
X1090476Y114076191D02*
X995238Y114266667D01*
X995238Y114647620D01*
X1090476Y114838096D01*
X1280952Y114933334D01*
X1376190Y114933334D01*
X1566666Y114838096D01*
X1661904Y114647620D01*
X1661904Y114361905D01*
X1757142Y114171429D01*
X1947619Y114076191D01*
X2042857Y114076191D01*
X2233333Y114171429D01*
X2328571Y114361905D01*
X2328571Y114647620D01*
X2233333Y114838096D01*
X3090476Y117219048D02*
X519047Y115504762D01*
X995238Y117885715D02*
X2995238Y117885715D01*
X995238Y118742858D02*
X2042857Y118742858D01*
X2233333Y118647620D01*
X2328571Y118457143D01*
X2328571Y118171429D01*
X2233333Y117980953D01*
X2138095Y117885715D01*
X1090476Y120457143D02*
X995238Y120266667D01*
X995238Y119885715D01*
X1090476Y119695239D01*
X1280952Y119600000D01*
X2042857Y119600000D01*
X2233333Y119695239D01*
X2328571Y119885715D01*
X2328571Y120266667D01*
X2233333Y120457143D01*
X2042857Y120552381D01*
X1852380Y120552381D01*
X1661904Y119600000D01*
X995238Y121695239D02*
X1090476Y121504762D01*
X1280952Y121409524D01*
X2995238Y121409524D01*
X995238Y122742858D02*
X1090476Y122552381D01*
X1280952Y122457143D01*
X2995238Y122457143D01*
X1090476Y124266667D02*
X995238Y124076191D01*
X995238Y123695239D01*
X1090476Y123504762D01*
X1280952Y123409524D01*
X2042857Y123409524D01*
X2233333Y123504762D01*
X2328571Y123695239D01*
X2328571Y124076191D01*
X2233333Y124266667D01*
X2042857Y124361905D01*
X1852380Y124361905D01*
X1661904Y123409524D01*
X2328571Y125219048D02*
X995238Y125219048D01*
X2138095Y125219048D02*
X2233333Y125314286D01*
X2328571Y125504762D01*
X2328571Y125790477D01*
X2233333Y125980953D01*
X2042857Y126076191D01*
X995238Y126076191D01*
X995238Y127028572D02*
X2995238Y127028572D01*
X995238Y128171429D01*
X2995238Y128171429D01*
X1566666Y129028572D02*
X1566666Y129980953D01*
X995238Y128838096D02*
X2995238Y129504762D01*
X995238Y130171429D01*
X2995238Y131695239D02*
X2995238Y131314286D01*
X2900000Y131123810D01*
X2804761Y131028572D01*
X2519047Y130838096D01*
X2138095Y130742858D01*
X1376190Y130742858D01*
X1185714Y130838096D01*
X1090476Y130933334D01*
X995238Y131123810D01*
X995238Y131504762D01*
X1090476Y131695239D01*
X1185714Y131790477D01*
X1376190Y131885715D01*
X1852380Y131885715D01*
X2042857Y131790477D01*
X2138095Y131695239D01*
X2233333Y131504762D01*
X2233333Y131123810D01*
X2138095Y130933334D01*
X2042857Y130838096D01*
X1852380Y130742858D01*
D11*
X91583285Y150159620D02*
X91534904Y150208000D01*
X91438142Y150256381D01*
X91196238Y150256381D01*
X91099476Y150208000D01*
X91051095Y150159620D01*
X91002714Y150062858D01*
X91002714Y149966096D01*
X91051095Y149820953D01*
X91631666Y149240381D01*
X91002714Y149240381D01*
X90567285Y149240381D02*
X90567285Y150256381D01*
X90180238Y150256381D01*
X90083476Y150208000D01*
X90035095Y150159620D01*
X89986714Y150062858D01*
X89986714Y149917715D01*
X90035095Y149820953D01*
X90083476Y149772572D01*
X90180238Y149724191D01*
X90567285Y149724191D01*
X106037142Y138298477D02*
X105988761Y138250096D01*
X105940380Y138104953D01*
X105940380Y138008191D01*
X105988761Y137863048D01*
X106085523Y137766286D01*
X106182285Y137717905D01*
X106375809Y137669524D01*
X106520952Y137669524D01*
X106714476Y137717905D01*
X106811238Y137766286D01*
X106908000Y137863048D01*
X106956380Y138008191D01*
X106956380Y138104953D01*
X106908000Y138250096D01*
X106859619Y138298477D01*
X106230666Y138685524D02*
X106230666Y139169334D01*
X105940380Y138588762D02*
X106956380Y138927429D01*
X105940380Y139266096D01*
X105940380Y139604762D02*
X106956380Y139604762D01*
X106230666Y139943429D01*
X106956380Y140282096D01*
X105940380Y140282096D01*
X54807714Y149240381D02*
X55388285Y149240381D01*
X55098000Y149240381D02*
X55098000Y150256381D01*
X55194761Y150111239D01*
X55291523Y150014477D01*
X55388285Y149966096D01*
X54372285Y149240381D02*
X54372285Y150256381D01*
X53985238Y150256381D01*
X53888476Y150208000D01*
X53840095Y150159620D01*
X53791714Y150062858D01*
X53791714Y149917715D01*
X53840095Y149820953D01*
X53888476Y149772572D01*
X53985238Y149724191D01*
X54372285Y149724191D01*
X39237142Y151448572D02*
X39188761Y151400191D01*
X39140380Y151255048D01*
X39140380Y151158286D01*
X39188761Y151013143D01*
X39285523Y150916381D01*
X39382285Y150868000D01*
X39575809Y150819620D01*
X39720952Y150819620D01*
X39914476Y150868000D01*
X40011238Y150916381D01*
X40108000Y151013143D01*
X40156380Y151158286D01*
X40156380Y151255048D01*
X40108000Y151400191D01*
X40059619Y151448572D01*
X39430666Y151835620D02*
X39430666Y152319429D01*
X39140380Y151738858D02*
X40156380Y152077524D01*
X39140380Y152416191D01*
X39140380Y152754858D02*
X40156380Y152754858D01*
X39140380Y153335429D01*
X40156380Y153335429D01*
X39043619Y153577334D02*
X39043619Y154351429D01*
X39140380Y155077143D02*
X39140380Y154593334D01*
X40156380Y154593334D01*
X51705285Y140985381D02*
X52285857Y140985381D01*
X51995571Y140985381D02*
X51995571Y142001381D01*
X52092333Y141856239D01*
X52189095Y141759477D01*
X52285857Y141711096D01*
X51269857Y140985381D02*
X51269857Y142001381D01*
X50931190Y141275667D01*
X50592523Y142001381D01*
X50592523Y140985381D01*
X82427190Y141904620D02*
X82378809Y141953000D01*
X82282047Y142001381D01*
X82040142Y142001381D01*
X81943380Y141953000D01*
X81895000Y141904620D01*
X81846619Y141807858D01*
X81846619Y141711096D01*
X81895000Y141565953D01*
X82475571Y140985381D01*
X81846619Y140985381D01*
X81411190Y140985381D02*
X81411190Y142001381D01*
X97274095Y142001381D02*
X96645142Y142001381D01*
X96983809Y141614334D01*
X96838666Y141614334D01*
X96741904Y141565953D01*
X96693523Y141517572D01*
X96645142Y141420810D01*
X96645142Y141178905D01*
X96693523Y141082143D01*
X96741904Y141033762D01*
X96838666Y140985381D01*
X97128952Y140985381D01*
X97225714Y141033762D01*
X97274095Y141082143D01*
X96258095Y141275667D02*
X95774285Y141275667D01*
X96354857Y140985381D02*
X96016190Y142001381D01*
X95677523Y140985381D01*
X48872571Y151038858D02*
X48872571Y151377524D01*
X48340380Y151522667D02*
X48340380Y151038858D01*
X49356380Y151038858D01*
X49356380Y151522667D01*
X48437142Y152538667D02*
X48388761Y152490286D01*
X48340380Y152345143D01*
X48340380Y152248381D01*
X48388761Y152103239D01*
X48485523Y152006477D01*
X48582285Y151958096D01*
X48775809Y151909715D01*
X48920952Y151909715D01*
X49114476Y151958096D01*
X49211238Y152006477D01*
X49308000Y152103239D01*
X49356380Y152248381D01*
X49356380Y152345143D01*
X49308000Y152490286D01*
X49259619Y152538667D01*
X48872571Y153312762D02*
X48872571Y152974096D01*
X48340380Y152974096D02*
X49356380Y152974096D01*
X49356380Y153457905D01*
X120837142Y138616191D02*
X120788761Y138567810D01*
X120740380Y138422667D01*
X120740380Y138325905D01*
X120788761Y138180762D01*
X120885523Y138084000D01*
X120982285Y138035620D01*
X121175809Y137987239D01*
X121320952Y137987239D01*
X121514476Y138035620D01*
X121611238Y138084000D01*
X121708000Y138180762D01*
X121756380Y138325905D01*
X121756380Y138422667D01*
X121708000Y138567810D01*
X121659619Y138616191D01*
X120740380Y139535429D02*
X120740380Y139051620D01*
X121756380Y139051620D01*
X121756380Y139728953D02*
X121756380Y140309524D01*
X120740380Y140019239D02*
X121756380Y140019239D01*
X45430666Y150917905D02*
X45430666Y151401715D01*
X45140380Y150821143D02*
X46156380Y151159810D01*
X45140380Y151498477D01*
X46204761Y152562858D02*
X44898476Y151692000D01*
X45237142Y153482096D02*
X45188761Y153433715D01*
X45140380Y153288572D01*
X45140380Y153191810D01*
X45188761Y153046667D01*
X45285523Y152949905D01*
X45382285Y152901524D01*
X45575809Y152853143D01*
X45720952Y152853143D01*
X45914476Y152901524D01*
X46011238Y152949905D01*
X46108000Y153046667D01*
X46156380Y153191810D01*
X46156380Y153288572D01*
X46108000Y153433715D01*
X46059619Y153482096D01*
X39437142Y139354858D02*
X39388761Y139306477D01*
X39340380Y139161334D01*
X39340380Y139064572D01*
X39388761Y138919429D01*
X39485523Y138822667D01*
X39582285Y138774286D01*
X39775809Y138725905D01*
X39920952Y138725905D01*
X40114476Y138774286D01*
X40211238Y138822667D01*
X40308000Y138919429D01*
X40356380Y139064572D01*
X40356380Y139161334D01*
X40308000Y139306477D01*
X40259619Y139354858D01*
X39872571Y139790286D02*
X39872571Y140128953D01*
X39340380Y140274096D02*
X39340380Y139790286D01*
X40356380Y139790286D01*
X40356380Y140274096D01*
X135422476Y150256381D02*
X134793523Y150256381D01*
X135132190Y149869334D01*
X134987047Y149869334D01*
X134890285Y149820953D01*
X134841904Y149772572D01*
X134793523Y149675810D01*
X134793523Y149433905D01*
X134841904Y149337143D01*
X134890285Y149288762D01*
X134987047Y149240381D01*
X135277333Y149240381D01*
X135374095Y149288762D01*
X135422476Y149337143D01*
X134454857Y150256381D02*
X133777523Y150256381D01*
X134454857Y149240381D01*
X133777523Y149240381D01*
X76294904Y141904620D02*
X76246523Y141953000D01*
X76149761Y142001381D01*
X75907857Y142001381D01*
X75811095Y141953000D01*
X75762714Y141904620D01*
X75714333Y141807858D01*
X75714333Y141711096D01*
X75762714Y141565953D01*
X76343285Y140985381D01*
X75714333Y140985381D01*
X75278904Y141517572D02*
X74940238Y141517572D01*
X74795095Y140985381D02*
X75278904Y140985381D01*
X75278904Y142001381D01*
X74795095Y142001381D01*
X125165714Y150256381D02*
X124536761Y150256381D01*
X124875428Y149869334D01*
X124730285Y149869334D01*
X124633523Y149820953D01*
X124585142Y149772572D01*
X124536761Y149675810D01*
X124536761Y149433905D01*
X124585142Y149337143D01*
X124633523Y149288762D01*
X124730285Y149240381D01*
X125020571Y149240381D01*
X125117333Y149288762D01*
X125165714Y149337143D01*
X124246476Y150256381D02*
X123665904Y150256381D01*
X123956190Y149240381D02*
X123956190Y150256381D01*
X104283285Y142001381D02*
X103654333Y142001381D01*
X103993000Y141614334D01*
X103847857Y141614334D01*
X103751095Y141565953D01*
X103702714Y141517572D01*
X103654333Y141420810D01*
X103654333Y141178905D01*
X103702714Y141082143D01*
X103751095Y141033762D01*
X103847857Y140985381D01*
X104138142Y140985381D01*
X104234904Y141033762D01*
X104283285Y141082143D01*
X103218904Y141517572D02*
X102880238Y141517572D01*
X102735095Y140985381D02*
X103218904Y140985381D01*
X103218904Y142001381D01*
X102735095Y142001381D01*
X113872380Y139756381D02*
X114356190Y139756381D01*
X114404571Y139272572D01*
X114356190Y139320953D01*
X114259428Y139369334D01*
X114017523Y139369334D01*
X113920761Y139320953D01*
X113872380Y139272572D01*
X113824000Y139175810D01*
X113824000Y138933905D01*
X113872380Y138837143D01*
X113920761Y138788762D01*
X114017523Y138740381D01*
X114259428Y138740381D01*
X114356190Y138788762D01*
X114404571Y138837143D01*
X113533714Y139756381D02*
X113195047Y138740381D01*
X112856380Y139756381D01*
X112662857Y139756381D02*
X112082285Y139756381D01*
X112372571Y138740381D02*
X112372571Y139756381D01*
X111743619Y138740381D02*
X111743619Y139756381D01*
X111356571Y139756381D01*
X111259809Y139708000D01*
X111211428Y139659620D01*
X111163047Y139562858D01*
X111163047Y139417715D01*
X111211428Y139320953D01*
X111259809Y139272572D01*
X111356571Y139224191D01*
X111743619Y139224191D01*
X110776000Y138788762D02*
X110630857Y138740381D01*
X110388952Y138740381D01*
X110292190Y138788762D01*
X110243809Y138837143D01*
X110195428Y138933905D01*
X110195428Y139030667D01*
X110243809Y139127429D01*
X110292190Y139175810D01*
X110388952Y139224191D01*
X110582476Y139272572D01*
X110679238Y139320953D01*
X110727619Y139369334D01*
X110776000Y139466096D01*
X110776000Y139562858D01*
X110727619Y139659620D01*
X110679238Y139708000D01*
X110582476Y139756381D01*
X110340571Y139756381D01*
X110195428Y139708000D01*
X85408000Y138425905D02*
X85456380Y138329143D01*
X85456380Y138184000D01*
X85408000Y138038858D01*
X85311238Y137942096D01*
X85214476Y137893715D01*
X85020952Y137845334D01*
X84875809Y137845334D01*
X84682285Y137893715D01*
X84585523Y137942096D01*
X84488761Y138038858D01*
X84440380Y138184000D01*
X84440380Y138280762D01*
X84488761Y138425905D01*
X84537142Y138474286D01*
X84875809Y138474286D01*
X84875809Y138280762D01*
X84440380Y138909715D02*
X85456380Y138909715D01*
X84440380Y139490286D01*
X85456380Y139490286D01*
X84440380Y139974096D02*
X85456380Y139974096D01*
X85456380Y140216000D01*
X85408000Y140361143D01*
X85311238Y140457905D01*
X85214476Y140506286D01*
X85020952Y140554667D01*
X84875809Y140554667D01*
X84682285Y140506286D01*
X84585523Y140457905D01*
X84488761Y140361143D01*
X84440380Y140216000D01*
X84440380Y139974096D01*
X123940380Y151113143D02*
X124956380Y151113143D01*
X124956380Y151500191D01*
X124908000Y151596953D01*
X124859619Y151645334D01*
X124762857Y151693715D01*
X124617714Y151693715D01*
X124520952Y151645334D01*
X124472571Y151596953D01*
X124424190Y151500191D01*
X124424190Y151113143D01*
X124956380Y152129143D02*
X124133904Y152129143D01*
X124037142Y152177524D01*
X123988761Y152225905D01*
X123940380Y152322667D01*
X123940380Y152516191D01*
X123988761Y152612953D01*
X124037142Y152661334D01*
X124133904Y152709715D01*
X124956380Y152709715D01*
X123940380Y153193524D02*
X124956380Y153193524D01*
X124230666Y153532191D01*
X124956380Y153870858D01*
X123940380Y153870858D01*
X123940380Y154354667D02*
X124956380Y154354667D01*
X124956380Y154741715D01*
X124908000Y154838477D01*
X124859619Y154886858D01*
X124762857Y154935239D01*
X124617714Y154935239D01*
X124520952Y154886858D01*
X124472571Y154838477D01*
X124424190Y154741715D01*
X124424190Y154354667D01*
X131612476Y150256381D02*
X130983523Y150256381D01*
X131322190Y149869334D01*
X131177047Y149869334D01*
X131080285Y149820953D01*
X131031904Y149772572D01*
X130983523Y149675810D01*
X130983523Y149433905D01*
X131031904Y149337143D01*
X131080285Y149288762D01*
X131177047Y149240381D01*
X131467333Y149240381D01*
X131564095Y149288762D01*
X131612476Y149337143D01*
X130644857Y150256381D02*
X129967523Y149240381D01*
X129967523Y150256381D02*
X130644857Y149240381D01*
X42766904Y149240381D02*
X43347476Y149240381D01*
X43057190Y149240381D02*
X43057190Y150256381D01*
X43153952Y150111239D01*
X43250714Y150014477D01*
X43347476Y149966096D01*
X42331476Y149240381D02*
X42331476Y150256381D01*
X42331476Y149772572D02*
X41750904Y149772572D01*
X41750904Y149240381D02*
X41750904Y150256381D01*
X104259095Y150256381D02*
X103630142Y150256381D01*
X103968809Y149869334D01*
X103823666Y149869334D01*
X103726904Y149820953D01*
X103678523Y149772572D01*
X103630142Y149675810D01*
X103630142Y149433905D01*
X103678523Y149337143D01*
X103726904Y149288762D01*
X103823666Y149240381D01*
X104113952Y149240381D01*
X104210714Y149288762D01*
X104259095Y149337143D01*
X102856047Y149772572D02*
X103194714Y149772572D01*
X103194714Y149240381D02*
X103194714Y150256381D01*
X102710904Y150256381D01*
X63037142Y151743810D02*
X62988761Y151695429D01*
X62940380Y151550286D01*
X62940380Y151453524D01*
X62988761Y151308381D01*
X63085523Y151211620D01*
X63182285Y151163239D01*
X63375809Y151114858D01*
X63520952Y151114858D01*
X63714476Y151163239D01*
X63811238Y151211620D01*
X63908000Y151308381D01*
X63956380Y151453524D01*
X63956380Y151550286D01*
X63908000Y151695429D01*
X63859619Y151743810D01*
X62940380Y152663048D02*
X62940380Y152179239D01*
X63956380Y152179239D01*
X63956380Y153001715D02*
X63133904Y153001715D01*
X63037142Y153050096D01*
X62988761Y153098477D01*
X62940380Y153195239D01*
X62940380Y153388762D01*
X62988761Y153485524D01*
X63037142Y153533905D01*
X63133904Y153582286D01*
X63956380Y153582286D01*
X63956380Y153920953D02*
X63956380Y154501524D01*
X62940380Y154211239D02*
X63956380Y154211239D01*
X63037142Y155420762D02*
X62988761Y155372381D01*
X62940380Y155227239D01*
X62940380Y155130477D01*
X62988761Y154985334D01*
X63085523Y154888572D01*
X63182285Y154840191D01*
X63375809Y154791810D01*
X63520952Y154791810D01*
X63714476Y154840191D01*
X63811238Y154888572D01*
X63908000Y154985334D01*
X63956380Y155130477D01*
X63956380Y155227239D01*
X63908000Y155372381D01*
X63859619Y155420762D01*
X62940380Y155856191D02*
X63956380Y155856191D01*
X63472571Y155856191D02*
X63472571Y156436762D01*
X62940380Y156436762D02*
X63956380Y156436762D01*
X128374095Y150256381D02*
X127745142Y150256381D01*
X128083809Y149869334D01*
X127938666Y149869334D01*
X127841904Y149820953D01*
X127793523Y149772572D01*
X127745142Y149675810D01*
X127745142Y149433905D01*
X127793523Y149337143D01*
X127841904Y149288762D01*
X127938666Y149240381D01*
X128228952Y149240381D01*
X128325714Y149288762D01*
X128374095Y149337143D01*
X127454857Y150256381D02*
X127116190Y149240381D01*
X126777523Y150256381D01*
X73168285Y150159620D02*
X73119904Y150208000D01*
X73023142Y150256381D01*
X72781238Y150256381D01*
X72684476Y150208000D01*
X72636095Y150159620D01*
X72587714Y150062858D01*
X72587714Y149966096D01*
X72636095Y149820953D01*
X73216666Y149240381D01*
X72587714Y149240381D01*
X72152285Y149240381D02*
X72152285Y150256381D01*
X71910380Y150256381D01*
X71765238Y150208000D01*
X71668476Y150111239D01*
X71620095Y150014477D01*
X71571714Y149820953D01*
X71571714Y149675810D01*
X71620095Y149482286D01*
X71668476Y149385524D01*
X71765238Y149288762D01*
X71910380Y149240381D01*
X72152285Y149240381D01*
X69927428Y151058286D02*
X69927428Y151832381D01*
X69540380Y151445334D02*
X70314476Y151445334D01*
X70556380Y152800000D02*
X70556380Y152316191D01*
X70072571Y152267810D01*
X70120952Y152316191D01*
X70169333Y152412953D01*
X70169333Y152654858D01*
X70120952Y152751620D01*
X70072571Y152800000D01*
X69975809Y152848381D01*
X69733904Y152848381D01*
X69637142Y152800000D01*
X69588761Y152751620D01*
X69540380Y152654858D01*
X69540380Y152412953D01*
X69588761Y152316191D01*
X69637142Y152267810D01*
X70556380Y153138667D02*
X69540380Y153477334D01*
X70556380Y153816000D01*
X69830666Y154106286D02*
X69830666Y154590096D01*
X69540380Y154009524D02*
X70556380Y154348191D01*
X69540380Y154686858D01*
X36337142Y151427620D02*
X36288761Y151379239D01*
X36240380Y151234096D01*
X36240380Y151137334D01*
X36288761Y150992191D01*
X36385523Y150895429D01*
X36482285Y150847048D01*
X36675809Y150798667D01*
X36820952Y150798667D01*
X37014476Y150847048D01*
X37111238Y150895429D01*
X37208000Y150992191D01*
X37256380Y151137334D01*
X37256380Y151234096D01*
X37208000Y151379239D01*
X37159619Y151427620D01*
X36530666Y151814667D02*
X36530666Y152298477D01*
X36240380Y151717905D02*
X37256380Y152056572D01*
X36240380Y152395239D01*
X36240380Y152733905D02*
X37256380Y152733905D01*
X36240380Y153314477D01*
X37256380Y153314477D01*
X36143619Y153556381D02*
X36143619Y154330477D01*
X36240380Y154572381D02*
X37256380Y154572381D01*
X36772571Y154572381D02*
X36772571Y155152953D01*
X36240380Y155152953D02*
X37256380Y155152953D01*
D17*
X3595238Y85395239D02*
X4928571Y85395239D01*
X4547619Y85395239D02*
X4738095Y85490477D01*
X4833333Y85585715D01*
X4928571Y85776191D01*
X4928571Y85966667D01*
X3690476Y87395239D02*
X3595238Y87204762D01*
X3595238Y86823810D01*
X3690476Y86633334D01*
X3880952Y86538096D01*
X4642857Y86538096D01*
X4833333Y86633334D01*
X4928571Y86823810D01*
X4928571Y87204762D01*
X4833333Y87395239D01*
X4642857Y87490477D01*
X4452380Y87490477D01*
X4261904Y86538096D01*
X4928571Y88157143D02*
X3595238Y88633334D01*
X4928571Y89109524D01*
X3785714Y89871429D02*
X3690476Y89966667D01*
X3595238Y89871429D01*
X3690476Y89776191D01*
X3785714Y89871429D01*
X3595238Y89871429D01*
X3595238Y92347620D02*
X5595238Y92347620D01*
X4833333Y92347620D02*
X4928571Y92538096D01*
X4928571Y92919048D01*
X4833333Y93109524D01*
X4738095Y93204762D01*
X4547619Y93300000D01*
X3976190Y93300000D01*
X3785714Y93204762D01*
X3690476Y93109524D01*
X3595238Y92919048D01*
X3595238Y92538096D01*
X3690476Y92347620D01*
D11*
X42340380Y137376000D02*
X43356380Y137376000D01*
X43308000Y138392000D02*
X43356380Y138295239D01*
X43356380Y138150096D01*
X43308000Y138004953D01*
X43211238Y137908191D01*
X43114476Y137859810D01*
X42920952Y137811429D01*
X42775809Y137811429D01*
X42582285Y137859810D01*
X42485523Y137908191D01*
X42388761Y138004953D01*
X42340380Y138150096D01*
X42340380Y138246858D01*
X42388761Y138392000D01*
X42437142Y138440381D01*
X42775809Y138440381D01*
X42775809Y138246858D01*
X42340380Y138875810D02*
X43356380Y138875810D01*
X42340380Y139456381D01*
X43356380Y139456381D01*
X42340380Y140472381D02*
X42340380Y139891810D01*
X42340380Y140182096D02*
X43356380Y140182096D01*
X43211238Y140085334D01*
X43114476Y139988572D01*
X43066095Y139891810D01*
X33217714Y149240381D02*
X33798285Y149240381D01*
X33508000Y149240381D02*
X33508000Y150256381D01*
X33604761Y150111239D01*
X33701523Y150014477D01*
X33798285Y149966096D01*
X32443619Y149772572D02*
X32298476Y149724191D01*
X32250095Y149675810D01*
X32201714Y149579048D01*
X32201714Y149433905D01*
X32250095Y149337143D01*
X32298476Y149288762D01*
X32395238Y149240381D01*
X32782285Y149240381D01*
X32782285Y150256381D01*
X32443619Y150256381D01*
X32346857Y150208000D01*
X32298476Y150159620D01*
X32250095Y150062858D01*
X32250095Y149966096D01*
X32298476Y149869334D01*
X32346857Y149820953D01*
X32443619Y149772572D01*
X32782285Y149772572D01*
X32540380Y151495429D02*
X32540380Y150914858D01*
X32540380Y151205143D02*
X33556380Y151205143D01*
X33411238Y151108381D01*
X33314476Y151011620D01*
X33266095Y150914858D01*
X33459619Y151882477D02*
X33508000Y151930858D01*
X33556380Y152027620D01*
X33556380Y152269524D01*
X33508000Y152366286D01*
X33459619Y152414667D01*
X33362857Y152463048D01*
X33266095Y152463048D01*
X33120952Y152414667D01*
X32540380Y151834096D01*
X32540380Y152463048D01*
X32443619Y152656572D02*
X32443619Y153430667D01*
X32540380Y154253143D02*
X33024190Y153914477D01*
X32540380Y153672572D02*
X33556380Y153672572D01*
X33556380Y154059620D01*
X33508000Y154156381D01*
X33459619Y154204762D01*
X33362857Y154253143D01*
X33217714Y154253143D01*
X33120952Y154204762D01*
X33072571Y154156381D01*
X33024190Y154059620D01*
X33024190Y153672572D01*
X32830666Y154640191D02*
X32830666Y155124000D01*
X32540380Y154543429D02*
X33556380Y154882096D01*
X32540380Y155220762D01*
X33556380Y155462667D02*
X32540380Y155704572D01*
X33266095Y155898096D01*
X32540380Y156091620D01*
X33556380Y156333524D01*
X42742714Y140985381D02*
X43323285Y140985381D01*
X43033000Y140985381D02*
X43033000Y142001381D01*
X43129761Y141856239D01*
X43226523Y141759477D01*
X43323285Y141711096D01*
X41775095Y141953000D02*
X41871857Y142001381D01*
X42017000Y142001381D01*
X42162142Y141953000D01*
X42258904Y141856239D01*
X42307285Y141759477D01*
X42355666Y141565953D01*
X42355666Y141420810D01*
X42307285Y141227286D01*
X42258904Y141130524D01*
X42162142Y141033762D01*
X42017000Y140985381D01*
X41920238Y140985381D01*
X41775095Y141033762D01*
X41726714Y141082143D01*
X41726714Y141420810D01*
X41920238Y141420810D01*
D13*
X77383333Y138788096D02*
X77650000Y139169048D01*
X77840476Y138788096D02*
X77840476Y139588096D01*
X77535714Y139588096D01*
X77459523Y139550000D01*
X77421428Y139511905D01*
X77383333Y139435715D01*
X77383333Y139321429D01*
X77421428Y139245239D01*
X77459523Y139207143D01*
X77535714Y139169048D01*
X77840476Y139169048D01*
X76545238Y139588096D02*
X76088095Y139588096D01*
X76316666Y138788096D02*
X76316666Y139588096D01*
X75821428Y138788096D02*
X75821428Y139321429D01*
X75821428Y139169048D02*
X75783333Y139245239D01*
X75745238Y139283334D01*
X75669047Y139321429D01*
X75592857Y139321429D01*
X75326190Y138788096D02*
X75326190Y139321429D01*
X75326190Y139588096D02*
X75364285Y139550000D01*
X75326190Y139511905D01*
X75288095Y139550000D01*
X75326190Y139588096D01*
X75326190Y139511905D01*
X74945238Y138788096D02*
X74945238Y139321429D01*
X74945238Y139245239D02*
X74907142Y139283334D01*
X74830952Y139321429D01*
X74716666Y139321429D01*
X74640476Y139283334D01*
X74602380Y139207143D01*
X74602380Y138788096D01*
X74602380Y139207143D02*
X74564285Y139283334D01*
X74488095Y139321429D01*
X74373809Y139321429D01*
X74297619Y139283334D01*
X74259523Y139207143D01*
X74259523Y138788096D01*
D18*
G04 #@! TO.C,R32*
X52190557Y124455286D02*
X52444557Y124818143D01*
X52625985Y124455286D02*
X52625985Y125217286D01*
X52335700Y125217286D01*
X52263128Y125181000D01*
X52226842Y125144715D01*
X52190557Y125072143D01*
X52190557Y124963286D01*
X52226842Y124890715D01*
X52263128Y124854429D01*
X52335700Y124818143D01*
X52625985Y124818143D01*
X51936557Y125217286D02*
X51464842Y125217286D01*
X51718842Y124927000D01*
X51609985Y124927000D01*
X51537414Y124890715D01*
X51501128Y124854429D01*
X51464842Y124781858D01*
X51464842Y124600429D01*
X51501128Y124527858D01*
X51537414Y124491572D01*
X51609985Y124455286D01*
X51827700Y124455286D01*
X51900271Y124491572D01*
X51936557Y124527858D01*
X51174557Y125144715D02*
X51138271Y125181000D01*
X51065700Y125217286D01*
X50884271Y125217286D01*
X50811700Y125181000D01*
X50775414Y125144715D01*
X50739128Y125072143D01*
X50739128Y124999572D01*
X50775414Y124890715D01*
X51210842Y124455286D01*
X50739128Y124455286D01*
D13*
G04 #@! TO.C,P5*
X63138795Y43502500D02*
X63138795Y44502500D01*
X62757842Y44502500D01*
X62662604Y44454880D01*
X62614985Y44407261D01*
X62567366Y44312023D01*
X62567366Y44169166D01*
X62614985Y44073928D01*
X62662604Y44026309D01*
X62757842Y43978690D01*
X63138795Y43978690D01*
X61662604Y44502500D02*
X62138795Y44502500D01*
X62186414Y44026309D01*
X62138795Y44073928D01*
X62043557Y44121547D01*
X61805461Y44121547D01*
X61710223Y44073928D01*
X61662604Y44026309D01*
X61614985Y43931071D01*
X61614985Y43692976D01*
X61662604Y43597738D01*
X61710223Y43550119D01*
X61805461Y43502500D01*
X62043557Y43502500D01*
X62138795Y43550119D01*
X62186414Y43597738D01*
G04 #@! TO.C,P6*
X63138795Y51004680D02*
X63138795Y52004680D01*
X62757842Y52004680D01*
X62662604Y51957060D01*
X62614985Y51909441D01*
X62567366Y51814203D01*
X62567366Y51671346D01*
X62614985Y51576108D01*
X62662604Y51528489D01*
X62757842Y51480870D01*
X63138795Y51480870D01*
X61710223Y52004680D02*
X61900700Y52004680D01*
X61995938Y51957060D01*
X62043557Y51909441D01*
X62138795Y51766584D01*
X62186414Y51576108D01*
X62186414Y51195156D01*
X62138795Y51099918D01*
X62091176Y51052299D01*
X61995938Y51004680D01*
X61805461Y51004680D01*
X61710223Y51052299D01*
X61662604Y51099918D01*
X61614985Y51195156D01*
X61614985Y51433251D01*
X61662604Y51528489D01*
X61710223Y51576108D01*
X61805461Y51623727D01*
X61995938Y51623727D01*
X62091176Y51576108D01*
X62138795Y51528489D01*
X62186414Y51433251D01*
G04 #@! TO.C,P47*
X60525245Y136597620D02*
X60525245Y137597620D01*
X60144293Y137597620D01*
X60049055Y137550000D01*
X60001436Y137502381D01*
X59953817Y137407143D01*
X59953817Y137264286D01*
X60001436Y137169048D01*
X60049055Y137121429D01*
X60144293Y137073810D01*
X60525245Y137073810D01*
X59096674Y137264286D02*
X59096674Y136597620D01*
X59334769Y137645239D02*
X59572864Y136930953D01*
X58953817Y136930953D01*
X58668102Y137597620D02*
X58001436Y137597620D01*
X58430007Y136597620D01*
G04 #@! TO.C,P10*
X46414285Y86597620D02*
X46414285Y87597620D01*
X46033333Y87597620D01*
X45938095Y87550000D01*
X45890476Y87502381D01*
X45842857Y87407143D01*
X45842857Y87264286D01*
X45890476Y87169048D01*
X45938095Y87121429D01*
X46033333Y87073810D01*
X46414285Y87073810D01*
X44890476Y86597620D02*
X45461904Y86597620D01*
X45176190Y86597620D02*
X45176190Y87597620D01*
X45271428Y87454762D01*
X45366666Y87359524D01*
X45461904Y87311905D01*
X44271428Y87597620D02*
X44176190Y87597620D01*
X44080952Y87550000D01*
X44033333Y87502381D01*
X43985714Y87407143D01*
X43938095Y87216667D01*
X43938095Y86978572D01*
X43985714Y86788096D01*
X44033333Y86692858D01*
X44080952Y86645239D01*
X44176190Y86597620D01*
X44271428Y86597620D01*
X44366666Y86645239D01*
X44414285Y86692858D01*
X44461904Y86788096D01*
X44509523Y86978572D01*
X44509523Y87216667D01*
X44461904Y87407143D01*
X44414285Y87502381D01*
X44366666Y87550000D01*
X44271428Y87597620D01*
G04 #@! TO.C,P12*
X31014285Y86597620D02*
X31014285Y87597620D01*
X30633333Y87597620D01*
X30538095Y87550000D01*
X30490476Y87502381D01*
X30442857Y87407143D01*
X30442857Y87264286D01*
X30490476Y87169048D01*
X30538095Y87121429D01*
X30633333Y87073810D01*
X31014285Y87073810D01*
X29490476Y86597620D02*
X30061904Y86597620D01*
X29776190Y86597620D02*
X29776190Y87597620D01*
X29871428Y87454762D01*
X29966666Y87359524D01*
X30061904Y87311905D01*
X29109523Y87502381D02*
X29061904Y87550000D01*
X28966666Y87597620D01*
X28728571Y87597620D01*
X28633333Y87550000D01*
X28585714Y87502381D01*
X28538095Y87407143D01*
X28538095Y87311905D01*
X28585714Y87169048D01*
X29157142Y86597620D01*
X28538095Y86597620D01*
G04 #@! TO.C,P16*
X72002380Y77214286D02*
X71002380Y77214286D01*
X71002380Y76833334D01*
X71050000Y76738096D01*
X71097619Y76690477D01*
X71192857Y76642858D01*
X71335714Y76642858D01*
X71430952Y76690477D01*
X71478571Y76738096D01*
X71526190Y76833334D01*
X71526190Y77214286D01*
X72002380Y75690477D02*
X72002380Y76261905D01*
X72002380Y75976191D02*
X71002380Y75976191D01*
X71145238Y76071429D01*
X71240476Y76166667D01*
X71288095Y76261905D01*
X71002380Y74833334D02*
X71002380Y75023810D01*
X71050000Y75119048D01*
X71097619Y75166667D01*
X71240476Y75261905D01*
X71430952Y75309524D01*
X71811904Y75309524D01*
X71907142Y75261905D01*
X71954761Y75214286D01*
X72002380Y75119048D01*
X72002380Y74928572D01*
X71954761Y74833334D01*
X71907142Y74785715D01*
X71811904Y74738096D01*
X71573809Y74738096D01*
X71478571Y74785715D01*
X71430952Y74833334D01*
X71383333Y74928572D01*
X71383333Y75119048D01*
X71430952Y75214286D01*
X71478571Y75261905D01*
X71573809Y75309524D01*
D18*
G04 #@! TO.C,R36*
X41839857Y131105286D02*
X42093857Y131468143D01*
X42275285Y131105286D02*
X42275285Y131867286D01*
X41985000Y131867286D01*
X41912428Y131831000D01*
X41876142Y131794715D01*
X41839857Y131722143D01*
X41839857Y131613286D01*
X41876142Y131540715D01*
X41912428Y131504429D01*
X41985000Y131468143D01*
X42275285Y131468143D01*
X41585857Y131867286D02*
X41114142Y131867286D01*
X41368142Y131577000D01*
X41259285Y131577000D01*
X41186714Y131540715D01*
X41150428Y131504429D01*
X41114142Y131431858D01*
X41114142Y131250429D01*
X41150428Y131177858D01*
X41186714Y131141572D01*
X41259285Y131105286D01*
X41477000Y131105286D01*
X41549571Y131141572D01*
X41585857Y131177858D01*
X40461000Y131867286D02*
X40606142Y131867286D01*
X40678714Y131831000D01*
X40715000Y131794715D01*
X40787571Y131685858D01*
X40823857Y131540715D01*
X40823857Y131250429D01*
X40787571Y131177858D01*
X40751285Y131141572D01*
X40678714Y131105286D01*
X40533571Y131105286D01*
X40461000Y131141572D01*
X40424714Y131177858D01*
X40388428Y131250429D01*
X40388428Y131431858D01*
X40424714Y131504429D01*
X40461000Y131540715D01*
X40533571Y131577000D01*
X40678714Y131577000D01*
X40751285Y131540715D01*
X40787571Y131504429D01*
X40823857Y131431858D01*
G04 #@! TO.C,R48*
X111244714Y128839858D02*
X110881857Y129093858D01*
X111244714Y129275286D02*
X110482714Y129275286D01*
X110482714Y128985000D01*
X110519000Y128912429D01*
X110555285Y128876143D01*
X110627857Y128839858D01*
X110736714Y128839858D01*
X110809285Y128876143D01*
X110845571Y128912429D01*
X110881857Y128985000D01*
X110881857Y129275286D01*
X110736714Y128186715D02*
X111244714Y128186715D01*
X110446428Y128368143D02*
X110990714Y128549572D01*
X110990714Y128077858D01*
X110809285Y127678715D02*
X110773000Y127751286D01*
X110736714Y127787572D01*
X110664142Y127823858D01*
X110627857Y127823858D01*
X110555285Y127787572D01*
X110519000Y127751286D01*
X110482714Y127678715D01*
X110482714Y127533572D01*
X110519000Y127461000D01*
X110555285Y127424715D01*
X110627857Y127388429D01*
X110664142Y127388429D01*
X110736714Y127424715D01*
X110773000Y127461000D01*
X110809285Y127533572D01*
X110809285Y127678715D01*
X110845571Y127751286D01*
X110881857Y127787572D01*
X110954428Y127823858D01*
X111099571Y127823858D01*
X111172142Y127787572D01*
X111208428Y127751286D01*
X111244714Y127678715D01*
X111244714Y127533572D01*
X111208428Y127461000D01*
X111172142Y127424715D01*
X111099571Y127388429D01*
X110954428Y127388429D01*
X110881857Y127424715D01*
X110845571Y127461000D01*
X110809285Y127533572D01*
D13*
G04 #@! TO.C,P15*
X49214285Y79297620D02*
X49214285Y80297620D01*
X48833333Y80297620D01*
X48738095Y80250000D01*
X48690476Y80202381D01*
X48642857Y80107143D01*
X48642857Y79964286D01*
X48690476Y79869048D01*
X48738095Y79821429D01*
X48833333Y79773810D01*
X49214285Y79773810D01*
X47690476Y79297620D02*
X48261904Y79297620D01*
X47976190Y79297620D02*
X47976190Y80297620D01*
X48071428Y80154762D01*
X48166666Y80059524D01*
X48261904Y80011905D01*
X46785714Y80297620D02*
X47261904Y80297620D01*
X47309523Y79821429D01*
X47261904Y79869048D01*
X47166666Y79916667D01*
X46928571Y79916667D01*
X46833333Y79869048D01*
X46785714Y79821429D01*
X46738095Y79726191D01*
X46738095Y79488096D01*
X46785714Y79392858D01*
X46833333Y79345239D01*
X46928571Y79297620D01*
X47166666Y79297620D01*
X47261904Y79345239D01*
X47309523Y79392858D01*
D18*
G04 #@! TO.C,R24*
X106244714Y124739858D02*
X105881857Y124993858D01*
X106244714Y125175286D02*
X105482714Y125175286D01*
X105482714Y124885000D01*
X105519000Y124812429D01*
X105555285Y124776143D01*
X105627857Y124739858D01*
X105736714Y124739858D01*
X105809285Y124776143D01*
X105845571Y124812429D01*
X105881857Y124885000D01*
X105881857Y125175286D01*
X105555285Y124449572D02*
X105519000Y124413286D01*
X105482714Y124340715D01*
X105482714Y124159286D01*
X105519000Y124086715D01*
X105555285Y124050429D01*
X105627857Y124014143D01*
X105700428Y124014143D01*
X105809285Y124050429D01*
X106244714Y124485858D01*
X106244714Y124014143D01*
X105736714Y123361000D02*
X106244714Y123361000D01*
X105446428Y123542429D02*
X105990714Y123723858D01*
X105990714Y123252143D01*
G04 #@! TO.C,R33*
X47839857Y131105286D02*
X48093857Y131468143D01*
X48275285Y131105286D02*
X48275285Y131867286D01*
X47985000Y131867286D01*
X47912428Y131831000D01*
X47876142Y131794715D01*
X47839857Y131722143D01*
X47839857Y131613286D01*
X47876142Y131540715D01*
X47912428Y131504429D01*
X47985000Y131468143D01*
X48275285Y131468143D01*
X47585857Y131867286D02*
X47114142Y131867286D01*
X47368142Y131577000D01*
X47259285Y131577000D01*
X47186714Y131540715D01*
X47150428Y131504429D01*
X47114142Y131431858D01*
X47114142Y131250429D01*
X47150428Y131177858D01*
X47186714Y131141572D01*
X47259285Y131105286D01*
X47477000Y131105286D01*
X47549571Y131141572D01*
X47585857Y131177858D01*
X46860142Y131867286D02*
X46388428Y131867286D01*
X46642428Y131577000D01*
X46533571Y131577000D01*
X46461000Y131540715D01*
X46424714Y131504429D01*
X46388428Y131431858D01*
X46388428Y131250429D01*
X46424714Y131177858D01*
X46461000Y131141572D01*
X46533571Y131105286D01*
X46751285Y131105286D01*
X46823857Y131141572D01*
X46860142Y131177858D01*
G04 #@! TO.C,R42*
X33300817Y124455286D02*
X33554817Y124818143D01*
X33736245Y124455286D02*
X33736245Y125217286D01*
X33445960Y125217286D01*
X33373388Y125181000D01*
X33337102Y125144715D01*
X33300817Y125072143D01*
X33300817Y124963286D01*
X33337102Y124890715D01*
X33373388Y124854429D01*
X33445960Y124818143D01*
X33736245Y124818143D01*
X32647674Y124963286D02*
X32647674Y124455286D01*
X32829102Y125253572D02*
X33010531Y124709286D01*
X32538817Y124709286D01*
X32284817Y125144715D02*
X32248531Y125181000D01*
X32175960Y125217286D01*
X31994531Y125217286D01*
X31921960Y125181000D01*
X31885674Y125144715D01*
X31849388Y125072143D01*
X31849388Y124999572D01*
X31885674Y124890715D01*
X32321102Y124455286D01*
X31849388Y124455286D01*
D13*
G04 #@! TO.C,P56*
X105725245Y132092620D02*
X105725245Y133092620D01*
X105344293Y133092620D01*
X105249055Y133045000D01*
X105201436Y132997381D01*
X105153817Y132902143D01*
X105153817Y132759286D01*
X105201436Y132664048D01*
X105249055Y132616429D01*
X105344293Y132568810D01*
X105725245Y132568810D01*
X104249055Y133092620D02*
X104725245Y133092620D01*
X104772864Y132616429D01*
X104725245Y132664048D01*
X104630007Y132711667D01*
X104391912Y132711667D01*
X104296674Y132664048D01*
X104249055Y132616429D01*
X104201436Y132521191D01*
X104201436Y132283096D01*
X104249055Y132187858D01*
X104296674Y132140239D01*
X104391912Y132092620D01*
X104630007Y132092620D01*
X104725245Y132140239D01*
X104772864Y132187858D01*
X103344293Y133092620D02*
X103534769Y133092620D01*
X103630007Y133045000D01*
X103677626Y132997381D01*
X103772864Y132854524D01*
X103820483Y132664048D01*
X103820483Y132283096D01*
X103772864Y132187858D01*
X103725245Y132140239D01*
X103630007Y132092620D01*
X103439531Y132092620D01*
X103344293Y132140239D01*
X103296674Y132187858D01*
X103249055Y132283096D01*
X103249055Y132521191D01*
X103296674Y132616429D01*
X103344293Y132664048D01*
X103439531Y132711667D01*
X103630007Y132711667D01*
X103725245Y132664048D01*
X103772864Y132616429D01*
X103820483Y132521191D01*
G04 #@! TO.C,P52*
X130625245Y132092620D02*
X130625245Y133092620D01*
X130244293Y133092620D01*
X130149055Y133045000D01*
X130101436Y132997381D01*
X130053817Y132902143D01*
X130053817Y132759286D01*
X130101436Y132664048D01*
X130149055Y132616429D01*
X130244293Y132568810D01*
X130625245Y132568810D01*
X129149055Y133092620D02*
X129625245Y133092620D01*
X129672864Y132616429D01*
X129625245Y132664048D01*
X129530007Y132711667D01*
X129291912Y132711667D01*
X129196674Y132664048D01*
X129149055Y132616429D01*
X129101436Y132521191D01*
X129101436Y132283096D01*
X129149055Y132187858D01*
X129196674Y132140239D01*
X129291912Y132092620D01*
X129530007Y132092620D01*
X129625245Y132140239D01*
X129672864Y132187858D01*
X128720483Y132997381D02*
X128672864Y133045000D01*
X128577626Y133092620D01*
X128339531Y133092620D01*
X128244293Y133045000D01*
X128196674Y132997381D01*
X128149055Y132902143D01*
X128149055Y132806905D01*
X128196674Y132664048D01*
X128768102Y132092620D01*
X128149055Y132092620D01*
G04 #@! TO.C,P36*
X109214285Y83697620D02*
X109214285Y84697620D01*
X108833333Y84697620D01*
X108738095Y84650000D01*
X108690476Y84602381D01*
X108642857Y84507143D01*
X108642857Y84364286D01*
X108690476Y84269048D01*
X108738095Y84221429D01*
X108833333Y84173810D01*
X109214285Y84173810D01*
X108309523Y84697620D02*
X107690476Y84697620D01*
X108023809Y84316667D01*
X107880952Y84316667D01*
X107785714Y84269048D01*
X107738095Y84221429D01*
X107690476Y84126191D01*
X107690476Y83888096D01*
X107738095Y83792858D01*
X107785714Y83745239D01*
X107880952Y83697620D01*
X108166666Y83697620D01*
X108261904Y83745239D01*
X108309523Y83792858D01*
X106833333Y84697620D02*
X107023809Y84697620D01*
X107119047Y84650000D01*
X107166666Y84602381D01*
X107261904Y84459524D01*
X107309523Y84269048D01*
X107309523Y83888096D01*
X107261904Y83792858D01*
X107214285Y83745239D01*
X107119047Y83697620D01*
X106928571Y83697620D01*
X106833333Y83745239D01*
X106785714Y83792858D01*
X106738095Y83888096D01*
X106738095Y84126191D01*
X106785714Y84221429D01*
X106833333Y84269048D01*
X106928571Y84316667D01*
X107119047Y84316667D01*
X107214285Y84269048D01*
X107261904Y84221429D01*
X107309523Y84126191D01*
G04 #@! TO.C,P44*
X92202380Y87214286D02*
X91202380Y87214286D01*
X91202380Y86833334D01*
X91250000Y86738096D01*
X91297619Y86690477D01*
X91392857Y86642858D01*
X91535714Y86642858D01*
X91630952Y86690477D01*
X91678571Y86738096D01*
X91726190Y86833334D01*
X91726190Y87214286D01*
X91535714Y85785715D02*
X92202380Y85785715D01*
X91154761Y86023810D02*
X91869047Y86261905D01*
X91869047Y85642858D01*
X91535714Y84833334D02*
X92202380Y84833334D01*
X91154761Y85071429D02*
X91869047Y85309524D01*
X91869047Y84690477D01*
G04 #@! TO.C,P13*
X33914285Y79197620D02*
X33914285Y80197620D01*
X33533333Y80197620D01*
X33438095Y80150000D01*
X33390476Y80102381D01*
X33342857Y80007143D01*
X33342857Y79864286D01*
X33390476Y79769048D01*
X33438095Y79721429D01*
X33533333Y79673810D01*
X33914285Y79673810D01*
X32390476Y79197620D02*
X32961904Y79197620D01*
X32676190Y79197620D02*
X32676190Y80197620D01*
X32771428Y80054762D01*
X32866666Y79959524D01*
X32961904Y79911905D01*
X32057142Y80197620D02*
X31438095Y80197620D01*
X31771428Y79816667D01*
X31628571Y79816667D01*
X31533333Y79769048D01*
X31485714Y79721429D01*
X31438095Y79626191D01*
X31438095Y79388096D01*
X31485714Y79292858D01*
X31533333Y79245239D01*
X31628571Y79197620D01*
X31914285Y79197620D01*
X32009523Y79245239D01*
X32057142Y79292858D01*
G04 #@! TO.C,P26*
X80314285Y79498500D02*
X80314285Y80498500D01*
X79933333Y80498500D01*
X79838095Y80450880D01*
X79790476Y80403261D01*
X79742857Y80308023D01*
X79742857Y80165166D01*
X79790476Y80069928D01*
X79838095Y80022309D01*
X79933333Y79974690D01*
X80314285Y79974690D01*
X79361904Y80403261D02*
X79314285Y80450880D01*
X79219047Y80498500D01*
X78980952Y80498500D01*
X78885714Y80450880D01*
X78838095Y80403261D01*
X78790476Y80308023D01*
X78790476Y80212785D01*
X78838095Y80069928D01*
X79409523Y79498500D01*
X78790476Y79498500D01*
X77933333Y80498500D02*
X78123809Y80498500D01*
X78219047Y80450880D01*
X78266666Y80403261D01*
X78361904Y80260404D01*
X78409523Y80069928D01*
X78409523Y79688976D01*
X78361904Y79593738D01*
X78314285Y79546119D01*
X78219047Y79498500D01*
X78028571Y79498500D01*
X77933333Y79546119D01*
X77885714Y79593738D01*
X77838095Y79688976D01*
X77838095Y79927071D01*
X77885714Y80022309D01*
X77933333Y80069928D01*
X78028571Y80117547D01*
X78219047Y80117547D01*
X78314285Y80069928D01*
X78361904Y80022309D01*
X78409523Y79927071D01*
G04 #@! TO.C,P29*
X122214285Y48797620D02*
X122214285Y49797620D01*
X121833333Y49797620D01*
X121738095Y49750000D01*
X121690476Y49702381D01*
X121642857Y49607143D01*
X121642857Y49464286D01*
X121690476Y49369048D01*
X121738095Y49321429D01*
X121833333Y49273810D01*
X122214285Y49273810D01*
X121261904Y49702381D02*
X121214285Y49750000D01*
X121119047Y49797620D01*
X120880952Y49797620D01*
X120785714Y49750000D01*
X120738095Y49702381D01*
X120690476Y49607143D01*
X120690476Y49511905D01*
X120738095Y49369048D01*
X121309523Y48797620D01*
X120690476Y48797620D01*
X120214285Y48797620D02*
X120023809Y48797620D01*
X119928571Y48845239D01*
X119880952Y48892858D01*
X119785714Y49035715D01*
X119738095Y49226191D01*
X119738095Y49607143D01*
X119785714Y49702381D01*
X119833333Y49750000D01*
X119928571Y49797620D01*
X120119047Y49797620D01*
X120214285Y49750000D01*
X120261904Y49702381D01*
X120309523Y49607143D01*
X120309523Y49369048D01*
X120261904Y49273810D01*
X120214285Y49226191D01*
X120119047Y49178572D01*
X119928571Y49178572D01*
X119833333Y49226191D01*
X119785714Y49273810D01*
X119738095Y49369048D01*
D18*
G04 #@! TO.C,R43*
X123400817Y130950286D02*
X123654817Y131313143D01*
X123836245Y130950286D02*
X123836245Y131712286D01*
X123545960Y131712286D01*
X123473388Y131676000D01*
X123437102Y131639715D01*
X123400817Y131567143D01*
X123400817Y131458286D01*
X123437102Y131385715D01*
X123473388Y131349429D01*
X123545960Y131313143D01*
X123836245Y131313143D01*
X122747674Y131458286D02*
X122747674Y130950286D01*
X122929102Y131748572D02*
X123110531Y131204286D01*
X122638817Y131204286D01*
X122421102Y131712286D02*
X121949388Y131712286D01*
X122203388Y131422000D01*
X122094531Y131422000D01*
X122021960Y131385715D01*
X121985674Y131349429D01*
X121949388Y131276858D01*
X121949388Y131095429D01*
X121985674Y131022858D01*
X122021960Y130986572D01*
X122094531Y130950286D01*
X122312245Y130950286D01*
X122384817Y130986572D01*
X122421102Y131022858D01*
D13*
G04 #@! TO.C,P30*
X122214285Y41462500D02*
X122214285Y42462500D01*
X121833333Y42462500D01*
X121738095Y42414880D01*
X121690476Y42367261D01*
X121642857Y42272023D01*
X121642857Y42129166D01*
X121690476Y42033928D01*
X121738095Y41986309D01*
X121833333Y41938690D01*
X122214285Y41938690D01*
X121309523Y42462500D02*
X120690476Y42462500D01*
X121023809Y42081547D01*
X120880952Y42081547D01*
X120785714Y42033928D01*
X120738095Y41986309D01*
X120690476Y41891071D01*
X120690476Y41652976D01*
X120738095Y41557738D01*
X120785714Y41510119D01*
X120880952Y41462500D01*
X121166666Y41462500D01*
X121261904Y41510119D01*
X121309523Y41557738D01*
X120071428Y42462500D02*
X119976190Y42462500D01*
X119880952Y42414880D01*
X119833333Y42367261D01*
X119785714Y42272023D01*
X119738095Y42081547D01*
X119738095Y41843452D01*
X119785714Y41652976D01*
X119833333Y41557738D01*
X119880952Y41510119D01*
X119976190Y41462500D01*
X120071428Y41462500D01*
X120166666Y41510119D01*
X120214285Y41557738D01*
X120261904Y41652976D01*
X120309523Y41843452D01*
X120309523Y42081547D01*
X120261904Y42272023D01*
X120214285Y42367261D01*
X120166666Y42414880D01*
X120071428Y42462500D01*
G04 #@! TO.C,P4*
X65949055Y51002500D02*
X65949055Y52002500D01*
X65568102Y52002500D01*
X65472864Y51954880D01*
X65425245Y51907261D01*
X65377626Y51812023D01*
X65377626Y51669166D01*
X65425245Y51573928D01*
X65472864Y51526309D01*
X65568102Y51478690D01*
X65949055Y51478690D01*
X64520483Y51669166D02*
X64520483Y51002500D01*
X64758579Y52050119D02*
X64996674Y51335833D01*
X64377626Y51335833D01*
D18*
G04 #@! TO.C,R45*
X118889857Y117660286D02*
X119143857Y118023143D01*
X119325285Y117660286D02*
X119325285Y118422286D01*
X119035000Y118422286D01*
X118962428Y118386000D01*
X118926142Y118349715D01*
X118889857Y118277143D01*
X118889857Y118168286D01*
X118926142Y118095715D01*
X118962428Y118059429D01*
X119035000Y118023143D01*
X119325285Y118023143D01*
X118236714Y118168286D02*
X118236714Y117660286D01*
X118418142Y118458572D02*
X118599571Y117914286D01*
X118127857Y117914286D01*
X117474714Y118422286D02*
X117837571Y118422286D01*
X117873857Y118059429D01*
X117837571Y118095715D01*
X117765000Y118132000D01*
X117583571Y118132000D01*
X117511000Y118095715D01*
X117474714Y118059429D01*
X117438428Y117986858D01*
X117438428Y117805429D01*
X117474714Y117732858D01*
X117511000Y117696572D01*
X117583571Y117660286D01*
X117765000Y117660286D01*
X117837571Y117696572D01*
X117873857Y117732858D01*
D13*
G04 #@! TO.C,P25*
X125214285Y41462500D02*
X125214285Y42462500D01*
X124833333Y42462500D01*
X124738095Y42414880D01*
X124690476Y42367261D01*
X124642857Y42272023D01*
X124642857Y42129166D01*
X124690476Y42033928D01*
X124738095Y41986309D01*
X124833333Y41938690D01*
X125214285Y41938690D01*
X124261904Y42367261D02*
X124214285Y42414880D01*
X124119047Y42462500D01*
X123880952Y42462500D01*
X123785714Y42414880D01*
X123738095Y42367261D01*
X123690476Y42272023D01*
X123690476Y42176785D01*
X123738095Y42033928D01*
X124309523Y41462500D01*
X123690476Y41462500D01*
X122785714Y42462500D02*
X123261904Y42462500D01*
X123309523Y41986309D01*
X123261904Y42033928D01*
X123166666Y42081547D01*
X122928571Y42081547D01*
X122833333Y42033928D01*
X122785714Y41986309D01*
X122738095Y41891071D01*
X122738095Y41652976D01*
X122785714Y41557738D01*
X122833333Y41510119D01*
X122928571Y41462500D01*
X123166666Y41462500D01*
X123261904Y41510119D01*
X123309523Y41557738D01*
D18*
G04 #@! TO.C,R17*
X126400817Y131055286D02*
X126654817Y131418143D01*
X126836245Y131055286D02*
X126836245Y131817286D01*
X126545960Y131817286D01*
X126473388Y131781000D01*
X126437102Y131744715D01*
X126400817Y131672143D01*
X126400817Y131563286D01*
X126437102Y131490715D01*
X126473388Y131454429D01*
X126545960Y131418143D01*
X126836245Y131418143D01*
X125675102Y131055286D02*
X126110531Y131055286D01*
X125892817Y131055286D02*
X125892817Y131817286D01*
X125965388Y131708429D01*
X126037960Y131635858D01*
X126110531Y131599572D01*
X125421102Y131817286D02*
X124913102Y131817286D01*
X125239674Y131055286D01*
D13*
G04 #@! TO.C,P55*
X108924845Y132091740D02*
X108924845Y133091740D01*
X108543893Y133091740D01*
X108448655Y133044120D01*
X108401036Y132996501D01*
X108353417Y132901263D01*
X108353417Y132758406D01*
X108401036Y132663168D01*
X108448655Y132615549D01*
X108543893Y132567930D01*
X108924845Y132567930D01*
X107448655Y133091740D02*
X107924845Y133091740D01*
X107972464Y132615549D01*
X107924845Y132663168D01*
X107829607Y132710787D01*
X107591512Y132710787D01*
X107496274Y132663168D01*
X107448655Y132615549D01*
X107401036Y132520311D01*
X107401036Y132282216D01*
X107448655Y132186978D01*
X107496274Y132139359D01*
X107591512Y132091740D01*
X107829607Y132091740D01*
X107924845Y132139359D01*
X107972464Y132186978D01*
X106496274Y133091740D02*
X106972464Y133091740D01*
X107020083Y132615549D01*
X106972464Y132663168D01*
X106877226Y132710787D01*
X106639131Y132710787D01*
X106543893Y132663168D01*
X106496274Y132615549D01*
X106448655Y132520311D01*
X106448655Y132282216D01*
X106496274Y132186978D01*
X106543893Y132139359D01*
X106639131Y132091740D01*
X106877226Y132091740D01*
X106972464Y132139359D01*
X107020083Y132186978D01*
G04 #@! TO.C,P17*
X72002380Y68814286D02*
X71002380Y68814286D01*
X71002380Y68433334D01*
X71050000Y68338096D01*
X71097619Y68290477D01*
X71192857Y68242858D01*
X71335714Y68242858D01*
X71430952Y68290477D01*
X71478571Y68338096D01*
X71526190Y68433334D01*
X71526190Y68814286D01*
X72002380Y67290477D02*
X72002380Y67861905D01*
X72002380Y67576191D02*
X71002380Y67576191D01*
X71145238Y67671429D01*
X71240476Y67766667D01*
X71288095Y67861905D01*
X71002380Y66957143D02*
X71002380Y66290477D01*
X72002380Y66719048D01*
G04 #@! TO.C,P33*
X93614285Y90697620D02*
X93614285Y91697620D01*
X93233333Y91697620D01*
X93138095Y91650000D01*
X93090476Y91602381D01*
X93042857Y91507143D01*
X93042857Y91364286D01*
X93090476Y91269048D01*
X93138095Y91221429D01*
X93233333Y91173810D01*
X93614285Y91173810D01*
X92709523Y91697620D02*
X92090476Y91697620D01*
X92423809Y91316667D01*
X92280952Y91316667D01*
X92185714Y91269048D01*
X92138095Y91221429D01*
X92090476Y91126191D01*
X92090476Y90888096D01*
X92138095Y90792858D01*
X92185714Y90745239D01*
X92280952Y90697620D01*
X92566666Y90697620D01*
X92661904Y90745239D01*
X92709523Y90792858D01*
X91757142Y91697620D02*
X91138095Y91697620D01*
X91471428Y91316667D01*
X91328571Y91316667D01*
X91233333Y91269048D01*
X91185714Y91221429D01*
X91138095Y91126191D01*
X91138095Y90888096D01*
X91185714Y90792858D01*
X91233333Y90745239D01*
X91328571Y90697620D01*
X91614285Y90697620D01*
X91709523Y90745239D01*
X91757142Y90792858D01*
G04 #@! TO.C,P11*
X31014285Y79197620D02*
X31014285Y80197620D01*
X30633333Y80197620D01*
X30538095Y80150000D01*
X30490476Y80102381D01*
X30442857Y80007143D01*
X30442857Y79864286D01*
X30490476Y79769048D01*
X30538095Y79721429D01*
X30633333Y79673810D01*
X31014285Y79673810D01*
X29490476Y79197620D02*
X30061904Y79197620D01*
X29776190Y79197620D02*
X29776190Y80197620D01*
X29871428Y80054762D01*
X29966666Y79959524D01*
X30061904Y79911905D01*
X28538095Y79197620D02*
X29109523Y79197620D01*
X28823809Y79197620D02*
X28823809Y80197620D01*
X28919047Y80054762D01*
X29014285Y79959524D01*
X29109523Y79911905D01*
D18*
G04 #@! TO.C,R29*
X57039857Y131055286D02*
X57293857Y131418143D01*
X57475285Y131055286D02*
X57475285Y131817286D01*
X57185000Y131817286D01*
X57112428Y131781000D01*
X57076142Y131744715D01*
X57039857Y131672143D01*
X57039857Y131563286D01*
X57076142Y131490715D01*
X57112428Y131454429D01*
X57185000Y131418143D01*
X57475285Y131418143D01*
X56749571Y131744715D02*
X56713285Y131781000D01*
X56640714Y131817286D01*
X56459285Y131817286D01*
X56386714Y131781000D01*
X56350428Y131744715D01*
X56314142Y131672143D01*
X56314142Y131599572D01*
X56350428Y131490715D01*
X56785857Y131055286D01*
X56314142Y131055286D01*
X55951285Y131055286D02*
X55806142Y131055286D01*
X55733571Y131091572D01*
X55697285Y131127858D01*
X55624714Y131236715D01*
X55588428Y131381858D01*
X55588428Y131672143D01*
X55624714Y131744715D01*
X55661000Y131781000D01*
X55733571Y131817286D01*
X55878714Y131817286D01*
X55951285Y131781000D01*
X55987571Y131744715D01*
X56023857Y131672143D01*
X56023857Y131490715D01*
X55987571Y131418143D01*
X55951285Y131381858D01*
X55878714Y131345572D01*
X55733571Y131345572D01*
X55661000Y131381858D01*
X55624714Y131418143D01*
X55588428Y131490715D01*
D13*
G04 #@! TO.C,P50*
X55275245Y131598500D02*
X55275245Y132598500D01*
X54894293Y132598500D01*
X54799055Y132550880D01*
X54751436Y132503261D01*
X54703817Y132408023D01*
X54703817Y132265166D01*
X54751436Y132169928D01*
X54799055Y132122309D01*
X54894293Y132074690D01*
X55275245Y132074690D01*
X53799055Y132598500D02*
X54275245Y132598500D01*
X54322864Y132122309D01*
X54275245Y132169928D01*
X54180007Y132217547D01*
X53941912Y132217547D01*
X53846674Y132169928D01*
X53799055Y132122309D01*
X53751436Y132027071D01*
X53751436Y131788976D01*
X53799055Y131693738D01*
X53846674Y131646119D01*
X53941912Y131598500D01*
X54180007Y131598500D01*
X54275245Y131646119D01*
X54322864Y131693738D01*
X53132388Y132598500D02*
X53037150Y132598500D01*
X52941912Y132550880D01*
X52894293Y132503261D01*
X52846674Y132408023D01*
X52799055Y132217547D01*
X52799055Y131979452D01*
X52846674Y131788976D01*
X52894293Y131693738D01*
X52941912Y131646119D01*
X53037150Y131598500D01*
X53132388Y131598500D01*
X53227626Y131646119D01*
X53275245Y131693738D01*
X53322864Y131788976D01*
X53370483Y131979452D01*
X53370483Y132217547D01*
X53322864Y132408023D01*
X53275245Y132503261D01*
X53227626Y132550880D01*
X53132388Y132598500D01*
D18*
G04 #@! TO.C,R40*
X35800817Y130955286D02*
X36054817Y131318143D01*
X36236245Y130955286D02*
X36236245Y131717286D01*
X35945960Y131717286D01*
X35873388Y131681000D01*
X35837102Y131644715D01*
X35800817Y131572143D01*
X35800817Y131463286D01*
X35837102Y131390715D01*
X35873388Y131354429D01*
X35945960Y131318143D01*
X36236245Y131318143D01*
X35147674Y131463286D02*
X35147674Y130955286D01*
X35329102Y131753572D02*
X35510531Y131209286D01*
X35038817Y131209286D01*
X34603388Y131717286D02*
X34530817Y131717286D01*
X34458245Y131681000D01*
X34421960Y131644715D01*
X34385674Y131572143D01*
X34349388Y131427000D01*
X34349388Y131245572D01*
X34385674Y131100429D01*
X34421960Y131027858D01*
X34458245Y130991572D01*
X34530817Y130955286D01*
X34603388Y130955286D01*
X34675960Y130991572D01*
X34712245Y131027858D01*
X34748531Y131100429D01*
X34784817Y131245572D01*
X34784817Y131427000D01*
X34748531Y131572143D01*
X34712245Y131644715D01*
X34675960Y131681000D01*
X34603388Y131717286D01*
D13*
G04 #@! TO.C,P28*
X83464285Y79498500D02*
X83464285Y80498500D01*
X83083333Y80498500D01*
X82988095Y80450880D01*
X82940476Y80403261D01*
X82892857Y80308023D01*
X82892857Y80165166D01*
X82940476Y80069928D01*
X82988095Y80022309D01*
X83083333Y79974690D01*
X83464285Y79974690D01*
X82511904Y80403261D02*
X82464285Y80450880D01*
X82369047Y80498500D01*
X82130952Y80498500D01*
X82035714Y80450880D01*
X81988095Y80403261D01*
X81940476Y80308023D01*
X81940476Y80212785D01*
X81988095Y80069928D01*
X82559523Y79498500D01*
X81940476Y79498500D01*
X81369047Y80069928D02*
X81464285Y80117547D01*
X81511904Y80165166D01*
X81559523Y80260404D01*
X81559523Y80308023D01*
X81511904Y80403261D01*
X81464285Y80450880D01*
X81369047Y80498500D01*
X81178571Y80498500D01*
X81083333Y80450880D01*
X81035714Y80403261D01*
X80988095Y80308023D01*
X80988095Y80260404D01*
X81035714Y80165166D01*
X81083333Y80117547D01*
X81178571Y80069928D01*
X81369047Y80069928D01*
X81464285Y80022309D01*
X81511904Y79974690D01*
X81559523Y79879452D01*
X81559523Y79688976D01*
X81511904Y79593738D01*
X81464285Y79546119D01*
X81369047Y79498500D01*
X81178571Y79498500D01*
X81083333Y79546119D01*
X81035714Y79593738D01*
X80988095Y79688976D01*
X80988095Y79879452D01*
X81035714Y79974690D01*
X81083333Y80022309D01*
X81178571Y80069928D01*
G04 #@! TO.C,P24*
X125214285Y48797620D02*
X125214285Y49797620D01*
X124833333Y49797620D01*
X124738095Y49750000D01*
X124690476Y49702381D01*
X124642857Y49607143D01*
X124642857Y49464286D01*
X124690476Y49369048D01*
X124738095Y49321429D01*
X124833333Y49273810D01*
X125214285Y49273810D01*
X124261904Y49702381D02*
X124214285Y49750000D01*
X124119047Y49797620D01*
X123880952Y49797620D01*
X123785714Y49750000D01*
X123738095Y49702381D01*
X123690476Y49607143D01*
X123690476Y49511905D01*
X123738095Y49369048D01*
X124309523Y48797620D01*
X123690476Y48797620D01*
X122833333Y49464286D02*
X122833333Y48797620D01*
X123071428Y49845239D02*
X123309523Y49130953D01*
X122690476Y49130953D01*
D18*
G04 #@! TO.C,R19*
X111489857Y131055286D02*
X111743857Y131418143D01*
X111925285Y131055286D02*
X111925285Y131817286D01*
X111635000Y131817286D01*
X111562428Y131781000D01*
X111526142Y131744715D01*
X111489857Y131672143D01*
X111489857Y131563286D01*
X111526142Y131490715D01*
X111562428Y131454429D01*
X111635000Y131418143D01*
X111925285Y131418143D01*
X110764142Y131055286D02*
X111199571Y131055286D01*
X110981857Y131055286D02*
X110981857Y131817286D01*
X111054428Y131708429D01*
X111127000Y131635858D01*
X111199571Y131599572D01*
X110401285Y131055286D02*
X110256142Y131055286D01*
X110183571Y131091572D01*
X110147285Y131127858D01*
X110074714Y131236715D01*
X110038428Y131381858D01*
X110038428Y131672143D01*
X110074714Y131744715D01*
X110111000Y131781000D01*
X110183571Y131817286D01*
X110328714Y131817286D01*
X110401285Y131781000D01*
X110437571Y131744715D01*
X110473857Y131672143D01*
X110473857Y131490715D01*
X110437571Y131418143D01*
X110401285Y131381858D01*
X110328714Y131345572D01*
X110183571Y131345572D01*
X110111000Y131381858D01*
X110074714Y131418143D01*
X110038428Y131490715D01*
G04 #@! TO.C,F2*
X15054000Y138154429D02*
X15308000Y138154429D01*
X15308000Y137755286D02*
X15308000Y138517286D01*
X14945142Y138517286D01*
X14691142Y138444715D02*
X14654857Y138481000D01*
X14582285Y138517286D01*
X14400857Y138517286D01*
X14328285Y138481000D01*
X14292000Y138444715D01*
X14255714Y138372143D01*
X14255714Y138299572D01*
X14292000Y138190715D01*
X14727428Y137755286D01*
X14255714Y137755286D01*
G04 #@! TO.C,R38*
X38839857Y131105286D02*
X39093857Y131468143D01*
X39275285Y131105286D02*
X39275285Y131867286D01*
X38985000Y131867286D01*
X38912428Y131831000D01*
X38876142Y131794715D01*
X38839857Y131722143D01*
X38839857Y131613286D01*
X38876142Y131540715D01*
X38912428Y131504429D01*
X38985000Y131468143D01*
X39275285Y131468143D01*
X38585857Y131867286D02*
X38114142Y131867286D01*
X38368142Y131577000D01*
X38259285Y131577000D01*
X38186714Y131540715D01*
X38150428Y131504429D01*
X38114142Y131431858D01*
X38114142Y131250429D01*
X38150428Y131177858D01*
X38186714Y131141572D01*
X38259285Y131105286D01*
X38477000Y131105286D01*
X38549571Y131141572D01*
X38585857Y131177858D01*
X37678714Y131540715D02*
X37751285Y131577000D01*
X37787571Y131613286D01*
X37823857Y131685858D01*
X37823857Y131722143D01*
X37787571Y131794715D01*
X37751285Y131831000D01*
X37678714Y131867286D01*
X37533571Y131867286D01*
X37461000Y131831000D01*
X37424714Y131794715D01*
X37388428Y131722143D01*
X37388428Y131685858D01*
X37424714Y131613286D01*
X37461000Y131577000D01*
X37533571Y131540715D01*
X37678714Y131540715D01*
X37751285Y131504429D01*
X37787571Y131468143D01*
X37823857Y131395572D01*
X37823857Y131250429D01*
X37787571Y131177858D01*
X37751285Y131141572D01*
X37678714Y131105286D01*
X37533571Y131105286D01*
X37461000Y131141572D01*
X37424714Y131177858D01*
X37388428Y131250429D01*
X37388428Y131395572D01*
X37424714Y131468143D01*
X37461000Y131504429D01*
X37533571Y131540715D01*
G04 #@! TO.C,R44*
X122989857Y127705286D02*
X123243857Y128068143D01*
X123425285Y127705286D02*
X123425285Y128467286D01*
X123135000Y128467286D01*
X123062428Y128431000D01*
X123026142Y128394715D01*
X122989857Y128322143D01*
X122989857Y128213286D01*
X123026142Y128140715D01*
X123062428Y128104429D01*
X123135000Y128068143D01*
X123425285Y128068143D01*
X122336714Y128213286D02*
X122336714Y127705286D01*
X122518142Y128503572D02*
X122699571Y127959286D01*
X122227857Y127959286D01*
X121611000Y128213286D02*
X121611000Y127705286D01*
X121792428Y128503572D02*
X121973857Y127959286D01*
X121502142Y127959286D01*
G04 #@! TO.C,R30*
X58800817Y124455286D02*
X59054817Y124818143D01*
X59236245Y124455286D02*
X59236245Y125217286D01*
X58945960Y125217286D01*
X58873388Y125181000D01*
X58837102Y125144715D01*
X58800817Y125072143D01*
X58800817Y124963286D01*
X58837102Y124890715D01*
X58873388Y124854429D01*
X58945960Y124818143D01*
X59236245Y124818143D01*
X58546817Y125217286D02*
X58075102Y125217286D01*
X58329102Y124927000D01*
X58220245Y124927000D01*
X58147674Y124890715D01*
X58111388Y124854429D01*
X58075102Y124781858D01*
X58075102Y124600429D01*
X58111388Y124527858D01*
X58147674Y124491572D01*
X58220245Y124455286D01*
X58437960Y124455286D01*
X58510531Y124491572D01*
X58546817Y124527858D01*
X57603388Y125217286D02*
X57530817Y125217286D01*
X57458245Y125181000D01*
X57421960Y125144715D01*
X57385674Y125072143D01*
X57349388Y124927000D01*
X57349388Y124745572D01*
X57385674Y124600429D01*
X57421960Y124527858D01*
X57458245Y124491572D01*
X57530817Y124455286D01*
X57603388Y124455286D01*
X57675960Y124491572D01*
X57712245Y124527858D01*
X57748531Y124600429D01*
X57784817Y124745572D01*
X57784817Y124927000D01*
X57748531Y125072143D01*
X57712245Y125144715D01*
X57675960Y125181000D01*
X57603388Y125217286D01*
D13*
G04 #@! TO.C,P40*
X80264285Y86547620D02*
X80264285Y87547620D01*
X79883333Y87547620D01*
X79788095Y87500000D01*
X79740476Y87452381D01*
X79692857Y87357143D01*
X79692857Y87214286D01*
X79740476Y87119048D01*
X79788095Y87071429D01*
X79883333Y87023810D01*
X80264285Y87023810D01*
X78835714Y87214286D02*
X78835714Y86547620D01*
X79073809Y87595239D02*
X79311904Y86880953D01*
X78692857Y86880953D01*
X78121428Y87547620D02*
X78026190Y87547620D01*
X77930952Y87500000D01*
X77883333Y87452381D01*
X77835714Y87357143D01*
X77788095Y87166667D01*
X77788095Y86928572D01*
X77835714Y86738096D01*
X77883333Y86642858D01*
X77930952Y86595239D01*
X78026190Y86547620D01*
X78121428Y86547620D01*
X78216666Y86595239D01*
X78264285Y86642858D01*
X78311904Y86738096D01*
X78359523Y86928572D01*
X78359523Y87166667D01*
X78311904Y87357143D01*
X78264285Y87452381D01*
X78216666Y87500000D01*
X78121428Y87547620D01*
G04 #@! TO.C,P48*
X62525245Y125597620D02*
X62525245Y126597620D01*
X62144293Y126597620D01*
X62049055Y126550000D01*
X62001436Y126502381D01*
X61953817Y126407143D01*
X61953817Y126264286D01*
X62001436Y126169048D01*
X62049055Y126121429D01*
X62144293Y126073810D01*
X62525245Y126073810D01*
X61096674Y126264286D02*
X61096674Y125597620D01*
X61334769Y126645239D02*
X61572864Y125930953D01*
X60953817Y125930953D01*
X60430007Y126169048D02*
X60525245Y126216667D01*
X60572864Y126264286D01*
X60620483Y126359524D01*
X60620483Y126407143D01*
X60572864Y126502381D01*
X60525245Y126550000D01*
X60430007Y126597620D01*
X60239531Y126597620D01*
X60144293Y126550000D01*
X60096674Y126502381D01*
X60049055Y126407143D01*
X60049055Y126359524D01*
X60096674Y126264286D01*
X60144293Y126216667D01*
X60239531Y126169048D01*
X60430007Y126169048D01*
X60525245Y126121429D01*
X60572864Y126073810D01*
X60620483Y125978572D01*
X60620483Y125788096D01*
X60572864Y125692858D01*
X60525245Y125645239D01*
X60430007Y125597620D01*
X60239531Y125597620D01*
X60144293Y125645239D01*
X60096674Y125692858D01*
X60049055Y125788096D01*
X60049055Y125978572D01*
X60096674Y126073810D01*
X60144293Y126121429D01*
X60239531Y126169048D01*
G04 #@! TO.C,P8*
X102238095Y88197620D02*
X102238095Y89197620D01*
X101857142Y89197620D01*
X101761904Y89150000D01*
X101714285Y89102381D01*
X101666666Y89007143D01*
X101666666Y88864286D01*
X101714285Y88769048D01*
X101761904Y88721429D01*
X101857142Y88673810D01*
X102238095Y88673810D01*
X101095238Y88769048D02*
X101190476Y88816667D01*
X101238095Y88864286D01*
X101285714Y88959524D01*
X101285714Y89007143D01*
X101238095Y89102381D01*
X101190476Y89150000D01*
X101095238Y89197620D01*
X100904761Y89197620D01*
X100809523Y89150000D01*
X100761904Y89102381D01*
X100714285Y89007143D01*
X100714285Y88959524D01*
X100761904Y88864286D01*
X100809523Y88816667D01*
X100904761Y88769048D01*
X101095238Y88769048D01*
X101190476Y88721429D01*
X101238095Y88673810D01*
X101285714Y88578572D01*
X101285714Y88388096D01*
X101238095Y88292858D01*
X101190476Y88245239D01*
X101095238Y88197620D01*
X100904761Y88197620D01*
X100809523Y88245239D01*
X100761904Y88292858D01*
X100714285Y88388096D01*
X100714285Y88578572D01*
X100761904Y88673810D01*
X100809523Y88721429D01*
X100904761Y88769048D01*
D18*
G04 #@! TO.C,R31*
X50739857Y131105286D02*
X50993857Y131468143D01*
X51175285Y131105286D02*
X51175285Y131867286D01*
X50885000Y131867286D01*
X50812428Y131831000D01*
X50776142Y131794715D01*
X50739857Y131722143D01*
X50739857Y131613286D01*
X50776142Y131540715D01*
X50812428Y131504429D01*
X50885000Y131468143D01*
X51175285Y131468143D01*
X50485857Y131867286D02*
X50014142Y131867286D01*
X50268142Y131577000D01*
X50159285Y131577000D01*
X50086714Y131540715D01*
X50050428Y131504429D01*
X50014142Y131431858D01*
X50014142Y131250429D01*
X50050428Y131177858D01*
X50086714Y131141572D01*
X50159285Y131105286D01*
X50377000Y131105286D01*
X50449571Y131141572D01*
X50485857Y131177858D01*
X49288428Y131105286D02*
X49723857Y131105286D01*
X49506142Y131105286D02*
X49506142Y131867286D01*
X49578714Y131758429D01*
X49651285Y131685858D01*
X49723857Y131649572D01*
D13*
G04 #@! TO.C,P32*
X119214285Y41462500D02*
X119214285Y42462500D01*
X118833333Y42462500D01*
X118738095Y42414880D01*
X118690476Y42367261D01*
X118642857Y42272023D01*
X118642857Y42129166D01*
X118690476Y42033928D01*
X118738095Y41986309D01*
X118833333Y41938690D01*
X119214285Y41938690D01*
X118309523Y42462500D02*
X117690476Y42462500D01*
X118023809Y42081547D01*
X117880952Y42081547D01*
X117785714Y42033928D01*
X117738095Y41986309D01*
X117690476Y41891071D01*
X117690476Y41652976D01*
X117738095Y41557738D01*
X117785714Y41510119D01*
X117880952Y41462500D01*
X118166666Y41462500D01*
X118261904Y41510119D01*
X118309523Y41557738D01*
X117309523Y42367261D02*
X117261904Y42414880D01*
X117166666Y42462500D01*
X116928571Y42462500D01*
X116833333Y42414880D01*
X116785714Y42367261D01*
X116738095Y42272023D01*
X116738095Y42176785D01*
X116785714Y42033928D01*
X117357142Y41462500D01*
X116738095Y41462500D01*
G04 #@! TO.C,P9*
X64702380Y73938096D02*
X63702380Y73938096D01*
X63702380Y73557143D01*
X63750000Y73461905D01*
X63797619Y73414286D01*
X63892857Y73366667D01*
X64035714Y73366667D01*
X64130952Y73414286D01*
X64178571Y73461905D01*
X64226190Y73557143D01*
X64226190Y73938096D01*
X64702380Y72890477D02*
X64702380Y72700000D01*
X64654761Y72604762D01*
X64607142Y72557143D01*
X64464285Y72461905D01*
X64273809Y72414286D01*
X63892857Y72414286D01*
X63797619Y72461905D01*
X63750000Y72509524D01*
X63702380Y72604762D01*
X63702380Y72795239D01*
X63750000Y72890477D01*
X63797619Y72938096D01*
X63892857Y72985715D01*
X64130952Y72985715D01*
X64226190Y72938096D01*
X64273809Y72890477D01*
X64321428Y72795239D01*
X64321428Y72604762D01*
X64273809Y72509524D01*
X64226190Y72461905D01*
X64130952Y72414286D01*
G04 #@! TO.C,P46*
X66025245Y125597620D02*
X66025245Y126597620D01*
X65644293Y126597620D01*
X65549055Y126550000D01*
X65501436Y126502381D01*
X65453817Y126407143D01*
X65453817Y126264286D01*
X65501436Y126169048D01*
X65549055Y126121429D01*
X65644293Y126073810D01*
X66025245Y126073810D01*
X64596674Y126264286D02*
X64596674Y125597620D01*
X64834769Y126645239D02*
X65072864Y125930953D01*
X64453817Y125930953D01*
X63644293Y126597620D02*
X63834769Y126597620D01*
X63930007Y126550000D01*
X63977626Y126502381D01*
X64072864Y126359524D01*
X64120483Y126169048D01*
X64120483Y125788096D01*
X64072864Y125692858D01*
X64025245Y125645239D01*
X63930007Y125597620D01*
X63739531Y125597620D01*
X63644293Y125645239D01*
X63596674Y125692858D01*
X63549055Y125788096D01*
X63549055Y126026191D01*
X63596674Y126121429D01*
X63644293Y126169048D01*
X63739531Y126216667D01*
X63930007Y126216667D01*
X64025245Y126169048D01*
X64072864Y126121429D01*
X64120483Y126026191D01*
G04 #@! TO.C,P23*
X49214285Y86597620D02*
X49214285Y87597620D01*
X48833333Y87597620D01*
X48738095Y87550000D01*
X48690476Y87502381D01*
X48642857Y87407143D01*
X48642857Y87264286D01*
X48690476Y87169048D01*
X48738095Y87121429D01*
X48833333Y87073810D01*
X49214285Y87073810D01*
X48261904Y87502381D02*
X48214285Y87550000D01*
X48119047Y87597620D01*
X47880952Y87597620D01*
X47785714Y87550000D01*
X47738095Y87502381D01*
X47690476Y87407143D01*
X47690476Y87311905D01*
X47738095Y87169048D01*
X48309523Y86597620D01*
X47690476Y86597620D01*
X47357142Y87597620D02*
X46738095Y87597620D01*
X47071428Y87216667D01*
X46928571Y87216667D01*
X46833333Y87169048D01*
X46785714Y87121429D01*
X46738095Y87026191D01*
X46738095Y86788096D01*
X46785714Y86692858D01*
X46833333Y86645239D01*
X46928571Y86597620D01*
X47214285Y86597620D01*
X47309523Y86645239D01*
X47357142Y86692858D01*
G04 #@! TO.C,P45*
X90714285Y90697620D02*
X90714285Y91697620D01*
X90333333Y91697620D01*
X90238095Y91650000D01*
X90190476Y91602381D01*
X90142857Y91507143D01*
X90142857Y91364286D01*
X90190476Y91269048D01*
X90238095Y91221429D01*
X90333333Y91173810D01*
X90714285Y91173810D01*
X89285714Y91364286D02*
X89285714Y90697620D01*
X89523809Y91745239D02*
X89761904Y91030953D01*
X89142857Y91030953D01*
X88285714Y91697620D02*
X88761904Y91697620D01*
X88809523Y91221429D01*
X88761904Y91269048D01*
X88666666Y91316667D01*
X88428571Y91316667D01*
X88333333Y91269048D01*
X88285714Y91221429D01*
X88238095Y91126191D01*
X88238095Y90888096D01*
X88285714Y90792858D01*
X88333333Y90745239D01*
X88428571Y90697620D01*
X88666666Y90697620D01*
X88761904Y90745239D01*
X88809523Y90792858D01*
D18*
G04 #@! TO.C,R47*
X117089857Y131055286D02*
X117343857Y131418143D01*
X117525285Y131055286D02*
X117525285Y131817286D01*
X117235000Y131817286D01*
X117162428Y131781000D01*
X117126142Y131744715D01*
X117089857Y131672143D01*
X117089857Y131563286D01*
X117126142Y131490715D01*
X117162428Y131454429D01*
X117235000Y131418143D01*
X117525285Y131418143D01*
X116436714Y131563286D02*
X116436714Y131055286D01*
X116618142Y131853572D02*
X116799571Y131309286D01*
X116327857Y131309286D01*
X116110142Y131817286D02*
X115602142Y131817286D01*
X115928714Y131055286D01*
G04 #@! TO.C,F1*
X24054000Y138154429D02*
X24308000Y138154429D01*
X24308000Y137755286D02*
X24308000Y138517286D01*
X23945142Y138517286D01*
X23255714Y137755286D02*
X23691142Y137755286D01*
X23473428Y137755286D02*
X23473428Y138517286D01*
X23546000Y138408429D01*
X23618571Y138335858D01*
X23691142Y138299572D01*
D13*
G04 #@! TO.C,P3*
X65949055Y43502500D02*
X65949055Y44502500D01*
X65568102Y44502500D01*
X65472864Y44454880D01*
X65425245Y44407261D01*
X65377626Y44312023D01*
X65377626Y44169166D01*
X65425245Y44073928D01*
X65472864Y44026309D01*
X65568102Y43978690D01*
X65949055Y43978690D01*
X65044293Y44502500D02*
X64425245Y44502500D01*
X64758579Y44121547D01*
X64615721Y44121547D01*
X64520483Y44073928D01*
X64472864Y44026309D01*
X64425245Y43931071D01*
X64425245Y43692976D01*
X64472864Y43597738D01*
X64520483Y43550119D01*
X64615721Y43502500D01*
X64901436Y43502500D01*
X64996674Y43550119D01*
X65044293Y43597738D01*
D18*
G04 #@! TO.C,R34*
X49300817Y124455286D02*
X49554817Y124818143D01*
X49736245Y124455286D02*
X49736245Y125217286D01*
X49445960Y125217286D01*
X49373388Y125181000D01*
X49337102Y125144715D01*
X49300817Y125072143D01*
X49300817Y124963286D01*
X49337102Y124890715D01*
X49373388Y124854429D01*
X49445960Y124818143D01*
X49736245Y124818143D01*
X49046817Y125217286D02*
X48575102Y125217286D01*
X48829102Y124927000D01*
X48720245Y124927000D01*
X48647674Y124890715D01*
X48611388Y124854429D01*
X48575102Y124781858D01*
X48575102Y124600429D01*
X48611388Y124527858D01*
X48647674Y124491572D01*
X48720245Y124455286D01*
X48937960Y124455286D01*
X49010531Y124491572D01*
X49046817Y124527858D01*
X47921960Y124963286D02*
X47921960Y124455286D01*
X48103388Y125253572D02*
X48284817Y124709286D01*
X47813102Y124709286D01*
G04 #@! TO.C,R35*
X44839857Y131105286D02*
X45093857Y131468143D01*
X45275285Y131105286D02*
X45275285Y131867286D01*
X44985000Y131867286D01*
X44912428Y131831000D01*
X44876142Y131794715D01*
X44839857Y131722143D01*
X44839857Y131613286D01*
X44876142Y131540715D01*
X44912428Y131504429D01*
X44985000Y131468143D01*
X45275285Y131468143D01*
X44585857Y131867286D02*
X44114142Y131867286D01*
X44368142Y131577000D01*
X44259285Y131577000D01*
X44186714Y131540715D01*
X44150428Y131504429D01*
X44114142Y131431858D01*
X44114142Y131250429D01*
X44150428Y131177858D01*
X44186714Y131141572D01*
X44259285Y131105286D01*
X44477000Y131105286D01*
X44549571Y131141572D01*
X44585857Y131177858D01*
X43424714Y131867286D02*
X43787571Y131867286D01*
X43823857Y131504429D01*
X43787571Y131540715D01*
X43715000Y131577000D01*
X43533571Y131577000D01*
X43461000Y131540715D01*
X43424714Y131504429D01*
X43388428Y131431858D01*
X43388428Y131250429D01*
X43424714Y131177858D01*
X43461000Y131141572D01*
X43533571Y131105286D01*
X43715000Y131105286D01*
X43787571Y131141572D01*
X43823857Y131177858D01*
D13*
G04 #@! TO.C,P14*
X33914285Y86576500D02*
X33914285Y87576500D01*
X33533333Y87576500D01*
X33438095Y87528880D01*
X33390476Y87481261D01*
X33342857Y87386023D01*
X33342857Y87243166D01*
X33390476Y87147928D01*
X33438095Y87100309D01*
X33533333Y87052690D01*
X33914285Y87052690D01*
X32390476Y86576500D02*
X32961904Y86576500D01*
X32676190Y86576500D02*
X32676190Y87576500D01*
X32771428Y87433642D01*
X32866666Y87338404D01*
X32961904Y87290785D01*
X31533333Y87243166D02*
X31533333Y86576500D01*
X31771428Y87624119D02*
X32009523Y86909833D01*
X31390476Y86909833D01*
D18*
G04 #@! TO.C,R37*
X43300817Y124455286D02*
X43554817Y124818143D01*
X43736245Y124455286D02*
X43736245Y125217286D01*
X43445960Y125217286D01*
X43373388Y125181000D01*
X43337102Y125144715D01*
X43300817Y125072143D01*
X43300817Y124963286D01*
X43337102Y124890715D01*
X43373388Y124854429D01*
X43445960Y124818143D01*
X43736245Y124818143D01*
X43046817Y125217286D02*
X42575102Y125217286D01*
X42829102Y124927000D01*
X42720245Y124927000D01*
X42647674Y124890715D01*
X42611388Y124854429D01*
X42575102Y124781858D01*
X42575102Y124600429D01*
X42611388Y124527858D01*
X42647674Y124491572D01*
X42720245Y124455286D01*
X42937960Y124455286D01*
X43010531Y124491572D01*
X43046817Y124527858D01*
X42321102Y125217286D02*
X41813102Y125217286D01*
X42139674Y124455286D01*
G04 #@! TO.C,R28*
X62800817Y130955286D02*
X63054817Y131318143D01*
X63236245Y130955286D02*
X63236245Y131717286D01*
X62945960Y131717286D01*
X62873388Y131681000D01*
X62837102Y131644715D01*
X62800817Y131572143D01*
X62800817Y131463286D01*
X62837102Y131390715D01*
X62873388Y131354429D01*
X62945960Y131318143D01*
X63236245Y131318143D01*
X62510531Y131644715D02*
X62474245Y131681000D01*
X62401674Y131717286D01*
X62220245Y131717286D01*
X62147674Y131681000D01*
X62111388Y131644715D01*
X62075102Y131572143D01*
X62075102Y131499572D01*
X62111388Y131390715D01*
X62546817Y130955286D01*
X62075102Y130955286D01*
X61639674Y131390715D02*
X61712245Y131427000D01*
X61748531Y131463286D01*
X61784817Y131535858D01*
X61784817Y131572143D01*
X61748531Y131644715D01*
X61712245Y131681000D01*
X61639674Y131717286D01*
X61494531Y131717286D01*
X61421960Y131681000D01*
X61385674Y131644715D01*
X61349388Y131572143D01*
X61349388Y131535858D01*
X61385674Y131463286D01*
X61421960Y131427000D01*
X61494531Y131390715D01*
X61639674Y131390715D01*
X61712245Y131354429D01*
X61748531Y131318143D01*
X61784817Y131245572D01*
X61784817Y131100429D01*
X61748531Y131027858D01*
X61712245Y130991572D01*
X61639674Y130955286D01*
X61494531Y130955286D01*
X61421960Y130991572D01*
X61385674Y131027858D01*
X61349388Y131100429D01*
X61349388Y131245572D01*
X61385674Y131318143D01*
X61421960Y131354429D01*
X61494531Y131390715D01*
D13*
G04 #@! TO.C,P34*
X109214285Y90747620D02*
X109214285Y91747620D01*
X108833333Y91747620D01*
X108738095Y91700000D01*
X108690476Y91652381D01*
X108642857Y91557143D01*
X108642857Y91414286D01*
X108690476Y91319048D01*
X108738095Y91271429D01*
X108833333Y91223810D01*
X109214285Y91223810D01*
X108309523Y91747620D02*
X107690476Y91747620D01*
X108023809Y91366667D01*
X107880952Y91366667D01*
X107785714Y91319048D01*
X107738095Y91271429D01*
X107690476Y91176191D01*
X107690476Y90938096D01*
X107738095Y90842858D01*
X107785714Y90795239D01*
X107880952Y90747620D01*
X108166666Y90747620D01*
X108261904Y90795239D01*
X108309523Y90842858D01*
X106833333Y91414286D02*
X106833333Y90747620D01*
X107071428Y91795239D02*
X107309523Y91080953D01*
X106690476Y91080953D01*
D18*
G04 #@! TO.C,R26*
X134900817Y124450286D02*
X135154817Y124813143D01*
X135336245Y124450286D02*
X135336245Y125212286D01*
X135045960Y125212286D01*
X134973388Y125176000D01*
X134937102Y125139715D01*
X134900817Y125067143D01*
X134900817Y124958286D01*
X134937102Y124885715D01*
X134973388Y124849429D01*
X135045960Y124813143D01*
X135336245Y124813143D01*
X134610531Y125139715D02*
X134574245Y125176000D01*
X134501674Y125212286D01*
X134320245Y125212286D01*
X134247674Y125176000D01*
X134211388Y125139715D01*
X134175102Y125067143D01*
X134175102Y124994572D01*
X134211388Y124885715D01*
X134646817Y124450286D01*
X134175102Y124450286D01*
X133521960Y125212286D02*
X133667102Y125212286D01*
X133739674Y125176000D01*
X133775960Y125139715D01*
X133848531Y125030858D01*
X133884817Y124885715D01*
X133884817Y124595429D01*
X133848531Y124522858D01*
X133812245Y124486572D01*
X133739674Y124450286D01*
X133594531Y124450286D01*
X133521960Y124486572D01*
X133485674Y124522858D01*
X133449388Y124595429D01*
X133449388Y124776858D01*
X133485674Y124849429D01*
X133521960Y124885715D01*
X133594531Y124922000D01*
X133739674Y124922000D01*
X133812245Y124885715D01*
X133848531Y124849429D01*
X133884817Y124776858D01*
D13*
G04 #@! TO.C,P22*
X72002380Y74414286D02*
X71002380Y74414286D01*
X71002380Y74033334D01*
X71050000Y73938096D01*
X71097619Y73890477D01*
X71192857Y73842858D01*
X71335714Y73842858D01*
X71430952Y73890477D01*
X71478571Y73938096D01*
X71526190Y74033334D01*
X71526190Y74414286D01*
X71097619Y73461905D02*
X71050000Y73414286D01*
X71002380Y73319048D01*
X71002380Y73080953D01*
X71050000Y72985715D01*
X71097619Y72938096D01*
X71192857Y72890477D01*
X71288095Y72890477D01*
X71430952Y72938096D01*
X72002380Y73509524D01*
X72002380Y72890477D01*
X71097619Y72509524D02*
X71050000Y72461905D01*
X71002380Y72366667D01*
X71002380Y72128572D01*
X71050000Y72033334D01*
X71097619Y71985715D01*
X71192857Y71938096D01*
X71288095Y71938096D01*
X71430952Y71985715D01*
X72002380Y72557143D01*
X72002380Y71938096D01*
D18*
G04 #@! TO.C,R25*
X133389857Y131105286D02*
X133643857Y131468143D01*
X133825285Y131105286D02*
X133825285Y131867286D01*
X133535000Y131867286D01*
X133462428Y131831000D01*
X133426142Y131794715D01*
X133389857Y131722143D01*
X133389857Y131613286D01*
X133426142Y131540715D01*
X133462428Y131504429D01*
X133535000Y131468143D01*
X133825285Y131468143D01*
X133099571Y131794715D02*
X133063285Y131831000D01*
X132990714Y131867286D01*
X132809285Y131867286D01*
X132736714Y131831000D01*
X132700428Y131794715D01*
X132664142Y131722143D01*
X132664142Y131649572D01*
X132700428Y131540715D01*
X133135857Y131105286D01*
X132664142Y131105286D01*
X131974714Y131867286D02*
X132337571Y131867286D01*
X132373857Y131504429D01*
X132337571Y131540715D01*
X132265000Y131577000D01*
X132083571Y131577000D01*
X132011000Y131540715D01*
X131974714Y131504429D01*
X131938428Y131431858D01*
X131938428Y131250429D01*
X131974714Y131177858D01*
X132011000Y131141572D01*
X132083571Y131105286D01*
X132265000Y131105286D01*
X132337571Y131141572D01*
X132373857Y131177858D01*
D13*
G04 #@! TO.C,P20*
X64702380Y77214286D02*
X63702380Y77214286D01*
X63702380Y76833334D01*
X63750000Y76738096D01*
X63797619Y76690477D01*
X63892857Y76642858D01*
X64035714Y76642858D01*
X64130952Y76690477D01*
X64178571Y76738096D01*
X64226190Y76833334D01*
X64226190Y77214286D01*
X63797619Y76261905D02*
X63750000Y76214286D01*
X63702380Y76119048D01*
X63702380Y75880953D01*
X63750000Y75785715D01*
X63797619Y75738096D01*
X63892857Y75690477D01*
X63988095Y75690477D01*
X64130952Y75738096D01*
X64702380Y76309524D01*
X64702380Y75690477D01*
X63702380Y75071429D02*
X63702380Y74976191D01*
X63750000Y74880953D01*
X63797619Y74833334D01*
X63892857Y74785715D01*
X64083333Y74738096D01*
X64321428Y74738096D01*
X64511904Y74785715D01*
X64607142Y74833334D01*
X64654761Y74880953D01*
X64702380Y74976191D01*
X64702380Y75071429D01*
X64654761Y75166667D01*
X64607142Y75214286D01*
X64511904Y75261905D01*
X64321428Y75309524D01*
X64083333Y75309524D01*
X63892857Y75261905D01*
X63797619Y75214286D01*
X63750000Y75166667D01*
X63702380Y75071429D01*
G04 #@! TO.C,P18*
X64702380Y71614286D02*
X63702380Y71614286D01*
X63702380Y71233334D01*
X63750000Y71138096D01*
X63797619Y71090477D01*
X63892857Y71042858D01*
X64035714Y71042858D01*
X64130952Y71090477D01*
X64178571Y71138096D01*
X64226190Y71233334D01*
X64226190Y71614286D01*
X64702380Y70090477D02*
X64702380Y70661905D01*
X64702380Y70376191D02*
X63702380Y70376191D01*
X63845238Y70471429D01*
X63940476Y70566667D01*
X63988095Y70661905D01*
X64130952Y69519048D02*
X64083333Y69614286D01*
X64035714Y69661905D01*
X63940476Y69709524D01*
X63892857Y69709524D01*
X63797619Y69661905D01*
X63750000Y69614286D01*
X63702380Y69519048D01*
X63702380Y69328572D01*
X63750000Y69233334D01*
X63797619Y69185715D01*
X63892857Y69138096D01*
X63940476Y69138096D01*
X64035714Y69185715D01*
X64083333Y69233334D01*
X64130952Y69328572D01*
X64130952Y69519048D01*
X64178571Y69614286D01*
X64226190Y69661905D01*
X64321428Y69709524D01*
X64511904Y69709524D01*
X64607142Y69661905D01*
X64654761Y69614286D01*
X64702380Y69519048D01*
X64702380Y69328572D01*
X64654761Y69233334D01*
X64607142Y69185715D01*
X64511904Y69138096D01*
X64321428Y69138096D01*
X64226190Y69185715D01*
X64178571Y69233334D01*
X64130952Y69328572D01*
D18*
G04 #@! TO.C,R27*
X111294714Y123039858D02*
X110931857Y123293858D01*
X111294714Y123475286D02*
X110532714Y123475286D01*
X110532714Y123185000D01*
X110569000Y123112429D01*
X110605285Y123076143D01*
X110677857Y123039858D01*
X110786714Y123039858D01*
X110859285Y123076143D01*
X110895571Y123112429D01*
X110931857Y123185000D01*
X110931857Y123475286D01*
X110605285Y122749572D02*
X110569000Y122713286D01*
X110532714Y122640715D01*
X110532714Y122459286D01*
X110569000Y122386715D01*
X110605285Y122350429D01*
X110677857Y122314143D01*
X110750428Y122314143D01*
X110859285Y122350429D01*
X111294714Y122785858D01*
X111294714Y122314143D01*
X110532714Y122060143D02*
X110532714Y121552143D01*
X111294714Y121878715D01*
D13*
G04 #@! TO.C,P53*
X121125245Y132092620D02*
X121125245Y133092620D01*
X120744293Y133092620D01*
X120649055Y133045000D01*
X120601436Y132997381D01*
X120553817Y132902143D01*
X120553817Y132759286D01*
X120601436Y132664048D01*
X120649055Y132616429D01*
X120744293Y132568810D01*
X121125245Y132568810D01*
X119649055Y133092620D02*
X120125245Y133092620D01*
X120172864Y132616429D01*
X120125245Y132664048D01*
X120030007Y132711667D01*
X119791912Y132711667D01*
X119696674Y132664048D01*
X119649055Y132616429D01*
X119601436Y132521191D01*
X119601436Y132283096D01*
X119649055Y132187858D01*
X119696674Y132140239D01*
X119791912Y132092620D01*
X120030007Y132092620D01*
X120125245Y132140239D01*
X120172864Y132187858D01*
X119268102Y133092620D02*
X118649055Y133092620D01*
X118982388Y132711667D01*
X118839531Y132711667D01*
X118744293Y132664048D01*
X118696674Y132616429D01*
X118649055Y132521191D01*
X118649055Y132283096D01*
X118696674Y132187858D01*
X118744293Y132140239D01*
X118839531Y132092620D01*
X119125245Y132092620D01*
X119220483Y132140239D01*
X119268102Y132187858D01*
D18*
G04 #@! TO.C,R39*
X40300817Y124455286D02*
X40554817Y124818143D01*
X40736245Y124455286D02*
X40736245Y125217286D01*
X40445960Y125217286D01*
X40373388Y125181000D01*
X40337102Y125144715D01*
X40300817Y125072143D01*
X40300817Y124963286D01*
X40337102Y124890715D01*
X40373388Y124854429D01*
X40445960Y124818143D01*
X40736245Y124818143D01*
X40046817Y125217286D02*
X39575102Y125217286D01*
X39829102Y124927000D01*
X39720245Y124927000D01*
X39647674Y124890715D01*
X39611388Y124854429D01*
X39575102Y124781858D01*
X39575102Y124600429D01*
X39611388Y124527858D01*
X39647674Y124491572D01*
X39720245Y124455286D01*
X39937960Y124455286D01*
X40010531Y124491572D01*
X40046817Y124527858D01*
X39212245Y124455286D02*
X39067102Y124455286D01*
X38994531Y124491572D01*
X38958245Y124527858D01*
X38885674Y124636715D01*
X38849388Y124781858D01*
X38849388Y125072143D01*
X38885674Y125144715D01*
X38921960Y125181000D01*
X38994531Y125217286D01*
X39139674Y125217286D01*
X39212245Y125181000D01*
X39248531Y125144715D01*
X39284817Y125072143D01*
X39284817Y124890715D01*
X39248531Y124818143D01*
X39212245Y124781858D01*
X39139674Y124745572D01*
X38994531Y124745572D01*
X38921960Y124781858D01*
X38885674Y124818143D01*
X38849388Y124890715D01*
G04 #@! TO.C,R49*
X102400817Y130999385D02*
X102654817Y131362242D01*
X102836245Y130999385D02*
X102836245Y131761385D01*
X102545960Y131761385D01*
X102473388Y131725099D01*
X102437102Y131688814D01*
X102400817Y131616242D01*
X102400817Y131507385D01*
X102437102Y131434814D01*
X102473388Y131398528D01*
X102545960Y131362242D01*
X102836245Y131362242D01*
X101747674Y131507385D02*
X101747674Y130999385D01*
X101929102Y131797671D02*
X102110531Y131253385D01*
X101638817Y131253385D01*
X101312245Y130999385D02*
X101167102Y130999385D01*
X101094531Y131035671D01*
X101058245Y131071957D01*
X100985674Y131180814D01*
X100949388Y131325957D01*
X100949388Y131616242D01*
X100985674Y131688814D01*
X101021960Y131725099D01*
X101094531Y131761385D01*
X101239674Y131761385D01*
X101312245Y131725099D01*
X101348531Y131688814D01*
X101384817Y131616242D01*
X101384817Y131434814D01*
X101348531Y131362242D01*
X101312245Y131325957D01*
X101239674Y131289671D01*
X101094531Y131289671D01*
X101021960Y131325957D01*
X100985674Y131362242D01*
X100949388Y131434814D01*
D13*
G04 #@! TO.C,P7*
X37466255Y126597620D02*
X37466255Y127597620D01*
X37085302Y127597620D01*
X36990064Y127550000D01*
X36942445Y127502381D01*
X36894826Y127407143D01*
X36894826Y127264286D01*
X36942445Y127169048D01*
X36990064Y127121429D01*
X37085302Y127073810D01*
X37466255Y127073810D01*
X36561493Y127597620D02*
X35894826Y127597620D01*
X36323398Y126597620D01*
G04 #@! TO.C,P41*
X106214285Y83697620D02*
X106214285Y84697620D01*
X105833333Y84697620D01*
X105738095Y84650000D01*
X105690476Y84602381D01*
X105642857Y84507143D01*
X105642857Y84364286D01*
X105690476Y84269048D01*
X105738095Y84221429D01*
X105833333Y84173810D01*
X106214285Y84173810D01*
X104785714Y84364286D02*
X104785714Y83697620D01*
X105023809Y84745239D02*
X105261904Y84030953D01*
X104642857Y84030953D01*
X103738095Y83697620D02*
X104309523Y83697620D01*
X104023809Y83697620D02*
X104023809Y84697620D01*
X104119047Y84554762D01*
X104214285Y84459524D01*
X104309523Y84411905D01*
G04 #@! TO.C,P27*
X83314285Y86547620D02*
X83314285Y87547620D01*
X82933333Y87547620D01*
X82838095Y87500000D01*
X82790476Y87452381D01*
X82742857Y87357143D01*
X82742857Y87214286D01*
X82790476Y87119048D01*
X82838095Y87071429D01*
X82933333Y87023810D01*
X83314285Y87023810D01*
X82361904Y87452381D02*
X82314285Y87500000D01*
X82219047Y87547620D01*
X81980952Y87547620D01*
X81885714Y87500000D01*
X81838095Y87452381D01*
X81790476Y87357143D01*
X81790476Y87261905D01*
X81838095Y87119048D01*
X82409523Y86547620D01*
X81790476Y86547620D01*
X81457142Y87547620D02*
X80790476Y87547620D01*
X81219047Y86547620D01*
D18*
G04 #@! TO.C,R20*
X54501217Y120755286D02*
X54755217Y121118143D01*
X54936645Y120755286D02*
X54936645Y121517286D01*
X54646360Y121517286D01*
X54573788Y121481000D01*
X54537502Y121444715D01*
X54501217Y121372143D01*
X54501217Y121263286D01*
X54537502Y121190715D01*
X54573788Y121154429D01*
X54646360Y121118143D01*
X54936645Y121118143D01*
X54210931Y121444715D02*
X54174645Y121481000D01*
X54102074Y121517286D01*
X53920645Y121517286D01*
X53848074Y121481000D01*
X53811788Y121444715D01*
X53775502Y121372143D01*
X53775502Y121299572D01*
X53811788Y121190715D01*
X54247217Y120755286D01*
X53775502Y120755286D01*
X53303788Y121517286D02*
X53231217Y121517286D01*
X53158645Y121481000D01*
X53122360Y121444715D01*
X53086074Y121372143D01*
X53049788Y121227000D01*
X53049788Y121045572D01*
X53086074Y120900429D01*
X53122360Y120827858D01*
X53158645Y120791572D01*
X53231217Y120755286D01*
X53303788Y120755286D01*
X53376360Y120791572D01*
X53412645Y120827858D01*
X53448931Y120900429D01*
X53485217Y121045572D01*
X53485217Y121227000D01*
X53448931Y121372143D01*
X53412645Y121444715D01*
X53376360Y121481000D01*
X53303788Y121517286D01*
D13*
G04 #@! TO.C,P38*
X106214285Y90747620D02*
X106214285Y91747620D01*
X105833333Y91747620D01*
X105738095Y91700000D01*
X105690476Y91652381D01*
X105642857Y91557143D01*
X105642857Y91414286D01*
X105690476Y91319048D01*
X105738095Y91271429D01*
X105833333Y91223810D01*
X106214285Y91223810D01*
X105309523Y91747620D02*
X104690476Y91747620D01*
X105023809Y91366667D01*
X104880952Y91366667D01*
X104785714Y91319048D01*
X104738095Y91271429D01*
X104690476Y91176191D01*
X104690476Y90938096D01*
X104738095Y90842858D01*
X104785714Y90795239D01*
X104880952Y90747620D01*
X105166666Y90747620D01*
X105261904Y90795239D01*
X105309523Y90842858D01*
X104119047Y91319048D02*
X104214285Y91366667D01*
X104261904Y91414286D01*
X104309523Y91509524D01*
X104309523Y91557143D01*
X104261904Y91652381D01*
X104214285Y91700000D01*
X104119047Y91747620D01*
X103928571Y91747620D01*
X103833333Y91700000D01*
X103785714Y91652381D01*
X103738095Y91557143D01*
X103738095Y91509524D01*
X103785714Y91414286D01*
X103833333Y91366667D01*
X103928571Y91319048D01*
X104119047Y91319048D01*
X104214285Y91271429D01*
X104261904Y91223810D01*
X104309523Y91128572D01*
X104309523Y90938096D01*
X104261904Y90842858D01*
X104214285Y90795239D01*
X104119047Y90747620D01*
X103928571Y90747620D01*
X103833333Y90795239D01*
X103785714Y90842858D01*
X103738095Y90938096D01*
X103738095Y91128572D01*
X103785714Y91223810D01*
X103833333Y91271429D01*
X103928571Y91319048D01*
G04 #@! TO.C,P1*
X112638095Y92847620D02*
X112638095Y93847620D01*
X112257142Y93847620D01*
X112161904Y93800000D01*
X112114285Y93752381D01*
X112066666Y93657143D01*
X112066666Y93514286D01*
X112114285Y93419048D01*
X112161904Y93371429D01*
X112257142Y93323810D01*
X112638095Y93323810D01*
X111114285Y92847620D02*
X111685714Y92847620D01*
X111400000Y92847620D02*
X111400000Y93847620D01*
X111495238Y93704762D01*
X111590476Y93609524D01*
X111685714Y93561905D01*
D18*
G04 #@! TO.C,R46*
X114178897Y131060286D02*
X114432897Y131423143D01*
X114614325Y131060286D02*
X114614325Y131822286D01*
X114324040Y131822286D01*
X114251468Y131786000D01*
X114215182Y131749715D01*
X114178897Y131677143D01*
X114178897Y131568286D01*
X114215182Y131495715D01*
X114251468Y131459429D01*
X114324040Y131423143D01*
X114614325Y131423143D01*
X113525754Y131568286D02*
X113525754Y131060286D01*
X113707182Y131858572D02*
X113888611Y131314286D01*
X113416897Y131314286D01*
X112800040Y131822286D02*
X112945182Y131822286D01*
X113017754Y131786000D01*
X113054040Y131749715D01*
X113126611Y131640858D01*
X113162897Y131495715D01*
X113162897Y131205429D01*
X113126611Y131132858D01*
X113090325Y131096572D01*
X113017754Y131060286D01*
X112872611Y131060286D01*
X112800040Y131096572D01*
X112763754Y131132858D01*
X112727468Y131205429D01*
X112727468Y131386858D01*
X112763754Y131459429D01*
X112800040Y131495715D01*
X112872611Y131532000D01*
X113017754Y131532000D01*
X113090325Y131495715D01*
X113126611Y131459429D01*
X113162897Y131386858D01*
D13*
G04 #@! TO.C,P49*
X54525245Y136597620D02*
X54525245Y137597620D01*
X54144293Y137597620D01*
X54049055Y137550000D01*
X54001436Y137502381D01*
X53953817Y137407143D01*
X53953817Y137264286D01*
X54001436Y137169048D01*
X54049055Y137121429D01*
X54144293Y137073810D01*
X54525245Y137073810D01*
X53096674Y137264286D02*
X53096674Y136597620D01*
X53334769Y137645239D02*
X53572864Y136930953D01*
X52953817Y136930953D01*
X52525245Y136597620D02*
X52334769Y136597620D01*
X52239531Y136645239D01*
X52191912Y136692858D01*
X52096674Y136835715D01*
X52049055Y137026191D01*
X52049055Y137407143D01*
X52096674Y137502381D01*
X52144293Y137550000D01*
X52239531Y137597620D01*
X52430007Y137597620D01*
X52525245Y137550000D01*
X52572864Y137502381D01*
X52620483Y137407143D01*
X52620483Y137169048D01*
X52572864Y137073810D01*
X52525245Y137026191D01*
X52430007Y136978572D01*
X52239531Y136978572D01*
X52144293Y137026191D01*
X52096674Y137073810D01*
X52049055Y137169048D01*
G04 #@! TO.C,P31*
X119214285Y48797620D02*
X119214285Y49797620D01*
X118833333Y49797620D01*
X118738095Y49750000D01*
X118690476Y49702381D01*
X118642857Y49607143D01*
X118642857Y49464286D01*
X118690476Y49369048D01*
X118738095Y49321429D01*
X118833333Y49273810D01*
X119214285Y49273810D01*
X118309523Y49797620D02*
X117690476Y49797620D01*
X118023809Y49416667D01*
X117880952Y49416667D01*
X117785714Y49369048D01*
X117738095Y49321429D01*
X117690476Y49226191D01*
X117690476Y48988096D01*
X117738095Y48892858D01*
X117785714Y48845239D01*
X117880952Y48797620D01*
X118166666Y48797620D01*
X118261904Y48845239D01*
X118309523Y48892858D01*
X116738095Y48797620D02*
X117309523Y48797620D01*
X117023809Y48797620D02*
X117023809Y49797620D01*
X117119047Y49654762D01*
X117214285Y49559524D01*
X117309523Y49511905D01*
D18*
G04 #@! TO.C,R12*
X127900817Y124450286D02*
X128154817Y124813143D01*
X128336245Y124450286D02*
X128336245Y125212286D01*
X128045960Y125212286D01*
X127973388Y125176000D01*
X127937102Y125139715D01*
X127900817Y125067143D01*
X127900817Y124958286D01*
X127937102Y124885715D01*
X127973388Y124849429D01*
X128045960Y124813143D01*
X128336245Y124813143D01*
X127175102Y124450286D02*
X127610531Y124450286D01*
X127392817Y124450286D02*
X127392817Y125212286D01*
X127465388Y125103429D01*
X127537960Y125030858D01*
X127610531Y124994572D01*
X126884817Y125139715D02*
X126848531Y125176000D01*
X126775960Y125212286D01*
X126594531Y125212286D01*
X126521960Y125176000D01*
X126485674Y125139715D01*
X126449388Y125067143D01*
X126449388Y124994572D01*
X126485674Y124885715D01*
X126921102Y124450286D01*
X126449388Y124450286D01*
D13*
G04 #@! TO.C,P43*
X87714285Y90697620D02*
X87714285Y91697620D01*
X87333333Y91697620D01*
X87238095Y91650000D01*
X87190476Y91602381D01*
X87142857Y91507143D01*
X87142857Y91364286D01*
X87190476Y91269048D01*
X87238095Y91221429D01*
X87333333Y91173810D01*
X87714285Y91173810D01*
X86285714Y91364286D02*
X86285714Y90697620D01*
X86523809Y91745239D02*
X86761904Y91030953D01*
X86142857Y91030953D01*
X85857142Y91697620D02*
X85238095Y91697620D01*
X85571428Y91316667D01*
X85428571Y91316667D01*
X85333333Y91269048D01*
X85285714Y91221429D01*
X85238095Y91126191D01*
X85238095Y90888096D01*
X85285714Y90792858D01*
X85333333Y90745239D01*
X85428571Y90697620D01*
X85714285Y90697620D01*
X85809523Y90745239D01*
X85857142Y90792858D01*
D18*
G04 #@! TO.C,R18*
X121689857Y123455286D02*
X121943857Y123818143D01*
X122125285Y123455286D02*
X122125285Y124217286D01*
X121835000Y124217286D01*
X121762428Y124181000D01*
X121726142Y124144715D01*
X121689857Y124072143D01*
X121689857Y123963286D01*
X121726142Y123890715D01*
X121762428Y123854429D01*
X121835000Y123818143D01*
X122125285Y123818143D01*
X120964142Y123455286D02*
X121399571Y123455286D01*
X121181857Y123455286D02*
X121181857Y124217286D01*
X121254428Y124108429D01*
X121327000Y124035858D01*
X121399571Y123999572D01*
X120528714Y123890715D02*
X120601285Y123927000D01*
X120637571Y123963286D01*
X120673857Y124035858D01*
X120673857Y124072143D01*
X120637571Y124144715D01*
X120601285Y124181000D01*
X120528714Y124217286D01*
X120383571Y124217286D01*
X120311000Y124181000D01*
X120274714Y124144715D01*
X120238428Y124072143D01*
X120238428Y124035858D01*
X120274714Y123963286D01*
X120311000Y123927000D01*
X120383571Y123890715D01*
X120528714Y123890715D01*
X120601285Y123854429D01*
X120637571Y123818143D01*
X120673857Y123745572D01*
X120673857Y123600429D01*
X120637571Y123527858D01*
X120601285Y123491572D01*
X120528714Y123455286D01*
X120383571Y123455286D01*
X120311000Y123491572D01*
X120274714Y123527858D01*
X120238428Y123600429D01*
X120238428Y123745572D01*
X120274714Y123818143D01*
X120311000Y123854429D01*
X120383571Y123890715D01*
D13*
G04 #@! TO.C,P51*
X47025245Y125597620D02*
X47025245Y126597620D01*
X46644293Y126597620D01*
X46549055Y126550000D01*
X46501436Y126502381D01*
X46453817Y126407143D01*
X46453817Y126264286D01*
X46501436Y126169048D01*
X46549055Y126121429D01*
X46644293Y126073810D01*
X47025245Y126073810D01*
X45549055Y126597620D02*
X46025245Y126597620D01*
X46072864Y126121429D01*
X46025245Y126169048D01*
X45930007Y126216667D01*
X45691912Y126216667D01*
X45596674Y126169048D01*
X45549055Y126121429D01*
X45501436Y126026191D01*
X45501436Y125788096D01*
X45549055Y125692858D01*
X45596674Y125645239D01*
X45691912Y125597620D01*
X45930007Y125597620D01*
X46025245Y125645239D01*
X46072864Y125692858D01*
X44549055Y125597620D02*
X45120483Y125597620D01*
X44834769Y125597620D02*
X44834769Y126597620D01*
X44930007Y126454762D01*
X45025245Y126359524D01*
X45120483Y126311905D01*
G04 #@! TO.C,P37*
X112214285Y90747620D02*
X112214285Y91747620D01*
X111833333Y91747620D01*
X111738095Y91700000D01*
X111690476Y91652381D01*
X111642857Y91557143D01*
X111642857Y91414286D01*
X111690476Y91319048D01*
X111738095Y91271429D01*
X111833333Y91223810D01*
X112214285Y91223810D01*
X111309523Y91747620D02*
X110690476Y91747620D01*
X111023809Y91366667D01*
X110880952Y91366667D01*
X110785714Y91319048D01*
X110738095Y91271429D01*
X110690476Y91176191D01*
X110690476Y90938096D01*
X110738095Y90842858D01*
X110785714Y90795239D01*
X110880952Y90747620D01*
X111166666Y90747620D01*
X111261904Y90795239D01*
X111309523Y90842858D01*
X110357142Y91747620D02*
X109690476Y91747620D01*
X110119047Y90747620D01*
D15*
G04 #@! TO.C,M12*
X66625700Y138307060D02*
X81525700Y138307060D01*
X81525700Y138307060D02*
X81525700Y99157060D01*
X81525700Y99157060D02*
X66625700Y99157060D01*
X66625700Y99157060D02*
X66625700Y138307060D01*
G04 #@! TO.C,M4*
X75891859Y10114690D02*
X90343217Y10114690D01*
X90343217Y10114693D02*
X90343217Y12625081D01*
X91091861Y12625081D02*
X91091861Y25189689D01*
X72241861Y22889694D02*
X72241861Y25389691D01*
X72241861Y22889694D02*
X75441857Y22889694D01*
X75891859Y10114690D02*
X75891859Y22439692D01*
X72241861Y25389691D02*
X90891859Y25389691D01*
X90343217Y12625081D02*
X91091861Y12625081D01*
X75441857Y22889694D02*
X75891859Y22439692D01*
G04 #@! TO.C,M9*
X107409785Y95613404D02*
X89134785Y95613404D01*
X100659786Y92038405D02*
X99934786Y91313405D01*
X89134785Y95613404D02*
X89134785Y92038405D01*
X107409785Y95613404D02*
X107409785Y92038405D01*
X107409785Y92038405D02*
X100659786Y92038405D01*
X94334782Y91313405D02*
X93609782Y92038405D01*
X93609782Y92038405D02*
X89134785Y92038405D01*
X99934786Y91313405D02*
X94334782Y91313405D01*
D19*
G04 #@! TO.C,R32*
X52500700Y126776000D02*
X52500700Y127792000D01*
X50900700Y129824000D02*
X50900700Y128808000D01*
X50900700Y127792000D02*
X50900700Y126776000D01*
X52500700Y128808000D02*
X52500700Y129824000D01*
D20*
X52502338Y126721000D02*
G75*
G02*
X50900700Y126725000I-801638J-326000D01*
G01*
X52504194Y129883602D02*
G75*
G03*
X50900700Y129875000I-803494J321398D01*
G01*
G04 #@! TO.C,P5*
X63425073Y43034880D02*
X63730700Y43034880D01*
X63730700Y43034880D02*
X63730700Y40374880D01*
X63436238Y40374880D02*
X63730700Y40374880D01*
X61070700Y40374880D02*
X61070700Y43034880D01*
X61365162Y43034880D02*
X61070700Y43034880D01*
X61376327Y40374880D02*
X61070700Y40374880D01*
G04 #@! TO.C,P6*
X63730700Y50537060D02*
X63730700Y47877060D01*
X61070700Y47877060D02*
X61070700Y50537060D01*
X61376327Y47877060D02*
X61070700Y47877060D01*
X63436238Y47877060D02*
X63730700Y47877060D01*
X61365162Y50537060D02*
X61070700Y50537060D01*
X63425073Y50537060D02*
X63730700Y50537060D01*
G04 #@! TO.C,P47*
X58286587Y133470000D02*
X57980960Y133470000D01*
X60640960Y136130000D02*
X60640960Y133470000D01*
X60335333Y136130000D02*
X60640960Y136130000D01*
X60346498Y133470000D02*
X60640960Y133470000D01*
X58275422Y136130000D02*
X57980960Y136130000D01*
X57980960Y133470000D02*
X57980960Y136130000D01*
G04 #@! TO.C,G4*
X19304000Y67056000D02*
X26416000Y67056000D01*
X26416000Y67056000D02*
X26416000Y54864000D01*
X26416000Y54864000D02*
X19304000Y54864000D01*
X19304000Y54864000D02*
X19304000Y67056000D01*
G04 #@! TO.C,P10*
X44175627Y83470000D02*
X43870000Y83470000D01*
X46224373Y86130000D02*
X46530000Y86130000D01*
X46530000Y86130000D02*
X46530000Y83470000D01*
X44164462Y86130000D02*
X43870000Y86130000D01*
X43870000Y83470000D02*
X43870000Y86130000D01*
X46235538Y83470000D02*
X46530000Y83470000D01*
G04 #@! TO.C,P12*
X30824373Y86130000D02*
X31130000Y86130000D01*
X28775627Y83470000D02*
X28470000Y83470000D01*
X31130000Y86130000D02*
X31130000Y83470000D01*
X28470000Y83470000D02*
X28470000Y86130000D01*
X28764462Y86130000D02*
X28470000Y86130000D01*
X30835538Y83470000D02*
X31130000Y83470000D01*
G04 #@! TO.C,P16*
X70630000Y74670000D02*
X67970000Y74670000D01*
X67970000Y77024373D02*
X67970000Y77330000D01*
X67970000Y77330000D02*
X70630000Y77330000D01*
X67970000Y74964462D02*
X67970000Y74670000D01*
X70630000Y74975627D02*
X70630000Y74670000D01*
X70630000Y77035538D02*
X70630000Y77330000D01*
D15*
G04 #@! TO.C,M5*
X57613316Y61837664D02*
X57613316Y37087665D01*
X57748861Y78102120D02*
X57505346Y78345635D01*
X57748861Y61973209D02*
X57613316Y61837664D01*
X29638315Y77962664D02*
X29638315Y35987665D01*
X57505346Y78345635D02*
X30021286Y78345635D01*
X57613316Y37087665D02*
X56038315Y35512665D01*
X56038315Y35512665D02*
X30113315Y35512665D01*
X57748861Y78102120D02*
X57748861Y61973209D01*
X30021286Y78345635D02*
X29638315Y77962664D01*
X30113315Y35512665D02*
X29638315Y35987665D01*
D19*
G04 #@! TO.C,R36*
X40510960Y134292000D02*
X40510960Y133276000D01*
X42110960Y133276000D02*
X42110960Y134292000D01*
X42110960Y135308000D02*
X42110960Y136324000D01*
X40510960Y136324000D02*
X40510960Y135308000D01*
D20*
X42114454Y136383602D02*
G75*
G03*
X40510960Y136375000I-803494J321398D01*
G01*
X42112598Y133221000D02*
G75*
G02*
X40510960Y133225000I-801638J-326000D01*
G01*
D19*
G04 #@! TO.C,R48*
X110210960Y128803000D02*
X110210960Y129819000D01*
X108610960Y129819000D02*
X108610960Y128803000D01*
X108610960Y127787000D02*
X108610960Y126771000D01*
X110210960Y126771000D02*
X110210960Y127787000D01*
D20*
X110214454Y129878602D02*
G75*
G03*
X108610960Y129870000I-803494J321398D01*
G01*
X110212598Y126716000D02*
G75*
G02*
X108610960Y126720000I-801638J-326000D01*
G01*
G04 #@! TO.C,P15*
X46670000Y80670000D02*
X46670000Y83330000D01*
X46975627Y80670000D02*
X46670000Y80670000D01*
X46964462Y83330000D02*
X46670000Y83330000D01*
X49035538Y80670000D02*
X49330000Y80670000D01*
X49024373Y83330000D02*
X49330000Y83330000D01*
X49330000Y83330000D02*
X49330000Y80670000D01*
D19*
G04 #@! TO.C,R24*
X106610960Y123737001D02*
X106610960Y122721001D01*
X108210960Y122721001D02*
X108210960Y123737001D01*
X106610960Y125769001D02*
X106610960Y124753001D01*
X108210960Y124753001D02*
X108210960Y125769001D01*
D20*
X108214454Y125828603D02*
G75*
G03*
X106610960Y125820001I-803494J321398D01*
G01*
X108212598Y122666001D02*
G75*
G02*
X106610960Y122670001I-801638J-326000D01*
G01*
D19*
G04 #@! TO.C,R33*
X46510960Y136324000D02*
X46510960Y135308000D01*
X48110960Y133276000D02*
X48110960Y134292000D01*
X48110960Y135308000D02*
X48110960Y136324000D01*
X46510960Y134292000D02*
X46510960Y133276000D01*
D20*
X48112598Y133221000D02*
G75*
G02*
X46510960Y133225000I-801638J-326000D01*
G01*
X48114454Y136383602D02*
G75*
G03*
X46510960Y136375000I-803494J321398D01*
G01*
D19*
G04 #@! TO.C,R42*
X33610960Y128808000D02*
X33610960Y129824000D01*
X33610960Y126776000D02*
X33610960Y127792000D01*
X32010960Y127792000D02*
X32010960Y126776000D01*
X32010960Y129824000D02*
X32010960Y128808000D01*
D20*
X33614454Y129883602D02*
G75*
G03*
X32010960Y129875000I-803494J321398D01*
G01*
X33612598Y126721000D02*
G75*
G02*
X32010960Y126725000I-801638J-326000D01*
G01*
G04 #@! TO.C,P56*
X103475422Y136125000D02*
X103180960Y136125000D01*
X105840960Y136125000D02*
X105840960Y133465000D01*
X105546498Y133465000D02*
X105840960Y133465000D01*
X103180960Y133465000D02*
X103180960Y136125000D01*
X103486587Y133465000D02*
X103180960Y133465000D01*
X105535333Y136125000D02*
X105840960Y136125000D01*
G04 #@! TO.C,P52*
X128080960Y133465000D02*
X128080960Y136125000D01*
X130435333Y136125000D02*
X130740960Y136125000D01*
X130740960Y136125000D02*
X130740960Y133465000D01*
X130446498Y133465000D02*
X130740960Y133465000D01*
X128386587Y133465000D02*
X128080960Y133465000D01*
X128375422Y136125000D02*
X128080960Y136125000D01*
G04 #@! TO.C,P36*
X106670000Y85070000D02*
X106670000Y87730000D01*
X109024373Y87730000D02*
X109330000Y87730000D01*
X106964462Y87730000D02*
X106670000Y87730000D01*
X106975627Y85070000D02*
X106670000Y85070000D01*
X109330000Y87730000D02*
X109330000Y85070000D01*
X109035538Y85070000D02*
X109330000Y85070000D01*
G04 #@! TO.C,P44*
X90830000Y84670000D02*
X88170000Y84670000D01*
X90830000Y87035538D02*
X90830000Y87330000D01*
X88170000Y87024373D02*
X88170000Y87330000D01*
X88170000Y84964462D02*
X88170000Y84670000D01*
X88170000Y87330000D02*
X90830000Y87330000D01*
X90830000Y84975627D02*
X90830000Y84670000D01*
G04 #@! TO.C,P13*
X34030000Y83230000D02*
X34030000Y80570000D01*
X33735538Y80570000D02*
X34030000Y80570000D01*
X33724373Y83230000D02*
X34030000Y83230000D01*
X31664462Y83230000D02*
X31370000Y83230000D01*
X31370000Y80570000D02*
X31370000Y83230000D01*
X31675627Y80570000D02*
X31370000Y80570000D01*
G04 #@! TO.C,P26*
X78165162Y83530880D02*
X77870700Y83530880D01*
X77870700Y80870880D02*
X77870700Y83530880D01*
X80236238Y80870880D02*
X80530700Y80870880D01*
X78176327Y80870880D02*
X77870700Y80870880D01*
X80225073Y83530880D02*
X80530700Y83530880D01*
X80530700Y83530880D02*
X80530700Y80870880D01*
G04 #@! TO.C,P29*
X122024373Y48330000D02*
X122330000Y48330000D01*
X119670000Y45670000D02*
X119670000Y48330000D01*
X122035538Y45670000D02*
X122330000Y45670000D01*
X119964462Y48330000D02*
X119670000Y48330000D01*
X122330000Y48330000D02*
X122330000Y45670000D01*
X119975627Y45670000D02*
X119670000Y45670000D01*
D19*
G04 #@! TO.C,R43*
X123710960Y133271000D02*
X123710960Y134287000D01*
X122110960Y134287000D02*
X122110960Y133271000D01*
X122110960Y136319000D02*
X122110960Y135303000D01*
X123710960Y135303000D02*
X123710960Y136319000D01*
D20*
X123714454Y136378602D02*
G75*
G03*
X122110960Y136370000I-803494J321398D01*
G01*
X123712598Y133216000D02*
G75*
G02*
X122110960Y133220000I-801638J-326000D01*
G01*
G04 #@! TO.C,P30*
X122035538Y42834880D02*
X122330000Y42834880D01*
X119670000Y42834880D02*
X119670000Y45494880D01*
X119964462Y45494880D02*
X119670000Y45494880D01*
X122024373Y45494880D02*
X122330000Y45494880D01*
X122330000Y45494880D02*
X122330000Y42834880D01*
X119975627Y42834880D02*
X119670000Y42834880D01*
G04 #@! TO.C,P4*
X64186587Y47874880D02*
X63880960Y47874880D01*
X66235333Y50534880D02*
X66540960Y50534880D01*
X66540960Y50534880D02*
X66540960Y47874880D01*
X66246498Y47874880D02*
X66540960Y47874880D01*
X64175422Y50534880D02*
X63880960Y50534880D01*
X63880960Y47874880D02*
X63880960Y50534880D01*
D19*
G04 #@! TO.C,R45*
X119200000Y119981000D02*
X119200000Y120997000D01*
X117600000Y123029000D02*
X117600000Y122013000D01*
X119200000Y122013000D02*
X119200000Y123029000D01*
X117600000Y120997000D02*
X117600000Y119981000D01*
D20*
X119203494Y123088602D02*
G75*
G03*
X117600000Y123080000I-803494J321398D01*
G01*
X119201638Y119926000D02*
G75*
G02*
X117600000Y119930000I-801638J-326000D01*
G01*
G04 #@! TO.C,P25*
X125330000Y45494880D02*
X125330000Y42834880D01*
X125035538Y42834880D02*
X125330000Y42834880D01*
X122964462Y45494880D02*
X122670000Y45494880D01*
X122670000Y42834880D02*
X122670000Y45494880D01*
X122975627Y42834880D02*
X122670000Y42834880D01*
X125024373Y45494880D02*
X125330000Y45494880D01*
D15*
G04 #@! TO.C,M8*
X59432368Y110269562D02*
X59157362Y109994558D01*
X58282363Y109938356D02*
X58282363Y99094562D01*
X59432368Y110269562D02*
X65130190Y110269562D01*
X65130190Y110269562D02*
X65169037Y99094562D01*
X58332363Y109994558D02*
X58282363Y109938356D01*
X58332363Y109994558D02*
X59157362Y109994558D01*
X58276160Y99094562D02*
X65169037Y99094562D01*
D19*
G04 #@! TO.C,R17*
X126710960Y135303000D02*
X126710960Y136319000D01*
X125110960Y134287000D02*
X125110960Y133271000D01*
X125110960Y136319000D02*
X125110960Y135303000D01*
X126710960Y133271000D02*
X126710960Y134287000D01*
D20*
X126714454Y136378602D02*
G75*
G03*
X125110960Y136370000I-803494J321398D01*
G01*
X126712598Y133216000D02*
G75*
G02*
X125110960Y133220000I-801638J-326000D01*
G01*
G04 #@! TO.C,G6*
X4064000Y67056000D02*
X11176000Y67056000D01*
X11176000Y67056000D02*
X11176000Y54864000D01*
X11176000Y54864000D02*
X4064000Y54864000D01*
X4064000Y54864000D02*
X4064000Y67056000D01*
G04 #@! TO.C,P55*
X106380560Y133464120D02*
X106380560Y136124120D01*
X108734933Y136124120D02*
X109040560Y136124120D01*
X106675022Y136124120D02*
X106380560Y136124120D01*
X109040560Y136124120D02*
X109040560Y133464120D01*
X106686187Y133464120D02*
X106380560Y133464120D01*
X108746098Y133464120D02*
X109040560Y133464120D01*
G04 #@! TO.C,P17*
X70630000Y66270000D02*
X67970000Y66270000D01*
X70630000Y68635538D02*
X70630000Y68930000D01*
X70630000Y66575627D02*
X70630000Y66270000D01*
X67970000Y66564462D02*
X67970000Y66270000D01*
X67970000Y68930000D02*
X70630000Y68930000D01*
X67970000Y68624373D02*
X67970000Y68930000D01*
G04 #@! TO.C,P33*
X91375627Y87570000D02*
X91070000Y87570000D01*
X91364462Y90230000D02*
X91070000Y90230000D01*
X91070000Y87570000D02*
X91070000Y90230000D01*
X93435538Y87570000D02*
X93730000Y87570000D01*
X93424373Y90230000D02*
X93730000Y90230000D01*
X93730000Y90230000D02*
X93730000Y87570000D01*
D15*
G04 #@! TO.C,M13*
X110716857Y25473217D02*
X110716857Y24648218D01*
X110991861Y24373212D02*
X110991861Y18675390D01*
X110716857Y25473217D02*
X110660655Y25523217D01*
X110991861Y18675390D02*
X99816861Y18636543D01*
X110660655Y25523217D02*
X99816861Y25523217D01*
X99816861Y25529420D02*
X99816861Y18636543D01*
X110991861Y24373212D02*
X110716857Y24648218D01*
D20*
G04 #@! TO.C,P11*
X30824373Y83230000D02*
X31130000Y83230000D01*
X28775627Y80570000D02*
X28470000Y80570000D01*
X28470000Y80570000D02*
X28470000Y83230000D01*
X28764462Y83230000D02*
X28470000Y83230000D01*
X31130000Y83230000D02*
X31130000Y80570000D01*
X30835538Y80570000D02*
X31130000Y80570000D01*
D19*
G04 #@! TO.C,R29*
X57110960Y135308000D02*
X57110960Y136324000D01*
X55510960Y136324000D02*
X55510960Y135308000D01*
X57110960Y133276000D02*
X57110960Y134292000D01*
X55510960Y134292000D02*
X55510960Y133276000D01*
D20*
X57114454Y136383602D02*
G75*
G03*
X55510960Y136375000I-803494J321398D01*
G01*
X57112598Y133221000D02*
G75*
G02*
X55510960Y133225000I-801638J-326000D01*
G01*
G04 #@! TO.C,P50*
X55096498Y128470880D02*
X55390960Y128470880D01*
X55390960Y131130880D02*
X55390960Y128470880D01*
X55085333Y131130880D02*
X55390960Y131130880D01*
X53036587Y128470880D02*
X52730960Y128470880D01*
X52730960Y128470880D02*
X52730960Y131130880D01*
X53025422Y131130880D02*
X52730960Y131130880D01*
D19*
G04 #@! TO.C,R40*
X36110960Y135308000D02*
X36110960Y136324000D01*
X36110960Y133276000D02*
X36110960Y134292000D01*
X34510960Y134292000D02*
X34510960Y133276000D01*
X34510960Y136324000D02*
X34510960Y135308000D01*
D20*
X36114454Y136383602D02*
G75*
G03*
X34510960Y136375000I-803494J321398D01*
G01*
X36112598Y133221000D02*
G75*
G02*
X34510960Y133225000I-801638J-326000D01*
G01*
D15*
G04 #@! TO.C,M7*
X46927363Y34095801D02*
X46953769Y34122207D01*
X46927365Y17538793D02*
X46927363Y34095801D01*
X57328414Y17614843D02*
X57328414Y33962743D01*
X57328414Y33962743D02*
X57194353Y34096804D01*
X57194353Y34096804D02*
X46953769Y34122207D01*
X55802364Y16088793D02*
X48377365Y16088793D01*
X55802364Y16088793D02*
X57328414Y17614843D01*
X48377365Y16088793D02*
X46927365Y17538793D01*
D20*
G04 #@! TO.C,P28*
X80986987Y80870880D02*
X80681360Y80870880D01*
X83341360Y83530880D02*
X83341360Y80870880D01*
X83035733Y83530880D02*
X83341360Y83530880D01*
X80681360Y80870880D02*
X80681360Y83530880D01*
X83046898Y80870880D02*
X83341360Y80870880D01*
X80975822Y83530880D02*
X80681360Y83530880D01*
G04 #@! TO.C,P24*
X122964462Y48330000D02*
X122670000Y48330000D01*
X122670000Y45670000D02*
X122670000Y48330000D01*
X125024373Y48330000D02*
X125330000Y48330000D01*
X125035538Y45670000D02*
X125330000Y45670000D01*
X122975627Y45670000D02*
X122670000Y45670000D01*
X125330000Y48330000D02*
X125330000Y45670000D01*
D19*
G04 #@! TO.C,R19*
X111710960Y135303000D02*
X111710960Y136319000D01*
X110110960Y134287000D02*
X110110960Y133271000D01*
X111710960Y133271000D02*
X111710960Y134287000D01*
X110110960Y136319000D02*
X110110960Y135303000D01*
D20*
X111712598Y133216000D02*
G75*
G02*
X110110960Y133220000I-801638J-326000D01*
G01*
X111714454Y136378602D02*
G75*
G03*
X110110960Y136370000I-803494J321398D01*
G01*
D15*
G04 #@! TO.C,M1*
X85635960Y66804681D02*
X85135960Y67304681D01*
X115935958Y79729684D02*
X114385958Y81279684D01*
X115535953Y66804678D02*
X85635960Y66804681D01*
X86060958Y81279684D02*
X85135960Y80354687D01*
X115935958Y67204683D02*
X115535953Y66804678D01*
X114385958Y81279684D02*
X86055960Y81279684D01*
X85135960Y80354687D02*
X85135960Y67304681D01*
X115935958Y79729684D02*
X115935958Y67204683D01*
D20*
G04 #@! TO.C,F2*
X17200000Y138800000D02*
X12350000Y138800000D01*
X17200000Y140800000D02*
X12350000Y140800000D01*
X12350000Y138800000D02*
G75*
G02*
X12350000Y140800000I0J1000000D01*
G01*
X17250000Y140800000D02*
G75*
G02*
X17250000Y138800000I0J-1000000D01*
G01*
D19*
G04 #@! TO.C,R38*
X39110960Y133276000D02*
X39110960Y134292000D01*
X39110960Y135308000D02*
X39110960Y136324000D01*
X37510960Y134292000D02*
X37510960Y133276000D01*
X37510960Y136324000D02*
X37510960Y135308000D01*
D20*
X39112598Y133221000D02*
G75*
G02*
X37510960Y133225000I-801638J-326000D01*
G01*
X39114454Y136383602D02*
G75*
G03*
X37510960Y136375000I-803494J321398D01*
G01*
D19*
G04 #@! TO.C,R44*
X123013960Y128750000D02*
X124029960Y128750000D01*
X121997960Y130350000D02*
X120981960Y130350000D01*
X120981960Y128750000D02*
X121997960Y128750000D01*
X124029960Y130350000D02*
X123013960Y130350000D01*
D20*
X120926960Y128748362D02*
G75*
G02*
X120930960Y130350000I-326000J801638D01*
G01*
X124089562Y128746506D02*
G75*
G03*
X124080960Y130350000I321398J803494D01*
G01*
D15*
G04 #@! TO.C,M3*
X69966859Y27708503D02*
X69742659Y27932703D01*
X115579227Y27008503D02*
X72191859Y27008503D01*
X71491861Y27708503D02*
X69966859Y27708503D01*
X116066864Y27496141D02*
X115579227Y27008503D01*
X70085086Y64157510D02*
X69742651Y63815075D01*
X115497772Y64157515D02*
X70085086Y64157510D01*
X72191859Y27008503D02*
X71491861Y27708503D01*
X116066861Y63588426D02*
X115497772Y64157515D01*
X116066864Y27496141D02*
X116066861Y63588426D01*
X69742659Y27932703D02*
X69742651Y63815075D01*
D19*
G04 #@! TO.C,R30*
X57510960Y127792000D02*
X57510960Y126776000D01*
X57510960Y129824000D02*
X57510960Y128808000D01*
X59110960Y126776000D02*
X59110960Y127792000D01*
X59110960Y128808000D02*
X59110960Y129824000D01*
D20*
X59114454Y129883602D02*
G75*
G03*
X57510960Y129875000I-803494J321398D01*
G01*
X59112598Y126721000D02*
G75*
G02*
X57510960Y126725000I-801638J-326000D01*
G01*
G04 #@! TO.C,P40*
X80235538Y83670000D02*
X80530000Y83670000D01*
X77870000Y83670000D02*
X77870000Y86330000D01*
X78175627Y83670000D02*
X77870000Y83670000D01*
X80530000Y86330000D02*
X80530000Y83670000D01*
X80224373Y86330000D02*
X80530000Y86330000D01*
X78164462Y86330000D02*
X77870000Y86330000D01*
G04 #@! TO.C,P48*
X59980960Y126970000D02*
X59980960Y129630000D01*
X60275422Y129630000D02*
X59980960Y129630000D01*
X62346498Y126970000D02*
X62640960Y126970000D01*
X62640960Y129630000D02*
X62640960Y126970000D01*
X62335333Y129630000D02*
X62640960Y129630000D01*
X60286587Y126970000D02*
X59980960Y126970000D01*
G04 #@! TO.C,P8*
X102535538Y85070000D02*
X102830000Y85070000D01*
X100464462Y87730000D02*
X100170000Y87730000D01*
X100170000Y85070000D02*
X100170000Y87730000D01*
X100475627Y85070000D02*
X100170000Y85070000D01*
X102524373Y87730000D02*
X102830000Y87730000D01*
X102830000Y87730000D02*
X102830000Y85070000D01*
D19*
G04 #@! TO.C,R31*
X49510960Y134292000D02*
X49510960Y133276000D01*
X51110960Y133276000D02*
X51110960Y134292000D01*
X51110960Y135308000D02*
X51110960Y136324000D01*
X49510960Y136324000D02*
X49510960Y135308000D01*
D20*
X51112598Y133221000D02*
G75*
G02*
X49510960Y133225000I-801638J-326000D01*
G01*
X51114454Y136383602D02*
G75*
G03*
X49510960Y136375000I-803494J321398D01*
G01*
G04 #@! TO.C,P32*
X119330000Y45494880D02*
X119330000Y42834880D01*
X119024373Y45494880D02*
X119330000Y45494880D01*
X116964462Y45494880D02*
X116670000Y45494880D01*
X119035538Y42834880D02*
X119330000Y42834880D01*
X116670000Y42834880D02*
X116670000Y45494880D01*
X116975627Y42834880D02*
X116670000Y42834880D01*
G04 #@! TO.C,P9*
X65170000Y72164462D02*
X65170000Y71870000D01*
X67830000Y74235538D02*
X67830000Y74530000D01*
X65170000Y74224373D02*
X65170000Y74530000D01*
X67830000Y72175627D02*
X67830000Y71870000D01*
X65170000Y74530000D02*
X67830000Y74530000D01*
X67830000Y71870000D02*
X65170000Y71870000D01*
G04 #@! TO.C,P46*
X66140960Y129630000D02*
X66140960Y126970000D01*
X63786587Y126970000D02*
X63480960Y126970000D01*
X63480960Y126970000D02*
X63480960Y129630000D01*
X65835333Y129630000D02*
X66140960Y129630000D01*
X65846498Y126970000D02*
X66140960Y126970000D01*
X63775422Y129630000D02*
X63480960Y129630000D01*
G04 #@! TO.C,P23*
X46670000Y83470000D02*
X46670000Y86130000D01*
X49035538Y83470000D02*
X49330000Y83470000D01*
X46964462Y86130000D02*
X46670000Y86130000D01*
X49024373Y86130000D02*
X49330000Y86130000D01*
X49330000Y86130000D02*
X49330000Y83470000D01*
X46975627Y83470000D02*
X46670000Y83470000D01*
D15*
G04 #@! TO.C,M10*
X23751711Y121028865D02*
X14576708Y121028865D01*
X29026710Y127053864D02*
X24626708Y127053864D01*
X23751711Y121028865D02*
X23876745Y121153899D01*
X30101709Y137203864D02*
X14576708Y137203864D01*
X23876745Y126303901D02*
X24626708Y127053864D01*
X14576708Y121028865D02*
X14576708Y137203864D01*
X29026710Y127053864D02*
X30101709Y128128863D01*
X30101709Y128128863D02*
X30101709Y137203864D01*
X23876745Y121153899D02*
X23876745Y126303901D01*
D20*
G04 #@! TO.C,G7*
X19304000Y44196000D02*
X26416000Y44196000D01*
X26416000Y44196000D02*
X26416000Y32004000D01*
X26416000Y32004000D02*
X19304000Y32004000D01*
X19304000Y32004000D02*
X19304000Y44196000D01*
G04 #@! TO.C,P45*
X88475627Y87570000D02*
X88170000Y87570000D01*
X88464462Y90230000D02*
X88170000Y90230000D01*
X90535538Y87570000D02*
X90830000Y87570000D01*
X88170000Y87570000D02*
X88170000Y90230000D01*
X90830000Y90230000D02*
X90830000Y87570000D01*
X90524373Y90230000D02*
X90830000Y90230000D01*
D19*
G04 #@! TO.C,R47*
X115750000Y136324000D02*
X115750000Y135308000D01*
X117350000Y135308000D02*
X117350000Y136324000D01*
X117350000Y133276000D02*
X117350000Y134292000D01*
X115750000Y134292000D02*
X115750000Y133276000D01*
D20*
X117353494Y136383602D02*
G75*
G03*
X115750000Y136375000I-803494J321398D01*
G01*
X117351638Y133221000D02*
G75*
G02*
X115750000Y133225000I-801638J-326000D01*
G01*
G04 #@! TO.C,F1*
X26100000Y138800000D02*
X21250000Y138800000D01*
X26100000Y140800000D02*
X21250000Y140800000D01*
X21250000Y138800000D02*
G75*
G02*
X21250000Y140800000I0J1000000D01*
G01*
X26150000Y140800000D02*
G75*
G02*
X26150000Y138800000I0J-1000000D01*
G01*
G04 #@! TO.C,P3*
X66246498Y40374880D02*
X66540960Y40374880D01*
X64175422Y43034880D02*
X63880960Y43034880D01*
X66235333Y43034880D02*
X66540960Y43034880D01*
X64186587Y40374880D02*
X63880960Y40374880D01*
X63880960Y40374880D02*
X63880960Y43034880D01*
X66540960Y43034880D02*
X66540960Y40374880D01*
G04 #@! TO.C,G5*
X4064000Y44196000D02*
X11176000Y44196000D01*
X11176000Y44196000D02*
X11176000Y32004000D01*
X11176000Y32004000D02*
X4064000Y32004000D01*
X4064000Y32004000D02*
X4064000Y44196000D01*
D19*
G04 #@! TO.C,R34*
X49610960Y128808000D02*
X49610960Y129824000D01*
X49610960Y126776000D02*
X49610960Y127792000D01*
X48010960Y127792000D02*
X48010960Y126776000D01*
X48010960Y129824000D02*
X48010960Y128808000D01*
D20*
X49614454Y129883602D02*
G75*
G03*
X48010960Y129875000I-803494J321398D01*
G01*
X49612598Y126721000D02*
G75*
G02*
X48010960Y126725000I-801638J-326000D01*
G01*
D19*
G04 #@! TO.C,R35*
X43510960Y134292000D02*
X43510960Y133276000D01*
X43510960Y136324000D02*
X43510960Y135308000D01*
X45110960Y133276000D02*
X45110960Y134292000D01*
X45110960Y135308000D02*
X45110960Y136324000D01*
D20*
X45114454Y136383602D02*
G75*
G03*
X43510960Y136375000I-803494J321398D01*
G01*
X45112598Y133221000D02*
G75*
G02*
X43510960Y133225000I-801638J-326000D01*
G01*
G04 #@! TO.C,P14*
X31664462Y86108880D02*
X31370000Y86108880D01*
X33735538Y83448880D02*
X34030000Y83448880D01*
X33724373Y86108880D02*
X34030000Y86108880D01*
X31370000Y83448880D02*
X31370000Y86108880D01*
X31675627Y83448880D02*
X31370000Y83448880D01*
X34030000Y86108880D02*
X34030000Y83448880D01*
D19*
G04 #@! TO.C,R37*
X42010960Y129824000D02*
X42010960Y128808000D01*
X43610960Y128808000D02*
X43610960Y129824000D01*
X42010960Y127792000D02*
X42010960Y126776000D01*
X43610960Y126776000D02*
X43610960Y127792000D01*
D20*
X43612598Y126721000D02*
G75*
G02*
X42010960Y126725000I-801638J-326000D01*
G01*
X43614454Y129883602D02*
G75*
G03*
X42010960Y129875000I-803494J321398D01*
G01*
D19*
G04 #@! TO.C,R28*
X63110960Y133276000D02*
X63110960Y134292000D01*
X61510960Y136324000D02*
X61510960Y135308000D01*
X63110960Y135308000D02*
X63110960Y136324000D01*
X61510960Y134292000D02*
X61510960Y133276000D01*
D20*
X63112598Y133221000D02*
G75*
G02*
X61510960Y133225000I-801638J-326000D01*
G01*
X63114454Y136383602D02*
G75*
G03*
X61510960Y136375000I-803494J321398D01*
G01*
G04 #@! TO.C,P34*
X109024373Y90530000D02*
X109330000Y90530000D01*
X106975627Y87870000D02*
X106670000Y87870000D01*
X106670000Y87870000D02*
X106670000Y90530000D01*
X109330000Y90530000D02*
X109330000Y87870000D01*
X106964462Y90530000D02*
X106670000Y90530000D01*
X109035538Y87870000D02*
X109330000Y87870000D01*
D19*
G04 #@! TO.C,R26*
X133610960Y127787000D02*
X133610960Y126771000D01*
X135210960Y128803000D02*
X135210960Y129819000D01*
X133610960Y129819000D02*
X133610960Y128803000D01*
X135210960Y126771000D02*
X135210960Y127787000D01*
D20*
X135212598Y126716000D02*
G75*
G02*
X133610960Y126720000I-801638J-326000D01*
G01*
X135214454Y129878602D02*
G75*
G03*
X133610960Y129870000I-803494J321398D01*
G01*
G04 #@! TO.C,P22*
X67970000Y74530000D02*
X70630000Y74530000D01*
X70630000Y72175627D02*
X70630000Y71870000D01*
X70630000Y71870000D02*
X67970000Y71870000D01*
X67970000Y74224373D02*
X67970000Y74530000D01*
X67970000Y72164462D02*
X67970000Y71870000D01*
X70630000Y74235538D02*
X70630000Y74530000D01*
D19*
G04 #@! TO.C,R25*
X133710960Y133276000D02*
X133710960Y134292000D01*
X132110960Y136324000D02*
X132110960Y135308000D01*
X132110960Y134292000D02*
X132110960Y133276000D01*
X133710960Y135308000D02*
X133710960Y136324000D01*
D20*
X133714454Y136383602D02*
G75*
G03*
X132110960Y136375000I-803494J321398D01*
G01*
X133712598Y133221000D02*
G75*
G02*
X132110960Y133225000I-801638J-326000D01*
G01*
G04 #@! TO.C,P20*
X67830000Y74670000D02*
X65170000Y74670000D01*
X67830000Y74975627D02*
X67830000Y74670000D01*
X65170000Y74964462D02*
X65170000Y74670000D01*
X65170000Y77024373D02*
X65170000Y77330000D01*
X65170000Y77330000D02*
X67830000Y77330000D01*
X67830000Y77035538D02*
X67830000Y77330000D01*
G04 #@! TO.C,P18*
X67830000Y69375627D02*
X67830000Y69070000D01*
X67830000Y71435538D02*
X67830000Y71730000D01*
X65170000Y71730000D02*
X67830000Y71730000D01*
X65170000Y69364462D02*
X65170000Y69070000D01*
X65170000Y71424373D02*
X65170000Y71730000D01*
X67830000Y69070000D02*
X65170000Y69070000D01*
D19*
G04 #@! TO.C,R27*
X108610960Y124019000D02*
X108610960Y123003000D01*
X110210960Y123003000D02*
X110210960Y124019000D01*
X110210960Y120971000D02*
X110210960Y121987000D01*
X108610960Y121987000D02*
X108610960Y120971000D01*
D20*
X108609322Y124074000D02*
G75*
G02*
X110210960Y124070000I801638J326000D01*
G01*
X108607466Y120911398D02*
G75*
G03*
X110210960Y120920000I803494J-321398D01*
G01*
D15*
G04 #@! TO.C,M6*
X78800012Y67250000D02*
X78800012Y79000000D01*
X83800012Y67250000D02*
X78900012Y67250000D01*
X83800012Y67250000D02*
X83800012Y79000000D01*
X83800012Y79000000D02*
X78900012Y79000000D01*
D20*
G04 #@! TO.C,P53*
X120946498Y133465000D02*
X121240960Y133465000D01*
X118875422Y136125000D02*
X118580960Y136125000D01*
X118886587Y133465000D02*
X118580960Y133465000D01*
X121240960Y136125000D02*
X121240960Y133465000D01*
X118580960Y133465000D02*
X118580960Y136125000D01*
X120935333Y136125000D02*
X121240960Y136125000D01*
D19*
G04 #@! TO.C,R39*
X39010960Y127792000D02*
X39010960Y126776000D01*
X40610960Y128808000D02*
X40610960Y129824000D01*
X40610960Y126776000D02*
X40610960Y127792000D01*
X39010960Y129824000D02*
X39010960Y128808000D01*
D20*
X40614454Y129883602D02*
G75*
G03*
X39010960Y129875000I-803494J321398D01*
G01*
X40612598Y126721000D02*
G75*
G02*
X39010960Y126725000I-801638J-326000D01*
G01*
D19*
G04 #@! TO.C,R49*
X101110960Y136368099D02*
X101110960Y135352099D01*
X102710960Y135352099D02*
X102710960Y136368099D01*
X101110960Y134336099D02*
X101110960Y133320099D01*
X102710960Y133320099D02*
X102710960Y134336099D01*
D20*
X102714454Y136427701D02*
G75*
G03*
X101110960Y136419099I-803494J321398D01*
G01*
X102712598Y133265099D02*
G75*
G02*
X101110960Y133269099I-801638J-326000D01*
G01*
G04 #@! TO.C,P7*
X38058160Y130630000D02*
X38058160Y127970000D01*
X35692622Y130630000D02*
X35398160Y130630000D01*
X35398160Y127970000D02*
X35398160Y130630000D01*
X37752533Y130630000D02*
X38058160Y130630000D01*
X35703787Y127970000D02*
X35398160Y127970000D01*
X37763698Y127970000D02*
X38058160Y127970000D01*
G04 #@! TO.C,P41*
X106024373Y87730000D02*
X106330000Y87730000D01*
X103964462Y87730000D02*
X103670000Y87730000D01*
X103670000Y85070000D02*
X103670000Y87730000D01*
X106035538Y85070000D02*
X106330000Y85070000D01*
X103975627Y85070000D02*
X103670000Y85070000D01*
X106330000Y87730000D02*
X106330000Y85070000D01*
G04 #@! TO.C,P27*
X80975822Y86337060D02*
X80681360Y86337060D01*
X83046898Y83677060D02*
X83341360Y83677060D01*
X80681360Y83677060D02*
X80681360Y86337060D01*
X83341360Y86337060D02*
X83341360Y83677060D01*
X83035733Y86337060D02*
X83341360Y86337060D01*
X80986987Y83677060D02*
X80681360Y83677060D01*
D19*
G04 #@! TO.C,R20*
X53211360Y126054880D02*
X53211360Y125038880D01*
X54811360Y125038880D02*
X54811360Y126054880D01*
X54811360Y123006880D02*
X54811360Y124022880D01*
X53211360Y124022880D02*
X53211360Y123006880D01*
D20*
X54812998Y122951880D02*
G75*
G02*
X53211360Y122955880I-801638J-326000D01*
G01*
X54814854Y126114482D02*
G75*
G03*
X53211360Y126105880I-803494J321398D01*
G01*
G04 #@! TO.C,P38*
X103670000Y87870000D02*
X103670000Y90530000D01*
X106024373Y90530000D02*
X106330000Y90530000D01*
X103964462Y90530000D02*
X103670000Y90530000D01*
X106330000Y90530000D02*
X106330000Y87870000D01*
X106035538Y87870000D02*
X106330000Y87870000D01*
X103975627Y87870000D02*
X103670000Y87870000D01*
G04 #@! TO.C,P1*
X110829364Y95930000D02*
X110829364Y93270000D01*
X108474991Y93270000D02*
X108169364Y93270000D01*
X108463826Y95930000D02*
X108169364Y95930000D01*
X110523737Y95930000D02*
X110829364Y95930000D01*
X108169364Y93270000D02*
X108169364Y95930000D01*
X110534902Y93270000D02*
X110829364Y93270000D01*
D19*
G04 #@! TO.C,R46*
X114500000Y135308000D02*
X114500000Y136324000D01*
X114500000Y133276000D02*
X114500000Y134292000D01*
X112900000Y136324000D02*
X112900000Y135308000D01*
X112900000Y134292000D02*
X112900000Y133276000D01*
D20*
X114501638Y133221000D02*
G75*
G02*
X112900000Y133225000I-801638J-326000D01*
G01*
X114503494Y136383602D02*
G75*
G03*
X112900000Y136375000I-803494J321398D01*
G01*
G04 #@! TO.C,P49*
X51980960Y133470000D02*
X51980960Y136130000D01*
X52275422Y136130000D02*
X51980960Y136130000D01*
X52286587Y133470000D02*
X51980960Y133470000D01*
X54346498Y133470000D02*
X54640960Y133470000D01*
X54335333Y136130000D02*
X54640960Y136130000D01*
X54640960Y136130000D02*
X54640960Y133470000D01*
G04 #@! TO.C,P31*
X119024373Y48330000D02*
X119330000Y48330000D01*
X119035538Y45670000D02*
X119330000Y45670000D01*
X116964462Y48330000D02*
X116670000Y48330000D01*
X116670000Y45670000D02*
X116670000Y48330000D01*
X119330000Y48330000D02*
X119330000Y45670000D01*
X116975627Y45670000D02*
X116670000Y45670000D01*
D15*
G04 #@! TO.C,M2*
X125974470Y39166355D02*
X125724470Y39416354D01*
X125612822Y25743026D02*
X119874472Y25743026D01*
X119124471Y27091736D02*
X118124470Y27091736D01*
X119874472Y26341735D02*
X119874472Y25743026D01*
X118124470Y39166736D02*
X118124470Y27091736D01*
X125974470Y39166355D02*
X125974470Y26104674D01*
X125724470Y39416354D02*
X118374089Y39416354D01*
X119874472Y26341735D02*
X119124471Y27091736D01*
X118374089Y39416354D02*
X118124470Y39166736D01*
X125974470Y26104674D02*
X125612822Y25743026D01*
D19*
G04 #@! TO.C,R12*
X126610960Y129819000D02*
X126610960Y128803000D01*
X128210960Y126771000D02*
X128210960Y127787000D01*
X126610960Y127787000D02*
X126610960Y126771000D01*
X128210960Y128803000D02*
X128210960Y129819000D01*
D20*
X128212598Y126716000D02*
G75*
G02*
X126610960Y126720000I-801638J-326000D01*
G01*
X128214454Y129878602D02*
G75*
G03*
X126610960Y129870000I-803494J321398D01*
G01*
G04 #@! TO.C,P43*
X87524373Y90230000D02*
X87830000Y90230000D01*
X85464462Y90230000D02*
X85170000Y90230000D01*
X85475627Y87570000D02*
X85170000Y87570000D01*
X85170000Y87570000D02*
X85170000Y90230000D01*
X87535538Y87570000D02*
X87830000Y87570000D01*
X87830000Y90230000D02*
X87830000Y87570000D01*
D19*
G04 #@! TO.C,R18*
X119797000Y126200000D02*
X118781000Y126200000D01*
X118781000Y124600000D02*
X119797000Y124600000D01*
X121829000Y126200000D02*
X120813000Y126200000D01*
X120813000Y124600000D02*
X121829000Y124600000D01*
D20*
X118721398Y126203494D02*
G75*
G03*
X118730000Y124600000I-321398J-803494D01*
G01*
X121884000Y126201638D02*
G75*
G02*
X121880000Y124600000I326000J-801638D01*
G01*
D15*
G04 #@! TO.C,M11*
X21823460Y77687499D02*
X21823460Y115337497D01*
X16098455Y108462502D02*
X16098455Y111087503D01*
X21823460Y77687499D02*
X14573640Y77687499D01*
X21223459Y116462491D02*
X20573453Y117112497D01*
X14573640Y77687499D02*
X14648118Y117112497D01*
X21223459Y115937499D02*
X21223459Y116462491D01*
X21823460Y115337497D02*
X21223459Y115937499D01*
X20573453Y117112497D02*
X14648118Y117112497D01*
D20*
G04 #@! TO.C,P51*
X44480960Y126970000D02*
X44480960Y129630000D01*
X47140960Y129630000D02*
X47140960Y126970000D01*
X46835333Y129630000D02*
X47140960Y129630000D01*
X46846498Y126970000D02*
X47140960Y126970000D01*
X44775422Y129630000D02*
X44480960Y129630000D01*
X44786587Y126970000D02*
X44480960Y126970000D01*
G04 #@! TO.C,P37*
X112024373Y90530000D02*
X112330000Y90530000D01*
X112330000Y90530000D02*
X112330000Y87870000D01*
X109670000Y87870000D02*
X109670000Y90530000D01*
X112035538Y87870000D02*
X112330000Y87870000D01*
X109975627Y87870000D02*
X109670000Y87870000D01*
X109964462Y90530000D02*
X109670000Y90530000D01*
G04 #@! TO.C,J24*
X9100000Y126800000D02*
G75*
G03*
X9100000Y126800000I-1200000J0D01*
G01*
G04 #@! TD*
M02*
