G04 #@! TF.GenerationSoftware,KiCad,Pcbnew,(5.99.0-10483-ga6ad7a4a70)*
G04 #@! TF.CreationDate,2021-06-23T22:09:19+03:00*
G04 #@! TF.ProjectId,hellen64_miataNA6_94,68656c6c-656e-4363-945f-6d696174614e,b*
G04 #@! TF.SameCoordinates,PX1406f40PYa852d20*
G04 #@! TF.FileFunction,Soldermask,Bot*
G04 #@! TF.FilePolarity,Negative*
%FSLAX46Y46*%
G04 Gerber Fmt 4.6, Leading zero omitted, Abs format (unit mm)*
G04 Created by KiCad (PCBNEW (5.99.0-10483-ga6ad7a4a70)) date 2021-06-23 22:09:19*
%MOMM*%
%LPD*%
G01*
G04 APERTURE LIST*
%ADD10C,0.599999*%
%ADD11C,1.524000*%
%ADD12C,1.700000*%
%ADD13R,1.700000X1.700000*%
%ADD14O,1.700000X1.700000*%
%ADD15O,1.000001X1.500000*%
%ADD16O,11.400000X1.100000*%
%ADD17O,0.399999X0.599999*%
%ADD18O,0.599999X0.800001*%
%ADD19O,0.599999X0.399999*%
%ADD20O,0.800001X0.599999*%
%ADD21O,0.399999X0.200000*%
%ADD22C,3.500120*%
%ADD23C,1.800000*%
%ADD24C,7.000000*%
%ADD25R,1.100000X1.100000*%
%ADD26C,1.100000*%
%ADD27O,1.100000X2.400000*%
%ADD28C,3.500000*%
%ADD29C,3.302000*%
%ADD30C,0.600000*%
%ADD31O,1.850000X1.700000*%
%ADD32C,2.000000*%
G04 APERTURE END LIST*
D10*
G04 #@! TO.C,M4*
X75566855Y23589700D03*
X77141869Y18684691D03*
X89845887Y18693754D03*
X81366859Y18014690D03*
X82541863Y18014690D03*
X84716857Y18014690D03*
X86941859Y18014690D03*
G04 #@! TD*
D11*
G04 #@! TO.C,R32*
X51700700Y126395000D03*
X51700700Y130205000D03*
G04 #@! TD*
D12*
G04 #@! TO.C,P5*
X62400700Y41704880D03*
G04 #@! TD*
G04 #@! TO.C,P6*
X62400700Y49207060D03*
G04 #@! TD*
G04 #@! TO.C,P47*
X59310960Y134800000D03*
G04 #@! TD*
D13*
G04 #@! TO.C,J27*
X103950000Y102800000D03*
D14*
X101410000Y102800000D03*
X98870000Y102800000D03*
X96330000Y102800000D03*
X93790000Y102800000D03*
X91250000Y102800000D03*
G04 #@! TD*
D12*
G04 #@! TO.C,G4*
X20320000Y55880000D03*
X20320000Y58420000D03*
X20320000Y60960000D03*
X20320000Y63500000D03*
X20320000Y66040000D03*
X22860000Y55880000D03*
X22860000Y58420000D03*
X22860000Y60960000D03*
X22860000Y63500000D03*
X22860000Y66040000D03*
X25400000Y55880000D03*
X25400000Y58420000D03*
X25400000Y60960000D03*
X25400000Y63500000D03*
X25400000Y66040000D03*
G04 #@! TD*
G04 #@! TO.C,P10*
X45200000Y84800000D03*
G04 #@! TD*
G04 #@! TO.C,P12*
X29800000Y84800000D03*
G04 #@! TD*
G04 #@! TO.C,P16*
X69300000Y76000000D03*
G04 #@! TD*
D15*
G04 #@! TO.C,M5*
X30513317Y77637666D03*
X31769182Y77637666D03*
D16*
X38213317Y77762667D03*
D17*
X44663309Y78062666D03*
D18*
X45638321Y77962661D03*
D17*
X46508078Y78062666D03*
X47238315Y78062666D03*
X48133078Y78062666D03*
X50208078Y78062666D03*
X51108074Y78062666D03*
X51818316Y78062666D03*
D18*
X52838317Y77962666D03*
X54013316Y77962666D03*
X55363315Y77962666D03*
X56538314Y77962666D03*
D19*
X57438315Y77032427D03*
X57438315Y76337668D03*
X57438315Y75657428D03*
D20*
X57343317Y74837666D03*
D19*
X57438315Y73532429D03*
D20*
X57343317Y72562664D03*
D19*
X57438315Y71287666D03*
X57438315Y70637664D03*
D20*
X57343317Y69437664D03*
X57343317Y68362660D03*
X57343317Y67487658D03*
D19*
X57438315Y66662666D03*
X57438315Y60812665D03*
D21*
X57543316Y56757695D03*
X57543316Y56097693D03*
X57543316Y55037665D03*
X57543316Y54333580D03*
X57543316Y53533541D03*
X57543316Y52733502D03*
X57543316Y51937666D03*
X57543316Y49742664D03*
X57543316Y49302665D03*
X57543316Y48862666D03*
X57543316Y48422664D03*
X57543316Y47982665D03*
X57543316Y47542666D03*
X57543316Y47102664D03*
X57543316Y46662665D03*
X57543316Y45537694D03*
X57543316Y44877696D03*
X57543316Y44217694D03*
X57543316Y43557696D03*
X57543316Y40152666D03*
X57543316Y39712667D03*
X57543316Y39272665D03*
X57543316Y38832666D03*
X57543316Y38392667D03*
X57543316Y37952665D03*
X57543316Y37512666D03*
G04 #@! TD*
D11*
G04 #@! TO.C,R36*
X41310960Y132895000D03*
X41310960Y136705000D03*
G04 #@! TD*
G04 #@! TO.C,R48*
X109410960Y126390000D03*
X109410960Y130200000D03*
G04 #@! TD*
D12*
G04 #@! TO.C,P15*
X48000000Y82000000D03*
G04 #@! TD*
D11*
G04 #@! TO.C,R24*
X107410960Y122340001D03*
X107410960Y126150001D03*
G04 #@! TD*
G04 #@! TO.C,R33*
X47310960Y132895000D03*
X47310960Y136705000D03*
G04 #@! TD*
G04 #@! TO.C,R42*
X32810960Y126395000D03*
X32810960Y130205000D03*
G04 #@! TD*
D22*
G04 #@! TO.C,P2*
X93728300Y153574420D03*
X139577840Y153574420D03*
X28178520Y153574420D03*
X67027820Y153574420D03*
D23*
X33230580Y143373780D03*
X36728160Y143373780D03*
X39829500Y143373780D03*
X42829240Y143373780D03*
X45828980Y143373780D03*
X48828720Y143373780D03*
X51828460Y143373780D03*
X54828200Y143373780D03*
X57827940Y143373780D03*
X60827680Y143373780D03*
X63929020Y143373780D03*
X33230580Y147874660D03*
X36728160Y147874660D03*
X39829500Y147874660D03*
X42829240Y147874660D03*
X45828980Y147874660D03*
X48828720Y147874660D03*
X51828460Y147874660D03*
X54828200Y147874660D03*
X57827940Y147874660D03*
X60827680Y147874660D03*
X63929020Y147874660D03*
X69877700Y143373780D03*
X72877440Y143373780D03*
X75877180Y143373780D03*
X78876920Y143373780D03*
X81879200Y143373780D03*
X84878940Y143373780D03*
X87878680Y143373780D03*
X90878420Y143373780D03*
X69877700Y147874660D03*
X72877440Y147874660D03*
X75877180Y147874660D03*
X78876920Y147874660D03*
X81879200Y147874660D03*
X84878940Y147874660D03*
X87878680Y147874660D03*
X90878420Y147874660D03*
X96824560Y143373780D03*
X100324680Y143373780D03*
X103428560Y143373780D03*
X106428300Y143373780D03*
X109428040Y143373780D03*
X112427780Y143373780D03*
X115427520Y143373780D03*
X118427260Y143373780D03*
X121427000Y143373780D03*
X124426740Y143373780D03*
X127528080Y143373780D03*
X131028200Y143373780D03*
X134528320Y143373780D03*
X96824560Y147874660D03*
X100324680Y147874660D03*
X103428560Y147874660D03*
X106428300Y147874660D03*
X109428040Y147874660D03*
X112427780Y147874660D03*
X115427520Y147874660D03*
X118427260Y147874660D03*
X121427000Y147874660D03*
X124426740Y147874660D03*
X127528080Y147874660D03*
X131028200Y147874660D03*
X134528320Y147874660D03*
G04 #@! TD*
D12*
G04 #@! TO.C,P56*
X104510960Y134795000D03*
G04 #@! TD*
D24*
G04 #@! TO.C,J18*
X4000000Y142000000D03*
G04 #@! TD*
D12*
G04 #@! TO.C,P52*
X129410960Y134795000D03*
G04 #@! TD*
G04 #@! TO.C,P36*
X108000000Y86400000D03*
G04 #@! TD*
G04 #@! TO.C,P44*
X89500000Y86000000D03*
G04 #@! TD*
G04 #@! TO.C,P13*
X32700000Y81900000D03*
G04 #@! TD*
G04 #@! TO.C,P26*
X79200700Y82200880D03*
G04 #@! TD*
G04 #@! TO.C,P29*
X121000000Y47000000D03*
G04 #@! TD*
D11*
G04 #@! TO.C,R43*
X122910960Y132890000D03*
X122910960Y136700000D03*
G04 #@! TD*
D25*
G04 #@! TO.C,J1*
X145200000Y121975000D03*
D26*
X144400000Y120225000D03*
X143600000Y121975000D03*
X142800000Y120225000D03*
X142000000Y121975000D03*
D27*
X147250000Y121100000D03*
X139950000Y121100000D03*
G04 #@! TD*
D12*
G04 #@! TO.C,P30*
X121000000Y44164880D03*
G04 #@! TD*
D13*
G04 #@! TO.C,J5*
X135422500Y106650000D03*
D12*
X135422500Y104150000D03*
X137422500Y104150000D03*
X137422500Y106650000D03*
D28*
X140132500Y99380000D03*
X140132500Y111420000D03*
G04 #@! TD*
D12*
G04 #@! TO.C,P4*
X65210960Y49204880D03*
G04 #@! TD*
D11*
G04 #@! TO.C,R45*
X118400000Y119600000D03*
X118400000Y123410000D03*
G04 #@! TD*
D12*
G04 #@! TO.C,P25*
X124000000Y44164880D03*
G04 #@! TD*
D10*
G04 #@! TO.C,M8*
X59557362Y102669562D03*
X60082362Y103544564D03*
X60832360Y102369560D03*
X64382361Y102444563D03*
G04 #@! TD*
D29*
G04 #@! TO.C,U2*
X140700000Y58085000D03*
X140700000Y35225000D03*
D11*
X128000000Y53005000D03*
X128000000Y50465000D03*
X128000000Y47925000D03*
X128000000Y45385000D03*
X128000000Y42845000D03*
X128000000Y40305000D03*
G04 #@! TD*
G04 #@! TO.C,R17*
X125910960Y132890000D03*
X125910960Y136700000D03*
G04 #@! TD*
D12*
G04 #@! TO.C,G6*
X5080000Y55880000D03*
X5080000Y58420000D03*
X5080000Y60960000D03*
X5080000Y63500000D03*
X5080000Y66040000D03*
X7620000Y55880000D03*
X7620000Y58420000D03*
X7620000Y60960000D03*
X7620000Y63500000D03*
X7620000Y66040000D03*
X10160000Y55880000D03*
X10160000Y58420000D03*
X10160000Y60960000D03*
X10160000Y63500000D03*
X10160000Y66040000D03*
G04 #@! TD*
G04 #@! TO.C,P55*
X107710560Y134794120D03*
G04 #@! TD*
G04 #@! TO.C,P17*
X69300000Y67600000D03*
G04 #@! TD*
G04 #@! TO.C,P33*
X92400000Y88900000D03*
G04 #@! TD*
D13*
G04 #@! TO.C,J3*
X76679360Y7204880D03*
D14*
X79219360Y7204880D03*
X81759360Y7204880D03*
X84299360Y7204880D03*
X86839360Y7204880D03*
X89379360Y7204880D03*
G04 #@! TD*
D10*
G04 #@! TO.C,M13*
X103391861Y24248218D03*
X104266863Y23723218D03*
X103091859Y22973220D03*
X103166862Y19423219D03*
G04 #@! TD*
D12*
G04 #@! TO.C,P11*
X29800000Y81900000D03*
G04 #@! TD*
D11*
G04 #@! TO.C,R29*
X56310960Y132895000D03*
X56310960Y136705000D03*
G04 #@! TD*
D12*
G04 #@! TO.C,P50*
X54060960Y129800880D03*
G04 #@! TD*
D11*
G04 #@! TO.C,R40*
X35310960Y132895000D03*
X35310960Y136705000D03*
G04 #@! TD*
D24*
G04 #@! TO.C,J13*
X4000000Y18500000D03*
G04 #@! TD*
G04 #@! TO.C,M7*
G36*
G01*
X56902364Y27838876D02*
X57152362Y27838876D01*
G75*
G02*
X57277362Y27713876I0J-125000D01*
G01*
X57277362Y27713876D01*
G75*
G02*
X57152362Y27588876I-125000J0D01*
G01*
X56902364Y27588876D01*
G75*
G02*
X56777364Y27713876I0J125000D01*
G01*
X56777364Y27713876D01*
G75*
G02*
X56902364Y27838876I125000J0D01*
G01*
G37*
G36*
G01*
X56902364Y26738878D02*
X57152362Y26738878D01*
G75*
G02*
X57277362Y26613878I0J-125000D01*
G01*
X57277362Y26613878D01*
G75*
G02*
X57152362Y26488878I-125000J0D01*
G01*
X56902364Y26488878D01*
G75*
G02*
X56777364Y26613878I0J125000D01*
G01*
X56777364Y26613878D01*
G75*
G02*
X56902364Y26738878I125000J0D01*
G01*
G37*
G36*
G01*
X56902364Y25638880D02*
X57152362Y25638880D01*
G75*
G02*
X57277362Y25513880I0J-125000D01*
G01*
X57277362Y25513880D01*
G75*
G02*
X57152362Y25388880I-125000J0D01*
G01*
X56902364Y25388880D01*
G75*
G02*
X56777364Y25513880I0J125000D01*
G01*
X56777364Y25513880D01*
G75*
G02*
X56902364Y25638880I125000J0D01*
G01*
G37*
G36*
G01*
X56902364Y24538882D02*
X57152362Y24538882D01*
G75*
G02*
X57277362Y24413882I0J-125000D01*
G01*
X57277362Y24413882D01*
G75*
G02*
X57152362Y24288882I-125000J0D01*
G01*
X56902364Y24288882D01*
G75*
G02*
X56777364Y24413882I0J125000D01*
G01*
X56777364Y24413882D01*
G75*
G02*
X56902364Y24538882I125000J0D01*
G01*
G37*
G36*
G01*
X56902364Y23438884D02*
X57152362Y23438884D01*
G75*
G02*
X57277362Y23313884I0J-125000D01*
G01*
X57277362Y23313884D01*
G75*
G02*
X57152362Y23188884I-125000J0D01*
G01*
X56902364Y23188884D01*
G75*
G02*
X56777364Y23313884I0J125000D01*
G01*
X56777364Y23313884D01*
G75*
G02*
X56902364Y23438884I125000J0D01*
G01*
G37*
G36*
G01*
X56902364Y22338887D02*
X57152362Y22338887D01*
G75*
G02*
X57277362Y22213887I0J-125000D01*
G01*
X57277362Y22213887D01*
G75*
G02*
X57152362Y22088887I-125000J0D01*
G01*
X56902364Y22088887D01*
G75*
G02*
X56777364Y22213887I0J125000D01*
G01*
X56777364Y22213887D01*
G75*
G02*
X56902364Y22338887I125000J0D01*
G01*
G37*
G04 #@! TD*
D12*
G04 #@! TO.C,P28*
X82011360Y82200880D03*
G04 #@! TD*
G04 #@! TO.C,P24*
X124000000Y47000000D03*
G04 #@! TD*
D24*
G04 #@! TO.C,J12*
X4000000Y77500000D03*
G04 #@! TD*
D11*
G04 #@! TO.C,R19*
X110910960Y132890000D03*
X110910960Y136700000D03*
G04 #@! TD*
G04 #@! TO.C,M1*
G36*
G01*
X85260958Y75146477D02*
X85510958Y75146477D01*
G75*
G02*
X85635958Y75021477I0J-125000D01*
G01*
X85635958Y75021477D01*
G75*
G02*
X85510958Y74896477I-125000J0D01*
G01*
X85260958Y74896477D01*
G75*
G02*
X85135958Y75021477I0J125000D01*
G01*
X85135958Y75021477D01*
G75*
G02*
X85260958Y75146477I125000J0D01*
G01*
G37*
G36*
G01*
X85260958Y75806478D02*
X85510958Y75806478D01*
G75*
G02*
X85635958Y75681478I0J-125000D01*
G01*
X85635958Y75681478D01*
G75*
G02*
X85510958Y75556478I-125000J0D01*
G01*
X85260958Y75556478D01*
G75*
G02*
X85135958Y75681478I0J125000D01*
G01*
X85135958Y75681478D01*
G75*
G02*
X85260958Y75806478I125000J0D01*
G01*
G37*
G36*
G01*
X85260958Y76466479D02*
X85510958Y76466479D01*
G75*
G02*
X85635958Y76341479I0J-125000D01*
G01*
X85635958Y76341479D01*
G75*
G02*
X85510958Y76216479I-125000J0D01*
G01*
X85260958Y76216479D01*
G75*
G02*
X85135958Y76341479I0J125000D01*
G01*
X85135958Y76341479D01*
G75*
G02*
X85260958Y76466479I125000J0D01*
G01*
G37*
G36*
G01*
X85260958Y77126480D02*
X85510958Y77126480D01*
G75*
G02*
X85635958Y77001480I0J-125000D01*
G01*
X85635958Y77001480D01*
G75*
G02*
X85510958Y76876480I-125000J0D01*
G01*
X85260958Y76876480D01*
G75*
G02*
X85135958Y77001480I0J125000D01*
G01*
X85135958Y77001480D01*
G75*
G02*
X85260958Y77126480I125000J0D01*
G01*
G37*
G36*
G01*
X85260958Y80426487D02*
X85510958Y80426487D01*
G75*
G02*
X85635958Y80301487I0J-125000D01*
G01*
X85635958Y80301487D01*
G75*
G02*
X85510958Y80176487I-125000J0D01*
G01*
X85260958Y80176487D01*
G75*
G02*
X85135958Y80301487I0J125000D01*
G01*
X85135958Y80301487D01*
G75*
G02*
X85260958Y80426487I125000J0D01*
G01*
G37*
G36*
G01*
X114030960Y66927684D02*
X114030960Y67177684D01*
G75*
G02*
X114155960Y67302684I125000J0D01*
G01*
X114155960Y67302684D01*
G75*
G02*
X114280960Y67177684I0J-125000D01*
G01*
X114280960Y66927684D01*
G75*
G02*
X114155960Y66802684I-125000J0D01*
G01*
X114155960Y66802684D01*
G75*
G02*
X114030960Y66927684I0J125000D01*
G01*
G37*
G36*
G01*
X113180956Y67177684D02*
X113180956Y66927684D01*
G75*
G02*
X113055956Y66802684I-125000J0D01*
G01*
X113055956Y66802684D01*
G75*
G02*
X112930956Y66927684I0J125000D01*
G01*
X112930956Y67177684D01*
G75*
G02*
X113055956Y67302684I125000J0D01*
G01*
X113055956Y67302684D01*
G75*
G02*
X113180956Y67177684I0J-125000D01*
G01*
G37*
G36*
G01*
X112080955Y67177684D02*
X112080955Y66927684D01*
G75*
G02*
X111955955Y66802684I-125000J0D01*
G01*
X111955955Y66802684D01*
G75*
G02*
X111830955Y66927684I0J125000D01*
G01*
X111830955Y67177684D01*
G75*
G02*
X111955955Y67302684I125000J0D01*
G01*
X111955955Y67302684D01*
G75*
G02*
X112080955Y67177684I0J-125000D01*
G01*
G37*
G36*
G01*
X110980958Y67177684D02*
X110980958Y66927684D01*
G75*
G02*
X110855958Y66802684I-125000J0D01*
G01*
X110855958Y66802684D01*
G75*
G02*
X110730958Y66927684I0J125000D01*
G01*
X110730958Y67177684D01*
G75*
G02*
X110855958Y67302684I125000J0D01*
G01*
X110855958Y67302684D01*
G75*
G02*
X110980958Y67177684I0J-125000D01*
G01*
G37*
G36*
G01*
X109880960Y67177684D02*
X109880960Y66927684D01*
G75*
G02*
X109755960Y66802684I-125000J0D01*
G01*
X109755960Y66802684D01*
G75*
G02*
X109630960Y66927684I0J125000D01*
G01*
X109630960Y67177684D01*
G75*
G02*
X109755960Y67302684I125000J0D01*
G01*
X109755960Y67302684D01*
G75*
G02*
X109880960Y67177684I0J-125000D01*
G01*
G37*
G36*
G01*
X108780962Y67177684D02*
X108780962Y66927684D01*
G75*
G02*
X108655962Y66802684I-125000J0D01*
G01*
X108655962Y66802684D01*
G75*
G02*
X108530962Y66927684I0J125000D01*
G01*
X108530962Y67177684D01*
G75*
G02*
X108655962Y67302684I125000J0D01*
G01*
X108655962Y67302684D01*
G75*
G02*
X108780962Y67177684I0J-125000D01*
G01*
G37*
G36*
G01*
X107680964Y67177684D02*
X107680964Y66927684D01*
G75*
G02*
X107555964Y66802684I-125000J0D01*
G01*
X107555964Y66802684D01*
G75*
G02*
X107430964Y66927684I0J125000D01*
G01*
X107430964Y67177684D01*
G75*
G02*
X107555964Y67302684I125000J0D01*
G01*
X107555964Y67302684D01*
G75*
G02*
X107680964Y67177684I0J-125000D01*
G01*
G37*
G36*
G01*
X106580966Y67177684D02*
X106580966Y66927684D01*
G75*
G02*
X106455966Y66802684I-125000J0D01*
G01*
X106455966Y66802684D01*
G75*
G02*
X106330966Y66927684I0J125000D01*
G01*
X106330966Y67177684D01*
G75*
G02*
X106455966Y67302684I125000J0D01*
G01*
X106455966Y67302684D01*
G75*
G02*
X106580966Y67177684I0J-125000D01*
G01*
G37*
G36*
G01*
X105480969Y67177684D02*
X105480969Y66927684D01*
G75*
G02*
X105355969Y66802684I-125000J0D01*
G01*
X105355969Y66802684D01*
G75*
G02*
X105230969Y66927684I0J125000D01*
G01*
X105230969Y67177684D01*
G75*
G02*
X105355969Y67302684I125000J0D01*
G01*
X105355969Y67302684D01*
G75*
G02*
X105480969Y67177684I0J-125000D01*
G01*
G37*
G36*
G01*
X104380971Y67177684D02*
X104380971Y66927684D01*
G75*
G02*
X104255971Y66802684I-125000J0D01*
G01*
X104255971Y66802684D01*
G75*
G02*
X104130971Y66927684I0J125000D01*
G01*
X104130971Y67177684D01*
G75*
G02*
X104255971Y67302684I125000J0D01*
G01*
X104255971Y67302684D01*
G75*
G02*
X104380971Y67177684I0J-125000D01*
G01*
G37*
G36*
G01*
X103280973Y67177684D02*
X103280973Y66927684D01*
G75*
G02*
X103155973Y66802684I-125000J0D01*
G01*
X103155973Y66802684D01*
G75*
G02*
X103030973Y66927684I0J125000D01*
G01*
X103030973Y67177684D01*
G75*
G02*
X103155973Y67302684I125000J0D01*
G01*
X103155973Y67302684D01*
G75*
G02*
X103280973Y67177684I0J-125000D01*
G01*
G37*
G36*
G01*
X102180975Y67177684D02*
X102180975Y66927684D01*
G75*
G02*
X102055975Y66802684I-125000J0D01*
G01*
X102055975Y66802684D01*
G75*
G02*
X101930975Y66927684I0J125000D01*
G01*
X101930975Y67177684D01*
G75*
G02*
X102055975Y67302684I125000J0D01*
G01*
X102055975Y67302684D01*
G75*
G02*
X102180975Y67177684I0J-125000D01*
G01*
G37*
G36*
G01*
X101080977Y67177684D02*
X101080977Y66927684D01*
G75*
G02*
X100955977Y66802684I-125000J0D01*
G01*
X100955977Y66802684D01*
G75*
G02*
X100830977Y66927684I0J125000D01*
G01*
X100830977Y67177684D01*
G75*
G02*
X100955977Y67302684I125000J0D01*
G01*
X100955977Y67302684D01*
G75*
G02*
X101080977Y67177684I0J-125000D01*
G01*
G37*
G36*
G01*
X99980980Y67177684D02*
X99980980Y66927684D01*
G75*
G02*
X99855980Y66802684I-125000J0D01*
G01*
X99855980Y66802684D01*
G75*
G02*
X99730980Y66927684I0J125000D01*
G01*
X99730980Y67177684D01*
G75*
G02*
X99855980Y67302684I125000J0D01*
G01*
X99855980Y67302684D01*
G75*
G02*
X99980980Y67177684I0J-125000D01*
G01*
G37*
G36*
G01*
X98880982Y67177684D02*
X98880982Y66927684D01*
G75*
G02*
X98755982Y66802684I-125000J0D01*
G01*
X98755982Y66802684D01*
G75*
G02*
X98630982Y66927684I0J125000D01*
G01*
X98630982Y67177684D01*
G75*
G02*
X98755982Y67302684I125000J0D01*
G01*
X98755982Y67302684D01*
G75*
G02*
X98880982Y67177684I0J-125000D01*
G01*
G37*
G36*
G01*
X97780984Y67177684D02*
X97780984Y66927684D01*
G75*
G02*
X97655984Y66802684I-125000J0D01*
G01*
X97655984Y66802684D01*
G75*
G02*
X97530984Y66927684I0J125000D01*
G01*
X97530984Y67177684D01*
G75*
G02*
X97655984Y67302684I125000J0D01*
G01*
X97655984Y67302684D01*
G75*
G02*
X97780984Y67177684I0J-125000D01*
G01*
G37*
G36*
G01*
X96680986Y67177684D02*
X96680986Y66927684D01*
G75*
G02*
X96555986Y66802684I-125000J0D01*
G01*
X96555986Y66802684D01*
G75*
G02*
X96430986Y66927684I0J125000D01*
G01*
X96430986Y67177684D01*
G75*
G02*
X96555986Y67302684I125000J0D01*
G01*
X96555986Y67302684D01*
G75*
G02*
X96680986Y67177684I0J-125000D01*
G01*
G37*
G36*
G01*
X95580988Y67177684D02*
X95580988Y66927684D01*
G75*
G02*
X95455988Y66802684I-125000J0D01*
G01*
X95455988Y66802684D01*
G75*
G02*
X95330988Y66927684I0J125000D01*
G01*
X95330988Y67177684D01*
G75*
G02*
X95455988Y67302684I125000J0D01*
G01*
X95455988Y67302684D01*
G75*
G02*
X95580988Y67177684I0J-125000D01*
G01*
G37*
G36*
G01*
X94480991Y67177684D02*
X94480991Y66927684D01*
G75*
G02*
X94355991Y66802684I-125000J0D01*
G01*
X94355991Y66802684D01*
G75*
G02*
X94230991Y66927684I0J125000D01*
G01*
X94230991Y67177684D01*
G75*
G02*
X94355991Y67302684I125000J0D01*
G01*
X94355991Y67302684D01*
G75*
G02*
X94480991Y67177684I0J-125000D01*
G01*
G37*
G36*
G01*
X93380993Y67177684D02*
X93380993Y66927684D01*
G75*
G02*
X93255993Y66802684I-125000J0D01*
G01*
X93255993Y66802684D01*
G75*
G02*
X93130993Y66927684I0J125000D01*
G01*
X93130993Y67177684D01*
G75*
G02*
X93255993Y67302684I125000J0D01*
G01*
X93255993Y67302684D01*
G75*
G02*
X93380993Y67177684I0J-125000D01*
G01*
G37*
G36*
G01*
X92280995Y67177684D02*
X92280995Y66927684D01*
G75*
G02*
X92155995Y66802684I-125000J0D01*
G01*
X92155995Y66802684D01*
G75*
G02*
X92030995Y66927684I0J125000D01*
G01*
X92030995Y67177684D01*
G75*
G02*
X92155995Y67302684I125000J0D01*
G01*
X92155995Y67302684D01*
G75*
G02*
X92280995Y67177684I0J-125000D01*
G01*
G37*
G36*
G01*
X91180997Y67177684D02*
X91180997Y66927684D01*
G75*
G02*
X91055997Y66802684I-125000J0D01*
G01*
X91055997Y66802684D01*
G75*
G02*
X90930997Y66927684I0J125000D01*
G01*
X90930997Y67177684D01*
G75*
G02*
X91055997Y67302684I125000J0D01*
G01*
X91055997Y67302684D01*
G75*
G02*
X91180997Y67177684I0J-125000D01*
G01*
G37*
G36*
G01*
X90080999Y67177684D02*
X90080999Y66927684D01*
G75*
G02*
X89955999Y66802684I-125000J0D01*
G01*
X89955999Y66802684D01*
G75*
G02*
X89830999Y66927684I0J125000D01*
G01*
X89830999Y67177684D01*
G75*
G02*
X89955999Y67302684I125000J0D01*
G01*
X89955999Y67302684D01*
G75*
G02*
X90080999Y67177684I0J-125000D01*
G01*
G37*
G36*
G01*
X88981002Y67177684D02*
X88981002Y66927684D01*
G75*
G02*
X88856002Y66802684I-125000J0D01*
G01*
X88856002Y66802684D01*
G75*
G02*
X88731002Y66927684I0J125000D01*
G01*
X88731002Y67177684D01*
G75*
G02*
X88856002Y67302684I125000J0D01*
G01*
X88856002Y67302684D01*
G75*
G02*
X88981002Y67177684I0J-125000D01*
G01*
G37*
G36*
G01*
X87881004Y67177684D02*
X87881004Y66927684D01*
G75*
G02*
X87756004Y66802684I-125000J0D01*
G01*
X87756004Y66802684D01*
G75*
G02*
X87631004Y66927684I0J125000D01*
G01*
X87631004Y67177684D01*
G75*
G02*
X87756004Y67302684I125000J0D01*
G01*
X87756004Y67302684D01*
G75*
G02*
X87881004Y67177684I0J-125000D01*
G01*
G37*
G36*
G01*
X86781006Y67177684D02*
X86781006Y66927684D01*
G75*
G02*
X86656006Y66802684I-125000J0D01*
G01*
X86656006Y66802684D01*
G75*
G02*
X86531006Y66927684I0J125000D01*
G01*
X86531006Y67177684D01*
G75*
G02*
X86656006Y67302684I125000J0D01*
G01*
X86656006Y67302684D01*
G75*
G02*
X86781006Y67177684I0J-125000D01*
G01*
G37*
G36*
G01*
X87031950Y81139683D02*
X87031950Y80889683D01*
G75*
G02*
X86906950Y80764683I-125000J0D01*
G01*
X86906950Y80764683D01*
G75*
G02*
X86781950Y80889683I0J125000D01*
G01*
X86781950Y81139683D01*
G75*
G02*
X86906950Y81264683I125000J0D01*
G01*
X86906950Y81264683D01*
G75*
G02*
X87031950Y81139683I0J-125000D01*
G01*
G37*
G36*
G01*
X87691952Y81139683D02*
X87691952Y80889683D01*
G75*
G02*
X87566952Y80764683I-125000J0D01*
G01*
X87566952Y80764683D01*
G75*
G02*
X87441952Y80889683I0J125000D01*
G01*
X87441952Y81139683D01*
G75*
G02*
X87566952Y81264683I125000J0D01*
G01*
X87566952Y81264683D01*
G75*
G02*
X87691952Y81139683I0J-125000D01*
G01*
G37*
G36*
G01*
X88351953Y81139683D02*
X88351953Y80889683D01*
G75*
G02*
X88226953Y80764683I-125000J0D01*
G01*
X88226953Y80764683D01*
G75*
G02*
X88101953Y80889683I0J125000D01*
G01*
X88101953Y81139683D01*
G75*
G02*
X88226953Y81264683I125000J0D01*
G01*
X88226953Y81264683D01*
G75*
G02*
X88351953Y81139683I0J-125000D01*
G01*
G37*
G36*
G01*
X89011954Y81139683D02*
X89011954Y80889683D01*
G75*
G02*
X88886954Y80764683I-125000J0D01*
G01*
X88886954Y80764683D01*
G75*
G02*
X88761954Y80889683I0J125000D01*
G01*
X88761954Y81139683D01*
G75*
G02*
X88886954Y81264683I125000J0D01*
G01*
X88886954Y81264683D01*
G75*
G02*
X89011954Y81139683I0J-125000D01*
G01*
G37*
G36*
G01*
X89671955Y81139683D02*
X89671955Y80889683D01*
G75*
G02*
X89546955Y80764683I-125000J0D01*
G01*
X89546955Y80764683D01*
G75*
G02*
X89421955Y80889683I0J125000D01*
G01*
X89421955Y81139683D01*
G75*
G02*
X89546955Y81264683I125000J0D01*
G01*
X89546955Y81264683D01*
G75*
G02*
X89671955Y81139683I0J-125000D01*
G01*
G37*
G36*
G01*
X90331957Y81139683D02*
X90331957Y80889683D01*
G75*
G02*
X90206957Y80764683I-125000J0D01*
G01*
X90206957Y80764683D01*
G75*
G02*
X90081957Y80889683I0J125000D01*
G01*
X90081957Y81139683D01*
G75*
G02*
X90206957Y81264683I125000J0D01*
G01*
X90206957Y81264683D01*
G75*
G02*
X90331957Y81139683I0J-125000D01*
G01*
G37*
G36*
G01*
X91932954Y81139683D02*
X91932954Y80889683D01*
G75*
G02*
X91807954Y80764683I-125000J0D01*
G01*
X91807954Y80764683D01*
G75*
G02*
X91682954Y80889683I0J125000D01*
G01*
X91682954Y81139683D01*
G75*
G02*
X91807954Y81264683I125000J0D01*
G01*
X91807954Y81264683D01*
G75*
G02*
X91932954Y81139683I0J-125000D01*
G01*
G37*
G36*
G01*
X92592955Y81139683D02*
X92592955Y80889683D01*
G75*
G02*
X92467955Y80764683I-125000J0D01*
G01*
X92467955Y80764683D01*
G75*
G02*
X92342955Y80889683I0J125000D01*
G01*
X92342955Y81139683D01*
G75*
G02*
X92467955Y81264683I125000J0D01*
G01*
X92467955Y81264683D01*
G75*
G02*
X92592955Y81139683I0J-125000D01*
G01*
G37*
G36*
G01*
X93252957Y81139683D02*
X93252957Y80889683D01*
G75*
G02*
X93127957Y80764683I-125000J0D01*
G01*
X93127957Y80764683D01*
G75*
G02*
X93002957Y80889683I0J125000D01*
G01*
X93002957Y81139683D01*
G75*
G02*
X93127957Y81264683I125000J0D01*
G01*
X93127957Y81264683D01*
G75*
G02*
X93252957Y81139683I0J-125000D01*
G01*
G37*
G36*
G01*
X94373856Y81139683D02*
X94373856Y80889683D01*
G75*
G02*
X94248856Y80764683I-125000J0D01*
G01*
X94248856Y80764683D01*
G75*
G02*
X94123856Y80889683I0J125000D01*
G01*
X94123856Y81139683D01*
G75*
G02*
X94248856Y81264683I125000J0D01*
G01*
X94248856Y81264683D01*
G75*
G02*
X94373856Y81139683I0J-125000D01*
G01*
G37*
G36*
G01*
X95033857Y81139683D02*
X95033857Y80889683D01*
G75*
G02*
X94908857Y80764683I-125000J0D01*
G01*
X94908857Y80764683D01*
G75*
G02*
X94783857Y80889683I0J125000D01*
G01*
X94783857Y81139683D01*
G75*
G02*
X94908857Y81264683I125000J0D01*
G01*
X94908857Y81264683D01*
G75*
G02*
X95033857Y81139683I0J-125000D01*
G01*
G37*
G36*
G01*
X95693858Y81139683D02*
X95693858Y80889683D01*
G75*
G02*
X95568858Y80764683I-125000J0D01*
G01*
X95568858Y80764683D01*
G75*
G02*
X95443858Y80889683I0J125000D01*
G01*
X95443858Y81139683D01*
G75*
G02*
X95568858Y81264683I125000J0D01*
G01*
X95568858Y81264683D01*
G75*
G02*
X95693858Y81139683I0J-125000D01*
G01*
G37*
G36*
G01*
X96353860Y81139683D02*
X96353860Y80889683D01*
G75*
G02*
X96228860Y80764683I-125000J0D01*
G01*
X96228860Y80764683D01*
G75*
G02*
X96103860Y80889683I0J125000D01*
G01*
X96103860Y81139683D01*
G75*
G02*
X96228860Y81264683I125000J0D01*
G01*
X96228860Y81264683D01*
G75*
G02*
X96353860Y81139683I0J-125000D01*
G01*
G37*
G36*
G01*
X99679954Y81139683D02*
X99679954Y80889683D01*
G75*
G02*
X99554954Y80764683I-125000J0D01*
G01*
X99554954Y80764683D01*
G75*
G02*
X99429954Y80889683I0J125000D01*
G01*
X99429954Y81139683D01*
G75*
G02*
X99554954Y81264683I125000J0D01*
G01*
X99554954Y81264683D01*
G75*
G02*
X99679954Y81139683I0J-125000D01*
G01*
G37*
G36*
G01*
X100339955Y81139683D02*
X100339955Y80889683D01*
G75*
G02*
X100214955Y80764683I-125000J0D01*
G01*
X100214955Y80764683D01*
G75*
G02*
X100089955Y80889683I0J125000D01*
G01*
X100089955Y81139683D01*
G75*
G02*
X100214955Y81264683I125000J0D01*
G01*
X100214955Y81264683D01*
G75*
G02*
X100339955Y81139683I0J-125000D01*
G01*
G37*
G36*
G01*
X100999957Y81139683D02*
X100999957Y80889683D01*
G75*
G02*
X100874957Y80764683I-125000J0D01*
G01*
X100874957Y80764683D01*
G75*
G02*
X100749957Y80889683I0J125000D01*
G01*
X100749957Y81139683D01*
G75*
G02*
X100874957Y81264683I125000J0D01*
G01*
X100874957Y81264683D01*
G75*
G02*
X100999957Y81139683I0J-125000D01*
G01*
G37*
G36*
G01*
X103645948Y81139683D02*
X103645948Y80889683D01*
G75*
G02*
X103520948Y80764683I-125000J0D01*
G01*
X103520948Y80764683D01*
G75*
G02*
X103395948Y80889683I0J125000D01*
G01*
X103395948Y81139683D01*
G75*
G02*
X103520948Y81264683I125000J0D01*
G01*
X103520948Y81264683D01*
G75*
G02*
X103645948Y81139683I0J-125000D01*
G01*
G37*
G36*
G01*
X104305949Y81139683D02*
X104305949Y80889683D01*
G75*
G02*
X104180949Y80764683I-125000J0D01*
G01*
X104180949Y80764683D01*
G75*
G02*
X104055949Y80889683I0J125000D01*
G01*
X104055949Y81139683D01*
G75*
G02*
X104180949Y81264683I125000J0D01*
G01*
X104180949Y81264683D01*
G75*
G02*
X104305949Y81139683I0J-125000D01*
G01*
G37*
G36*
G01*
X104965951Y81139683D02*
X104965951Y80889683D01*
G75*
G02*
X104840951Y80764683I-125000J0D01*
G01*
X104840951Y80764683D01*
G75*
G02*
X104715951Y80889683I0J125000D01*
G01*
X104715951Y81139683D01*
G75*
G02*
X104840951Y81264683I125000J0D01*
G01*
X104840951Y81264683D01*
G75*
G02*
X104965951Y81139683I0J-125000D01*
G01*
G37*
G36*
G01*
X105625952Y81139683D02*
X105625952Y80889683D01*
G75*
G02*
X105500952Y80764683I-125000J0D01*
G01*
X105500952Y80764683D01*
G75*
G02*
X105375952Y80889683I0J125000D01*
G01*
X105375952Y81139683D01*
G75*
G02*
X105500952Y81264683I125000J0D01*
G01*
X105500952Y81264683D01*
G75*
G02*
X105625952Y81139683I0J-125000D01*
G01*
G37*
G36*
G01*
X106285953Y81139683D02*
X106285953Y80889683D01*
G75*
G02*
X106160953Y80764683I-125000J0D01*
G01*
X106160953Y80764683D01*
G75*
G02*
X106035953Y80889683I0J125000D01*
G01*
X106035953Y81139683D01*
G75*
G02*
X106160953Y81264683I125000J0D01*
G01*
X106160953Y81264683D01*
G75*
G02*
X106285953Y81139683I0J-125000D01*
G01*
G37*
G36*
G01*
X106945954Y81139683D02*
X106945954Y80889683D01*
G75*
G02*
X106820954Y80764683I-125000J0D01*
G01*
X106820954Y80764683D01*
G75*
G02*
X106695954Y80889683I0J125000D01*
G01*
X106695954Y81139683D01*
G75*
G02*
X106820954Y81264683I125000J0D01*
G01*
X106820954Y81264683D01*
G75*
G02*
X106945954Y81139683I0J-125000D01*
G01*
G37*
G36*
G01*
X107605956Y81139683D02*
X107605956Y80889683D01*
G75*
G02*
X107480956Y80764683I-125000J0D01*
G01*
X107480956Y80764683D01*
G75*
G02*
X107355956Y80889683I0J125000D01*
G01*
X107355956Y81139683D01*
G75*
G02*
X107480956Y81264683I125000J0D01*
G01*
X107480956Y81264683D01*
G75*
G02*
X107605956Y81139683I0J-125000D01*
G01*
G37*
G36*
G01*
X108265957Y81139683D02*
X108265957Y80889683D01*
G75*
G02*
X108140957Y80764683I-125000J0D01*
G01*
X108140957Y80764683D01*
G75*
G02*
X108015957Y80889683I0J125000D01*
G01*
X108015957Y81139683D01*
G75*
G02*
X108140957Y81264683I125000J0D01*
G01*
X108140957Y81264683D01*
G75*
G02*
X108265957Y81139683I0J-125000D01*
G01*
G37*
G36*
G01*
X108925958Y81139683D02*
X108925958Y80889683D01*
G75*
G02*
X108800958Y80764683I-125000J0D01*
G01*
X108800958Y80764683D01*
G75*
G02*
X108675958Y80889683I0J125000D01*
G01*
X108675958Y81139683D01*
G75*
G02*
X108800958Y81264683I125000J0D01*
G01*
X108800958Y81264683D01*
G75*
G02*
X108925958Y81139683I0J-125000D01*
G01*
G37*
G36*
G01*
X109585960Y81139683D02*
X109585960Y80889683D01*
G75*
G02*
X109460960Y80764683I-125000J0D01*
G01*
X109460960Y80764683D01*
G75*
G02*
X109335960Y80889683I0J125000D01*
G01*
X109335960Y81139683D01*
G75*
G02*
X109460960Y81264683I125000J0D01*
G01*
X109460960Y81264683D01*
G75*
G02*
X109585960Y81139683I0J-125000D01*
G01*
G37*
G04 #@! TD*
G04 #@! TO.C,F2*
X12350000Y139800000D03*
X17250000Y139800000D03*
G04 #@! TD*
G04 #@! TO.C,R38*
X38310960Y132895000D03*
X38310960Y136705000D03*
G04 #@! TD*
G04 #@! TO.C,R44*
X120600960Y129550000D03*
X124410960Y129550000D03*
G04 #@! TD*
G04 #@! TO.C,M3*
G36*
G01*
X70039863Y32058505D02*
X70289863Y32058505D01*
G75*
G02*
X70414863Y31933505I0J-125000D01*
G01*
X70414863Y31933505D01*
G75*
G02*
X70289863Y31808505I-125000J0D01*
G01*
X70039863Y31808505D01*
G75*
G02*
X69914863Y31933505I0J125000D01*
G01*
X69914863Y31933505D01*
G75*
G02*
X70039863Y32058505I125000J0D01*
G01*
G37*
G36*
G01*
X70289863Y32468503D02*
X70039863Y32468503D01*
G75*
G02*
X69914863Y32593503I0J125000D01*
G01*
X69914863Y32593503D01*
G75*
G02*
X70039863Y32718503I125000J0D01*
G01*
X70289863Y32718503D01*
G75*
G02*
X70414863Y32593503I0J-125000D01*
G01*
X70414863Y32593503D01*
G75*
G02*
X70289863Y32468503I-125000J0D01*
G01*
G37*
G36*
G01*
X70289863Y33128508D02*
X70039863Y33128508D01*
G75*
G02*
X69914863Y33253508I0J125000D01*
G01*
X69914863Y33253508D01*
G75*
G02*
X70039863Y33378508I125000J0D01*
G01*
X70289863Y33378508D01*
G75*
G02*
X70414863Y33253508I0J-125000D01*
G01*
X70414863Y33253508D01*
G75*
G02*
X70289863Y33128508I-125000J0D01*
G01*
G37*
G36*
G01*
X70289863Y33788503D02*
X70039863Y33788503D01*
G75*
G02*
X69914863Y33913503I0J125000D01*
G01*
X69914863Y33913503D01*
G75*
G02*
X70039863Y34038503I125000J0D01*
G01*
X70289863Y34038503D01*
G75*
G02*
X70414863Y33913503I0J-125000D01*
G01*
X70414863Y33913503D01*
G75*
G02*
X70289863Y33788503I-125000J0D01*
G01*
G37*
G36*
G01*
X70289863Y34448505D02*
X70039863Y34448505D01*
G75*
G02*
X69914863Y34573505I0J125000D01*
G01*
X69914863Y34573505D01*
G75*
G02*
X70039863Y34698505I125000J0D01*
G01*
X70289863Y34698505D01*
G75*
G02*
X70414863Y34573505I0J-125000D01*
G01*
X70414863Y34573505D01*
G75*
G02*
X70289863Y34448505I-125000J0D01*
G01*
G37*
G36*
G01*
X70289863Y37748506D02*
X70039863Y37748506D01*
G75*
G02*
X69914863Y37873506I0J125000D01*
G01*
X69914863Y37873506D01*
G75*
G02*
X70039863Y37998506I125000J0D01*
G01*
X70289863Y37998506D01*
G75*
G02*
X70414863Y37873506I0J-125000D01*
G01*
X70414863Y37873506D01*
G75*
G02*
X70289863Y37748506I-125000J0D01*
G01*
G37*
G36*
G01*
X70289863Y38408507D02*
X70039863Y38408507D01*
G75*
G02*
X69914863Y38533507I0J125000D01*
G01*
X69914863Y38533507D01*
G75*
G02*
X70039863Y38658507I125000J0D01*
G01*
X70289863Y38658507D01*
G75*
G02*
X70414863Y38533507I0J-125000D01*
G01*
X70414863Y38533507D01*
G75*
G02*
X70289863Y38408507I-125000J0D01*
G01*
G37*
G36*
G01*
X70289863Y39068509D02*
X70039863Y39068509D01*
G75*
G02*
X69914863Y39193509I0J125000D01*
G01*
X69914863Y39193509D01*
G75*
G02*
X70039863Y39318509I125000J0D01*
G01*
X70289863Y39318509D01*
G75*
G02*
X70414863Y39193509I0J-125000D01*
G01*
X70414863Y39193509D01*
G75*
G02*
X70289863Y39068509I-125000J0D01*
G01*
G37*
G36*
G01*
X70289863Y39728507D02*
X70039863Y39728507D01*
G75*
G02*
X69914863Y39853507I0J125000D01*
G01*
X69914863Y39853507D01*
G75*
G02*
X70039863Y39978507I125000J0D01*
G01*
X70289863Y39978507D01*
G75*
G02*
X70414863Y39853507I0J-125000D01*
G01*
X70414863Y39853507D01*
G75*
G02*
X70289863Y39728507I-125000J0D01*
G01*
G37*
G36*
G01*
X70289863Y40388509D02*
X70039863Y40388509D01*
G75*
G02*
X69914863Y40513509I0J125000D01*
G01*
X69914863Y40513509D01*
G75*
G02*
X70039863Y40638509I125000J0D01*
G01*
X70289863Y40638509D01*
G75*
G02*
X70414863Y40513509I0J-125000D01*
G01*
X70414863Y40513509D01*
G75*
G02*
X70289863Y40388509I-125000J0D01*
G01*
G37*
G36*
G01*
X70289863Y41048507D02*
X70039863Y41048507D01*
G75*
G02*
X69914863Y41173507I0J125000D01*
G01*
X69914863Y41173507D01*
G75*
G02*
X70039863Y41298507I125000J0D01*
G01*
X70289863Y41298507D01*
G75*
G02*
X70414863Y41173507I0J-125000D01*
G01*
X70414863Y41173507D01*
G75*
G02*
X70289863Y41048507I-125000J0D01*
G01*
G37*
G36*
G01*
X70289863Y41708508D02*
X70039863Y41708508D01*
G75*
G02*
X69914863Y41833508I0J125000D01*
G01*
X69914863Y41833508D01*
G75*
G02*
X70039863Y41958508I125000J0D01*
G01*
X70289863Y41958508D01*
G75*
G02*
X70414863Y41833508I0J-125000D01*
G01*
X70414863Y41833508D01*
G75*
G02*
X70289863Y41708508I-125000J0D01*
G01*
G37*
G36*
G01*
X70289863Y42368507D02*
X70039863Y42368507D01*
G75*
G02*
X69914863Y42493507I0J125000D01*
G01*
X69914863Y42493507D01*
G75*
G02*
X70039863Y42618507I125000J0D01*
G01*
X70289863Y42618507D01*
G75*
G02*
X70414863Y42493507I0J-125000D01*
G01*
X70414863Y42493507D01*
G75*
G02*
X70289863Y42368507I-125000J0D01*
G01*
G37*
G36*
G01*
X70289863Y43028508D02*
X70039863Y43028508D01*
G75*
G02*
X69914863Y43153508I0J125000D01*
G01*
X69914863Y43153508D01*
G75*
G02*
X70039863Y43278508I125000J0D01*
G01*
X70289863Y43278508D01*
G75*
G02*
X70414863Y43153508I0J-125000D01*
G01*
X70414863Y43153508D01*
G75*
G02*
X70289863Y43028508I-125000J0D01*
G01*
G37*
G36*
G01*
X70289863Y43688507D02*
X70039863Y43688507D01*
G75*
G02*
X69914863Y43813507I0J125000D01*
G01*
X69914863Y43813507D01*
G75*
G02*
X70039863Y43938507I125000J0D01*
G01*
X70289863Y43938507D01*
G75*
G02*
X70414863Y43813507I0J-125000D01*
G01*
X70414863Y43813507D01*
G75*
G02*
X70289863Y43688507I-125000J0D01*
G01*
G37*
G36*
G01*
X70289863Y44348508D02*
X70039863Y44348508D01*
G75*
G02*
X69914863Y44473508I0J125000D01*
G01*
X69914863Y44473508D01*
G75*
G02*
X70039863Y44598508I125000J0D01*
G01*
X70289863Y44598508D01*
G75*
G02*
X70414863Y44473508I0J-125000D01*
G01*
X70414863Y44473508D01*
G75*
G02*
X70289863Y44348508I-125000J0D01*
G01*
G37*
G36*
G01*
X70289863Y45008507D02*
X70039863Y45008507D01*
G75*
G02*
X69914863Y45133507I0J125000D01*
G01*
X69914863Y45133507D01*
G75*
G02*
X70039863Y45258507I125000J0D01*
G01*
X70289863Y45258507D01*
G75*
G02*
X70414863Y45133507I0J-125000D01*
G01*
X70414863Y45133507D01*
G75*
G02*
X70289863Y45008507I-125000J0D01*
G01*
G37*
G36*
G01*
X70289863Y45668508D02*
X70039863Y45668508D01*
G75*
G02*
X69914863Y45793508I0J125000D01*
G01*
X69914863Y45793508D01*
G75*
G02*
X70039863Y45918508I125000J0D01*
G01*
X70289863Y45918508D01*
G75*
G02*
X70414863Y45793508I0J-125000D01*
G01*
X70414863Y45793508D01*
G75*
G02*
X70289863Y45668508I-125000J0D01*
G01*
G37*
G36*
G01*
X70289863Y46328507D02*
X70039863Y46328507D01*
G75*
G02*
X69914863Y46453507I0J125000D01*
G01*
X69914863Y46453507D01*
G75*
G02*
X70039863Y46578507I125000J0D01*
G01*
X70289863Y46578507D01*
G75*
G02*
X70414863Y46453507I0J-125000D01*
G01*
X70414863Y46453507D01*
G75*
G02*
X70289863Y46328507I-125000J0D01*
G01*
G37*
G36*
G01*
X70289863Y46988508D02*
X70039863Y46988508D01*
G75*
G02*
X69914863Y47113508I0J125000D01*
G01*
X69914863Y47113508D01*
G75*
G02*
X70039863Y47238508I125000J0D01*
G01*
X70289863Y47238508D01*
G75*
G02*
X70414863Y47113508I0J-125000D01*
G01*
X70414863Y47113508D01*
G75*
G02*
X70289863Y46988508I-125000J0D01*
G01*
G37*
G36*
G01*
X70289863Y47648507D02*
X70039863Y47648507D01*
G75*
G02*
X69914863Y47773507I0J125000D01*
G01*
X69914863Y47773507D01*
G75*
G02*
X70039863Y47898507I125000J0D01*
G01*
X70289863Y47898507D01*
G75*
G02*
X70414863Y47773507I0J-125000D01*
G01*
X70414863Y47773507D01*
G75*
G02*
X70289863Y47648507I-125000J0D01*
G01*
G37*
G36*
G01*
X70289863Y48308508D02*
X70039863Y48308508D01*
G75*
G02*
X69914863Y48433508I0J125000D01*
G01*
X69914863Y48433508D01*
G75*
G02*
X70039863Y48558508I125000J0D01*
G01*
X70289863Y48558508D01*
G75*
G02*
X70414863Y48433508I0J-125000D01*
G01*
X70414863Y48433508D01*
G75*
G02*
X70289863Y48308508I-125000J0D01*
G01*
G37*
G36*
G01*
X70289863Y48968507D02*
X70039863Y48968507D01*
G75*
G02*
X69914863Y49093507I0J125000D01*
G01*
X69914863Y49093507D01*
G75*
G02*
X70039863Y49218507I125000J0D01*
G01*
X70289863Y49218507D01*
G75*
G02*
X70414863Y49093507I0J-125000D01*
G01*
X70414863Y49093507D01*
G75*
G02*
X70289863Y48968507I-125000J0D01*
G01*
G37*
G36*
G01*
X70289863Y49628508D02*
X70039863Y49628508D01*
G75*
G02*
X69914863Y49753508I0J125000D01*
G01*
X69914863Y49753508D01*
G75*
G02*
X70039863Y49878508I125000J0D01*
G01*
X70289863Y49878508D01*
G75*
G02*
X70414863Y49753508I0J-125000D01*
G01*
X70414863Y49753508D01*
G75*
G02*
X70289863Y49628508I-125000J0D01*
G01*
G37*
G36*
G01*
X70289863Y50288507D02*
X70039863Y50288507D01*
G75*
G02*
X69914863Y50413507I0J125000D01*
G01*
X69914863Y50413507D01*
G75*
G02*
X70039863Y50538507I125000J0D01*
G01*
X70289863Y50538507D01*
G75*
G02*
X70414863Y50413507I0J-125000D01*
G01*
X70414863Y50413507D01*
G75*
G02*
X70289863Y50288507I-125000J0D01*
G01*
G37*
G36*
G01*
X70289863Y50948508D02*
X70039863Y50948508D01*
G75*
G02*
X69914863Y51073508I0J125000D01*
G01*
X69914863Y51073508D01*
G75*
G02*
X70039863Y51198508I125000J0D01*
G01*
X70289863Y51198508D01*
G75*
G02*
X70414863Y51073508I0J-125000D01*
G01*
X70414863Y51073508D01*
G75*
G02*
X70289863Y50948508I-125000J0D01*
G01*
G37*
G36*
G01*
X70289863Y51608506D02*
X70039863Y51608506D01*
G75*
G02*
X69914863Y51733506I0J125000D01*
G01*
X69914863Y51733506D01*
G75*
G02*
X70039863Y51858506I125000J0D01*
G01*
X70289863Y51858506D01*
G75*
G02*
X70414863Y51733506I0J-125000D01*
G01*
X70414863Y51733506D01*
G75*
G02*
X70289863Y51608506I-125000J0D01*
G01*
G37*
G36*
G01*
X70289863Y52268508D02*
X70039863Y52268508D01*
G75*
G02*
X69914863Y52393508I0J125000D01*
G01*
X69914863Y52393508D01*
G75*
G02*
X70039863Y52518508I125000J0D01*
G01*
X70289863Y52518508D01*
G75*
G02*
X70414863Y52393508I0J-125000D01*
G01*
X70414863Y52393508D01*
G75*
G02*
X70289863Y52268508I-125000J0D01*
G01*
G37*
G36*
G01*
X70289863Y52928506D02*
X70039863Y52928506D01*
G75*
G02*
X69914863Y53053506I0J125000D01*
G01*
X69914863Y53053506D01*
G75*
G02*
X70039863Y53178506I125000J0D01*
G01*
X70289863Y53178506D01*
G75*
G02*
X70414863Y53053506I0J-125000D01*
G01*
X70414863Y53053506D01*
G75*
G02*
X70289863Y52928506I-125000J0D01*
G01*
G37*
G36*
G01*
X70289863Y53588508D02*
X70039863Y53588508D01*
G75*
G02*
X69914863Y53713508I0J125000D01*
G01*
X69914863Y53713508D01*
G75*
G02*
X70039863Y53838508I125000J0D01*
G01*
X70289863Y53838508D01*
G75*
G02*
X70414863Y53713508I0J-125000D01*
G01*
X70414863Y53713508D01*
G75*
G02*
X70289863Y53588508I-125000J0D01*
G01*
G37*
G36*
G01*
X70289863Y54248506D02*
X70039863Y54248506D01*
G75*
G02*
X69914863Y54373506I0J125000D01*
G01*
X69914863Y54373506D01*
G75*
G02*
X70039863Y54498506I125000J0D01*
G01*
X70289863Y54498506D01*
G75*
G02*
X70414863Y54373506I0J-125000D01*
G01*
X70414863Y54373506D01*
G75*
G02*
X70289863Y54248506I-125000J0D01*
G01*
G37*
G36*
G01*
X70289863Y54908507D02*
X70039863Y54908507D01*
G75*
G02*
X69914863Y55033507I0J125000D01*
G01*
X69914863Y55033507D01*
G75*
G02*
X70039863Y55158507I125000J0D01*
G01*
X70289863Y55158507D01*
G75*
G02*
X70414863Y55033507I0J-125000D01*
G01*
X70414863Y55033507D01*
G75*
G02*
X70289863Y54908507I-125000J0D01*
G01*
G37*
G36*
G01*
X70289863Y55568506D02*
X70039863Y55568506D01*
G75*
G02*
X69914863Y55693506I0J125000D01*
G01*
X69914863Y55693506D01*
G75*
G02*
X70039863Y55818506I125000J0D01*
G01*
X70289863Y55818506D01*
G75*
G02*
X70414863Y55693506I0J-125000D01*
G01*
X70414863Y55693506D01*
G75*
G02*
X70289863Y55568506I-125000J0D01*
G01*
G37*
G36*
G01*
X70289863Y56228507D02*
X70039863Y56228507D01*
G75*
G02*
X69914863Y56353507I0J125000D01*
G01*
X69914863Y56353507D01*
G75*
G02*
X70039863Y56478507I125000J0D01*
G01*
X70289863Y56478507D01*
G75*
G02*
X70414863Y56353507I0J-125000D01*
G01*
X70414863Y56353507D01*
G75*
G02*
X70289863Y56228507I-125000J0D01*
G01*
G37*
G36*
G01*
X103986861Y27681503D02*
X103986861Y27931503D01*
G75*
G02*
X104111861Y28056503I125000J0D01*
G01*
X104111861Y28056503D01*
G75*
G02*
X104236861Y27931503I0J-125000D01*
G01*
X104236861Y27681503D01*
G75*
G02*
X104111861Y27556503I-125000J0D01*
G01*
X104111861Y27556503D01*
G75*
G02*
X103986861Y27681503I0J125000D01*
G01*
G37*
G36*
G01*
X102916859Y27931503D02*
X102916859Y27681503D01*
G75*
G02*
X102791859Y27556503I-125000J0D01*
G01*
X102791859Y27556503D01*
G75*
G02*
X102666859Y27681503I0J125000D01*
G01*
X102666859Y27931503D01*
G75*
G02*
X102791859Y28056503I125000J0D01*
G01*
X102791859Y28056503D01*
G75*
G02*
X102916859Y27931503I0J-125000D01*
G01*
G37*
G36*
G01*
X101596856Y27931503D02*
X101596856Y27681503D01*
G75*
G02*
X101471856Y27556503I-125000J0D01*
G01*
X101471856Y27556503D01*
G75*
G02*
X101346856Y27681503I0J125000D01*
G01*
X101346856Y27931503D01*
G75*
G02*
X101471856Y28056503I125000J0D01*
G01*
X101471856Y28056503D01*
G75*
G02*
X101596856Y27931503I0J-125000D01*
G01*
G37*
G36*
G01*
X100836858Y27931503D02*
X100836858Y27681503D01*
G75*
G02*
X100711858Y27556503I-125000J0D01*
G01*
X100711858Y27556503D01*
G75*
G02*
X100586858Y27681503I0J125000D01*
G01*
X100586858Y27931503D01*
G75*
G02*
X100711858Y28056503I125000J0D01*
G01*
X100711858Y28056503D01*
G75*
G02*
X100836858Y27931503I0J-125000D01*
G01*
G37*
G36*
G01*
X100171855Y27931503D02*
X100171855Y27681503D01*
G75*
G02*
X100046855Y27556503I-125000J0D01*
G01*
X100046855Y27556503D01*
G75*
G02*
X99921855Y27681503I0J125000D01*
G01*
X99921855Y27931503D01*
G75*
G02*
X100046855Y28056503I125000J0D01*
G01*
X100046855Y28056503D01*
G75*
G02*
X100171855Y27931503I0J-125000D01*
G01*
G37*
G36*
G01*
X99506853Y27931503D02*
X99506853Y27681503D01*
G75*
G02*
X99381853Y27556503I-125000J0D01*
G01*
X99381853Y27556503D01*
G75*
G02*
X99256853Y27681503I0J125000D01*
G01*
X99256853Y27931503D01*
G75*
G02*
X99381853Y28056503I125000J0D01*
G01*
X99381853Y28056503D01*
G75*
G02*
X99506853Y27931503I0J-125000D01*
G01*
G37*
G36*
G01*
X98841863Y27931503D02*
X98841863Y27681503D01*
G75*
G02*
X98716863Y27556503I-125000J0D01*
G01*
X98716863Y27556503D01*
G75*
G02*
X98591863Y27681503I0J125000D01*
G01*
X98591863Y27931503D01*
G75*
G02*
X98716863Y28056503I125000J0D01*
G01*
X98716863Y28056503D01*
G75*
G02*
X98841863Y27931503I0J-125000D01*
G01*
G37*
G36*
G01*
X98066863Y27931503D02*
X98066863Y27681503D01*
G75*
G02*
X97941863Y27556503I-125000J0D01*
G01*
X97941863Y27556503D01*
G75*
G02*
X97816863Y27681503I0J125000D01*
G01*
X97816863Y27931503D01*
G75*
G02*
X97941863Y28056503I125000J0D01*
G01*
X97941863Y28056503D01*
G75*
G02*
X98066863Y27931503I0J-125000D01*
G01*
G37*
G36*
G01*
X96966865Y27931503D02*
X96966865Y27681503D01*
G75*
G02*
X96841865Y27556503I-125000J0D01*
G01*
X96841865Y27556503D01*
G75*
G02*
X96716865Y27681503I0J125000D01*
G01*
X96716865Y27931503D01*
G75*
G02*
X96841865Y28056503I125000J0D01*
G01*
X96841865Y28056503D01*
G75*
G02*
X96966865Y27931503I0J-125000D01*
G01*
G37*
G36*
G01*
X95866868Y27931503D02*
X95866868Y27681503D01*
G75*
G02*
X95741868Y27556503I-125000J0D01*
G01*
X95741868Y27556503D01*
G75*
G02*
X95616868Y27681503I0J125000D01*
G01*
X95616868Y27931503D01*
G75*
G02*
X95741868Y28056503I125000J0D01*
G01*
X95741868Y28056503D01*
G75*
G02*
X95866868Y27931503I0J-125000D01*
G01*
G37*
G36*
G01*
X94766870Y27931503D02*
X94766870Y27681503D01*
G75*
G02*
X94641870Y27556503I-125000J0D01*
G01*
X94641870Y27556503D01*
G75*
G02*
X94516870Y27681503I0J125000D01*
G01*
X94516870Y27931503D01*
G75*
G02*
X94641870Y28056503I125000J0D01*
G01*
X94641870Y28056503D01*
G75*
G02*
X94766870Y27931503I0J-125000D01*
G01*
G37*
G36*
G01*
X93666872Y27931503D02*
X93666872Y27681503D01*
G75*
G02*
X93541872Y27556503I-125000J0D01*
G01*
X93541872Y27556503D01*
G75*
G02*
X93416872Y27681503I0J125000D01*
G01*
X93416872Y27931503D01*
G75*
G02*
X93541872Y28056503I125000J0D01*
G01*
X93541872Y28056503D01*
G75*
G02*
X93666872Y27931503I0J-125000D01*
G01*
G37*
G36*
G01*
X92566874Y27931503D02*
X92566874Y27681503D01*
G75*
G02*
X92441874Y27556503I-125000J0D01*
G01*
X92441874Y27556503D01*
G75*
G02*
X92316874Y27681503I0J125000D01*
G01*
X92316874Y27931503D01*
G75*
G02*
X92441874Y28056503I125000J0D01*
G01*
X92441874Y28056503D01*
G75*
G02*
X92566874Y27931503I0J-125000D01*
G01*
G37*
G36*
G01*
X91466876Y27931503D02*
X91466876Y27681503D01*
G75*
G02*
X91341876Y27556503I-125000J0D01*
G01*
X91341876Y27556503D01*
G75*
G02*
X91216876Y27681503I0J125000D01*
G01*
X91216876Y27931503D01*
G75*
G02*
X91341876Y28056503I125000J0D01*
G01*
X91341876Y28056503D01*
G75*
G02*
X91466876Y27931503I0J-125000D01*
G01*
G37*
G36*
G01*
X90366879Y27931503D02*
X90366879Y27681503D01*
G75*
G02*
X90241879Y27556503I-125000J0D01*
G01*
X90241879Y27556503D01*
G75*
G02*
X90116879Y27681503I0J125000D01*
G01*
X90116879Y27931503D01*
G75*
G02*
X90241879Y28056503I125000J0D01*
G01*
X90241879Y28056503D01*
G75*
G02*
X90366879Y27931503I0J-125000D01*
G01*
G37*
G36*
G01*
X89266881Y27931503D02*
X89266881Y27681503D01*
G75*
G02*
X89141881Y27556503I-125000J0D01*
G01*
X89141881Y27556503D01*
G75*
G02*
X89016881Y27681503I0J125000D01*
G01*
X89016881Y27931503D01*
G75*
G02*
X89141881Y28056503I125000J0D01*
G01*
X89141881Y28056503D01*
G75*
G02*
X89266881Y27931503I0J-125000D01*
G01*
G37*
G36*
G01*
X88166883Y27931503D02*
X88166883Y27681503D01*
G75*
G02*
X88041883Y27556503I-125000J0D01*
G01*
X88041883Y27556503D01*
G75*
G02*
X87916883Y27681503I0J125000D01*
G01*
X87916883Y27931503D01*
G75*
G02*
X88041883Y28056503I125000J0D01*
G01*
X88041883Y28056503D01*
G75*
G02*
X88166883Y27931503I0J-125000D01*
G01*
G37*
G36*
G01*
X87066885Y27931503D02*
X87066885Y27681503D01*
G75*
G02*
X86941885Y27556503I-125000J0D01*
G01*
X86941885Y27556503D01*
G75*
G02*
X86816885Y27681503I0J125000D01*
G01*
X86816885Y27931503D01*
G75*
G02*
X86941885Y28056503I125000J0D01*
G01*
X86941885Y28056503D01*
G75*
G02*
X87066885Y27931503I0J-125000D01*
G01*
G37*
G36*
G01*
X85966887Y27931503D02*
X85966887Y27681503D01*
G75*
G02*
X85841887Y27556503I-125000J0D01*
G01*
X85841887Y27556503D01*
G75*
G02*
X85716887Y27681503I0J125000D01*
G01*
X85716887Y27931503D01*
G75*
G02*
X85841887Y28056503I125000J0D01*
G01*
X85841887Y28056503D01*
G75*
G02*
X85966887Y27931503I0J-125000D01*
G01*
G37*
G36*
G01*
X84866890Y27931503D02*
X84866890Y27681503D01*
G75*
G02*
X84741890Y27556503I-125000J0D01*
G01*
X84741890Y27556503D01*
G75*
G02*
X84616890Y27681503I0J125000D01*
G01*
X84616890Y27931503D01*
G75*
G02*
X84741890Y28056503I125000J0D01*
G01*
X84741890Y28056503D01*
G75*
G02*
X84866890Y27931503I0J-125000D01*
G01*
G37*
G36*
G01*
X83766892Y27931503D02*
X83766892Y27681503D01*
G75*
G02*
X83641892Y27556503I-125000J0D01*
G01*
X83641892Y27556503D01*
G75*
G02*
X83516892Y27681503I0J125000D01*
G01*
X83516892Y27931503D01*
G75*
G02*
X83641892Y28056503I125000J0D01*
G01*
X83641892Y28056503D01*
G75*
G02*
X83766892Y27931503I0J-125000D01*
G01*
G37*
G36*
G01*
X82666894Y27931503D02*
X82666894Y27681503D01*
G75*
G02*
X82541894Y27556503I-125000J0D01*
G01*
X82541894Y27556503D01*
G75*
G02*
X82416894Y27681503I0J125000D01*
G01*
X82416894Y27931503D01*
G75*
G02*
X82541894Y28056503I125000J0D01*
G01*
X82541894Y28056503D01*
G75*
G02*
X82666894Y27931503I0J-125000D01*
G01*
G37*
G36*
G01*
X81566896Y27931503D02*
X81566896Y27681503D01*
G75*
G02*
X81441896Y27556503I-125000J0D01*
G01*
X81441896Y27556503D01*
G75*
G02*
X81316896Y27681503I0J125000D01*
G01*
X81316896Y27931503D01*
G75*
G02*
X81441896Y28056503I125000J0D01*
G01*
X81441896Y28056503D01*
G75*
G02*
X81566896Y27931503I0J-125000D01*
G01*
G37*
G36*
G01*
X80466898Y27931503D02*
X80466898Y27681503D01*
G75*
G02*
X80341898Y27556503I-125000J0D01*
G01*
X80341898Y27556503D01*
G75*
G02*
X80216898Y27681503I0J125000D01*
G01*
X80216898Y27931503D01*
G75*
G02*
X80341898Y28056503I125000J0D01*
G01*
X80341898Y28056503D01*
G75*
G02*
X80466898Y27931503I0J-125000D01*
G01*
G37*
G36*
G01*
X79366901Y27931503D02*
X79366901Y27681503D01*
G75*
G02*
X79241901Y27556503I-125000J0D01*
G01*
X79241901Y27556503D01*
G75*
G02*
X79116901Y27681503I0J125000D01*
G01*
X79116901Y27931503D01*
G75*
G02*
X79241901Y28056503I125000J0D01*
G01*
X79241901Y28056503D01*
G75*
G02*
X79366901Y27931503I0J-125000D01*
G01*
G37*
G36*
G01*
X78266903Y27931503D02*
X78266903Y27681503D01*
G75*
G02*
X78141903Y27556503I-125000J0D01*
G01*
X78141903Y27556503D01*
G75*
G02*
X78016903Y27681503I0J125000D01*
G01*
X78016903Y27931503D01*
G75*
G02*
X78141903Y28056503I125000J0D01*
G01*
X78141903Y28056503D01*
G75*
G02*
X78266903Y27931503I0J-125000D01*
G01*
G37*
G36*
G01*
X77166905Y27931503D02*
X77166905Y27681503D01*
G75*
G02*
X77041905Y27556503I-125000J0D01*
G01*
X77041905Y27556503D01*
G75*
G02*
X76916905Y27681503I0J125000D01*
G01*
X76916905Y27931503D01*
G75*
G02*
X77041905Y28056503I125000J0D01*
G01*
X77041905Y28056503D01*
G75*
G02*
X77166905Y27931503I0J-125000D01*
G01*
G37*
G36*
G01*
X76066907Y27931503D02*
X76066907Y27681503D01*
G75*
G02*
X75941907Y27556503I-125000J0D01*
G01*
X75941907Y27556503D01*
G75*
G02*
X75816907Y27681503I0J125000D01*
G01*
X75816907Y27931503D01*
G75*
G02*
X75941907Y28056503I125000J0D01*
G01*
X75941907Y28056503D01*
G75*
G02*
X76066907Y27931503I0J-125000D01*
G01*
G37*
G36*
G01*
X74966909Y27931503D02*
X74966909Y27681503D01*
G75*
G02*
X74841909Y27556503I-125000J0D01*
G01*
X74841909Y27556503D01*
G75*
G02*
X74716909Y27681503I0J125000D01*
G01*
X74716909Y27931503D01*
G75*
G02*
X74841909Y28056503I125000J0D01*
G01*
X74841909Y28056503D01*
G75*
G02*
X74966909Y27931503I0J-125000D01*
G01*
G37*
G36*
G01*
X73866912Y27931503D02*
X73866912Y27681503D01*
G75*
G02*
X73741912Y27556503I-125000J0D01*
G01*
X73741912Y27556503D01*
G75*
G02*
X73616912Y27681503I0J125000D01*
G01*
X73616912Y27931503D01*
G75*
G02*
X73741912Y28056503I125000J0D01*
G01*
X73741912Y28056503D01*
G75*
G02*
X73866912Y27931503I0J-125000D01*
G01*
G37*
G36*
G01*
X72766914Y27931503D02*
X72766914Y27681503D01*
G75*
G02*
X72641914Y27556503I-125000J0D01*
G01*
X72641914Y27556503D01*
G75*
G02*
X72516914Y27681503I0J125000D01*
G01*
X72516914Y27931503D01*
G75*
G02*
X72641914Y28056503I125000J0D01*
G01*
X72641914Y28056503D01*
G75*
G02*
X72766914Y27931503I0J-125000D01*
G01*
G37*
G36*
G01*
X71666916Y27931503D02*
X71666916Y27681503D01*
G75*
G02*
X71541916Y27556503I-125000J0D01*
G01*
X71541916Y27556503D01*
G75*
G02*
X71416916Y27681503I0J125000D01*
G01*
X71416916Y27931503D01*
G75*
G02*
X71541916Y28056503I125000J0D01*
G01*
X71541916Y28056503D01*
G75*
G02*
X71666916Y27931503I0J-125000D01*
G01*
G37*
G36*
G01*
X78666859Y63860503D02*
X78666859Y63610503D01*
G75*
G02*
X78541859Y63485503I-125000J0D01*
G01*
X78541859Y63485503D01*
G75*
G02*
X78416859Y63610503I0J125000D01*
G01*
X78416859Y63860503D01*
G75*
G02*
X78541859Y63985503I125000J0D01*
G01*
X78541859Y63985503D01*
G75*
G02*
X78666859Y63860503I0J-125000D01*
G01*
G37*
G36*
G01*
X79736861Y63610503D02*
X79736861Y63860503D01*
G75*
G02*
X79861861Y63985503I125000J0D01*
G01*
X79861861Y63985503D01*
G75*
G02*
X79986861Y63860503I0J-125000D01*
G01*
X79986861Y63610503D01*
G75*
G02*
X79861861Y63485503I-125000J0D01*
G01*
X79861861Y63485503D01*
G75*
G02*
X79736861Y63610503I0J125000D01*
G01*
G37*
G36*
G01*
X81056864Y63610503D02*
X81056864Y63860503D01*
G75*
G02*
X81181864Y63985503I125000J0D01*
G01*
X81181864Y63985503D01*
G75*
G02*
X81306864Y63860503I0J-125000D01*
G01*
X81306864Y63610503D01*
G75*
G02*
X81181864Y63485503I-125000J0D01*
G01*
X81181864Y63485503D01*
G75*
G02*
X81056864Y63610503I0J125000D01*
G01*
G37*
G36*
G01*
X82156861Y63610503D02*
X82156861Y63860503D01*
G75*
G02*
X82281861Y63985503I125000J0D01*
G01*
X82281861Y63985503D01*
G75*
G02*
X82406861Y63860503I0J-125000D01*
G01*
X82406861Y63610503D01*
G75*
G02*
X82281861Y63485503I-125000J0D01*
G01*
X82281861Y63485503D01*
G75*
G02*
X82156861Y63610503I0J125000D01*
G01*
G37*
G36*
G01*
X83256859Y63610503D02*
X83256859Y63860503D01*
G75*
G02*
X83381859Y63985503I125000J0D01*
G01*
X83381859Y63985503D01*
G75*
G02*
X83506859Y63860503I0J-125000D01*
G01*
X83506859Y63610503D01*
G75*
G02*
X83381859Y63485503I-125000J0D01*
G01*
X83381859Y63485503D01*
G75*
G02*
X83256859Y63610503I0J125000D01*
G01*
G37*
G36*
G01*
X84356857Y63610503D02*
X84356857Y63860503D01*
G75*
G02*
X84481857Y63985503I125000J0D01*
G01*
X84481857Y63985503D01*
G75*
G02*
X84606857Y63860503I0J-125000D01*
G01*
X84606857Y63610503D01*
G75*
G02*
X84481857Y63485503I-125000J0D01*
G01*
X84481857Y63485503D01*
G75*
G02*
X84356857Y63610503I0J125000D01*
G01*
G37*
G36*
G01*
X85456855Y63610503D02*
X85456855Y63860503D01*
G75*
G02*
X85581855Y63985503I125000J0D01*
G01*
X85581855Y63985503D01*
G75*
G02*
X85706855Y63860503I0J-125000D01*
G01*
X85706855Y63610503D01*
G75*
G02*
X85581855Y63485503I-125000J0D01*
G01*
X85581855Y63485503D01*
G75*
G02*
X85456855Y63610503I0J125000D01*
G01*
G37*
G36*
G01*
X86556853Y63610503D02*
X86556853Y63860503D01*
G75*
G02*
X86681853Y63985503I125000J0D01*
G01*
X86681853Y63985503D01*
G75*
G02*
X86806853Y63860503I0J-125000D01*
G01*
X86806853Y63610503D01*
G75*
G02*
X86681853Y63485503I-125000J0D01*
G01*
X86681853Y63485503D01*
G75*
G02*
X86556853Y63610503I0J125000D01*
G01*
G37*
G36*
G01*
X87656850Y63610503D02*
X87656850Y63860503D01*
G75*
G02*
X87781850Y63985503I125000J0D01*
G01*
X87781850Y63985503D01*
G75*
G02*
X87906850Y63860503I0J-125000D01*
G01*
X87906850Y63610503D01*
G75*
G02*
X87781850Y63485503I-125000J0D01*
G01*
X87781850Y63485503D01*
G75*
G02*
X87656850Y63610503I0J125000D01*
G01*
G37*
G36*
G01*
X88756848Y63610503D02*
X88756848Y63860503D01*
G75*
G02*
X88881848Y63985503I125000J0D01*
G01*
X88881848Y63985503D01*
G75*
G02*
X89006848Y63860503I0J-125000D01*
G01*
X89006848Y63610503D01*
G75*
G02*
X88881848Y63485503I-125000J0D01*
G01*
X88881848Y63485503D01*
G75*
G02*
X88756848Y63610503I0J125000D01*
G01*
G37*
G36*
G01*
X89856846Y63610503D02*
X89856846Y63860503D01*
G75*
G02*
X89981846Y63985503I125000J0D01*
G01*
X89981846Y63985503D01*
G75*
G02*
X90106846Y63860503I0J-125000D01*
G01*
X90106846Y63610503D01*
G75*
G02*
X89981846Y63485503I-125000J0D01*
G01*
X89981846Y63485503D01*
G75*
G02*
X89856846Y63610503I0J125000D01*
G01*
G37*
G36*
G01*
X90956844Y63610503D02*
X90956844Y63860503D01*
G75*
G02*
X91081844Y63985503I125000J0D01*
G01*
X91081844Y63985503D01*
G75*
G02*
X91206844Y63860503I0J-125000D01*
G01*
X91206844Y63610503D01*
G75*
G02*
X91081844Y63485503I-125000J0D01*
G01*
X91081844Y63485503D01*
G75*
G02*
X90956844Y63610503I0J125000D01*
G01*
G37*
G36*
G01*
X92056842Y63610503D02*
X92056842Y63860503D01*
G75*
G02*
X92181842Y63985503I125000J0D01*
G01*
X92181842Y63985503D01*
G75*
G02*
X92306842Y63860503I0J-125000D01*
G01*
X92306842Y63610503D01*
G75*
G02*
X92181842Y63485503I-125000J0D01*
G01*
X92181842Y63485503D01*
G75*
G02*
X92056842Y63610503I0J125000D01*
G01*
G37*
G36*
G01*
X93156839Y63610503D02*
X93156839Y63860503D01*
G75*
G02*
X93281839Y63985503I125000J0D01*
G01*
X93281839Y63985503D01*
G75*
G02*
X93406839Y63860503I0J-125000D01*
G01*
X93406839Y63610503D01*
G75*
G02*
X93281839Y63485503I-125000J0D01*
G01*
X93281839Y63485503D01*
G75*
G02*
X93156839Y63610503I0J125000D01*
G01*
G37*
G36*
G01*
X94256837Y63610503D02*
X94256837Y63860503D01*
G75*
G02*
X94381837Y63985503I125000J0D01*
G01*
X94381837Y63985503D01*
G75*
G02*
X94506837Y63860503I0J-125000D01*
G01*
X94506837Y63610503D01*
G75*
G02*
X94381837Y63485503I-125000J0D01*
G01*
X94381837Y63485503D01*
G75*
G02*
X94256837Y63610503I0J125000D01*
G01*
G37*
G36*
G01*
X95356835Y63610503D02*
X95356835Y63860503D01*
G75*
G02*
X95481835Y63985503I125000J0D01*
G01*
X95481835Y63985503D01*
G75*
G02*
X95606835Y63860503I0J-125000D01*
G01*
X95606835Y63610503D01*
G75*
G02*
X95481835Y63485503I-125000J0D01*
G01*
X95481835Y63485503D01*
G75*
G02*
X95356835Y63610503I0J125000D01*
G01*
G37*
G36*
G01*
X96456833Y63610503D02*
X96456833Y63860503D01*
G75*
G02*
X96581833Y63985503I125000J0D01*
G01*
X96581833Y63985503D01*
G75*
G02*
X96706833Y63860503I0J-125000D01*
G01*
X96706833Y63610503D01*
G75*
G02*
X96581833Y63485503I-125000J0D01*
G01*
X96581833Y63485503D01*
G75*
G02*
X96456833Y63610503I0J125000D01*
G01*
G37*
G36*
G01*
X97556831Y63610503D02*
X97556831Y63860503D01*
G75*
G02*
X97681831Y63985503I125000J0D01*
G01*
X97681831Y63985503D01*
G75*
G02*
X97806831Y63860503I0J-125000D01*
G01*
X97806831Y63610503D01*
G75*
G02*
X97681831Y63485503I-125000J0D01*
G01*
X97681831Y63485503D01*
G75*
G02*
X97556831Y63610503I0J125000D01*
G01*
G37*
G36*
G01*
X98656828Y63610503D02*
X98656828Y63860503D01*
G75*
G02*
X98781828Y63985503I125000J0D01*
G01*
X98781828Y63985503D01*
G75*
G02*
X98906828Y63860503I0J-125000D01*
G01*
X98906828Y63610503D01*
G75*
G02*
X98781828Y63485503I-125000J0D01*
G01*
X98781828Y63485503D01*
G75*
G02*
X98656828Y63610503I0J125000D01*
G01*
G37*
G36*
G01*
X99756826Y63610503D02*
X99756826Y63860503D01*
G75*
G02*
X99881826Y63985503I125000J0D01*
G01*
X99881826Y63985503D01*
G75*
G02*
X100006826Y63860503I0J-125000D01*
G01*
X100006826Y63610503D01*
G75*
G02*
X99881826Y63485503I-125000J0D01*
G01*
X99881826Y63485503D01*
G75*
G02*
X99756826Y63610503I0J125000D01*
G01*
G37*
G36*
G01*
X100856824Y63610503D02*
X100856824Y63860503D01*
G75*
G02*
X100981824Y63985503I125000J0D01*
G01*
X100981824Y63985503D01*
G75*
G02*
X101106824Y63860503I0J-125000D01*
G01*
X101106824Y63610503D01*
G75*
G02*
X100981824Y63485503I-125000J0D01*
G01*
X100981824Y63485503D01*
G75*
G02*
X100856824Y63610503I0J125000D01*
G01*
G37*
G36*
G01*
X101956822Y63610503D02*
X101956822Y63860503D01*
G75*
G02*
X102081822Y63985503I125000J0D01*
G01*
X102081822Y63985503D01*
G75*
G02*
X102206822Y63860503I0J-125000D01*
G01*
X102206822Y63610503D01*
G75*
G02*
X102081822Y63485503I-125000J0D01*
G01*
X102081822Y63485503D01*
G75*
G02*
X101956822Y63610503I0J125000D01*
G01*
G37*
G36*
G01*
X103056820Y63610503D02*
X103056820Y63860503D01*
G75*
G02*
X103181820Y63985503I125000J0D01*
G01*
X103181820Y63985503D01*
G75*
G02*
X103306820Y63860503I0J-125000D01*
G01*
X103306820Y63610503D01*
G75*
G02*
X103181820Y63485503I-125000J0D01*
G01*
X103181820Y63485503D01*
G75*
G02*
X103056820Y63610503I0J125000D01*
G01*
G37*
G36*
G01*
X104156817Y63610503D02*
X104156817Y63860503D01*
G75*
G02*
X104281817Y63985503I125000J0D01*
G01*
X104281817Y63985503D01*
G75*
G02*
X104406817Y63860503I0J-125000D01*
G01*
X104406817Y63610503D01*
G75*
G02*
X104281817Y63485503I-125000J0D01*
G01*
X104281817Y63485503D01*
G75*
G02*
X104156817Y63610503I0J125000D01*
G01*
G37*
G36*
G01*
X105256815Y63610503D02*
X105256815Y63860503D01*
G75*
G02*
X105381815Y63985503I125000J0D01*
G01*
X105381815Y63985503D01*
G75*
G02*
X105506815Y63860503I0J-125000D01*
G01*
X105506815Y63610503D01*
G75*
G02*
X105381815Y63485503I-125000J0D01*
G01*
X105381815Y63485503D01*
G75*
G02*
X105256815Y63610503I0J125000D01*
G01*
G37*
G36*
G01*
X106356813Y63610503D02*
X106356813Y63860503D01*
G75*
G02*
X106481813Y63985503I125000J0D01*
G01*
X106481813Y63985503D01*
G75*
G02*
X106606813Y63860503I0J-125000D01*
G01*
X106606813Y63610503D01*
G75*
G02*
X106481813Y63485503I-125000J0D01*
G01*
X106481813Y63485503D01*
G75*
G02*
X106356813Y63610503I0J125000D01*
G01*
G37*
G36*
G01*
X107456811Y63610503D02*
X107456811Y63860503D01*
G75*
G02*
X107581811Y63985503I125000J0D01*
G01*
X107581811Y63985503D01*
G75*
G02*
X107706811Y63860503I0J-125000D01*
G01*
X107706811Y63610503D01*
G75*
G02*
X107581811Y63485503I-125000J0D01*
G01*
X107581811Y63485503D01*
G75*
G02*
X107456811Y63610503I0J125000D01*
G01*
G37*
G36*
G01*
X108556809Y63610503D02*
X108556809Y63860503D01*
G75*
G02*
X108681809Y63985503I125000J0D01*
G01*
X108681809Y63985503D01*
G75*
G02*
X108806809Y63860503I0J-125000D01*
G01*
X108806809Y63610503D01*
G75*
G02*
X108681809Y63485503I-125000J0D01*
G01*
X108681809Y63485503D01*
G75*
G02*
X108556809Y63610503I0J125000D01*
G01*
G37*
G36*
G01*
X109656806Y63610503D02*
X109656806Y63860503D01*
G75*
G02*
X109781806Y63985503I125000J0D01*
G01*
X109781806Y63985503D01*
G75*
G02*
X109906806Y63860503I0J-125000D01*
G01*
X109906806Y63610503D01*
G75*
G02*
X109781806Y63485503I-125000J0D01*
G01*
X109781806Y63485503D01*
G75*
G02*
X109656806Y63610503I0J125000D01*
G01*
G37*
G36*
G01*
X110756804Y63610503D02*
X110756804Y63860503D01*
G75*
G02*
X110881804Y63985503I125000J0D01*
G01*
X110881804Y63985503D01*
G75*
G02*
X111006804Y63860503I0J-125000D01*
G01*
X111006804Y63610503D01*
G75*
G02*
X110881804Y63485503I-125000J0D01*
G01*
X110881804Y63485503D01*
G75*
G02*
X110756804Y63610503I0J125000D01*
G01*
G37*
G36*
G01*
X111856802Y63610503D02*
X111856802Y63860503D01*
G75*
G02*
X111981802Y63985503I125000J0D01*
G01*
X111981802Y63985503D01*
G75*
G02*
X112106802Y63860503I0J-125000D01*
G01*
X112106802Y63610503D01*
G75*
G02*
X111981802Y63485503I-125000J0D01*
G01*
X111981802Y63485503D01*
G75*
G02*
X111856802Y63610503I0J125000D01*
G01*
G37*
G36*
G01*
X112956800Y63610503D02*
X112956800Y63860503D01*
G75*
G02*
X113081800Y63985503I125000J0D01*
G01*
X113081800Y63985503D01*
G75*
G02*
X113206800Y63860503I0J-125000D01*
G01*
X113206800Y63610503D01*
G75*
G02*
X113081800Y63485503I-125000J0D01*
G01*
X113081800Y63485503D01*
G75*
G02*
X112956800Y63610503I0J125000D01*
G01*
G37*
G36*
G01*
X114056798Y63610503D02*
X114056798Y63860503D01*
G75*
G02*
X114181798Y63985503I125000J0D01*
G01*
X114181798Y63985503D01*
G75*
G02*
X114306798Y63860503I0J-125000D01*
G01*
X114306798Y63610503D01*
G75*
G02*
X114181798Y63485503I-125000J0D01*
G01*
X114181798Y63485503D01*
G75*
G02*
X114056798Y63610503I0J125000D01*
G01*
G37*
G36*
G01*
X115566861Y33803503D02*
X115816861Y33803503D01*
G75*
G02*
X115941861Y33678503I0J-125000D01*
G01*
X115941861Y33678503D01*
G75*
G02*
X115816861Y33553503I-125000J0D01*
G01*
X115566861Y33553503D01*
G75*
G02*
X115441861Y33678503I0J125000D01*
G01*
X115441861Y33678503D01*
G75*
G02*
X115566861Y33803503I125000J0D01*
G01*
G37*
G36*
G01*
X115566861Y33143503D02*
X115816861Y33143503D01*
G75*
G02*
X115941861Y33018503I0J-125000D01*
G01*
X115941861Y33018503D01*
G75*
G02*
X115816861Y32893503I-125000J0D01*
G01*
X115566861Y32893503D01*
G75*
G02*
X115441861Y33018503I0J125000D01*
G01*
X115441861Y33018503D01*
G75*
G02*
X115566861Y33143503I125000J0D01*
G01*
G37*
G36*
G01*
X115566861Y32483501D02*
X115816861Y32483501D01*
G75*
G02*
X115941861Y32358501I0J-125000D01*
G01*
X115941861Y32358501D01*
G75*
G02*
X115816861Y32233501I-125000J0D01*
G01*
X115566861Y32233501D01*
G75*
G02*
X115441861Y32358501I0J125000D01*
G01*
X115441861Y32358501D01*
G75*
G02*
X115566861Y32483501I125000J0D01*
G01*
G37*
G36*
G01*
X115566861Y31823500D02*
X115816861Y31823500D01*
G75*
G02*
X115941861Y31698500I0J-125000D01*
G01*
X115941861Y31698500D01*
G75*
G02*
X115816861Y31573500I-125000J0D01*
G01*
X115566861Y31573500D01*
G75*
G02*
X115441861Y31698500I0J125000D01*
G01*
X115441861Y31698500D01*
G75*
G02*
X115566861Y31823500I125000J0D01*
G01*
G37*
G36*
G01*
X115566861Y31163498D02*
X115816861Y31163498D01*
G75*
G02*
X115941861Y31038498I0J-125000D01*
G01*
X115941861Y31038498D01*
G75*
G02*
X115816861Y30913498I-125000J0D01*
G01*
X115566861Y30913498D01*
G75*
G02*
X115441861Y31038498I0J125000D01*
G01*
X115441861Y31038498D01*
G75*
G02*
X115566861Y31163498I125000J0D01*
G01*
G37*
G36*
G01*
X115566861Y30503497D02*
X115816861Y30503497D01*
G75*
G02*
X115941861Y30378497I0J-125000D01*
G01*
X115941861Y30378497D01*
G75*
G02*
X115816861Y30253497I-125000J0D01*
G01*
X115566861Y30253497D01*
G75*
G02*
X115441861Y30378497I0J125000D01*
G01*
X115441861Y30378497D01*
G75*
G02*
X115566861Y30503497I125000J0D01*
G01*
G37*
G36*
G01*
X115566861Y29843496D02*
X115816861Y29843496D01*
G75*
G02*
X115941861Y29718496I0J-125000D01*
G01*
X115941861Y29718496D01*
G75*
G02*
X115816861Y29593496I-125000J0D01*
G01*
X115566861Y29593496D01*
G75*
G02*
X115441861Y29718496I0J125000D01*
G01*
X115441861Y29718496D01*
G75*
G02*
X115566861Y29843496I125000J0D01*
G01*
G37*
G36*
G01*
X115566861Y29183495D02*
X115816861Y29183495D01*
G75*
G02*
X115941861Y29058495I0J-125000D01*
G01*
X115941861Y29058495D01*
G75*
G02*
X115816861Y28933495I-125000J0D01*
G01*
X115566861Y28933495D01*
G75*
G02*
X115441861Y29058495I0J125000D01*
G01*
X115441861Y29058495D01*
G75*
G02*
X115566861Y29183495I125000J0D01*
G01*
G37*
G36*
G01*
X115566861Y28523493D02*
X115816861Y28523493D01*
G75*
G02*
X115941861Y28398493I0J-125000D01*
G01*
X115941861Y28398493D01*
G75*
G02*
X115816861Y28273493I-125000J0D01*
G01*
X115566861Y28273493D01*
G75*
G02*
X115441861Y28398493I0J125000D01*
G01*
X115441861Y28398493D01*
G75*
G02*
X115566861Y28523493I125000J0D01*
G01*
G37*
G36*
G01*
X115566861Y27863492D02*
X115816861Y27863492D01*
G75*
G02*
X115941861Y27738492I0J-125000D01*
G01*
X115941861Y27738492D01*
G75*
G02*
X115816861Y27613492I-125000J0D01*
G01*
X115566861Y27613492D01*
G75*
G02*
X115441861Y27738492I0J125000D01*
G01*
X115441861Y27738492D01*
G75*
G02*
X115566861Y27863492I125000J0D01*
G01*
G37*
G04 #@! TD*
G04 #@! TO.C,R30*
X58310960Y126395000D03*
X58310960Y130205000D03*
G04 #@! TD*
D12*
G04 #@! TO.C,P40*
X79200000Y85000000D03*
G04 #@! TD*
G04 #@! TO.C,P48*
X61310960Y128300000D03*
G04 #@! TD*
G04 #@! TO.C,P8*
X101500000Y86400000D03*
G04 #@! TD*
D11*
G04 #@! TO.C,R31*
X50310960Y132895000D03*
X50310960Y136705000D03*
G04 #@! TD*
D24*
G04 #@! TO.C,J16*
X150110960Y142000000D03*
G04 #@! TD*
D12*
G04 #@! TO.C,P32*
X118000000Y44164880D03*
G04 #@! TD*
D24*
G04 #@! TO.C,J14*
X150000000Y18500000D03*
G04 #@! TD*
D12*
G04 #@! TO.C,P9*
X66500000Y73200000D03*
G04 #@! TD*
G04 #@! TO.C,J25*
G36*
G01*
X136439340Y90060660D02*
X136439340Y90060660D01*
G75*
G02*
X138136396Y90060660I848528J-848528D01*
G01*
X138560660Y89636396D01*
G75*
G02*
X138560660Y87939340I-848528J-848528D01*
G01*
X138560660Y87939340D01*
G75*
G02*
X136863604Y87939340I-848528J848528D01*
G01*
X136439340Y88363604D01*
G75*
G02*
X136439340Y90060660I848528J848528D01*
G01*
G37*
G36*
G01*
X138339340Y92260660D02*
X138339340Y92260660D01*
G75*
G02*
X140036396Y92260660I848528J-848528D01*
G01*
X140460660Y91836396D01*
G75*
G02*
X140460660Y90139340I-848528J-848528D01*
G01*
X140460660Y90139340D01*
G75*
G02*
X138763604Y90139340I-848528J848528D01*
G01*
X138339340Y90563604D01*
G75*
G02*
X138339340Y92260660I848528J848528D01*
G01*
G37*
G36*
G01*
X144539340Y92260660D02*
X144539340Y92260660D01*
G75*
G02*
X146236396Y92260660I848528J-848528D01*
G01*
X146660660Y91836396D01*
G75*
G02*
X146660660Y90139340I-848528J-848528D01*
G01*
X146660660Y90139340D01*
G75*
G02*
X144963604Y90139340I-848528J848528D01*
G01*
X144539340Y90563604D01*
G75*
G02*
X144539340Y92260660I848528J848528D01*
G01*
G37*
G36*
G01*
X142039340Y90060660D02*
X142039340Y90060660D01*
G75*
G02*
X143736396Y90060660I848528J-848528D01*
G01*
X144160660Y89636396D01*
G75*
G02*
X144160660Y87939340I-848528J-848528D01*
G01*
X144160660Y87939340D01*
G75*
G02*
X142463604Y87939340I-848528J848528D01*
G01*
X142039340Y88363604D01*
G75*
G02*
X142039340Y90060660I848528J848528D01*
G01*
G37*
G36*
G01*
X132739340Y92260660D02*
X132739340Y92260660D01*
G75*
G02*
X134436396Y92260660I848528J-848528D01*
G01*
X134860660Y91836396D01*
G75*
G02*
X134860660Y90139340I-848528J-848528D01*
G01*
X134860660Y90139340D01*
G75*
G02*
X133163604Y90139340I-848528J848528D01*
G01*
X132739340Y90563604D01*
G75*
G02*
X132739340Y92260660I848528J848528D01*
G01*
G37*
G04 #@! TD*
D24*
G04 #@! TO.C,J17*
X136600700Y4907060D03*
G04 #@! TD*
D12*
G04 #@! TO.C,P46*
X64810960Y128300000D03*
G04 #@! TD*
G04 #@! TO.C,P23*
X48000000Y84800000D03*
G04 #@! TD*
D10*
G04 #@! TO.C,M10*
X15001708Y135478864D03*
X16326712Y127253864D03*
X21559206Y127271369D03*
X22051712Y129153865D03*
X23176698Y121803872D03*
G04 #@! TD*
D12*
G04 #@! TO.C,G7*
X20320000Y33020000D03*
X20320000Y35560000D03*
X20320000Y38100000D03*
X20320000Y40640000D03*
X20320000Y43180000D03*
X22860000Y33020000D03*
X22860000Y35560000D03*
X22860000Y38100000D03*
X22860000Y40640000D03*
X22860000Y43180000D03*
X25400000Y33020000D03*
X25400000Y35560000D03*
X25400000Y38100000D03*
X25400000Y40640000D03*
X25400000Y43180000D03*
G04 #@! TD*
G04 #@! TO.C,P45*
X89500000Y88900000D03*
G04 #@! TD*
D24*
G04 #@! TO.C,J15*
X150000000Y77500000D03*
G04 #@! TD*
D11*
G04 #@! TO.C,R47*
X116550000Y132895000D03*
X116550000Y136705000D03*
G04 #@! TD*
G04 #@! TO.C,F1*
X21250000Y139800000D03*
X26150000Y139800000D03*
G04 #@! TD*
D12*
G04 #@! TO.C,P3*
X65210960Y41704880D03*
G04 #@! TD*
G04 #@! TO.C,G5*
X5080000Y33020000D03*
X5080000Y35560000D03*
X5080000Y38100000D03*
X5080000Y40640000D03*
X5080000Y43180000D03*
X7620000Y33020000D03*
X7620000Y35560000D03*
X7620000Y38100000D03*
X7620000Y40640000D03*
X7620000Y43180000D03*
X10160000Y33020000D03*
X10160000Y35560000D03*
X10160000Y38100000D03*
X10160000Y40640000D03*
X10160000Y43180000D03*
G04 #@! TD*
D11*
G04 #@! TO.C,R34*
X48810960Y126395000D03*
X48810960Y130205000D03*
G04 #@! TD*
G04 #@! TO.C,R35*
X44310960Y132895000D03*
X44310960Y136705000D03*
G04 #@! TD*
D12*
G04 #@! TO.C,P14*
X32700000Y84778880D03*
G04 #@! TD*
D11*
G04 #@! TO.C,R37*
X42810960Y126395000D03*
X42810960Y130205000D03*
G04 #@! TD*
D24*
G04 #@! TO.C,J11*
X17000000Y154200000D03*
G04 #@! TD*
D11*
G04 #@! TO.C,R28*
X62310960Y132895000D03*
X62310960Y136705000D03*
G04 #@! TD*
D12*
G04 #@! TO.C,P34*
X108000000Y89200000D03*
G04 #@! TD*
D11*
G04 #@! TO.C,R26*
X134410960Y126390000D03*
X134410960Y130200000D03*
G04 #@! TD*
D12*
G04 #@! TO.C,P22*
X69300000Y73200000D03*
G04 #@! TD*
D11*
G04 #@! TO.C,R25*
X132910960Y132895000D03*
X132910960Y136705000D03*
G04 #@! TD*
D12*
G04 #@! TO.C,P20*
X66500000Y76000000D03*
G04 #@! TD*
G04 #@! TO.C,P18*
X66500000Y70400000D03*
G04 #@! TD*
D11*
G04 #@! TO.C,R27*
X109410960Y124400000D03*
X109410960Y120590000D03*
G04 #@! TD*
D30*
G04 #@! TO.C,M6*
X81156996Y68524996D03*
X80550035Y75800013D03*
X81400036Y75800013D03*
X82250037Y75800013D03*
X83100038Y75800013D03*
X79938632Y77249139D03*
X83100007Y67399974D03*
X81700000Y67399974D03*
X80625008Y67399974D03*
X79225001Y67399974D03*
G04 #@! TD*
D12*
G04 #@! TO.C,P53*
X119910960Y134795000D03*
G04 #@! TD*
D13*
G04 #@! TO.C,J4*
X122922360Y14783880D03*
D14*
X122922360Y12243880D03*
X120382360Y14783880D03*
X120382360Y12243880D03*
X117842360Y14783880D03*
X117842360Y12243880D03*
X115302360Y14783880D03*
X115302360Y12243880D03*
X112762360Y14783880D03*
X112762360Y12243880D03*
X110222360Y14783880D03*
X110222360Y12243880D03*
X107682360Y14783880D03*
X107682360Y12243880D03*
X105142360Y14783880D03*
X105142360Y12243880D03*
X102602360Y14783880D03*
X102602360Y12243880D03*
X100062360Y14783880D03*
X100062360Y12243880D03*
X97522360Y14783880D03*
X97522360Y12243880D03*
X94982360Y14783880D03*
X94982360Y12243880D03*
G04 #@! TD*
D11*
G04 #@! TO.C,R39*
X39810960Y126395000D03*
X39810960Y130205000D03*
G04 #@! TD*
G04 #@! TO.C,R49*
X101910960Y132939099D03*
X101910960Y136749099D03*
G04 #@! TD*
D12*
G04 #@! TO.C,P7*
X36728160Y129300000D03*
G04 #@! TD*
G04 #@! TO.C,P41*
X105000000Y86400000D03*
G04 #@! TD*
G04 #@! TO.C,P27*
X82011360Y85007060D03*
G04 #@! TD*
D11*
G04 #@! TO.C,R20*
X54011360Y122625880D03*
X54011360Y126435880D03*
G04 #@! TD*
D12*
G04 #@! TO.C,P38*
X105000000Y89200000D03*
G04 #@! TD*
G04 #@! TO.C,P1*
X109499364Y94600000D03*
G04 #@! TD*
D11*
G04 #@! TO.C,R46*
X113700000Y132895000D03*
X113700000Y136705000D03*
G04 #@! TD*
D12*
G04 #@! TO.C,P49*
X53310960Y134800000D03*
G04 #@! TD*
G04 #@! TO.C,P31*
X118000000Y47000000D03*
G04 #@! TD*
D10*
G04 #@! TO.C,M2*
X120234471Y29141749D03*
X118399461Y29566757D03*
X120449469Y30116754D03*
X120234474Y30991713D03*
X120159467Y31841736D03*
X118399461Y32166752D03*
X119709461Y33466719D03*
X118399461Y34116736D03*
X124324476Y26941733D03*
X120249470Y27241735D03*
G04 #@! TD*
D11*
G04 #@! TO.C,R12*
X127410960Y126390000D03*
X127410960Y130200000D03*
G04 #@! TD*
D12*
G04 #@! TO.C,P43*
X86500000Y88900000D03*
G04 #@! TD*
D11*
G04 #@! TO.C,R18*
X122210000Y125400000D03*
X118400000Y125400000D03*
G04 #@! TD*
D10*
G04 #@! TO.C,M11*
X15023441Y90487499D03*
X15023441Y104687498D03*
X15023441Y78224231D03*
X15023441Y115587497D03*
X18823453Y79612504D03*
G04 #@! TD*
D12*
G04 #@! TO.C,P51*
X45810960Y128300000D03*
G04 #@! TD*
G04 #@! TO.C,P37*
X111000000Y89200000D03*
G04 #@! TD*
G04 #@! TO.C,J2*
G36*
G01*
X128375000Y113750000D02*
X129725000Y113750000D01*
G75*
G02*
X129975000Y113500000I0J-250000D01*
G01*
X129975000Y112300000D01*
G75*
G02*
X129725000Y112050000I-250000J0D01*
G01*
X128375000Y112050000D01*
G75*
G02*
X128125000Y112300000I0J250000D01*
G01*
X128125000Y113500000D01*
G75*
G02*
X128375000Y113750000I250000J0D01*
G01*
G37*
D31*
X129050000Y110400000D03*
X129050000Y107900000D03*
X129050000Y105400000D03*
X129050000Y102900000D03*
G04 #@! TD*
D32*
G04 #@! TO.C,J24*
X7900000Y126800000D03*
G04 #@! TD*
M02*
