G04 #@! TF.GenerationSoftware,KiCad,Pcbnew,(5.99.0-10483-ga6ad7a4a70)*
G04 #@! TF.CreationDate,2021-05-06T14:06:47+03:00*
G04 #@! TF.ProjectId,hellen64_miataNA6_94,68656c6c-656e-4363-945f-6d696174614e,b*
G04 #@! TF.SameCoordinates,PX1406f40PYa852d20*
G04 #@! TF.FileFunction,AssemblyDrawing,Top*
%FSLAX46Y46*%
G04 Gerber Fmt 4.6, Leading zero omitted, Abs format (unit mm)*
G04 Created by KiCad (PCBNEW (5.99.0-10483-ga6ad7a4a70)) date 2021-05-06 14:06:47*
%MOMM*%
%LPD*%
G01*
G04 APERTURE LIST*
%ADD10C,0.150000*%
%ADD11C,0.090000*%
%ADD12C,0.100000*%
%ADD13C,0.120000*%
G04 APERTURE END LIST*
D10*
G04 #@! TO.C,J27*
X96790476Y103347620D02*
X96790476Y102633334D01*
X96742857Y102490477D01*
X96647619Y102395239D01*
X96504761Y102347620D01*
X96409523Y102347620D01*
X97219047Y103252381D02*
X97266666Y103300000D01*
X97361904Y103347620D01*
X97600000Y103347620D01*
X97695238Y103300000D01*
X97742857Y103252381D01*
X97790476Y103157143D01*
X97790476Y103061905D01*
X97742857Y102919048D01*
X97171428Y102347620D01*
X97790476Y102347620D01*
X98123809Y103347620D02*
X98790476Y103347620D01*
X98361904Y102347620D01*
G04 #@! TO.C,J19*
X62990476Y8947620D02*
X62990476Y8233334D01*
X62942857Y8090477D01*
X62847619Y7995239D01*
X62704761Y7947620D01*
X62609523Y7947620D01*
X63990476Y7947620D02*
X63419047Y7947620D01*
X63704761Y7947620D02*
X63704761Y8947620D01*
X63609523Y8804762D01*
X63514285Y8709524D01*
X63419047Y8661905D01*
X64466666Y7947620D02*
X64657142Y7947620D01*
X64752380Y7995239D01*
X64800000Y8042858D01*
X64895238Y8185715D01*
X64942857Y8376191D01*
X64942857Y8757143D01*
X64895238Y8852381D01*
X64847619Y8900000D01*
X64752380Y8947620D01*
X64561904Y8947620D01*
X64466666Y8900000D01*
X64419047Y8852381D01*
X64371428Y8757143D01*
X64371428Y8519048D01*
X64419047Y8423810D01*
X64466666Y8376191D01*
X64561904Y8328572D01*
X64752380Y8328572D01*
X64847619Y8376191D01*
X64895238Y8423810D01*
X64942857Y8519048D01*
G04 #@! TO.C,J10*
X46902836Y83791500D02*
X46902836Y83077214D01*
X46855217Y82934357D01*
X46759979Y82839119D01*
X46617121Y82791500D01*
X46521883Y82791500D01*
X47902836Y82791500D02*
X47331407Y82791500D01*
X47617121Y82791500D02*
X47617121Y83791500D01*
X47521883Y83648642D01*
X47426645Y83553404D01*
X47331407Y83505785D01*
X48521883Y83791500D02*
X48617121Y83791500D01*
X48712360Y83743880D01*
X48759979Y83696261D01*
X48807598Y83601023D01*
X48855217Y83410547D01*
X48855217Y83172452D01*
X48807598Y82981976D01*
X48759979Y82886738D01*
X48712360Y82839119D01*
X48617121Y82791500D01*
X48521883Y82791500D01*
X48426645Y82839119D01*
X48379026Y82886738D01*
X48331407Y82981976D01*
X48283788Y83172452D01*
X48283788Y83410547D01*
X48331407Y83601023D01*
X48379026Y83696261D01*
X48426645Y83743880D01*
X48521883Y83791500D01*
G04 #@! TO.C,J23*
X90590476Y127647620D02*
X90590476Y126933334D01*
X90542857Y126790477D01*
X90447619Y126695239D01*
X90304761Y126647620D01*
X90209523Y126647620D01*
X91019047Y127552381D02*
X91066666Y127600000D01*
X91161904Y127647620D01*
X91400000Y127647620D01*
X91495238Y127600000D01*
X91542857Y127552381D01*
X91590476Y127457143D01*
X91590476Y127361905D01*
X91542857Y127219048D01*
X90971428Y126647620D01*
X91590476Y126647620D01*
X91923809Y127647620D02*
X92542857Y127647620D01*
X92209523Y127266667D01*
X92352380Y127266667D01*
X92447619Y127219048D01*
X92495238Y127171429D01*
X92542857Y127076191D01*
X92542857Y126838096D01*
X92495238Y126742858D01*
X92447619Y126695239D01*
X92352380Y126647620D01*
X92066666Y126647620D01*
X91971428Y126695239D01*
X91923809Y126742858D01*
G04 #@! TO.C,J18*
X3490476Y142547620D02*
X3490476Y141833334D01*
X3442857Y141690477D01*
X3347619Y141595239D01*
X3204761Y141547620D01*
X3109523Y141547620D01*
X4490476Y141547620D02*
X3919047Y141547620D01*
X4204761Y141547620D02*
X4204761Y142547620D01*
X4109523Y142404762D01*
X4014285Y142309524D01*
X3919047Y142261905D01*
X5061904Y142119048D02*
X4966666Y142166667D01*
X4919047Y142214286D01*
X4871428Y142309524D01*
X4871428Y142357143D01*
X4919047Y142452381D01*
X4966666Y142500000D01*
X5061904Y142547620D01*
X5252380Y142547620D01*
X5347619Y142500000D01*
X5395238Y142452381D01*
X5442857Y142357143D01*
X5442857Y142309524D01*
X5395238Y142214286D01*
X5347619Y142166667D01*
X5252380Y142119048D01*
X5061904Y142119048D01*
X4966666Y142071429D01*
X4919047Y142023810D01*
X4871428Y141928572D01*
X4871428Y141738096D01*
X4919047Y141642858D01*
X4966666Y141595239D01*
X5061904Y141547620D01*
X5252380Y141547620D01*
X5347619Y141595239D01*
X5395238Y141642858D01*
X5442857Y141738096D01*
X5442857Y141928572D01*
X5395238Y142023810D01*
X5347619Y142071429D01*
X5252380Y142119048D01*
G04 #@! TO.C,J20*
X62990476Y11947620D02*
X62990476Y11233334D01*
X62942857Y11090477D01*
X62847619Y10995239D01*
X62704761Y10947620D01*
X62609523Y10947620D01*
X63419047Y11852381D02*
X63466666Y11900000D01*
X63561904Y11947620D01*
X63800000Y11947620D01*
X63895238Y11900000D01*
X63942857Y11852381D01*
X63990476Y11757143D01*
X63990476Y11661905D01*
X63942857Y11519048D01*
X63371428Y10947620D01*
X63990476Y10947620D01*
X64609523Y11947620D02*
X64704761Y11947620D01*
X64800000Y11900000D01*
X64847619Y11852381D01*
X64895238Y11757143D01*
X64942857Y11566667D01*
X64942857Y11328572D01*
X64895238Y11138096D01*
X64847619Y11042858D01*
X64800000Y10995239D01*
X64704761Y10947620D01*
X64609523Y10947620D01*
X64514285Y10995239D01*
X64466666Y11042858D01*
X64419047Y11138096D01*
X64371428Y11328572D01*
X64371428Y11566667D01*
X64419047Y11757143D01*
X64466666Y11852381D01*
X64514285Y11900000D01*
X64609523Y11947620D01*
G04 #@! TO.C,J1*
X85652380Y109066667D02*
X86366666Y109066667D01*
X86509523Y109019048D01*
X86604761Y108923810D01*
X86652380Y108780953D01*
X86652380Y108685715D01*
X86652380Y110066667D02*
X86652380Y109495239D01*
X86652380Y109780953D02*
X85652380Y109780953D01*
X85795238Y109685715D01*
X85890476Y109590477D01*
X85938095Y109495239D01*
G04 #@! TO.C,J9*
X67211740Y71681547D02*
X67926026Y71681547D01*
X68068883Y71633928D01*
X68164121Y71538690D01*
X68211740Y71395833D01*
X68211740Y71300595D01*
X68211740Y72205357D02*
X68211740Y72395833D01*
X68164121Y72491071D01*
X68116502Y72538690D01*
X67973645Y72633928D01*
X67783169Y72681547D01*
X67402217Y72681547D01*
X67306979Y72633928D01*
X67259360Y72586309D01*
X67211740Y72491071D01*
X67211740Y72300595D01*
X67259360Y72205357D01*
X67306979Y72157738D01*
X67402217Y72110119D01*
X67640312Y72110119D01*
X67735550Y72157738D01*
X67783169Y72205357D01*
X67830788Y72300595D01*
X67830788Y72491071D01*
X67783169Y72586309D01*
X67735550Y72633928D01*
X67640312Y72681547D01*
G04 #@! TO.C,J7*
X31414026Y84056500D02*
X31414026Y83342214D01*
X31366407Y83199357D01*
X31271169Y83104119D01*
X31128312Y83056500D01*
X31033074Y83056500D01*
X31794979Y84056500D02*
X32461645Y84056500D01*
X32033074Y83056500D01*
G04 #@! TO.C,J8*
X88718026Y89018500D02*
X88718026Y88304214D01*
X88670407Y88161357D01*
X88575169Y88066119D01*
X88432312Y88018500D01*
X88337074Y88018500D01*
X89337074Y88589928D02*
X89241836Y88637547D01*
X89194217Y88685166D01*
X89146598Y88780404D01*
X89146598Y88828023D01*
X89194217Y88923261D01*
X89241836Y88970880D01*
X89337074Y89018500D01*
X89527550Y89018500D01*
X89622788Y88970880D01*
X89670407Y88923261D01*
X89718026Y88828023D01*
X89718026Y88780404D01*
X89670407Y88685166D01*
X89622788Y88637547D01*
X89527550Y88589928D01*
X89337074Y88589928D01*
X89241836Y88542309D01*
X89194217Y88494690D01*
X89146598Y88399452D01*
X89146598Y88208976D01*
X89194217Y88113738D01*
X89241836Y88066119D01*
X89337074Y88018500D01*
X89527550Y88018500D01*
X89622788Y88066119D01*
X89670407Y88113738D01*
X89718026Y88208976D01*
X89718026Y88399452D01*
X89670407Y88494690D01*
X89622788Y88542309D01*
X89527550Y88589928D01*
G04 #@! TO.C,J6*
X106668026Y89018500D02*
X106668026Y88304214D01*
X106620407Y88161357D01*
X106525169Y88066119D01*
X106382312Y88018500D01*
X106287074Y88018500D01*
X107572788Y89018500D02*
X107382312Y89018500D01*
X107287074Y88970880D01*
X107239455Y88923261D01*
X107144217Y88780404D01*
X107096598Y88589928D01*
X107096598Y88208976D01*
X107144217Y88113738D01*
X107191836Y88066119D01*
X107287074Y88018500D01*
X107477550Y88018500D01*
X107572788Y88066119D01*
X107620407Y88113738D01*
X107668026Y88208976D01*
X107668026Y88447071D01*
X107620407Y88542309D01*
X107572788Y88589928D01*
X107477550Y88637547D01*
X107287074Y88637547D01*
X107191836Y88589928D01*
X107144217Y88542309D01*
X107096598Y88447071D01*
G04 #@! TO.C,J3*
X82696026Y7752500D02*
X82696026Y7038214D01*
X82648407Y6895357D01*
X82553169Y6800119D01*
X82410312Y6752500D01*
X82315074Y6752500D01*
X83076979Y7752500D02*
X83696026Y7752500D01*
X83362693Y7371547D01*
X83505550Y7371547D01*
X83600788Y7323928D01*
X83648407Y7276309D01*
X83696026Y7181071D01*
X83696026Y6942976D01*
X83648407Y6847738D01*
X83600788Y6800119D01*
X83505550Y6752500D01*
X83219836Y6752500D01*
X83124598Y6800119D01*
X83076979Y6847738D01*
G04 #@! TO.C,J5*
X121156026Y45982500D02*
X121156026Y45268214D01*
X121108407Y45125357D01*
X121013169Y45030119D01*
X120870312Y44982500D01*
X120775074Y44982500D01*
X122108407Y45982500D02*
X121632217Y45982500D01*
X121584598Y45506309D01*
X121632217Y45553928D01*
X121727455Y45601547D01*
X121965550Y45601547D01*
X122060788Y45553928D01*
X122108407Y45506309D01*
X122156026Y45411071D01*
X122156026Y45172976D01*
X122108407Y45077738D01*
X122060788Y45030119D01*
X121965550Y44982500D01*
X121727455Y44982500D01*
X121632217Y45030119D01*
X121584598Y45077738D01*
G04 #@! TO.C,J13*
X3490476Y19047620D02*
X3490476Y18333334D01*
X3442857Y18190477D01*
X3347619Y18095239D01*
X3204761Y18047620D01*
X3109523Y18047620D01*
X4490476Y18047620D02*
X3919047Y18047620D01*
X4204761Y18047620D02*
X4204761Y19047620D01*
X4109523Y18904762D01*
X4014285Y18809524D01*
X3919047Y18761905D01*
X4823809Y19047620D02*
X5442857Y19047620D01*
X5109523Y18666667D01*
X5252380Y18666667D01*
X5347619Y18619048D01*
X5395238Y18571429D01*
X5442857Y18476191D01*
X5442857Y18238096D01*
X5395238Y18142858D01*
X5347619Y18095239D01*
X5252380Y18047620D01*
X4966666Y18047620D01*
X4871428Y18095239D01*
X4823809Y18142858D01*
G04 #@! TO.C,J12*
X3490476Y78047620D02*
X3490476Y77333334D01*
X3442857Y77190477D01*
X3347619Y77095239D01*
X3204761Y77047620D01*
X3109523Y77047620D01*
X4490476Y77047620D02*
X3919047Y77047620D01*
X4204761Y77047620D02*
X4204761Y78047620D01*
X4109523Y77904762D01*
X4014285Y77809524D01*
X3919047Y77761905D01*
X4871428Y77952381D02*
X4919047Y78000000D01*
X5014285Y78047620D01*
X5252380Y78047620D01*
X5347619Y78000000D01*
X5395238Y77952381D01*
X5442857Y77857143D01*
X5442857Y77761905D01*
X5395238Y77619048D01*
X4823809Y77047620D01*
X5442857Y77047620D01*
G04 #@! TO.C,J22*
X62990476Y17947620D02*
X62990476Y17233334D01*
X62942857Y17090477D01*
X62847619Y16995239D01*
X62704761Y16947620D01*
X62609523Y16947620D01*
X63419047Y17852381D02*
X63466666Y17900000D01*
X63561904Y17947620D01*
X63800000Y17947620D01*
X63895238Y17900000D01*
X63942857Y17852381D01*
X63990476Y17757143D01*
X63990476Y17661905D01*
X63942857Y17519048D01*
X63371428Y16947620D01*
X63990476Y16947620D01*
X64371428Y17852381D02*
X64419047Y17900000D01*
X64514285Y17947620D01*
X64752380Y17947620D01*
X64847619Y17900000D01*
X64895238Y17852381D01*
X64942857Y17757143D01*
X64942857Y17661905D01*
X64895238Y17519048D01*
X64323809Y16947620D01*
X64942857Y16947620D01*
G04 #@! TO.C,J26*
X145955476Y67047620D02*
X145955476Y66333334D01*
X145907857Y66190477D01*
X145812619Y66095239D01*
X145669761Y66047620D01*
X145574523Y66047620D01*
X146384047Y66952381D02*
X146431666Y67000000D01*
X146526904Y67047620D01*
X146765000Y67047620D01*
X146860238Y67000000D01*
X146907857Y66952381D01*
X146955476Y66857143D01*
X146955476Y66761905D01*
X146907857Y66619048D01*
X146336428Y66047620D01*
X146955476Y66047620D01*
X147812619Y67047620D02*
X147622142Y67047620D01*
X147526904Y67000000D01*
X147479285Y66952381D01*
X147384047Y66809524D01*
X147336428Y66619048D01*
X147336428Y66238096D01*
X147384047Y66142858D01*
X147431666Y66095239D01*
X147526904Y66047620D01*
X147717380Y66047620D01*
X147812619Y66095239D01*
X147860238Y66142858D01*
X147907857Y66238096D01*
X147907857Y66476191D01*
X147860238Y66571429D01*
X147812619Y66619048D01*
X147717380Y66666667D01*
X147526904Y66666667D01*
X147431666Y66619048D01*
X147384047Y66571429D01*
X147336428Y66476191D01*
G04 #@! TO.C,BT1*
X29114285Y17571429D02*
X29257142Y17523810D01*
X29304761Y17476191D01*
X29352380Y17380953D01*
X29352380Y17238096D01*
X29304761Y17142858D01*
X29257142Y17095239D01*
X29161904Y17047620D01*
X28780952Y17047620D01*
X28780952Y18047620D01*
X29114285Y18047620D01*
X29209523Y18000000D01*
X29257142Y17952381D01*
X29304761Y17857143D01*
X29304761Y17761905D01*
X29257142Y17666667D01*
X29209523Y17619048D01*
X29114285Y17571429D01*
X28780952Y17571429D01*
X29638095Y18047620D02*
X30209523Y18047620D01*
X29923809Y17047620D02*
X29923809Y18047620D01*
X31066666Y17047620D02*
X30495238Y17047620D01*
X30780952Y17047620D02*
X30780952Y18047620D01*
X30685714Y17904762D01*
X30590476Y17809524D01*
X30495238Y17761905D01*
G04 #@! TO.C,J25*
X133990476Y69747620D02*
X133990476Y69033334D01*
X133942857Y68890477D01*
X133847619Y68795239D01*
X133704761Y68747620D01*
X133609523Y68747620D01*
X134419047Y69652381D02*
X134466666Y69700000D01*
X134561904Y69747620D01*
X134800000Y69747620D01*
X134895238Y69700000D01*
X134942857Y69652381D01*
X134990476Y69557143D01*
X134990476Y69461905D01*
X134942857Y69319048D01*
X134371428Y68747620D01*
X134990476Y68747620D01*
X135895238Y69747620D02*
X135419047Y69747620D01*
X135371428Y69271429D01*
X135419047Y69319048D01*
X135514285Y69366667D01*
X135752380Y69366667D01*
X135847619Y69319048D01*
X135895238Y69271429D01*
X135942857Y69176191D01*
X135942857Y68938096D01*
X135895238Y68842858D01*
X135847619Y68795239D01*
X135752380Y68747620D01*
X135514285Y68747620D01*
X135419047Y68795239D01*
X135371428Y68842858D01*
G04 #@! TO.C,J17*
X136091176Y5454680D02*
X136091176Y4740394D01*
X136043557Y4597537D01*
X135948319Y4502299D01*
X135805461Y4454680D01*
X135710223Y4454680D01*
X137091176Y4454680D02*
X136519747Y4454680D01*
X136805461Y4454680D02*
X136805461Y5454680D01*
X136710223Y5311822D01*
X136614985Y5216584D01*
X136519747Y5168965D01*
X137424509Y5454680D02*
X138091176Y5454680D01*
X137662604Y4454680D01*
G04 #@! TO.C,U3*
X125963333Y87053334D02*
X126756666Y87053334D01*
X126850000Y87100000D01*
X126896666Y87146667D01*
X126943333Y87240000D01*
X126943333Y87426667D01*
X126896666Y87520000D01*
X126850000Y87566667D01*
X126756666Y87613334D01*
X125963333Y87613334D01*
X125963333Y87986667D02*
X125963333Y88593334D01*
X126336666Y88266667D01*
X126336666Y88406667D01*
X126383333Y88500000D01*
X126430000Y88546667D01*
X126523333Y88593334D01*
X126756666Y88593334D01*
X126850000Y88546667D01*
X126896666Y88500000D01*
X126943333Y88406667D01*
X126943333Y88126667D01*
X126896666Y88033334D01*
X126850000Y87986667D01*
D11*
G04 #@! TO.C,U4*
X135127619Y17464524D02*
X135127619Y16962620D01*
X135157142Y16903572D01*
X135186666Y16874048D01*
X135245714Y16844524D01*
X135363809Y16844524D01*
X135422857Y16874048D01*
X135452380Y16903572D01*
X135481904Y16962620D01*
X135481904Y17464524D01*
X136042857Y17257858D02*
X136042857Y16844524D01*
X135895238Y17494048D02*
X135747619Y17051191D01*
X136131428Y17051191D01*
D10*
G04 #@! TO.C,J11*
X16490476Y154747620D02*
X16490476Y154033334D01*
X16442857Y153890477D01*
X16347619Y153795239D01*
X16204761Y153747620D01*
X16109523Y153747620D01*
X17490476Y153747620D02*
X16919047Y153747620D01*
X17204761Y153747620D02*
X17204761Y154747620D01*
X17109523Y154604762D01*
X17014285Y154509524D01*
X16919047Y154461905D01*
X18442857Y153747620D02*
X17871428Y153747620D01*
X18157142Y153747620D02*
X18157142Y154747620D01*
X18061904Y154604762D01*
X17966666Y154509524D01*
X17871428Y154461905D01*
G04 #@! TO.C,J4*
X108619026Y14061500D02*
X108619026Y13347214D01*
X108571407Y13204357D01*
X108476169Y13109119D01*
X108333312Y13061500D01*
X108238074Y13061500D01*
X109523788Y13728166D02*
X109523788Y13061500D01*
X109285693Y14109119D02*
X109047598Y13394833D01*
X109666645Y13394833D01*
G04 #@! TO.C,J21*
X62990476Y14947620D02*
X62990476Y14233334D01*
X62942857Y14090477D01*
X62847619Y13995239D01*
X62704761Y13947620D01*
X62609523Y13947620D01*
X63419047Y14852381D02*
X63466666Y14900000D01*
X63561904Y14947620D01*
X63800000Y14947620D01*
X63895238Y14900000D01*
X63942857Y14852381D01*
X63990476Y14757143D01*
X63990476Y14661905D01*
X63942857Y14519048D01*
X63371428Y13947620D01*
X63990476Y13947620D01*
X64942857Y13947620D02*
X64371428Y13947620D01*
X64657142Y13947620D02*
X64657142Y14947620D01*
X64561904Y14804762D01*
X64466666Y14709524D01*
X64371428Y14661905D01*
G04 #@! TO.C,J2*
X90867366Y121654680D02*
X90867366Y120940394D01*
X90819747Y120797537D01*
X90724509Y120702299D01*
X90581652Y120654680D01*
X90486414Y120654680D01*
X91295938Y121559441D02*
X91343557Y121607060D01*
X91438795Y121654680D01*
X91676890Y121654680D01*
X91772128Y121607060D01*
X91819747Y121559441D01*
X91867366Y121464203D01*
X91867366Y121368965D01*
X91819747Y121226108D01*
X91248319Y120654680D01*
X91867366Y120654680D01*
D12*
G04 #@! TO.C,P5*
X61130700Y42339880D02*
X61765700Y42974880D01*
X61765700Y42974880D02*
X63670700Y42974880D01*
X63670700Y40434880D02*
X61130700Y40434880D01*
X61130700Y40434880D02*
X61130700Y42339880D01*
X63670700Y42974880D02*
X63670700Y40434880D01*
G04 #@! TO.C,P6*
X61130700Y49842060D02*
X61765700Y50477060D01*
X63670700Y47937060D02*
X61130700Y47937060D01*
X63670700Y50477060D02*
X63670700Y47937060D01*
X61130700Y47937060D02*
X61130700Y49842060D01*
X61765700Y50477060D02*
X63670700Y50477060D01*
G04 #@! TO.C,P47*
X58675960Y136070000D02*
X60580960Y136070000D01*
X58040960Y135435000D02*
X58675960Y136070000D01*
X60580960Y136070000D02*
X60580960Y133530000D01*
X60580960Y133530000D02*
X58040960Y133530000D01*
X58040960Y133530000D02*
X58040960Y135435000D01*
G04 #@! TO.C,J27*
X105220000Y101530000D02*
X89980000Y101530000D01*
X89980000Y101530000D02*
X89980000Y104070000D01*
X105220000Y103435000D02*
X105220000Y101530000D01*
X104585000Y104070000D02*
X105220000Y103435000D01*
X89980000Y104070000D02*
X104585000Y104070000D01*
G04 #@! TO.C,J10*
X43902360Y85783880D02*
X50252360Y85783880D01*
X50252360Y85783880D02*
X51522360Y84513880D01*
X51522360Y80703880D02*
X43902360Y80703880D01*
X43902360Y80703880D02*
X43902360Y85783880D01*
X51522360Y84513880D02*
X51522360Y80703880D01*
G04 #@! TO.C,J23*
X84350000Y124250000D02*
X84350000Y137250000D01*
X84350000Y137250000D02*
X97600000Y137250000D01*
X97600000Y137250000D02*
X98350000Y136500000D01*
X98350000Y136500000D02*
X98350000Y124250000D01*
X98350000Y124250000D02*
X84350000Y124250000D01*
G04 #@! TO.C,P56*
X103240960Y135430000D02*
X103875960Y136065000D01*
X103240960Y133525000D02*
X103240960Y135430000D01*
X103875960Y136065000D02*
X105780960Y136065000D01*
X105780960Y136065000D02*
X105780960Y133525000D01*
X105780960Y133525000D02*
X103240960Y133525000D01*
G04 #@! TO.C,P52*
X130680960Y136065000D02*
X130680960Y133525000D01*
X128775960Y136065000D02*
X130680960Y136065000D01*
X128140960Y133525000D02*
X128140960Y135430000D01*
X130680960Y133525000D02*
X128140960Y133525000D01*
X128140960Y135430000D02*
X128775960Y136065000D01*
G04 #@! TO.C,P26*
X80470700Y83470880D02*
X80470700Y81565880D01*
X79835700Y80930880D02*
X77930700Y80930880D01*
X77930700Y83470880D02*
X80470700Y83470880D01*
X77930700Y80930880D02*
X77930700Y83470880D01*
X80470700Y81565880D02*
X79835700Y80930880D01*
D10*
G04 #@! TO.C,J1*
X84600000Y113100000D02*
X88100000Y113100000D01*
X88100000Y108600000D02*
X88100000Y113100000D01*
X84600000Y113100000D02*
X84600000Y105900000D01*
X88100000Y105900000D02*
X84600000Y105900000D01*
X88100000Y107200000D02*
X87400000Y107900000D01*
X87400000Y107900000D02*
X88100000Y108600000D01*
X88100000Y105900000D02*
X88100000Y107200000D01*
D12*
G04 #@! TO.C,J9*
X70299360Y68204880D02*
X69029360Y66934880D01*
X70299360Y77094880D02*
X70299360Y68204880D01*
X69029360Y66934880D02*
X65219360Y66934880D01*
X65219360Y66934880D02*
X65219360Y77094880D01*
X65219360Y77094880D02*
X70299360Y77094880D01*
G04 #@! TO.C,J7*
X29207360Y86048880D02*
X34287360Y86048880D01*
X29207360Y82238880D02*
X29207360Y86048880D01*
X34287360Y86048880D02*
X34287360Y80968880D01*
X34287360Y80968880D02*
X30477360Y80968880D01*
X30477360Y80968880D02*
X29207360Y82238880D01*
G04 #@! TO.C,P4*
X64575960Y50474880D02*
X66480960Y50474880D01*
X66480960Y50474880D02*
X66480960Y47934880D01*
X63940960Y47934880D02*
X63940960Y49839880D01*
X66480960Y47934880D02*
X63940960Y47934880D01*
X63940960Y49839880D02*
X64575960Y50474880D01*
G04 #@! TO.C,J8*
X86511360Y85930880D02*
X85241360Y87200880D01*
X85241360Y91010880D02*
X92861360Y91010880D01*
X85241360Y87200880D02*
X85241360Y91010880D01*
X92861360Y91010880D02*
X92861360Y85930880D01*
X92861360Y85930880D02*
X86511360Y85930880D01*
G04 #@! TO.C,J6*
X101921360Y91010880D02*
X110811360Y91010880D01*
X110811360Y91010880D02*
X112081360Y89740880D01*
X112081360Y89740880D02*
X112081360Y85930880D01*
X101921360Y85930880D02*
X101921360Y91010880D01*
X112081360Y85930880D02*
X101921360Y85930880D01*
G04 #@! TO.C,P55*
X106440560Y133524120D02*
X106440560Y135429120D01*
X106440560Y135429120D02*
X107075560Y136064120D01*
X108980560Y133524120D02*
X106440560Y133524120D01*
X108980560Y136064120D02*
X108980560Y133524120D01*
X107075560Y136064120D02*
X108980560Y136064120D01*
G04 #@! TO.C,J3*
X75409360Y6569880D02*
X75409360Y8474880D01*
X90649360Y5934880D02*
X76044360Y5934880D01*
X75409360Y8474880D02*
X90649360Y8474880D01*
X76044360Y5934880D02*
X75409360Y6569880D01*
X90649360Y8474880D02*
X90649360Y5934880D01*
G04 #@! TO.C,J5*
X124029360Y47974880D02*
X125299360Y46704880D01*
X125299360Y46704880D02*
X125299360Y42894880D01*
X125299360Y42894880D02*
X117679360Y42894880D01*
X117679360Y47974880D02*
X124029360Y47974880D01*
X117679360Y42894880D02*
X117679360Y47974880D01*
G04 #@! TO.C,P50*
X53425960Y131070880D02*
X55330960Y131070880D01*
X55330960Y131070880D02*
X55330960Y128530880D01*
X52790960Y128530880D02*
X52790960Y130435880D01*
X52790960Y130435880D02*
X53425960Y131070880D01*
X55330960Y128530880D02*
X52790960Y128530880D01*
G04 #@! TO.C,P28*
X80741360Y80930880D02*
X80741360Y83470880D01*
X83281360Y83470880D02*
X83281360Y81565880D01*
X80741360Y83470880D02*
X83281360Y83470880D01*
X83281360Y81565880D02*
X82646360Y80930880D01*
X82646360Y80930880D02*
X80741360Y80930880D01*
G04 #@! TO.C,P54*
X109640960Y133525000D02*
X109640960Y135430000D01*
X110275960Y136065000D02*
X112180960Y136065000D01*
X112180960Y133525000D02*
X109640960Y133525000D01*
X112180960Y136065000D02*
X112180960Y133525000D01*
X109640960Y135430000D02*
X110275960Y136065000D01*
G04 #@! TO.C,J26*
X153795000Y64200000D02*
X151795000Y64200000D01*
X139995000Y69400000D02*
X151795000Y69400000D01*
X151795000Y63600000D02*
X139995000Y63600000D01*
X151795000Y64200000D02*
X151795000Y63600000D01*
X151795000Y69400000D02*
X151795000Y68800000D01*
X153795000Y68800000D02*
X153795000Y64200000D01*
X139995000Y63600000D02*
X139995000Y69400000D01*
X151795000Y68800000D02*
X153795000Y68800000D01*
D13*
X141924951Y64150000D02*
G75*
G03*
X141924951Y64150000I-254951J0D01*
G01*
D12*
G04 #@! TO.C,P48*
X60040960Y128935000D02*
X60675960Y129570000D01*
X62580960Y129570000D02*
X62580960Y127030000D01*
X60675960Y129570000D02*
X62580960Y129570000D01*
X60040960Y127030000D02*
X60040960Y128935000D01*
X62580960Y127030000D02*
X60040960Y127030000D01*
G04 #@! TO.C,U1*
X62900000Y35400000D02*
X64900000Y35400000D01*
X64900000Y33900000D02*
X64400000Y33400000D01*
X64400000Y33400000D02*
X62900000Y33400000D01*
X62900000Y33400000D02*
X62900000Y35400000D01*
X64900000Y35400000D02*
X64900000Y33900000D01*
G04 #@! TO.C,BT1*
X44100000Y14000000D02*
X40900000Y14000000D01*
X18900000Y25500000D02*
X39300000Y25500000D01*
X18900000Y21000000D02*
X15700000Y21000000D01*
X18900000Y9500000D02*
X18900000Y14000000D01*
X18900000Y25500000D02*
X18900000Y21000000D01*
X40900000Y9500000D02*
X40900000Y14000000D01*
X40900000Y23900000D02*
X40900000Y21000000D01*
X15700000Y21000000D02*
X15700000Y14000000D01*
X40900000Y21000000D02*
X44100000Y21000000D01*
X44100000Y21000000D02*
X44100000Y14000000D01*
X18900000Y9500000D02*
X40900000Y9500000D01*
X15700000Y14000000D02*
X18900000Y14000000D01*
X39300000Y25500000D02*
X40900000Y23900000D01*
G04 #@! TO.C,J25*
X130600000Y78000000D02*
X132500000Y78000000D01*
X138800000Y64000000D02*
X130600000Y64000000D01*
X138500000Y78000000D02*
X138800000Y78000000D01*
X132500000Y82000000D02*
X138500000Y82000000D01*
X138500000Y82000000D02*
X138500000Y78000000D01*
X138800000Y78000000D02*
X138800000Y64000000D01*
X130600000Y64000000D02*
X130600000Y78000000D01*
X132500000Y78000000D02*
X132500000Y82000000D01*
G04 #@! TO.C,P46*
X66080960Y127030000D02*
X63540960Y127030000D01*
X64175960Y129570000D02*
X66080960Y129570000D01*
X66080960Y129570000D02*
X66080960Y127030000D01*
X63540960Y127030000D02*
X63540960Y128935000D01*
X63540960Y128935000D02*
X64175960Y129570000D01*
G04 #@! TO.C,U3*
X127975000Y89750000D02*
X128950000Y88775000D01*
X128950000Y88775000D02*
X128950000Y85850000D01*
X124050000Y89750000D02*
X127975000Y89750000D01*
X128950000Y85850000D02*
X124050000Y85850000D01*
X124050000Y85850000D02*
X124050000Y89750000D01*
G04 #@! TO.C,U4*
X134350000Y15875000D02*
X134350000Y17750000D01*
X136850000Y15875000D02*
X134350000Y15875000D01*
X136850000Y18375000D02*
X136850000Y15875000D01*
X134975000Y18375000D02*
X136850000Y18375000D01*
X134350000Y17750000D02*
X134975000Y18375000D01*
G04 #@! TO.C,P3*
X66480960Y42974880D02*
X66480960Y40434880D01*
X66480960Y40434880D02*
X63940960Y40434880D01*
X64575960Y42974880D02*
X66480960Y42974880D01*
X63940960Y42339880D02*
X64575960Y42974880D01*
X63940960Y40434880D02*
X63940960Y42339880D01*
G04 #@! TO.C,P53*
X121180960Y133525000D02*
X118640960Y133525000D01*
X118640960Y135430000D02*
X119275960Y136065000D01*
X121180960Y136065000D02*
X121180960Y133525000D01*
X118640960Y133525000D02*
X118640960Y135430000D01*
X119275960Y136065000D02*
X121180960Y136065000D01*
G04 #@! TO.C,J4*
X93712360Y10973880D02*
X93712360Y16053880D01*
X122922360Y16053880D02*
X124192360Y14783880D01*
X124192360Y14783880D02*
X124192360Y10973880D01*
X93712360Y16053880D02*
X122922360Y16053880D01*
X124192360Y10973880D02*
X93712360Y10973880D01*
G04 #@! TO.C,P27*
X80741360Y86277060D02*
X83281360Y86277060D01*
X83281360Y84372060D02*
X82646360Y83737060D01*
X83281360Y86277060D02*
X83281360Y84372060D01*
X82646360Y83737060D02*
X80741360Y83737060D01*
X80741360Y83737060D02*
X80741360Y86277060D01*
G04 #@! TO.C,P1*
X110134364Y93330000D02*
X108229364Y93330000D01*
X110769364Y93965000D02*
X110134364Y93330000D01*
X108229364Y93330000D02*
X108229364Y95870000D01*
X110769364Y95870000D02*
X110769364Y93965000D01*
X108229364Y95870000D02*
X110769364Y95870000D01*
G04 #@! TO.C,P49*
X52675960Y136070000D02*
X54580960Y136070000D01*
X54580960Y133530000D02*
X52040960Y133530000D01*
X52040960Y135435000D02*
X52675960Y136070000D01*
X54580960Y136070000D02*
X54580960Y133530000D01*
X52040960Y133530000D02*
X52040960Y135435000D01*
G04 #@! TO.C,P51*
X45175960Y129570000D02*
X47080960Y129570000D01*
X44540960Y127030000D02*
X44540960Y128935000D01*
X47080960Y127030000D02*
X44540960Y127030000D01*
X44540960Y128935000D02*
X45175960Y129570000D01*
X47080960Y129570000D02*
X47080960Y127030000D01*
G04 #@! TO.C,J2*
X86200700Y117614167D02*
X86700700Y116907060D01*
X83750700Y116907060D02*
X97650700Y116907060D01*
X85700700Y116907060D02*
X86200700Y117614167D01*
X98650700Y121807060D02*
X83750700Y121807060D01*
X83750700Y121807060D02*
X83750700Y116907060D01*
X98650700Y117907060D02*
X98650700Y121807060D01*
X97650700Y116907060D02*
X98650700Y117907060D01*
G04 #@! TD*
M02*
