M48
; DRILL file {KiCad (5.99.0-10192-g8d0191151d)} date Mon Apr 12 21:16:12 2021
; FORMAT={-:-/ absolute / inch / decimal}
; #@! TF.CreationDate,2021-04-12T21:16:12+03:00
; #@! TF.GenerationSoftware,Kicad,Pcbnew,(5.99.0-10192-g8d0191151d)
; #@! TF.FileFunction,Plated,1,2,PTH
FMAT,2
INCH
; #@! TA.AperFunction,Plated,PTH,ComponentDrill
T1C0.0118
; #@! TA.AperFunction,Plated,PTH,ViaDrill
T2C0.0118
; #@! TA.AperFunction,Plated,PTH,ComponentDrill
T3C0.0118
; #@! TA.AperFunction,Plated,PTH,ViaDrill
T4C0.0120
; #@! TA.AperFunction,Plated,PTH,ViaDrill
T5C0.0130
; #@! TA.AperFunction,Plated,PTH,ViaDrill
T6C0.0197
; #@! TA.AperFunction,Plated,PTH,ComponentDrill
T7C0.0276
; #@! TA.AperFunction,Plated,PTH,ComponentDrill
T8C0.0320
; #@! TA.AperFunction,Plated,PTH,ComponentDrill
T9C0.0335
; #@! TA.AperFunction,Plated,PTH,ComponentDrill
T10C0.0394
; #@! TA.AperFunction,Plated,PTH,ComponentDrill
T11C0.0433
; #@! TA.AperFunction,Plated,PTH,ComponentDrill
T12C0.1200
; #@! TA.AperFunction,Plated,PTH,ComponentDrill
T13C0.1378
; #@! TA.AperFunction,Plated,PTH,ComponentDrill
T14C0.1890
%
G90
G05
T1
X0.5906Y5.3338
X0.5915Y4.5507
X0.5915Y4.1216
X0.5915Y3.5625
X0.5915Y3.0797
X0.6428Y5.01
X0.7411Y3.1344
X0.8488Y5.0107
X0.8682Y5.0848
X0.9125Y4.7954
X2.3448Y4.0421
X2.3654Y4.0766
X2.395Y4.0303
X2.5347Y4.0333
X2.9751Y0.9287
X3.0371Y0.7356
X3.2034Y0.7092
X3.2497Y0.7092
X3.3353Y0.7092
X3.4229Y0.7092
X3.5372Y0.736
X4.0587Y0.9045
X4.0617Y0.7647
X4.0705Y0.9547
X4.105Y0.934
X4.6614Y1.3432
X4.6614Y1.2664
X4.6614Y1.164
X4.713Y1.3176
X4.7307Y1.2536
X4.7336Y1.1473
X4.7336Y1.2201
X4.7342Y1.0725
X4.7421Y1.1857
X4.8947Y1.0607
T2
X1.2953Y4.7244
X1.2953Y4.0197
X1.8898Y3.6811
X2.0906Y4.0121
X3.4803Y3.7444
X3.9055Y3.378
X4.121Y3.2835
T3
X2.7687Y3.9215
X2.8081Y3.9215
X2.9479Y3.9215
X2.9872Y3.9215
X3.0305Y5.4274
X3.0699Y5.4274
X3.1093Y5.4274
X3.1486Y5.4274
T4
X0.7681Y5.4449
X0.9125Y3.5289
X1.091Y4.9213
X1.4544Y3.1353
X1.4646Y3.7402
X1.4791Y4.3782
X1.5211Y4.3782
X1.5276Y3.7402
X1.5787Y4.7126
X1.8307Y3.7756
X1.8307Y3.1614
X1.8311Y3.3819
X1.8863Y3.3819
X1.9252Y3.1614
X2.0549Y3.4252
X2.063Y4.7953
X2.063Y3.9215
X2.0957Y3.7074
X2.126Y3.7402
X2.1457Y3.4685
X2.189Y4.2995
X2.2113Y3.89
X2.2126Y4.2759
X2.2283Y3.563
X2.2533Y3.89
X2.2642Y3.2362
X2.2721Y3.1142
X2.3193Y2.3937
X2.3193Y1.0906
X2.3213Y3.0826
X2.3236Y3.044
X2.3339Y2.753
X2.3501Y0.6732
X2.3587Y1.57
X2.3626Y3.2874
X2.3798Y1.804
X2.3819Y0.6732
X2.3902Y3.2362
X2.4138Y0.6732
X2.4146Y2.9696
X2.4151Y3.3268
X2.4449Y1.3152
X2.4457Y0.6732
X2.4488Y1.2641
X2.4493Y3.1417
X2.45Y2.7333
X2.4749Y3.2618
X2.4807Y3.685
X2.4901Y2.8568
X2.5083Y1.3425
X2.5083Y1.0512
X2.5122Y3.8747
X2.5205Y2.7381
X2.5378Y2.8495
X2.5398Y1.2874
X2.5551Y1.3507
X2.5752Y3.2047
X2.5945Y3.8861
X2.6087Y3.2618
X2.6107Y3.685
X2.6409Y1.4848
X2.6579Y1.3472
X2.6579Y1.3153
X2.6579Y1.2835
X2.659Y1.2509
X2.6717Y1.4766
X2.6733Y0.9215
X2.6925Y5.4908
X2.7014Y1.4469
X2.7128Y3.1695
X2.7209Y1.3977
X2.752Y0.9215
X2.7543Y3.2618
X2.7563Y3.685
X2.7914Y1.0711
X2.7957Y0.874
X2.8465Y3.6341
X2.8485Y3.8979
X2.8583Y2.6656
X2.8789Y2.6372
X2.8863Y3.685
X2.8863Y3.2618
X2.9055Y3.8979
X2.9086Y2.6075
X2.916Y3.4097
X2.958Y3.4097
X2.9611Y1.0394
X2.9882Y3.5318
X2.9882Y2.5869
X3.004Y0.3704
X3.0507Y3.5634
X3.0827Y0.3704
X3.1112Y3.4994
X3.1225Y2.8819
X3.1264Y1.0276
X3.1304Y2.7913
X3.1409Y3.4697
X3.1654Y3.122
X3.1737Y1.0276
X3.193Y2.8071
X3.2087Y3.6341
X3.2249Y2.8071
X3.2481Y4.8822
X3.2839Y2.7953
X3.2918Y1.0433
X3.2957Y2.8819
X3.3213Y2.9436
X3.3229Y3.0251
X3.3587Y3.2999
X3.3626Y1.0433
X3.3694Y2.5862
X3.4611Y3.6575
X3.5083Y1.0394
X3.5244Y3.252
X3.6973Y3.3346
X3.717Y3.3071
X3.7485Y3.2953
X3.8307Y3.3898
X3.874Y3.4331
X3.9523Y3.2527
X3.9606Y3.5709
X3.9768Y3.2323
X4.074Y1.0354
X4.161Y4.2443
X4.1863Y4.3223
X4.2323Y3.9606
X4.3189Y1.0239
X4.3544Y1.0239
X4.3622Y5.9685
X4.3622Y5.8898
X4.4374Y3.3701
X4.4528Y2.6066
X4.4528Y2.5475
X4.465Y3.3346
X4.4953Y2.5973
X4.5713Y3.2323
X4.6067Y5.4606
X4.6618Y3.3189
X4.7406Y0.3386
X4.7445Y3.2586
X4.8307Y4.622
X4.8307Y2.5987
X4.8701Y3.937
X4.9016Y1.9885
X4.9055Y4.0118
X4.9292Y1.9412
X4.9449Y3.8386
X4.9764Y3.8701
X5.0157Y3.8189
X5.0394Y3.2837
X5.1654Y5.2717
X5.1654Y4.9449
X5.1654Y3.9055
X5.2209Y3.9094
X5.2861Y3.8979
X5.3281Y3.8979
X5.378Y2.1725
X5.4055Y2.1932
T5
X3.1445Y2.5475
X3.3898Y3.2247
X3.4803Y3.7011
X3.5866Y3.2247
X3.6496Y0.7916
X3.6496Y0.3822
X3.6536Y0.2759
X3.6536Y0.1597
X3.9095Y3.2247
X4.4843Y5.9724
X4.4843Y5.8898
X4.5315Y3.205
T6
X1.2284Y4.831
X1.4724Y3.2283
T7
X3.5Y4.935
X3.5315Y5.0039
X3.563Y4.935
X3.5945Y5.0039
X3.626Y4.935
T8
X1.2918Y5.1262
X1.2918Y4.9762
X1.3902Y5.3821
X1.3902Y5.2321
X1.4493Y5.1262
X1.4493Y4.9762
X1.5083Y5.3821
X1.5083Y5.2321
X1.5674Y5.1262
X1.5674Y4.9762
X1.6264Y5.3821
X1.6264Y5.2321
X1.6855Y5.1262
X1.6855Y4.9762
X1.7445Y5.3821
X1.7445Y5.2321
X1.8626Y5.3821
X1.8626Y5.2321
X1.9217Y5.1262
X1.9217Y4.9762
X1.9807Y5.3821
X1.9807Y5.2321
X2.0355Y5.1262
X2.0355Y4.9762
X2.1264Y4.9778
X2.1264Y4.8278
X2.217Y5.3821
X2.217Y5.2321
X2.2205Y5.1265
X2.2205Y4.9765
X2.2957Y5.1262
X2.2957Y4.9762
X2.4532Y5.3821
X2.4532Y5.2321
X4.0122Y5.3838
X4.0122Y5.2338
X4.2288Y4.9665
X4.2288Y4.8165
X4.3075Y5.126
X4.3075Y4.976
X4.3075Y4.8976
X4.3075Y4.7476
X4.465Y4.9705
X4.465Y4.8205
X4.4847Y5.3819
X4.4847Y5.2319
X4.5437Y5.126
X4.5437Y4.976
X4.5437Y4.8738
X4.5437Y4.7238
X4.6618Y5.126
X4.6618Y4.976
X4.7795Y4.9746
X4.7795Y4.8246
X4.839Y5.3819
X4.839Y5.2319
X4.8981Y5.126
X4.8981Y4.976
X4.9571Y5.3819
X4.9571Y5.2319
X5.0162Y5.126
X5.0162Y4.976
X5.0394Y2.0868
X5.0394Y1.9868
X5.0394Y1.8868
X5.0394Y1.7868
X5.0394Y1.6868
X5.0394Y1.5868
X5.2327Y5.3821
X5.2327Y5.2321
X5.2918Y5.126
X5.2918Y4.976
T9
X3.3937Y5.2641
X3.4922Y5.2641
X3.5906Y5.2641
X3.689Y5.2641
X3.7874Y5.2641
T10
X0.2Y2.6
X0.2Y2.5
X0.2Y2.4
X0.2Y2.3
X0.2Y2.2
X0.2Y1.7
X0.2Y1.6
X0.2Y1.5
X0.2Y1.4
X0.2Y1.3
X0.3Y2.6
X0.3Y2.5
X0.3Y2.4
X0.3Y2.3
X0.3Y2.2
X0.3Y1.7
X0.3Y1.6
X0.3Y1.5
X0.3Y1.4
X0.3Y1.3
X0.4Y2.6
X0.4Y2.5
X0.4Y2.4
X0.4Y2.3
X0.4Y2.2
X0.4Y1.7
X0.4Y1.6
X0.4Y1.5
X0.4Y1.4
X0.4Y1.3
X0.8Y2.6
X0.8Y2.5
X0.8Y2.4
X0.8Y2.3
X0.8Y2.2
X0.8Y1.7
X0.8Y1.6
X0.8Y1.5
X0.8Y1.4
X0.8Y1.3
X0.9Y2.6
X0.9Y2.5
X0.9Y2.4
X0.9Y2.3
X0.9Y2.2
X0.9Y1.7
X0.9Y1.6
X0.9Y1.5
X0.9Y1.4
X0.9Y1.3
X1.0Y2.6
X1.0Y2.5
X1.0Y2.4
X1.0Y2.3
X1.0Y2.2
X1.0Y1.7
X1.0Y1.6
X1.0Y1.5
X1.0Y1.4
X1.0Y1.3
X1.1999Y3.3378
X1.1999Y3.2378
X1.2999Y3.3378
X1.2999Y3.2378
X1.7784Y3.3273
X1.7784Y3.2273
X1.8036Y5.0512
X1.8784Y3.3273
X1.8784Y3.2273
X1.9784Y3.3273
X1.9784Y3.2273
X2.0989Y5.3071
X2.1284Y5.1103
X2.3351Y5.3071
X2.4138Y5.0512
X2.4567Y1.9373
X2.4567Y1.6419
X2.5516Y5.0512
X2.5674Y1.9372
X2.5674Y1.6419
X2.6177Y2.9852
X2.6177Y2.8852
X2.6177Y2.7852
X2.6177Y2.6852
X2.7177Y2.9852
X2.7177Y2.8852
X2.7177Y2.7852
X2.7177Y2.6852
X3.0189Y0.2837
X3.1181Y3.2363
X3.1189Y0.2837
X3.2189Y0.2837
X3.2288Y3.3467
X3.2288Y3.2363
X3.3189Y0.2837
X3.406Y3.5331
X3.406Y3.4331
X3.4189Y0.2837
X3.506Y3.5331
X3.506Y3.4331
X3.5189Y0.2837
X3.606Y3.5331
X3.606Y3.4331
X3.7395Y0.582
X3.7395Y0.482
X3.8395Y0.582
X3.8395Y0.482
X3.9395Y0.582
X3.9395Y0.482
X4.0395Y0.582
X4.0395Y0.482
X4.0627Y3.5331
X4.0627Y3.4331
X4.1146Y5.3069
X4.1395Y0.582
X4.1395Y0.482
X4.1627Y3.5331
X4.1627Y3.4331
X4.2395Y0.582
X4.2395Y0.482
X4.2406Y5.3069
X4.2627Y3.5331
X4.2627Y3.4331
X4.311Y3.7244
X4.3395Y0.582
X4.3395Y0.482
X4.3627Y3.5331
X4.3627Y3.4331
X4.3666Y5.3069
X4.4395Y0.582
X4.4395Y0.482
X4.5395Y0.582
X4.5395Y0.482
X4.6395Y0.582
X4.6395Y0.482
X4.683Y1.8388
X4.683Y1.7388
X4.7209Y5.3069
X4.7395Y0.582
X4.7395Y0.482
X4.783Y1.8388
X4.783Y1.7388
X4.8395Y0.582
X4.8395Y0.482
X4.883Y1.8388
X4.883Y1.7388
X5.0949Y5.3069
T11
X1.3083Y5.8218
X1.3083Y5.6446
X1.446Y5.8218
X1.446Y5.6446
X1.5681Y5.8218
X1.5681Y5.6446
X1.6862Y5.8218
X1.6862Y5.6446
X1.8043Y5.8218
X1.8043Y5.6446
X1.9224Y5.8218
X1.9224Y5.6446
X2.0405Y5.8218
X2.0405Y5.6446
X2.1586Y5.8218
X2.1586Y5.6446
X2.2767Y5.8218
X2.2767Y5.6446
X2.3948Y5.8218
X2.3948Y5.6446
X2.5169Y5.8218
X2.5169Y5.6446
X2.7511Y5.8218
X2.7511Y5.6446
X2.8692Y5.8218
X2.8692Y5.6446
X2.9873Y5.8218
X2.9873Y5.6446
X3.1054Y5.8218
X3.1054Y5.6446
X3.2236Y5.8218
X3.2236Y5.6446
X3.3417Y5.8218
X3.3417Y5.6446
X3.4598Y5.8218
X3.4598Y5.6446
X3.5779Y5.8218
X3.5779Y5.6446
X3.812Y5.8218
X3.812Y5.6446
X3.9498Y5.8218
X3.9498Y5.6446
X4.072Y5.8218
X4.072Y5.6446
X4.1901Y5.8218
X4.1901Y5.6446
X4.3082Y5.8218
X4.3082Y5.6446
X4.4263Y5.8218
X4.4263Y5.6446
X4.5444Y5.8218
X4.5444Y5.6446
X4.6625Y5.8218
X4.6625Y5.6446
X4.7806Y5.8218
X4.7806Y5.6446
X4.8987Y5.8218
X4.8987Y5.6446
X5.0208Y5.8218
X5.0208Y5.6446
X5.1586Y5.8218
X5.1586Y5.6446
X5.2964Y5.8218
X5.2964Y5.6446
T12
X5.5394Y2.2868
X5.5394Y1.3868
T13
X1.1094Y6.0462
X2.6389Y6.0462
X3.6901Y6.0462
X5.4952Y6.0462
T14
X0.1575Y5.5906
X0.1575Y3.0512
X0.1575Y0.7283
X0.6693Y6.0709
X5.378Y0.1932
X5.9055Y3.0512
X5.9055Y0.7283
X5.9099Y5.5906
T7
G00X3.4193Y4.995
M15
G01X3.4193Y4.9439
M16
G05
G00X3.7067Y4.995
M15
G01X3.7067Y4.9439
M16
G05
T0
M30
