M48
; DRILL file {KiCad (6.0.1)} date Wed Aug 24 16:53:40 2022
; FORMAT={2:4/ absolute / inch / suppress leading zeros}
; #@! TF.CreationDate,2022-08-24T16:53:40+03:00
; #@! TF.GenerationSoftware,Kicad,Pcbnew,(6.0.1)
; #@! TF.FileFunction,MixedPlating,1,2
FMAT,2
INCH,TZ
; #@! TA.AperFunction,Plated,PTH,ComponentDrill
T1C0.0118
; #@! TA.AperFunction,Plated,PTH,ViaDrill
T2C0.0118
; #@! TA.AperFunction,Plated,PTH,ComponentDrill
T3C0.0118
; #@! TA.AperFunction,Plated,PTH,ViaDrill
T4C0.0120
; #@! TA.AperFunction,Plated,PTH,ViaDrill
T5C0.0130
; #@! TA.AperFunction,Plated,PTH,ViaDrill
T6C0.0197
; #@! TA.AperFunction,Plated,PTH,ComponentDrill
T7C0.0276
; #@! TA.AperFunction,Plated,PTH,ComponentDrill
T8C0.0320
; #@! TA.AperFunction,Plated,PTH,ComponentDrill
T9C0.0335
; #@! TA.AperFunction,Plated,PTH,ComponentDrill
T10C0.0362
; #@! TA.AperFunction,Plated,PTH,ViaDrill
T11C0.0394
; #@! TA.AperFunction,Plated,PTH,ComponentDrill
T12C0.0394
; #@! TA.AperFunction,Plated,PTH,ComponentDrill
T13C0.0433
; #@! TA.AperFunction,Plated,PTH,ComponentDrill
T14C0.0787
; #@! TA.AperFunction,Plated,PTH,ComponentDrill
T15C0.0917
; #@! TA.AperFunction,Plated,PTH,ComponentDrill
T16C0.1200
; #@! TA.AperFunction,Plated,PTH,ComponentDrill
T17C0.1378
; #@! TA.AperFunction,Plated,PTH,ComponentDrill
T18C0.1969
%
G90
G05
T1
X5842Y37677
X5842Y33386
X5842Y27795
X5842Y22967
X5852Y47201
X6373Y43962
X7338Y23514
X8433Y43969
X8627Y44710
X9070Y41817
X23409Y38140
X23616Y38484
X23911Y38022
X25309Y38051
X29712Y7006
X30332Y5075
X31995Y4811
X32458Y4811
X33314Y4811
X34190Y4811
X35334Y5078
X40549Y6763
X40578Y5366
X40667Y7265
X41011Y7058
X46575Y11150
X46575Y10383
X46575Y9359
X47091Y10895
X47268Y10255
X47298Y9192
X47298Y9920
X47304Y8444
X47382Y9576
X48908Y8326
T2
X941Y17408
X946Y50868
X946Y47915
X946Y42994
X946Y38073
X946Y32167
X946Y25278
X946Y14451
X946Y7561
X2796Y43467
X2835Y57207
X2914Y33349
X3072Y38703
X3111Y49687
X3642Y56132
X3898Y3624
X4528Y45356
X4528Y40475
X4528Y34963
X4568Y30711
X4568Y25160
X4741Y49246
X4774Y51577
X5020Y22473
X5316Y44963
X5316Y31813
X5394Y27404
X5424Y47522
X5434Y42522
X5434Y38034
X5660Y39402
X5788Y7364
X5847Y366
X6359Y54884
X6694Y2876
X7111Y41349
X7284Y5593
X7327Y38329
X7363Y57669
X8396Y39057
X8446Y40868
X8524Y51250
X8603Y48427
X8820Y34530
X8908Y48112
X8957Y28752
X8997Y23290
X9070Y41248
X9070Y36445
X9095Y31065
X9095Y22738
X9331Y58880
X9351Y38112
X9410Y36380
X9420Y32847
X9449Y55150
X9449Y33349
X9489Y32266
X9498Y51555
X9686Y26774
X9804Y60711
X10040Y43162
X10040Y2915
X10306Y11931
X10385Y34559
X10616Y36344
X10629Y37481
X10709Y48093
X10818Y10622
X11034Y297
X11142Y15514
X11182Y25120
X11221Y20514
X11261Y13309
X11339Y28585
X11379Y11577
X11812Y47837
X11812Y46577
X11851Y55041
X12048Y33654
X12107Y35022
X12186Y37689
X12469Y44085
X12556Y37006
X12583Y41849
X12628Y46573
X13048Y35896
X13111Y11341
X13298Y48496
X13418Y37691
X13534Y39302
X13650Y47297
X13721Y8132
X13761Y32965
X13800Y33654
X13829Y47640
X13839Y42758
X13869Y44264
X13898Y6695
X13967Y32207
X14001Y38947
X14135Y31183
X14135Y29648
X14217Y55065
X14233Y38065
X14272Y35451
X14505Y41364
X14558Y45593
X14577Y39914
X14627Y44376
X14715Y40396
X14715Y46319
X14764Y44923
X14774Y60652
X14774Y57728
X14823Y33083
X14833Y33585
X14981Y40868
X14991Y30494
X15052Y49636
X15079Y11341
X15591Y47817
X15713Y32266
X15776Y38975
X15886Y297
X16201Y47837
X16694Y29648
X16739Y32613
X16775Y32956
X16776Y39778
X16823Y41085
X16828Y32332
X16930Y44837
X17394Y41089
X17402Y44841
X17477Y37919
X17540Y7541
X17601Y39862
X17776Y37679
X17846Y33943
X17865Y32955
X17875Y11459
X17895Y39893
X17918Y41104
X17953Y44854
X17953Y9648
X17953Y1892
X18016Y49711
X18062Y36705
X18219Y5967
X18367Y55026
X18426Y36695
X18584Y37754
X18831Y34530
X18928Y56390
X19103Y50849
X19144Y34028
X19284Y35327
X19440Y39451
X19457Y39856
X19461Y29167
X19518Y54106
X19528Y55652
X19583Y41187
X19686Y3545
X19804Y11459
X19859Y40404
X19890Y36309
X19892Y32913
X19902Y44746
X19974Y39013
X20002Y39347
X20032Y41679
X20050Y1498
X20072Y35372
X20131Y44309
X20148Y248
X20221Y46112
X20288Y36210
X20498Y46213
X20572Y36711
X20572Y36452
X20631Y60711
X20764Y29702
X20787Y46276
X20934Y40856
X20949Y35913
X20993Y44904
X21001Y42648
X21056Y46431
X21103Y39067
X21142Y31026
X21142Y29530
X21261Y41408
X21261Y34097
X21320Y58801
X21575Y35715
X21654Y1459
X21670Y47679
X21973Y35156
X22028Y35573
X22280Y37746
X22294Y33644
X22402Y3624
X22412Y59175
X22442Y11734
X22560Y34215
X22617Y41240
X22670Y32514
X22835Y14254
X22835Y13821
X22835Y9136
X22835Y5947
X22868Y50156
X22875Y20632
X22898Y51026
X23032Y22286
X23150Y23545
X23174Y42278
X23229Y34608
X23419Y14867
X23438Y49754
X23465Y11774
X23505Y32549
X23505Y24293
X23583Y297
X23662Y14175
X23731Y15110
X23780Y32167
X23859Y33978
X24016Y15297
X24125Y20642
X24166Y33487
X24331Y31734
X24398Y32392
X24538Y54914
X24568Y34146
X24587Y8762
X24725Y9451
X24734Y6110
X24780Y41809
X24831Y42297
X24922Y52640
X24981Y21823
X25056Y41821
X25119Y11262
X25168Y23585
X25316Y10160
X25355Y32207
X25473Y9490
X25591Y52510
X25599Y52750
X25621Y8782
X25635Y10632
X25661Y11419
X25741Y33998
X25808Y54933
X25827Y37128
X25867Y39215
X25871Y48888
X25883Y47242
X25890Y45167
X25906Y42246
X25945Y5325
X25946Y7896
X26103Y22797
X26103Y20475
X26142Y28585
X26181Y53621
X26182Y34451
X26182Y19805
X26221Y15750
X26300Y23506
X26349Y297
X26516Y60681
X26536Y9569
X26638Y34018
X26733Y53038
X26733Y6026
X26762Y52404
X27016Y34077
X27032Y53738
X27087Y9766
X27117Y3063
X27166Y22679
X27166Y20317
X27402Y34293
X27461Y52354
X27589Y58211
X27698Y55071
X27796Y52345
X27867Y36224
X27914Y55695
X28032Y32364
X28072Y24451
X28121Y52335
X28552Y36224
X28642Y6410
X29174Y32325
X29184Y59274
X29203Y278
X29253Y23467
X29381Y6114
X29394Y36215
X29410Y4195
X29627Y36545
X29735Y55101
X29835Y36219
X30198Y23978
X30209Y32555
X30316Y26892
X30316Y25081
X30394Y58270
X31182Y23860
X31292Y55030
X31339Y31931
X31457Y30504
X31546Y52492
X31694Y297
X31973Y32823
X31979Y60750
X32284Y44884
X32284Y40593
X32308Y37419
X32363Y50278
X32579Y52581
X32674Y38108
X32800Y31506
X32914Y47955
X32973Y29451
X33111Y32325
X33134Y34128
X33174Y49856
X33201Y31667
X33229Y24490
X33282Y32565
X33347Y46223
X33347Y43349
X33398Y50435
X33410Y42699
X33414Y31883
X33524Y41921
X33583Y55230
X33642Y31291
X33712Y32368
X33743Y41723
X33743Y41723
X33761Y43093
X33798Y34792
X33800Y41114
X33863Y38876
X33881Y41418
X33881Y41418
X33922Y31049
X33973Y51786
X34341Y42502
X34528Y58309
X34583Y34072
X34617Y49697
X34686Y53266
X34780Y34612
X34825Y35286
X34961Y29963
X35064Y31962
X35099Y35806
X35325Y59215
X35351Y35809
X35446Y41506
X35548Y47998
X35572Y46030
X35674Y55352
X35759Y2443
X35759Y317
X35965Y43368
X36103Y30425
X36103Y4766
X36182Y39372
X36331Y57388
X36458Y2306
X36497Y1685
X36497Y612
X36544Y52742
X36545Y32093
X36609Y32409
X36619Y55148
X36837Y39547
X36871Y43191
X36934Y31065
X37048Y47994
X37073Y30726
X37083Y52010
X37127Y45160
X37166Y7994
X37166Y6695
X37383Y37738
X37491Y49362
X37717Y39372
X37725Y50837
X37816Y55868
X37843Y32293
X37973Y31282
X38062Y317
X38261Y51380
X38308Y43368
X38426Y5475
X38505Y7994
X38505Y6380
X38516Y52738
X38633Y31213
X38690Y50758
X38741Y29963
X38918Y55002
X38938Y1656
X39016Y5317
X39052Y31962
X39056Y47719
X39138Y52045
X39138Y33439
X39154Y44057
X39331Y60711
X39528Y39490
X39666Y50652
X39735Y31400
X39757Y33699
X40001Y45199
X40001Y32955
X40316Y58349
X40414Y31719
X40473Y30209
X40615Y52742
X40631Y33191
X40918Y32357
X41034Y39569
X41083Y31699
X41103Y41301
X41179Y30560
X41221Y38742
X41241Y46164
X41261Y44608
X41493Y52683
X41524Y47006
X41568Y46128
X41839Y33707
X42091Y46664
X42516Y32927
X42542Y47115
X42544Y31904
X42638Y278
X42686Y48380
X42796Y7955
X42816Y30701
X42855Y44667
X42855Y33723
X42863Y45856
X42934Y38821
X42973Y41429
X42980Y31590
X43170Y43723
X43198Y33093
X43199Y32059
X43209Y34303
X43229Y45917
X43343Y31561
X43552Y45904
X43593Y30228
X43613Y47876
X43910Y32325
X43942Y44455
X43967Y58388
X43967Y38752
X43977Y43683
X44016Y35238
X44056Y31813
X44184Y30337
X44213Y8152
X44253Y60711
X44253Y5317
X44331Y6498
X44528Y43467
X44587Y1852
X44751Y46327
X44912Y42541
X44946Y38699
X45115Y46045
X45119Y35238
X45131Y42274
X45186Y32707
X45198Y33467
X45316Y31262
X45355Y43624
X45375Y47010
X45473Y7601
X45532Y32951
X45680Y47620
X45906Y29215
X45938Y30872
X45946Y27049
X45985Y24175
X46103Y13821
X46182Y11577
X46261Y22719
X46261Y19845
X46261Y17679
X46520Y47471
X46654Y45917
X46674Y46695
X46757Y31065
X46851Y54973
X46851Y38703
X46855Y41616
X46863Y35089
X46940Y37014
X46942Y33514
X46969Y1656
X47009Y21380
X47196Y37014
X47264Y34557
X47323Y17443
X47371Y46510
X47379Y46766
X47717Y7404
X47835Y25435
X47875Y28073
X47914Y33575
X47942Y41597
X47969Y46309
X47993Y54982
X48022Y45868
X48081Y35110
X48101Y38870
X48111Y22561
X48298Y58142
X48337Y31085
X48613Y60780
X48820Y29648
X48859Y35406
X48938Y24175
X49036Y33782
X49056Y32010
X49178Y45915
X49528Y3624
X49725Y34923
X49804Y20002
X49863Y46341
X49961Y2404
X50001Y23782
X50001Y21183
X50001Y9727
X50237Y32246
X50512Y30002
X50522Y297
X50552Y5278
X50581Y43949
X50709Y23073
X50749Y26183
X50749Y20160
X50749Y7679
X50788Y19057
X50847Y3526
X50896Y35730
X50946Y6419
X50985Y10986
X51103Y33585
X51103Y30632
X51142Y32049
X51182Y13742
X51261Y17640
X51300Y43703
X51318Y37955
X51536Y7915
X51615Y35908
X51890Y3427
X52127Y59727
X52225Y32177
X52359Y2660
X52599Y43073
X52626Y4044
X52796Y45002
X52875Y35790
X53111Y5278
X53190Y35790
X53426Y16223
X53544Y10593
X53583Y3644
X53780Y6223
X53997Y4097
X54016Y5160
X54174Y35356
X54174Y6931
X54292Y46459
X54371Y13309
X54528Y51971
X54686Y18112
X54686Y8545
X54883Y22837
X54883Y4254
X55198Y26104
X55237Y54018
X55512Y40671
X56064Y2640
X56166Y18581
X56812Y8112
X56969Y55160
X57127Y37325
X57599Y23427
X58182Y13262
X58229Y40396
X58308Y50081
X58623Y46931
X58623Y37364
X58741Y43427
X60001Y56774
X60001Y49884
X60001Y42994
X60001Y31183
X60001Y24293
X60001Y17404
X60001Y10514
X60070Y37748
T3
X27392Y36929
X27785Y36929
X29183Y36929
X29577Y36929
X30010Y51988
X30404Y51988
X30797Y51988
X31152Y24254
X31191Y51988
X31433Y28132
X31674Y27561
X31703Y24254
X31913Y24697
X32009Y27561
X32127Y24254
X32343Y27561
X32678Y24254
X32678Y27561
T4
X6477Y48221
X9086Y33073
X14505Y29072
X15317Y33581
X15375Y32286
X18268Y29745
X18824Y31656
X20393Y35697
X20490Y34815
X20627Y31971
X21116Y35218
X21435Y39784
X21560Y36970
X21731Y39589
X21894Y36845
X22205Y30081
X22235Y34146
X22520Y28821
X22835Y28388
X23032Y25249
X23155Y21656
X23155Y8624
X23249Y30160
X23446Y6075
X23780Y6065
X23839Y30858
X24074Y27440
X24105Y6065
X24371Y11065
X24410Y11538
X24410Y6075
X24579Y30041
X24710Y30337
X24794Y24973
X25089Y8693
X25119Y29136
X25166Y25099
X25385Y26301
X25483Y36321
X25542Y34244
X25714Y29766
X25877Y36469
X25929Y52195
X26049Y30337
X26370Y12566
X26536Y34382
X26540Y11191
X26540Y10872
X26540Y10553
X26551Y10227
X26678Y12484
X26694Y6934
X26975Y12187
X27090Y29413
X27171Y11695
X27481Y6934
X27505Y30336
X27845Y8526
X27855Y34601
X27918Y6459
X28158Y34070
X28446Y36698
X28544Y24375
X28750Y24090
X28808Y34384
X28824Y30336
X29047Y23793
X29122Y31816
X29542Y31816
X29572Y8112
X29636Y2473
X29682Y33314
X29686Y24018
X31225Y7994
X31698Y7994
X32717Y1587
X32868Y33887
X32879Y8152
X33174Y27154
X33190Y26498
X33190Y27969
X33347Y30475
X33588Y8152
X33655Y23580
X34078Y34021
X35044Y8112
X35205Y30640
X37353Y1665
X37386Y30888
X39686Y29963
X40670Y8153
X41575Y40927
X41822Y40150
X43151Y7958
X43505Y7958
X44245Y31057
X44489Y23784
X44489Y23194
X44656Y30347
X44915Y23691
X46098Y31160
X47367Y1104
X48268Y23706
X48662Y37089
X48977Y17603
X49213Y30553
X49253Y17131
X49372Y36862
X49715Y36311
X50011Y36085
X51332Y19758
X51570Y19578
X51930Y36774
T5
X31406Y23194
X33859Y29966
X35828Y29966
X36458Y5635
X45394Y29687
T6
X12245Y46029
X14587Y32236
X15955Y46053
X15955Y45207
X15955Y40780
X15955Y40110
X18426Y47301
X18953Y40071
X18957Y46026
X18957Y45238
X18957Y40760
X19957Y48778
X20851Y49723
T7
X55867Y45740
X56182Y45051
X56497Y45740
X56812Y45051
X57127Y45740
T8
X5131Y52128
X5272Y51029
X5272Y49529
X6375Y51099
X6375Y49599
X7060Y52128
X7209Y51047
X7209Y49547
X8012Y51055
X8012Y49555
X8308Y53073
X8317Y52126
X9072Y51055
X9072Y49555
X9918Y51019
X9918Y49519
X10237Y53073
X10246Y52126
X11792Y51815
X11792Y50315
X12599Y51815
X12599Y50315
X13386Y51815
X13386Y50315
X14213Y51815
X14213Y50315
X15001Y51815
X15001Y50315
X16135Y51799
X16135Y50299
X16981Y51788
X16981Y50288
X18426Y51799
X18426Y50299
X23725Y49079
X23725Y47579
X23823Y51709
X23823Y50209
X24678Y49075
X24678Y47575
X24741Y51693
X24741Y50193
X40985Y51638
X40985Y50138
X43308Y50004
X43308Y48504
X44095Y49079
X44095Y47579
X44233Y51540
X44233Y50040
X45020Y51540
X45020Y50040
X46064Y51599
X46064Y50099
X46871Y51579
X46871Y50079
X48259Y48961
X48259Y47461
X49194Y48980
X49194Y47480
X49813Y51518
X49813Y50018
X50178Y49000
X50178Y47500
X50355Y18587
X50355Y17587
X50355Y16587
X50355Y15587
X50355Y14587
X50355Y13587
X50985Y51480
X50985Y49980
X51694Y48945
X51694Y47445
X52879Y48978
X52879Y47478
X52973Y51556
X52973Y50056
T9
X50768Y42167
X50768Y41183
X50768Y40199
X50768Y39215
X50768Y38230
T10
X53274Y40494
X53274Y39510
X54062Y40494
X54062Y39510
T11
X14394Y43061
X16934Y42971
X16934Y41880
X16942Y44093
X17772Y42978
X17776Y44101
X17780Y41868
X20005Y43018
X43548Y44982
T12
X1957Y21755
X1957Y20755
X1957Y19755
X1957Y18755
X1957Y17755
X1957Y16755
X1957Y15755
X1957Y14755
X1957Y13755
X1957Y12755
X1957Y11755
X1957Y10755
X1957Y9755
X1957Y8755
X1957Y7755
X2957Y21755
X2957Y20755
X2957Y19755
X2957Y18755
X2957Y17755
X2957Y16755
X2957Y15755
X2957Y14755
X2957Y13755
X2957Y12755
X2957Y11755
X2957Y10755
X2957Y9755
X2957Y8755
X2957Y7755
X3957Y21755
X3957Y20755
X3957Y19755
X3957Y18755
X3957Y17755
X3957Y16755
X3957Y15755
X3957Y14755
X3957Y13755
X3957Y12755
X3957Y11755
X3957Y10755
X3957Y9755
X3957Y8755
X3957Y7755
X4957Y21755
X4957Y20755
X4957Y19755
X4957Y18755
X4957Y17755
X4957Y16755
X4957Y15755
X4957Y14755
X4957Y13755
X4957Y12755
X5957Y21755
X5957Y20755
X5957Y19755
X5957Y18755
X5957Y17755
X5957Y16755
X5957Y15755
X5957Y14755
X5957Y13755
X5957Y12755
X6957Y21755
X6957Y20755
X6957Y19755
X6957Y18755
X6957Y17755
X6957Y16755
X6957Y15755
X6957Y14755
X6957Y13755
X6957Y12755
X7304Y40691
X7957Y21755
X7957Y20755
X7957Y19755
X7957Y18755
X7957Y17755
X7957Y16755
X7957Y15755
X7957Y14755
X7957Y13755
X7957Y12755
X8957Y21755
X8957Y20755
X8957Y19755
X8957Y18755
X8957Y17755
X8957Y16755
X8957Y15755
X8957Y14755
X8957Y13755
X8957Y12755
X9686Y48624
X9957Y21755
X9957Y20755
X9957Y19755
X9957Y18755
X9957Y17755
X9957Y16755
X9957Y15755
X9957Y14755
X9957Y13755
X9957Y12755
X11694Y31104
X11694Y29963
X12835Y31096
X12835Y29963
X14390Y49077
X14446Y52636
X15564Y52640
X17131Y52660
X18205Y52656
X18859Y31104
X18859Y30041
X19316Y52660
X22524Y45904
X24528Y17091
X24528Y14138
X25631Y14136
X25635Y17091
X26142Y27640
X26142Y26538
X26142Y25435
X27284Y27640
X27284Y26538
X27284Y25415
X30335Y31616
X30335Y30534
X30335Y29392
X32249Y30081
X34597Y32227
X35705Y32230
X35886Y38191
X36886Y38191
X37356Y3539
X37356Y2539
X37886Y38191
X38356Y3539
X38356Y2539
X38886Y38191
X39356Y3539
X39356Y2539
X39886Y38191
X40356Y3539
X40356Y2539
X40886Y38191
X41356Y3539
X41356Y2539
X41879Y32947
X42356Y3539
X42356Y2539
X42461Y51754
X42481Y50612
X43071Y34963
X43356Y3539
X43356Y2539
X44356Y3539
X44356Y2539
X45253Y31927
X45356Y3539
X45356Y2539
X46356Y3539
X46356Y2539
X46418Y16223
X46418Y15106
X46469Y44766
X47356Y3539
X47356Y2539
X47599Y16223
X47599Y15106
X48288Y50770
X48356Y3539
X48356Y2539
X48780Y16223
X48780Y15106
X51949Y50730
T13
X6296Y55937
X6296Y54165
X7673Y55937
X7673Y54165
X8894Y55937
X8894Y54165
X10075Y55937
X10075Y54165
X11256Y55937
X11256Y54165
X12437Y55937
X12437Y54165
X13618Y55937
X13618Y54165
X14799Y55937
X14799Y54165
X15980Y55937
X15980Y54165
X17161Y55937
X17161Y54165
X18382Y55937
X18382Y54165
X20725Y55937
X20725Y54165
X21906Y55937
X21906Y54165
X23087Y55937
X23087Y54165
X24268Y55937
X24268Y54165
X25450Y55937
X25450Y54165
X26631Y55937
X26631Y54165
X28874Y55937
X28874Y54165
X30055Y55937
X30055Y54165
X31236Y55937
X31236Y54165
X32417Y55937
X32417Y54165
X33599Y55937
X33599Y54165
X34780Y55937
X34780Y54165
X35961Y55937
X35961Y54165
X37142Y55937
X37142Y54165
X39483Y55937
X39483Y54165
X40861Y55937
X40861Y54165
X42083Y55937
X42083Y54165
X43264Y55937
X43264Y54165
X44445Y55937
X44445Y54165
X45626Y55937
X45626Y54165
X46807Y55937
X46807Y54165
X47988Y55937
X47988Y54165
X49169Y55937
X49169Y54165
X50350Y55937
X50350Y54165
X51571Y55937
X51571Y54165
X52949Y55937
X52949Y54165
X54327Y55937
X54327Y54165
T14
X52688Y34619
X54144Y33753
X54892Y34619
X56349Y33753
X57333Y34619
T15
X55129Y42372
X55129Y37632
T16
X55355Y20587
X55355Y11587
T17
X6040Y58181
X19603Y58181
X38264Y58181
X54583Y58181
T18
X1969Y60591
X1969Y28307
X1969Y2008
X58642Y28307
X58661Y60591
X58661Y2008
T7
X55060Y45140G85X55060Y45652
G05
X57934Y45140G85X57934Y45652
G05
T0
M30
