G04 #@! TF.GenerationSoftware,KiCad,Pcbnew,(5.99.0-10483-ga6ad7a4a70)*
G04 #@! TF.CreationDate,2021-06-23T22:09:19+03:00*
G04 #@! TF.ProjectId,hellen64_miataNA6_94,68656c6c-656e-4363-945f-6d696174614e,b*
G04 #@! TF.SameCoordinates,PX1406f40PYa852d20*
G04 #@! TF.FileFunction,AssemblyDrawing,Top*
%FSLAX46Y46*%
G04 Gerber Fmt 4.6, Leading zero omitted, Abs format (unit mm)*
G04 Created by KiCad (PCBNEW (5.99.0-10483-ga6ad7a4a70)) date 2021-06-23 22:09:19*
%MOMM*%
%LPD*%
G01*
G04 APERTURE LIST*
%ADD10C,0.150000*%
%ADD11C,0.090000*%
%ADD12C,0.100000*%
G04 APERTURE END LIST*
D10*
G04 #@! TO.C,J27*
X96790476Y103347620D02*
X96790476Y102633334D01*
X96742857Y102490477D01*
X96647619Y102395239D01*
X96504761Y102347620D01*
X96409523Y102347620D01*
X97219047Y103252381D02*
X97266666Y103300000D01*
X97361904Y103347620D01*
X97600000Y103347620D01*
X97695238Y103300000D01*
X97742857Y103252381D01*
X97790476Y103157143D01*
X97790476Y103061905D01*
X97742857Y102919048D01*
X97171428Y102347620D01*
X97790476Y102347620D01*
X98123809Y103347620D02*
X98790476Y103347620D01*
X98361904Y102347620D01*
G04 #@! TO.C,J19*
X62990476Y5547620D02*
X62990476Y4833334D01*
X62942857Y4690477D01*
X62847619Y4595239D01*
X62704761Y4547620D01*
X62609523Y4547620D01*
X63990476Y4547620D02*
X63419047Y4547620D01*
X63704761Y4547620D02*
X63704761Y5547620D01*
X63609523Y5404762D01*
X63514285Y5309524D01*
X63419047Y5261905D01*
X64466666Y4547620D02*
X64657142Y4547620D01*
X64752380Y4595239D01*
X64800000Y4642858D01*
X64895238Y4785715D01*
X64942857Y4976191D01*
X64942857Y5357143D01*
X64895238Y5452381D01*
X64847619Y5500000D01*
X64752380Y5547620D01*
X64561904Y5547620D01*
X64466666Y5500000D01*
X64419047Y5452381D01*
X64371428Y5357143D01*
X64371428Y5119048D01*
X64419047Y5023810D01*
X64466666Y4976191D01*
X64561904Y4928572D01*
X64752380Y4928572D01*
X64847619Y4976191D01*
X64895238Y5023810D01*
X64942857Y5119048D01*
G04 #@! TO.C,J18*
X3490476Y142547620D02*
X3490476Y141833334D01*
X3442857Y141690477D01*
X3347619Y141595239D01*
X3204761Y141547620D01*
X3109523Y141547620D01*
X4490476Y141547620D02*
X3919047Y141547620D01*
X4204761Y141547620D02*
X4204761Y142547620D01*
X4109523Y142404762D01*
X4014285Y142309524D01*
X3919047Y142261905D01*
X5061904Y142119048D02*
X4966666Y142166667D01*
X4919047Y142214286D01*
X4871428Y142309524D01*
X4871428Y142357143D01*
X4919047Y142452381D01*
X4966666Y142500000D01*
X5061904Y142547620D01*
X5252380Y142547620D01*
X5347619Y142500000D01*
X5395238Y142452381D01*
X5442857Y142357143D01*
X5442857Y142309524D01*
X5395238Y142214286D01*
X5347619Y142166667D01*
X5252380Y142119048D01*
X5061904Y142119048D01*
X4966666Y142071429D01*
X4919047Y142023810D01*
X4871428Y141928572D01*
X4871428Y141738096D01*
X4919047Y141642858D01*
X4966666Y141595239D01*
X5061904Y141547620D01*
X5252380Y141547620D01*
X5347619Y141595239D01*
X5395238Y141642858D01*
X5442857Y141738096D01*
X5442857Y141928572D01*
X5395238Y142023810D01*
X5347619Y142071429D01*
X5252380Y142119048D01*
G04 #@! TO.C,J20*
X62990476Y9647620D02*
X62990476Y8933334D01*
X62942857Y8790477D01*
X62847619Y8695239D01*
X62704761Y8647620D01*
X62609523Y8647620D01*
X63419047Y9552381D02*
X63466666Y9600000D01*
X63561904Y9647620D01*
X63800000Y9647620D01*
X63895238Y9600000D01*
X63942857Y9552381D01*
X63990476Y9457143D01*
X63990476Y9361905D01*
X63942857Y9219048D01*
X63371428Y8647620D01*
X63990476Y8647620D01*
X64609523Y9647620D02*
X64704761Y9647620D01*
X64800000Y9600000D01*
X64847619Y9552381D01*
X64895238Y9457143D01*
X64942857Y9266667D01*
X64942857Y9028572D01*
X64895238Y8838096D01*
X64847619Y8742858D01*
X64800000Y8695239D01*
X64704761Y8647620D01*
X64609523Y8647620D01*
X64514285Y8695239D01*
X64466666Y8742858D01*
X64419047Y8838096D01*
X64371428Y9028572D01*
X64371428Y9266667D01*
X64419047Y9457143D01*
X64466666Y9552381D01*
X64514285Y9600000D01*
X64609523Y9647620D01*
G04 #@! TO.C,J1*
X143366666Y121522620D02*
X143366666Y120808334D01*
X143319047Y120665477D01*
X143223809Y120570239D01*
X143080952Y120522620D01*
X142985714Y120522620D01*
X144366666Y120522620D02*
X143795238Y120522620D01*
X144080952Y120522620D02*
X144080952Y121522620D01*
X143985714Y121379762D01*
X143890476Y121284524D01*
X143795238Y121236905D01*
G04 #@! TO.C,J5*
X141849166Y105947620D02*
X141849166Y105233334D01*
X141801547Y105090477D01*
X141706309Y104995239D01*
X141563452Y104947620D01*
X141468214Y104947620D01*
X142801547Y105947620D02*
X142325357Y105947620D01*
X142277738Y105471429D01*
X142325357Y105519048D01*
X142420595Y105566667D01*
X142658690Y105566667D01*
X142753928Y105519048D01*
X142801547Y105471429D01*
X142849166Y105376191D01*
X142849166Y105138096D01*
X142801547Y105042858D01*
X142753928Y104995239D01*
X142658690Y104947620D01*
X142420595Y104947620D01*
X142325357Y104995239D01*
X142277738Y105042858D01*
G04 #@! TO.C,J3*
X82696026Y7752500D02*
X82696026Y7038214D01*
X82648407Y6895357D01*
X82553169Y6800119D01*
X82410312Y6752500D01*
X82315074Y6752500D01*
X83076979Y7752500D02*
X83696026Y7752500D01*
X83362693Y7371547D01*
X83505550Y7371547D01*
X83600788Y7323928D01*
X83648407Y7276309D01*
X83696026Y7181071D01*
X83696026Y6942976D01*
X83648407Y6847738D01*
X83600788Y6800119D01*
X83505550Y6752500D01*
X83219836Y6752500D01*
X83124598Y6800119D01*
X83076979Y6847738D01*
G04 #@! TO.C,J13*
X3490476Y19047620D02*
X3490476Y18333334D01*
X3442857Y18190477D01*
X3347619Y18095239D01*
X3204761Y18047620D01*
X3109523Y18047620D01*
X4490476Y18047620D02*
X3919047Y18047620D01*
X4204761Y18047620D02*
X4204761Y19047620D01*
X4109523Y18904762D01*
X4014285Y18809524D01*
X3919047Y18761905D01*
X4823809Y19047620D02*
X5442857Y19047620D01*
X5109523Y18666667D01*
X5252380Y18666667D01*
X5347619Y18619048D01*
X5395238Y18571429D01*
X5442857Y18476191D01*
X5442857Y18238096D01*
X5395238Y18142858D01*
X5347619Y18095239D01*
X5252380Y18047620D01*
X4966666Y18047620D01*
X4871428Y18095239D01*
X4823809Y18142858D01*
G04 #@! TO.C,J12*
X3490476Y78047620D02*
X3490476Y77333334D01*
X3442857Y77190477D01*
X3347619Y77095239D01*
X3204761Y77047620D01*
X3109523Y77047620D01*
X4490476Y77047620D02*
X3919047Y77047620D01*
X4204761Y77047620D02*
X4204761Y78047620D01*
X4109523Y77904762D01*
X4014285Y77809524D01*
X3919047Y77761905D01*
X4871428Y77952381D02*
X4919047Y78000000D01*
X5014285Y78047620D01*
X5252380Y78047620D01*
X5347619Y78000000D01*
X5395238Y77952381D01*
X5442857Y77857143D01*
X5442857Y77761905D01*
X5395238Y77619048D01*
X4823809Y77047620D01*
X5442857Y77047620D01*
G04 #@! TO.C,J22*
X62990476Y17947620D02*
X62990476Y17233334D01*
X62942857Y17090477D01*
X62847619Y16995239D01*
X62704761Y16947620D01*
X62609523Y16947620D01*
X63419047Y17852381D02*
X63466666Y17900000D01*
X63561904Y17947620D01*
X63800000Y17947620D01*
X63895238Y17900000D01*
X63942857Y17852381D01*
X63990476Y17757143D01*
X63990476Y17661905D01*
X63942857Y17519048D01*
X63371428Y16947620D01*
X63990476Y16947620D01*
X64371428Y17852381D02*
X64419047Y17900000D01*
X64514285Y17947620D01*
X64752380Y17947620D01*
X64847619Y17900000D01*
X64895238Y17852381D01*
X64942857Y17757143D01*
X64942857Y17661905D01*
X64895238Y17519048D01*
X64323809Y16947620D01*
X64942857Y16947620D01*
G04 #@! TO.C,BT1*
X29114285Y17571429D02*
X29257142Y17523810D01*
X29304761Y17476191D01*
X29352380Y17380953D01*
X29352380Y17238096D01*
X29304761Y17142858D01*
X29257142Y17095239D01*
X29161904Y17047620D01*
X28780952Y17047620D01*
X28780952Y18047620D01*
X29114285Y18047620D01*
X29209523Y18000000D01*
X29257142Y17952381D01*
X29304761Y17857143D01*
X29304761Y17761905D01*
X29257142Y17666667D01*
X29209523Y17619048D01*
X29114285Y17571429D01*
X28780952Y17571429D01*
X29638095Y18047620D02*
X30209523Y18047620D01*
X29923809Y17047620D02*
X29923809Y18047620D01*
X31066666Y17047620D02*
X30495238Y17047620D01*
X30780952Y17047620D02*
X30780952Y18047620D01*
X30685714Y17904762D01*
X30590476Y17809524D01*
X30495238Y17761905D01*
G04 #@! TO.C,J25*
X137452380Y89990477D02*
X138166666Y89990477D01*
X138309523Y89942858D01*
X138404761Y89847620D01*
X138452380Y89704762D01*
X138452380Y89609524D01*
X137547619Y90419048D02*
X137500000Y90466667D01*
X137452380Y90561905D01*
X137452380Y90800000D01*
X137500000Y90895239D01*
X137547619Y90942858D01*
X137642857Y90990477D01*
X137738095Y90990477D01*
X137880952Y90942858D01*
X138452380Y90371429D01*
X138452380Y90990477D01*
X137452380Y91895239D02*
X137452380Y91419048D01*
X137928571Y91371429D01*
X137880952Y91419048D01*
X137833333Y91514286D01*
X137833333Y91752381D01*
X137880952Y91847620D01*
X137928571Y91895239D01*
X138023809Y91942858D01*
X138261904Y91942858D01*
X138357142Y91895239D01*
X138404761Y91847620D01*
X138452380Y91752381D01*
X138452380Y91514286D01*
X138404761Y91419048D01*
X138357142Y91371429D01*
G04 #@! TO.C,J17*
X136091176Y5454680D02*
X136091176Y4740394D01*
X136043557Y4597537D01*
X135948319Y4502299D01*
X135805461Y4454680D01*
X135710223Y4454680D01*
X137091176Y4454680D02*
X136519747Y4454680D01*
X136805461Y4454680D02*
X136805461Y5454680D01*
X136710223Y5311822D01*
X136614985Y5216584D01*
X136519747Y5168965D01*
X137424509Y5454680D02*
X138091176Y5454680D01*
X137662604Y4454680D01*
G04 #@! TO.C,U3*
X125963333Y87053334D02*
X126756666Y87053334D01*
X126850000Y87100000D01*
X126896666Y87146667D01*
X126943333Y87240000D01*
X126943333Y87426667D01*
X126896666Y87520000D01*
X126850000Y87566667D01*
X126756666Y87613334D01*
X125963333Y87613334D01*
X125963333Y87986667D02*
X125963333Y88593334D01*
X126336666Y88266667D01*
X126336666Y88406667D01*
X126383333Y88500000D01*
X126430000Y88546667D01*
X126523333Y88593334D01*
X126756666Y88593334D01*
X126850000Y88546667D01*
X126896666Y88500000D01*
X126943333Y88406667D01*
X126943333Y88126667D01*
X126896666Y88033334D01*
X126850000Y87986667D01*
D11*
G04 #@! TO.C,U4*
X135127619Y17464524D02*
X135127619Y16962620D01*
X135157142Y16903572D01*
X135186666Y16874048D01*
X135245714Y16844524D01*
X135363809Y16844524D01*
X135422857Y16874048D01*
X135452380Y16903572D01*
X135481904Y16962620D01*
X135481904Y17464524D01*
X136042857Y17257858D02*
X136042857Y16844524D01*
X135895238Y17494048D02*
X135747619Y17051191D01*
X136131428Y17051191D01*
D10*
G04 #@! TO.C,J11*
X16490476Y154747620D02*
X16490476Y154033334D01*
X16442857Y153890477D01*
X16347619Y153795239D01*
X16204761Y153747620D01*
X16109523Y153747620D01*
X17490476Y153747620D02*
X16919047Y153747620D01*
X17204761Y153747620D02*
X17204761Y154747620D01*
X17109523Y154604762D01*
X17014285Y154509524D01*
X16919047Y154461905D01*
X18442857Y153747620D02*
X17871428Y153747620D01*
X18157142Y153747620D02*
X18157142Y154747620D01*
X18061904Y154604762D01*
X17966666Y154509524D01*
X17871428Y154461905D01*
G04 #@! TO.C,J4*
X108619026Y14061500D02*
X108619026Y13347214D01*
X108571407Y13204357D01*
X108476169Y13109119D01*
X108333312Y13061500D01*
X108238074Y13061500D01*
X109523788Y13728166D02*
X109523788Y13061500D01*
X109285693Y14109119D02*
X109047598Y13394833D01*
X109666645Y13394833D01*
G04 #@! TO.C,J21*
X62990476Y13747620D02*
X62990476Y13033334D01*
X62942857Y12890477D01*
X62847619Y12795239D01*
X62704761Y12747620D01*
X62609523Y12747620D01*
X63419047Y13652381D02*
X63466666Y13700000D01*
X63561904Y13747620D01*
X63800000Y13747620D01*
X63895238Y13700000D01*
X63942857Y13652381D01*
X63990476Y13557143D01*
X63990476Y13461905D01*
X63942857Y13319048D01*
X63371428Y12747620D01*
X63990476Y12747620D01*
X64942857Y12747620D02*
X64371428Y12747620D01*
X64657142Y12747620D02*
X64657142Y13747620D01*
X64561904Y13604762D01*
X64466666Y13509524D01*
X64371428Y13461905D01*
G04 #@! TO.C,J2*
X130902380Y107566667D02*
X131616666Y107566667D01*
X131759523Y107519048D01*
X131854761Y107423810D01*
X131902380Y107280953D01*
X131902380Y107185715D01*
X130997619Y107995239D02*
X130950000Y108042858D01*
X130902380Y108138096D01*
X130902380Y108376191D01*
X130950000Y108471429D01*
X130997619Y108519048D01*
X131092857Y108566667D01*
X131188095Y108566667D01*
X131330952Y108519048D01*
X131902380Y107947620D01*
X131902380Y108566667D01*
D12*
G04 #@! TO.C,P5*
X61130700Y40434880D02*
X61130700Y42339880D01*
X61130700Y42339880D02*
X61765700Y42974880D01*
X63670700Y42974880D02*
X63670700Y40434880D01*
X61765700Y42974880D02*
X63670700Y42974880D01*
X63670700Y40434880D02*
X61130700Y40434880D01*
G04 #@! TO.C,P6*
X61765700Y50477060D02*
X63670700Y50477060D01*
X61130700Y47937060D02*
X61130700Y49842060D01*
X63670700Y50477060D02*
X63670700Y47937060D01*
X63670700Y47937060D02*
X61130700Y47937060D01*
X61130700Y49842060D02*
X61765700Y50477060D01*
G04 #@! TO.C,P47*
X60580960Y133530000D02*
X58040960Y133530000D01*
X60580960Y136070000D02*
X60580960Y133530000D01*
X58040960Y133530000D02*
X58040960Y135435000D01*
X58040960Y135435000D02*
X58675960Y136070000D01*
X58675960Y136070000D02*
X60580960Y136070000D01*
G04 #@! TO.C,J27*
X105220000Y101530000D02*
X89980000Y101530000D01*
X89980000Y101530000D02*
X89980000Y104070000D01*
X105220000Y103435000D02*
X105220000Y101530000D01*
X104585000Y104070000D02*
X105220000Y103435000D01*
X89980000Y104070000D02*
X104585000Y104070000D01*
G04 #@! TO.C,P10*
X43930000Y83530000D02*
X43930000Y85435000D01*
X46470000Y83530000D02*
X43930000Y83530000D01*
X46470000Y86070000D02*
X46470000Y83530000D01*
X43930000Y85435000D02*
X44565000Y86070000D01*
X44565000Y86070000D02*
X46470000Y86070000D01*
G04 #@! TO.C,P12*
X31070000Y86070000D02*
X31070000Y83530000D01*
X31070000Y83530000D02*
X28530000Y83530000D01*
X29165000Y86070000D02*
X31070000Y86070000D01*
X28530000Y85435000D02*
X29165000Y86070000D01*
X28530000Y83530000D02*
X28530000Y85435000D01*
G04 #@! TO.C,P16*
X68030000Y74730000D02*
X68030000Y77270000D01*
X69935000Y77270000D02*
X70570000Y76635000D01*
X68030000Y77270000D02*
X69935000Y77270000D01*
X70570000Y76635000D02*
X70570000Y74730000D01*
X70570000Y74730000D02*
X68030000Y74730000D01*
G04 #@! TO.C,P15*
X48635000Y80730000D02*
X46730000Y80730000D01*
X46730000Y83270000D02*
X49270000Y83270000D01*
X49270000Y83270000D02*
X49270000Y81365000D01*
X46730000Y80730000D02*
X46730000Y83270000D01*
X49270000Y81365000D02*
X48635000Y80730000D01*
G04 #@! TO.C,P56*
X105780960Y136065000D02*
X105780960Y134160000D01*
X103240960Y133525000D02*
X103240960Y136065000D01*
X105145960Y133525000D02*
X103240960Y133525000D01*
X105780960Y134160000D02*
X105145960Y133525000D01*
X103240960Y136065000D02*
X105780960Y136065000D01*
G04 #@! TO.C,P52*
X130045960Y133525000D02*
X128140960Y133525000D01*
X130680960Y134160000D02*
X130045960Y133525000D01*
X128140960Y133525000D02*
X128140960Y136065000D01*
X130680960Y136065000D02*
X130680960Y134160000D01*
X128140960Y136065000D02*
X130680960Y136065000D01*
G04 #@! TO.C,P36*
X106730000Y85130000D02*
X106730000Y87670000D01*
X109270000Y87670000D02*
X109270000Y85765000D01*
X109270000Y85765000D02*
X108635000Y85130000D01*
X106730000Y87670000D02*
X109270000Y87670000D01*
X108635000Y85130000D02*
X106730000Y85130000D01*
G04 #@! TO.C,P44*
X88230000Y84730000D02*
X88230000Y87270000D01*
X90770000Y86635000D02*
X90770000Y84730000D01*
X90770000Y84730000D02*
X88230000Y84730000D01*
X88230000Y87270000D02*
X90135000Y87270000D01*
X90135000Y87270000D02*
X90770000Y86635000D01*
G04 #@! TO.C,P13*
X31430000Y83170000D02*
X33970000Y83170000D01*
X33970000Y81265000D02*
X33335000Y80630000D01*
X31430000Y80630000D02*
X31430000Y83170000D01*
X33970000Y83170000D02*
X33970000Y81265000D01*
X33335000Y80630000D02*
X31430000Y80630000D01*
G04 #@! TO.C,P26*
X77930700Y80930880D02*
X77930700Y83470880D01*
X79835700Y80930880D02*
X77930700Y80930880D01*
X80470700Y81565880D02*
X79835700Y80930880D01*
X80470700Y83470880D02*
X80470700Y81565880D01*
X77930700Y83470880D02*
X80470700Y83470880D01*
G04 #@! TO.C,P29*
X119730000Y47635000D02*
X120365000Y48270000D01*
X122270000Y45730000D02*
X119730000Y45730000D01*
X120365000Y48270000D02*
X122270000Y48270000D01*
X119730000Y45730000D02*
X119730000Y47635000D01*
X122270000Y48270000D02*
X122270000Y45730000D01*
D10*
G04 #@! TO.C,J1*
X140000000Y119375000D02*
X140000000Y122875000D01*
X144500000Y122875000D02*
X140000000Y122875000D01*
X140000000Y119375000D02*
X147200000Y119375000D01*
X147200000Y122875000D02*
X147200000Y119375000D01*
X145900000Y122875000D02*
X145200000Y122175000D01*
X145200000Y122175000D02*
X144500000Y122875000D01*
X147200000Y122875000D02*
X145900000Y122875000D01*
D12*
G04 #@! TO.C,P30*
X121635000Y42894880D02*
X119730000Y42894880D01*
X119730000Y45434880D02*
X122270000Y45434880D01*
X122270000Y43529880D02*
X121635000Y42894880D01*
X122270000Y45434880D02*
X122270000Y43529880D01*
X119730000Y42894880D02*
X119730000Y45434880D01*
G04 #@! TO.C,J5*
X134932500Y111450000D02*
X150432500Y111450000D01*
X150432500Y99350000D02*
X133932500Y99350000D01*
X150432500Y111450000D02*
X150432500Y99350000D01*
X133932500Y99350000D02*
X133932500Y110450000D01*
X133932500Y110450000D02*
X134932500Y111450000D01*
G04 #@! TO.C,P4*
X66480960Y50474880D02*
X66480960Y47934880D01*
X64575960Y50474880D02*
X66480960Y50474880D01*
X66480960Y47934880D02*
X63940960Y47934880D01*
X63940960Y49839880D02*
X64575960Y50474880D01*
X63940960Y47934880D02*
X63940960Y49839880D01*
G04 #@! TO.C,P25*
X122730000Y45434880D02*
X125270000Y45434880D01*
X122730000Y42894880D02*
X122730000Y45434880D01*
X124635000Y42894880D02*
X122730000Y42894880D01*
X125270000Y43529880D02*
X124635000Y42894880D01*
X125270000Y45434880D02*
X125270000Y43529880D01*
G04 #@! TO.C,P55*
X108345560Y133524120D02*
X106440560Y133524120D01*
X106440560Y136064120D02*
X108980560Y136064120D01*
X108980560Y136064120D02*
X108980560Y134159120D01*
X106440560Y133524120D02*
X106440560Y136064120D01*
X108980560Y134159120D02*
X108345560Y133524120D01*
G04 #@! TO.C,P17*
X70570000Y68235000D02*
X70570000Y66330000D01*
X68030000Y66330000D02*
X68030000Y68870000D01*
X68030000Y68870000D02*
X69935000Y68870000D01*
X69935000Y68870000D02*
X70570000Y68235000D01*
X70570000Y66330000D02*
X68030000Y66330000D01*
G04 #@! TO.C,P33*
X91130000Y89535000D02*
X91765000Y90170000D01*
X91130000Y87630000D02*
X91130000Y89535000D01*
X93670000Y90170000D02*
X93670000Y87630000D01*
X91765000Y90170000D02*
X93670000Y90170000D01*
X93670000Y87630000D02*
X91130000Y87630000D01*
G04 #@! TO.C,J3*
X75409360Y6569880D02*
X75409360Y8474880D01*
X90649360Y5934880D02*
X76044360Y5934880D01*
X75409360Y8474880D02*
X90649360Y8474880D01*
X76044360Y5934880D02*
X75409360Y6569880D01*
X90649360Y8474880D02*
X90649360Y5934880D01*
G04 #@! TO.C,P11*
X31070000Y83170000D02*
X31070000Y81265000D01*
X28530000Y80630000D02*
X28530000Y83170000D01*
X30435000Y80630000D02*
X28530000Y80630000D01*
X28530000Y83170000D02*
X31070000Y83170000D01*
X31070000Y81265000D02*
X30435000Y80630000D01*
G04 #@! TO.C,P50*
X55330960Y131070880D02*
X55330960Y128530880D01*
X53425960Y131070880D02*
X55330960Y131070880D01*
X55330960Y128530880D02*
X52790960Y128530880D01*
X52790960Y128530880D02*
X52790960Y130435880D01*
X52790960Y130435880D02*
X53425960Y131070880D01*
G04 #@! TO.C,P28*
X83281360Y81565880D02*
X82646360Y80930880D01*
X82646360Y80930880D02*
X80741360Y80930880D01*
X80741360Y80930880D02*
X80741360Y83470880D01*
X83281360Y83470880D02*
X83281360Y81565880D01*
X80741360Y83470880D02*
X83281360Y83470880D01*
G04 #@! TO.C,P24*
X125270000Y45730000D02*
X122730000Y45730000D01*
X122730000Y45730000D02*
X122730000Y47635000D01*
X125270000Y48270000D02*
X125270000Y45730000D01*
X122730000Y47635000D02*
X123365000Y48270000D01*
X123365000Y48270000D02*
X125270000Y48270000D01*
G04 #@! TO.C,P40*
X80470000Y86270000D02*
X80470000Y83730000D01*
X77930000Y85635000D02*
X78565000Y86270000D01*
X80470000Y83730000D02*
X77930000Y83730000D01*
X77930000Y83730000D02*
X77930000Y85635000D01*
X78565000Y86270000D02*
X80470000Y86270000D01*
G04 #@! TO.C,P48*
X60040960Y129570000D02*
X62580960Y129570000D01*
X61945960Y127030000D02*
X60040960Y127030000D01*
X60040960Y127030000D02*
X60040960Y129570000D01*
X62580960Y129570000D02*
X62580960Y127665000D01*
X62580960Y127665000D02*
X61945960Y127030000D01*
G04 #@! TO.C,P8*
X100230000Y85130000D02*
X100230000Y87035000D01*
X100230000Y87035000D02*
X100865000Y87670000D01*
X100865000Y87670000D02*
X102770000Y87670000D01*
X102770000Y85130000D02*
X100230000Y85130000D01*
X102770000Y87670000D02*
X102770000Y85130000D01*
G04 #@! TO.C,P32*
X119270000Y45434880D02*
X119270000Y43529880D01*
X118635000Y42894880D02*
X116730000Y42894880D01*
X119270000Y43529880D02*
X118635000Y42894880D01*
X116730000Y45434880D02*
X119270000Y45434880D01*
X116730000Y42894880D02*
X116730000Y45434880D01*
G04 #@! TO.C,U1*
X62900000Y35400000D02*
X64900000Y35400000D01*
X64900000Y33900000D02*
X64400000Y33400000D01*
X64400000Y33400000D02*
X62900000Y33400000D01*
X62900000Y33400000D02*
X62900000Y35400000D01*
X64900000Y35400000D02*
X64900000Y33900000D01*
G04 #@! TO.C,BT1*
X44100000Y14000000D02*
X40900000Y14000000D01*
X18900000Y25500000D02*
X39300000Y25500000D01*
X18900000Y21000000D02*
X15700000Y21000000D01*
X18900000Y9500000D02*
X18900000Y14000000D01*
X18900000Y25500000D02*
X18900000Y21000000D01*
X40900000Y9500000D02*
X40900000Y14000000D01*
X40900000Y23900000D02*
X40900000Y21000000D01*
X15700000Y21000000D02*
X15700000Y14000000D01*
X40900000Y21000000D02*
X44100000Y21000000D01*
X44100000Y21000000D02*
X44100000Y14000000D01*
X18900000Y9500000D02*
X40900000Y9500000D01*
X15700000Y14000000D02*
X18900000Y14000000D01*
X39300000Y25500000D02*
X40900000Y23900000D01*
G04 #@! TO.C,P9*
X67770000Y71930000D02*
X65865000Y71930000D01*
X65865000Y71930000D02*
X65230000Y72565000D01*
X65230000Y72565000D02*
X65230000Y74470000D01*
X65230000Y74470000D02*
X67770000Y74470000D01*
X67770000Y74470000D02*
X67770000Y71930000D01*
G04 #@! TO.C,J25*
X146800000Y95000000D02*
X146800000Y93100000D01*
X132800000Y86800000D02*
X132800000Y95000000D01*
X146800000Y87100000D02*
X146800000Y86800000D01*
X150800000Y93100000D02*
X150800000Y87100000D01*
X150800000Y87100000D02*
X146800000Y87100000D01*
X146800000Y86800000D02*
X132800000Y86800000D01*
X132800000Y95000000D02*
X146800000Y95000000D01*
X146800000Y93100000D02*
X150800000Y93100000D01*
G04 #@! TO.C,P46*
X66080960Y127665000D02*
X65445960Y127030000D01*
X66080960Y129570000D02*
X66080960Y127665000D01*
X65445960Y127030000D02*
X63540960Y127030000D01*
X63540960Y129570000D02*
X66080960Y129570000D01*
X63540960Y127030000D02*
X63540960Y129570000D01*
G04 #@! TO.C,P23*
X46730000Y85435000D02*
X47365000Y86070000D01*
X47365000Y86070000D02*
X49270000Y86070000D01*
X46730000Y83530000D02*
X46730000Y85435000D01*
X49270000Y83530000D02*
X46730000Y83530000D01*
X49270000Y86070000D02*
X49270000Y83530000D01*
G04 #@! TO.C,U3*
X127975000Y89750000D02*
X128950000Y88775000D01*
X128950000Y88775000D02*
X128950000Y85850000D01*
X124050000Y89750000D02*
X127975000Y89750000D01*
X128950000Y85850000D02*
X124050000Y85850000D01*
X124050000Y85850000D02*
X124050000Y89750000D01*
G04 #@! TO.C,U4*
X134350000Y15875000D02*
X134350000Y17750000D01*
X136850000Y15875000D02*
X134350000Y15875000D01*
X136850000Y18375000D02*
X136850000Y15875000D01*
X134975000Y18375000D02*
X136850000Y18375000D01*
X134350000Y17750000D02*
X134975000Y18375000D01*
G04 #@! TO.C,P45*
X88230000Y87630000D02*
X88230000Y89535000D01*
X90770000Y90170000D02*
X90770000Y87630000D01*
X88230000Y89535000D02*
X88865000Y90170000D01*
X88865000Y90170000D02*
X90770000Y90170000D01*
X90770000Y87630000D02*
X88230000Y87630000D01*
G04 #@! TO.C,P3*
X66480960Y42974880D02*
X66480960Y40434880D01*
X64575960Y42974880D02*
X66480960Y42974880D01*
X63940960Y40434880D02*
X63940960Y42339880D01*
X63940960Y42339880D02*
X64575960Y42974880D01*
X66480960Y40434880D02*
X63940960Y40434880D01*
G04 #@! TO.C,P14*
X31430000Y85413880D02*
X32065000Y86048880D01*
X33970000Y86048880D02*
X33970000Y83508880D01*
X33970000Y83508880D02*
X31430000Y83508880D01*
X31430000Y83508880D02*
X31430000Y85413880D01*
X32065000Y86048880D02*
X33970000Y86048880D01*
G04 #@! TO.C,P34*
X106730000Y89835000D02*
X107365000Y90470000D01*
X109270000Y87930000D02*
X106730000Y87930000D01*
X107365000Y90470000D02*
X109270000Y90470000D01*
X106730000Y87930000D02*
X106730000Y89835000D01*
X109270000Y90470000D02*
X109270000Y87930000D01*
G04 #@! TO.C,P22*
X69935000Y74470000D02*
X70570000Y73835000D01*
X70570000Y73835000D02*
X70570000Y71930000D01*
X68030000Y74470000D02*
X69935000Y74470000D01*
X70570000Y71930000D02*
X68030000Y71930000D01*
X68030000Y71930000D02*
X68030000Y74470000D01*
G04 #@! TO.C,P20*
X65230000Y75365000D02*
X65230000Y77270000D01*
X65865000Y74730000D02*
X65230000Y75365000D01*
X65230000Y77270000D02*
X67770000Y77270000D01*
X67770000Y74730000D02*
X65865000Y74730000D01*
X67770000Y77270000D02*
X67770000Y74730000D01*
G04 #@! TO.C,P18*
X65865000Y69130000D02*
X65230000Y69765000D01*
X67770000Y71670000D02*
X67770000Y69130000D01*
X65230000Y71670000D02*
X67770000Y71670000D01*
X67770000Y69130000D02*
X65865000Y69130000D01*
X65230000Y69765000D02*
X65230000Y71670000D01*
G04 #@! TO.C,P53*
X118640960Y133525000D02*
X118640960Y136065000D01*
X120545960Y133525000D02*
X118640960Y133525000D01*
X121180960Y136065000D02*
X121180960Y134160000D01*
X121180960Y134160000D02*
X120545960Y133525000D01*
X118640960Y136065000D02*
X121180960Y136065000D01*
G04 #@! TO.C,J4*
X93712360Y10973880D02*
X93712360Y16053880D01*
X122922360Y16053880D02*
X124192360Y14783880D01*
X124192360Y14783880D02*
X124192360Y10973880D01*
X93712360Y16053880D02*
X122922360Y16053880D01*
X124192360Y10973880D02*
X93712360Y10973880D01*
G04 #@! TO.C,P7*
X37998160Y130570000D02*
X37998160Y128665000D01*
X35458160Y130570000D02*
X37998160Y130570000D01*
X37363160Y128030000D02*
X35458160Y128030000D01*
X35458160Y128030000D02*
X35458160Y130570000D01*
X37998160Y128665000D02*
X37363160Y128030000D01*
G04 #@! TO.C,P41*
X106270000Y85765000D02*
X105635000Y85130000D01*
X106270000Y87670000D02*
X106270000Y85765000D01*
X105635000Y85130000D02*
X103730000Y85130000D01*
X103730000Y87670000D02*
X106270000Y87670000D01*
X103730000Y85130000D02*
X103730000Y87670000D01*
G04 #@! TO.C,P27*
X81376360Y86277060D02*
X83281360Y86277060D01*
X83281360Y86277060D02*
X83281360Y83737060D01*
X83281360Y83737060D02*
X80741360Y83737060D01*
X80741360Y83737060D02*
X80741360Y85642060D01*
X80741360Y85642060D02*
X81376360Y86277060D01*
G04 #@! TO.C,P38*
X103730000Y87930000D02*
X103730000Y89835000D01*
X106270000Y87930000D02*
X103730000Y87930000D01*
X106270000Y90470000D02*
X106270000Y87930000D01*
X103730000Y89835000D02*
X104365000Y90470000D01*
X104365000Y90470000D02*
X106270000Y90470000D01*
G04 #@! TO.C,P1*
X108229364Y95870000D02*
X110769364Y95870000D01*
X108229364Y93330000D02*
X108229364Y95870000D01*
X110769364Y93965000D02*
X110134364Y93330000D01*
X110769364Y95870000D02*
X110769364Y93965000D01*
X110134364Y93330000D02*
X108229364Y93330000D01*
G04 #@! TO.C,P49*
X54580960Y136070000D02*
X54580960Y133530000D01*
X52040960Y133530000D02*
X52040960Y135435000D01*
X52040960Y135435000D02*
X52675960Y136070000D01*
X54580960Y133530000D02*
X52040960Y133530000D01*
X52675960Y136070000D02*
X54580960Y136070000D01*
G04 #@! TO.C,P31*
X116730000Y47635000D02*
X117365000Y48270000D01*
X116730000Y45730000D02*
X116730000Y47635000D01*
X119270000Y48270000D02*
X119270000Y45730000D01*
X119270000Y45730000D02*
X116730000Y45730000D01*
X117365000Y48270000D02*
X119270000Y48270000D01*
G04 #@! TO.C,P43*
X85865000Y90170000D02*
X87770000Y90170000D01*
X85230000Y87630000D02*
X85230000Y89535000D01*
X85230000Y89535000D02*
X85865000Y90170000D01*
X87770000Y90170000D02*
X87770000Y87630000D01*
X87770000Y87630000D02*
X85230000Y87630000D01*
G04 #@! TO.C,P51*
X44540960Y129570000D02*
X47080960Y129570000D01*
X46445960Y127030000D02*
X44540960Y127030000D01*
X47080960Y127665000D02*
X46445960Y127030000D01*
X44540960Y127030000D02*
X44540960Y129570000D01*
X47080960Y129570000D02*
X47080960Y127665000D01*
G04 #@! TO.C,P37*
X112270000Y87930000D02*
X109730000Y87930000D01*
X112270000Y90470000D02*
X112270000Y87930000D01*
X109730000Y89835000D02*
X110365000Y90470000D01*
X109730000Y87930000D02*
X109730000Y89835000D01*
X110365000Y90470000D02*
X112270000Y90470000D01*
G04 #@! TO.C,J2*
X127957107Y112900000D02*
X127250000Y112400000D01*
X127250000Y115350000D02*
X127250000Y101450000D01*
X127250000Y113400000D02*
X127957107Y112900000D01*
X132150000Y100450000D02*
X132150000Y115350000D01*
X132150000Y115350000D02*
X127250000Y115350000D01*
X128250000Y100450000D02*
X132150000Y100450000D01*
X127250000Y101450000D02*
X128250000Y100450000D01*
G04 #@! TD*
M02*
