M48
; DRILL file {KiCad (5.99.0-9713-g2bc22de1a5)} date 04/16/21 09:02:31
; FORMAT={-:-/ absolute / inch / decimal}
; #@! TF.CreationDate,2021-04-16T09:02:31-04:00
; #@! TF.GenerationSoftware,Kicad,Pcbnew,(5.99.0-9713-g2bc22de1a5)
FMAT,2
INCH
; #@! TA.AperFunction,ComponentDrill
T1C0.0118
; #@! TA.AperFunction,ViaDrill
T2C0.0118
; #@! TA.AperFunction,ComponentDrill
T3C0.0118
; #@! TA.AperFunction,ViaDrill
T4C0.0120
; #@! TA.AperFunction,ViaDrill
T5C0.0130
; #@! TA.AperFunction,ViaDrill
T6C0.0197
; #@! TA.AperFunction,ComponentDrill
T7C0.0276
; #@! TA.AperFunction,ComponentDrill
T8C0.0320
; #@! TA.AperFunction,ComponentDrill
T9C0.0335
; #@! TA.AperFunction,ComponentDrill
T10C0.0362
; #@! TA.AperFunction,ComponentDrill
T11C0.0394
; #@! TA.AperFunction,ComponentDrill
T12C0.0433
; #@! TA.AperFunction,ComponentDrill
T13C0.0787
; #@! TA.AperFunction,ComponentDrill
T14C0.0906
; #@! TA.AperFunction,ComponentDrill
T15C0.1200
; #@! TA.AperFunction,ComponentDrill
T16C0.1378
; #@! TA.AperFunction,ComponentDrill
T17C0.1890
; #@! TA.AperFunction,MechanicalDrill
T18C0.0591
%
G90
G05
T1
; pad hole
X0.5906Y5.3338
X0.5915Y4.5507
X0.5915Y4.1216
X0.5915Y3.5625
X0.5915Y3.0797
X0.6428Y5.01
X0.7411Y3.1344
X0.8488Y5.0107
X0.8682Y5.0848
X0.9125Y4.7954
X2.3448Y4.0421
X2.3654Y4.0766
X2.395Y4.0303
X2.5347Y4.0333
X2.9751Y0.9287
X3.0371Y0.7356
X3.2034Y0.7092
X3.2497Y0.7092
X3.3353Y0.7092
X3.4229Y0.7092
X3.5372Y0.736
X4.0587Y0.9045
X4.0617Y0.7647
X4.0705Y0.9547
X4.105Y0.934
X4.6614Y1.3432
X4.6614Y1.2664
X4.6614Y1.164
X4.713Y1.3176
X4.7307Y1.2536
X4.7336Y1.1473
X4.7336Y1.2201
X4.7342Y1.0725
X4.7421Y1.1857
X4.8947Y1.0607
T2
; via hole
X0.0984Y5.315
X0.0984Y5.0197
X0.0984Y4.5276
X0.0984Y4.0354
X0.0984Y3.4449
X0.0984Y2.7559
X0.0984Y2.1654
X0.0984Y1.6732
X0.0984Y0.9843
X0.3937Y5.8071
X0.3937Y0.5906
X0.4528Y1.9685
X0.4567Y5.1654
X0.4567Y4.7638
X0.4567Y4.2756
X0.4567Y3.7244
X0.4606Y3.2992
X0.4606Y2.7441
X0.4646Y1.0709
X0.5Y5.4646
X0.5354Y4.7244
X0.5354Y3.4094
X0.5433Y5.2795
X0.5433Y5.0827
X0.5433Y2.9685
X0.5472Y4.4803
X0.5472Y4.0315
X0.5827Y4.6457
X0.5827Y1.815
X0.5827Y0.9646
X0.5945Y1.3583
X0.5984Y2.2953
X0.6732Y0.5157
X0.6811Y5.6772
X0.689Y2.126
X0.689Y1.5709
X0.689Y0.0984
X0.6929Y1.1417
X0.7008Y3.0157
X0.7047Y4.7126
X0.7047Y2.8386
X0.7323Y0.7874
X0.8031Y3.0197
X0.8701Y4.6772
X0.8858Y5.7087
X0.8858Y4.1339
X0.8858Y3.6811
X0.8937Y3.4646
X0.9134Y3.3346
X0.9409Y4.1732
X0.9449Y4.4567
X0.9449Y3.8661
X0.9488Y3.563
X0.9528Y4.6024
X0.9685Y4.8819
X0.9685Y4.7795
X0.9724Y2.9055
X0.9843Y6.2992
X1.0039Y4.3465
X1.0079Y0.5197
X1.0236Y5.4843
X1.0394Y3.6969
X1.0945Y4.437
X1.1024Y5.7953
X1.1024Y4.0433
X1.1181Y1.7795
X1.122Y2.7402
X1.126Y2.2795
X1.1299Y1.5591
X1.1378Y3.0866
X1.1417Y1.3858
X1.1496Y4.3071
X1.1732Y3.5669
X1.1772Y4.7795
X1.185Y4.8858
X1.2087Y0.2047
X1.2165Y3.4764
X1.2756Y4.7205
X1.2756Y4.0197
X1.2795Y3.9409
X1.2835Y3.7795
X1.3031Y4.5039
X1.315Y1.3622
X1.3268Y4.6811
X1.3268Y4.2677
X1.3346Y0.3071
X1.3386Y4.0591
X1.3425Y4.878
X1.3898Y4.4213
X1.3937Y0.8976
X1.4173Y3.5709
X1.4173Y3.3465
X1.4173Y3.1929
X1.4331Y4.122
X1.4528Y4.5906
X1.4646Y4.9173
X1.4764Y0.0984
X1.5118Y1.3622
X1.5276Y3.5669
X1.5276Y3.3622
X1.5354Y4.7638
X1.5354Y3.4764
X1.5433Y4.6063
X1.5472Y4.1929
X1.5512Y4.0669
X1.5551Y4.3425
X1.5669Y0.1929
X1.6102Y5.9094
X1.6575Y4.1457
X1.6732Y6.2992
X1.6732Y3.1929
X1.685Y3.5748
X1.7087Y4.374
X1.7244Y0.3031
X1.7362Y5.9016
X1.7402Y4.9685
X1.748Y5.1654
X1.7913Y1.374
X1.7992Y1.1929
X1.7992Y0.8189
X1.7992Y0.4173
X1.8031Y3.937
X1.8071Y3.4803
X1.811Y4.8346
X1.8346Y5.1614
X1.8465Y3.6299
X1.8858Y5.8976
X1.8898Y3.6811
X1.9016Y6.2008
X1.9528Y3.622
X1.9567Y3.9606
X1.9606Y5.1811
X1.9724Y0.5827
X1.9843Y1.374
X2.0039Y3.4724
X2.0157Y6.1732
X2.0157Y3.7953
X2.0315Y4.6339
X2.0315Y3.5787
X2.0354Y4.1181
X2.0433Y0.1929
X2.0551Y4.3661
X2.063Y3.2008
X2.0669Y6.2992
X2.0669Y5.9094
X2.0906Y4.0121
X2.0984Y5.2087
X2.1417Y6.1417
X2.1417Y3.2126
X2.1496Y3.4567
X2.1811Y4.5354
X2.1969Y0.3031
X2.2441Y0.5906
X2.248Y1.4016
X2.2598Y3.8031
X2.2638Y0.0984
X2.2835Y3.6378
X2.2874Y1.6535
X2.2874Y1.6102
X2.2874Y1.1417
X2.2874Y0.8228
X2.2913Y2.2913
X2.2953Y4.7323
X2.2992Y3.5079
X2.3071Y2.4567
X2.315Y3.2992
X2.3189Y2.5827
X2.3504Y5.2008
X2.3504Y1.4055
X2.3543Y2.6575
X2.3543Y2.2953
X2.3583Y3.7402
X2.3701Y1.6457
X2.3819Y3.4449
X2.3858Y6.0551
X2.4291Y2.5906
X2.4331Y3.6299
X2.437Y3.4016
X2.4528Y3.5039
X2.4764Y3.7441
X2.4764Y2.4921
X2.4764Y1.1732
X2.4764Y1.0748
X2.4843Y0.8307
X2.4882Y0.7283
X2.4921Y5.1535
X2.4961Y5.4921
X2.4961Y0.9016
X2.5394Y3.4488
X2.5433Y0.8346
X2.5512Y1.1772
X2.5748Y4.9488
X2.5787Y3.7126
X2.5827Y4.7441
X2.5866Y3.9409
X2.5906Y4.1496
X2.5945Y5.1811
X2.5945Y4.4528
X2.5945Y1.0512
X2.5984Y5.5315
X2.5984Y0.3307
X2.6142Y2.5079
X2.6142Y2.2756
X2.6181Y3.0866
X2.622Y5.7283
X2.622Y2.2087
X2.626Y1.8031
X2.6339Y2.5787
X2.6575Y1.185
X2.6772Y0.8307
X2.6969Y0.1339
X2.7126Y3.689
X2.7126Y1.2047
X2.7126Y0.6654
X2.7205Y5.5276
X2.7205Y2.4961
X2.7205Y2.2598
X2.7835Y5.5748
X2.8071Y3.4882
X2.811Y2.6732
X2.8346Y3.6693
X2.9291Y2.5748
X2.9291Y0.6929
X2.9331Y0.2795
X2.9409Y0.5591
X2.9449Y3.4843
X3.0197Y3.3976
X3.0236Y2.626
X3.0354Y2.9173
X3.0433Y6.0551
X3.0512Y6.2992
X3.0551Y3.0236
X3.1142Y2.9882
X3.1181Y3.3425
X3.185Y0.0354
X3.1857Y3.5623
X3.1969Y5.4882
X3.208Y3.54
X3.2323Y4.7165
X3.2323Y4.2874
X3.2323Y3.937
X3.2402Y5.2559
X3.2717Y5.7402
X3.3268Y5.2992
X3.3307Y4.9213
X3.3346Y3.9528
X3.3346Y3.6339
X3.3386Y4.8504
X3.3386Y4.563
X3.3465Y5.4449
X3.4173Y3.6614
X3.4567Y6.0591
X3.4803Y3.7444
X3.4882Y4.8465
X3.5118Y5.3583
X3.5157Y5.0354
X3.5354Y5.7323
X3.5472Y5.4567
X3.5472Y5.1929
X3.5669Y4.0906
X3.5787Y0.3819
X3.5866Y3.9882
X3.5945Y0.1299
X3.6102Y4.4764
X3.6142Y0.7047
X3.622Y4.8465
X3.6457Y5.5472
X3.6614Y5.7835
X3.685Y5.3622
X3.7008Y4.126
X3.7087Y5.0276
X3.7126Y0.1575
X3.7205Y1.0276
X3.7205Y0.8976
X3.7323Y5.6772
X3.7559Y0.3819
X3.8228Y0.2756
X3.8386Y4.5394
X3.8465Y0.7756
X3.8543Y1.0276
X3.8543Y0.8661
X3.874Y5.4764
X3.8976Y0.3937
X3.9055Y3.378
X3.9055Y0.7598
X3.9291Y3.9921
X3.937Y6.2992
X3.937Y0.0984
X3.9409Y5.0
X3.9409Y4.6339
X3.9606Y4.126
X4.0039Y4.748
X4.0276Y5.126
X4.0354Y6.063
X4.0433Y0.3228
X4.1181Y4.8701
X4.1181Y3.9921
X4.121Y3.2835
X4.122Y5.2087
X4.122Y4.4961
X4.122Y4.1811
X4.126Y4.1024
X4.1299Y5.0472
X4.1299Y4.689
X4.1299Y4.3898
X4.2677Y4.5512
X4.2835Y1.0236
X4.2874Y4.0039
X4.3228Y4.4724
X4.3228Y4.0984
X4.3504Y6.0315
X4.3898Y4.685
X4.3976Y4.5945
X4.4016Y6.1378
X4.4016Y4.0039
X4.4094Y0.3465
X4.4252Y1.0433
X4.4291Y6.2992
X4.4291Y0.7598
X4.4291Y0.0984
X4.437Y0.878
X4.4409Y0.2362
X4.5039Y3.9961
X4.5157Y3.752
X4.5236Y4.4291
X4.5354Y3.3543
X4.5472Y4.0984
X4.5512Y0.9882
X4.5709Y4.0039
X4.5945Y3.1496
X4.5984Y2.9331
X4.6024Y2.6457
X4.6142Y5.9606
X4.6142Y1.6102
X4.622Y1.3858
X4.6299Y2.5
X4.6299Y2.2126
X4.6299Y1.9961
X4.6339Y4.7717
X4.6339Y4.0984
X4.6339Y3.9961
X4.6339Y3.7362
X4.6575Y5.7205
X4.7008Y4.0039
X4.7008Y0.3937
X4.7047Y4.4291
X4.7047Y3.7362
X4.7047Y2.3661
X4.7087Y4.0984
X4.7087Y3.3268
X4.7244Y4.7717
X4.7362Y1.9724
X4.7756Y0.9685
X4.7795Y5.7205
X4.7835Y4.3858
X4.7835Y4.1024
X4.7835Y3.7638
X4.7835Y3.5157
X4.7874Y2.7717
X4.7913Y4.0039
X4.7913Y3.0354
X4.7953Y3.315
X4.815Y2.4843
X4.8228Y4.689
X4.8819Y3.7835
X4.8858Y3.1929
X4.8976Y2.6457
X4.9094Y3.9646
X4.9094Y3.4291
X4.9724Y3.4094
X4.9764Y3.7205
X4.9843Y2.2283
X5.0039Y2.6063
X5.0039Y2.3465
X5.0039Y1.2008
X5.0197Y0.0984
X5.0551Y3.9449
X5.0551Y3.2283
X5.0591Y0.7559
X5.0748Y2.5354
X5.0787Y2.8465
X5.0787Y2.2441
X5.0787Y0.9961
X5.0827Y2.1339
X5.0945Y5.1102
X5.0984Y4.7047
X5.0984Y0.8701
X5.1024Y4.3386
X5.1024Y1.3268
X5.1142Y3.5866
X5.1142Y3.2913
X5.1181Y3.4331
X5.122Y4.0118
X5.122Y1.6024
X5.1299Y1.9921
X5.1575Y1.0197
X5.1969Y4.0512
X5.2008Y3.9449
X5.2165Y6.2008
X5.2283Y5.1024
X5.2362Y4.1417
X5.2402Y0.5709
X5.252Y4.815
X5.2638Y4.5354
X5.2677Y3.9961
X5.2914Y3.8071
X5.3229Y3.8071
X5.3465Y1.8504
X5.3583Y1.2874
X5.3858Y0.8858
X5.3898Y3.6417
X5.4213Y3.7638
X5.4409Y1.5591
X5.4724Y2.0394
X5.4921Y2.5118
X5.5236Y3.5472
X5.5236Y2.8386
X5.5276Y5.6299
X5.5551Y4.2953
X5.5551Y1.685
X5.563Y2.0276
X5.6102Y0.4921
X5.685Y1.0394
X5.7638Y2.5709
X6.0039Y5.9055
X6.0039Y5.2165
X6.0039Y4.5276
X6.0039Y3.8386
X6.0039Y3.3465
X6.0039Y2.6575
X6.0039Y1.9685
X6.0039Y1.2795
T3
; pad hole
X2.7687Y3.9215
X2.8081Y3.9215
X2.9479Y3.9215
X2.9872Y3.9215
X3.0305Y5.4274
X3.0699Y5.4274
X3.1093Y5.4274
X3.1486Y5.4274
T4
; via hole
X0.7681Y5.4449
X0.9125Y3.5354
X1.091Y4.9213
X1.4544Y3.1353
X1.4646Y3.7402
X1.4791Y4.3782
X1.5211Y4.3782
X1.5276Y3.7402
X1.6063Y4.7165
X1.8307Y3.7756
X1.8307Y3.1614
X1.8311Y3.3819
X1.8863Y3.3937
X2.0549Y3.4252
X2.063Y4.7953
X2.063Y3.9215
X2.0957Y3.7074
X2.126Y3.7402
X2.1339Y3.5906
X2.189Y4.2995
X2.2113Y3.89
X2.2126Y4.2759
X2.2244Y3.2362
X2.2283Y3.563
X2.2533Y3.89
X2.2559Y3.1102
X2.2953Y3.0394
X2.3071Y2.753
X2.3193Y2.3937
X2.3193Y1.0906
X2.3501Y0.6732
X2.3626Y3.2874
X2.3819Y0.6732
X2.3902Y3.2362
X2.4094Y2.7283
X2.4138Y0.6732
X2.4146Y2.9696
X2.4151Y3.3268
X2.4449Y1.3152
X2.4457Y0.6732
X2.4488Y1.2641
X2.4749Y3.2618
X2.4807Y3.685
X2.5039Y2.8622
X2.5083Y1.3425
X2.5083Y1.0512
X2.5122Y3.8747
X2.5157Y3.1417
X2.5205Y2.7381
X2.5398Y1.2874
X2.5551Y1.3507
X2.5752Y3.2047
X2.5945Y3.8861
X2.6087Y3.2618
X2.6107Y3.685
X2.6409Y1.4848
X2.6579Y1.3472
X2.6579Y1.3153
X2.6579Y1.2835
X2.659Y1.2509
X2.6717Y1.4766
X2.6733Y0.9215
X2.6925Y5.4908
X2.7014Y1.4469
X2.7128Y3.1695
X2.7209Y1.3977
X2.752Y0.9215
X2.7543Y3.2618
X2.7563Y3.685
X2.7914Y1.0711
X2.7957Y0.874
X2.8465Y3.6341
X2.8485Y3.8979
X2.8583Y2.6656
X2.8789Y2.6372
X2.8863Y3.685
X2.8863Y3.2618
X2.9055Y3.8979
X2.9086Y2.6075
X2.916Y3.4097
X2.958Y3.4097
X2.9611Y1.0394
X2.9724Y2.6299
X2.9882Y3.5318
X3.004Y0.3704
X3.0507Y3.5634
X3.0827Y0.3704
X3.1225Y2.8819
X3.1264Y1.0276
X3.1304Y2.7913
X3.1654Y3.122
X3.1737Y1.0276
X3.193Y2.8071
X3.2087Y3.6341
X3.2249Y2.8071
X3.2839Y2.7953
X3.2918Y1.0433
X3.2957Y2.8819
X3.3031Y4.248
X3.3213Y2.9436
X3.3229Y3.0251
X3.3587Y3.2999
X3.3626Y1.0433
X3.3694Y2.5862
X3.4611Y3.6575
X3.5083Y1.0394
X3.5244Y3.252
X3.6973Y3.3346
X3.717Y3.3071
X3.7485Y3.2953
X3.8307Y3.3898
X3.874Y3.4331
X3.9523Y3.2527
X3.9606Y3.5709
X3.9768Y3.2323
X4.0709Y1.0435
X4.161Y4.2443
X4.1863Y4.3223
X4.2323Y3.9606
X4.3189Y1.0239
X4.3544Y1.0239
X4.3622Y5.9685
X4.3622Y5.8898
X4.4374Y3.3701
X4.4528Y2.6066
X4.4528Y2.5475
X4.465Y3.3346
X4.4953Y2.5973
X4.5713Y3.2323
X4.6067Y5.4606
X4.6618Y3.3189
X4.7406Y0.3386
X4.7445Y3.2586
X4.8307Y4.622
X4.8307Y2.5987
X4.8701Y3.937
X4.9016Y1.9885
X4.9055Y4.0118
X4.9252Y3.2835
X4.9292Y1.9412
X4.9449Y3.8386
X4.9764Y3.8701
X5.0157Y3.8189
X5.1378Y2.1725
X5.1614Y2.2008
X5.1654Y5.2717
X5.1654Y4.9449
X5.1654Y3.9055
X5.2209Y3.9094
T5
X3.1445Y2.5475
X3.3898Y3.2247
X3.4803Y3.7011
X3.5866Y3.2247
X3.6496Y0.7916
X3.6496Y0.3822
X3.6536Y0.2759
X3.6536Y0.1597
X3.9095Y3.2247
X4.4843Y5.9724
X4.4843Y5.8898
X4.5315Y3.205
T6
X1.2284Y4.831
X1.4724Y3.2283
T7
; pad hole
X3.3642Y4.3425
X3.3642Y4.2795
X3.4331Y4.374
X3.4331Y4.311
X3.4331Y4.248
T8
X1.2918Y5.1262
X1.2918Y4.9762
X1.3902Y5.3821
X1.3902Y5.2321
X1.4493Y5.1262
X1.4493Y4.9762
X1.5083Y5.3821
X1.5083Y5.2321
X1.5674Y5.1262
X1.5674Y4.9762
X1.6264Y5.3821
X1.6264Y5.2321
X1.6855Y5.1262
X1.6855Y4.9762
X1.7445Y5.3821
X1.7445Y5.2321
X1.8626Y5.3821
X1.8626Y5.2321
X1.9217Y5.1262
X1.9217Y4.9762
X1.9807Y5.3821
X1.9807Y5.2321
X2.0355Y5.1262
X2.0355Y4.9762
X2.1264Y4.9778
X2.1264Y4.8278
X2.217Y5.3821
X2.217Y5.2321
X2.2205Y5.1265
X2.2205Y4.9765
X2.2957Y5.1262
X2.2957Y4.9762
X2.4532Y5.3821
X2.4532Y5.2321
X4.0122Y5.3838
X4.0122Y5.2338
X4.2288Y4.9665
X4.2288Y4.8165
X4.3075Y5.126
X4.3075Y4.976
X4.3075Y4.8976
X4.3075Y4.7476
X4.465Y4.9705
X4.465Y4.8205
X4.4847Y5.3819
X4.4847Y5.2319
X4.5437Y5.126
X4.5437Y4.976
X4.5437Y4.8738
X4.5437Y4.7238
X4.6618Y5.126
X4.6618Y4.976
X4.7795Y4.9746
X4.7795Y4.8246
X4.839Y5.3819
X4.839Y5.2319
X4.8981Y5.126
X4.8981Y4.976
X4.9571Y5.3819
X4.9571Y5.2319
X5.0162Y5.126
X5.0162Y4.976
X5.0394Y2.0868
X5.0394Y1.9868
X5.0394Y1.8868
X5.0394Y1.7868
X5.0394Y1.6868
X5.0394Y1.5868
X5.2327Y5.3821
X5.2327Y5.2321
X5.2918Y5.126
X5.2918Y4.976
T9
X3.3937Y4.6735
X3.4922Y4.6735
X3.5906Y4.6735
X3.689Y4.6735
X3.7874Y4.6735
T10
X3.5472Y5.2559
X3.5472Y5.1299
X3.6457Y5.2559
X3.6457Y5.1299
T11
X0.2Y2.6
X0.2Y2.5
X0.2Y2.4
X0.2Y2.3
X0.2Y2.2
X0.2Y1.7
X0.2Y1.6
X0.2Y1.5
X0.2Y1.4
X0.2Y1.3
X0.3Y2.6
X0.3Y2.5
X0.3Y2.4
X0.3Y2.3
X0.3Y2.2
X0.3Y1.7
X0.3Y1.6
X0.3Y1.5
X0.3Y1.4
X0.3Y1.3
X0.4Y2.6
X0.4Y2.5
X0.4Y2.4
X0.4Y2.3
X0.4Y2.2
X0.4Y1.7
X0.4Y1.6
X0.4Y1.5
X0.4Y1.4
X0.4Y1.3
X0.8Y2.6
X0.8Y2.5
X0.8Y2.4
X0.8Y2.3
X0.8Y2.2
X0.8Y1.7
X0.8Y1.6
X0.8Y1.5
X0.8Y1.4
X0.8Y1.3
X0.9Y2.6
X0.9Y2.5
X0.9Y2.4
X0.9Y2.3
X0.9Y2.2
X0.9Y1.7
X0.9Y1.6
X0.9Y1.5
X0.9Y1.4
X0.9Y1.3
X1.0Y2.6
X1.0Y2.5
X1.0Y2.4
X1.0Y2.3
X1.0Y2.2
X1.0Y1.7
X1.0Y1.6
X1.0Y1.5
X1.0Y1.4
X1.0Y1.3
X1.1999Y3.3378
X1.1999Y3.2378
X1.2999Y3.3378
X1.2999Y3.2378
X1.7784Y3.3273
X1.7784Y3.2273
X1.8036Y5.0512
X1.8784Y3.3273
X1.8784Y3.2273
X1.9784Y3.3273
X1.9784Y3.2273
X2.0989Y5.3071
X2.1284Y5.1103
X2.3351Y5.3071
X2.4138Y5.0512
X2.4567Y1.9373
X2.4567Y1.6419
X2.5516Y5.0512
X2.5674Y1.9372
X2.5674Y1.6419
X2.6177Y2.9852
X2.6177Y2.8852
X2.6177Y2.7852
X2.6177Y2.6852
X2.7177Y2.9852
X2.7177Y2.8852
X2.7177Y2.7852
X2.7177Y2.6852
X3.0189Y0.2837
X3.1181Y3.2363
X3.1189Y0.2837
X3.2189Y0.2837
X3.2288Y3.3467
X3.2288Y3.2363
X3.3189Y0.2837
X3.406Y3.5331
X3.406Y3.4331
X3.4189Y0.2837
X3.506Y3.5331
X3.506Y3.4331
X3.5189Y0.2837
X3.606Y3.5331
X3.606Y3.4331
X3.7395Y0.582
X3.7395Y0.482
X3.8395Y0.582
X3.8395Y0.482
X3.9395Y0.582
X3.9395Y0.482
X4.0395Y0.582
X4.0395Y0.482
X4.0627Y3.5331
X4.0627Y3.4331
X4.1146Y5.3069
X4.1395Y0.582
X4.1395Y0.482
X4.1627Y3.5331
X4.1627Y3.4331
X4.2395Y0.582
X4.2395Y0.482
X4.2406Y5.3069
X4.2627Y3.5331
X4.2627Y3.4331
X4.311Y3.7244
X4.3395Y0.582
X4.3395Y0.482
X4.3627Y3.5331
X4.3627Y3.4331
X4.3666Y5.3069
X4.4395Y0.582
X4.4395Y0.482
X4.5395Y0.582
X4.5395Y0.482
X4.6395Y0.582
X4.6395Y0.482
X4.683Y1.8388
X4.683Y1.7388
X4.7209Y5.3069
X4.7395Y0.582
X4.7395Y0.482
X4.783Y1.8388
X4.783Y1.7388
X4.8395Y0.582
X4.8395Y0.482
X4.883Y1.8388
X4.883Y1.7388
X5.0949Y5.3069
T12
X1.3083Y5.8218
X1.3083Y5.6446
X1.446Y5.8218
X1.446Y5.6446
X1.5681Y5.8218
X1.5681Y5.6446
X1.6862Y5.8218
X1.6862Y5.6446
X1.8043Y5.8218
X1.8043Y5.6446
X1.9224Y5.8218
X1.9224Y5.6446
X2.0405Y5.8218
X2.0405Y5.6446
X2.1586Y5.8218
X2.1586Y5.6446
X2.2767Y5.8218
X2.2767Y5.6446
X2.3948Y5.8218
X2.3948Y5.6446
X2.5169Y5.8218
X2.5169Y5.6446
X2.7511Y5.8218
X2.7511Y5.6446
X2.8692Y5.8218
X2.8692Y5.6446
X2.9873Y5.8218
X2.9873Y5.6446
X3.1054Y5.8218
X3.1054Y5.6446
X3.2236Y5.8218
X3.2236Y5.6446
X3.3417Y5.8218
X3.3417Y5.6446
X3.4598Y5.8218
X3.4598Y5.6446
X3.5779Y5.8218
X3.5779Y5.6446
X3.812Y5.8218
X3.812Y5.6446
X3.9498Y5.8218
X3.9498Y5.6446
X4.072Y5.8218
X4.072Y5.6446
X4.1901Y5.8218
X4.1901Y5.6446
X4.3082Y5.8218
X4.3082Y5.6446
X4.4263Y5.8218
X4.4263Y5.6446
X4.5444Y5.8218
X4.5444Y5.6446
X4.6625Y5.8218
X4.6625Y5.6446
X4.7806Y5.8218
X4.7806Y5.6446
X4.8987Y5.8218
X4.8987Y5.6446
X5.0208Y5.8218
X5.0208Y5.6446
X5.1586Y5.8218
X5.1586Y5.6446
X5.2964Y5.8218
X5.2964Y5.6446
T13
X5.2913Y3.0236
X5.2913Y2.7795
X5.2913Y2.5591
X5.378Y2.9252
X5.378Y2.7047
T14
X3.3594Y5.1492
X3.8335Y5.1492
T15
X5.5394Y2.2868
X5.5394Y1.3868
T16
X1.1094Y6.0462
X2.6389Y6.0462
X3.6901Y6.0462
X5.4952Y6.0462
T17
X0.1575Y5.5906
X0.1575Y3.0512
X0.1575Y0.7283
X0.6693Y6.0709
X5.378Y0.1932
X5.9055Y3.0512
X5.9055Y0.7283
X5.9099Y5.5906
T18
; mechanical
X5.6435Y2.6181
X5.9191Y2.6181
T7
; pad hole
G00X3.373Y4.4547
M15
G01X3.4242Y4.4547
M16
G05
G00X3.373Y4.1673
M15
G01X3.4242Y4.1673
M16
G05
T0
M30
