G04 #@! TF.GenerationSoftware,KiCad,Pcbnew,(5.99.0-10483-ga6ad7a4a70)*
G04 #@! TF.CreationDate,2021-06-23T22:09:19+03:00*
G04 #@! TF.ProjectId,hellen64_miataNA6_94,68656c6c-656e-4363-945f-6d696174614e,b*
G04 #@! TF.SameCoordinates,PX1406f40PYa852d20*
G04 #@! TF.FileFunction,Soldermask,Top*
G04 #@! TF.FilePolarity,Negative*
%FSLAX46Y46*%
G04 Gerber Fmt 4.6, Leading zero omitted, Abs format (unit mm)*
G04 Created by KiCad (PCBNEW (5.99.0-10483-ga6ad7a4a70)) date 2021-06-23 22:09:19*
%MOMM*%
%LPD*%
G01*
G04 APERTURE LIST*
%ADD10C,0.599999*%
%ADD11O,0.499999X0.250000*%
%ADD12C,1.524000*%
%ADD13C,1.700000*%
%ADD14R,1.700000X1.700000*%
%ADD15O,1.700000X1.700000*%
%ADD16C,2.000000*%
%ADD17O,1.000001X1.500000*%
%ADD18O,0.800001X0.599999*%
%ADD19C,3.500120*%
%ADD20C,1.800000*%
%ADD21C,7.000000*%
%ADD22R,1.100000X1.100000*%
%ADD23C,1.100000*%
%ADD24O,1.100000X2.400000*%
%ADD25C,3.500000*%
%ADD26O,0.250000X0.499999*%
%ADD27C,3.302000*%
%ADD28R,0.375000X0.350000*%
%ADD29R,0.350000X0.375000*%
%ADD30R,2.600000X3.600000*%
%ADD31O,0.499999X1.000001*%
%ADD32O,0.499999X0.200000*%
%ADD33C,0.600000*%
%ADD34O,0.200000X0.399999*%
%ADD35O,1.850000X1.700000*%
G04 APERTURE END LIST*
G04 #@! TO.C,R23*
G36*
G01*
X50700000Y122160000D02*
X50700000Y122940000D01*
G75*
G02*
X50770000Y123010000I70000J0D01*
G01*
X51330000Y123010000D01*
G75*
G02*
X51400000Y122940000I0J-70000D01*
G01*
X51400000Y122160000D01*
G75*
G02*
X51330000Y122090000I-70000J0D01*
G01*
X50770000Y122090000D01*
G75*
G02*
X50700000Y122160000I0J70000D01*
G01*
G37*
G36*
G01*
X52300000Y122160000D02*
X52300000Y122940000D01*
G75*
G02*
X52370000Y123010000I70000J0D01*
G01*
X52930000Y123010000D01*
G75*
G02*
X53000000Y122940000I0J-70000D01*
G01*
X53000000Y122160000D01*
G75*
G02*
X52930000Y122090000I-70000J0D01*
G01*
X52370000Y122090000D01*
G75*
G02*
X52300000Y122160000I0J70000D01*
G01*
G37*
G04 #@! TD*
G04 #@! TO.C,R21*
G36*
G01*
X109800960Y117100001D02*
X109020960Y117100001D01*
G75*
G02*
X108950960Y117170001I0J70000D01*
G01*
X108950960Y117730001D01*
G75*
G02*
X109020960Y117800001I70000J0D01*
G01*
X109800960Y117800001D01*
G75*
G02*
X109870960Y117730001I0J-70000D01*
G01*
X109870960Y117170001D01*
G75*
G02*
X109800960Y117100001I-70000J0D01*
G01*
G37*
G36*
G01*
X109800960Y118700001D02*
X109020960Y118700001D01*
G75*
G02*
X108950960Y118770001I0J70000D01*
G01*
X108950960Y119330001D01*
G75*
G02*
X109020960Y119400001I70000J0D01*
G01*
X109800960Y119400001D01*
G75*
G02*
X109870960Y119330001I0J-70000D01*
G01*
X109870960Y118770001D01*
G75*
G02*
X109800960Y118700001I-70000J0D01*
G01*
G37*
G04 #@! TD*
D10*
G04 #@! TO.C,M4*
X75566855Y23589700D03*
X77141869Y18684691D03*
X89845887Y18693754D03*
X81366859Y18014690D03*
X82541863Y18014690D03*
X84716857Y18014690D03*
X86941859Y18014690D03*
G04 #@! TD*
D11*
G04 #@! TO.C,M9*
X89359786Y92963404D03*
X89359786Y93838404D03*
X89359786Y94538405D03*
X107184784Y94988404D03*
X107184784Y92588401D03*
G04 #@! TD*
G04 #@! TO.C,R32*
G36*
G01*
X52325700Y126849999D02*
X51075700Y126849999D01*
G75*
G02*
X50975700Y126949999I0J100000D01*
G01*
X50975700Y127749999D01*
G75*
G02*
X51075700Y127849999I100000J0D01*
G01*
X52325700Y127849999D01*
G75*
G02*
X52425700Y127749999I0J-100000D01*
G01*
X52425700Y126949999D01*
G75*
G02*
X52325700Y126849999I-100000J0D01*
G01*
G37*
D12*
X51700700Y126395000D03*
X51700700Y130205000D03*
G36*
G01*
X52325700Y128750021D02*
X51075700Y128750021D01*
G75*
G02*
X50975700Y128850021I0J100000D01*
G01*
X50975700Y129650021D01*
G75*
G02*
X51075700Y129750021I100000J0D01*
G01*
X52325700Y129750021D01*
G75*
G02*
X52425700Y129650021I0J-100000D01*
G01*
X52425700Y128850021D01*
G75*
G02*
X52325700Y128750021I-100000J0D01*
G01*
G37*
G04 #@! TD*
D13*
G04 #@! TO.C,P5*
X62400700Y41704880D03*
G04 #@! TD*
G04 #@! TO.C,P6*
X62400700Y49207060D03*
G04 #@! TD*
G04 #@! TO.C,P47*
X59310960Y134800000D03*
G04 #@! TD*
G04 #@! TO.C,R2*
G36*
G01*
X27645960Y116250000D02*
X28425960Y116250000D01*
G75*
G02*
X28495960Y116180000I0J-70000D01*
G01*
X28495960Y115620000D01*
G75*
G02*
X28425960Y115550000I-70000J0D01*
G01*
X27645960Y115550000D01*
G75*
G02*
X27575960Y115620000I0J70000D01*
G01*
X27575960Y116180000D01*
G75*
G02*
X27645960Y116250000I70000J0D01*
G01*
G37*
G36*
G01*
X27645960Y114650000D02*
X28425960Y114650000D01*
G75*
G02*
X28495960Y114580000I0J-70000D01*
G01*
X28495960Y114020000D01*
G75*
G02*
X28425960Y113950000I-70000J0D01*
G01*
X27645960Y113950000D01*
G75*
G02*
X27575960Y114020000I0J70000D01*
G01*
X27575960Y114580000D01*
G75*
G02*
X27645960Y114650000I70000J0D01*
G01*
G37*
G04 #@! TD*
D14*
G04 #@! TO.C,J27*
X103950000Y102800000D03*
D15*
X101410000Y102800000D03*
X98870000Y102800000D03*
X96330000Y102800000D03*
X93790000Y102800000D03*
X91250000Y102800000D03*
G04 #@! TD*
G04 #@! TO.C,R4*
G36*
G01*
X119550000Y119210000D02*
X119550000Y119990000D01*
G75*
G02*
X119620000Y120060000I70000J0D01*
G01*
X120180000Y120060000D01*
G75*
G02*
X120250000Y119990000I0J-70000D01*
G01*
X120250000Y119210000D01*
G75*
G02*
X120180000Y119140000I-70000J0D01*
G01*
X119620000Y119140000D01*
G75*
G02*
X119550000Y119210000I0J70000D01*
G01*
G37*
G36*
G01*
X121150000Y119210000D02*
X121150000Y119990000D01*
G75*
G02*
X121220000Y120060000I70000J0D01*
G01*
X121780000Y120060000D01*
G75*
G02*
X121850000Y119990000I0J-70000D01*
G01*
X121850000Y119210000D01*
G75*
G02*
X121780000Y119140000I-70000J0D01*
G01*
X121220000Y119140000D01*
G75*
G02*
X121150000Y119210000I0J70000D01*
G01*
G37*
G04 #@! TD*
D16*
G04 #@! TO.C,J19*
X63800000Y3000000D03*
G04 #@! TD*
G04 #@! TO.C,C3*
G36*
G01*
X61694998Y31760000D02*
X61694998Y32440000D01*
G75*
G02*
X61779998Y32525000I85000J0D01*
G01*
X62459998Y32525000D01*
G75*
G02*
X62544998Y32440000I0J-85000D01*
G01*
X62544998Y31760000D01*
G75*
G02*
X62459998Y31675000I-85000J0D01*
G01*
X61779998Y31675000D01*
G75*
G02*
X61694998Y31760000I0J85000D01*
G01*
G37*
G36*
G01*
X63275000Y31760000D02*
X63275000Y32440000D01*
G75*
G02*
X63360000Y32525000I85000J0D01*
G01*
X64040000Y32525000D01*
G75*
G02*
X64125000Y32440000I0J-85000D01*
G01*
X64125000Y31760000D01*
G75*
G02*
X64040000Y31675000I-85000J0D01*
G01*
X63360000Y31675000D01*
G75*
G02*
X63275000Y31760000I0J85000D01*
G01*
G37*
G04 #@! TD*
D13*
G04 #@! TO.C,G4*
X20320000Y55880000D03*
X20320000Y58420000D03*
X20320000Y60960000D03*
X20320000Y63500000D03*
X20320000Y66040000D03*
X22860000Y55880000D03*
X22860000Y58420000D03*
X22860000Y60960000D03*
X22860000Y63500000D03*
X22860000Y66040000D03*
X25400000Y55880000D03*
X25400000Y58420000D03*
X25400000Y60960000D03*
X25400000Y63500000D03*
X25400000Y66040000D03*
G04 #@! TD*
G04 #@! TO.C,P10*
X45200000Y84800000D03*
G04 #@! TD*
G04 #@! TO.C,P12*
X29800000Y84800000D03*
G04 #@! TD*
G04 #@! TO.C,P16*
X69300000Y76000000D03*
G04 #@! TD*
D17*
G04 #@! TO.C,M5*
X32657430Y77612659D03*
X33913295Y77612659D03*
X48288321Y77612659D03*
D18*
X57343319Y74116375D03*
G04 #@! TD*
D12*
G04 #@! TO.C,R36*
X41310960Y132895000D03*
G36*
G01*
X41935960Y133349999D02*
X40685960Y133349999D01*
G75*
G02*
X40585960Y133449999I0J100000D01*
G01*
X40585960Y134249999D01*
G75*
G02*
X40685960Y134349999I100000J0D01*
G01*
X41935960Y134349999D01*
G75*
G02*
X42035960Y134249999I0J-100000D01*
G01*
X42035960Y133449999D01*
G75*
G02*
X41935960Y133349999I-100000J0D01*
G01*
G37*
G36*
G01*
X41935960Y135250021D02*
X40685960Y135250021D01*
G75*
G02*
X40585960Y135350021I0J100000D01*
G01*
X40585960Y136150021D01*
G75*
G02*
X40685960Y136250021I100000J0D01*
G01*
X41935960Y136250021D01*
G75*
G02*
X42035960Y136150021I0J-100000D01*
G01*
X42035960Y135350021D01*
G75*
G02*
X41935960Y135250021I-100000J0D01*
G01*
G37*
X41310960Y136705000D03*
G04 #@! TD*
G04 #@! TO.C,D1*
G36*
G01*
X67979339Y7720000D02*
X67979339Y6480000D01*
G75*
G02*
X67849339Y6350000I-130000J0D01*
G01*
X66809339Y6350000D01*
G75*
G02*
X66679339Y6480000I0J130000D01*
G01*
X66679339Y7720000D01*
G75*
G02*
X66809339Y7850000I130000J0D01*
G01*
X67849339Y7850000D01*
G75*
G02*
X67979339Y7720000I0J-130000D01*
G01*
G37*
G36*
G01*
X69879360Y7720000D02*
X69879360Y6480000D01*
G75*
G02*
X69749360Y6350000I-130000J0D01*
G01*
X68709360Y6350000D01*
G75*
G02*
X68579360Y6480000I0J130000D01*
G01*
X68579360Y7720000D01*
G75*
G02*
X68709360Y7850000I130000J0D01*
G01*
X69749360Y7850000D01*
G75*
G02*
X69879360Y7720000I0J-130000D01*
G01*
G37*
G04 #@! TD*
G04 #@! TO.C,R48*
G36*
G01*
X110035960Y126844999D02*
X108785960Y126844999D01*
G75*
G02*
X108685960Y126944999I0J100000D01*
G01*
X108685960Y127744999D01*
G75*
G02*
X108785960Y127844999I100000J0D01*
G01*
X110035960Y127844999D01*
G75*
G02*
X110135960Y127744999I0J-100000D01*
G01*
X110135960Y126944999D01*
G75*
G02*
X110035960Y126844999I-100000J0D01*
G01*
G37*
X109410960Y126390000D03*
X109410960Y130200000D03*
G36*
G01*
X110035960Y128745021D02*
X108785960Y128745021D01*
G75*
G02*
X108685960Y128845021I0J100000D01*
G01*
X108685960Y129645021D01*
G75*
G02*
X108785960Y129745021I100000J0D01*
G01*
X110035960Y129745021D01*
G75*
G02*
X110135960Y129645021I0J-100000D01*
G01*
X110135960Y128845021D01*
G75*
G02*
X110035960Y128745021I-100000J0D01*
G01*
G37*
G04 #@! TD*
G04 #@! TO.C,D15*
G36*
G01*
X62510209Y85290750D02*
X62510209Y84810750D01*
G75*
G02*
X62450209Y84750750I-60000J0D01*
G01*
X61970209Y84750750D01*
G75*
G02*
X61910209Y84810750I0J60000D01*
G01*
X61910209Y85290750D01*
G75*
G02*
X61970209Y85350750I60000J0D01*
G01*
X62450209Y85350750D01*
G75*
G02*
X62510209Y85290750I0J-60000D01*
G01*
G37*
G36*
G01*
X62510209Y83090750D02*
X62510209Y82610750D01*
G75*
G02*
X62450209Y82550750I-60000J0D01*
G01*
X61970209Y82550750D01*
G75*
G02*
X61910209Y82610750I0J60000D01*
G01*
X61910209Y83090750D01*
G75*
G02*
X61970209Y83150750I60000J0D01*
G01*
X62450209Y83150750D01*
G75*
G02*
X62510209Y83090750I0J-60000D01*
G01*
G37*
G04 #@! TD*
G04 #@! TO.C,C1*
G36*
G01*
X69024358Y20864880D02*
X69024358Y21544880D01*
G75*
G02*
X69109358Y21629880I85000J0D01*
G01*
X69789358Y21629880D01*
G75*
G02*
X69874358Y21544880I0J-85000D01*
G01*
X69874358Y20864880D01*
G75*
G02*
X69789358Y20779880I-85000J0D01*
G01*
X69109358Y20779880D01*
G75*
G02*
X69024358Y20864880I0J85000D01*
G01*
G37*
G36*
G01*
X70604360Y20864880D02*
X70604360Y21544880D01*
G75*
G02*
X70689360Y21629880I85000J0D01*
G01*
X71369360Y21629880D01*
G75*
G02*
X71454360Y21544880I0J-85000D01*
G01*
X71454360Y20864880D01*
G75*
G02*
X71369360Y20779880I-85000J0D01*
G01*
X70689360Y20779880D01*
G75*
G02*
X70604360Y20864880I0J85000D01*
G01*
G37*
G04 #@! TD*
D13*
G04 #@! TO.C,P15*
X48000000Y82000000D03*
G04 #@! TD*
G04 #@! TO.C,S1*
G36*
G01*
X66109360Y19704881D02*
X67949360Y19704881D01*
G75*
G02*
X68029360Y19624881I0J-80000D01*
G01*
X68029360Y18984881D01*
G75*
G02*
X67949360Y18904881I-80000J0D01*
G01*
X66109360Y18904881D01*
G75*
G02*
X66029360Y18984881I0J80000D01*
G01*
X66029360Y19624881D01*
G75*
G02*
X66109360Y19704881I80000J0D01*
G01*
G37*
G36*
G01*
X66109360Y15504880D02*
X67949360Y15504880D01*
G75*
G02*
X68029360Y15424880I0J-80000D01*
G01*
X68029360Y14784880D01*
G75*
G02*
X67949360Y14704880I-80000J0D01*
G01*
X66109360Y14704880D01*
G75*
G02*
X66029360Y14784880I0J80000D01*
G01*
X66029360Y15424880D01*
G75*
G02*
X66109360Y15504880I80000J0D01*
G01*
G37*
G04 #@! TD*
G04 #@! TO.C,D6*
G36*
G01*
X71910211Y85350749D02*
X72810211Y85350749D01*
G75*
G02*
X72910211Y85250749I0J-100000D01*
G01*
X72910211Y84450749D01*
G75*
G02*
X72810211Y84350749I-100000J0D01*
G01*
X71910211Y84350749D01*
G75*
G02*
X71810211Y84450749I0J100000D01*
G01*
X71810211Y85250749D01*
G75*
G02*
X71910211Y85350749I100000J0D01*
G01*
G37*
G36*
G01*
X71910211Y83650749D02*
X72810211Y83650749D01*
G75*
G02*
X72910211Y83550749I0J-100000D01*
G01*
X72910211Y82750749D01*
G75*
G02*
X72810211Y82650749I-100000J0D01*
G01*
X71910211Y82650749D01*
G75*
G02*
X71810211Y82750749I0J100000D01*
G01*
X71810211Y83550749D01*
G75*
G02*
X71910211Y83650749I100000J0D01*
G01*
G37*
G04 #@! TD*
G04 #@! TO.C,C4*
G36*
G01*
X131905002Y90340000D02*
X131905002Y89660000D01*
G75*
G02*
X131820002Y89575000I-85000J0D01*
G01*
X131140002Y89575000D01*
G75*
G02*
X131055002Y89660000I0J85000D01*
G01*
X131055002Y90340000D01*
G75*
G02*
X131140002Y90425000I85000J0D01*
G01*
X131820002Y90425000D01*
G75*
G02*
X131905002Y90340000I0J-85000D01*
G01*
G37*
G36*
G01*
X130325000Y90340000D02*
X130325000Y89660000D01*
G75*
G02*
X130240000Y89575000I-85000J0D01*
G01*
X129560000Y89575000D01*
G75*
G02*
X129475000Y89660000I0J85000D01*
G01*
X129475000Y90340000D01*
G75*
G02*
X129560000Y90425000I85000J0D01*
G01*
X130240000Y90425000D01*
G75*
G02*
X130325000Y90340000I0J-85000D01*
G01*
G37*
G04 #@! TD*
G04 #@! TO.C,R24*
G36*
G01*
X108035960Y122795000D02*
X106785960Y122795000D01*
G75*
G02*
X106685960Y122895000I0J100000D01*
G01*
X106685960Y123695000D01*
G75*
G02*
X106785960Y123795000I100000J0D01*
G01*
X108035960Y123795000D01*
G75*
G02*
X108135960Y123695000I0J-100000D01*
G01*
X108135960Y122895000D01*
G75*
G02*
X108035960Y122795000I-100000J0D01*
G01*
G37*
D12*
X107410960Y122340001D03*
G36*
G01*
X108035960Y124695022D02*
X106785960Y124695022D01*
G75*
G02*
X106685960Y124795022I0J100000D01*
G01*
X106685960Y125595022D01*
G75*
G02*
X106785960Y125695022I100000J0D01*
G01*
X108035960Y125695022D01*
G75*
G02*
X108135960Y125595022I0J-100000D01*
G01*
X108135960Y124795022D01*
G75*
G02*
X108035960Y124695022I-100000J0D01*
G01*
G37*
X107410960Y126150001D03*
G04 #@! TD*
G04 #@! TO.C,D28*
G36*
G01*
X55526000Y81900000D02*
X55046000Y81900000D01*
G75*
G02*
X54986000Y81960000I0J60000D01*
G01*
X54986000Y82440000D01*
G75*
G02*
X55046000Y82500000I60000J0D01*
G01*
X55526000Y82500000D01*
G75*
G02*
X55586000Y82440000I0J-60000D01*
G01*
X55586000Y81960000D01*
G75*
G02*
X55526000Y81900000I-60000J0D01*
G01*
G37*
G36*
G01*
X53326000Y81900000D02*
X52846000Y81900000D01*
G75*
G02*
X52786000Y81960000I0J60000D01*
G01*
X52786000Y82440000D01*
G75*
G02*
X52846000Y82500000I60000J0D01*
G01*
X53326000Y82500000D01*
G75*
G02*
X53386000Y82440000I0J-60000D01*
G01*
X53386000Y81960000D01*
G75*
G02*
X53326000Y81900000I-60000J0D01*
G01*
G37*
G04 #@! TD*
G04 #@! TO.C,R33*
X47310960Y132895000D03*
G36*
G01*
X47935960Y133349999D02*
X46685960Y133349999D01*
G75*
G02*
X46585960Y133449999I0J100000D01*
G01*
X46585960Y134249999D01*
G75*
G02*
X46685960Y134349999I100000J0D01*
G01*
X47935960Y134349999D01*
G75*
G02*
X48035960Y134249999I0J-100000D01*
G01*
X48035960Y133449999D01*
G75*
G02*
X47935960Y133349999I-100000J0D01*
G01*
G37*
G36*
G01*
X47935960Y135250021D02*
X46685960Y135250021D01*
G75*
G02*
X46585960Y135350021I0J100000D01*
G01*
X46585960Y136150021D01*
G75*
G02*
X46685960Y136250021I100000J0D01*
G01*
X47935960Y136250021D01*
G75*
G02*
X48035960Y136150021I0J-100000D01*
G01*
X48035960Y135350021D01*
G75*
G02*
X47935960Y135250021I-100000J0D01*
G01*
G37*
X47310960Y136705000D03*
G04 #@! TD*
G04 #@! TO.C,D12*
G36*
G01*
X74297706Y85289251D02*
X74297706Y84809251D01*
G75*
G02*
X74237706Y84749251I-60000J0D01*
G01*
X73757706Y84749251D01*
G75*
G02*
X73697706Y84809251I0J60000D01*
G01*
X73697706Y85289251D01*
G75*
G02*
X73757706Y85349251I60000J0D01*
G01*
X74237706Y85349251D01*
G75*
G02*
X74297706Y85289251I0J-60000D01*
G01*
G37*
G36*
G01*
X74297706Y83089251D02*
X74297706Y82609251D01*
G75*
G02*
X74237706Y82549251I-60000J0D01*
G01*
X73757706Y82549251D01*
G75*
G02*
X73697706Y82609251I0J60000D01*
G01*
X73697706Y83089251D01*
G75*
G02*
X73757706Y83149251I60000J0D01*
G01*
X74237706Y83149251D01*
G75*
G02*
X74297706Y83089251I0J-60000D01*
G01*
G37*
G04 #@! TD*
G04 #@! TO.C,R42*
G36*
G01*
X33435960Y126849999D02*
X32185960Y126849999D01*
G75*
G02*
X32085960Y126949999I0J100000D01*
G01*
X32085960Y127749999D01*
G75*
G02*
X32185960Y127849999I100000J0D01*
G01*
X33435960Y127849999D01*
G75*
G02*
X33535960Y127749999I0J-100000D01*
G01*
X33535960Y126949999D01*
G75*
G02*
X33435960Y126849999I-100000J0D01*
G01*
G37*
X32810960Y126395000D03*
X32810960Y130205000D03*
G36*
G01*
X33435960Y128750021D02*
X32185960Y128750021D01*
G75*
G02*
X32085960Y128850021I0J100000D01*
G01*
X32085960Y129650021D01*
G75*
G02*
X32185960Y129750021I100000J0D01*
G01*
X33435960Y129750021D01*
G75*
G02*
X33535960Y129650021I0J-100000D01*
G01*
X33535960Y128850021D01*
G75*
G02*
X33435960Y128750021I-100000J0D01*
G01*
G37*
G04 #@! TD*
D19*
G04 #@! TO.C,P2*
X93728300Y153574420D03*
X139577840Y153574420D03*
X28178520Y153574420D03*
X67027820Y153574420D03*
D20*
X33230580Y143373780D03*
X36728160Y143373780D03*
X39829500Y143373780D03*
X42829240Y143373780D03*
X45828980Y143373780D03*
X48828720Y143373780D03*
X51828460Y143373780D03*
X54828200Y143373780D03*
X57827940Y143373780D03*
X60827680Y143373780D03*
X63929020Y143373780D03*
X33230580Y147874660D03*
X36728160Y147874660D03*
X39829500Y147874660D03*
X42829240Y147874660D03*
X45828980Y147874660D03*
X48828720Y147874660D03*
X51828460Y147874660D03*
X54828200Y147874660D03*
X57827940Y147874660D03*
X60827680Y147874660D03*
X63929020Y147874660D03*
X69877700Y143373780D03*
X72877440Y143373780D03*
X75877180Y143373780D03*
X78876920Y143373780D03*
X81879200Y143373780D03*
X84878940Y143373780D03*
X87878680Y143373780D03*
X90878420Y143373780D03*
X69877700Y147874660D03*
X72877440Y147874660D03*
X75877180Y147874660D03*
X78876920Y147874660D03*
X81879200Y147874660D03*
X84878940Y147874660D03*
X87878680Y147874660D03*
X90878420Y147874660D03*
X96824560Y143373780D03*
X100324680Y143373780D03*
X103428560Y143373780D03*
X106428300Y143373780D03*
X109428040Y143373780D03*
X112427780Y143373780D03*
X115427520Y143373780D03*
X118427260Y143373780D03*
X121427000Y143373780D03*
X124426740Y143373780D03*
X127528080Y143373780D03*
X131028200Y143373780D03*
X134528320Y143373780D03*
X96824560Y147874660D03*
X100324680Y147874660D03*
X103428560Y147874660D03*
X106428300Y147874660D03*
X109428040Y147874660D03*
X112427780Y147874660D03*
X115427520Y147874660D03*
X118427260Y147874660D03*
X121427000Y147874660D03*
X124426740Y147874660D03*
X127528080Y147874660D03*
X131028200Y147874660D03*
X134528320Y147874660D03*
G04 #@! TD*
G04 #@! TO.C,D22*
G36*
G01*
X39087497Y98238501D02*
X39087497Y97758501D01*
G75*
G02*
X39027497Y97698501I-60000J0D01*
G01*
X38547497Y97698501D01*
G75*
G02*
X38487497Y97758501I0J60000D01*
G01*
X38487497Y98238501D01*
G75*
G02*
X38547497Y98298501I60000J0D01*
G01*
X39027497Y98298501D01*
G75*
G02*
X39087497Y98238501I0J-60000D01*
G01*
G37*
G36*
G01*
X39087497Y96038501D02*
X39087497Y95558501D01*
G75*
G02*
X39027497Y95498501I-60000J0D01*
G01*
X38547497Y95498501D01*
G75*
G02*
X38487497Y95558501I0J60000D01*
G01*
X38487497Y96038501D01*
G75*
G02*
X38547497Y96098501I60000J0D01*
G01*
X39027497Y96098501D01*
G75*
G02*
X39087497Y96038501I0J-60000D01*
G01*
G37*
G04 #@! TD*
D13*
G04 #@! TO.C,P56*
X104510960Y134795000D03*
G04 #@! TD*
D21*
G04 #@! TO.C,J18*
X4000000Y142000000D03*
G04 #@! TD*
D13*
G04 #@! TO.C,P52*
X129410960Y134795000D03*
G04 #@! TD*
G04 #@! TO.C,P36*
X108000000Y86400000D03*
G04 #@! TD*
G04 #@! TO.C,D11*
G36*
G01*
X31930960Y119300021D02*
X30690960Y119300021D01*
G75*
G02*
X30560960Y119430021I0J130000D01*
G01*
X30560960Y120470021D01*
G75*
G02*
X30690960Y120600021I130000J0D01*
G01*
X31930960Y120600021D01*
G75*
G02*
X32060960Y120470021I0J-130000D01*
G01*
X32060960Y119430021D01*
G75*
G02*
X31930960Y119300021I-130000J0D01*
G01*
G37*
G36*
G01*
X31930960Y117400000D02*
X30690960Y117400000D01*
G75*
G02*
X30560960Y117530000I0J130000D01*
G01*
X30560960Y118570000D01*
G75*
G02*
X30690960Y118700000I130000J0D01*
G01*
X31930960Y118700000D01*
G75*
G02*
X32060960Y118570000I0J-130000D01*
G01*
X32060960Y117530000D01*
G75*
G02*
X31930960Y117400000I-130000J0D01*
G01*
G37*
G04 #@! TD*
G04 #@! TO.C,P44*
X89500000Y86000000D03*
G04 #@! TD*
G04 #@! TO.C,P13*
X32700000Y81900000D03*
G04 #@! TD*
G04 #@! TO.C,R11*
G36*
G01*
X88110000Y137150000D02*
X88890000Y137150000D01*
G75*
G02*
X88960000Y137080000I0J-70000D01*
G01*
X88960000Y136520000D01*
G75*
G02*
X88890000Y136450000I-70000J0D01*
G01*
X88110000Y136450000D01*
G75*
G02*
X88040000Y136520000I0J70000D01*
G01*
X88040000Y137080000D01*
G75*
G02*
X88110000Y137150000I70000J0D01*
G01*
G37*
G36*
G01*
X88110000Y135550000D02*
X88890000Y135550000D01*
G75*
G02*
X88960000Y135480000I0J-70000D01*
G01*
X88960000Y134920000D01*
G75*
G02*
X88890000Y134850000I-70000J0D01*
G01*
X88110000Y134850000D01*
G75*
G02*
X88040000Y134920000I0J70000D01*
G01*
X88040000Y135480000D01*
G75*
G02*
X88110000Y135550000I70000J0D01*
G01*
G37*
G04 #@! TD*
G04 #@! TO.C,R6*
G36*
G01*
X69710209Y89285750D02*
X69710209Y88615750D01*
G75*
G02*
X69645209Y88550750I-65000J0D01*
G01*
X69125209Y88550750D01*
G75*
G02*
X69060209Y88615750I0J65000D01*
G01*
X69060209Y89285750D01*
G75*
G02*
X69125209Y89350750I65000J0D01*
G01*
X69645209Y89350750D01*
G75*
G02*
X69710209Y89285750I0J-65000D01*
G01*
G37*
G36*
G01*
X68735209Y89305750D02*
X68735209Y88595750D01*
G75*
G02*
X68690209Y88550750I-45000J0D01*
G01*
X68330209Y88550750D01*
G75*
G02*
X68285209Y88595750I0J45000D01*
G01*
X68285209Y89305750D01*
G75*
G02*
X68330209Y89350750I45000J0D01*
G01*
X68690209Y89350750D01*
G75*
G02*
X68735209Y89305750I0J-45000D01*
G01*
G37*
G36*
G01*
X67935209Y89305750D02*
X67935209Y88595750D01*
G75*
G02*
X67890209Y88550750I-45000J0D01*
G01*
X67530209Y88550750D01*
G75*
G02*
X67485209Y88595750I0J45000D01*
G01*
X67485209Y89305750D01*
G75*
G02*
X67530209Y89350750I45000J0D01*
G01*
X67890209Y89350750D01*
G75*
G02*
X67935209Y89305750I0J-45000D01*
G01*
G37*
G36*
G01*
X67160209Y89285750D02*
X67160209Y88615750D01*
G75*
G02*
X67095209Y88550750I-65000J0D01*
G01*
X66575209Y88550750D01*
G75*
G02*
X66510209Y88615750I0J65000D01*
G01*
X66510209Y89285750D01*
G75*
G02*
X66575209Y89350750I65000J0D01*
G01*
X67095209Y89350750D01*
G75*
G02*
X67160209Y89285750I0J-65000D01*
G01*
G37*
G36*
G01*
X67160209Y87485750D02*
X67160209Y86815750D01*
G75*
G02*
X67095209Y86750750I-65000J0D01*
G01*
X66575209Y86750750D01*
G75*
G02*
X66510209Y86815750I0J65000D01*
G01*
X66510209Y87485750D01*
G75*
G02*
X66575209Y87550750I65000J0D01*
G01*
X67095209Y87550750D01*
G75*
G02*
X67160209Y87485750I0J-65000D01*
G01*
G37*
G36*
G01*
X67935209Y87505750D02*
X67935209Y86795750D01*
G75*
G02*
X67890209Y86750750I-45000J0D01*
G01*
X67530209Y86750750D01*
G75*
G02*
X67485209Y86795750I0J45000D01*
G01*
X67485209Y87505750D01*
G75*
G02*
X67530209Y87550750I45000J0D01*
G01*
X67890209Y87550750D01*
G75*
G02*
X67935209Y87505750I0J-45000D01*
G01*
G37*
G36*
G01*
X68735209Y87505750D02*
X68735209Y86795750D01*
G75*
G02*
X68690209Y86750750I-45000J0D01*
G01*
X68330209Y86750750D01*
G75*
G02*
X68285209Y86795750I0J45000D01*
G01*
X68285209Y87505750D01*
G75*
G02*
X68330209Y87550750I45000J0D01*
G01*
X68690209Y87550750D01*
G75*
G02*
X68735209Y87505750I0J-45000D01*
G01*
G37*
G36*
G01*
X69710209Y87485750D02*
X69710209Y86815750D01*
G75*
G02*
X69645209Y86750750I-65000J0D01*
G01*
X69125209Y86750750D01*
G75*
G02*
X69060209Y86815750I0J65000D01*
G01*
X69060209Y87485750D01*
G75*
G02*
X69125209Y87550750I65000J0D01*
G01*
X69645209Y87550750D01*
G75*
G02*
X69710209Y87485750I0J-65000D01*
G01*
G37*
G04 #@! TD*
G04 #@! TO.C,P26*
X79200700Y82200880D03*
G04 #@! TD*
D16*
G04 #@! TO.C,J20*
X63800000Y7100000D03*
G04 #@! TD*
D13*
G04 #@! TO.C,P29*
X121000000Y47000000D03*
G04 #@! TD*
G04 #@! TO.C,R43*
G36*
G01*
X123535960Y133344999D02*
X122285960Y133344999D01*
G75*
G02*
X122185960Y133444999I0J100000D01*
G01*
X122185960Y134244999D01*
G75*
G02*
X122285960Y134344999I100000J0D01*
G01*
X123535960Y134344999D01*
G75*
G02*
X123635960Y134244999I0J-100000D01*
G01*
X123635960Y133444999D01*
G75*
G02*
X123535960Y133344999I-100000J0D01*
G01*
G37*
D12*
X122910960Y132890000D03*
G36*
G01*
X123535960Y135245021D02*
X122285960Y135245021D01*
G75*
G02*
X122185960Y135345021I0J100000D01*
G01*
X122185960Y136145021D01*
G75*
G02*
X122285960Y136245021I100000J0D01*
G01*
X123535960Y136245021D01*
G75*
G02*
X123635960Y136145021I0J-100000D01*
G01*
X123635960Y135345021D01*
G75*
G02*
X123535960Y135245021I-100000J0D01*
G01*
G37*
X122910960Y136700000D03*
G04 #@! TD*
D22*
G04 #@! TO.C,J1*
X145200000Y121975000D03*
D23*
X144400000Y120225000D03*
X143600000Y121975000D03*
X142800000Y120225000D03*
X142000000Y121975000D03*
D24*
X147250000Y121100000D03*
X139950000Y121100000D03*
G04 #@! TD*
G04 #@! TO.C,D30*
G36*
G01*
X96760700Y106394557D02*
X97240700Y106394557D01*
G75*
G02*
X97300700Y106334557I0J-60000D01*
G01*
X97300700Y105854557D01*
G75*
G02*
X97240700Y105794557I-60000J0D01*
G01*
X96760700Y105794557D01*
G75*
G02*
X96700700Y105854557I0J60000D01*
G01*
X96700700Y106334557D01*
G75*
G02*
X96760700Y106394557I60000J0D01*
G01*
G37*
G36*
G01*
X98960700Y106394557D02*
X99440700Y106394557D01*
G75*
G02*
X99500700Y106334557I0J-60000D01*
G01*
X99500700Y105854557D01*
G75*
G02*
X99440700Y105794557I-60000J0D01*
G01*
X98960700Y105794557D01*
G75*
G02*
X98900700Y105854557I0J60000D01*
G01*
X98900700Y106334557D01*
G75*
G02*
X98960700Y106394557I60000J0D01*
G01*
G37*
G04 #@! TD*
D13*
G04 #@! TO.C,P30*
X121000000Y44164880D03*
G04 #@! TD*
D14*
G04 #@! TO.C,J5*
X135422500Y106650000D03*
D13*
X135422500Y104150000D03*
X137422500Y104150000D03*
X137422500Y106650000D03*
D25*
X140132500Y99380000D03*
X140132500Y111420000D03*
G04 #@! TD*
D13*
G04 #@! TO.C,P4*
X65210960Y49204880D03*
G04 #@! TD*
D12*
G04 #@! TO.C,R45*
X118400000Y119600000D03*
G36*
G01*
X119025000Y120054999D02*
X117775000Y120054999D01*
G75*
G02*
X117675000Y120154999I0J100000D01*
G01*
X117675000Y120954999D01*
G75*
G02*
X117775000Y121054999I100000J0D01*
G01*
X119025000Y121054999D01*
G75*
G02*
X119125000Y120954999I0J-100000D01*
G01*
X119125000Y120154999D01*
G75*
G02*
X119025000Y120054999I-100000J0D01*
G01*
G37*
G36*
G01*
X119025000Y121955021D02*
X117775000Y121955021D01*
G75*
G02*
X117675000Y122055021I0J100000D01*
G01*
X117675000Y122855021D01*
G75*
G02*
X117775000Y122955021I100000J0D01*
G01*
X119025000Y122955021D01*
G75*
G02*
X119125000Y122855021I0J-100000D01*
G01*
X119125000Y122055021D01*
G75*
G02*
X119025000Y121955021I-100000J0D01*
G01*
G37*
X118400000Y123410000D03*
G04 #@! TD*
D13*
G04 #@! TO.C,P25*
X124000000Y44164880D03*
G04 #@! TD*
D26*
G04 #@! TO.C,M8*
X58457366Y99369566D03*
D11*
X58507364Y109719560D03*
X58507364Y109219559D03*
D10*
X59557362Y102669562D03*
X60082362Y103544564D03*
X60832360Y102369560D03*
X64382361Y102444563D03*
G04 #@! TD*
D27*
G04 #@! TO.C,U2*
X140700000Y58085000D03*
X140700000Y35225000D03*
D12*
X128000000Y53005000D03*
X128000000Y50465000D03*
X128000000Y47925000D03*
X128000000Y45385000D03*
X128000000Y42845000D03*
X128000000Y40305000D03*
G04 #@! TD*
G04 #@! TO.C,R17*
G36*
G01*
X126535960Y133344999D02*
X125285960Y133344999D01*
G75*
G02*
X125185960Y133444999I0J100000D01*
G01*
X125185960Y134244999D01*
G75*
G02*
X125285960Y134344999I100000J0D01*
G01*
X126535960Y134344999D01*
G75*
G02*
X126635960Y134244999I0J-100000D01*
G01*
X126635960Y133444999D01*
G75*
G02*
X126535960Y133344999I-100000J0D01*
G01*
G37*
X125910960Y132890000D03*
X125910960Y136700000D03*
G36*
G01*
X126535960Y135245021D02*
X125285960Y135245021D01*
G75*
G02*
X125185960Y135345021I0J100000D01*
G01*
X125185960Y136145021D01*
G75*
G02*
X125285960Y136245021I100000J0D01*
G01*
X126535960Y136245021D01*
G75*
G02*
X126635960Y136145021I0J-100000D01*
G01*
X126635960Y135345021D01*
G75*
G02*
X126535960Y135245021I-100000J0D01*
G01*
G37*
G04 #@! TD*
D13*
G04 #@! TO.C,G6*
X5080000Y55880000D03*
X5080000Y58420000D03*
X5080000Y60960000D03*
X5080000Y63500000D03*
X5080000Y66040000D03*
X7620000Y55880000D03*
X7620000Y58420000D03*
X7620000Y60960000D03*
X7620000Y63500000D03*
X7620000Y66040000D03*
X10160000Y55880000D03*
X10160000Y58420000D03*
X10160000Y60960000D03*
X10160000Y63500000D03*
X10160000Y66040000D03*
G04 #@! TD*
G04 #@! TO.C,P55*
X107710560Y134794120D03*
G04 #@! TD*
G04 #@! TO.C,P17*
X69300000Y67600000D03*
G04 #@! TD*
G04 #@! TO.C,P33*
X92400000Y88900000D03*
G04 #@! TD*
D14*
G04 #@! TO.C,J3*
X76679360Y7204880D03*
D15*
X79219360Y7204880D03*
X81759360Y7204880D03*
X84299360Y7204880D03*
X86839360Y7204880D03*
X89379360Y7204880D03*
G04 #@! TD*
D11*
G04 #@! TO.C,M13*
X100091865Y25348214D03*
D26*
X110441859Y25298216D03*
X109941858Y25298216D03*
D10*
X103391861Y24248218D03*
X104266863Y23723218D03*
X103091859Y22973220D03*
X103166862Y19423219D03*
G04 #@! TD*
G04 #@! TO.C,S2*
G36*
G01*
X70109360Y19704881D02*
X71949360Y19704881D01*
G75*
G02*
X72029360Y19624881I0J-80000D01*
G01*
X72029360Y18984881D01*
G75*
G02*
X71949360Y18904881I-80000J0D01*
G01*
X70109360Y18904881D01*
G75*
G02*
X70029360Y18984881I0J80000D01*
G01*
X70029360Y19624881D01*
G75*
G02*
X70109360Y19704881I80000J0D01*
G01*
G37*
G36*
G01*
X70109360Y15504880D02*
X71949360Y15504880D01*
G75*
G02*
X72029360Y15424880I0J-80000D01*
G01*
X72029360Y14784880D01*
G75*
G02*
X71949360Y14704880I-80000J0D01*
G01*
X70109360Y14704880D01*
G75*
G02*
X70029360Y14784880I0J80000D01*
G01*
X70029360Y15424880D01*
G75*
G02*
X70109360Y15504880I80000J0D01*
G01*
G37*
G04 #@! TD*
D13*
G04 #@! TO.C,P11*
X29800000Y81900000D03*
G04 #@! TD*
G04 #@! TO.C,R29*
G36*
G01*
X56935960Y133349999D02*
X55685960Y133349999D01*
G75*
G02*
X55585960Y133449999I0J100000D01*
G01*
X55585960Y134249999D01*
G75*
G02*
X55685960Y134349999I100000J0D01*
G01*
X56935960Y134349999D01*
G75*
G02*
X57035960Y134249999I0J-100000D01*
G01*
X57035960Y133449999D01*
G75*
G02*
X56935960Y133349999I-100000J0D01*
G01*
G37*
D12*
X56310960Y132895000D03*
X56310960Y136705000D03*
G36*
G01*
X56935960Y135250021D02*
X55685960Y135250021D01*
G75*
G02*
X55585960Y135350021I0J100000D01*
G01*
X55585960Y136150021D01*
G75*
G02*
X55685960Y136250021I100000J0D01*
G01*
X56935960Y136250021D01*
G75*
G02*
X57035960Y136150021I0J-100000D01*
G01*
X57035960Y135350021D01*
G75*
G02*
X56935960Y135250021I-100000J0D01*
G01*
G37*
G04 #@! TD*
D13*
G04 #@! TO.C,P50*
X54060960Y129800880D03*
G04 #@! TD*
G04 #@! TO.C,R40*
G36*
G01*
X35935960Y133349999D02*
X34685960Y133349999D01*
G75*
G02*
X34585960Y133449999I0J100000D01*
G01*
X34585960Y134249999D01*
G75*
G02*
X34685960Y134349999I100000J0D01*
G01*
X35935960Y134349999D01*
G75*
G02*
X36035960Y134249999I0J-100000D01*
G01*
X36035960Y133449999D01*
G75*
G02*
X35935960Y133349999I-100000J0D01*
G01*
G37*
D12*
X35310960Y132895000D03*
G36*
G01*
X35935960Y135250021D02*
X34685960Y135250021D01*
G75*
G02*
X34585960Y135350021I0J100000D01*
G01*
X34585960Y136150021D01*
G75*
G02*
X34685960Y136250021I100000J0D01*
G01*
X35935960Y136250021D01*
G75*
G02*
X36035960Y136150021I0J-100000D01*
G01*
X36035960Y135350021D01*
G75*
G02*
X35935960Y135250021I-100000J0D01*
G01*
G37*
X35310960Y136705000D03*
G04 #@! TD*
G04 #@! TO.C,D23*
G36*
G01*
X35800000Y98240000D02*
X35800000Y97760000D01*
G75*
G02*
X35740000Y97700000I-60000J0D01*
G01*
X35260000Y97700000D01*
G75*
G02*
X35200000Y97760000I0J60000D01*
G01*
X35200000Y98240000D01*
G75*
G02*
X35260000Y98300000I60000J0D01*
G01*
X35740000Y98300000D01*
G75*
G02*
X35800000Y98240000I0J-60000D01*
G01*
G37*
G36*
G01*
X35800000Y96040000D02*
X35800000Y95560000D01*
G75*
G02*
X35740000Y95500000I-60000J0D01*
G01*
X35260000Y95500000D01*
G75*
G02*
X35200000Y95560000I0J60000D01*
G01*
X35200000Y96040000D01*
G75*
G02*
X35260000Y96100000I60000J0D01*
G01*
X35740000Y96100000D01*
G75*
G02*
X35800000Y96040000I0J-60000D01*
G01*
G37*
G04 #@! TD*
G04 #@! TO.C,D26*
G36*
G01*
X96700701Y109207062D02*
X96700701Y110107062D01*
G75*
G02*
X96800701Y110207062I100000J0D01*
G01*
X97600701Y110207062D01*
G75*
G02*
X97700701Y110107062I0J-100000D01*
G01*
X97700701Y109207062D01*
G75*
G02*
X97600701Y109107062I-100000J0D01*
G01*
X96800701Y109107062D01*
G75*
G02*
X96700701Y109207062I0J100000D01*
G01*
G37*
G36*
G01*
X98400701Y109207062D02*
X98400701Y110107062D01*
G75*
G02*
X98500701Y110207062I100000J0D01*
G01*
X99300701Y110207062D01*
G75*
G02*
X99400701Y110107062I0J-100000D01*
G01*
X99400701Y109207062D01*
G75*
G02*
X99300701Y109107062I-100000J0D01*
G01*
X98500701Y109107062D01*
G75*
G02*
X98400701Y109207062I0J100000D01*
G01*
G37*
G04 #@! TD*
D21*
G04 #@! TO.C,J13*
X4000000Y18500000D03*
G04 #@! TD*
G04 #@! TO.C,R16*
G36*
G01*
X92465700Y110307060D02*
X93135700Y110307060D01*
G75*
G02*
X93200700Y110242060I0J-65000D01*
G01*
X93200700Y109722060D01*
G75*
G02*
X93135700Y109657060I-65000J0D01*
G01*
X92465700Y109657060D01*
G75*
G02*
X92400700Y109722060I0J65000D01*
G01*
X92400700Y110242060D01*
G75*
G02*
X92465700Y110307060I65000J0D01*
G01*
G37*
G36*
G01*
X92445700Y109332060D02*
X93155700Y109332060D01*
G75*
G02*
X93200700Y109287060I0J-45000D01*
G01*
X93200700Y108927060D01*
G75*
G02*
X93155700Y108882060I-45000J0D01*
G01*
X92445700Y108882060D01*
G75*
G02*
X92400700Y108927060I0J45000D01*
G01*
X92400700Y109287060D01*
G75*
G02*
X92445700Y109332060I45000J0D01*
G01*
G37*
G36*
G01*
X92445700Y108532060D02*
X93155700Y108532060D01*
G75*
G02*
X93200700Y108487060I0J-45000D01*
G01*
X93200700Y108127060D01*
G75*
G02*
X93155700Y108082060I-45000J0D01*
G01*
X92445700Y108082060D01*
G75*
G02*
X92400700Y108127060I0J45000D01*
G01*
X92400700Y108487060D01*
G75*
G02*
X92445700Y108532060I45000J0D01*
G01*
G37*
G36*
G01*
X92465700Y107757060D02*
X93135700Y107757060D01*
G75*
G02*
X93200700Y107692060I0J-65000D01*
G01*
X93200700Y107172060D01*
G75*
G02*
X93135700Y107107060I-65000J0D01*
G01*
X92465700Y107107060D01*
G75*
G02*
X92400700Y107172060I0J65000D01*
G01*
X92400700Y107692060D01*
G75*
G02*
X92465700Y107757060I65000J0D01*
G01*
G37*
G36*
G01*
X94265700Y107757060D02*
X94935700Y107757060D01*
G75*
G02*
X95000700Y107692060I0J-65000D01*
G01*
X95000700Y107172060D01*
G75*
G02*
X94935700Y107107060I-65000J0D01*
G01*
X94265700Y107107060D01*
G75*
G02*
X94200700Y107172060I0J65000D01*
G01*
X94200700Y107692060D01*
G75*
G02*
X94265700Y107757060I65000J0D01*
G01*
G37*
G36*
G01*
X94245700Y108532060D02*
X94955700Y108532060D01*
G75*
G02*
X95000700Y108487060I0J-45000D01*
G01*
X95000700Y108127060D01*
G75*
G02*
X94955700Y108082060I-45000J0D01*
G01*
X94245700Y108082060D01*
G75*
G02*
X94200700Y108127060I0J45000D01*
G01*
X94200700Y108487060D01*
G75*
G02*
X94245700Y108532060I45000J0D01*
G01*
G37*
G36*
G01*
X94245700Y109332060D02*
X94955700Y109332060D01*
G75*
G02*
X95000700Y109287060I0J-45000D01*
G01*
X95000700Y108927060D01*
G75*
G02*
X94955700Y108882060I-45000J0D01*
G01*
X94245700Y108882060D01*
G75*
G02*
X94200700Y108927060I0J45000D01*
G01*
X94200700Y109287060D01*
G75*
G02*
X94245700Y109332060I45000J0D01*
G01*
G37*
G36*
G01*
X94265700Y110307060D02*
X94935700Y110307060D01*
G75*
G02*
X95000700Y110242060I0J-65000D01*
G01*
X95000700Y109722060D01*
G75*
G02*
X94935700Y109657060I-65000J0D01*
G01*
X94265700Y109657060D01*
G75*
G02*
X94200700Y109722060I0J65000D01*
G01*
X94200700Y110242060D01*
G75*
G02*
X94265700Y110307060I65000J0D01*
G01*
G37*
G04 #@! TD*
G04 #@! TO.C,D9*
G36*
G01*
X63410211Y85350749D02*
X64310211Y85350749D01*
G75*
G02*
X64410211Y85250749I0J-100000D01*
G01*
X64410211Y84450749D01*
G75*
G02*
X64310211Y84350749I-100000J0D01*
G01*
X63410211Y84350749D01*
G75*
G02*
X63310211Y84450749I0J100000D01*
G01*
X63310211Y85250749D01*
G75*
G02*
X63410211Y85350749I100000J0D01*
G01*
G37*
G36*
G01*
X63410211Y83650749D02*
X64310211Y83650749D01*
G75*
G02*
X64410211Y83550749I0J-100000D01*
G01*
X64410211Y82750749D01*
G75*
G02*
X64310211Y82650749I-100000J0D01*
G01*
X63410211Y82650749D01*
G75*
G02*
X63310211Y82750749I0J100000D01*
G01*
X63310211Y83550749D01*
G75*
G02*
X63410211Y83650749I100000J0D01*
G01*
G37*
G04 #@! TD*
D13*
G04 #@! TO.C,P28*
X82011360Y82200880D03*
G04 #@! TD*
G04 #@! TO.C,P24*
X124000000Y47000000D03*
G04 #@! TD*
D21*
G04 #@! TO.C,J12*
X4000000Y77500000D03*
G04 #@! TD*
G04 #@! TO.C,D8*
G36*
G01*
X66710211Y85350749D02*
X67610211Y85350749D01*
G75*
G02*
X67710211Y85250749I0J-100000D01*
G01*
X67710211Y84450749D01*
G75*
G02*
X67610211Y84350749I-100000J0D01*
G01*
X66710211Y84350749D01*
G75*
G02*
X66610211Y84450749I0J100000D01*
G01*
X66610211Y85250749D01*
G75*
G02*
X66710211Y85350749I100000J0D01*
G01*
G37*
G36*
G01*
X66710211Y83650749D02*
X67610211Y83650749D01*
G75*
G02*
X67710211Y83550749I0J-100000D01*
G01*
X67710211Y82750749D01*
G75*
G02*
X67610211Y82650749I-100000J0D01*
G01*
X66710211Y82650749D01*
G75*
G02*
X66610211Y82750749I0J100000D01*
G01*
X66610211Y83550749D01*
G75*
G02*
X66710211Y83650749I100000J0D01*
G01*
G37*
G04 #@! TD*
G04 #@! TO.C,D14*
G36*
G01*
X65810209Y85290750D02*
X65810209Y84810750D01*
G75*
G02*
X65750209Y84750750I-60000J0D01*
G01*
X65270209Y84750750D01*
G75*
G02*
X65210209Y84810750I0J60000D01*
G01*
X65210209Y85290750D01*
G75*
G02*
X65270209Y85350750I60000J0D01*
G01*
X65750209Y85350750D01*
G75*
G02*
X65810209Y85290750I0J-60000D01*
G01*
G37*
G36*
G01*
X65810209Y83090750D02*
X65810209Y82610750D01*
G75*
G02*
X65750209Y82550750I-60000J0D01*
G01*
X65270209Y82550750D01*
G75*
G02*
X65210209Y82610750I0J60000D01*
G01*
X65210209Y83090750D01*
G75*
G02*
X65270209Y83150750I60000J0D01*
G01*
X65750209Y83150750D01*
G75*
G02*
X65810209Y83090750I0J-60000D01*
G01*
G37*
G04 #@! TD*
G04 #@! TO.C,R19*
G36*
G01*
X111535960Y133344999D02*
X110285960Y133344999D01*
G75*
G02*
X110185960Y133444999I0J100000D01*
G01*
X110185960Y134244999D01*
G75*
G02*
X110285960Y134344999I100000J0D01*
G01*
X111535960Y134344999D01*
G75*
G02*
X111635960Y134244999I0J-100000D01*
G01*
X111635960Y133444999D01*
G75*
G02*
X111535960Y133344999I-100000J0D01*
G01*
G37*
D12*
X110910960Y132890000D03*
X110910960Y136700000D03*
G36*
G01*
X111535960Y135245021D02*
X110285960Y135245021D01*
G75*
G02*
X110185960Y135345021I0J100000D01*
G01*
X110185960Y136145021D01*
G75*
G02*
X110285960Y136245021I100000J0D01*
G01*
X111535960Y136245021D01*
G75*
G02*
X111635960Y136145021I0J-100000D01*
G01*
X111635960Y135345021D01*
G75*
G02*
X111535960Y135245021I-100000J0D01*
G01*
G37*
G04 #@! TD*
G04 #@! TO.C,F2*
X12350000Y139800000D03*
G36*
G01*
X13694990Y138900000D02*
X13004990Y138900000D01*
G75*
G02*
X12774990Y139130000I0J230000D01*
G01*
X12774990Y140470000D01*
G75*
G02*
X13004990Y140700000I230000J0D01*
G01*
X13694990Y140700000D01*
G75*
G02*
X13924990Y140470000I0J-230000D01*
G01*
X13924990Y139130000D01*
G75*
G02*
X13694990Y138900000I-230000J0D01*
G01*
G37*
G36*
G01*
X16595010Y138900000D02*
X15905010Y138900000D01*
G75*
G02*
X15675010Y139130000I0J230000D01*
G01*
X15675010Y140470000D01*
G75*
G02*
X15905010Y140700000I230000J0D01*
G01*
X16595010Y140700000D01*
G75*
G02*
X16825010Y140470000I0J-230000D01*
G01*
X16825010Y139130000D01*
G75*
G02*
X16595010Y138900000I-230000J0D01*
G01*
G37*
X17250000Y139800000D03*
G04 #@! TD*
D16*
G04 #@! TO.C,J22*
X63800000Y15400000D03*
G04 #@! TD*
G04 #@! TO.C,D29*
G36*
G01*
X96760700Y111607060D02*
X97240700Y111607060D01*
G75*
G02*
X97300700Y111547060I0J-60000D01*
G01*
X97300700Y111067060D01*
G75*
G02*
X97240700Y111007060I-60000J0D01*
G01*
X96760700Y111007060D01*
G75*
G02*
X96700700Y111067060I0J60000D01*
G01*
X96700700Y111547060D01*
G75*
G02*
X96760700Y111607060I60000J0D01*
G01*
G37*
G36*
G01*
X98960700Y111607060D02*
X99440700Y111607060D01*
G75*
G02*
X99500700Y111547060I0J-60000D01*
G01*
X99500700Y111067060D01*
G75*
G02*
X99440700Y111007060I-60000J0D01*
G01*
X98960700Y111007060D01*
G75*
G02*
X98900700Y111067060I0J60000D01*
G01*
X98900700Y111547060D01*
G75*
G02*
X98960700Y111607060I60000J0D01*
G01*
G37*
G04 #@! TD*
D12*
G04 #@! TO.C,R38*
X38310960Y132895000D03*
G36*
G01*
X38935960Y133349999D02*
X37685960Y133349999D01*
G75*
G02*
X37585960Y133449999I0J100000D01*
G01*
X37585960Y134249999D01*
G75*
G02*
X37685960Y134349999I100000J0D01*
G01*
X38935960Y134349999D01*
G75*
G02*
X39035960Y134249999I0J-100000D01*
G01*
X39035960Y133449999D01*
G75*
G02*
X38935960Y133349999I-100000J0D01*
G01*
G37*
X38310960Y136705000D03*
G36*
G01*
X38935960Y135250021D02*
X37685960Y135250021D01*
G75*
G02*
X37585960Y135350021I0J100000D01*
G01*
X37585960Y136150021D01*
G75*
G02*
X37685960Y136250021I100000J0D01*
G01*
X38935960Y136250021D01*
G75*
G02*
X39035960Y136150021I0J-100000D01*
G01*
X39035960Y135350021D01*
G75*
G02*
X38935960Y135250021I-100000J0D01*
G01*
G37*
G04 #@! TD*
G04 #@! TO.C,R44*
X120600960Y129550000D03*
G36*
G01*
X121055959Y128925000D02*
X121055959Y130175000D01*
G75*
G02*
X121155959Y130275000I100000J0D01*
G01*
X121955959Y130275000D01*
G75*
G02*
X122055959Y130175000I0J-100000D01*
G01*
X122055959Y128925000D01*
G75*
G02*
X121955959Y128825000I-100000J0D01*
G01*
X121155959Y128825000D01*
G75*
G02*
X121055959Y128925000I0J100000D01*
G01*
G37*
X124410960Y129550000D03*
G36*
G01*
X122955981Y128925000D02*
X122955981Y130175000D01*
G75*
G02*
X123055981Y130275000I100000J0D01*
G01*
X123855981Y130275000D01*
G75*
G02*
X123955981Y130175000I0J-100000D01*
G01*
X123955981Y128925000D01*
G75*
G02*
X123855981Y128825000I-100000J0D01*
G01*
X123055981Y128825000D01*
G75*
G02*
X122955981Y128925000I0J100000D01*
G01*
G37*
G04 #@! TD*
G04 #@! TO.C,D16*
G36*
G01*
X45150000Y98307059D02*
X46050000Y98307059D01*
G75*
G02*
X46150000Y98207059I0J-100000D01*
G01*
X46150000Y97407059D01*
G75*
G02*
X46050000Y97307059I-100000J0D01*
G01*
X45150000Y97307059D01*
G75*
G02*
X45050000Y97407059I0J100000D01*
G01*
X45050000Y98207059D01*
G75*
G02*
X45150000Y98307059I100000J0D01*
G01*
G37*
G36*
G01*
X45150000Y96607059D02*
X46050000Y96607059D01*
G75*
G02*
X46150000Y96507059I0J-100000D01*
G01*
X46150000Y95707059D01*
G75*
G02*
X46050000Y95607059I-100000J0D01*
G01*
X45150000Y95607059D01*
G75*
G02*
X45050000Y95707059I0J100000D01*
G01*
X45050000Y96507059D01*
G75*
G02*
X45150000Y96607059I100000J0D01*
G01*
G37*
G04 #@! TD*
G04 #@! TO.C,M3*
G36*
G01*
X79736861Y63583503D02*
X79736861Y64033503D01*
G75*
G02*
X79861861Y64158503I125000J0D01*
G01*
X79861861Y64158503D01*
G75*
G02*
X79986861Y64033503I0J-125000D01*
G01*
X79986861Y63583503D01*
G75*
G02*
X79861861Y63458503I-125000J0D01*
G01*
X79861861Y63458503D01*
G75*
G02*
X79736861Y63583503I0J125000D01*
G01*
G37*
G04 #@! TD*
G04 #@! TO.C,R3*
G36*
G01*
X87550700Y83417060D02*
X87550700Y84197060D01*
G75*
G02*
X87620700Y84267060I70000J0D01*
G01*
X88180700Y84267060D01*
G75*
G02*
X88250700Y84197060I0J-70000D01*
G01*
X88250700Y83417060D01*
G75*
G02*
X88180700Y83347060I-70000J0D01*
G01*
X87620700Y83347060D01*
G75*
G02*
X87550700Y83417060I0J70000D01*
G01*
G37*
G36*
G01*
X89150700Y83417060D02*
X89150700Y84197060D01*
G75*
G02*
X89220700Y84267060I70000J0D01*
G01*
X89780700Y84267060D01*
G75*
G02*
X89850700Y84197060I0J-70000D01*
G01*
X89850700Y83417060D01*
G75*
G02*
X89780700Y83347060I-70000J0D01*
G01*
X89220700Y83347060D01*
G75*
G02*
X89150700Y83417060I0J70000D01*
G01*
G37*
G04 #@! TD*
G04 #@! TO.C,D19*
G36*
G01*
X36700002Y98299999D02*
X37600002Y98299999D01*
G75*
G02*
X37700002Y98199999I0J-100000D01*
G01*
X37700002Y97399999D01*
G75*
G02*
X37600002Y97299999I-100000J0D01*
G01*
X36700002Y97299999D01*
G75*
G02*
X36600002Y97399999I0J100000D01*
G01*
X36600002Y98199999D01*
G75*
G02*
X36700002Y98299999I100000J0D01*
G01*
G37*
G36*
G01*
X36700002Y96599999D02*
X37600002Y96599999D01*
G75*
G02*
X37700002Y96499999I0J-100000D01*
G01*
X37700002Y95699999D01*
G75*
G02*
X37600002Y95599999I-100000J0D01*
G01*
X36700002Y95599999D01*
G75*
G02*
X36600002Y95699999I0J100000D01*
G01*
X36600002Y96499999D01*
G75*
G02*
X36700002Y96599999I100000J0D01*
G01*
G37*
G04 #@! TD*
G04 #@! TO.C,R30*
X58310960Y126395000D03*
G36*
G01*
X58935960Y126849999D02*
X57685960Y126849999D01*
G75*
G02*
X57585960Y126949999I0J100000D01*
G01*
X57585960Y127749999D01*
G75*
G02*
X57685960Y127849999I100000J0D01*
G01*
X58935960Y127849999D01*
G75*
G02*
X59035960Y127749999I0J-100000D01*
G01*
X59035960Y126949999D01*
G75*
G02*
X58935960Y126849999I-100000J0D01*
G01*
G37*
G36*
G01*
X58935960Y128750021D02*
X57685960Y128750021D01*
G75*
G02*
X57585960Y128850021I0J100000D01*
G01*
X57585960Y129650021D01*
G75*
G02*
X57685960Y129750021I100000J0D01*
G01*
X58935960Y129750021D01*
G75*
G02*
X59035960Y129650021I0J-100000D01*
G01*
X59035960Y128850021D01*
G75*
G02*
X58935960Y128750021I-100000J0D01*
G01*
G37*
X58310960Y130205000D03*
G04 #@! TD*
D13*
G04 #@! TO.C,P40*
X79200000Y85000000D03*
G04 #@! TD*
G04 #@! TO.C,D21*
G36*
G01*
X44300000Y98240000D02*
X44300000Y97760000D01*
G75*
G02*
X44240000Y97700000I-60000J0D01*
G01*
X43760000Y97700000D01*
G75*
G02*
X43700000Y97760000I0J60000D01*
G01*
X43700000Y98240000D01*
G75*
G02*
X43760000Y98300000I60000J0D01*
G01*
X44240000Y98300000D01*
G75*
G02*
X44300000Y98240000I0J-60000D01*
G01*
G37*
G36*
G01*
X44300000Y96040000D02*
X44300000Y95560000D01*
G75*
G02*
X44240000Y95500000I-60000J0D01*
G01*
X43760000Y95500000D01*
G75*
G02*
X43700000Y95560000I0J60000D01*
G01*
X43700000Y96040000D01*
G75*
G02*
X43760000Y96100000I60000J0D01*
G01*
X44240000Y96100000D01*
G75*
G02*
X44300000Y96040000I0J-60000D01*
G01*
G37*
G04 #@! TD*
G04 #@! TO.C,P48*
X61310960Y128300000D03*
G04 #@! TD*
G04 #@! TO.C,P8*
X101500000Y86400000D03*
G04 #@! TD*
G04 #@! TO.C,R31*
G36*
G01*
X50935960Y133349999D02*
X49685960Y133349999D01*
G75*
G02*
X49585960Y133449999I0J100000D01*
G01*
X49585960Y134249999D01*
G75*
G02*
X49685960Y134349999I100000J0D01*
G01*
X50935960Y134349999D01*
G75*
G02*
X51035960Y134249999I0J-100000D01*
G01*
X51035960Y133449999D01*
G75*
G02*
X50935960Y133349999I-100000J0D01*
G01*
G37*
D12*
X50310960Y132895000D03*
G36*
G01*
X50935960Y135250021D02*
X49685960Y135250021D01*
G75*
G02*
X49585960Y135350021I0J100000D01*
G01*
X49585960Y136150021D01*
G75*
G02*
X49685960Y136250021I100000J0D01*
G01*
X50935960Y136250021D01*
G75*
G02*
X51035960Y136150021I0J-100000D01*
G01*
X51035960Y135350021D01*
G75*
G02*
X50935960Y135250021I-100000J0D01*
G01*
G37*
X50310960Y136705000D03*
G04 #@! TD*
D21*
G04 #@! TO.C,J16*
X150110960Y142000000D03*
G04 #@! TD*
D13*
G04 #@! TO.C,P32*
X118000000Y44164880D03*
G04 #@! TD*
D28*
G04 #@! TO.C,U1*
X64662500Y33650000D03*
X64662500Y34150000D03*
X64662500Y34650000D03*
X64662500Y35150000D03*
D29*
X64150000Y35162500D03*
X63650000Y35162500D03*
D28*
X63137500Y35150000D03*
X63137500Y34650000D03*
X63137500Y34150000D03*
X63137500Y33650000D03*
D29*
X63650000Y33637500D03*
X64150000Y33637500D03*
G04 #@! TD*
D30*
G04 #@! TO.C,BT1*
X44550000Y17500000D03*
X15250000Y17500000D03*
G04 #@! TD*
G04 #@! TO.C,R5*
G36*
G01*
X30195960Y116250000D02*
X30975960Y116250000D01*
G75*
G02*
X31045960Y116180000I0J-70000D01*
G01*
X31045960Y115620000D01*
G75*
G02*
X30975960Y115550000I-70000J0D01*
G01*
X30195960Y115550000D01*
G75*
G02*
X30125960Y115620000I0J70000D01*
G01*
X30125960Y116180000D01*
G75*
G02*
X30195960Y116250000I70000J0D01*
G01*
G37*
G36*
G01*
X30195960Y114650000D02*
X30975960Y114650000D01*
G75*
G02*
X31045960Y114580000I0J-70000D01*
G01*
X31045960Y114020000D01*
G75*
G02*
X30975960Y113950000I-70000J0D01*
G01*
X30195960Y113950000D01*
G75*
G02*
X30125960Y114020000I0J70000D01*
G01*
X30125960Y114580000D01*
G75*
G02*
X30195960Y114650000I70000J0D01*
G01*
G37*
G04 #@! TD*
D21*
G04 #@! TO.C,J14*
X150000000Y18500000D03*
G04 #@! TD*
G04 #@! TO.C,D2*
G36*
G01*
X67899979Y11820000D02*
X67899979Y10580000D01*
G75*
G02*
X67769979Y10450000I-130000J0D01*
G01*
X66729979Y10450000D01*
G75*
G02*
X66599979Y10580000I0J130000D01*
G01*
X66599979Y11820000D01*
G75*
G02*
X66729979Y11950000I130000J0D01*
G01*
X67769979Y11950000D01*
G75*
G02*
X67899979Y11820000I0J-130000D01*
G01*
G37*
G36*
G01*
X69800000Y11820000D02*
X69800000Y10580000D01*
G75*
G02*
X69670000Y10450000I-130000J0D01*
G01*
X68630000Y10450000D01*
G75*
G02*
X68500000Y10580000I0J130000D01*
G01*
X68500000Y11820000D01*
G75*
G02*
X68630000Y11950000I130000J0D01*
G01*
X69670000Y11950000D01*
G75*
G02*
X69800000Y11820000I0J-130000D01*
G01*
G37*
G04 #@! TD*
D13*
G04 #@! TO.C,P9*
X66500000Y73200000D03*
G04 #@! TD*
G04 #@! TO.C,J25*
G36*
G01*
X136439340Y90060660D02*
X136439340Y90060660D01*
G75*
G02*
X138136396Y90060660I848528J-848528D01*
G01*
X138560660Y89636396D01*
G75*
G02*
X138560660Y87939340I-848528J-848528D01*
G01*
X138560660Y87939340D01*
G75*
G02*
X136863604Y87939340I-848528J848528D01*
G01*
X136439340Y88363604D01*
G75*
G02*
X136439340Y90060660I848528J848528D01*
G01*
G37*
G36*
G01*
X138339340Y92260660D02*
X138339340Y92260660D01*
G75*
G02*
X140036396Y92260660I848528J-848528D01*
G01*
X140460660Y91836396D01*
G75*
G02*
X140460660Y90139340I-848528J-848528D01*
G01*
X140460660Y90139340D01*
G75*
G02*
X138763604Y90139340I-848528J848528D01*
G01*
X138339340Y90563604D01*
G75*
G02*
X138339340Y92260660I848528J848528D01*
G01*
G37*
G36*
G01*
X144539340Y92260660D02*
X144539340Y92260660D01*
G75*
G02*
X146236396Y92260660I848528J-848528D01*
G01*
X146660660Y91836396D01*
G75*
G02*
X146660660Y90139340I-848528J-848528D01*
G01*
X146660660Y90139340D01*
G75*
G02*
X144963604Y90139340I-848528J848528D01*
G01*
X144539340Y90563604D01*
G75*
G02*
X144539340Y92260660I848528J848528D01*
G01*
G37*
G36*
G01*
X142039340Y90060660D02*
X142039340Y90060660D01*
G75*
G02*
X143736396Y90060660I848528J-848528D01*
G01*
X144160660Y89636396D01*
G75*
G02*
X144160660Y87939340I-848528J-848528D01*
G01*
X144160660Y87939340D01*
G75*
G02*
X142463604Y87939340I-848528J848528D01*
G01*
X142039340Y88363604D01*
G75*
G02*
X142039340Y90060660I848528J848528D01*
G01*
G37*
G36*
G01*
X132739340Y92260660D02*
X132739340Y92260660D01*
G75*
G02*
X134436396Y92260660I848528J-848528D01*
G01*
X134860660Y91836396D01*
G75*
G02*
X134860660Y90139340I-848528J-848528D01*
G01*
X134860660Y90139340D01*
G75*
G02*
X133163604Y90139340I-848528J848528D01*
G01*
X132739340Y90563604D01*
G75*
G02*
X132739340Y92260660I848528J848528D01*
G01*
G37*
G04 #@! TD*
D21*
G04 #@! TO.C,J17*
X136600700Y4907060D03*
G04 #@! TD*
D13*
G04 #@! TO.C,P46*
X64810960Y128300000D03*
G04 #@! TD*
G04 #@! TO.C,D10*
G36*
G01*
X28220700Y119200022D02*
X26980700Y119200022D01*
G75*
G02*
X26850700Y119330022I0J130000D01*
G01*
X26850700Y120370022D01*
G75*
G02*
X26980700Y120500022I130000J0D01*
G01*
X28220700Y120500022D01*
G75*
G02*
X28350700Y120370022I0J-130000D01*
G01*
X28350700Y119330022D01*
G75*
G02*
X28220700Y119200022I-130000J0D01*
G01*
G37*
G36*
G01*
X28220700Y117300001D02*
X26980700Y117300001D01*
G75*
G02*
X26850700Y117430001I0J130000D01*
G01*
X26850700Y118470001D01*
G75*
G02*
X26980700Y118600001I130000J0D01*
G01*
X28220700Y118600001D01*
G75*
G02*
X28350700Y118470001I0J-130000D01*
G01*
X28350700Y117430001D01*
G75*
G02*
X28220700Y117300001I-130000J0D01*
G01*
G37*
G04 #@! TD*
G04 #@! TO.C,P23*
X48000000Y84800000D03*
G04 #@! TD*
D31*
G04 #@! TO.C,M10*
X19501707Y136653865D03*
D32*
X23551717Y121128865D03*
D10*
X15001708Y135478864D03*
X16326712Y127253864D03*
X21559206Y127271369D03*
X22051712Y129153865D03*
X23176698Y121803872D03*
G04 #@! TD*
G04 #@! TO.C,D17*
G36*
G01*
X41900002Y98299999D02*
X42800002Y98299999D01*
G75*
G02*
X42900002Y98199999I0J-100000D01*
G01*
X42900002Y97399999D01*
G75*
G02*
X42800002Y97299999I-100000J0D01*
G01*
X41900002Y97299999D01*
G75*
G02*
X41800002Y97399999I0J100000D01*
G01*
X41800002Y98199999D01*
G75*
G02*
X41900002Y98299999I100000J0D01*
G01*
G37*
G36*
G01*
X41900002Y96599999D02*
X42800002Y96599999D01*
G75*
G02*
X42900002Y96499999I0J-100000D01*
G01*
X42900002Y95699999D01*
G75*
G02*
X42800002Y95599999I-100000J0D01*
G01*
X41900002Y95599999D01*
G75*
G02*
X41800002Y95699999I0J100000D01*
G01*
X41800002Y96499999D01*
G75*
G02*
X41900002Y96599999I100000J0D01*
G01*
G37*
G04 #@! TD*
G04 #@! TO.C,D3*
G36*
G01*
X124229150Y54485510D02*
X123329150Y54485510D01*
G75*
G02*
X123229150Y54585510I0J100000D01*
G01*
X123229150Y55385510D01*
G75*
G02*
X123329150Y55485510I100000J0D01*
G01*
X124229150Y55485510D01*
G75*
G02*
X124329150Y55385510I0J-100000D01*
G01*
X124329150Y54585510D01*
G75*
G02*
X124229150Y54485510I-100000J0D01*
G01*
G37*
G36*
G01*
X124229150Y56185510D02*
X123329150Y56185510D01*
G75*
G02*
X123229150Y56285510I0J100000D01*
G01*
X123229150Y57085510D01*
G75*
G02*
X123329150Y57185510I100000J0D01*
G01*
X124229150Y57185510D01*
G75*
G02*
X124329150Y57085510I0J-100000D01*
G01*
X124329150Y56285510D01*
G75*
G02*
X124229150Y56185510I-100000J0D01*
G01*
G37*
G04 #@! TD*
D13*
G04 #@! TO.C,G7*
X20320000Y33020000D03*
X20320000Y35560000D03*
X20320000Y38100000D03*
X20320000Y40640000D03*
X20320000Y43180000D03*
X22860000Y33020000D03*
X22860000Y35560000D03*
X22860000Y38100000D03*
X22860000Y40640000D03*
X22860000Y43180000D03*
X25400000Y33020000D03*
X25400000Y35560000D03*
X25400000Y38100000D03*
X25400000Y40640000D03*
X25400000Y43180000D03*
G04 #@! TD*
G04 #@! TO.C,U3*
G36*
G01*
X128255000Y91250000D02*
X128555000Y91250000D01*
G75*
G02*
X128705000Y91100000I0J-150000D01*
G01*
X128705000Y89450000D01*
G75*
G02*
X128555000Y89300000I-150000J0D01*
G01*
X128255000Y89300000D01*
G75*
G02*
X128105000Y89450000I0J150000D01*
G01*
X128105000Y91100000D01*
G75*
G02*
X128255000Y91250000I150000J0D01*
G01*
G37*
G36*
G01*
X126985000Y91250000D02*
X127285000Y91250000D01*
G75*
G02*
X127435000Y91100000I0J-150000D01*
G01*
X127435000Y89450000D01*
G75*
G02*
X127285000Y89300000I-150000J0D01*
G01*
X126985000Y89300000D01*
G75*
G02*
X126835000Y89450000I0J150000D01*
G01*
X126835000Y91100000D01*
G75*
G02*
X126985000Y91250000I150000J0D01*
G01*
G37*
G36*
G01*
X125715000Y91250000D02*
X126015000Y91250000D01*
G75*
G02*
X126165000Y91100000I0J-150000D01*
G01*
X126165000Y89450000D01*
G75*
G02*
X126015000Y89300000I-150000J0D01*
G01*
X125715000Y89300000D01*
G75*
G02*
X125565000Y89450000I0J150000D01*
G01*
X125565000Y91100000D01*
G75*
G02*
X125715000Y91250000I150000J0D01*
G01*
G37*
G36*
G01*
X124445000Y91250000D02*
X124745000Y91250000D01*
G75*
G02*
X124895000Y91100000I0J-150000D01*
G01*
X124895000Y89450000D01*
G75*
G02*
X124745000Y89300000I-150000J0D01*
G01*
X124445000Y89300000D01*
G75*
G02*
X124295000Y89450000I0J150000D01*
G01*
X124295000Y91100000D01*
G75*
G02*
X124445000Y91250000I150000J0D01*
G01*
G37*
G36*
G01*
X124445000Y86300000D02*
X124745000Y86300000D01*
G75*
G02*
X124895000Y86150000I0J-150000D01*
G01*
X124895000Y84500000D01*
G75*
G02*
X124745000Y84350000I-150000J0D01*
G01*
X124445000Y84350000D01*
G75*
G02*
X124295000Y84500000I0J150000D01*
G01*
X124295000Y86150000D01*
G75*
G02*
X124445000Y86300000I150000J0D01*
G01*
G37*
G36*
G01*
X125715000Y86300000D02*
X126015000Y86300000D01*
G75*
G02*
X126165000Y86150000I0J-150000D01*
G01*
X126165000Y84500000D01*
G75*
G02*
X126015000Y84350000I-150000J0D01*
G01*
X125715000Y84350000D01*
G75*
G02*
X125565000Y84500000I0J150000D01*
G01*
X125565000Y86150000D01*
G75*
G02*
X125715000Y86300000I150000J0D01*
G01*
G37*
G36*
G01*
X126985000Y86300000D02*
X127285000Y86300000D01*
G75*
G02*
X127435000Y86150000I0J-150000D01*
G01*
X127435000Y84500000D01*
G75*
G02*
X127285000Y84350000I-150000J0D01*
G01*
X126985000Y84350000D01*
G75*
G02*
X126835000Y84500000I0J150000D01*
G01*
X126835000Y86150000D01*
G75*
G02*
X126985000Y86300000I150000J0D01*
G01*
G37*
G36*
G01*
X128255000Y86300000D02*
X128555000Y86300000D01*
G75*
G02*
X128705000Y86150000I0J-150000D01*
G01*
X128705000Y84500000D01*
G75*
G02*
X128555000Y84350000I-150000J0D01*
G01*
X128255000Y84350000D01*
G75*
G02*
X128105000Y84500000I0J150000D01*
G01*
X128105000Y86150000D01*
G75*
G02*
X128255000Y86300000I150000J0D01*
G01*
G37*
G04 #@! TD*
G04 #@! TO.C,U4*
G36*
G01*
X134400000Y17325000D02*
X134400000Y17525000D01*
G75*
G02*
X134500000Y17625000I100000J0D01*
G01*
X134850000Y17625000D01*
G75*
G02*
X134950000Y17525000I0J-100000D01*
G01*
X134950000Y17325000D01*
G75*
G02*
X134850000Y17225000I-100000J0D01*
G01*
X134500000Y17225000D01*
G75*
G02*
X134400000Y17325000I0J100000D01*
G01*
G37*
G36*
G01*
X134400000Y16725000D02*
X134400000Y16925000D01*
G75*
G02*
X134500000Y17025000I100000J0D01*
G01*
X134850000Y17025000D01*
G75*
G02*
X134950000Y16925000I0J-100000D01*
G01*
X134950000Y16725000D01*
G75*
G02*
X134850000Y16625000I-100000J0D01*
G01*
X134500000Y16625000D01*
G75*
G02*
X134400000Y16725000I0J100000D01*
G01*
G37*
G36*
G01*
X134800000Y16025000D02*
X134800000Y16375000D01*
G75*
G02*
X134900000Y16475000I100000J0D01*
G01*
X135100000Y16475000D01*
G75*
G02*
X135200000Y16375000I0J-100000D01*
G01*
X135200000Y16025000D01*
G75*
G02*
X135100000Y15925000I-100000J0D01*
G01*
X134900000Y15925000D01*
G75*
G02*
X134800000Y16025000I0J100000D01*
G01*
G37*
G36*
G01*
X135400000Y16025000D02*
X135400000Y16375000D01*
G75*
G02*
X135500000Y16475000I100000J0D01*
G01*
X135700000Y16475000D01*
G75*
G02*
X135800000Y16375000I0J-100000D01*
G01*
X135800000Y16025000D01*
G75*
G02*
X135700000Y15925000I-100000J0D01*
G01*
X135500000Y15925000D01*
G75*
G02*
X135400000Y16025000I0J100000D01*
G01*
G37*
G36*
G01*
X136000000Y16025000D02*
X136000000Y16375000D01*
G75*
G02*
X136100000Y16475000I100000J0D01*
G01*
X136300000Y16475000D01*
G75*
G02*
X136400000Y16375000I0J-100000D01*
G01*
X136400000Y16025000D01*
G75*
G02*
X136300000Y15925000I-100000J0D01*
G01*
X136100000Y15925000D01*
G75*
G02*
X136000000Y16025000I0J100000D01*
G01*
G37*
G36*
G01*
X136250000Y16725000D02*
X136250000Y16925000D01*
G75*
G02*
X136350000Y17025000I100000J0D01*
G01*
X136700000Y17025000D01*
G75*
G02*
X136800000Y16925000I0J-100000D01*
G01*
X136800000Y16725000D01*
G75*
G02*
X136700000Y16625000I-100000J0D01*
G01*
X136350000Y16625000D01*
G75*
G02*
X136250000Y16725000I0J100000D01*
G01*
G37*
G36*
G01*
X136250000Y17325000D02*
X136250000Y17525000D01*
G75*
G02*
X136350000Y17625000I100000J0D01*
G01*
X136700000Y17625000D01*
G75*
G02*
X136800000Y17525000I0J-100000D01*
G01*
X136800000Y17325000D01*
G75*
G02*
X136700000Y17225000I-100000J0D01*
G01*
X136350000Y17225000D01*
G75*
G02*
X136250000Y17325000I0J100000D01*
G01*
G37*
G36*
G01*
X136000000Y17875000D02*
X136000000Y18225000D01*
G75*
G02*
X136100000Y18325000I100000J0D01*
G01*
X136300000Y18325000D01*
G75*
G02*
X136400000Y18225000I0J-100000D01*
G01*
X136400000Y17875000D01*
G75*
G02*
X136300000Y17775000I-100000J0D01*
G01*
X136100000Y17775000D01*
G75*
G02*
X136000000Y17875000I0J100000D01*
G01*
G37*
G36*
G01*
X135400000Y17875000D02*
X135400000Y18225000D01*
G75*
G02*
X135500000Y18325000I100000J0D01*
G01*
X135700000Y18325000D01*
G75*
G02*
X135800000Y18225000I0J-100000D01*
G01*
X135800000Y17875000D01*
G75*
G02*
X135700000Y17775000I-100000J0D01*
G01*
X135500000Y17775000D01*
G75*
G02*
X135400000Y17875000I0J100000D01*
G01*
G37*
G36*
G01*
X134800000Y17875000D02*
X134800000Y18225000D01*
G75*
G02*
X134900000Y18325000I100000J0D01*
G01*
X135100000Y18325000D01*
G75*
G02*
X135200000Y18225000I0J-100000D01*
G01*
X135200000Y17875000D01*
G75*
G02*
X135100000Y17775000I-100000J0D01*
G01*
X134900000Y17775000D01*
G75*
G02*
X134800000Y17875000I0J100000D01*
G01*
G37*
G04 #@! TD*
G04 #@! TO.C,P45*
X89500000Y88900000D03*
G04 #@! TD*
D21*
G04 #@! TO.C,J15*
X150000000Y77500000D03*
G04 #@! TD*
D12*
G04 #@! TO.C,R47*
X116550000Y132895000D03*
G36*
G01*
X117175000Y133349999D02*
X115925000Y133349999D01*
G75*
G02*
X115825000Y133449999I0J100000D01*
G01*
X115825000Y134249999D01*
G75*
G02*
X115925000Y134349999I100000J0D01*
G01*
X117175000Y134349999D01*
G75*
G02*
X117275000Y134249999I0J-100000D01*
G01*
X117275000Y133449999D01*
G75*
G02*
X117175000Y133349999I-100000J0D01*
G01*
G37*
X116550000Y136705000D03*
G36*
G01*
X117175000Y135250021D02*
X115925000Y135250021D01*
G75*
G02*
X115825000Y135350021I0J100000D01*
G01*
X115825000Y136150021D01*
G75*
G02*
X115925000Y136250021I100000J0D01*
G01*
X117175000Y136250021D01*
G75*
G02*
X117275000Y136150021I0J-100000D01*
G01*
X117275000Y135350021D01*
G75*
G02*
X117175000Y135250021I-100000J0D01*
G01*
G37*
G04 #@! TD*
G04 #@! TO.C,F1*
G36*
G01*
X22594990Y138900000D02*
X21904990Y138900000D01*
G75*
G02*
X21674990Y139130000I0J230000D01*
G01*
X21674990Y140470000D01*
G75*
G02*
X21904990Y140700000I230000J0D01*
G01*
X22594990Y140700000D01*
G75*
G02*
X22824990Y140470000I0J-230000D01*
G01*
X22824990Y139130000D01*
G75*
G02*
X22594990Y138900000I-230000J0D01*
G01*
G37*
X21250000Y139800000D03*
G36*
G01*
X25495010Y138900000D02*
X24805010Y138900000D01*
G75*
G02*
X24575010Y139130000I0J230000D01*
G01*
X24575010Y140470000D01*
G75*
G02*
X24805010Y140700000I230000J0D01*
G01*
X25495010Y140700000D01*
G75*
G02*
X25725010Y140470000I0J-230000D01*
G01*
X25725010Y139130000D01*
G75*
G02*
X25495010Y138900000I-230000J0D01*
G01*
G37*
X26150000Y139800000D03*
G04 #@! TD*
G04 #@! TO.C,R14*
G36*
G01*
X102950700Y110097060D02*
X102950700Y109317060D01*
G75*
G02*
X102880700Y109247060I-70000J0D01*
G01*
X102320700Y109247060D01*
G75*
G02*
X102250700Y109317060I0J70000D01*
G01*
X102250700Y110097060D01*
G75*
G02*
X102320700Y110167060I70000J0D01*
G01*
X102880700Y110167060D01*
G75*
G02*
X102950700Y110097060I0J-70000D01*
G01*
G37*
G36*
G01*
X101350700Y110097060D02*
X101350700Y109317060D01*
G75*
G02*
X101280700Y109247060I-70000J0D01*
G01*
X100720700Y109247060D01*
G75*
G02*
X100650700Y109317060I0J70000D01*
G01*
X100650700Y110097060D01*
G75*
G02*
X100720700Y110167060I70000J0D01*
G01*
X101280700Y110167060D01*
G75*
G02*
X101350700Y110097060I0J-70000D01*
G01*
G37*
G04 #@! TD*
G04 #@! TO.C,D5*
G36*
G01*
X29710960Y120340000D02*
X29710960Y119860000D01*
G75*
G02*
X29650960Y119800000I-60000J0D01*
G01*
X29170960Y119800000D01*
G75*
G02*
X29110960Y119860000I0J60000D01*
G01*
X29110960Y120340000D01*
G75*
G02*
X29170960Y120400000I60000J0D01*
G01*
X29650960Y120400000D01*
G75*
G02*
X29710960Y120340000I0J-60000D01*
G01*
G37*
G36*
G01*
X29710960Y118140000D02*
X29710960Y117660000D01*
G75*
G02*
X29650960Y117600000I-60000J0D01*
G01*
X29170960Y117600000D01*
G75*
G02*
X29110960Y117660000I0J60000D01*
G01*
X29110960Y118140000D01*
G75*
G02*
X29170960Y118200000I60000J0D01*
G01*
X29650960Y118200000D01*
G75*
G02*
X29710960Y118140000I0J-60000D01*
G01*
G37*
G04 #@! TD*
D13*
G04 #@! TO.C,P3*
X65210960Y41704880D03*
G04 #@! TD*
G04 #@! TO.C,G5*
X5080000Y33020000D03*
X5080000Y35560000D03*
X5080000Y38100000D03*
X5080000Y40640000D03*
X5080000Y43180000D03*
X7620000Y33020000D03*
X7620000Y35560000D03*
X7620000Y38100000D03*
X7620000Y40640000D03*
X7620000Y43180000D03*
X10160000Y33020000D03*
X10160000Y35560000D03*
X10160000Y38100000D03*
X10160000Y40640000D03*
X10160000Y43180000D03*
G04 #@! TD*
G04 #@! TO.C,D31*
G36*
G01*
X54060000Y102200000D02*
X54540000Y102200000D01*
G75*
G02*
X54600000Y102140000I0J-60000D01*
G01*
X54600000Y101660000D01*
G75*
G02*
X54540000Y101600000I-60000J0D01*
G01*
X54060000Y101600000D01*
G75*
G02*
X54000000Y101660000I0J60000D01*
G01*
X54000000Y102140000D01*
G75*
G02*
X54060000Y102200000I60000J0D01*
G01*
G37*
G36*
G01*
X56260000Y102200000D02*
X56740000Y102200000D01*
G75*
G02*
X56800000Y102140000I0J-60000D01*
G01*
X56800000Y101660000D01*
G75*
G02*
X56740000Y101600000I-60000J0D01*
G01*
X56260000Y101600000D01*
G75*
G02*
X56200000Y101660000I0J60000D01*
G01*
X56200000Y102140000D01*
G75*
G02*
X56260000Y102200000I60000J0D01*
G01*
G37*
G04 #@! TD*
G04 #@! TO.C,R34*
G36*
G01*
X49435960Y126849999D02*
X48185960Y126849999D01*
G75*
G02*
X48085960Y126949999I0J100000D01*
G01*
X48085960Y127749999D01*
G75*
G02*
X48185960Y127849999I100000J0D01*
G01*
X49435960Y127849999D01*
G75*
G02*
X49535960Y127749999I0J-100000D01*
G01*
X49535960Y126949999D01*
G75*
G02*
X49435960Y126849999I-100000J0D01*
G01*
G37*
D12*
X48810960Y126395000D03*
X48810960Y130205000D03*
G36*
G01*
X49435960Y128750021D02*
X48185960Y128750021D01*
G75*
G02*
X48085960Y128850021I0J100000D01*
G01*
X48085960Y129650021D01*
G75*
G02*
X48185960Y129750021I100000J0D01*
G01*
X49435960Y129750021D01*
G75*
G02*
X49535960Y129650021I0J-100000D01*
G01*
X49535960Y128850021D01*
G75*
G02*
X49435960Y128750021I-100000J0D01*
G01*
G37*
G04 #@! TD*
G04 #@! TO.C,R35*
G36*
G01*
X44935960Y133349999D02*
X43685960Y133349999D01*
G75*
G02*
X43585960Y133449999I0J100000D01*
G01*
X43585960Y134249999D01*
G75*
G02*
X43685960Y134349999I100000J0D01*
G01*
X44935960Y134349999D01*
G75*
G02*
X45035960Y134249999I0J-100000D01*
G01*
X45035960Y133449999D01*
G75*
G02*
X44935960Y133349999I-100000J0D01*
G01*
G37*
X44310960Y132895000D03*
X44310960Y136705000D03*
G36*
G01*
X44935960Y135250021D02*
X43685960Y135250021D01*
G75*
G02*
X43585960Y135350021I0J100000D01*
G01*
X43585960Y136150021D01*
G75*
G02*
X43685960Y136250021I100000J0D01*
G01*
X44935960Y136250021D01*
G75*
G02*
X45035960Y136150021I0J-100000D01*
G01*
X45035960Y135350021D01*
G75*
G02*
X44935960Y135250021I-100000J0D01*
G01*
G37*
G04 #@! TD*
G04 #@! TO.C,D18*
G36*
G01*
X40000002Y98299999D02*
X40900002Y98299999D01*
G75*
G02*
X41000002Y98199999I0J-100000D01*
G01*
X41000002Y97399999D01*
G75*
G02*
X40900002Y97299999I-100000J0D01*
G01*
X40000002Y97299999D01*
G75*
G02*
X39900002Y97399999I0J100000D01*
G01*
X39900002Y98199999D01*
G75*
G02*
X40000002Y98299999I100000J0D01*
G01*
G37*
G36*
G01*
X40000002Y96599999D02*
X40900002Y96599999D01*
G75*
G02*
X41000002Y96499999I0J-100000D01*
G01*
X41000002Y95699999D01*
G75*
G02*
X40900002Y95599999I-100000J0D01*
G01*
X40000002Y95599999D01*
G75*
G02*
X39900002Y95699999I0J100000D01*
G01*
X39900002Y96499999D01*
G75*
G02*
X40000002Y96599999I100000J0D01*
G01*
G37*
G04 #@! TD*
G04 #@! TO.C,D20*
G36*
G01*
X47500000Y98245561D02*
X47500000Y97765561D01*
G75*
G02*
X47440000Y97705561I-60000J0D01*
G01*
X46960000Y97705561D01*
G75*
G02*
X46900000Y97765561I0J60000D01*
G01*
X46900000Y98245561D01*
G75*
G02*
X46960000Y98305561I60000J0D01*
G01*
X47440000Y98305561D01*
G75*
G02*
X47500000Y98245561I0J-60000D01*
G01*
G37*
G36*
G01*
X47500000Y96045561D02*
X47500000Y95565561D01*
G75*
G02*
X47440000Y95505561I-60000J0D01*
G01*
X46960000Y95505561D01*
G75*
G02*
X46900000Y95565561I0J60000D01*
G01*
X46900000Y96045561D01*
G75*
G02*
X46960000Y96105561I60000J0D01*
G01*
X47440000Y96105561D01*
G75*
G02*
X47500000Y96045561I0J-60000D01*
G01*
G37*
G04 #@! TD*
G04 #@! TO.C,D27*
G36*
G01*
X96700701Y107307062D02*
X96700701Y108207062D01*
G75*
G02*
X96800701Y108307062I100000J0D01*
G01*
X97600701Y108307062D01*
G75*
G02*
X97700701Y108207062I0J-100000D01*
G01*
X97700701Y107307062D01*
G75*
G02*
X97600701Y107207062I-100000J0D01*
G01*
X96800701Y107207062D01*
G75*
G02*
X96700701Y107307062I0J100000D01*
G01*
G37*
G36*
G01*
X98400701Y107307062D02*
X98400701Y108207062D01*
G75*
G02*
X98500701Y108307062I100000J0D01*
G01*
X99300701Y108307062D01*
G75*
G02*
X99400701Y108207062I0J-100000D01*
G01*
X99400701Y107307062D01*
G75*
G02*
X99300701Y107207062I-100000J0D01*
G01*
X98500701Y107207062D01*
G75*
G02*
X98400701Y107307062I0J100000D01*
G01*
G37*
G04 #@! TD*
D13*
G04 #@! TO.C,P14*
X32700000Y84778880D03*
G04 #@! TD*
G04 #@! TO.C,R37*
G36*
G01*
X43435960Y126849999D02*
X42185960Y126849999D01*
G75*
G02*
X42085960Y126949999I0J100000D01*
G01*
X42085960Y127749999D01*
G75*
G02*
X42185960Y127849999I100000J0D01*
G01*
X43435960Y127849999D01*
G75*
G02*
X43535960Y127749999I0J-100000D01*
G01*
X43535960Y126949999D01*
G75*
G02*
X43435960Y126849999I-100000J0D01*
G01*
G37*
D12*
X42810960Y126395000D03*
G36*
G01*
X43435960Y128750021D02*
X42185960Y128750021D01*
G75*
G02*
X42085960Y128850021I0J100000D01*
G01*
X42085960Y129650021D01*
G75*
G02*
X42185960Y129750021I100000J0D01*
G01*
X43435960Y129750021D01*
G75*
G02*
X43535960Y129650021I0J-100000D01*
G01*
X43535960Y128850021D01*
G75*
G02*
X43435960Y128750021I-100000J0D01*
G01*
G37*
X42810960Y130205000D03*
G04 #@! TD*
D21*
G04 #@! TO.C,J11*
X17000000Y154200000D03*
G04 #@! TD*
G04 #@! TO.C,R28*
G36*
G01*
X62935960Y133349999D02*
X61685960Y133349999D01*
G75*
G02*
X61585960Y133449999I0J100000D01*
G01*
X61585960Y134249999D01*
G75*
G02*
X61685960Y134349999I100000J0D01*
G01*
X62935960Y134349999D01*
G75*
G02*
X63035960Y134249999I0J-100000D01*
G01*
X63035960Y133449999D01*
G75*
G02*
X62935960Y133349999I-100000J0D01*
G01*
G37*
D12*
X62310960Y132895000D03*
X62310960Y136705000D03*
G36*
G01*
X62935960Y135250021D02*
X61685960Y135250021D01*
G75*
G02*
X61585960Y135350021I0J100000D01*
G01*
X61585960Y136150021D01*
G75*
G02*
X61685960Y136250021I100000J0D01*
G01*
X62935960Y136250021D01*
G75*
G02*
X63035960Y136150021I0J-100000D01*
G01*
X63035960Y135350021D01*
G75*
G02*
X62935960Y135250021I-100000J0D01*
G01*
G37*
G04 #@! TD*
D13*
G04 #@! TO.C,P34*
X108000000Y89200000D03*
G04 #@! TD*
D12*
G04 #@! TO.C,R26*
X134410960Y126390000D03*
G36*
G01*
X135035960Y126844999D02*
X133785960Y126844999D01*
G75*
G02*
X133685960Y126944999I0J100000D01*
G01*
X133685960Y127744999D01*
G75*
G02*
X133785960Y127844999I100000J0D01*
G01*
X135035960Y127844999D01*
G75*
G02*
X135135960Y127744999I0J-100000D01*
G01*
X135135960Y126944999D01*
G75*
G02*
X135035960Y126844999I-100000J0D01*
G01*
G37*
X134410960Y130200000D03*
G36*
G01*
X135035960Y128745021D02*
X133785960Y128745021D01*
G75*
G02*
X133685960Y128845021I0J100000D01*
G01*
X133685960Y129645021D01*
G75*
G02*
X133785960Y129745021I100000J0D01*
G01*
X135035960Y129745021D01*
G75*
G02*
X135135960Y129645021I0J-100000D01*
G01*
X135135960Y128845021D01*
G75*
G02*
X135035960Y128745021I-100000J0D01*
G01*
G37*
G04 #@! TD*
G04 #@! TO.C,D24*
G36*
G01*
X45412503Y11661498D02*
X45412503Y12141498D01*
G75*
G02*
X45472503Y12201498I60000J0D01*
G01*
X45952503Y12201498D01*
G75*
G02*
X46012503Y12141498I0J-60000D01*
G01*
X46012503Y11661498D01*
G75*
G02*
X45952503Y11601498I-60000J0D01*
G01*
X45472503Y11601498D01*
G75*
G02*
X45412503Y11661498I0J60000D01*
G01*
G37*
G36*
G01*
X45412503Y13861498D02*
X45412503Y14341498D01*
G75*
G02*
X45472503Y14401498I60000J0D01*
G01*
X45952503Y14401498D01*
G75*
G02*
X46012503Y14341498I0J-60000D01*
G01*
X46012503Y13861498D01*
G75*
G02*
X45952503Y13801498I-60000J0D01*
G01*
X45472503Y13801498D01*
G75*
G02*
X45412503Y13861498I0J60000D01*
G01*
G37*
G04 #@! TD*
D13*
G04 #@! TO.C,P22*
X69300000Y73200000D03*
G04 #@! TD*
G04 #@! TO.C,R25*
G36*
G01*
X133535960Y133349999D02*
X132285960Y133349999D01*
G75*
G02*
X132185960Y133449999I0J100000D01*
G01*
X132185960Y134249999D01*
G75*
G02*
X132285960Y134349999I100000J0D01*
G01*
X133535960Y134349999D01*
G75*
G02*
X133635960Y134249999I0J-100000D01*
G01*
X133635960Y133449999D01*
G75*
G02*
X133535960Y133349999I-100000J0D01*
G01*
G37*
D12*
X132910960Y132895000D03*
G36*
G01*
X133535960Y135250021D02*
X132285960Y135250021D01*
G75*
G02*
X132185960Y135350021I0J100000D01*
G01*
X132185960Y136150021D01*
G75*
G02*
X132285960Y136250021I100000J0D01*
G01*
X133535960Y136250021D01*
G75*
G02*
X133635960Y136150021I0J-100000D01*
G01*
X133635960Y135350021D01*
G75*
G02*
X133535960Y135250021I-100000J0D01*
G01*
G37*
X132910960Y136705000D03*
G04 #@! TD*
D13*
G04 #@! TO.C,P20*
X66500000Y76000000D03*
G04 #@! TD*
G04 #@! TO.C,P18*
X66500000Y70400000D03*
G04 #@! TD*
D12*
G04 #@! TO.C,R27*
X109410960Y124400000D03*
G36*
G01*
X108785960Y123945001D02*
X110035960Y123945001D01*
G75*
G02*
X110135960Y123845001I0J-100000D01*
G01*
X110135960Y123045001D01*
G75*
G02*
X110035960Y122945001I-100000J0D01*
G01*
X108785960Y122945001D01*
G75*
G02*
X108685960Y123045001I0J100000D01*
G01*
X108685960Y123845001D01*
G75*
G02*
X108785960Y123945001I100000J0D01*
G01*
G37*
G36*
G01*
X108785960Y122044979D02*
X110035960Y122044979D01*
G75*
G02*
X110135960Y121944979I0J-100000D01*
G01*
X110135960Y121144979D01*
G75*
G02*
X110035960Y121044979I-100000J0D01*
G01*
X108785960Y121044979D01*
G75*
G02*
X108685960Y121144979I0J100000D01*
G01*
X108685960Y121944979D01*
G75*
G02*
X108785960Y122044979I100000J0D01*
G01*
G37*
X109410960Y120590000D03*
G04 #@! TD*
G04 #@! TO.C,R50*
G36*
G01*
X71800000Y10810000D02*
X71800000Y11590000D01*
G75*
G02*
X71870000Y11660000I70000J0D01*
G01*
X72430000Y11660000D01*
G75*
G02*
X72500000Y11590000I0J-70000D01*
G01*
X72500000Y10810000D01*
G75*
G02*
X72430000Y10740000I-70000J0D01*
G01*
X71870000Y10740000D01*
G75*
G02*
X71800000Y10810000I0J70000D01*
G01*
G37*
G36*
G01*
X73400000Y10810000D02*
X73400000Y11590000D01*
G75*
G02*
X73470000Y11660000I70000J0D01*
G01*
X74030000Y11660000D01*
G75*
G02*
X74100000Y11590000I0J-70000D01*
G01*
X74100000Y10810000D01*
G75*
G02*
X74030000Y10740000I-70000J0D01*
G01*
X73470000Y10740000D01*
G75*
G02*
X73400000Y10810000I0J70000D01*
G01*
G37*
G04 #@! TD*
D33*
G04 #@! TO.C,M6*
X81156996Y68524996D03*
X80550035Y75800013D03*
X81400036Y75800013D03*
X82250037Y75800013D03*
X83100038Y75800013D03*
X79938632Y77249139D03*
X83100007Y67399974D03*
X81700000Y67399974D03*
X80625008Y67399974D03*
X79225001Y67399974D03*
G04 #@! TD*
G04 #@! TO.C,C6*
G36*
G01*
X136905002Y20390014D02*
X136905002Y19710014D01*
G75*
G02*
X136820002Y19625014I-85000J0D01*
G01*
X136140002Y19625014D01*
G75*
G02*
X136055002Y19710014I0J85000D01*
G01*
X136055002Y20390014D01*
G75*
G02*
X136140002Y20475014I85000J0D01*
G01*
X136820002Y20475014D01*
G75*
G02*
X136905002Y20390014I0J-85000D01*
G01*
G37*
G36*
G01*
X135325000Y20390014D02*
X135325000Y19710014D01*
G75*
G02*
X135240000Y19625014I-85000J0D01*
G01*
X134560000Y19625014D01*
G75*
G02*
X134475000Y19710014I0J85000D01*
G01*
X134475000Y20390014D01*
G75*
G02*
X134560000Y20475014I85000J0D01*
G01*
X135240000Y20475014D01*
G75*
G02*
X135325000Y20390014I0J-85000D01*
G01*
G37*
G04 #@! TD*
D13*
G04 #@! TO.C,P53*
X119910960Y134795000D03*
G04 #@! TD*
D14*
G04 #@! TO.C,J4*
X122922360Y14783880D03*
D15*
X122922360Y12243880D03*
X120382360Y14783880D03*
X120382360Y12243880D03*
X117842360Y14783880D03*
X117842360Y12243880D03*
X115302360Y14783880D03*
X115302360Y12243880D03*
X112762360Y14783880D03*
X112762360Y12243880D03*
X110222360Y14783880D03*
X110222360Y12243880D03*
X107682360Y14783880D03*
X107682360Y12243880D03*
X105142360Y14783880D03*
X105142360Y12243880D03*
X102602360Y14783880D03*
X102602360Y12243880D03*
X100062360Y14783880D03*
X100062360Y12243880D03*
X97522360Y14783880D03*
X97522360Y12243880D03*
X94982360Y14783880D03*
X94982360Y12243880D03*
G04 #@! TD*
G04 #@! TO.C,R15*
G36*
G01*
X102950700Y108197060D02*
X102950700Y107417060D01*
G75*
G02*
X102880700Y107347060I-70000J0D01*
G01*
X102320700Y107347060D01*
G75*
G02*
X102250700Y107417060I0J70000D01*
G01*
X102250700Y108197060D01*
G75*
G02*
X102320700Y108267060I70000J0D01*
G01*
X102880700Y108267060D01*
G75*
G02*
X102950700Y108197060I0J-70000D01*
G01*
G37*
G36*
G01*
X101350700Y108197060D02*
X101350700Y107417060D01*
G75*
G02*
X101280700Y107347060I-70000J0D01*
G01*
X100720700Y107347060D01*
G75*
G02*
X100650700Y107417060I0J70000D01*
G01*
X100650700Y108197060D01*
G75*
G02*
X100720700Y108267060I70000J0D01*
G01*
X101280700Y108267060D01*
G75*
G02*
X101350700Y108197060I0J-70000D01*
G01*
G37*
G04 #@! TD*
G04 #@! TO.C,R39*
G36*
G01*
X40435960Y126849999D02*
X39185960Y126849999D01*
G75*
G02*
X39085960Y126949999I0J100000D01*
G01*
X39085960Y127749999D01*
G75*
G02*
X39185960Y127849999I100000J0D01*
G01*
X40435960Y127849999D01*
G75*
G02*
X40535960Y127749999I0J-100000D01*
G01*
X40535960Y126949999D01*
G75*
G02*
X40435960Y126849999I-100000J0D01*
G01*
G37*
D12*
X39810960Y126395000D03*
X39810960Y130205000D03*
G36*
G01*
X40435960Y128750021D02*
X39185960Y128750021D01*
G75*
G02*
X39085960Y128850021I0J100000D01*
G01*
X39085960Y129650021D01*
G75*
G02*
X39185960Y129750021I100000J0D01*
G01*
X40435960Y129750021D01*
G75*
G02*
X40535960Y129650021I0J-100000D01*
G01*
X40535960Y128850021D01*
G75*
G02*
X40435960Y128750021I-100000J0D01*
G01*
G37*
G04 #@! TD*
G04 #@! TO.C,R49*
X101910960Y132939099D03*
G36*
G01*
X102535960Y133394098D02*
X101285960Y133394098D01*
G75*
G02*
X101185960Y133494098I0J100000D01*
G01*
X101185960Y134294098D01*
G75*
G02*
X101285960Y134394098I100000J0D01*
G01*
X102535960Y134394098D01*
G75*
G02*
X102635960Y134294098I0J-100000D01*
G01*
X102635960Y133494098D01*
G75*
G02*
X102535960Y133394098I-100000J0D01*
G01*
G37*
X101910960Y136749099D03*
G36*
G01*
X102535960Y135294120D02*
X101285960Y135294120D01*
G75*
G02*
X101185960Y135394120I0J100000D01*
G01*
X101185960Y136194120D01*
G75*
G02*
X101285960Y136294120I100000J0D01*
G01*
X102535960Y136294120D01*
G75*
G02*
X102635960Y136194120I0J-100000D01*
G01*
X102635960Y135394120D01*
G75*
G02*
X102535960Y135294120I-100000J0D01*
G01*
G37*
G04 #@! TD*
G04 #@! TO.C,D4*
G36*
G01*
X122229150Y54485510D02*
X121329150Y54485510D01*
G75*
G02*
X121229150Y54585510I0J100000D01*
G01*
X121229150Y55385510D01*
G75*
G02*
X121329150Y55485510I100000J0D01*
G01*
X122229150Y55485510D01*
G75*
G02*
X122329150Y55385510I0J-100000D01*
G01*
X122329150Y54585510D01*
G75*
G02*
X122229150Y54485510I-100000J0D01*
G01*
G37*
G36*
G01*
X122229150Y56185510D02*
X121329150Y56185510D01*
G75*
G02*
X121229150Y56285510I0J100000D01*
G01*
X121229150Y57085510D01*
G75*
G02*
X121329150Y57185510I100000J0D01*
G01*
X122229150Y57185510D01*
G75*
G02*
X122329150Y57085510I0J-100000D01*
G01*
X122329150Y56285510D01*
G75*
G02*
X122229150Y56185510I-100000J0D01*
G01*
G37*
G04 #@! TD*
G04 #@! TO.C,D7*
G36*
G01*
X68610211Y85350749D02*
X69510211Y85350749D01*
G75*
G02*
X69610211Y85250749I0J-100000D01*
G01*
X69610211Y84450749D01*
G75*
G02*
X69510211Y84350749I-100000J0D01*
G01*
X68610211Y84350749D01*
G75*
G02*
X68510211Y84450749I0J100000D01*
G01*
X68510211Y85250749D01*
G75*
G02*
X68610211Y85350749I100000J0D01*
G01*
G37*
G36*
G01*
X68610211Y83650749D02*
X69510211Y83650749D01*
G75*
G02*
X69610211Y83550749I0J-100000D01*
G01*
X69610211Y82750749D01*
G75*
G02*
X69510211Y82650749I-100000J0D01*
G01*
X68610211Y82650749D01*
G75*
G02*
X68510211Y82750749I0J100000D01*
G01*
X68510211Y83550749D01*
G75*
G02*
X68610211Y83650749I100000J0D01*
G01*
G37*
G04 #@! TD*
D16*
G04 #@! TO.C,J21*
X63800000Y11200000D03*
G04 #@! TD*
G04 #@! TO.C,C5*
G36*
G01*
X129660000Y86715001D02*
X130340000Y86715001D01*
G75*
G02*
X130425000Y86630001I0J-85000D01*
G01*
X130425000Y85950001D01*
G75*
G02*
X130340000Y85865001I-85000J0D01*
G01*
X129660000Y85865001D01*
G75*
G02*
X129575000Y85950001I0J85000D01*
G01*
X129575000Y86630001D01*
G75*
G02*
X129660000Y86715001I85000J0D01*
G01*
G37*
G36*
G01*
X129660000Y85134999D02*
X130340000Y85134999D01*
G75*
G02*
X130425000Y85049999I0J-85000D01*
G01*
X130425000Y84369999D01*
G75*
G02*
X130340000Y84284999I-85000J0D01*
G01*
X129660000Y84284999D01*
G75*
G02*
X129575000Y84369999I0J85000D01*
G01*
X129575000Y85049999D01*
G75*
G02*
X129660000Y85134999I85000J0D01*
G01*
G37*
G04 #@! TD*
G04 #@! TO.C,R1*
G36*
G01*
X124429152Y61020509D02*
X124429152Y60350509D01*
G75*
G02*
X124364152Y60285509I-65000J0D01*
G01*
X123844152Y60285509D01*
G75*
G02*
X123779152Y60350509I0J65000D01*
G01*
X123779152Y61020509D01*
G75*
G02*
X123844152Y61085509I65000J0D01*
G01*
X124364152Y61085509D01*
G75*
G02*
X124429152Y61020509I0J-65000D01*
G01*
G37*
G36*
G01*
X123454152Y61040509D02*
X123454152Y60330509D01*
G75*
G02*
X123409152Y60285509I-45000J0D01*
G01*
X123049152Y60285509D01*
G75*
G02*
X123004152Y60330509I0J45000D01*
G01*
X123004152Y61040509D01*
G75*
G02*
X123049152Y61085509I45000J0D01*
G01*
X123409152Y61085509D01*
G75*
G02*
X123454152Y61040509I0J-45000D01*
G01*
G37*
G36*
G01*
X122654152Y61040509D02*
X122654152Y60330509D01*
G75*
G02*
X122609152Y60285509I-45000J0D01*
G01*
X122249152Y60285509D01*
G75*
G02*
X122204152Y60330509I0J45000D01*
G01*
X122204152Y61040509D01*
G75*
G02*
X122249152Y61085509I45000J0D01*
G01*
X122609152Y61085509D01*
G75*
G02*
X122654152Y61040509I0J-45000D01*
G01*
G37*
G36*
G01*
X121879152Y61020509D02*
X121879152Y60350509D01*
G75*
G02*
X121814152Y60285509I-65000J0D01*
G01*
X121294152Y60285509D01*
G75*
G02*
X121229152Y60350509I0J65000D01*
G01*
X121229152Y61020509D01*
G75*
G02*
X121294152Y61085509I65000J0D01*
G01*
X121814152Y61085509D01*
G75*
G02*
X121879152Y61020509I0J-65000D01*
G01*
G37*
G36*
G01*
X121879152Y59220509D02*
X121879152Y58550509D01*
G75*
G02*
X121814152Y58485509I-65000J0D01*
G01*
X121294152Y58485509D01*
G75*
G02*
X121229152Y58550509I0J65000D01*
G01*
X121229152Y59220509D01*
G75*
G02*
X121294152Y59285509I65000J0D01*
G01*
X121814152Y59285509D01*
G75*
G02*
X121879152Y59220509I0J-65000D01*
G01*
G37*
G36*
G01*
X122654152Y59240509D02*
X122654152Y58530509D01*
G75*
G02*
X122609152Y58485509I-45000J0D01*
G01*
X122249152Y58485509D01*
G75*
G02*
X122204152Y58530509I0J45000D01*
G01*
X122204152Y59240509D01*
G75*
G02*
X122249152Y59285509I45000J0D01*
G01*
X122609152Y59285509D01*
G75*
G02*
X122654152Y59240509I0J-45000D01*
G01*
G37*
G36*
G01*
X123454152Y59240509D02*
X123454152Y58530509D01*
G75*
G02*
X123409152Y58485509I-45000J0D01*
G01*
X123049152Y58485509D01*
G75*
G02*
X123004152Y58530509I0J45000D01*
G01*
X123004152Y59240509D01*
G75*
G02*
X123049152Y59285509I45000J0D01*
G01*
X123409152Y59285509D01*
G75*
G02*
X123454152Y59240509I0J-45000D01*
G01*
G37*
G36*
G01*
X124429152Y59220509D02*
X124429152Y58550509D01*
G75*
G02*
X124364152Y58485509I-65000J0D01*
G01*
X123844152Y58485509D01*
G75*
G02*
X123779152Y58550509I0J65000D01*
G01*
X123779152Y59220509D01*
G75*
G02*
X123844152Y59285509I65000J0D01*
G01*
X124364152Y59285509D01*
G75*
G02*
X124429152Y59220509I0J-65000D01*
G01*
G37*
G04 #@! TD*
G04 #@! TO.C,D25*
G36*
G01*
X59087498Y74338501D02*
X59087498Y73858501D01*
G75*
G02*
X59027498Y73798501I-60000J0D01*
G01*
X58547498Y73798501D01*
G75*
G02*
X58487498Y73858501I0J60000D01*
G01*
X58487498Y74338501D01*
G75*
G02*
X58547498Y74398501I60000J0D01*
G01*
X59027498Y74398501D01*
G75*
G02*
X59087498Y74338501I0J-60000D01*
G01*
G37*
G36*
G01*
X59087498Y72138501D02*
X59087498Y71658501D01*
G75*
G02*
X59027498Y71598501I-60000J0D01*
G01*
X58547498Y71598501D01*
G75*
G02*
X58487498Y71658501I0J60000D01*
G01*
X58487498Y72138501D01*
G75*
G02*
X58547498Y72198501I60000J0D01*
G01*
X59027498Y72198501D01*
G75*
G02*
X59087498Y72138501I0J-60000D01*
G01*
G37*
G04 #@! TD*
G04 #@! TO.C,R7*
G36*
G01*
X43000000Y102235000D02*
X43000000Y101565000D01*
G75*
G02*
X42935000Y101500000I-65000J0D01*
G01*
X42415000Y101500000D01*
G75*
G02*
X42350000Y101565000I0J65000D01*
G01*
X42350000Y102235000D01*
G75*
G02*
X42415000Y102300000I65000J0D01*
G01*
X42935000Y102300000D01*
G75*
G02*
X43000000Y102235000I0J-65000D01*
G01*
G37*
G36*
G01*
X42025000Y102255000D02*
X42025000Y101545000D01*
G75*
G02*
X41980000Y101500000I-45000J0D01*
G01*
X41620000Y101500000D01*
G75*
G02*
X41575000Y101545000I0J45000D01*
G01*
X41575000Y102255000D01*
G75*
G02*
X41620000Y102300000I45000J0D01*
G01*
X41980000Y102300000D01*
G75*
G02*
X42025000Y102255000I0J-45000D01*
G01*
G37*
G36*
G01*
X41225000Y102255000D02*
X41225000Y101545000D01*
G75*
G02*
X41180000Y101500000I-45000J0D01*
G01*
X40820000Y101500000D01*
G75*
G02*
X40775000Y101545000I0J45000D01*
G01*
X40775000Y102255000D01*
G75*
G02*
X40820000Y102300000I45000J0D01*
G01*
X41180000Y102300000D01*
G75*
G02*
X41225000Y102255000I0J-45000D01*
G01*
G37*
G36*
G01*
X40450000Y102235000D02*
X40450000Y101565000D01*
G75*
G02*
X40385000Y101500000I-65000J0D01*
G01*
X39865000Y101500000D01*
G75*
G02*
X39800000Y101565000I0J65000D01*
G01*
X39800000Y102235000D01*
G75*
G02*
X39865000Y102300000I65000J0D01*
G01*
X40385000Y102300000D01*
G75*
G02*
X40450000Y102235000I0J-65000D01*
G01*
G37*
G36*
G01*
X40450000Y100435000D02*
X40450000Y99765000D01*
G75*
G02*
X40385000Y99700000I-65000J0D01*
G01*
X39865000Y99700000D01*
G75*
G02*
X39800000Y99765000I0J65000D01*
G01*
X39800000Y100435000D01*
G75*
G02*
X39865000Y100500000I65000J0D01*
G01*
X40385000Y100500000D01*
G75*
G02*
X40450000Y100435000I0J-65000D01*
G01*
G37*
G36*
G01*
X41225000Y100455000D02*
X41225000Y99745000D01*
G75*
G02*
X41180000Y99700000I-45000J0D01*
G01*
X40820000Y99700000D01*
G75*
G02*
X40775000Y99745000I0J45000D01*
G01*
X40775000Y100455000D01*
G75*
G02*
X40820000Y100500000I45000J0D01*
G01*
X41180000Y100500000D01*
G75*
G02*
X41225000Y100455000I0J-45000D01*
G01*
G37*
G36*
G01*
X42025000Y100455000D02*
X42025000Y99745000D01*
G75*
G02*
X41980000Y99700000I-45000J0D01*
G01*
X41620000Y99700000D01*
G75*
G02*
X41575000Y99745000I0J45000D01*
G01*
X41575000Y100455000D01*
G75*
G02*
X41620000Y100500000I45000J0D01*
G01*
X41980000Y100500000D01*
G75*
G02*
X42025000Y100455000I0J-45000D01*
G01*
G37*
G36*
G01*
X43000000Y100435000D02*
X43000000Y99765000D01*
G75*
G02*
X42935000Y99700000I-65000J0D01*
G01*
X42415000Y99700000D01*
G75*
G02*
X42350000Y99765000I0J65000D01*
G01*
X42350000Y100435000D01*
G75*
G02*
X42415000Y100500000I65000J0D01*
G01*
X42935000Y100500000D01*
G75*
G02*
X43000000Y100435000I0J-65000D01*
G01*
G37*
G04 #@! TD*
G04 #@! TO.C,R13*
G36*
G01*
X71879360Y6710000D02*
X71879360Y7490000D01*
G75*
G02*
X71949360Y7560000I70000J0D01*
G01*
X72509360Y7560000D01*
G75*
G02*
X72579360Y7490000I0J-70000D01*
G01*
X72579360Y6710000D01*
G75*
G02*
X72509360Y6640000I-70000J0D01*
G01*
X71949360Y6640000D01*
G75*
G02*
X71879360Y6710000I0J70000D01*
G01*
G37*
G36*
G01*
X73479360Y6710000D02*
X73479360Y7490000D01*
G75*
G02*
X73549360Y7560000I70000J0D01*
G01*
X74109360Y7560000D01*
G75*
G02*
X74179360Y7490000I0J-70000D01*
G01*
X74179360Y6710000D01*
G75*
G02*
X74109360Y6640000I-70000J0D01*
G01*
X73549360Y6640000D01*
G75*
G02*
X73479360Y6710000I0J70000D01*
G01*
G37*
G04 #@! TD*
D13*
G04 #@! TO.C,P7*
X36728160Y129300000D03*
G04 #@! TD*
G04 #@! TO.C,P41*
X105000000Y86400000D03*
G04 #@! TD*
G04 #@! TO.C,P27*
X82011360Y85007060D03*
G04 #@! TD*
G04 #@! TO.C,R20*
G36*
G01*
X54636360Y123080879D02*
X53386360Y123080879D01*
G75*
G02*
X53286360Y123180879I0J100000D01*
G01*
X53286360Y123980879D01*
G75*
G02*
X53386360Y124080879I100000J0D01*
G01*
X54636360Y124080879D01*
G75*
G02*
X54736360Y123980879I0J-100000D01*
G01*
X54736360Y123180879D01*
G75*
G02*
X54636360Y123080879I-100000J0D01*
G01*
G37*
D12*
X54011360Y122625880D03*
G36*
G01*
X54636360Y124980901D02*
X53386360Y124980901D01*
G75*
G02*
X53286360Y125080901I0J100000D01*
G01*
X53286360Y125880901D01*
G75*
G02*
X53386360Y125980901I100000J0D01*
G01*
X54636360Y125980901D01*
G75*
G02*
X54736360Y125880901I0J-100000D01*
G01*
X54736360Y125080901D01*
G75*
G02*
X54636360Y124980901I-100000J0D01*
G01*
G37*
X54011360Y126435880D03*
G04 #@! TD*
D13*
G04 #@! TO.C,P38*
X105000000Y89200000D03*
G04 #@! TD*
G04 #@! TO.C,P1*
X109499364Y94600000D03*
G04 #@! TD*
D12*
G04 #@! TO.C,R46*
X113700000Y132895000D03*
G36*
G01*
X114325000Y133349999D02*
X113075000Y133349999D01*
G75*
G02*
X112975000Y133449999I0J100000D01*
G01*
X112975000Y134249999D01*
G75*
G02*
X113075000Y134349999I100000J0D01*
G01*
X114325000Y134349999D01*
G75*
G02*
X114425000Y134249999I0J-100000D01*
G01*
X114425000Y133449999D01*
G75*
G02*
X114325000Y133349999I-100000J0D01*
G01*
G37*
G36*
G01*
X114325000Y135250021D02*
X113075000Y135250021D01*
G75*
G02*
X112975000Y135350021I0J100000D01*
G01*
X112975000Y136150021D01*
G75*
G02*
X113075000Y136250021I100000J0D01*
G01*
X114325000Y136250021D01*
G75*
G02*
X114425000Y136150021I0J-100000D01*
G01*
X114425000Y135350021D01*
G75*
G02*
X114325000Y135250021I-100000J0D01*
G01*
G37*
X113700000Y136705000D03*
G04 #@! TD*
D13*
G04 #@! TO.C,P49*
X53310960Y134800000D03*
G04 #@! TD*
G04 #@! TO.C,C2*
G36*
G01*
X125760700Y50922061D02*
X126440700Y50922061D01*
G75*
G02*
X126525700Y50837061I0J-85000D01*
G01*
X126525700Y50157061D01*
G75*
G02*
X126440700Y50072061I-85000J0D01*
G01*
X125760700Y50072061D01*
G75*
G02*
X125675700Y50157061I0J85000D01*
G01*
X125675700Y50837061D01*
G75*
G02*
X125760700Y50922061I85000J0D01*
G01*
G37*
G36*
G01*
X125760700Y49342059D02*
X126440700Y49342059D01*
G75*
G02*
X126525700Y49257059I0J-85000D01*
G01*
X126525700Y48577059D01*
G75*
G02*
X126440700Y48492059I-85000J0D01*
G01*
X125760700Y48492059D01*
G75*
G02*
X125675700Y48577059I0J85000D01*
G01*
X125675700Y49257059D01*
G75*
G02*
X125760700Y49342059I85000J0D01*
G01*
G37*
G04 #@! TD*
G04 #@! TO.C,P31*
X118000000Y47000000D03*
G04 #@! TD*
D34*
G04 #@! TO.C,M2*
X118224523Y39241356D03*
X118984502Y39241356D03*
X120159495Y39241356D03*
X121334482Y39241356D03*
X122174394Y39241356D03*
X122924466Y39241356D03*
X124099477Y39241356D03*
X125274474Y39241356D03*
D10*
X120234471Y29141749D03*
X118399461Y29566757D03*
X120449469Y30116754D03*
X120234474Y30991713D03*
X120159467Y31841736D03*
X118399461Y32166752D03*
X119709461Y33466719D03*
X118399461Y34116736D03*
X124324476Y26941733D03*
X120249470Y27241735D03*
G04 #@! TD*
D12*
G04 #@! TO.C,R12*
X127410960Y126390000D03*
G36*
G01*
X128035960Y126844999D02*
X126785960Y126844999D01*
G75*
G02*
X126685960Y126944999I0J100000D01*
G01*
X126685960Y127744999D01*
G75*
G02*
X126785960Y127844999I100000J0D01*
G01*
X128035960Y127844999D01*
G75*
G02*
X128135960Y127744999I0J-100000D01*
G01*
X128135960Y126944999D01*
G75*
G02*
X128035960Y126844999I-100000J0D01*
G01*
G37*
G36*
G01*
X128035960Y128745021D02*
X126785960Y128745021D01*
G75*
G02*
X126685960Y128845021I0J100000D01*
G01*
X126685960Y129645021D01*
G75*
G02*
X126785960Y129745021I100000J0D01*
G01*
X128035960Y129745021D01*
G75*
G02*
X128135960Y129645021I0J-100000D01*
G01*
X128135960Y128845021D01*
G75*
G02*
X128035960Y128745021I-100000J0D01*
G01*
G37*
X127410960Y130200000D03*
G04 #@! TD*
D13*
G04 #@! TO.C,P43*
X86500000Y88900000D03*
G04 #@! TD*
G04 #@! TO.C,R18*
G36*
G01*
X121755001Y126025000D02*
X121755001Y124775000D01*
G75*
G02*
X121655001Y124675000I-100000J0D01*
G01*
X120855001Y124675000D01*
G75*
G02*
X120755001Y124775000I0J100000D01*
G01*
X120755001Y126025000D01*
G75*
G02*
X120855001Y126125000I100000J0D01*
G01*
X121655001Y126125000D01*
G75*
G02*
X121755001Y126025000I0J-100000D01*
G01*
G37*
D12*
X122210000Y125400000D03*
X118400000Y125400000D03*
G36*
G01*
X119854979Y126025000D02*
X119854979Y124775000D01*
G75*
G02*
X119754979Y124675000I-100000J0D01*
G01*
X118954979Y124675000D01*
G75*
G02*
X118854979Y124775000I0J100000D01*
G01*
X118854979Y126025000D01*
G75*
G02*
X118954979Y126125000I100000J0D01*
G01*
X119754979Y126125000D01*
G75*
G02*
X119854979Y126025000I0J-100000D01*
G01*
G37*
G04 #@! TD*
G04 #@! TO.C,R10*
G36*
G01*
X85510000Y137150000D02*
X86290000Y137150000D01*
G75*
G02*
X86360000Y137080000I0J-70000D01*
G01*
X86360000Y136520000D01*
G75*
G02*
X86290000Y136450000I-70000J0D01*
G01*
X85510000Y136450000D01*
G75*
G02*
X85440000Y136520000I0J70000D01*
G01*
X85440000Y137080000D01*
G75*
G02*
X85510000Y137150000I70000J0D01*
G01*
G37*
G36*
G01*
X85510000Y135550000D02*
X86290000Y135550000D01*
G75*
G02*
X86360000Y135480000I0J-70000D01*
G01*
X86360000Y134920000D01*
G75*
G02*
X86290000Y134850000I-70000J0D01*
G01*
X85510000Y134850000D01*
G75*
G02*
X85440000Y134920000I0J70000D01*
G01*
X85440000Y135480000D01*
G75*
G02*
X85510000Y135550000I70000J0D01*
G01*
G37*
G04 #@! TD*
G04 #@! TO.C,D13*
G36*
G01*
X70997706Y85289251D02*
X70997706Y84809251D01*
G75*
G02*
X70937706Y84749251I-60000J0D01*
G01*
X70457706Y84749251D01*
G75*
G02*
X70397706Y84809251I0J60000D01*
G01*
X70397706Y85289251D01*
G75*
G02*
X70457706Y85349251I60000J0D01*
G01*
X70937706Y85349251D01*
G75*
G02*
X70997706Y85289251I0J-60000D01*
G01*
G37*
G36*
G01*
X70997706Y83089251D02*
X70997706Y82609251D01*
G75*
G02*
X70937706Y82549251I-60000J0D01*
G01*
X70457706Y82549251D01*
G75*
G02*
X70397706Y82609251I0J60000D01*
G01*
X70397706Y83089251D01*
G75*
G02*
X70457706Y83149251I60000J0D01*
G01*
X70937706Y83149251D01*
G75*
G02*
X70997706Y83089251I0J-60000D01*
G01*
G37*
G04 #@! TD*
D10*
G04 #@! TO.C,M11*
X15023441Y90487499D03*
X15023441Y104687498D03*
X15023441Y78224231D03*
D31*
X18748452Y116607495D03*
D10*
X15023441Y115587497D03*
D31*
X16848451Y116607500D03*
D10*
X18823453Y79612504D03*
G04 #@! TD*
D13*
G04 #@! TO.C,P51*
X45810960Y128300000D03*
G04 #@! TD*
G04 #@! TO.C,P37*
X111000000Y89200000D03*
G04 #@! TD*
G04 #@! TO.C,J2*
G36*
G01*
X128375000Y113750000D02*
X129725000Y113750000D01*
G75*
G02*
X129975000Y113500000I0J-250000D01*
G01*
X129975000Y112300000D01*
G75*
G02*
X129725000Y112050000I-250000J0D01*
G01*
X128375000Y112050000D01*
G75*
G02*
X128125000Y112300000I0J250000D01*
G01*
X128125000Y113500000D01*
G75*
G02*
X128375000Y113750000I250000J0D01*
G01*
G37*
D35*
X129050000Y110400000D03*
X129050000Y107900000D03*
X129050000Y105400000D03*
X129050000Y102900000D03*
G04 #@! TD*
G04 #@! TO.C,R22*
G36*
G01*
X82910000Y137150000D02*
X83690000Y137150000D01*
G75*
G02*
X83760000Y137080000I0J-70000D01*
G01*
X83760000Y136520000D01*
G75*
G02*
X83690000Y136450000I-70000J0D01*
G01*
X82910000Y136450000D01*
G75*
G02*
X82840000Y136520000I0J70000D01*
G01*
X82840000Y137080000D01*
G75*
G02*
X82910000Y137150000I70000J0D01*
G01*
G37*
G36*
G01*
X82910000Y135550000D02*
X83690000Y135550000D01*
G75*
G02*
X83760000Y135480000I0J-70000D01*
G01*
X83760000Y134920000D01*
G75*
G02*
X83690000Y134850000I-70000J0D01*
G01*
X82910000Y134850000D01*
G75*
G02*
X82840000Y134920000I0J70000D01*
G01*
X82840000Y135480000D01*
G75*
G02*
X82910000Y135550000I70000J0D01*
G01*
G37*
G04 #@! TD*
M02*
