M48
; DRILL file {KiCad (5.99.0-10192-g8d0191151d)} date Fri Apr 16 20:15:56 2021
; FORMAT={2:4/ absolute / inch / suppress leading zeros}
; #@! TF.CreationDate,2021-04-16T20:15:56+03:00
; #@! TF.GenerationSoftware,Kicad,Pcbnew,(5.99.0-10192-g8d0191151d)
; #@! TF.FileFunction,MixedPlating,1,2
FMAT,2
INCH,TZ
; #@! TA.AperFunction,Plated,PTH,ComponentDrill
T1C0.0118
; #@! TA.AperFunction,Plated,PTH,ViaDrill
T2C0.0118
; #@! TA.AperFunction,Plated,PTH,ComponentDrill
T3C0.0118
; #@! TA.AperFunction,Plated,PTH,ViaDrill
T4C0.0120
; #@! TA.AperFunction,Plated,PTH,ViaDrill
T5C0.0130
; #@! TA.AperFunction,Plated,PTH,ViaDrill
T6C0.0197
; #@! TA.AperFunction,Plated,PTH,ComponentDrill
T7C0.0276
; #@! TA.AperFunction,Plated,PTH,ComponentDrill
T8C0.0320
; #@! TA.AperFunction,Plated,PTH,ComponentDrill
T9C0.0335
; #@! TA.AperFunction,Plated,PTH,ComponentDrill
T10C0.0362
; #@! TA.AperFunction,Plated,PTH,ComponentDrill
T11C0.0394
; #@! TA.AperFunction,Plated,PTH,ComponentDrill
T12C0.0433
; #@! TA.AperFunction,Plated,PTH,ComponentDrill
T13C0.0787
; #@! TA.AperFunction,Plated,PTH,ComponentDrill
T14C0.0906
; #@! TA.AperFunction,Plated,PTH,ComponentDrill
T15C0.1200
; #@! TA.AperFunction,Plated,PTH,ComponentDrill
T16C0.1378
; #@! TA.AperFunction,Plated,PTH,ComponentDrill
T17C0.1890
; #@! TA.AperFunction,NonPlated,NPTH,ComponentDrill
T18C0.0591
%
G90
G05
T1
X5906Y53338
X5915Y45507
X5915Y41216
X5915Y35625
X5915Y30797
X6428Y50100
X7411Y31344
X8488Y50107
X8682Y50848
X9125Y47954
X23448Y40421
X23654Y40766
X23950Y40303
X25347Y40333
X29751Y9287
X30371Y7356
X32034Y7092
X32497Y7092
X33353Y7092
X34229Y7092
X35372Y7360
X40587Y9045
X40617Y7647
X40705Y9547
X41050Y9340
X46614Y13432
X46614Y12664
X46614Y11640
X47130Y13176
X47307Y12536
X47336Y11473
X47336Y12201
X47342Y10725
X47421Y11857
X48947Y10607
T2
X984Y53150
X984Y50197
X984Y45276
X984Y40354
X984Y34449
X984Y27559
X984Y21654
X984Y16732
X984Y9843
X3937Y58071
X3937Y5906
X4528Y19685
X4567Y51654
X4567Y47638
X4567Y42756
X4567Y37244
X4606Y32992
X4606Y27441
X4646Y10709
X5000Y54646
X5354Y47244
X5354Y34094
X5433Y52795
X5433Y50827
X5433Y29685
X5472Y44803
X5472Y40315
X5827Y46457
X5827Y18150
X5827Y9646
X5945Y13583
X5984Y22953
X6732Y5157
X6811Y56772
X6890Y21260
X6890Y15709
X6890Y984
X6929Y11417
X7008Y30157
X7047Y47126
X7047Y28386
X7323Y7874
X8031Y30197
X8701Y46772
X8858Y57087
X8858Y41339
X8858Y36811
X8937Y34646
X9134Y33346
X9409Y41732
X9449Y44567
X9449Y38661
X9488Y35630
X9528Y46024
X9685Y48819
X9685Y47795
X9724Y29055
X9843Y62992
X10039Y43465
X10079Y5197
X10236Y54843
X10394Y36969
X10945Y44370
X11024Y57953
X11024Y40433
X11181Y17795
X11220Y27402
X11260Y22795
X11299Y15591
X11378Y30866
X11417Y13858
X11496Y43071
X11732Y35669
X11772Y47795
X11850Y48858
X12087Y2047
X12165Y34764
X12756Y47205
X12756Y40197
X12795Y39409
X12835Y37795
X13031Y45039
X13150Y13622
X13268Y46811
X13268Y42677
X13346Y3071
X13386Y40591
X13425Y48780
X13898Y44213
X13937Y8976
X14173Y35709
X14173Y33465
X14173Y31929
X14331Y41220
X14528Y45906
X14646Y49173
X14764Y984
X15118Y13622
X15276Y35669
X15276Y33622
X15354Y47638
X15354Y34764
X15433Y46063
X15472Y41929
X15512Y40669
X15551Y43425
X15669Y1929
X16102Y59094
X16575Y41457
X16732Y62992
X16732Y31929
X16850Y35748
X17087Y43740
X17244Y3031
X17362Y59016
X17402Y49685
X17480Y51654
X17913Y13740
X17992Y11929
X17992Y8189
X17992Y4173
X18031Y39370
X18071Y34803
X18110Y48346
X18346Y51614
X18465Y36299
X18858Y58976
X18898Y36811
X19016Y62008
X19528Y36220
X19567Y39606
X19606Y51811
X19724Y5827
X19843Y13740
X20039Y34724
X20157Y61732
X20157Y37953
X20315Y46339
X20315Y35787
X20354Y41181
X20433Y1929
X20551Y43661
X20630Y32008
X20669Y62992
X20669Y59094
X20906Y40121
X20984Y52087
X21417Y61417
X21417Y32126
X21496Y34567
X21811Y45354
X21969Y3031
X22441Y5906
X22480Y14016
X22598Y38031
X22638Y984
X22835Y36378
X22874Y16535
X22874Y16102
X22874Y11417
X22874Y8228
X22913Y22913
X22953Y47323
X22992Y35079
X23071Y24567
X23150Y32992
X23189Y25827
X23504Y52008
X23504Y14055
X23543Y26575
X23543Y22953
X23583Y37402
X23701Y16457
X23819Y34449
X23858Y60551
X24291Y25906
X24331Y36299
X24370Y34016
X24528Y35039
X24764Y37441
X24764Y24921
X24764Y11732
X24764Y10748
X24843Y8307
X24882Y7283
X24921Y51535
X24961Y54921
X24961Y9016
X25394Y34488
X25433Y8346
X25512Y11772
X25748Y49488
X25787Y37126
X25827Y47441
X25866Y39409
X25906Y41496
X25945Y51811
X25945Y44528
X25945Y10512
X25984Y55315
X25984Y3307
X26142Y25079
X26142Y22756
X26181Y30866
X26220Y57283
X26220Y22087
X26260Y18031
X26339Y25787
X26575Y11850
X26772Y8307
X26969Y1339
X27126Y36890
X27126Y12047
X27126Y6654
X27205Y55276
X27205Y24961
X27205Y22598
X27835Y55748
X28071Y34882
X28110Y26732
X28346Y36693
X29291Y25748
X29291Y6929
X29331Y2795
X29409Y5591
X29449Y34843
X30197Y33976
X30236Y26260
X30354Y29173
X30433Y60551
X30512Y62992
X30551Y30236
X31142Y29882
X31181Y33425
X31850Y354
X31857Y35623
X31969Y54882
X32080Y35400
X32323Y47165
X32323Y42874
X32323Y39370
X32402Y52559
X32717Y57402
X33268Y52992
X33307Y49213
X33346Y39528
X33346Y36339
X33386Y48504
X33386Y45630
X33465Y54449
X34173Y36614
X34567Y60591
X34803Y37444
X34882Y48465
X35118Y53583
X35157Y50354
X35354Y57323
X35472Y54567
X35472Y51929
X35669Y40906
X35787Y3819
X35866Y39882
X35945Y1299
X36102Y44764
X36142Y7047
X36220Y48465
X36457Y55472
X36614Y57835
X36850Y53622
X37008Y41260
X37087Y50276
X37126Y1575
X37205Y10276
X37205Y8976
X37323Y56772
X37559Y3819
X38228Y2756
X38386Y45394
X38465Y7756
X38543Y10276
X38543Y8661
X38740Y54764
X38976Y3937
X39055Y33780
X39055Y7598
X39291Y39921
X39370Y62992
X39370Y984
X39409Y50000
X39409Y46339
X39606Y41260
X40039Y47480
X40276Y51260
X40354Y60630
X40433Y3228
X41181Y48701
X41181Y39921
X41210Y32835
X41220Y52087
X41220Y44961
X41220Y41811
X41260Y41024
X41299Y50472
X41299Y46890
X41299Y43898
X42677Y45512
X42835Y10236
X42874Y40039
X43228Y44724
X43228Y40984
X43504Y60315
X43898Y46850
X43976Y45945
X44016Y61378
X44016Y40039
X44094Y3465
X44252Y10433
X44291Y62992
X44291Y7598
X44291Y984
X44370Y8780
X44409Y2362
X45039Y39961
X45157Y37520
X45236Y44291
X45354Y33543
X45472Y40984
X45512Y9882
X45709Y40039
X45945Y31496
X45984Y29331
X46024Y26457
X46142Y59606
X46142Y16102
X46220Y13858
X46299Y25000
X46299Y22126
X46299Y19961
X46339Y47717
X46339Y40984
X46339Y39961
X46339Y37362
X46575Y57205
X47008Y40039
X47008Y3937
X47047Y44291
X47047Y37362
X47047Y23661
X47087Y40984
X47087Y33268
X47244Y47717
X47362Y19724
X47756Y9685
X47795Y57205
X47835Y43858
X47835Y41024
X47835Y37638
X47835Y35157
X47874Y27717
X47913Y40039
X47913Y30354
X47953Y33150
X48150Y24843
X48228Y46890
X48819Y37835
X48858Y31929
X48976Y26457
X49094Y39646
X49094Y34291
X49764Y37205
X49843Y22283
X50039Y26063
X50039Y23465
X50039Y12008
X50197Y984
X50276Y34528
X50551Y39449
X50551Y32283
X50591Y7559
X50748Y25354
X50787Y28465
X50787Y22441
X50787Y9961
X50827Y21339
X50945Y51102
X50984Y47047
X50984Y8701
X51024Y43386
X51024Y13268
X51142Y35866
X51142Y32913
X51181Y34331
X51220Y40118
X51220Y16024
X51299Y19921
X51575Y10197
X51969Y40512
X52008Y39449
X52165Y62008
X52283Y51024
X52362Y41417
X52402Y5709
X52520Y48150
X52638Y45354
X52677Y39961
X52914Y38071
X53229Y38071
X53465Y18504
X53583Y12874
X53858Y8858
X53898Y36417
X54213Y37638
X54409Y15591
X54724Y20394
X54921Y25118
X55236Y35472
X55236Y28386
X55276Y56299
X55551Y42953
X55551Y16850
X55630Y20276
X56102Y4921
X56850Y10394
X57638Y25709
X60039Y59055
X60039Y52165
X60039Y45276
X60039Y38386
X60039Y33465
X60039Y26575
X60039Y19685
X60039Y12795
T3
X27687Y39215
X28081Y39215
X29479Y39215
X29872Y39215
X30305Y54274
X30699Y54274
X31093Y54274
X31486Y54274
T4
X7681Y54449
X9125Y35354
X10910Y49213
X14544Y31353
X14646Y37402
X14791Y43782
X15211Y43782
X15276Y37402
X16063Y47165
X18307Y37756
X18307Y31614
X18311Y33819
X18863Y33937
X20549Y34252
X20630Y47953
X20630Y39215
X20957Y37074
X21260Y37402
X21339Y35906
X21890Y42995
X22113Y38900
X22126Y42759
X22244Y32362
X22283Y35630
X22533Y38900
X22559Y31102
X22953Y30394
X23071Y27530
X23193Y23937
X23193Y10906
X23501Y6732
X23626Y32874
X23819Y6732
X23902Y32362
X24094Y27283
X24138Y6732
X24146Y29696
X24151Y33268
X24449Y13152
X24457Y6732
X24488Y12641
X24749Y32618
X24807Y36850
X25039Y28622
X25083Y13425
X25083Y10512
X25122Y38747
X25157Y31417
X25205Y27381
X25398Y12874
X25551Y13507
X25752Y32047
X25945Y38861
X26087Y32618
X26107Y36850
X26409Y14848
X26579Y13472
X26579Y13153
X26579Y12835
X26590Y12509
X26717Y14766
X26733Y9215
X26925Y54908
X27014Y14469
X27128Y31695
X27209Y13977
X27520Y9215
X27543Y32618
X27563Y36850
X27914Y10711
X27957Y8740
X28465Y36341
X28485Y38979
X28583Y26656
X28789Y26372
X28863Y36850
X28863Y32618
X29055Y38979
X29086Y26075
X29160Y34097
X29580Y34097
X29611Y10394
X29724Y26299
X29882Y35318
X30040Y3704
X30507Y35634
X30827Y3704
X31225Y28819
X31264Y10276
X31304Y27913
X31654Y31220
X31737Y10276
X31930Y28071
X32087Y36341
X32249Y28071
X32839Y27953
X32918Y10433
X32957Y28819
X33031Y42480
X33213Y29436
X33229Y30251
X33587Y32999
X33626Y10433
X33694Y25862
X34611Y36575
X35083Y10394
X35244Y32520
X36973Y33346
X37170Y33071
X37485Y32953
X38307Y33898
X38740Y34331
X39523Y32527
X39606Y35709
X39768Y32323
X40709Y10435
X41610Y42443
X41863Y43223
X42323Y39606
X43189Y10239
X43544Y10239
X43622Y59685
X43622Y58898
X44374Y33701
X44528Y26066
X44528Y25475
X44650Y33346
X44953Y25973
X45713Y32323
X46067Y54606
X46618Y33189
X47406Y3386
X47445Y32586
X48307Y46220
X48307Y25987
X48701Y39370
X49016Y19885
X49055Y40118
X49252Y32835
X49292Y19412
X49449Y38386
X49764Y38701
X50157Y38189
X51378Y21725
X51614Y22008
X51654Y52717
X51654Y49449
X51654Y39055
X52209Y39094
T5
X31445Y25475
X33898Y32247
X34803Y37011
X35866Y32247
X36496Y7916
X36496Y3822
X36536Y2759
X36536Y1597
X39095Y32247
X44843Y59724
X44843Y58898
X45315Y32050
T6
X12284Y48310
X14724Y32283
T7
X33642Y43425
X33642Y42795
X34331Y43740
X34331Y43110
X34331Y42480
T8
X12918Y51262
X12918Y49762
X13902Y53821
X13902Y52321
X14493Y51262
X14493Y49762
X15083Y53821
X15083Y52321
X15674Y51262
X15674Y49762
X16264Y53821
X16264Y52321
X16855Y51262
X16855Y49762
X17445Y53821
X17445Y52321
X18626Y53821
X18626Y52321
X19217Y51262
X19217Y49762
X19807Y53821
X19807Y52321
X20355Y51262
X20355Y49762
X21264Y49778
X21264Y48278
X22170Y53821
X22170Y52321
X22205Y51265
X22205Y49765
X22957Y51262
X22957Y49762
X24532Y53821
X24532Y52321
X40122Y53838
X40122Y52338
X42288Y49665
X42288Y48165
X43075Y51260
X43075Y49760
X43075Y48976
X43075Y47476
X44650Y49705
X44650Y48205
X44847Y53819
X44847Y52319
X45437Y51260
X45437Y49760
X45437Y48738
X45437Y47238
X46618Y51260
X46618Y49760
X47795Y49746
X47795Y48246
X48390Y53819
X48390Y52319
X48981Y51260
X48981Y49760
X49571Y53819
X49571Y52319
X50162Y51260
X50162Y49760
X50394Y20868
X50394Y19868
X50394Y18868
X50394Y17868
X50394Y16868
X50394Y15868
X52327Y53821
X52327Y52321
X52918Y51260
X52918Y49760
T9
X33937Y46735
X34922Y46735
X35906Y46735
X36890Y46735
X37874Y46735
T10
X35472Y52559
X35472Y51299
X36457Y52559
X36457Y51299
T11
X2000Y26000
X2000Y25000
X2000Y24000
X2000Y23000
X2000Y22000
X2000Y17000
X2000Y16000
X2000Y15000
X2000Y14000
X2000Y13000
X3000Y26000
X3000Y25000
X3000Y24000
X3000Y23000
X3000Y22000
X3000Y17000
X3000Y16000
X3000Y15000
X3000Y14000
X3000Y13000
X4000Y26000
X4000Y25000
X4000Y24000
X4000Y23000
X4000Y22000
X4000Y17000
X4000Y16000
X4000Y15000
X4000Y14000
X4000Y13000
X8000Y26000
X8000Y25000
X8000Y24000
X8000Y23000
X8000Y22000
X8000Y17000
X8000Y16000
X8000Y15000
X8000Y14000
X8000Y13000
X9000Y26000
X9000Y25000
X9000Y24000
X9000Y23000
X9000Y22000
X9000Y17000
X9000Y16000
X9000Y15000
X9000Y14000
X9000Y13000
X10000Y26000
X10000Y25000
X10000Y24000
X10000Y23000
X10000Y22000
X10000Y17000
X10000Y16000
X10000Y15000
X10000Y14000
X10000Y13000
X11999Y33378
X11999Y32378
X12999Y33378
X12999Y32378
X17784Y33273
X17784Y32273
X18036Y50512
X18784Y33273
X18784Y32273
X19784Y33273
X19784Y32273
X20989Y53071
X21284Y51103
X23351Y53071
X24138Y50512
X24567Y19373
X24567Y16419
X25516Y50512
X25674Y19372
X25674Y16419
X26177Y29852
X26177Y28852
X26177Y27852
X26177Y26852
X27177Y29852
X27177Y28852
X27177Y27852
X27177Y26852
X30189Y2837
X31181Y32363
X31189Y2837
X32189Y2837
X32288Y33467
X32288Y32363
X33189Y2837
X34060Y35331
X34060Y34331
X34189Y2837
X35060Y35331
X35060Y34331
X35189Y2837
X36060Y35331
X36060Y34331
X37395Y5820
X37395Y4820
X38395Y5820
X38395Y4820
X39395Y5820
X39395Y4820
X40395Y5820
X40395Y4820
X40627Y35331
X40627Y34331
X41146Y53069
X41395Y5820
X41395Y4820
X41627Y35331
X41627Y34331
X42395Y5820
X42395Y4820
X42406Y53069
X42627Y35331
X42627Y34331
X43110Y37244
X43395Y5820
X43395Y4820
X43627Y35331
X43627Y34331
X43666Y53069
X44395Y5820
X44395Y4820
X45395Y5820
X45395Y4820
X46395Y5820
X46395Y4820
X46830Y18388
X46830Y17388
X47209Y53069
X47395Y5820
X47395Y4820
X47830Y18388
X47830Y17388
X48395Y5820
X48395Y4820
X48830Y18388
X48830Y17388
X50949Y53069
T12
X13083Y58218
X13083Y56446
X14460Y58218
X14460Y56446
X15681Y58218
X15681Y56446
X16862Y58218
X16862Y56446
X18043Y58218
X18043Y56446
X19224Y58218
X19224Y56446
X20405Y58218
X20405Y56446
X21586Y58218
X21586Y56446
X22767Y58218
X22767Y56446
X23948Y58218
X23948Y56446
X25169Y58218
X25169Y56446
X27511Y58218
X27511Y56446
X28692Y58218
X28692Y56446
X29873Y58218
X29873Y56446
X31054Y58218
X31054Y56446
X32236Y58218
X32236Y56446
X33417Y58218
X33417Y56446
X34598Y58218
X34598Y56446
X35779Y58218
X35779Y56446
X38120Y58218
X38120Y56446
X39498Y58218
X39498Y56446
X40720Y58218
X40720Y56446
X41901Y58218
X41901Y56446
X43082Y58218
X43082Y56446
X44263Y58218
X44263Y56446
X45444Y58218
X45444Y56446
X46625Y58218
X46625Y56446
X47806Y58218
X47806Y56446
X48987Y58218
X48987Y56446
X50208Y58218
X50208Y56446
X51586Y58218
X51586Y56446
X52964Y58218
X52964Y56446
T13
X52913Y30236
X52913Y27795
X52913Y25591
X53780Y29252
X53780Y27047
T14
X33594Y51492
X38335Y51492
T15
X55394Y22868
X55394Y13868
T16
X11094Y60462
X26389Y60462
X36901Y60462
X54952Y60462
T17
X1575Y55906
X1575Y30512
X1575Y7283
X6693Y60709
X53780Y1932
X59055Y30512
X59055Y7283
X59099Y55906
T18
X56435Y26181
X59191Y26181
T7
X33730Y44547G85X34242Y44547
G05
X33730Y41673G85X34242Y41673
G05
T0
M30
