G04 #@! TF.GenerationSoftware,KiCad,Pcbnew,(5.99.0-10483-ga6ad7a4a70)*
G04 #@! TF.CreationDate,2021-05-18T19:53:06+03:00*
G04 #@! TF.ProjectId,hellen64_miataNA6_94,68656c6c-656e-4363-945f-6d696174614e,b*
G04 #@! TF.SameCoordinates,PX1406f40PYa852d20*
G04 #@! TF.FileFunction,Legend,Bot*
G04 #@! TF.FilePolarity,Positive*
%FSLAX46Y46*%
G04 Gerber Fmt 4.6, Leading zero omitted, Abs format (unit mm)*
G04 Created by KiCad (PCBNEW (5.99.0-10483-ga6ad7a4a70)) date 2021-05-18 19:53:06*
%MOMM*%
%LPD*%
G01*
G04 APERTURE LIST*
%ADD10C,0.250000*%
%ADD11C,0.223520*%
%ADD12C,0.350000*%
%ADD13C,0.400000*%
%ADD14C,0.200000*%
%ADD15C,0.120000*%
G04 APERTURE END LIST*
D10*
X71200000Y156300000D02*
X71200000Y146900000D01*
X70600000Y146300000D02*
X70600000Y145100000D01*
X80500000Y138700000D02*
X80500000Y156300000D01*
X70600000Y145100000D02*
X71100000Y144600000D01*
X71200000Y146900000D02*
X70600000Y146300000D01*
X71100000Y144600000D02*
X71100000Y138800000D01*
X80500000Y156300000D02*
X71200000Y156300000D01*
D11*
X127140380Y137596953D02*
X128156380Y137596953D01*
X127140380Y138080762D02*
X128156380Y138080762D01*
X127140380Y138661334D01*
X128156380Y138661334D01*
X128156380Y139435429D02*
X127430666Y139435429D01*
X127285523Y139387048D01*
X127188761Y139290286D01*
X127140380Y139145143D01*
X127140380Y139048381D01*
X127140380Y140451429D02*
X127140380Y139870858D01*
X127140380Y140161143D02*
X128156380Y140161143D01*
X128011238Y140064381D01*
X127914476Y139967620D01*
X127866095Y139870858D01*
X39969333Y140985381D02*
X40549904Y140985381D01*
X40259619Y140985381D02*
X40259619Y142001381D01*
X40356380Y141856239D01*
X40453142Y141759477D01*
X40549904Y141711096D01*
X39533904Y141517572D02*
X39195238Y141517572D01*
X39050095Y140985381D02*
X39533904Y140985381D01*
X39533904Y142001381D01*
X39050095Y142001381D01*
X122111666Y150256381D02*
X121482714Y150256381D01*
X121821380Y149869334D01*
X121676238Y149869334D01*
X121579476Y149820953D01*
X121531095Y149772572D01*
X121482714Y149675810D01*
X121482714Y149433905D01*
X121531095Y149337143D01*
X121579476Y149288762D01*
X121676238Y149240381D01*
X121966523Y149240381D01*
X122063285Y149288762D01*
X122111666Y149337143D01*
X120466714Y149240381D02*
X120805380Y149724191D01*
X121047285Y149240381D02*
X121047285Y150256381D01*
X120660238Y150256381D01*
X120563476Y150208000D01*
X120515095Y150159620D01*
X120466714Y150062858D01*
X120466714Y149917715D01*
X120515095Y149820953D01*
X120563476Y149772572D01*
X120660238Y149724191D01*
X121047285Y149724191D01*
D12*
X78604761Y155495239D02*
X78128571Y153495239D01*
X77747619Y154923810D01*
X77366666Y153495239D01*
X76890476Y155495239D01*
X75461904Y154542858D02*
X75176190Y154447620D01*
X75080952Y154352381D01*
X74985714Y154161905D01*
X74985714Y153876191D01*
X75080952Y153685715D01*
X75176190Y153590477D01*
X75366666Y153495239D01*
X76128571Y153495239D01*
X76128571Y155495239D01*
X75461904Y155495239D01*
X75271428Y155400000D01*
X75176190Y155304762D01*
X75080952Y155114286D01*
X75080952Y154923810D01*
X75176190Y154733334D01*
X75271428Y154638096D01*
X75461904Y154542858D01*
X76128571Y154542858D01*
X73747619Y155495239D02*
X73366666Y155495239D01*
X73176190Y155400000D01*
X72985714Y155209524D01*
X72890476Y154828572D01*
X72890476Y154161905D01*
X72985714Y153780953D01*
X73176190Y153590477D01*
X73366666Y153495239D01*
X73747619Y153495239D01*
X73938095Y153590477D01*
X74128571Y153780953D01*
X74223809Y154161905D01*
X74223809Y154828572D01*
X74128571Y155209524D01*
X73938095Y155400000D01*
X73747619Y155495239D01*
D11*
X78990285Y152556381D02*
X78990285Y151733905D01*
X78941904Y151637143D01*
X78893523Y151588762D01*
X78796761Y151540381D01*
X78603238Y151540381D01*
X78506476Y151588762D01*
X78458095Y151637143D01*
X78409714Y151733905D01*
X78409714Y152556381D01*
X118960857Y142001381D02*
X118331904Y142001381D01*
X118670571Y141614334D01*
X118525428Y141614334D01*
X118428666Y141565953D01*
X118380285Y141517572D01*
X118331904Y141420810D01*
X118331904Y141178905D01*
X118380285Y141082143D01*
X118428666Y141033762D01*
X118525428Y140985381D01*
X118815714Y140985381D01*
X118912476Y141033762D01*
X118960857Y141082143D01*
X117702952Y142001381D02*
X117509428Y142001381D01*
X117412666Y141953000D01*
X117315904Y141856239D01*
X117267523Y141662715D01*
X117267523Y141324048D01*
X117315904Y141130524D01*
X117412666Y141033762D01*
X117509428Y140985381D01*
X117702952Y140985381D01*
X117799714Y141033762D01*
X117896476Y141130524D01*
X117944857Y141324048D01*
X117944857Y141662715D01*
X117896476Y141856239D01*
X117799714Y141953000D01*
X117702952Y142001381D01*
X54831904Y140985381D02*
X55412476Y140985381D01*
X55122190Y140985381D02*
X55122190Y142001381D01*
X55218952Y141856239D01*
X55315714Y141759477D01*
X55412476Y141711096D01*
X54202952Y142001381D02*
X54009428Y142001381D01*
X53912666Y141953000D01*
X53815904Y141856239D01*
X53767523Y141662715D01*
X53767523Y141324048D01*
X53815904Y141130524D01*
X53912666Y141033762D01*
X54009428Y140985381D01*
X54202952Y140985381D01*
X54299714Y141033762D01*
X54396476Y141130524D01*
X54444857Y141324048D01*
X54444857Y141662715D01*
X54396476Y141856239D01*
X54299714Y141953000D01*
X54202952Y142001381D01*
X48995952Y149240381D02*
X49576523Y149240381D01*
X49286238Y149240381D02*
X49286238Y150256381D01*
X49383000Y150111239D01*
X49479761Y150014477D01*
X49576523Y149966096D01*
X48076714Y149240381D02*
X48560523Y149240381D01*
X48560523Y150256381D01*
X109925714Y150256381D02*
X109296761Y150256381D01*
X109635428Y149869334D01*
X109490285Y149869334D01*
X109393523Y149820953D01*
X109345142Y149772572D01*
X109296761Y149675810D01*
X109296761Y149433905D01*
X109345142Y149337143D01*
X109393523Y149288762D01*
X109490285Y149240381D01*
X109780571Y149240381D01*
X109877333Y149288762D01*
X109925714Y149337143D01*
X108571047Y150256381D02*
X108571047Y149530667D01*
X108619428Y149385524D01*
X108716190Y149288762D01*
X108861333Y149240381D01*
X108958095Y149240381D01*
X122135857Y142001381D02*
X121506904Y142001381D01*
X121845571Y141614334D01*
X121700428Y141614334D01*
X121603666Y141565953D01*
X121555285Y141517572D01*
X121506904Y141420810D01*
X121506904Y141178905D01*
X121555285Y141082143D01*
X121603666Y141033762D01*
X121700428Y140985381D01*
X121990714Y140985381D01*
X122087476Y141033762D01*
X122135857Y141082143D01*
X120394142Y140888620D02*
X120490904Y140937000D01*
X120587666Y141033762D01*
X120732809Y141178905D01*
X120829571Y141227286D01*
X120926333Y141227286D01*
X120877952Y140985381D02*
X120974714Y141033762D01*
X121071476Y141130524D01*
X121119857Y141324048D01*
X121119857Y141662715D01*
X121071476Y141856239D01*
X120974714Y141953000D01*
X120877952Y142001381D01*
X120684428Y142001381D01*
X120587666Y141953000D01*
X120490904Y141856239D01*
X120442523Y141662715D01*
X120442523Y141324048D01*
X120490904Y141130524D01*
X120587666Y141033762D01*
X120684428Y140985381D01*
X120877952Y140985381D01*
X42040380Y150876000D02*
X43056380Y150876000D01*
X43008000Y151892000D02*
X43056380Y151795239D01*
X43056380Y151650096D01*
X43008000Y151504953D01*
X42911238Y151408191D01*
X42814476Y151359810D01*
X42620952Y151311429D01*
X42475809Y151311429D01*
X42282285Y151359810D01*
X42185523Y151408191D01*
X42088761Y151504953D01*
X42040380Y151650096D01*
X42040380Y151746858D01*
X42088761Y151892000D01*
X42137142Y151940381D01*
X42475809Y151940381D01*
X42475809Y151746858D01*
X42040380Y152375810D02*
X43056380Y152375810D01*
X42040380Y152956381D01*
X43056380Y152956381D01*
X42959619Y153391810D02*
X43008000Y153440191D01*
X43056380Y153536953D01*
X43056380Y153778858D01*
X43008000Y153875620D01*
X42959619Y153924000D01*
X42862857Y153972381D01*
X42766095Y153972381D01*
X42620952Y153924000D01*
X42040380Y153343429D01*
X42040380Y153972381D01*
X37027714Y149240381D02*
X37608285Y149240381D01*
X37318000Y149240381D02*
X37318000Y150256381D01*
X37414761Y150111239D01*
X37511523Y150014477D01*
X37608285Y149966096D01*
X36592285Y149240381D02*
X36592285Y150256381D01*
X36350380Y150256381D01*
X36205238Y150208000D01*
X36108476Y150111239D01*
X36060095Y150014477D01*
X36011714Y149820953D01*
X36011714Y149675810D01*
X36060095Y149482286D01*
X36108476Y149385524D01*
X36205238Y149288762D01*
X36350380Y149240381D01*
X36592285Y149240381D01*
X97346666Y150256381D02*
X96717714Y150256381D01*
X97056380Y149869334D01*
X96911238Y149869334D01*
X96814476Y149820953D01*
X96766095Y149772572D01*
X96717714Y149675810D01*
X96717714Y149433905D01*
X96766095Y149337143D01*
X96814476Y149288762D01*
X96911238Y149240381D01*
X97201523Y149240381D01*
X97298285Y149288762D01*
X97346666Y149337143D01*
X95943619Y149772572D02*
X95798476Y149724191D01*
X95750095Y149675810D01*
X95701714Y149579048D01*
X95701714Y149433905D01*
X95750095Y149337143D01*
X95798476Y149288762D01*
X95895238Y149240381D01*
X96282285Y149240381D01*
X96282285Y150256381D01*
X95943619Y150256381D01*
X95846857Y150208000D01*
X95798476Y150159620D01*
X95750095Y150062858D01*
X95750095Y149966096D01*
X95798476Y149869334D01*
X95846857Y149820953D01*
X95943619Y149772572D01*
X96282285Y149772572D01*
X79964380Y140156381D02*
X79964380Y139333905D01*
X79916000Y139237143D01*
X79867619Y139188762D01*
X79770857Y139140381D01*
X79577333Y139140381D01*
X79480571Y139188762D01*
X79432190Y139237143D01*
X79383809Y139333905D01*
X79383809Y140156381D01*
X78174285Y140204762D02*
X79045142Y138898477D01*
X77835619Y139140381D02*
X77835619Y140156381D01*
X91456380Y136588953D02*
X90633904Y136588953D01*
X90537142Y136637334D01*
X90488761Y136685715D01*
X90440380Y136782477D01*
X90440380Y136976000D01*
X90488761Y137072762D01*
X90537142Y137121143D01*
X90633904Y137169524D01*
X91456380Y137169524D01*
X90488761Y137604953D02*
X90440380Y137750096D01*
X90440380Y137992001D01*
X90488761Y138088762D01*
X90537142Y138137143D01*
X90633904Y138185524D01*
X90730666Y138185524D01*
X90827428Y138137143D01*
X90875809Y138088762D01*
X90924190Y137992001D01*
X90972571Y137798477D01*
X91020952Y137701715D01*
X91069333Y137653334D01*
X91166095Y137604953D01*
X91262857Y137604953D01*
X91359619Y137653334D01*
X91408000Y137701715D01*
X91456380Y137798477D01*
X91456380Y138040381D01*
X91408000Y138185524D01*
X90972571Y138959620D02*
X90924190Y139104762D01*
X90875809Y139153143D01*
X90779047Y139201524D01*
X90633904Y139201524D01*
X90537142Y139153143D01*
X90488761Y139104762D01*
X90440380Y139008001D01*
X90440380Y138620953D01*
X91456380Y138620953D01*
X91456380Y138959620D01*
X91408000Y139056381D01*
X91359619Y139104762D01*
X91262857Y139153143D01*
X91166095Y139153143D01*
X91069333Y139104762D01*
X91020952Y139056381D01*
X90972571Y138959620D01*
X90972571Y138620953D01*
X90827428Y139636953D02*
X90827428Y140411048D01*
X125262476Y142001381D02*
X124633523Y142001381D01*
X124972190Y141614334D01*
X124827047Y141614334D01*
X124730285Y141565953D01*
X124681904Y141517572D01*
X124633523Y141420810D01*
X124633523Y141178905D01*
X124681904Y141082143D01*
X124730285Y141033762D01*
X124827047Y140985381D01*
X125117333Y140985381D01*
X125214095Y141033762D01*
X125262476Y141082143D01*
X124246476Y141033762D02*
X124101333Y140985381D01*
X123859428Y140985381D01*
X123762666Y141033762D01*
X123714285Y141082143D01*
X123665904Y141178905D01*
X123665904Y141275667D01*
X123714285Y141372429D01*
X123762666Y141420810D01*
X123859428Y141469191D01*
X124052952Y141517572D01*
X124149714Y141565953D01*
X124198095Y141614334D01*
X124246476Y141711096D01*
X124246476Y141807858D01*
X124198095Y141904620D01*
X124149714Y141953000D01*
X124052952Y142001381D01*
X123811047Y142001381D01*
X123665904Y141953000D01*
X131709238Y142001381D02*
X131080285Y142001381D01*
X131418952Y141614334D01*
X131273809Y141614334D01*
X131177047Y141565953D01*
X131128666Y141517572D01*
X131080285Y141420810D01*
X131080285Y141178905D01*
X131128666Y141082143D01*
X131177047Y141033762D01*
X131273809Y140985381D01*
X131564095Y140985381D01*
X131660857Y141033762D01*
X131709238Y141082143D01*
X130741619Y142001381D02*
X130499714Y140985381D01*
X130306190Y141711096D01*
X130112666Y140985381D01*
X129870761Y142001381D01*
X113221666Y142001381D02*
X112592714Y142001381D01*
X112931380Y141614334D01*
X112786238Y141614334D01*
X112689476Y141565953D01*
X112641095Y141517572D01*
X112592714Y141420810D01*
X112592714Y141178905D01*
X112641095Y141082143D01*
X112689476Y141033762D01*
X112786238Y140985381D01*
X113076523Y140985381D01*
X113173285Y141033762D01*
X113221666Y141082143D01*
X112157285Y140985381D02*
X112157285Y142001381D01*
X111576714Y140985381D02*
X112012142Y141565953D01*
X111576714Y142001381D02*
X112157285Y141420810D01*
X79542476Y150159620D02*
X79494095Y150208000D01*
X79397333Y150256381D01*
X79155428Y150256381D01*
X79058666Y150208000D01*
X79010285Y150159620D01*
X78961904Y150062858D01*
X78961904Y149966096D01*
X79010285Y149820953D01*
X79590857Y149240381D01*
X78961904Y149240381D01*
X78526476Y149240381D02*
X78526476Y150256381D01*
X78526476Y149772572D02*
X77945904Y149772572D01*
X77945904Y149240381D02*
X77945904Y150256381D01*
X107246666Y141956381D02*
X106617714Y141956381D01*
X106956380Y141569334D01*
X106811238Y141569334D01*
X106714476Y141520953D01*
X106666095Y141472572D01*
X106617714Y141375810D01*
X106617714Y141133905D01*
X106666095Y141037143D01*
X106714476Y140988762D01*
X106811238Y140940381D01*
X107101523Y140940381D01*
X107198285Y140988762D01*
X107246666Y141037143D01*
X105650095Y141908000D02*
X105746857Y141956381D01*
X105892000Y141956381D01*
X106037142Y141908000D01*
X106133904Y141811239D01*
X106182285Y141714477D01*
X106230666Y141520953D01*
X106230666Y141375810D01*
X106182285Y141182286D01*
X106133904Y141085524D01*
X106037142Y140988762D01*
X105892000Y140940381D01*
X105795238Y140940381D01*
X105650095Y140988762D01*
X105601714Y141037143D01*
X105601714Y141375810D01*
X105795238Y141375810D01*
X61036761Y149240381D02*
X61617333Y149240381D01*
X61327047Y149240381D02*
X61327047Y150256381D01*
X61423809Y150111239D01*
X61520571Y150014477D01*
X61617333Y149966096D01*
X60746476Y150256381D02*
X60165904Y150256381D01*
X60456190Y149240381D02*
X60456190Y150256381D01*
X116219238Y142001381D02*
X115590285Y142001381D01*
X115928952Y141614334D01*
X115783809Y141614334D01*
X115687047Y141565953D01*
X115638666Y141517572D01*
X115590285Y141420810D01*
X115590285Y141178905D01*
X115638666Y141082143D01*
X115687047Y141033762D01*
X115783809Y140985381D01*
X116074095Y140985381D01*
X116170857Y141033762D01*
X116219238Y141082143D01*
X115154857Y140985381D02*
X115154857Y142001381D01*
X114816190Y141275667D01*
X114477523Y142001381D01*
X114477523Y140985381D01*
X37356380Y137179239D02*
X36340380Y137517905D01*
X37356380Y137856572D01*
X36340380Y138195239D02*
X37356380Y138195239D01*
X37308000Y139211239D02*
X37356380Y139114477D01*
X37356380Y138969334D01*
X37308000Y138824191D01*
X37211238Y138727429D01*
X37114476Y138679048D01*
X36920952Y138630667D01*
X36775809Y138630667D01*
X36582285Y138679048D01*
X36485523Y138727429D01*
X36388761Y138824191D01*
X36340380Y138969334D01*
X36340380Y139066096D01*
X36388761Y139211239D01*
X36437142Y139259620D01*
X36775809Y139259620D01*
X36775809Y139066096D01*
X36340380Y139695048D02*
X37356380Y139695048D01*
X36340380Y140275620D01*
X37356380Y140275620D01*
X91256380Y150988953D02*
X90433904Y150988953D01*
X90337142Y151037334D01*
X90288761Y151085715D01*
X90240380Y151182477D01*
X90240380Y151376000D01*
X90288761Y151472762D01*
X90337142Y151521143D01*
X90433904Y151569524D01*
X91256380Y151569524D01*
X90288761Y152004953D02*
X90240380Y152150096D01*
X90240380Y152392001D01*
X90288761Y152488762D01*
X90337142Y152537143D01*
X90433904Y152585524D01*
X90530666Y152585524D01*
X90627428Y152537143D01*
X90675809Y152488762D01*
X90724190Y152392001D01*
X90772571Y152198477D01*
X90820952Y152101715D01*
X90869333Y152053334D01*
X90966095Y152004953D01*
X91062857Y152004953D01*
X91159619Y152053334D01*
X91208000Y152101715D01*
X91256380Y152198477D01*
X91256380Y152440381D01*
X91208000Y152585524D01*
X90772571Y153359620D02*
X90724190Y153504762D01*
X90675809Y153553143D01*
X90579047Y153601524D01*
X90433904Y153601524D01*
X90337142Y153553143D01*
X90288761Y153504762D01*
X90240380Y153408001D01*
X90240380Y153020953D01*
X91256380Y153020953D01*
X91256380Y153359620D01*
X91208000Y153456381D01*
X91159619Y153504762D01*
X91062857Y153553143D01*
X90966095Y153553143D01*
X90869333Y153504762D01*
X90820952Y153456381D01*
X90772571Y153359620D01*
X90772571Y153020953D01*
X90627428Y154036953D02*
X90627428Y154811048D01*
X90240380Y154424001D02*
X91014476Y154424001D01*
X117840380Y137890477D02*
X118856380Y137890477D01*
X118130666Y138229143D01*
X118856380Y138567810D01*
X117840380Y138567810D01*
X118130666Y139003239D02*
X118130666Y139487048D01*
X117840380Y138906477D02*
X118856380Y139245143D01*
X117840380Y139583810D01*
X118372571Y140261143D02*
X118372571Y139922477D01*
X117840380Y139922477D02*
X118856380Y139922477D01*
X118856380Y140406286D01*
X115856380Y151335620D02*
X115856380Y151529143D01*
X115808000Y151625905D01*
X115711238Y151722667D01*
X115517714Y151771048D01*
X115179047Y151771048D01*
X114985523Y151722667D01*
X114888761Y151625905D01*
X114840380Y151529143D01*
X114840380Y151335620D01*
X114888761Y151238858D01*
X114985523Y151142096D01*
X115179047Y151093715D01*
X115517714Y151093715D01*
X115711238Y151142096D01*
X115808000Y151238858D01*
X115856380Y151335620D01*
X115759619Y152158096D02*
X115808000Y152206477D01*
X115856380Y152303239D01*
X115856380Y152545143D01*
X115808000Y152641905D01*
X115759619Y152690286D01*
X115662857Y152738667D01*
X115566095Y152738667D01*
X115420952Y152690286D01*
X114840380Y152109715D01*
X114840380Y152738667D01*
X114888761Y153125715D02*
X114840380Y153270858D01*
X114840380Y153512762D01*
X114888761Y153609524D01*
X114937142Y153657905D01*
X115033904Y153706286D01*
X115130666Y153706286D01*
X115227428Y153657905D01*
X115275809Y153609524D01*
X115324190Y153512762D01*
X115372571Y153319239D01*
X115420952Y153222477D01*
X115469333Y153174096D01*
X115566095Y153125715D01*
X115662857Y153125715D01*
X115759619Y153174096D01*
X115808000Y153222477D01*
X115856380Y153319239D01*
X115856380Y153561143D01*
X115808000Y153706286D01*
X109780571Y142001381D02*
X109151619Y142001381D01*
X109490285Y141614334D01*
X109345142Y141614334D01*
X109248380Y141565953D01*
X109200000Y141517572D01*
X109151619Y141420810D01*
X109151619Y141178905D01*
X109200000Y141082143D01*
X109248380Y141033762D01*
X109345142Y140985381D01*
X109635428Y140985381D01*
X109732190Y141033762D01*
X109780571Y141082143D01*
X108716190Y140985381D02*
X108716190Y142001381D01*
X103237142Y136555048D02*
X103188761Y136506667D01*
X103140380Y136361524D01*
X103140380Y136264762D01*
X103188761Y136119620D01*
X103285523Y136022858D01*
X103382285Y135974477D01*
X103575809Y135926096D01*
X103720952Y135926096D01*
X103914476Y135974477D01*
X104011238Y136022858D01*
X104108000Y136119620D01*
X104156380Y136264762D01*
X104156380Y136361524D01*
X104108000Y136506667D01*
X104059619Y136555048D01*
X103140380Y137571048D02*
X103624190Y137232381D01*
X103140380Y136990477D02*
X104156380Y136990477D01*
X104156380Y137377524D01*
X104108000Y137474286D01*
X104059619Y137522667D01*
X103962857Y137571048D01*
X103817714Y137571048D01*
X103720952Y137522667D01*
X103672571Y137474286D01*
X103624190Y137377524D01*
X103624190Y136990477D01*
X103430666Y137958096D02*
X103430666Y138441905D01*
X103140380Y137861334D02*
X104156380Y138200000D01*
X103140380Y138538667D01*
X103237142Y139457905D02*
X103188761Y139409524D01*
X103140380Y139264381D01*
X103140380Y139167620D01*
X103188761Y139022477D01*
X103285523Y138925715D01*
X103382285Y138877334D01*
X103575809Y138828953D01*
X103720952Y138828953D01*
X103914476Y138877334D01*
X104011238Y138925715D01*
X104108000Y139022477D01*
X104156380Y139167620D01*
X104156380Y139264381D01*
X104108000Y139409524D01*
X104059619Y139457905D01*
X103140380Y139893334D02*
X104156380Y139893334D01*
X103140380Y140473905D02*
X103720952Y140038477D01*
X104156380Y140473905D02*
X103575809Y139893334D01*
X109956380Y137034096D02*
X109956380Y137614667D01*
X108940380Y137324381D02*
X109956380Y137324381D01*
X109230666Y137904953D02*
X109230666Y138388762D01*
X108940380Y137808191D02*
X109956380Y138146858D01*
X108940380Y138485524D01*
X109037142Y139404762D02*
X108988761Y139356381D01*
X108940380Y139211239D01*
X108940380Y139114477D01*
X108988761Y138969334D01*
X109085523Y138872572D01*
X109182285Y138824191D01*
X109375809Y138775810D01*
X109520952Y138775810D01*
X109714476Y138824191D01*
X109811238Y138872572D01*
X109908000Y138969334D01*
X109956380Y139114477D01*
X109956380Y139211239D01*
X109908000Y139356381D01*
X109859619Y139404762D01*
X108940380Y139840191D02*
X109956380Y139840191D01*
X109472571Y139840191D02*
X109472571Y140420762D01*
X108940380Y140420762D02*
X109956380Y140420762D01*
X134040380Y151396953D02*
X135056380Y151396953D01*
X134040380Y151880762D02*
X135056380Y151880762D01*
X134040380Y152461334D01*
X135056380Y152461334D01*
X135056380Y153235429D02*
X134330666Y153235429D01*
X134185523Y153187048D01*
X134088761Y153090286D01*
X134040380Y152945143D01*
X134040380Y152848381D01*
X134717714Y154154667D02*
X134040380Y154154667D01*
X135104761Y153912762D02*
X134379047Y153670858D01*
X134379047Y154299810D01*
X88480857Y141904620D02*
X88432476Y141953000D01*
X88335714Y142001381D01*
X88093809Y142001381D01*
X87997047Y141953000D01*
X87948666Y141904620D01*
X87900285Y141807858D01*
X87900285Y141711096D01*
X87948666Y141565953D01*
X88529238Y140985381D01*
X87900285Y140985381D01*
X87464857Y140985381D02*
X87464857Y142001381D01*
X87126190Y141275667D01*
X86787523Y142001381D01*
X86787523Y140985381D01*
X45796761Y149240381D02*
X46377333Y149240381D01*
X46087047Y149240381D02*
X46087047Y150256381D01*
X46183809Y150111239D01*
X46280571Y150014477D01*
X46377333Y149966096D01*
X45071047Y150256381D02*
X45071047Y149530667D01*
X45119428Y149385524D01*
X45216190Y149288762D01*
X45361333Y149240381D01*
X45458095Y149240381D01*
X107270857Y150256381D02*
X106641904Y150256381D01*
X106980571Y149869334D01*
X106835428Y149869334D01*
X106738666Y149820953D01*
X106690285Y149772572D01*
X106641904Y149675810D01*
X106641904Y149433905D01*
X106690285Y149337143D01*
X106738666Y149288762D01*
X106835428Y149240381D01*
X107125714Y149240381D01*
X107222476Y149288762D01*
X107270857Y149337143D01*
X106206476Y149240381D02*
X106206476Y150256381D01*
X106206476Y149772572D02*
X105625904Y149772572D01*
X105625904Y149240381D02*
X105625904Y150256381D01*
X63721904Y140985381D02*
X64302476Y140985381D01*
X64012190Y140985381D02*
X64012190Y142001381D01*
X64108952Y141856239D01*
X64205714Y141759477D01*
X64302476Y141711096D01*
X63286476Y142001381D02*
X63286476Y141178905D01*
X63238095Y141082143D01*
X63189714Y141033762D01*
X63092952Y140985381D01*
X62899428Y140985381D01*
X62802666Y141033762D01*
X62754285Y141082143D01*
X62705904Y141178905D01*
X62705904Y142001381D01*
X76270714Y150159620D02*
X76222333Y150208000D01*
X76125571Y150256381D01*
X75883666Y150256381D01*
X75786904Y150208000D01*
X75738523Y150159620D01*
X75690142Y150062858D01*
X75690142Y149966096D01*
X75738523Y149820953D01*
X76319095Y149240381D01*
X75690142Y149240381D01*
X74916047Y149772572D02*
X75254714Y149772572D01*
X75254714Y149240381D02*
X75254714Y150256381D01*
X74770904Y150256381D01*
X124472571Y138277524D02*
X124472571Y137938858D01*
X123940380Y137938858D02*
X124956380Y137938858D01*
X124956380Y138422667D01*
X124230666Y138761334D02*
X124230666Y139245143D01*
X123940380Y138664572D02*
X124956380Y139003239D01*
X123940380Y139341905D01*
X123940380Y139680572D02*
X124956380Y139680572D01*
X123940380Y140261143D01*
X124956380Y140261143D01*
X101156666Y142001381D02*
X100527714Y142001381D01*
X100866380Y141614334D01*
X100721238Y141614334D01*
X100624476Y141565953D01*
X100576095Y141517572D01*
X100527714Y141420810D01*
X100527714Y141178905D01*
X100576095Y141082143D01*
X100624476Y141033762D01*
X100721238Y140985381D01*
X101011523Y140985381D01*
X101108285Y141033762D01*
X101156666Y141082143D01*
X99511714Y141082143D02*
X99560095Y141033762D01*
X99705238Y140985381D01*
X99802000Y140985381D01*
X99947142Y141033762D01*
X100043904Y141130524D01*
X100092285Y141227286D01*
X100140666Y141420810D01*
X100140666Y141565953D01*
X100092285Y141759477D01*
X100043904Y141856239D01*
X99947142Y141953000D01*
X99802000Y142001381D01*
X99705238Y142001381D01*
X99560095Y141953000D01*
X99511714Y141904620D01*
X85136523Y150159620D02*
X85088142Y150208000D01*
X84991380Y150256381D01*
X84749476Y150256381D01*
X84652714Y150208000D01*
X84604333Y150159620D01*
X84555952Y150062858D01*
X84555952Y149966096D01*
X84604333Y149820953D01*
X85184904Y149240381D01*
X84555952Y149240381D01*
X83636714Y149240381D02*
X84120523Y149240381D01*
X84120523Y150256381D01*
X79518285Y141904620D02*
X79469904Y141953000D01*
X79373142Y142001381D01*
X79131238Y142001381D01*
X79034476Y141953000D01*
X78986095Y141904620D01*
X78937714Y141807858D01*
X78937714Y141711096D01*
X78986095Y141565953D01*
X79566666Y140985381D01*
X78937714Y140985381D01*
X77970095Y141953000D02*
X78066857Y142001381D01*
X78212000Y142001381D01*
X78357142Y141953000D01*
X78453904Y141856239D01*
X78502285Y141759477D01*
X78550666Y141565953D01*
X78550666Y141420810D01*
X78502285Y141227286D01*
X78453904Y141130524D01*
X78357142Y141033762D01*
X78212000Y140985381D01*
X78115238Y140985381D01*
X77970095Y141033762D01*
X77921714Y141082143D01*
X77921714Y141420810D01*
X78115238Y141420810D01*
X117740380Y151177524D02*
X118756380Y151177524D01*
X118030666Y151612953D02*
X118030666Y152096762D01*
X117740380Y151516191D02*
X118756380Y151854858D01*
X117740380Y152193524D01*
X118756380Y152387048D02*
X118756380Y152967620D01*
X117740380Y152677334D02*
X118756380Y152677334D01*
X130440380Y137421143D02*
X131456380Y137421143D01*
X130440380Y137904953D02*
X131456380Y137904953D01*
X131456380Y138146858D01*
X131408000Y138292000D01*
X131311238Y138388762D01*
X131214476Y138437143D01*
X131020952Y138485524D01*
X130875809Y138485524D01*
X130682285Y138437143D01*
X130585523Y138388762D01*
X130488761Y138292000D01*
X130440380Y138146858D01*
X130440380Y137904953D01*
X130440380Y139404762D02*
X130440380Y138920953D01*
X131456380Y138920953D01*
X130972571Y139743429D02*
X130972571Y140082096D01*
X130440380Y140227239D02*
X130440380Y139743429D01*
X131456380Y139743429D01*
X131456380Y140227239D01*
X51656904Y149240381D02*
X52237476Y149240381D01*
X51947190Y149240381D02*
X51947190Y150256381D01*
X52043952Y150111239D01*
X52140714Y150014477D01*
X52237476Y149966096D01*
X51221476Y149240381D02*
X51221476Y150256381D01*
X50640904Y149240381D01*
X50640904Y150256381D01*
X127140380Y151196953D02*
X128156380Y151196953D01*
X127140380Y151680762D02*
X128156380Y151680762D01*
X127140380Y152261334D01*
X128156380Y152261334D01*
X128156380Y153035429D02*
X127430666Y153035429D01*
X127285523Y152987048D01*
X127188761Y152890286D01*
X127140380Y152745143D01*
X127140380Y152648381D01*
X128059619Y153470858D02*
X128108000Y153519239D01*
X128156380Y153616000D01*
X128156380Y153857905D01*
X128108000Y153954667D01*
X128059619Y154003048D01*
X127962857Y154051429D01*
X127866095Y154051429D01*
X127720952Y154003048D01*
X127140380Y153422477D01*
X127140380Y154051429D01*
X74472380Y145140381D02*
X74472380Y146156381D01*
X74472380Y145672572D02*
X73891809Y145672572D01*
X73891809Y145140381D02*
X73891809Y146156381D01*
X73408000Y145672572D02*
X73069333Y145672572D01*
X72924190Y145140381D02*
X73408000Y145140381D01*
X73408000Y146156381D01*
X72924190Y146156381D01*
X72537142Y145430667D02*
X72053333Y145430667D01*
X72633904Y145140381D02*
X72295238Y146156381D01*
X71956571Y145140381D01*
X71763047Y146156381D02*
X71182476Y146156381D01*
X71472761Y145140381D02*
X71472761Y146156381D01*
X57982714Y149240381D02*
X58563285Y149240381D01*
X58273000Y149240381D02*
X58273000Y150256381D01*
X58369761Y150111239D01*
X58466523Y150014477D01*
X58563285Y149966096D01*
X56966714Y149240381D02*
X57305380Y149724191D01*
X57547285Y149240381D02*
X57547285Y150256381D01*
X57160238Y150256381D01*
X57063476Y150208000D01*
X57015095Y150159620D01*
X56966714Y150062858D01*
X56966714Y149917715D01*
X57015095Y149820953D01*
X57063476Y149772572D01*
X57160238Y149724191D01*
X57547285Y149724191D01*
X61133523Y140985381D02*
X61714095Y140985381D01*
X61423809Y140985381D02*
X61423809Y142001381D01*
X61520571Y141856239D01*
X61617333Y141759477D01*
X61714095Y141711096D01*
X60746476Y141033762D02*
X60601333Y140985381D01*
X60359428Y140985381D01*
X60262666Y141033762D01*
X60214285Y141082143D01*
X60165904Y141178905D01*
X60165904Y141275667D01*
X60214285Y141372429D01*
X60262666Y141420810D01*
X60359428Y141469191D01*
X60552952Y141517572D01*
X60649714Y141565953D01*
X60698095Y141614334D01*
X60746476Y141711096D01*
X60746476Y141807858D01*
X60698095Y141904620D01*
X60649714Y141953000D01*
X60552952Y142001381D01*
X60311047Y142001381D01*
X60165904Y141953000D01*
X58006904Y140985381D02*
X58587476Y140985381D01*
X58297190Y140985381D02*
X58297190Y142001381D01*
X58393952Y141856239D01*
X58490714Y141759477D01*
X58587476Y141711096D01*
X56894142Y140888620D02*
X56990904Y140937000D01*
X57087666Y141033762D01*
X57232809Y141178905D01*
X57329571Y141227286D01*
X57426333Y141227286D01*
X57377952Y140985381D02*
X57474714Y141033762D01*
X57571476Y141130524D01*
X57619857Y141324048D01*
X57619857Y141662715D01*
X57571476Y141856239D01*
X57474714Y141953000D01*
X57377952Y142001381D01*
X57184428Y142001381D01*
X57087666Y141953000D01*
X56990904Y141856239D01*
X56942523Y141662715D01*
X56942523Y141324048D01*
X56990904Y141130524D01*
X57087666Y141033762D01*
X57184428Y140985381D01*
X57377952Y140985381D01*
X69993285Y150159620D02*
X69944904Y150208000D01*
X69848142Y150256381D01*
X69606238Y150256381D01*
X69509476Y150208000D01*
X69461095Y150159620D01*
X69412714Y150062858D01*
X69412714Y149966096D01*
X69461095Y149820953D01*
X70041666Y149240381D01*
X69412714Y149240381D01*
X68638619Y149772572D02*
X68493476Y149724191D01*
X68445095Y149675810D01*
X68396714Y149579048D01*
X68396714Y149433905D01*
X68445095Y149337143D01*
X68493476Y149288762D01*
X68590238Y149240381D01*
X68977285Y149240381D01*
X68977285Y150256381D01*
X68638619Y150256381D01*
X68541857Y150208000D01*
X68493476Y150159620D01*
X68445095Y150062858D01*
X68445095Y149966096D01*
X68493476Y149869334D01*
X68541857Y149820953D01*
X68638619Y149772572D01*
X68977285Y149772572D01*
X128270857Y141956381D02*
X127641904Y141956381D01*
X127980571Y141569334D01*
X127835428Y141569334D01*
X127738666Y141520953D01*
X127690285Y141472572D01*
X127641904Y141375810D01*
X127641904Y141133905D01*
X127690285Y141037143D01*
X127738666Y140988762D01*
X127835428Y140940381D01*
X128125714Y140940381D01*
X128222476Y140988762D01*
X128270857Y141037143D01*
X127206476Y141956381D02*
X127206476Y141133905D01*
X127158095Y141037143D01*
X127109714Y140988762D01*
X127012952Y140940381D01*
X126819428Y140940381D01*
X126722666Y140988762D01*
X126674285Y141037143D01*
X126625904Y141133905D01*
X126625904Y141956381D01*
X32440380Y134363239D02*
X32440380Y133782667D01*
X32440380Y134072953D02*
X33456380Y134072953D01*
X33311238Y133976191D01*
X33214476Y133879429D01*
X33166095Y133782667D01*
X33359619Y134750286D02*
X33408000Y134798667D01*
X33456380Y134895429D01*
X33456380Y135137334D01*
X33408000Y135234096D01*
X33359619Y135282477D01*
X33262857Y135330858D01*
X33166095Y135330858D01*
X33020952Y135282477D01*
X32440380Y134701905D01*
X32440380Y135330858D01*
X32343619Y135524381D02*
X32343619Y136298477D01*
X32440380Y136540381D02*
X33456380Y136540381D01*
X33456380Y136927429D01*
X33408000Y137024191D01*
X33359619Y137072572D01*
X33262857Y137120953D01*
X33117714Y137120953D01*
X33020952Y137072572D01*
X32972571Y137024191D01*
X32924190Y136927429D01*
X32924190Y136540381D01*
X32972571Y137556381D02*
X32972571Y137895048D01*
X32440380Y138040191D02*
X32440380Y137556381D01*
X33456380Y137556381D01*
X33456380Y138040191D01*
X32440380Y139056191D02*
X32924190Y138717524D01*
X32440380Y138475620D02*
X33456380Y138475620D01*
X33456380Y138862667D01*
X33408000Y138959429D01*
X33359619Y139007810D01*
X33262857Y139056191D01*
X33117714Y139056191D01*
X33020952Y139007810D01*
X32972571Y138959429D01*
X32924190Y138862667D01*
X32924190Y138475620D01*
X32440380Y139491620D02*
X33456380Y139491620D01*
X32730666Y139830286D01*
X33456380Y140168953D01*
X32440380Y140168953D01*
X39845142Y149240381D02*
X40425714Y149240381D01*
X40135428Y149240381D02*
X40135428Y150256381D01*
X40232190Y150111239D01*
X40328952Y150014477D01*
X40425714Y149966096D01*
X39071047Y149772572D02*
X39409714Y149772572D01*
X39409714Y149240381D02*
X39409714Y150256381D01*
X38925904Y150256381D01*
X134340380Y137396953D02*
X135356380Y137396953D01*
X134340380Y137880762D02*
X135356380Y137880762D01*
X134340380Y138461334D01*
X135356380Y138461334D01*
X135356380Y139235429D02*
X134630666Y139235429D01*
X134485523Y139187048D01*
X134388761Y139090286D01*
X134340380Y138945143D01*
X134340380Y138848381D01*
X135356380Y139622477D02*
X135356380Y140251429D01*
X134969333Y139912762D01*
X134969333Y140057905D01*
X134920952Y140154667D01*
X134872571Y140203048D01*
X134775809Y140251429D01*
X134533904Y140251429D01*
X134437142Y140203048D01*
X134388761Y140154667D01*
X134340380Y140057905D01*
X134340380Y139767620D01*
X134388761Y139670858D01*
X134437142Y139622477D01*
X63625142Y149240381D02*
X64205714Y149240381D01*
X63915428Y149240381D02*
X63915428Y150256381D01*
X64012190Y150111239D01*
X64108952Y150014477D01*
X64205714Y149966096D01*
X63334857Y150256381D02*
X62996190Y149240381D01*
X62657523Y150256381D01*
X91607476Y141904620D02*
X91559095Y141953000D01*
X91462333Y142001381D01*
X91220428Y142001381D01*
X91123666Y141953000D01*
X91075285Y141904620D01*
X91026904Y141807858D01*
X91026904Y141711096D01*
X91075285Y141565953D01*
X91655857Y140985381D01*
X91026904Y140985381D01*
X90397952Y142001381D02*
X90204428Y142001381D01*
X90107666Y141953000D01*
X90010904Y141856239D01*
X89962523Y141662715D01*
X89962523Y141324048D01*
X90010904Y141130524D01*
X90107666Y141033762D01*
X90204428Y140985381D01*
X90397952Y140985381D01*
X90494714Y141033762D01*
X90591476Y141130524D01*
X90639857Y141324048D01*
X90639857Y141662715D01*
X90591476Y141856239D01*
X90494714Y141953000D01*
X90397952Y142001381D01*
X88256380Y135950286D02*
X87240380Y136288953D01*
X88256380Y136627620D01*
X87143619Y136724381D02*
X87143619Y137498477D01*
X88256380Y137740381D02*
X87433904Y137740381D01*
X87337142Y137788762D01*
X87288761Y137837143D01*
X87240380Y137933905D01*
X87240380Y138127429D01*
X87288761Y138224191D01*
X87337142Y138272572D01*
X87433904Y138320953D01*
X88256380Y138320953D01*
X87288761Y138756381D02*
X87240380Y138901524D01*
X87240380Y139143429D01*
X87288761Y139240191D01*
X87337142Y139288572D01*
X87433904Y139336953D01*
X87530666Y139336953D01*
X87627428Y139288572D01*
X87675809Y139240191D01*
X87724190Y139143429D01*
X87772571Y138949905D01*
X87820952Y138853143D01*
X87869333Y138804762D01*
X87966095Y138756381D01*
X88062857Y138756381D01*
X88159619Y138804762D01*
X88208000Y138853143D01*
X88256380Y138949905D01*
X88256380Y139191810D01*
X88208000Y139336953D01*
X87772571Y140111048D02*
X87724190Y140256191D01*
X87675809Y140304572D01*
X87579047Y140352953D01*
X87433904Y140352953D01*
X87337142Y140304572D01*
X87288761Y140256191D01*
X87240380Y140159429D01*
X87240380Y139772381D01*
X88256380Y139772381D01*
X88256380Y140111048D01*
X88208000Y140207810D01*
X88159619Y140256191D01*
X88062857Y140304572D01*
X87966095Y140304572D01*
X87869333Y140256191D01*
X87820952Y140207810D01*
X87772571Y140111048D01*
X87772571Y139772381D01*
X88432476Y150159620D02*
X88384095Y150208000D01*
X88287333Y150256381D01*
X88045428Y150256381D01*
X87948666Y150208000D01*
X87900285Y150159620D01*
X87851904Y150062858D01*
X87851904Y149966096D01*
X87900285Y149820953D01*
X88480857Y149240381D01*
X87851904Y149240381D01*
X87416476Y149240381D02*
X87416476Y150256381D01*
X86835904Y149240381D01*
X86835904Y150256381D01*
X75500000Y151540381D02*
X75500000Y152556381D01*
X113124904Y150256381D02*
X112495952Y150256381D01*
X112834619Y149869334D01*
X112689476Y149869334D01*
X112592714Y149820953D01*
X112544333Y149772572D01*
X112495952Y149675810D01*
X112495952Y149433905D01*
X112544333Y149337143D01*
X112592714Y149288762D01*
X112689476Y149240381D01*
X112979761Y149240381D01*
X113076523Y149288762D01*
X113124904Y149337143D01*
X111576714Y149240381D02*
X112060523Y149240381D01*
X112060523Y150256381D01*
X82572333Y150159620D02*
X82523952Y150208000D01*
X82427190Y150256381D01*
X82185285Y150256381D01*
X82088523Y150208000D01*
X82040142Y150159620D01*
X81991761Y150062858D01*
X81991761Y149966096D01*
X82040142Y149820953D01*
X82620714Y149240381D01*
X81991761Y149240381D01*
X81266047Y150256381D02*
X81266047Y149530667D01*
X81314428Y149385524D01*
X81411190Y149288762D01*
X81556333Y149240381D01*
X81653095Y149240381D01*
X85233285Y141904620D02*
X85184904Y141953000D01*
X85088142Y142001381D01*
X84846238Y142001381D01*
X84749476Y141953000D01*
X84701095Y141904620D01*
X84652714Y141807858D01*
X84652714Y141711096D01*
X84701095Y141565953D01*
X85281666Y140985381D01*
X84652714Y140985381D01*
X84217285Y140985381D02*
X84217285Y142001381D01*
X83636714Y140985381D02*
X84072142Y141565953D01*
X83636714Y142001381D02*
X84217285Y141420810D01*
X135374095Y142001381D02*
X134745142Y142001381D01*
X135083809Y141614334D01*
X134938666Y141614334D01*
X134841904Y141565953D01*
X134793523Y141517572D01*
X134745142Y141420810D01*
X134745142Y141178905D01*
X134793523Y141082143D01*
X134841904Y141033762D01*
X134938666Y140985381D01*
X135228952Y140985381D01*
X135325714Y141033762D01*
X135374095Y141082143D01*
X134116190Y141469191D02*
X134116190Y140985381D01*
X134454857Y142001381D02*
X134116190Y141469191D01*
X133777523Y142001381D01*
X37027714Y140985381D02*
X37608285Y140985381D01*
X37318000Y140985381D02*
X37318000Y142001381D01*
X37414761Y141856239D01*
X37511523Y141759477D01*
X37608285Y141711096D01*
X36011714Y141082143D02*
X36060095Y141033762D01*
X36205238Y140985381D01*
X36302000Y140985381D01*
X36447142Y141033762D01*
X36543904Y141130524D01*
X36592285Y141227286D01*
X36640666Y141420810D01*
X36640666Y141565953D01*
X36592285Y141759477D01*
X36543904Y141856239D01*
X36447142Y141953000D01*
X36302000Y142001381D01*
X36205238Y142001381D01*
X36060095Y141953000D01*
X36011714Y141904620D01*
X73168285Y141904620D02*
X73119904Y141953000D01*
X73023142Y142001381D01*
X72781238Y142001381D01*
X72684476Y141953000D01*
X72636095Y141904620D01*
X72587714Y141807858D01*
X72587714Y141711096D01*
X72636095Y141565953D01*
X73216666Y140985381D01*
X72587714Y140985381D01*
X71571714Y141082143D02*
X71620095Y141033762D01*
X71765238Y140985381D01*
X71862000Y140985381D01*
X72007142Y141033762D01*
X72103904Y141130524D01*
X72152285Y141227286D01*
X72200666Y141420810D01*
X72200666Y141565953D01*
X72152285Y141759477D01*
X72103904Y141856239D01*
X72007142Y141953000D01*
X71862000Y142001381D01*
X71765238Y142001381D01*
X71620095Y141953000D01*
X71571714Y141904620D01*
X49092714Y140985381D02*
X49673285Y140985381D01*
X49383000Y140985381D02*
X49383000Y142001381D01*
X49479761Y141856239D01*
X49576523Y141759477D01*
X49673285Y141711096D01*
X48657285Y140985381D02*
X48657285Y142001381D01*
X48076714Y140985381D02*
X48512142Y141565953D01*
X48076714Y142001381D02*
X48657285Y141420810D01*
X116170857Y150256381D02*
X115541904Y150256381D01*
X115880571Y149869334D01*
X115735428Y149869334D01*
X115638666Y149820953D01*
X115590285Y149772572D01*
X115541904Y149675810D01*
X115541904Y149433905D01*
X115590285Y149337143D01*
X115638666Y149288762D01*
X115735428Y149240381D01*
X116025714Y149240381D01*
X116122476Y149288762D01*
X116170857Y149337143D01*
X115106476Y149240381D02*
X115106476Y150256381D01*
X114525904Y149240381D01*
X114525904Y150256381D01*
X33145142Y140985381D02*
X33725714Y140985381D01*
X33435428Y140985381D02*
X33435428Y142001381D01*
X33532190Y141856239D01*
X33628952Y141759477D01*
X33725714Y141711096D01*
X32758095Y141275667D02*
X32274285Y141275667D01*
X32854857Y140985381D02*
X32516190Y142001381D01*
X32177523Y140985381D01*
D13*
X9423809Y124700000D02*
X9614285Y124795239D01*
X9900000Y124795239D01*
X10185714Y124700000D01*
X10376190Y124509524D01*
X10471428Y124319048D01*
X10566666Y123938096D01*
X10566666Y123652381D01*
X10471428Y123271429D01*
X10376190Y123080953D01*
X10185714Y122890477D01*
X9900000Y122795239D01*
X9709523Y122795239D01*
X9423809Y122890477D01*
X9328571Y122985715D01*
X9328571Y123652381D01*
X9709523Y123652381D01*
X8471428Y122795239D02*
X8471428Y124795239D01*
X7328571Y122795239D01*
X7328571Y124795239D01*
X6376190Y122795239D02*
X6376190Y124795239D01*
X5900000Y124795239D01*
X5614285Y124700000D01*
X5423809Y124509524D01*
X5328571Y124319048D01*
X5233333Y123938096D01*
X5233333Y123652381D01*
X5328571Y123271429D01*
X5423809Y123080953D01*
X5614285Y122890477D01*
X5900000Y122795239D01*
X6376190Y122795239D01*
D11*
X45651619Y140985381D02*
X46232190Y140985381D01*
X45941904Y140985381D02*
X45941904Y142001381D01*
X46038666Y141856239D01*
X46135428Y141759477D01*
X46232190Y141711096D01*
X45216190Y140985381D02*
X45216190Y142001381D01*
X69920714Y141904620D02*
X69872333Y141953000D01*
X69775571Y142001381D01*
X69533666Y142001381D01*
X69436904Y141953000D01*
X69388523Y141904620D01*
X69340142Y141807858D01*
X69340142Y141711096D01*
X69388523Y141565953D01*
X69969095Y140985381D01*
X69340142Y140985381D01*
X68953095Y141275667D02*
X68469285Y141275667D01*
X69049857Y140985381D02*
X68711190Y142001381D01*
X68372523Y140985381D01*
X118936666Y150256381D02*
X118307714Y150256381D01*
X118646380Y149869334D01*
X118501238Y149869334D01*
X118404476Y149820953D01*
X118356095Y149772572D01*
X118307714Y149675810D01*
X118307714Y149433905D01*
X118356095Y149337143D01*
X118404476Y149288762D01*
X118501238Y149240381D01*
X118791523Y149240381D01*
X118888285Y149288762D01*
X118936666Y149337143D01*
X117872285Y149240381D02*
X117872285Y150256381D01*
X117485238Y150256381D01*
X117388476Y150208000D01*
X117340095Y150159620D01*
X117291714Y150062858D01*
X117291714Y149917715D01*
X117340095Y149820953D01*
X117388476Y149772572D01*
X117485238Y149724191D01*
X117872285Y149724191D01*
X115856380Y137917905D02*
X115856380Y138498477D01*
X114840380Y138208191D02*
X115856380Y138208191D01*
X114840380Y138837143D02*
X115856380Y138837143D01*
X115856380Y139224191D01*
X115808000Y139320953D01*
X115759619Y139369334D01*
X115662857Y139417715D01*
X115517714Y139417715D01*
X115420952Y139369334D01*
X115372571Y139320953D01*
X115324190Y139224191D01*
X115324190Y138837143D01*
X114888761Y139804762D02*
X114840380Y139949905D01*
X114840380Y140191810D01*
X114888761Y140288572D01*
X114937142Y140336953D01*
X115033904Y140385334D01*
X115130666Y140385334D01*
X115227428Y140336953D01*
X115275809Y140288572D01*
X115324190Y140191810D01*
X115372571Y139998286D01*
X115420952Y139901524D01*
X115469333Y139853143D01*
X115566095Y139804762D01*
X115662857Y139804762D01*
X115759619Y139853143D01*
X115808000Y139901524D01*
X115856380Y139998286D01*
X115856380Y140240191D01*
X115808000Y140385334D01*
X101156666Y150256381D02*
X100527714Y150256381D01*
X100866380Y149869334D01*
X100721238Y149869334D01*
X100624476Y149820953D01*
X100576095Y149772572D01*
X100527714Y149675810D01*
X100527714Y149433905D01*
X100576095Y149337143D01*
X100624476Y149288762D01*
X100721238Y149240381D01*
X101011523Y149240381D01*
X101108285Y149288762D01*
X101156666Y149337143D01*
X100092285Y149240381D02*
X100092285Y150256381D01*
X99850380Y150256381D01*
X99705238Y150208000D01*
X99608476Y150111239D01*
X99560095Y150014477D01*
X99511714Y149820953D01*
X99511714Y149675810D01*
X99560095Y149482286D01*
X99608476Y149385524D01*
X99705238Y149288762D01*
X99850380Y149240381D01*
X100092285Y149240381D01*
X91583285Y150159620D02*
X91534904Y150208000D01*
X91438142Y150256381D01*
X91196238Y150256381D01*
X91099476Y150208000D01*
X91051095Y150159620D01*
X91002714Y150062858D01*
X91002714Y149966096D01*
X91051095Y149820953D01*
X91631666Y149240381D01*
X91002714Y149240381D01*
X90567285Y149240381D02*
X90567285Y150256381D01*
X90180238Y150256381D01*
X90083476Y150208000D01*
X90035095Y150159620D01*
X89986714Y150062858D01*
X89986714Y149917715D01*
X90035095Y149820953D01*
X90083476Y149772572D01*
X90180238Y149724191D01*
X90567285Y149724191D01*
X106037142Y138298477D02*
X105988761Y138250096D01*
X105940380Y138104953D01*
X105940380Y138008191D01*
X105988761Y137863048D01*
X106085523Y137766286D01*
X106182285Y137717905D01*
X106375809Y137669524D01*
X106520952Y137669524D01*
X106714476Y137717905D01*
X106811238Y137766286D01*
X106908000Y137863048D01*
X106956380Y138008191D01*
X106956380Y138104953D01*
X106908000Y138250096D01*
X106859619Y138298477D01*
X106230666Y138685524D02*
X106230666Y139169334D01*
X105940380Y138588762D02*
X106956380Y138927429D01*
X105940380Y139266096D01*
X105940380Y139604762D02*
X106956380Y139604762D01*
X106230666Y139943429D01*
X106956380Y140282096D01*
X105940380Y140282096D01*
X54807714Y149240381D02*
X55388285Y149240381D01*
X55098000Y149240381D02*
X55098000Y150256381D01*
X55194761Y150111239D01*
X55291523Y150014477D01*
X55388285Y149966096D01*
X54372285Y149240381D02*
X54372285Y150256381D01*
X53985238Y150256381D01*
X53888476Y150208000D01*
X53840095Y150159620D01*
X53791714Y150062858D01*
X53791714Y149917715D01*
X53840095Y149820953D01*
X53888476Y149772572D01*
X53985238Y149724191D01*
X54372285Y149724191D01*
X39237142Y151448572D02*
X39188761Y151400191D01*
X39140380Y151255048D01*
X39140380Y151158286D01*
X39188761Y151013143D01*
X39285523Y150916381D01*
X39382285Y150868000D01*
X39575809Y150819620D01*
X39720952Y150819620D01*
X39914476Y150868000D01*
X40011238Y150916381D01*
X40108000Y151013143D01*
X40156380Y151158286D01*
X40156380Y151255048D01*
X40108000Y151400191D01*
X40059619Y151448572D01*
X39430666Y151835620D02*
X39430666Y152319429D01*
X39140380Y151738858D02*
X40156380Y152077524D01*
X39140380Y152416191D01*
X39140380Y152754858D02*
X40156380Y152754858D01*
X39140380Y153335429D01*
X40156380Y153335429D01*
X39043619Y153577334D02*
X39043619Y154351429D01*
X39140380Y155077143D02*
X39140380Y154593334D01*
X40156380Y154593334D01*
X51705285Y140985381D02*
X52285857Y140985381D01*
X51995571Y140985381D02*
X51995571Y142001381D01*
X52092333Y141856239D01*
X52189095Y141759477D01*
X52285857Y141711096D01*
X51269857Y140985381D02*
X51269857Y142001381D01*
X50931190Y141275667D01*
X50592523Y142001381D01*
X50592523Y140985381D01*
X82427190Y141904620D02*
X82378809Y141953000D01*
X82282047Y142001381D01*
X82040142Y142001381D01*
X81943380Y141953000D01*
X81895000Y141904620D01*
X81846619Y141807858D01*
X81846619Y141711096D01*
X81895000Y141565953D01*
X82475571Y140985381D01*
X81846619Y140985381D01*
X81411190Y140985381D02*
X81411190Y142001381D01*
X97274095Y142001381D02*
X96645142Y142001381D01*
X96983809Y141614334D01*
X96838666Y141614334D01*
X96741904Y141565953D01*
X96693523Y141517572D01*
X96645142Y141420810D01*
X96645142Y141178905D01*
X96693523Y141082143D01*
X96741904Y141033762D01*
X96838666Y140985381D01*
X97128952Y140985381D01*
X97225714Y141033762D01*
X97274095Y141082143D01*
X96258095Y141275667D02*
X95774285Y141275667D01*
X96354857Y140985381D02*
X96016190Y142001381D01*
X95677523Y140985381D01*
X48872571Y151038858D02*
X48872571Y151377524D01*
X48340380Y151522667D02*
X48340380Y151038858D01*
X49356380Y151038858D01*
X49356380Y151522667D01*
X48437142Y152538667D02*
X48388761Y152490286D01*
X48340380Y152345143D01*
X48340380Y152248381D01*
X48388761Y152103239D01*
X48485523Y152006477D01*
X48582285Y151958096D01*
X48775809Y151909715D01*
X48920952Y151909715D01*
X49114476Y151958096D01*
X49211238Y152006477D01*
X49308000Y152103239D01*
X49356380Y152248381D01*
X49356380Y152345143D01*
X49308000Y152490286D01*
X49259619Y152538667D01*
X48872571Y153312762D02*
X48872571Y152974096D01*
X48340380Y152974096D02*
X49356380Y152974096D01*
X49356380Y153457905D01*
X120837142Y138616191D02*
X120788761Y138567810D01*
X120740380Y138422667D01*
X120740380Y138325905D01*
X120788761Y138180762D01*
X120885523Y138084000D01*
X120982285Y138035620D01*
X121175809Y137987239D01*
X121320952Y137987239D01*
X121514476Y138035620D01*
X121611238Y138084000D01*
X121708000Y138180762D01*
X121756380Y138325905D01*
X121756380Y138422667D01*
X121708000Y138567810D01*
X121659619Y138616191D01*
X120740380Y139535429D02*
X120740380Y139051620D01*
X121756380Y139051620D01*
X121756380Y139728953D02*
X121756380Y140309524D01*
X120740380Y140019239D02*
X121756380Y140019239D01*
X45430666Y150917905D02*
X45430666Y151401715D01*
X45140380Y150821143D02*
X46156380Y151159810D01*
X45140380Y151498477D01*
X46204761Y152562858D02*
X44898476Y151692000D01*
X45237142Y153482096D02*
X45188761Y153433715D01*
X45140380Y153288572D01*
X45140380Y153191810D01*
X45188761Y153046667D01*
X45285523Y152949905D01*
X45382285Y152901524D01*
X45575809Y152853143D01*
X45720952Y152853143D01*
X45914476Y152901524D01*
X46011238Y152949905D01*
X46108000Y153046667D01*
X46156380Y153191810D01*
X46156380Y153288572D01*
X46108000Y153433715D01*
X46059619Y153482096D01*
X39437142Y139354858D02*
X39388761Y139306477D01*
X39340380Y139161334D01*
X39340380Y139064572D01*
X39388761Y138919429D01*
X39485523Y138822667D01*
X39582285Y138774286D01*
X39775809Y138725905D01*
X39920952Y138725905D01*
X40114476Y138774286D01*
X40211238Y138822667D01*
X40308000Y138919429D01*
X40356380Y139064572D01*
X40356380Y139161334D01*
X40308000Y139306477D01*
X40259619Y139354858D01*
X39872571Y139790286D02*
X39872571Y140128953D01*
X39340380Y140274096D02*
X39340380Y139790286D01*
X40356380Y139790286D01*
X40356380Y140274096D01*
X135422476Y150256381D02*
X134793523Y150256381D01*
X135132190Y149869334D01*
X134987047Y149869334D01*
X134890285Y149820953D01*
X134841904Y149772572D01*
X134793523Y149675810D01*
X134793523Y149433905D01*
X134841904Y149337143D01*
X134890285Y149288762D01*
X134987047Y149240381D01*
X135277333Y149240381D01*
X135374095Y149288762D01*
X135422476Y149337143D01*
X134454857Y150256381D02*
X133777523Y150256381D01*
X134454857Y149240381D01*
X133777523Y149240381D01*
X76294904Y141904620D02*
X76246523Y141953000D01*
X76149761Y142001381D01*
X75907857Y142001381D01*
X75811095Y141953000D01*
X75762714Y141904620D01*
X75714333Y141807858D01*
X75714333Y141711096D01*
X75762714Y141565953D01*
X76343285Y140985381D01*
X75714333Y140985381D01*
X75278904Y141517572D02*
X74940238Y141517572D01*
X74795095Y140985381D02*
X75278904Y140985381D01*
X75278904Y142001381D01*
X74795095Y142001381D01*
X125165714Y150256381D02*
X124536761Y150256381D01*
X124875428Y149869334D01*
X124730285Y149869334D01*
X124633523Y149820953D01*
X124585142Y149772572D01*
X124536761Y149675810D01*
X124536761Y149433905D01*
X124585142Y149337143D01*
X124633523Y149288762D01*
X124730285Y149240381D01*
X125020571Y149240381D01*
X125117333Y149288762D01*
X125165714Y149337143D01*
X124246476Y150256381D02*
X123665904Y150256381D01*
X123956190Y149240381D02*
X123956190Y150256381D01*
X104283285Y142001381D02*
X103654333Y142001381D01*
X103993000Y141614334D01*
X103847857Y141614334D01*
X103751095Y141565953D01*
X103702714Y141517572D01*
X103654333Y141420810D01*
X103654333Y141178905D01*
X103702714Y141082143D01*
X103751095Y141033762D01*
X103847857Y140985381D01*
X104138142Y140985381D01*
X104234904Y141033762D01*
X104283285Y141082143D01*
X103218904Y141517572D02*
X102880238Y141517572D01*
X102735095Y140985381D02*
X103218904Y140985381D01*
X103218904Y142001381D01*
X102735095Y142001381D01*
X112756380Y136040572D02*
X112756380Y135556762D01*
X112272571Y135508381D01*
X112320952Y135556762D01*
X112369333Y135653524D01*
X112369333Y135895429D01*
X112320952Y135992191D01*
X112272571Y136040572D01*
X112175809Y136088953D01*
X111933904Y136088953D01*
X111837142Y136040572D01*
X111788761Y135992191D01*
X111740380Y135895429D01*
X111740380Y135653524D01*
X111788761Y135556762D01*
X111837142Y135508381D01*
X112756380Y136379239D02*
X111740380Y136717905D01*
X112756380Y137056572D01*
X111643619Y137153334D02*
X111643619Y137927429D01*
X112756380Y138024191D02*
X112756380Y138604762D01*
X111740380Y138314477D02*
X112756380Y138314477D01*
X111740380Y138943429D02*
X112756380Y138943429D01*
X112756380Y139330477D01*
X112708000Y139427239D01*
X112659619Y139475620D01*
X112562857Y139524000D01*
X112417714Y139524000D01*
X112320952Y139475620D01*
X112272571Y139427239D01*
X112224190Y139330477D01*
X112224190Y138943429D01*
X111788761Y139911048D02*
X111740380Y140056191D01*
X111740380Y140298096D01*
X111788761Y140394858D01*
X111837142Y140443239D01*
X111933904Y140491620D01*
X112030666Y140491620D01*
X112127428Y140443239D01*
X112175809Y140394858D01*
X112224190Y140298096D01*
X112272571Y140104572D01*
X112320952Y140007810D01*
X112369333Y139959429D01*
X112466095Y139911048D01*
X112562857Y139911048D01*
X112659619Y139959429D01*
X112708000Y140007810D01*
X112756380Y140104572D01*
X112756380Y140346477D01*
X112708000Y140491620D01*
X123940380Y151113143D02*
X124956380Y151113143D01*
X124956380Y151500191D01*
X124908000Y151596953D01*
X124859619Y151645334D01*
X124762857Y151693715D01*
X124617714Y151693715D01*
X124520952Y151645334D01*
X124472571Y151596953D01*
X124424190Y151500191D01*
X124424190Y151113143D01*
X124956380Y152129143D02*
X124133904Y152129143D01*
X124037142Y152177524D01*
X123988761Y152225905D01*
X123940380Y152322667D01*
X123940380Y152516191D01*
X123988761Y152612953D01*
X124037142Y152661334D01*
X124133904Y152709715D01*
X124956380Y152709715D01*
X123940380Y153193524D02*
X124956380Y153193524D01*
X124230666Y153532191D01*
X124956380Y153870858D01*
X123940380Y153870858D01*
X123940380Y154354667D02*
X124956380Y154354667D01*
X124956380Y154741715D01*
X124908000Y154838477D01*
X124859619Y154886858D01*
X124762857Y154935239D01*
X124617714Y154935239D01*
X124520952Y154886858D01*
X124472571Y154838477D01*
X124424190Y154741715D01*
X124424190Y154354667D01*
X131612476Y150256381D02*
X130983523Y150256381D01*
X131322190Y149869334D01*
X131177047Y149869334D01*
X131080285Y149820953D01*
X131031904Y149772572D01*
X130983523Y149675810D01*
X130983523Y149433905D01*
X131031904Y149337143D01*
X131080285Y149288762D01*
X131177047Y149240381D01*
X131467333Y149240381D01*
X131564095Y149288762D01*
X131612476Y149337143D01*
X130644857Y150256381D02*
X129967523Y149240381D01*
X129967523Y150256381D02*
X130644857Y149240381D01*
X42766904Y149240381D02*
X43347476Y149240381D01*
X43057190Y149240381D02*
X43057190Y150256381D01*
X43153952Y150111239D01*
X43250714Y150014477D01*
X43347476Y149966096D01*
X42331476Y149240381D02*
X42331476Y150256381D01*
X42331476Y149772572D02*
X41750904Y149772572D01*
X41750904Y149240381D02*
X41750904Y150256381D01*
X104259095Y150256381D02*
X103630142Y150256381D01*
X103968809Y149869334D01*
X103823666Y149869334D01*
X103726904Y149820953D01*
X103678523Y149772572D01*
X103630142Y149675810D01*
X103630142Y149433905D01*
X103678523Y149337143D01*
X103726904Y149288762D01*
X103823666Y149240381D01*
X104113952Y149240381D01*
X104210714Y149288762D01*
X104259095Y149337143D01*
X102856047Y149772572D02*
X103194714Y149772572D01*
X103194714Y149240381D02*
X103194714Y150256381D01*
X102710904Y150256381D01*
X63037142Y151743810D02*
X62988761Y151695429D01*
X62940380Y151550286D01*
X62940380Y151453524D01*
X62988761Y151308381D01*
X63085523Y151211620D01*
X63182285Y151163239D01*
X63375809Y151114858D01*
X63520952Y151114858D01*
X63714476Y151163239D01*
X63811238Y151211620D01*
X63908000Y151308381D01*
X63956380Y151453524D01*
X63956380Y151550286D01*
X63908000Y151695429D01*
X63859619Y151743810D01*
X62940380Y152663048D02*
X62940380Y152179239D01*
X63956380Y152179239D01*
X63956380Y153001715D02*
X63133904Y153001715D01*
X63037142Y153050096D01*
X62988761Y153098477D01*
X62940380Y153195239D01*
X62940380Y153388762D01*
X62988761Y153485524D01*
X63037142Y153533905D01*
X63133904Y153582286D01*
X63956380Y153582286D01*
X63956380Y153920953D02*
X63956380Y154501524D01*
X62940380Y154211239D02*
X63956380Y154211239D01*
X63037142Y155420762D02*
X62988761Y155372381D01*
X62940380Y155227239D01*
X62940380Y155130477D01*
X62988761Y154985334D01*
X63085523Y154888572D01*
X63182285Y154840191D01*
X63375809Y154791810D01*
X63520952Y154791810D01*
X63714476Y154840191D01*
X63811238Y154888572D01*
X63908000Y154985334D01*
X63956380Y155130477D01*
X63956380Y155227239D01*
X63908000Y155372381D01*
X63859619Y155420762D01*
X62940380Y155856191D02*
X63956380Y155856191D01*
X63472571Y155856191D02*
X63472571Y156436762D01*
X62940380Y156436762D02*
X63956380Y156436762D01*
X128374095Y150256381D02*
X127745142Y150256381D01*
X128083809Y149869334D01*
X127938666Y149869334D01*
X127841904Y149820953D01*
X127793523Y149772572D01*
X127745142Y149675810D01*
X127745142Y149433905D01*
X127793523Y149337143D01*
X127841904Y149288762D01*
X127938666Y149240381D01*
X128228952Y149240381D01*
X128325714Y149288762D01*
X128374095Y149337143D01*
X127454857Y150256381D02*
X127116190Y149240381D01*
X126777523Y150256381D01*
X73168285Y150159620D02*
X73119904Y150208000D01*
X73023142Y150256381D01*
X72781238Y150256381D01*
X72684476Y150208000D01*
X72636095Y150159620D01*
X72587714Y150062858D01*
X72587714Y149966096D01*
X72636095Y149820953D01*
X73216666Y149240381D01*
X72587714Y149240381D01*
X72152285Y149240381D02*
X72152285Y150256381D01*
X71910380Y150256381D01*
X71765238Y150208000D01*
X71668476Y150111239D01*
X71620095Y150014477D01*
X71571714Y149820953D01*
X71571714Y149675810D01*
X71620095Y149482286D01*
X71668476Y149385524D01*
X71765238Y149288762D01*
X71910380Y149240381D01*
X72152285Y149240381D01*
X36337142Y151427620D02*
X36288761Y151379239D01*
X36240380Y151234096D01*
X36240380Y151137334D01*
X36288761Y150992191D01*
X36385523Y150895429D01*
X36482285Y150847048D01*
X36675809Y150798667D01*
X36820952Y150798667D01*
X37014476Y150847048D01*
X37111238Y150895429D01*
X37208000Y150992191D01*
X37256380Y151137334D01*
X37256380Y151234096D01*
X37208000Y151379239D01*
X37159619Y151427620D01*
X36530666Y151814667D02*
X36530666Y152298477D01*
X36240380Y151717905D02*
X37256380Y152056572D01*
X36240380Y152395239D01*
X36240380Y152733905D02*
X37256380Y152733905D01*
X36240380Y153314477D01*
X37256380Y153314477D01*
X36143619Y153556381D02*
X36143619Y154330477D01*
X36240380Y154572381D02*
X37256380Y154572381D01*
X36772571Y154572381D02*
X36772571Y155152953D01*
X36240380Y155152953D02*
X37256380Y155152953D01*
X42340380Y137376000D02*
X43356380Y137376000D01*
X43308000Y138392000D02*
X43356380Y138295239D01*
X43356380Y138150096D01*
X43308000Y138004953D01*
X43211238Y137908191D01*
X43114476Y137859810D01*
X42920952Y137811429D01*
X42775809Y137811429D01*
X42582285Y137859810D01*
X42485523Y137908191D01*
X42388761Y138004953D01*
X42340380Y138150096D01*
X42340380Y138246858D01*
X42388761Y138392000D01*
X42437142Y138440381D01*
X42775809Y138440381D01*
X42775809Y138246858D01*
X42340380Y138875810D02*
X43356380Y138875810D01*
X42340380Y139456381D01*
X43356380Y139456381D01*
X42340380Y140472381D02*
X42340380Y139891810D01*
X42340380Y140182096D02*
X43356380Y140182096D01*
X43211238Y140085334D01*
X43114476Y139988572D01*
X43066095Y139891810D01*
X33217714Y149240381D02*
X33798285Y149240381D01*
X33508000Y149240381D02*
X33508000Y150256381D01*
X33604761Y150111239D01*
X33701523Y150014477D01*
X33798285Y149966096D01*
X32443619Y149772572D02*
X32298476Y149724191D01*
X32250095Y149675810D01*
X32201714Y149579048D01*
X32201714Y149433905D01*
X32250095Y149337143D01*
X32298476Y149288762D01*
X32395238Y149240381D01*
X32782285Y149240381D01*
X32782285Y150256381D01*
X32443619Y150256381D01*
X32346857Y150208000D01*
X32298476Y150159620D01*
X32250095Y150062858D01*
X32250095Y149966096D01*
X32298476Y149869334D01*
X32346857Y149820953D01*
X32443619Y149772572D01*
X32782285Y149772572D01*
X32540380Y151495429D02*
X32540380Y150914858D01*
X32540380Y151205143D02*
X33556380Y151205143D01*
X33411238Y151108381D01*
X33314476Y151011620D01*
X33266095Y150914858D01*
X33459619Y151882477D02*
X33508000Y151930858D01*
X33556380Y152027620D01*
X33556380Y152269524D01*
X33508000Y152366286D01*
X33459619Y152414667D01*
X33362857Y152463048D01*
X33266095Y152463048D01*
X33120952Y152414667D01*
X32540380Y151834096D01*
X32540380Y152463048D01*
X32443619Y152656572D02*
X32443619Y153430667D01*
X32540380Y154253143D02*
X33024190Y153914477D01*
X32540380Y153672572D02*
X33556380Y153672572D01*
X33556380Y154059620D01*
X33508000Y154156381D01*
X33459619Y154204762D01*
X33362857Y154253143D01*
X33217714Y154253143D01*
X33120952Y154204762D01*
X33072571Y154156381D01*
X33024190Y154059620D01*
X33024190Y153672572D01*
X32830666Y154640191D02*
X32830666Y155124000D01*
X32540380Y154543429D02*
X33556380Y154882096D01*
X32540380Y155220762D01*
X33556380Y155462667D02*
X32540380Y155704572D01*
X33266095Y155898096D01*
X32540380Y156091620D01*
X33556380Y156333524D01*
X42742714Y140985381D02*
X43323285Y140985381D01*
X43033000Y140985381D02*
X43033000Y142001381D01*
X43129761Y141856239D01*
X43226523Y141759477D01*
X43323285Y141711096D01*
X41775095Y141953000D02*
X41871857Y142001381D01*
X42017000Y142001381D01*
X42162142Y141953000D01*
X42258904Y141856239D01*
X42307285Y141759477D01*
X42355666Y141565953D01*
X42355666Y141420810D01*
X42307285Y141227286D01*
X42258904Y141130524D01*
X42162142Y141033762D01*
X42017000Y140985381D01*
X41920238Y140985381D01*
X41775095Y141033762D01*
X41726714Y141082143D01*
X41726714Y141420810D01*
X41920238Y141420810D01*
X76228952Y139140381D02*
X76567619Y139624191D01*
X76809523Y139140381D02*
X76809523Y140156381D01*
X76422476Y140156381D01*
X76325714Y140108000D01*
X76277333Y140059620D01*
X76228952Y139962858D01*
X76228952Y139817715D01*
X76277333Y139720953D01*
X76325714Y139672572D01*
X76422476Y139624191D01*
X76809523Y139624191D01*
X75793523Y139672572D02*
X75454857Y139672572D01*
X75309714Y139140381D02*
X75793523Y139140381D01*
X75793523Y140156381D01*
X75309714Y140156381D01*
X74922666Y139188762D02*
X74777523Y139140381D01*
X74535619Y139140381D01*
X74438857Y139188762D01*
X74390476Y139237143D01*
X74342095Y139333905D01*
X74342095Y139430667D01*
X74390476Y139527429D01*
X74438857Y139575810D01*
X74535619Y139624191D01*
X74729142Y139672572D01*
X74825904Y139720953D01*
X74874285Y139769334D01*
X74922666Y139866096D01*
X74922666Y139962858D01*
X74874285Y140059620D01*
X74825904Y140108000D01*
X74729142Y140156381D01*
X74487238Y140156381D01*
X74342095Y140108000D01*
D14*
G04 #@! TO.C,M4*
X75891859Y10114690D02*
X90343217Y10114690D01*
X90343217Y10114693D02*
X90343217Y12625081D01*
X91091861Y12625081D02*
X91091861Y25189689D01*
X72241861Y22889694D02*
X72241861Y25389691D01*
X72241861Y22889694D02*
X75441857Y22889694D01*
X75891859Y10114690D02*
X75891859Y22439692D01*
X72241861Y25389691D02*
X90891859Y25389691D01*
X90343217Y12625081D02*
X91091861Y12625081D01*
X75441857Y22889694D02*
X75891859Y22439692D01*
G04 #@! TO.C,M9*
X107409785Y95613404D02*
X89134785Y95613404D01*
X100659786Y92038405D02*
X99934786Y91313405D01*
X89134785Y95613404D02*
X89134785Y92038405D01*
X107409785Y95613404D02*
X107409785Y92038405D01*
X107409785Y92038405D02*
X100659786Y92038405D01*
X94334782Y91313405D02*
X93609782Y92038405D01*
X93609782Y92038405D02*
X89134785Y92038405D01*
X99934786Y91313405D02*
X94334782Y91313405D01*
D15*
G04 #@! TO.C,G4*
X19304000Y67056000D02*
X26416000Y67056000D01*
X26416000Y67056000D02*
X26416000Y54864000D01*
X26416000Y54864000D02*
X19304000Y54864000D01*
X19304000Y54864000D02*
X19304000Y67056000D01*
D14*
G04 #@! TO.C,M5*
X57613316Y61837664D02*
X57613316Y37087665D01*
X30021286Y78345635D02*
X29638315Y77962664D01*
X29638315Y77962664D02*
X29638315Y35987665D01*
X30113315Y35512665D02*
X29638315Y35987665D01*
X57613316Y37087665D02*
X56038315Y35512665D01*
X57748861Y78102120D02*
X57748861Y61973209D01*
X56038315Y35512665D02*
X30113315Y35512665D01*
X57748861Y61973209D02*
X57613316Y61837664D01*
X57505346Y78345635D02*
X30021286Y78345635D01*
X57748861Y78102120D02*
X57505346Y78345635D01*
G04 #@! TO.C,M8*
X59432368Y110269562D02*
X59157362Y109994558D01*
X58282363Y109938356D02*
X58282363Y99094562D01*
X59432368Y110269562D02*
X65130190Y110269562D01*
X65130190Y110269562D02*
X65169037Y99094562D01*
X58332363Y109994558D02*
X58282363Y109938356D01*
X58332363Y109994558D02*
X59157362Y109994558D01*
X58276160Y99094562D02*
X65169037Y99094562D01*
D15*
G04 #@! TO.C,G6*
X4064000Y67056000D02*
X11176000Y67056000D01*
X11176000Y67056000D02*
X11176000Y54864000D01*
X11176000Y54864000D02*
X4064000Y54864000D01*
X4064000Y54864000D02*
X4064000Y67056000D01*
D14*
G04 #@! TO.C,M13*
X110716857Y25473217D02*
X110716857Y24648218D01*
X110991861Y24373212D02*
X110991861Y18675390D01*
X110716857Y25473217D02*
X110660655Y25523217D01*
X110991861Y18675390D02*
X99816861Y18636543D01*
X110660655Y25523217D02*
X99816861Y25523217D01*
X99816861Y25529420D02*
X99816861Y18636543D01*
X110991861Y24373212D02*
X110716857Y24648218D01*
G04 #@! TO.C,M7*
X46927363Y34095801D02*
X46953769Y34122207D01*
X46927365Y17538793D02*
X46927363Y34095801D01*
X57328414Y17614843D02*
X57328414Y33962743D01*
X57328414Y33962743D02*
X57194353Y34096804D01*
X57194353Y34096804D02*
X46953769Y34122207D01*
X55802364Y16088793D02*
X48377365Y16088793D01*
X55802364Y16088793D02*
X57328414Y17614843D01*
X48377365Y16088793D02*
X46927365Y17538793D01*
G04 #@! TO.C,M1*
X85635960Y66804681D02*
X85135960Y67304681D01*
X115935958Y79729684D02*
X114385958Y81279684D01*
X115535953Y66804678D02*
X85635960Y66804681D01*
X86060958Y81279684D02*
X85135960Y80354687D01*
X115935958Y67204683D02*
X115535953Y66804678D01*
X114385958Y81279684D02*
X86055960Y81279684D01*
X85135960Y80354687D02*
X85135960Y67304681D01*
X115935958Y79729684D02*
X115935958Y67204683D01*
G04 #@! TO.C,M3*
X71491861Y27708503D02*
X69966859Y27708503D01*
X70085086Y64157510D02*
X69742651Y63815075D01*
X116066864Y27496141D02*
X115579227Y27008503D01*
X116066864Y27496141D02*
X116066861Y63588426D01*
X72191859Y27008503D02*
X71491861Y27708503D01*
X69742659Y27932703D02*
X69742651Y63815075D01*
X116066861Y63588426D02*
X115497772Y64157515D01*
X115497772Y64157515D02*
X70085086Y64157510D01*
X69966859Y27708503D02*
X69742659Y27932703D01*
X115579227Y27008503D02*
X72191859Y27008503D01*
G04 #@! TO.C,M10*
X29026710Y127053864D02*
X24626708Y127053864D01*
X30101709Y128128863D02*
X30101709Y137203864D01*
X14576708Y121028865D02*
X14576708Y137203864D01*
X23876745Y126303901D02*
X24626708Y127053864D01*
X29026710Y127053864D02*
X30101709Y128128863D01*
X30101709Y137203864D02*
X14576708Y137203864D01*
X23751711Y121028865D02*
X23876745Y121153899D01*
X23751711Y121028865D02*
X14576708Y121028865D01*
X23876745Y121153899D02*
X23876745Y126303901D01*
D15*
G04 #@! TO.C,G7*
X19304000Y44196000D02*
X26416000Y44196000D01*
X26416000Y44196000D02*
X26416000Y32004000D01*
X26416000Y32004000D02*
X19304000Y32004000D01*
X19304000Y32004000D02*
X19304000Y44196000D01*
D14*
G04 #@! TO.C,M12*
X66625700Y138307060D02*
X81525700Y138307060D01*
X81525700Y138307060D02*
X81525700Y99157060D01*
X81525700Y99157060D02*
X66625700Y99157060D01*
X66625700Y99157060D02*
X66625700Y138307060D01*
D15*
G04 #@! TO.C,G5*
X4064000Y44196000D02*
X11176000Y44196000D01*
X11176000Y44196000D02*
X11176000Y32004000D01*
X11176000Y32004000D02*
X4064000Y32004000D01*
X4064000Y32004000D02*
X4064000Y44196000D01*
D14*
G04 #@! TO.C,M6*
X78800012Y67250000D02*
X78800012Y79000000D01*
X83800012Y67250000D02*
X78900012Y67250000D01*
X83800012Y67250000D02*
X83800012Y79000000D01*
X83800012Y79000000D02*
X78900012Y79000000D01*
G04 #@! TO.C,M2*
X125974470Y39166355D02*
X125724470Y39416354D01*
X125612822Y25743026D02*
X119874472Y25743026D01*
X119124471Y27091736D02*
X118124470Y27091736D01*
X119874472Y26341735D02*
X119874472Y25743026D01*
X118124470Y39166736D02*
X118124470Y27091736D01*
X125974470Y39166355D02*
X125974470Y26104674D01*
X125724470Y39416354D02*
X118374089Y39416354D01*
X119874472Y26341735D02*
X119124471Y27091736D01*
X118374089Y39416354D02*
X118124470Y39166736D01*
X125974470Y26104674D02*
X125612822Y25743026D01*
G04 #@! TO.C,M11*
X21823460Y77687499D02*
X21823460Y115337497D01*
X16098455Y108462502D02*
X16098455Y111087503D01*
X21823460Y77687499D02*
X14573640Y77687499D01*
X21223459Y116462491D02*
X20573453Y117112497D01*
X14573640Y77687499D02*
X14648118Y117112497D01*
X21223459Y115937499D02*
X21223459Y116462491D01*
X21823460Y115337497D02*
X21223459Y115937499D01*
X20573453Y117112497D02*
X14648118Y117112497D01*
D15*
G04 #@! TO.C,J24*
X9100000Y126800000D02*
G75*
G03*
X9100000Y126800000I-1200000J0D01*
G01*
G04 #@! TD*
M02*
