M48
; DRILL file {KiCad (5.99.0-10483-ga6ad7a4a70)} date Wed Jun 23 22:09:21 2021
; FORMAT={2:4/ absolute / inch / suppress leading zeros}
; #@! TF.CreationDate,2021-06-23T22:09:21+03:00
; #@! TF.GenerationSoftware,Kicad,Pcbnew,(5.99.0-10483-ga6ad7a4a70)
; #@! TF.FileFunction,MixedPlating,1,2
FMAT,2
INCH,TZ
; #@! TA.AperFunction,Plated,PTH,ComponentDrill
T1C0.0118
; #@! TA.AperFunction,Plated,PTH,ViaDrill
T2C0.0118
; #@! TA.AperFunction,Plated,PTH,ComponentDrill
T3C0.0118
; #@! TA.AperFunction,Plated,PTH,ViaDrill
T4C0.0120
; #@! TA.AperFunction,Plated,PTH,ViaDrill
T5C0.0130
; #@! TA.AperFunction,Plated,PTH,ViaDrill
T6C0.0197
; #@! TA.AperFunction,Plated,PTH,ComponentDrill
T7C0.0276
; #@! TA.AperFunction,Plated,PTH,ComponentDrill
T8C0.0320
; #@! TA.AperFunction,Plated,PTH,ComponentDrill
T9C0.0335
; #@! TA.AperFunction,Plated,PTH,ComponentDrill
T10C0.0362
; #@! TA.AperFunction,Plated,PTH,ComponentDrill
T11C0.0394
; #@! TA.AperFunction,Plated,PTH,ComponentDrill
T12C0.0433
; #@! TA.AperFunction,Plated,PTH,ComponentDrill
T13C0.0787
; #@! TA.AperFunction,Plated,PTH,ComponentDrill
T14C0.0917
; #@! TA.AperFunction,Plated,PTH,ComponentDrill
T15C0.1200
; #@! TA.AperFunction,Plated,PTH,ComponentDrill
T16C0.1378
; #@! TA.AperFunction,Plated,PTH,ComponentDrill
T17C0.1890
%
G90
G05
T1
X5906Y53338
X5915Y45507
X5915Y41216
X5915Y35625
X5915Y30797
X6428Y50100
X7411Y31344
X8488Y50107
X8682Y50848
X9125Y47954
X23448Y40421
X23654Y40766
X23950Y40303
X25347Y40333
X29751Y9287
X30371Y7356
X32034Y7092
X32497Y7092
X33353Y7092
X34229Y7092
X35372Y7360
X40587Y9045
X40617Y7647
X40705Y9547
X41050Y9340
X46614Y13432
X46614Y12664
X46614Y11640
X47130Y13176
X47307Y12536
X47336Y11473
X47336Y12201
X47342Y10725
X47421Y11857
X48947Y10607
T2
X984Y53150
X984Y50197
X984Y45276
X984Y40354
X984Y34449
X984Y27559
X984Y21654
X984Y16732
X984Y9843
X2835Y45748
X2953Y35630
X3110Y40984
X3150Y51969
X3937Y58071
X3937Y5906
X4488Y53976
X4528Y19685
X4567Y51654
X4567Y47638
X4567Y42756
X4567Y37244
X4606Y32992
X4606Y27441
X4646Y10709
X5354Y47244
X5354Y34094
X5433Y52795
X5433Y50827
X5433Y29685
X5472Y44803
X5472Y40315
X5827Y46457
X5827Y18150
X5827Y9646
X5906Y55630
X5945Y13583
X5984Y22953
X6732Y5157
X6890Y21260
X6890Y15709
X6890Y984
X6929Y11417
X7008Y30157
X7047Y47126
X7047Y28386
X7323Y7874
X8031Y30197
X8701Y46772
X8858Y41339
X8858Y36811
X8937Y34646
X9134Y33346
X9291Y55000
X9409Y41732
X9449Y44567
X9449Y38661
X9488Y35630
X9528Y46024
X9685Y48819
X9685Y47795
X9724Y29055
X9843Y62992
X10039Y43465
X10079Y5197
X10315Y56575
X10394Y36969
X10945Y44370
X11024Y40433
X11063Y42992
X11181Y17795
X11220Y27402
X11260Y22795
X11299Y15591
X11378Y30866
X11417Y13858
X11732Y35669
X11772Y47795
X11850Y50118
X11850Y48858
X11929Y54213
X11968Y52520
X11968Y51181
X12087Y2047
X12146Y37303
X12165Y34764
X12756Y47205
X12756Y40197
X12795Y39409
X13031Y45039
X13150Y13622
X13268Y46811
X13268Y42677
X13346Y3071
X13386Y40591
X13425Y57283
X13425Y48780
X13661Y59094
X13937Y8976
X14173Y35709
X14173Y33465
X14173Y31929
X14232Y44806
X14331Y41220
X14528Y45906
X14646Y49173
X14764Y984
X15118Y60354
X15118Y13622
X15276Y35669
X15276Y33622
X15354Y47638
X15354Y34764
X15433Y46063
X15472Y41929
X15512Y40669
X15551Y43425
X15669Y1929
X16142Y50472
X16417Y49331
X16575Y41457
X16732Y62992
X16732Y31929
X16850Y35748
X17087Y43740
X17244Y3031
X17362Y59016
X17913Y13740
X17992Y11929
X17992Y8189
X17992Y4173
X18031Y39370
X18071Y36260
X18071Y34803
X18110Y48346
X18351Y51339
X18819Y49055
X18858Y58976
X18870Y36811
X19370Y39567
X19488Y37756
X19514Y51772
X19528Y36220
X19724Y5827
X19764Y60551
X19843Y13740
X20157Y37953
X20315Y46339
X20354Y41181
X20433Y1929
X20551Y43661
X20669Y62992
X20669Y59094
X20802Y31984
X20984Y52087
X20984Y44765
X20994Y40118
X21181Y33307
X21181Y31811
X21260Y35591
X21299Y36378
X21496Y34567
X21811Y45354
X21969Y3031
X22126Y50039
X22441Y5906
X22480Y14016
X22598Y38031
X22598Y36496
X22630Y40118
X22638Y44488
X22638Y984
X22874Y16535
X22874Y16102
X22874Y11417
X22874Y8228
X22913Y22913
X22953Y47323
X22992Y35079
X23071Y44094
X23071Y24567
X23150Y32992
X23189Y25827
X23268Y36890
X23504Y52008
X23504Y14055
X23543Y26575
X23543Y22953
X23701Y16457
X23740Y51535
X23819Y34449
X23858Y60551
X23898Y36260
X24291Y25906
X24370Y34016
X24409Y45118
X24528Y35039
X24743Y44764
X24764Y24921
X24764Y11732
X24764Y10748
X24843Y8307
X24882Y7283
X24961Y54921
X24961Y9016
X25020Y44547
X25157Y13543
X25236Y37008
X25354Y12441
X25394Y34488
X25433Y8346
X25512Y11772
X25551Y36196
X25674Y12913
X25700Y13701
X25748Y49488
X25827Y47441
X25866Y39409
X25906Y41496
X25945Y44528
X25945Y10512
X25984Y3307
X26102Y50906
X26142Y55315
X26142Y25079
X26142Y22756
X26181Y30866
X26220Y57283
X26220Y36732
X26220Y22087
X26260Y18031
X26339Y25787
X26575Y11850
X26772Y36220
X26772Y8307
X26969Y1339
X27126Y12047
X27126Y6654
X27205Y55276
X27205Y24961
X27205Y22598
X27441Y36575
X27482Y59479
X27835Y55748
X27913Y38386
X27953Y36142
X28071Y34646
X28110Y26732
X28622Y38425
X29213Y34606
X29291Y38228
X29291Y25748
X29291Y6929
X29409Y5591
X29488Y2756
X30039Y38622
X30197Y33976
X30236Y26260
X30354Y38268
X30354Y29173
X30354Y27362
X30433Y60551
X30512Y62992
X30551Y30236
X30984Y35236
X31220Y38228
X31220Y26142
X31339Y35433
X31378Y34213
X31742Y35494
X31850Y354
X31969Y54882
X31969Y35276
X32244Y57283
X32323Y47165
X32323Y42874
X32323Y39370
X32402Y52559
X32795Y54134
X32807Y59479
X32953Y50236
X33031Y36110
X33031Y32244
X33110Y40394
X33268Y26772
X33386Y48504
X33386Y45630
X33465Y54449
X33701Y44094
X33819Y52244
X33889Y54322
X33953Y43911
X33953Y43911
X34173Y36614
X34176Y43689
X34176Y43689
X34567Y60591
X34803Y37444
X34803Y37011
X34843Y54094
X35157Y50354
X35354Y57323
X35394Y48346
X35433Y53543
X35472Y54567
X35472Y51929
X35787Y3819
X35945Y1299
X36102Y44764
X36142Y7047
X36220Y41654
X36457Y55472
X36614Y57835
X36850Y53622
X36876Y41828
X37087Y50276
X37126Y1575
X37165Y47441
X37205Y34646
X37205Y10276
X37205Y8976
X37323Y56772
X37362Y39894
X37421Y34876
X37559Y3819
X37598Y34252
X37756Y41654
X38031Y34685
X38228Y2756
X38386Y45394
X38465Y7756
X38543Y10276
X38543Y8661
X38740Y54764
X38780Y52126
X38780Y32244
X38976Y3937
X39055Y7598
X39094Y50000
X39094Y34488
X39094Y33616
X39193Y46339
X39370Y62992
X39370Y984
X39567Y41772
X39724Y35787
X40039Y47480
X40039Y35118
X40276Y51260
X40354Y60630
X40433Y3228
X40669Y35472
X41142Y43583
X41181Y48701
X41218Y32841
X41220Y52087
X41220Y41811
X41260Y41024
X41299Y50472
X41299Y46890
X41929Y35866
X42520Y58976
X42638Y35827
X42677Y45512
X42717Y41102
X42835Y32697
X42835Y10236
X42913Y36575
X43268Y45984
X43288Y40236
X43425Y33858
X43504Y60315
X43957Y45689
X44016Y61378
X44016Y36299
X44055Y37520
X44094Y34094
X44094Y3465
X44252Y10433
X44291Y62992
X44291Y7598
X44291Y984
X44370Y8780
X44409Y2362
X45157Y37520
X45236Y35748
X45354Y33543
X45472Y40984
X45512Y9882
X45748Y44488
X45945Y31496
X45984Y29331
X46024Y26457
X46142Y59606
X46142Y16102
X46220Y13858
X46299Y25000
X46299Y22126
X46299Y19961
X46339Y40984
X46339Y37362
X46339Y33504
X46575Y57205
X47008Y3937
X47047Y44291
X47047Y37362
X47047Y35630
X47047Y23661
X47087Y40984
X47087Y33268
X47165Y47874
X47362Y19724
X47441Y60866
X47756Y9685
X47795Y57205
X47835Y43858
X47835Y41024
X47835Y37638
X47835Y35157
X47874Y27717
X47913Y47717
X47913Y30354
X47953Y33150
X48150Y24843
X48228Y46890
X48819Y37835
X48858Y31929
X48976Y26457
X49016Y36378
X49094Y34291
X49567Y5906
X49764Y37205
X49843Y22283
X50000Y4685
X50039Y26063
X50039Y23465
X50039Y12008
X50197Y984
X50276Y46063
X50276Y34528
X50512Y48661
X50551Y32283
X50591Y7559
X50748Y25354
X50787Y38346
X50787Y28465
X50787Y22441
X50787Y9961
X50827Y21339
X50886Y5807
X50945Y51102
X50984Y8701
X51024Y13268
X51142Y35866
X51142Y32913
X51181Y34331
X51220Y16024
X51299Y19921
X51339Y45984
X51357Y40236
X51575Y10197
X51654Y38189
X51929Y5709
X52165Y62008
X52283Y51024
X52398Y4941
X52638Y45354
X52664Y6326
X52835Y47283
X52914Y38071
X53150Y7559
X53229Y38071
X53465Y18504
X53583Y12874
X53622Y5925
X53819Y8504
X53858Y45906
X53898Y36417
X54035Y6378
X54055Y7441
X54213Y37638
X54213Y9213
X54331Y48740
X54409Y15591
X54567Y54252
X54567Y46850
X54724Y20394
X54724Y10827
X54921Y25118
X54921Y6535
X55197Y40827
X55236Y28386
X55276Y56299
X55551Y42953
X55551Y16850
X55630Y20276
X56102Y4921
X56142Y35906
X56850Y10394
X57008Y57441
X57165Y39606
X57638Y25709
X58268Y42677
X58346Y52362
X58661Y49213
X58661Y39646
X58780Y45709
X60039Y59055
X60039Y52165
X60039Y45276
X60039Y38386
X60039Y33465
X60039Y26575
X60039Y19685
X60039Y12795
T3
X27687Y39215
X28081Y39215
X29479Y39215
X29872Y39215
X30305Y54274
X30699Y54274
X31093Y54274
X31191Y26535
X31472Y30413
X31486Y54274
X31713Y29843
X31742Y26535
X31952Y26978
X32047Y29843
X32165Y26535
X32382Y29843
X32717Y26535
X32717Y29843
T4
X7677Y54252
X9125Y35354
X10910Y49213
X14544Y31353
X14646Y37402
X14791Y43782
X15211Y43782
X15276Y37402
X16063Y47165
X17993Y33860
X18307Y37756
X18307Y32026
X18863Y33937
X19803Y49252
X20066Y35866
X20294Y37087
X20430Y39213
X20524Y34252
X21155Y37500
X21890Y42995
X22113Y38900
X22126Y42759
X22244Y32362
X22283Y35630
X22533Y38900
X22559Y31102
X22953Y30394
X23071Y27530
X23193Y23937
X23193Y10906
X23501Y6732
X23543Y32717
X23819Y6732
X23902Y32362
X24094Y27283
X24134Y29764
X24138Y6732
X24151Y33268
X24409Y13346
X24449Y13819
X24457Y6732
X24534Y38573
X24749Y32618
X24803Y36102
X25039Y28622
X25083Y10512
X25157Y31417
X25205Y27381
X25752Y32047
X25945Y38861
X25968Y54016
X26087Y32618
X26102Y36142
X26409Y14848
X26579Y13472
X26579Y13153
X26579Y12835
X26590Y12509
X26717Y14766
X26733Y9215
X27014Y14469
X27128Y31695
X27209Y13977
X27520Y9215
X27543Y32618
X27559Y36181
X27914Y10711
X27957Y8740
X28485Y38979
X28504Y36102
X28583Y26656
X28789Y26372
X28858Y36378
X28863Y32618
X29055Y38979
X29086Y26075
X29160Y34097
X29580Y34097
X29611Y10394
X29724Y26299
X29882Y35497
X30040Y3704
X30827Y3704
X31264Y10276
X31737Y10276
X32087Y36102
X32918Y10433
X33213Y29436
X33228Y28780
X33229Y30251
X33587Y32999
X33626Y10433
X33694Y25862
X34487Y36569
X35083Y10394
X35244Y32717
X36973Y33346
X37170Y33071
X37485Y32953
X38307Y33898
X39178Y35665
X39429Y32286
X39724Y32244
X40709Y10435
X41610Y42443
X41863Y43223
X43189Y10239
X43544Y10239
X43622Y59685
X43622Y58898
X44374Y33701
X44528Y26066
X44528Y25475
X44650Y33346
X44953Y25973
X45713Y32323
X46067Y54606
X46618Y33189
X47406Y3386
X47445Y32586
X48307Y46220
X48307Y25987
X48701Y39370
X49016Y19885
X49252Y32835
X49292Y19412
X49449Y38560
X49724Y38776
X49803Y38425
X51378Y21725
X51614Y22008
X51654Y53110
X51654Y49094
X51654Y39055
X51969Y39055
T5
X31445Y25475
X33898Y32247
X35866Y32247
X36496Y7916
X36496Y3822
X36536Y2759
X36536Y1597
X45433Y31969
T6
X12284Y48310
X14724Y32283
T7
X55906Y48022
X56220Y47333
X56535Y48022
X56850Y47333
X57165Y48022
T8
X4862Y55039
X6791Y55039
X8366Y55039
X10295Y55039
X12918Y51262
X12918Y49762
X13902Y53821
X13902Y52321
X15083Y53821
X15083Y52321
X15674Y51262
X15674Y49762
X16264Y53821
X16264Y52321
X16855Y51262
X16855Y49762
X17445Y53821
X17445Y52321
X18626Y53821
X18626Y52321
X19217Y51262
X19217Y49762
X19807Y53821
X19807Y52321
X20355Y51262
X20355Y49762
X21264Y49778
X21264Y48278
X22170Y53821
X22170Y52321
X22957Y51262
X22957Y49762
X24532Y53821
X24532Y52321
X40122Y53838
X40122Y52338
X42288Y49665
X42288Y48165
X43075Y51260
X43075Y49760
X43075Y48976
X43075Y47476
X43666Y53819
X43666Y52319
X44764Y53821
X44764Y52321
X45886Y53821
X45886Y52321
X46614Y49370
X46614Y48587
X46614Y47087
X47481Y51004
X48114Y49370
X48390Y53819
X48390Y52319
X48981Y51004
X49571Y53819
X49571Y52319
X50162Y51260
X50162Y49760
X50394Y20868
X50394Y19868
X50394Y18868
X50394Y17868
X50394Y16868
X50394Y15868
X52327Y53821
X52327Y52321
X52918Y51260
X52918Y49760
T9
X50807Y44449
X50807Y43465
X50807Y42480
X50807Y41496
X50807Y40512
T10
X53316Y41988
X53316Y41004
X54103Y41988
X54103Y41004
T11
X2000Y26000
X2000Y25000
X2000Y24000
X2000Y23000
X2000Y22000
X2000Y17000
X2000Y16000
X2000Y15000
X2000Y14000
X2000Y13000
X3000Y26000
X3000Y25000
X3000Y24000
X3000Y23000
X3000Y22000
X3000Y17000
X3000Y16000
X3000Y15000
X3000Y14000
X3000Y13000
X4000Y26000
X4000Y25000
X4000Y24000
X4000Y23000
X4000Y22000
X4000Y17000
X4000Y16000
X4000Y15000
X4000Y14000
X4000Y13000
X8000Y26000
X8000Y25000
X8000Y24000
X8000Y23000
X8000Y22000
X8000Y17000
X8000Y16000
X8000Y15000
X8000Y14000
X8000Y13000
X9000Y26000
X9000Y25000
X9000Y24000
X9000Y23000
X9000Y22000
X9000Y17000
X9000Y16000
X9000Y15000
X9000Y14000
X9000Y13000
X10000Y26000
X10000Y25000
X10000Y24000
X10000Y23000
X10000Y22000
X10000Y17000
X10000Y16000
X10000Y15000
X10000Y14000
X10000Y13000
X11732Y33386
X11732Y32244
X12874Y33378
X12874Y32244
X14460Y50906
X17795Y33386
X18036Y50512
X18898Y33386
X18898Y32283
X20989Y53071
X21284Y51103
X23351Y53071
X24138Y50512
X24567Y19373
X24567Y16419
X25516Y50512
X25674Y19372
X25674Y16419
X26181Y29921
X26181Y28819
X26181Y27717
X27283Y29921
X27283Y28819
X27283Y26614
X30189Y2837
X31181Y33465
X31181Y32363
X31189Y2837
X32189Y2837
X32288Y33467
X32288Y32363
X33189Y2837
X34055Y35000
X34189Y2837
X35189Y2837
X35236Y35000
X35236Y33858
X35925Y40472
X36378Y35000
X36925Y40472
X37395Y5820
X37395Y4820
X37925Y40472
X38395Y5820
X38395Y4820
X38925Y40472
X39395Y5820
X39395Y4820
X39925Y40472
X39961Y34016
X40395Y5820
X40395Y4820
X40925Y40472
X41146Y53069
X41339Y35118
X41339Y34016
X41395Y5820
X41395Y4820
X42395Y5820
X42395Y4820
X42406Y53069
X42520Y35118
X42520Y34016
X43110Y37244
X43395Y5820
X43395Y4820
X43701Y35118
X44395Y5820
X44395Y4820
X45395Y5820
X45395Y4820
X46395Y5820
X46395Y4820
X46457Y18504
X46457Y17388
X47209Y53069
X47395Y5820
X47395Y4820
X47638Y18504
X47638Y17388
X48395Y5820
X48395Y4820
X48819Y18504
X48819Y17388
X50949Y53069
T12
X13083Y58218
X13083Y56446
X14460Y58218
X14460Y56446
X15681Y58218
X15681Y56446
X16862Y58218
X16862Y56446
X18043Y58218
X18043Y56446
X19224Y58218
X19224Y56446
X20405Y58218
X20405Y56446
X21586Y58218
X21586Y56446
X22767Y58218
X22767Y56446
X23948Y58218
X23948Y56446
X25169Y58218
X25169Y56446
X27511Y58218
X27511Y56446
X28692Y58218
X28692Y56446
X29873Y58218
X29873Y56446
X31054Y58218
X31054Y56446
X32236Y58218
X32236Y56446
X33417Y58218
X33417Y56446
X34598Y58218
X34598Y56446
X35779Y58218
X35779Y56446
X38120Y58218
X38120Y56446
X39498Y58218
X39498Y56446
X40720Y58218
X40720Y56446
X41901Y58218
X41901Y56446
X43082Y58218
X43082Y56446
X44263Y58218
X44263Y56446
X45444Y58218
X45444Y56446
X46625Y58218
X46625Y56446
X47806Y58218
X47806Y56446
X48987Y58218
X48987Y56446
X50208Y58218
X50208Y56446
X51586Y58218
X51586Y56446
X52964Y58218
X52964Y56446
T13
X52677Y35906
X54134Y35039
X54882Y35906
X56339Y35039
X57323Y35906
T14
X55170Y43866
X55170Y39126
T15
X55394Y22868
X55394Y13868
T16
X11094Y60462
X26389Y60462
X36901Y60462
X54952Y60462
T17
X1575Y55906
X1575Y30512
X1575Y7283
X6693Y60709
X53780Y1932
X59055Y30512
X59055Y7283
X59099Y55906
T7
X55098Y47421G85X55098Y47933
G05
X57972Y47421G85X57972Y47933
G05
T0
M30
