M48
INCH,TZ
T01C0.012400
T02C0.019700
T03C0.027600
T04C0.033700
T05C0.037800
T06C0.043300
T07C0.078700
T08C0.091700
T09C0.120000
T10C0.137800
T11C0.189000
%
T01
X31445Y25475
X33898Y32247
X35866Y32247
X36496Y7916
X36496Y3822
X36536Y2759
X36536Y1597
X45433Y31969
X7677Y54252
X9125Y35354
X10910Y49213
X14544Y31353
X14646Y37402
X14791Y43782
X15211Y43782
X15276Y37402
X16063Y47165
X17993Y33860
X18307Y37756
X18307Y32026
X18863Y33937
X19803Y49252
X20066Y35866
X20294Y37087
X20430Y39213
X20524Y34252
X21155Y37500
X21890Y42995
X22113Y38900
X22126Y42759
X22244Y32362
X22283Y35630
X22533Y38900
X22559Y31102
X22953Y30394
X23071Y27530
X23193Y23937
X23193Y10906
X23501Y6732
X23543Y32717
X23819Y6732
X23902Y32362
X24094Y27283
X24134Y29764
X24138Y6732
X24151Y33268
X24409Y13346
X24449Y13819
X24457Y6732
X24534Y38573
X24749Y32618
X24803Y36102
X25039Y28622
X25083Y10512
X25157Y31417
X25205Y27381
X25752Y32047
X25945Y38861
X25968Y54016
X26087Y32618
X26102Y36142
X26409Y14848
X26579Y13472
X26579Y13153
X26579Y12835
X26590Y12509
X26717Y14766
X26733Y9215
X27014Y14469
X27128Y31695
X27209Y13977
X27520Y9215
X27543Y32618
X27559Y36181
X27914Y10711
X27957Y8740
X28485Y38979
X28504Y36102
X28583Y26656
X28789Y26372
X28858Y36378
X28863Y32618
X29055Y38979
X29086Y26075
X29160Y34097
X29580Y34097
X29611Y10394
X29724Y26299
X29882Y35497
X30040Y3704
X30827Y3704
X31264Y10276
X31737Y10276
X32087Y36102
X32918Y10433
X33213Y29436
X33228Y28780
X33229Y30251
X33587Y32999
X33626Y10433
X33694Y25862
X34487Y36569
X35083Y10394
X35244Y32717
X36973Y33346
X37170Y33071
X37485Y32953
X38307Y33898
X39178Y35665
X39429Y32286
X39724Y32244
X40709Y10435
X41610Y42443
X41863Y43223
X43189Y10239
X43544Y10239
X43622Y59685
X43622Y58898
X44374Y33701
X44528Y26066
X44528Y25475
X44650Y33346
X44953Y25973
X45713Y32323
X46067Y54606
X46618Y33189
X47406Y3386
X47445Y32586
X48307Y46220
X48307Y25987
X48701Y39370
X49016Y19885
X49252Y32835
X49292Y19412
X49449Y38560
X49724Y38776
X49803Y38425
X51378Y21725
X51614Y22008
X51654Y53110
X51654Y49094
X51654Y39055
X51969Y39055
X27687Y39215
X28081Y39215
X29479Y39215
X29872Y39215
X30305Y54274
X30699Y54274
X31093Y54274
X31191Y26535
X31472Y30413
X31486Y54274
X31713Y29843
X31742Y26535
X31952Y26978
X32047Y29843
X32165Y26535
X32382Y29843
X32717Y26535
X32717Y29843
X984Y53150
X984Y50197
X984Y45276
X984Y40354
X984Y34449
X984Y27559
X984Y21654
X984Y16732
X984Y9843
X2835Y45748
X2953Y35630
X3110Y40984
X3150Y51969
X3937Y58071
X3937Y5906
X4488Y53976
X4528Y19685
X4567Y51654
X4567Y47638
X4567Y42756
X4567Y37244
X4606Y32992
X4606Y27441
X4646Y10709
X5354Y47244
X5354Y34094
X5433Y52795
X5433Y50827
X5433Y29685
X5472Y44803
X5472Y40315
X5827Y46457
X5827Y18150
X5827Y9646
X5906Y55630
X5945Y13583
X5984Y22953
X6732Y5157
X6890Y21260
X6890Y15709
X6890Y984
X6929Y11417
X7008Y30157
X7047Y47126
X7047Y28386
X7323Y7874
X8031Y30197
X8701Y46772
X8858Y41339
X8858Y36811
X8937Y34646
X9134Y33346
X9291Y55000
X9409Y41732
X9449Y44567
X9449Y38661
X9488Y35630
X9528Y46024
X9685Y48819
X9685Y47795
X9724Y29055
X9843Y62992
X10039Y43465
X10079Y5197
X10315Y56575
X10394Y36969
X10945Y44370
X11024Y40433
X11063Y42992
X11181Y17795
X11220Y27402
X11260Y22795
X11299Y15591
X11378Y30866
X11417Y13858
X11732Y35669
X11772Y47795
X11850Y50118
X11850Y48858
X11929Y54213
X11968Y52520
X11968Y51181
X12087Y2047
X12146Y37303
X12165Y34764
X12756Y47205
X12756Y40197
X12795Y39409
X13031Y45039
X13150Y13622
X13268Y46811
X13268Y42677
X13346Y3071
X13386Y40591
X13425Y57283
X13425Y48780
X13661Y59094
X13937Y8976
X14173Y35709
X14173Y33465
X14173Y31929
X14232Y44806
X14331Y41220
X14528Y45906
X14646Y49173
X14764Y984
X15118Y60354
X15118Y13622
X15276Y35669
X15276Y33622
X15354Y47638
X15354Y34764
X15433Y46063
X15472Y41929
X15512Y40669
X15551Y43425
X15669Y1929
X16142Y50472
X16417Y49331
X16575Y41457
X16732Y62992
X16732Y31929
X16850Y35748
X17087Y43740
X17244Y3031
X17362Y59016
X17913Y13740
X17992Y11929
X17992Y8189
X17992Y4173
X18031Y39370
X18071Y36260
X18071Y34803
X18110Y48346
X18351Y51339
X18819Y49055
X18858Y58976
X18870Y36811
X19370Y39567
X19488Y37756
X19514Y51772
X19528Y36220
X19724Y5827
X19764Y60551
X19843Y13740
X20157Y37953
X20315Y46339
X20354Y41181
X20433Y1929
X20551Y43661
X20669Y62992
X20669Y59094
X20802Y31984
X20984Y52087
X20984Y44765
X20994Y40118
X21181Y33307
X21181Y31811
X21260Y35591
X21299Y36378
X21496Y34567
X21811Y45354
X21969Y3031
X22126Y50039
X22441Y5906
X22480Y14016
X22598Y38031
X22598Y36496
X22630Y40118
X22638Y44488
X22638Y984
X22874Y16535
X22874Y16102
X22874Y11417
X22874Y8228
X22913Y22913
X22953Y47323
X22992Y35079
X23071Y44094
X23071Y24567
X23150Y32992
X23189Y25827
X23268Y36890
X23504Y52008
X23504Y14055
X23543Y26575
X23543Y22953
X23701Y16457
X23740Y51535
X23819Y34449
X23858Y60551
X23898Y36260
X24291Y25906
X24370Y34016
X24409Y45118
X24528Y35039
X24743Y44764
X24764Y24921
X24764Y11732
X24764Y10748
X24843Y8307
X24882Y7283
X24961Y54921
X24961Y9016
X25020Y44547
X25157Y13543
X25236Y37008
X25354Y12441
X25394Y34488
X25433Y8346
X25512Y11772
X25551Y36196
X25674Y12913
X25700Y13701
X25748Y49488
X25827Y47441
X25866Y39409
X25906Y41496
X25945Y44528
X25945Y10512
X25984Y3307
X26102Y50906
X26142Y55315
X26142Y25079
X26142Y22756
X26181Y30866
X26220Y57283
X26220Y36732
X26220Y22087
X26260Y18031
X26339Y25787
X26575Y11850
X26772Y36220
X26772Y8307
X26969Y1339
X27126Y12047
X27126Y6654
X27205Y55276
X27205Y24961
X27205Y22598
X27441Y36575
X27482Y59479
X27835Y55748
X27913Y38386
X27953Y36142
X28071Y34646
X28110Y26732
X28622Y38425
X29213Y34606
X29291Y38228
X29291Y25748
X29291Y6929
X29409Y5591
X29488Y2756
X30039Y38622
X30197Y33976
X30236Y26260
X30354Y38268
X30354Y29173
X30354Y27362
X30433Y60551
X30512Y62992
X30551Y30236
X30984Y35236
X31220Y38228
X31220Y26142
X31339Y35433
X31378Y34213
X31742Y35494
X31850Y354
X31969Y54882
X31969Y35276
X32244Y57283
X32323Y47165
X32323Y42874
X32323Y39370
X32402Y52559
X32795Y54134
X32807Y59479
X32953Y50236
X33031Y36110
X33031Y32244
X33110Y40394
X33268Y26772
X33386Y48504
X33386Y45630
X33465Y54449
X33701Y44094
X33819Y52244
X33889Y54322
X33953Y43911
X33953Y43911
X34173Y36614
X34176Y43689
X34176Y43689
X34567Y60591
X34803Y37444
X34803Y37011
X34843Y54094
X35157Y50354
X35354Y57323
X35394Y48346
X35433Y53543
X35472Y54567
X35472Y51929
X35787Y3819
X35945Y1299
X36102Y44764
X36142Y7047
X36220Y41654
X36457Y55472
X36614Y57835
X36850Y53622
X36876Y41828
X37087Y50276
X37126Y1575
X37165Y47441
X37205Y34646
X37205Y10276
X37205Y8976
X37323Y56772
X37362Y39894
X37421Y34876
X37559Y3819
X37598Y34252
X37756Y41654
X38031Y34685
X38228Y2756
X38386Y45394
X38465Y7756
X38543Y10276
X38543Y8661
X38740Y54764
X38780Y52126
X38780Y32244
X38976Y3937
X39055Y7598
X39094Y50000
X39094Y34488
X39094Y33616
X39193Y46339
X39370Y62992
X39370Y984
X39567Y41772
X39724Y35787
X40039Y47480
X40039Y35118
X40276Y51260
X40354Y60630
X40433Y3228
X40669Y35472
X41142Y43583
X41181Y48701
X41218Y32841
X41220Y52087
X41220Y41811
X41260Y41024
X41299Y50472
X41299Y46890
X41929Y35866
X42520Y58976
X42638Y35827
X42677Y45512
X42717Y41102
X42835Y32697
X42835Y10236
X42913Y36575
X43268Y45984
X43288Y40236
X43425Y33858
X43504Y60315
X43957Y45689
X44016Y61378
X44016Y36299
X44055Y37520
X44094Y34094
X44094Y3465
X44252Y10433
X44291Y62992
X44291Y7598
X44291Y984
X44370Y8780
X44409Y2362
X45157Y37520
X45236Y35748
X45354Y33543
X45472Y40984
X45512Y9882
X45748Y44488
X45945Y31496
X45984Y29331
X46024Y26457
X46142Y59606
X46142Y16102
X46220Y13858
X46299Y25000
X46299Y22126
X46299Y19961
X46339Y40984
X46339Y37362
X46339Y33504
X46575Y57205
X47008Y3937
X47047Y44291
X47047Y37362
X47047Y35630
X47047Y23661
X47087Y40984
X47087Y33268
X47165Y47874
X47362Y19724
X47441Y60866
X47756Y9685
X47795Y57205
X47835Y43858
X47835Y41024
X47835Y37638
X47835Y35157
X47874Y27717
X47913Y47717
X47913Y30354
X47953Y33150
X48150Y24843
X48228Y46890
X48819Y37835
X48858Y31929
X48976Y26457
X49016Y36378
X49094Y34291
X49567Y5906
X49764Y37205
X49843Y22283
X50000Y4685
X50039Y26063
X50039Y23465
X50039Y12008
X50197Y984
X50276Y46063
X50276Y34528
X50512Y48661
X50551Y32283
X50591Y7559
X50748Y25354
X50787Y38346
X50787Y28465
X50787Y22441
X50787Y9961
X50827Y21339
X50886Y5807
X50945Y51102
X50984Y8701
X51024Y13268
X51142Y35866
X51142Y32913
X51181Y34331
X51220Y16024
X51299Y19921
X51339Y45984
X51357Y40236
X51575Y10197
X51654Y38189
X51929Y5709
X52165Y62008
X52283Y51024
X52398Y4941
X52638Y45354
X52664Y6326
X52835Y47283
X52914Y38071
X53150Y7559
X53229Y38071
X53465Y18504
X53583Y12874
X53622Y5925
X53819Y8504
X53858Y45906
X53898Y36417
X54035Y6378
X54055Y7441
X54213Y37638
X54213Y9213
X54331Y48740
X54409Y15591
X54567Y54252
X54567Y46850
X54724Y20394
X54724Y10827
X54921Y25118
X54921Y6535
X55197Y40827
X55236Y28386
X55276Y56299
X55551Y42953
X55551Y16850
X55630Y20276
X56102Y4921
X56142Y35906
X56850Y10394
X57008Y57441
X57165Y39606
X57638Y25709
X58268Y42677
X58346Y52362
X58661Y49213
X58661Y39646
X58780Y45709
X60039Y59055
X60039Y52165
X60039Y45276
X60039Y38386
X60039Y33465
X60039Y26575
X60039Y19685
X60039Y12795
X5906Y53338
X5915Y45507
X5915Y41216
X5915Y35625
X5915Y30797
X6428Y50100
X7411Y31344
X8488Y50107
X8682Y50848
X9125Y47954
X23448Y40421
X23654Y40766
X23950Y40303
X25347Y40333
X29751Y9287
X30371Y7356
X32034Y7092
X32497Y7092
X33353Y7092
X34229Y7092
X35372Y7360
X40587Y9045
X40617Y7647
X40705Y9547
X41050Y9340
X46614Y13432
X46614Y12664
X46614Y11640
X47130Y13176
X47307Y12536
X47336Y11473
X47336Y12201
X47342Y10725
X47421Y11857
X48947Y10607
X45427Y31311
X45171Y30257
X45014Y29982
X45333Y29022
X45342Y28100
X44304Y28105
X43852Y27728
X43471Y27786
X42917Y27758
X42533Y27820
X42179Y27716
X41795Y27820
X41096Y27866
X40742Y27777
X40299Y27748
X39876Y27895
X39659Y28147
X39413Y27866
X38990Y27758
X38577Y27669
X38114Y27708
X37986Y28151
X37681Y27866
X37287Y27728
X36913Y27817
X36411Y27817
X35998Y27866
X36274Y28161
X36608Y28506
X36146Y28880
X35555Y29765
X35230Y29765
X35644Y30081
X35673Y30474
X35988Y30464
X36350Y30479
X36677Y30533
X37221Y30836
X37238Y29746
X37562Y29746
X37829Y28899
X38281Y28574
X39522Y28899
X39984Y28565
X41254Y28899
X41648Y28574
X41361Y28150
X42917Y28504
X43212Y28878
X43043Y29145
X43705Y29549
X43714Y29864
X43705Y30179
X43764Y30759
X43331Y30464
X42996Y30435
X42674Y30442
X42337Y30458
X41844Y30454
X41529Y30443
X41035Y30459
X40713Y30454
X40191Y30376
X39875Y30453
X38774Y30607
X38308Y30454
X38832Y29754
X39226Y29746
X34827Y30415
X34512Y30435
X34197Y30513
X33911Y31065
X33871Y29892
X33952Y29431
X34443Y28948
X34826Y28632
X34581Y28200
X34689Y27787
X34305Y27866
X33813Y27856
X35289Y27866
X35604Y27662
X44797Y27265
X44295Y28958
X43567Y31557
X47159Y13175
X46643Y13431
X46643Y12663
X47336Y12535
X47365Y12201
X47450Y11856
X47365Y11472
X47371Y10724
X46643Y11640
X48976Y10606
X44761Y24758
X44387Y24777
X43944Y24197
X43422Y24000
X43452Y23685
X43786Y23055
X44613Y23183
X44948Y23695
X44938Y24246
X42920Y24256
X42231Y24266
X41985Y24472
X41572Y24797
X41138Y24807
X41326Y24285
X41798Y23803
X42192Y23754
X42083Y23262
X41611Y23340
X40912Y23705
X40696Y22888
X40144Y22976
X40154Y22494
X40567Y22002
X40794Y21334
X40272Y21372
X40036Y21155
X39888Y21460
X39406Y21539
X39278Y21195
X38963Y21313
X38826Y20939
X38491Y21165
X38333Y21519
X38028Y21421
X37162Y20880
X37635Y20151
X36994Y19639
X36700Y19472
X36414Y19699
X35144Y19768
X35193Y20683
X35184Y20998
X35184Y21313
X35361Y22445
X35981Y22445
X35095Y22937
X34475Y22868
X34505Y22523
X33894Y22740
X33698Y22474
X33746Y21460
X33904Y21185
X33983Y20880
X34209Y20653
X34357Y20348
X33018Y21047
X32723Y21165
X32526Y22484
X32320Y23419
X32063Y23636
X31759Y23498
X31404Y23468
X31246Y22996
X30922Y22993
X30606Y22976
X31611Y22996
X31541Y21893
X31217Y21893
X30902Y21884
X30548Y21893
X31316Y24777
X32034Y24108
X33865Y23960
X34150Y23813
X34544Y23744
X34859Y23734
X35056Y24384
X36246Y24393
X36257Y24708
X36276Y23842
X36552Y23291
X37044Y22888
X37841Y22927
X37536Y23350
X37664Y23645
X38481Y23409
X38943Y23271
X39190Y23508
X39633Y23439
X39495Y22878
X38835Y22533
X39337Y24010
X40095Y24000
X39180Y24689
X37152Y24551
X36926Y24325
X33520Y24955
X32507Y18832
X32507Y18513
X32684Y18114
X32964Y18322
X33215Y18114
X33126Y17641
X32881Y17366
X33068Y16579
X32763Y16490
X32448Y16460
X32117Y16421
X33363Y16205
X33156Y15948
X33195Y15458
X32910Y15318
X32526Y15033
X32142Y14836
X31562Y14502
X31395Y14029
X31385Y12376
X30676Y12317
X30331Y11539
X31904Y12002
X32677Y12026
X32969Y12946
X32989Y13271
X33126Y13556
X33087Y14029
X33353Y14212
X34013Y14610
X34302Y15127
X34357Y16116
X34337Y16441
X33993Y16726
X33864Y16253
X33402Y16765
X35066Y16687
X35046Y16332
X34878Y16037
X35076Y15742
X35952Y15870
X36601Y15575
X36916Y15594
X37782Y15673
X37992Y16588
X37477Y16726
X36916Y17090
X36739Y17376
X36788Y17779
X37201Y18035
X36975Y18655
X36572Y18390
X35981Y18084
X35429Y17464
X35095Y17474
X34756Y17477
X35341Y17159
X36276Y16874
X38648Y16834
X38973Y16903
X38589Y17425
X37831Y17730
X38176Y18153
X37704Y18488
X38904Y18645
X38756Y19157
X39396Y19108
X39869Y19295
X39957Y19914
X40489Y20250
X40824Y20584
X40833Y19512
X40745Y18596
X40430Y18606
X40331Y18911
X40430Y18123
X40518Y17819
X40833Y17789
X40164Y17947
X40597Y15338
X40824Y14945
X40646Y14453
X40705Y14079
X40666Y13645
X42024Y13606
X42477Y13360
X42681Y13067
X43166Y12750
X43146Y12435
X43954Y12228
X44219Y12051
X44141Y11470
X43885Y11657
X43009Y11431
X42733Y11657
X42438Y11943
X42044Y12307
X42024Y11303
X41288Y11486
X40981Y11096
X40666Y11145
X40410Y12100
X40282Y12395
X39967Y12356
X39898Y12976
X39141Y12287
X38934Y12041
X37782Y12720
X37959Y12995
X37868Y13305
X37595Y13636
X37329Y13813
X37024Y13901
X36860Y13429
X37113Y13222
X36517Y12879
X36808Y12120
X36089Y12092
X36227Y11185
X35892Y11205
X35174Y11185
X34170Y11185
X32506Y13130
X35931Y14314
X36601Y14256
X40105Y14492
X38963Y15880
X42211Y15535
X42472Y16046
X43274Y16323
X43511Y16539
X43363Y15811
X43875Y15939
X44190Y16303
X45144Y16067
X44810Y15269
X43796Y15102
X43589Y14325
X42969Y14364
X44505Y14325
X45115Y14344
X45430Y13636
X44091Y13734
X44357Y10771
X44702Y10909
X45194Y17179
X45499Y17100
X44908Y18016
X44807Y18330
X44485Y18449
X44515Y19049
X43983Y18832
X43166Y18507
X43065Y19108
X42270Y18921
X42227Y19754
X43678Y19738
X44160Y19817
X44239Y20132
X45026Y20289
X44938Y20801
X43993Y20949
X43363Y20821
X43324Y20299
X42349Y21195
X41995Y21185
X41463Y21313
X41109Y21638
X42576Y22356
X39377Y20250
X39131Y19984
X38894Y20309
X34948Y18444
X34160Y18311
X32211Y18940
X31856Y18803
X31719Y18518
X31404Y18488
X30263Y18321
X30183Y17021
X44465Y17671
X45381Y19029
X29917Y20574
X29426Y20417
X29031Y20624
X28648Y20624
X28156Y20417
X28235Y20063
X27950Y20673
X27979Y22199
X28068Y23419
X28390Y23419
X28619Y23911
X29239Y24147
X29235Y24590
X29741Y23370
X29692Y22317
X29347Y22317
X29520Y21726
X29102Y17986
X28864Y17986
X28422Y17632
X28196Y18134
X29642Y17553
X29997Y15407
X30066Y14462
X29042Y14620
X28969Y15092
X27920Y14935
X27901Y14354
X28018Y13203
X28205Y12907
X28501Y13025
X28826Y13021
X28786Y13655
X29169Y12690
X29486Y12710
X29972Y12046
X29574Y11244
X29200Y11598
X28688Y12170
X28333Y11923
X28117Y11451
X27743Y11569
X27891Y12691
X30371Y7356
X32034Y7093
X32496Y7093
X33353Y7093
X34229Y7093
X35372Y7360
X29750Y9287
X22496Y26244
X20941Y26092
X20931Y25650
X21128Y24725
X20656Y24695
X20803Y24360
X20597Y23809
X20459Y23523
X20449Y23199
X19957Y22606
X19957Y22276
X19622Y22234
X20262Y21673
X19857Y21163
X19376Y21200
X19071Y21309
X18815Y20276
X18815Y20059
X19022Y20016
X19022Y19701
X19092Y19254
X20912Y19266
X21217Y19187
X21473Y19861
X21709Y19866
X21709Y20112
X21856Y20620
X22093Y20630
X22416Y20760
X22437Y20437
X22455Y21075
X22465Y21390
X22467Y21717
X22486Y22081
X22486Y22396
X22329Y22697
X22329Y22953
X22388Y23941
X21994Y24979
X20026Y24876
X20026Y25083
X20026Y24640
X18057Y24630
X18057Y24866
X18057Y25103
X17742Y24866
X17742Y24630
X17742Y24394
X18057Y24292
X17427Y24542
X17427Y24778
X17427Y25014
X16394Y25299
X16147Y26181
X15872Y26358
X15921Y26713
X16040Y27303
X15837Y27955
X14606Y27836
X14514Y27333
X14288Y26831
X14484Y26516
X13604Y26860
X13156Y26575
X12624Y26378
X12221Y26835
X12221Y27081
X12221Y27327
X12496Y27819
X12506Y28065
X12506Y28331
X13636Y28047
X13705Y27828
X13638Y28760
X14140Y28927
X14494Y29351
X15055Y29980
X13687Y30010
X16453Y30585
X16748Y30585
X17506Y28229
X17506Y26782
X16845Y26735
X19573Y26913
X19790Y27490
X21059Y26982
X20853Y26742
X20685Y20673
X20439Y20673
X20187Y20673
X20528Y18715
X20242Y18410
X20252Y17209
X19376Y17248
X19152Y16158
X18746Y16166
X18648Y15860
X18884Y15644
X19207Y15642
X19407Y15923
X19699Y15760
X19711Y16079
X20016Y15939
X20055Y16254
X21847Y15536
X21919Y17347
X22053Y17660
X22053Y17975
X21313Y17926
X17919Y18071
X17477Y18268
X17427Y18662
X16630Y19049
X16797Y20433
X16797Y20650
X17004Y20719
X17221Y20486
X17112Y22471
X16088Y21466
X14268Y20994
X13971Y20623
X13530Y19882
X13525Y19639
X13648Y18770
X14160Y19164
X14317Y18513
X14730Y17893
X14799Y17421
X14559Y17135
X14120Y17166
X13727Y17638
X12985Y17113
X12732Y17953
X13156Y15975
X13254Y15659
X13136Y15276
X12388Y15866
X11866Y15723
X11866Y15467
X14258Y15998
X15252Y16815
X15685Y16815
X16075Y16815
X16566Y16850
X17073Y16973
X17575Y16805
X17644Y17126
X18018Y17103
X18293Y15486
X17231Y15831
X15183Y18750
X12703Y20354
X12841Y21402
X13175Y21240
X13953Y21833
X14140Y22888
X13943Y23341
X14475Y23744
X14219Y24167
X14140Y24738
X14752Y25108
X12900Y25004
X12900Y24758
X12900Y24512
X12900Y24266
X12900Y24020
X13291Y23989
X16402Y24047
X16601Y15014
X17093Y15014
X16067Y15110
X15575Y15110
X15073Y15110
X14258Y15034
X12339Y15111
X11866Y15230
X18668Y14984
X21404Y14276
X21896Y14266
X32716Y26535
X32165Y26535
X31742Y26535
X31191Y26535
X31951Y26978
X32047Y29843
X32382Y29843
X32716Y29843
X31712Y29843
X31472Y30413
X22048Y8067
X21585Y8559
X21438Y9612
X21448Y10576
X21644Y11561
X21488Y12573
X20650Y12634
X20296Y13027
X20207Y11659
X18810Y13106
X18879Y8559
X23654Y40766
X23447Y40422
X23949Y40303
X25347Y40333
X9124Y47954
X8487Y50107
X8681Y50848
X6427Y50100
X5906Y53338
X7411Y31343
X5914Y30797
X5914Y35625
X5914Y41215
X5914Y45507
X27687Y39216
X28081Y39216
X29479Y39216
X29872Y39216
X30305Y54275
X30699Y54275
X31093Y54275
X31486Y54275
X26388Y39176
X27333Y39196
X29124Y39235
X28435Y39255
X31860Y39275
X30122Y39416
X30390Y39564
X26880Y39649
X31605Y39865
X30620Y40101
X31585Y40180
X29153Y40406
X29892Y40416
X27290Y40432
X28199Y40436
X26841Y40613
X31782Y40987
X29853Y41381
X27825Y41440
X29002Y41479
X31900Y41676
X26447Y41735
X31368Y41991
X30325Y42011
X26821Y42050
X29159Y42365
X29479Y42444
X28809Y42621
X26624Y42700
X29754Y42857
X28120Y42936
X31900Y42995
X29223Y43408
X28199Y43645
X30010Y43743
X26644Y43763
X31821Y44176
X27725Y44308
X29085Y44373
X29455Y44605
X28705Y44628
X27766Y44629
X28081Y44629
X30482Y44983
X30817Y44983
X31624Y45239
X27215Y45279
X29459Y45712
X31919Y45731
X27667Y45790
X31334Y46105
X28965Y46108
X31034Y46243
X26919Y46302
X30482Y47227
X29912Y47385
X28888Y47464
X29203Y47621
X27510Y47641
X26742Y47759
X27038Y47838
X31919Y48172
X27982Y48271
X31329Y48290
X30227Y48408
X29360Y48566
X29715Y48566
X28868Y48664
X27077Y48704
X27982Y48999
X28665Y49308
X31427Y49334
X27628Y49530
X30225Y49718
X26723Y50259
X29875Y50448
X28927Y50456
X29565Y50458
X30635Y50458
X27884Y50534
X31919Y51046
X26979Y51381
X27412Y51381
X26979Y51696
X27412Y51696
X27923Y51853
X31447Y52660
X26447Y52719
X28022Y52916
X26900Y53330
X27274Y53330
X26900Y53782
X27274Y53782
X26427Y54235
X27254Y54275
X31919Y54294
X41050Y9340
X40706Y9547
X40587Y9045
X40617Y7647
T02
X12284Y48310
X14724Y32283
T03
X55906Y48022
X56220Y47333
X56535Y48022
X56850Y47333
X57165Y48022
X55098Y47421G85X55098Y47933
X57972Y47421G85X57972Y47933
T04
X50807Y44449
X50807Y43465
X50807Y42480
X50807Y41496
X50807Y40512
X4862Y55039
X6791Y55039
X8366Y55039
X10295Y55039
X12918Y51262
X12918Y49762
X13902Y53821
X13902Y52321
X15083Y53821
X15083Y52321
X15674Y51262
X15674Y49762
X16264Y53821
X16264Y52321
X16855Y51262
X16855Y49762
X17445Y53821
X17445Y52321
X18626Y53821
X18626Y52321
X19217Y51262
X19217Y49762
X19807Y53821
X19807Y52321
X20355Y51262
X20355Y49762
X21264Y49778
X21264Y48278
X22170Y53821
X22170Y52321
X22957Y51262
X22957Y49762
X24532Y53821
X24532Y52321
X40122Y53838
X40122Y52338
X42288Y49665
X42288Y48165
X43075Y51260
X43075Y49760
X43075Y48976
X43075Y47476
X43666Y53819
X43666Y52319
X44764Y53821
X44764Y52321
X45886Y53821
X45886Y52321
X46614Y49370
X46614Y48587
X46614Y47087
X47481Y51004
X48114Y49370
X48390Y53819
X48390Y52319
X48981Y51004
X49571Y53819
X49571Y52319
X50162Y51260
X50162Y49760
X50394Y20868
X50394Y19868
X50394Y18868
X50394Y17868
X50394Y16868
X50394Y15868
X52327Y53821
X52327Y52321
X52918Y51260
X52918Y49760
X20875Y7061
X20875Y8061
X20875Y9061
X20875Y10061
X20875Y11061
X19875Y11061
X19875Y10061
X19875Y9061
X19875Y8061
X19875Y7061
T05
X2000Y26000
X2000Y25000
X2000Y24000
X2000Y23000
X2000Y22000
X2000Y17000
X2000Y16000
X2000Y15000
X2000Y14000
X2000Y13000
X3000Y26000
X3000Y25000
X3000Y24000
X3000Y23000
X3000Y22000
X3000Y17000
X3000Y16000
X3000Y15000
X3000Y14000
X3000Y13000
X4000Y26000
X4000Y25000
X4000Y24000
X4000Y23000
X4000Y22000
X4000Y17000
X4000Y16000
X4000Y15000
X4000Y14000
X4000Y13000
X8000Y26000
X8000Y25000
X8000Y24000
X8000Y23000
X8000Y22000
X8000Y17000
X8000Y16000
X8000Y15000
X8000Y14000
X8000Y13000
X9000Y26000
X9000Y25000
X9000Y24000
X9000Y23000
X9000Y22000
X9000Y17000
X9000Y16000
X9000Y15000
X9000Y14000
X9000Y13000
X10000Y26000
X10000Y25000
X10000Y24000
X10000Y23000
X10000Y22000
X10000Y17000
X10000Y16000
X10000Y15000
X10000Y14000
X10000Y13000
X11732Y33386
X11732Y32244
X12874Y33378
X12874Y32244
X14460Y50906
X17795Y33386
X18036Y50512
X18898Y33386
X18898Y32283
X20989Y53071
X21284Y51103
X23351Y53071
X24138Y50512
X24567Y19373
X24567Y16419
X25516Y50512
X25674Y19372
X25674Y16419
X26181Y29921
X26181Y28819
X26181Y27717
X27283Y29921
X27283Y28819
X27283Y26614
X30189Y2837
X31181Y33465
X31181Y32363
X31189Y2837
X32189Y2837
X32288Y33467
X32288Y32363
X33189Y2837
X34055Y35000
X34189Y2837
X35189Y2837
X35236Y35000
X35236Y33858
X35925Y40472
X36378Y35000
X36925Y40472
X37395Y5820
X37395Y4820
X37925Y40472
X38395Y5820
X38395Y4820
X38925Y40472
X39395Y5820
X39395Y4820
X39925Y40472
X39961Y34016
X40395Y5820
X40395Y4820
X40925Y40472
X41146Y53069
X41339Y35118
X41339Y34016
X41395Y5820
X41395Y4820
X42395Y5820
X42395Y4820
X42406Y53069
X42520Y35118
X42520Y34016
X43110Y37244
X43395Y5820
X43395Y4820
X43701Y35118
X44395Y5820
X44395Y4820
X45395Y5820
X45395Y4820
X46395Y5820
X46395Y4820
X46457Y18504
X46457Y17388
X47209Y53069
X47395Y5820
X47395Y4820
X47638Y18504
X47638Y17388
X48395Y5820
X48395Y4820
X48819Y18504
X48819Y17388
X50949Y53069
X53316Y41988
X53316Y41004
X54103Y41988
X54103Y41004
X28792Y15807
X27992Y15807
X28392Y13807
X31053Y39416
X30653Y41416
X31453Y41416
T06
X13083Y58218
X13083Y56446
X14460Y58218
X14460Y56446
X15681Y58218
X15681Y56446
X16862Y58218
X16862Y56446
X18043Y58218
X18043Y56446
X19224Y58218
X19224Y56446
X20405Y58218
X20405Y56446
X21586Y58218
X21586Y56446
X22767Y58218
X22767Y56446
X23948Y58218
X23948Y56446
X25169Y58218
X25169Y56446
X27511Y58218
X27511Y56446
X28692Y58218
X28692Y56446
X29873Y58218
X29873Y56446
X31054Y58218
X31054Y56446
X32236Y58218
X32236Y56446
X33417Y58218
X33417Y56446
X34598Y58218
X34598Y56446
X35779Y58218
X35779Y56446
X38120Y58218
X38120Y56446
X39498Y58218
X39498Y56446
X40720Y58218
X40720Y56446
X41901Y58218
X41901Y56446
X43082Y58218
X43082Y56446
X44263Y58218
X44263Y56446
X45444Y58218
X45444Y56446
X46625Y58218
X46625Y56446
X47806Y58218
X47806Y56446
X48987Y58218
X48987Y56446
X50208Y58218
X50208Y56446
X51586Y58218
X51586Y56446
X52964Y58218
X52964Y56446
T07
X52677Y35906
X54134Y35039
X54882Y35906
X56339Y35039
X57323Y35906
T08
X55170Y43866
X55170Y39126
T09
X55394Y22868
X55394Y13868
T10
X11094Y60462
X26389Y60462
X36901Y60462
X54952Y60462
T11
X1575Y55906
X1575Y30512
X1575Y7283
X6693Y60709
X53780Y1932
X59055Y30512
X59055Y7283
X59099Y55906
M30
