M48
INCH,TZ
T01C0.012400
T02C0.019700
T03C0.027600
T04C0.033700
T05C0.039200
T06C0.043300
T07C0.120000
T08C0.137800
T09C0.189000
%
T01
X31445Y25475
X33898Y32247
X34803Y37011
X35866Y32247
X36496Y7916
X36496Y3822
X36536Y2759
X36536Y1597
X39095Y32247
X44843Y59724
X44843Y58898
X45315Y32050
X7681Y54449
X9125Y35289
X10910Y49213
X14544Y31353
X14646Y37402
X14791Y43782
X15211Y43782
X15276Y37402
X15787Y47126
X18307Y37756
X18307Y31614
X18311Y33819
X18863Y33819
X19252Y31614
X20549Y34252
X20630Y47953
X20630Y39215
X20957Y37074
X21260Y37402
X21457Y34685
X21890Y42995
X22113Y38900
X22126Y42759
X22283Y35630
X22533Y38900
X22642Y32362
X22721Y31142
X23193Y23937
X23193Y10906
X23213Y30826
X23236Y30440
X23339Y27530
X23501Y6732
X23587Y15700
X23626Y32874
X23798Y18040
X23819Y6732
X23902Y32362
X24138Y6732
X24146Y29696
X24151Y33268
X24449Y13152
X24457Y6732
X24488Y12641
X24493Y31417
X24500Y27333
X24749Y32618
X24807Y36850
X24901Y28568
X25083Y13425
X25083Y10512
X25122Y38747
X25205Y27381
X25378Y28495
X25398Y12874
X25551Y13507
X25752Y32047
X25945Y38861
X26087Y32618
X26107Y36850
X26409Y14848
X26579Y13472
X26579Y13153
X26579Y12835
X26590Y12509
X26717Y14766
X26733Y9215
X26925Y54908
X27014Y14469
X27128Y31695
X27209Y13977
X27520Y9215
X27543Y32618
X27563Y36850
X27914Y10711
X27957Y8740
X28465Y36341
X28485Y38979
X28583Y26656
X28789Y26372
X28863Y36850
X28863Y32618
X29055Y38979
X29086Y26075
X29160Y34097
X29580Y34097
X29611Y10394
X29882Y35318
X29882Y25869
X30040Y3704
X30507Y35634
X30827Y3704
X31112Y34994
X31225Y28819
X31264Y10276
X31304Y27913
X31409Y34697
X31654Y31220
X31737Y10276
X31930Y28071
X32087Y36341
X32249Y28071
X32481Y48822
X32839Y27953
X32918Y10433
X32957Y28819
X33213Y29436
X33229Y30251
X33587Y32999
X33626Y10433
X33694Y25862
X34611Y36575
X35083Y10394
X35244Y32520
X36973Y33346
X37170Y33071
X37485Y32953
X38307Y33898
X38740Y34331
X39523Y32527
X39606Y35709
X39768Y32323
X40740Y10354
X41610Y42443
X41863Y43223
X42323Y39606
X43189Y10239
X43544Y10239
X43622Y59685
X43622Y58898
X44374Y33701
X44528Y26066
X44528Y25475
X44650Y33346
X44953Y25973
X45713Y32323
X46067Y54606
X46618Y33189
X47406Y3386
X47445Y32586
X48307Y46220
X48307Y25987
X48701Y39370
X49016Y19885
X49055Y40118
X49292Y19412
X49449Y38386
X49764Y38701
X50157Y38189
X50394Y32837
X51654Y52717
X51654Y49449
X51654Y39055
X52209Y39094
X52861Y38979
X53281Y38979
X53780Y21725
X54055Y21932
X27687Y39215
X28081Y39215
X29479Y39215
X29872Y39215
X30305Y54274
X30699Y54274
X31093Y54274
X31486Y54274
X12953Y47244
X12953Y40197
X18898Y36811
X20906Y40121
X34803Y37444
X39055Y33780
X41210Y32835
X5906Y53338
X5915Y45507
X5915Y41216
X5915Y35625
X5915Y30797
X6428Y50100
X7411Y31344
X8488Y50107
X8682Y50848
X9125Y47954
X23448Y40421
X23654Y40766
X23950Y40303
X25347Y40333
X29751Y9287
X30371Y7356
X32034Y7092
X32497Y7092
X33353Y7092
X34229Y7092
X35372Y7360
X40587Y9045
X40617Y7647
X40705Y9547
X41050Y9340
X46614Y13432
X46614Y12664
X46614Y11640
X47130Y13176
X47307Y12536
X47336Y11473
X47336Y12201
X47342Y10725
X47421Y11857
X48947Y10607
X45427Y31311
X45171Y30257
X45014Y29982
X45333Y29022
X45342Y28100
X44304Y28105
X43852Y27728
X43471Y27786
X42917Y27758
X42533Y27820
X42179Y27716
X41795Y27820
X41096Y27866
X40742Y27777
X40299Y27748
X39876Y27895
X39659Y28147
X39413Y27866
X38990Y27758
X38577Y27669
X38114Y27708
X37986Y28151
X37681Y27866
X37287Y27728
X36913Y27817
X36411Y27817
X35998Y27866
X36274Y28161
X36608Y28506
X36146Y28880
X35555Y29765
X35230Y29765
X35644Y30081
X35673Y30474
X35988Y30464
X36350Y30479
X36677Y30533
X37221Y30836
X37238Y29746
X37562Y29746
X37829Y28899
X38281Y28574
X39522Y28899
X39984Y28565
X41254Y28899
X41648Y28574
X41361Y28150
X42917Y28504
X43212Y28878
X43043Y29145
X43705Y29549
X43714Y29864
X43705Y30179
X43764Y30759
X43331Y30464
X42996Y30435
X42674Y30442
X42337Y30458
X41844Y30454
X41529Y30443
X41035Y30459
X40713Y30454
X40191Y30376
X39875Y30453
X38774Y30607
X38308Y30454
X38832Y29754
X39226Y29746
X34827Y30415
X34512Y30435
X34197Y30513
X33911Y31065
X33871Y29892
X33952Y29431
X34443Y28948
X34826Y28632
X34581Y28200
X34689Y27787
X34305Y27866
X33813Y27856
X35289Y27866
X35604Y27662
X44797Y27265
X44295Y28958
X43567Y31557
X47159Y13175
X46643Y13431
X46643Y12663
X47336Y12535
X47365Y12201
X47450Y11856
X47365Y11472
X47371Y10724
X46643Y11640
X48976Y10606
X44761Y24758
X44387Y24777
X43944Y24197
X43422Y24000
X43452Y23685
X43786Y23055
X44613Y23183
X44948Y23695
X44938Y24246
X42920Y24256
X42231Y24266
X41985Y24472
X41572Y24797
X41138Y24807
X41326Y24285
X41798Y23803
X42192Y23754
X42083Y23262
X41611Y23340
X40912Y23705
X40696Y22888
X40144Y22976
X40154Y22494
X40567Y22002
X40794Y21334
X40272Y21372
X40036Y21155
X39888Y21460
X39406Y21539
X39278Y21195
X38963Y21313
X38826Y20939
X38491Y21165
X38333Y21519
X38028Y21421
X37162Y20880
X37635Y20151
X36994Y19639
X36700Y19472
X36414Y19699
X35144Y19768
X35193Y20683
X35184Y20998
X35184Y21313
X35361Y22445
X35981Y22445
X35095Y22937
X34475Y22868
X34505Y22523
X33894Y22740
X33698Y22474
X33746Y21460
X33904Y21185
X33983Y20880
X34209Y20653
X34357Y20348
X33018Y21047
X32723Y21165
X32526Y22484
X32320Y23419
X32063Y23636
X31759Y23498
X31404Y23468
X31246Y22996
X30922Y22993
X30606Y22976
X31611Y22996
X31541Y21893
X31217Y21893
X30902Y21884
X30548Y21893
X31316Y24777
X32034Y24108
X33865Y23960
X34150Y23813
X34544Y23744
X34859Y23734
X35056Y24384
X36246Y24393
X36257Y24708
X36276Y23842
X36552Y23291
X37044Y22888
X37841Y22927
X37536Y23350
X37664Y23645
X38481Y23409
X38943Y23271
X39190Y23508
X39633Y23439
X39495Y22878
X38835Y22533
X39337Y24010
X40095Y24000
X39180Y24689
X37152Y24551
X36926Y24325
X33520Y24955
X32507Y18832
X32507Y18513
X32684Y18114
X32964Y18322
X33215Y18114
X33126Y17641
X32881Y17366
X33068Y16579
X32763Y16490
X32448Y16460
X32117Y16421
X33363Y16205
X33156Y15948
X33195Y15458
X32910Y15318
X32526Y15033
X32142Y14836
X31562Y14502
X31395Y14029
X31385Y12376
X30676Y12317
X30331Y11539
X31904Y12002
X32677Y12026
X32969Y12946
X32989Y13271
X33126Y13556
X33087Y14029
X33353Y14212
X34013Y14610
X34302Y15127
X34357Y16116
X34337Y16441
X33993Y16726
X33864Y16253
X33402Y16765
X35066Y16687
X35046Y16332
X34878Y16037
X35076Y15742
X35952Y15870
X36601Y15575
X36916Y15594
X37782Y15673
X37992Y16588
X37477Y16726
X36916Y17090
X36739Y17376
X36788Y17779
X37201Y18035
X36975Y18655
X36572Y18390
X35981Y18084
X35429Y17464
X35095Y17474
X34756Y17477
X35341Y17159
X36276Y16874
X38648Y16834
X38973Y16903
X38589Y17425
X37831Y17730
X38176Y18153
X37704Y18488
X38904Y18645
X38756Y19157
X39396Y19108
X39869Y19295
X39957Y19914
X40489Y20250
X40824Y20584
X40833Y19512
X40745Y18596
X40430Y18606
X40331Y18911
X40430Y18123
X40518Y17819
X40833Y17789
X40164Y17947
X40597Y15338
X40824Y14945
X40646Y14453
X40705Y14079
X40666Y13645
X42024Y13606
X42477Y13360
X42681Y13067
X43166Y12750
X43146Y12435
X43954Y12228
X44219Y12051
X44141Y11470
X43885Y11657
X43009Y11431
X42733Y11657
X42438Y11943
X42044Y12307
X42024Y11303
X41288Y11486
X40981Y11096
X40666Y11145
X40410Y12100
X40282Y12395
X39967Y12356
X39898Y12976
X39141Y12287
X38934Y12041
X37782Y12720
X37959Y12995
X37868Y13305
X37595Y13636
X37329Y13813
X37024Y13901
X36860Y13429
X37113Y13222
X36517Y12879
X36808Y12120
X36089Y12092
X36227Y11185
X35892Y11205
X35174Y11185
X34170Y11185
X32506Y13130
X35931Y14314
X36601Y14256
X40105Y14492
X38963Y15880
X42211Y15535
X42472Y16046
X43274Y16323
X43511Y16539
X43363Y15811
X43875Y15939
X44190Y16303
X45144Y16067
X44810Y15269
X43796Y15102
X43589Y14325
X42969Y14364
X44505Y14325
X45115Y14344
X45430Y13636
X44091Y13734
X44357Y10771
X44702Y10909
X45194Y17179
X45499Y17100
X44908Y18016
X44807Y18330
X44485Y18449
X44515Y19049
X43983Y18832
X43166Y18507
X43065Y19108
X42270Y18921
X42227Y19754
X43678Y19738
X44160Y19817
X44239Y20132
X45026Y20289
X44938Y20801
X43993Y20949
X43363Y20821
X43324Y20299
X42349Y21195
X41995Y21185
X41463Y21313
X41109Y21638
X42576Y22356
X39377Y20250
X39131Y19984
X38894Y20309
X34948Y18444
X34160Y18311
X32211Y18940
X31856Y18803
X31719Y18518
X31404Y18488
X30263Y18321
X30183Y17021
X44465Y17671
X45381Y19029
X29917Y20574
X29426Y20417
X29031Y20624
X28648Y20624
X28156Y20417
X28235Y20063
X27950Y20673
X27979Y22199
X28068Y23419
X28390Y23419
X28619Y23911
X29239Y24147
X29235Y24590
X29741Y23370
X29692Y22317
X29347Y22317
X29520Y21726
X29102Y17986
X28864Y17986
X28422Y17632
X28196Y18134
X29642Y17553
X29997Y15407
X30066Y14462
X29042Y14620
X28969Y15092
X27920Y14935
X27901Y14354
X28018Y13203
X28205Y12907
X28501Y13025
X28826Y13021
X28786Y13655
X29169Y12690
X29486Y12710
X29972Y12046
X29574Y11244
X29200Y11598
X28688Y12170
X28333Y11923
X28117Y11451
X27743Y11569
X27891Y12691
X30371Y7356
X32034Y7093
X32496Y7093
X33353Y7093
X34229Y7093
X35372Y7360
X29750Y9287
X22496Y26244
X20941Y26092
X20882Y25650
X20853Y26742
X21059Y26982
X19573Y26913
X19790Y27490
X20026Y25083
X20026Y24876
X20026Y24640
X20656Y24695
X20803Y24360
X21128Y24725
X21994Y24979
X22388Y23941
X22329Y22953
X22329Y22697
X22486Y22396
X22486Y22081
X22467Y21717
X22465Y21390
X22455Y21075
X22416Y20760
X22437Y20437
X22093Y20630
X21856Y20620
X21709Y20112
X21709Y19866
X21473Y19861
X21217Y19187
X20912Y19266
X20528Y18715
X20242Y18410
X20252Y17209
X19376Y17248
X19152Y16158
X18746Y16166
X18648Y15860
X18884Y15644
X19207Y15642
X19407Y15923
X19699Y15760
X19711Y16079
X20016Y15939
X20055Y16254
X21847Y15536
X21919Y17347
X22053Y17660
X22053Y17975
X21313Y17926
X20685Y20673
X20439Y20673
X20187Y20673
X19857Y21163
X19376Y21200
X19071Y21309
X18815Y20276
X18815Y20059
X19022Y20016
X19022Y19701
X19092Y19254
X17427Y18662
X17477Y18268
X17919Y18071
X18018Y17103
X17644Y17126
X17575Y16805
X17073Y16973
X16566Y16850
X16075Y16815
X15685Y16815
X15252Y16815
X14559Y17135
X14120Y17166
X13727Y17638
X13648Y18770
X14160Y19164
X14317Y18513
X14730Y17893
X14799Y17421
X15183Y18750
X16630Y19049
X16797Y20433
X16797Y20650
X17004Y20719
X17221Y20486
X17112Y22471
X16088Y21466
X14268Y20994
X13971Y20623
X13530Y19882
X13525Y19639
X12703Y20354
X12841Y21402
X13175Y21240
X13953Y21833
X14140Y22888
X13943Y23341
X14475Y23744
X14219Y24167
X14140Y24738
X14752Y25108
X14484Y26516
X14327Y26831
X14514Y27343
X14606Y27836
X14612Y28701
X14573Y29351
X14140Y28927
X13677Y28652
X13685Y28047
X13705Y27828
X13604Y26860
X13156Y26575
X12624Y26378
X12221Y26835
X12221Y27081
X12221Y27327
X12496Y27819
X12506Y28065
X12506Y28331
X13628Y29990
X15055Y29980
X16453Y30585
X16748Y30585
X16433Y28425
X16099Y28406
X16108Y27451
X15981Y27018
X16305Y27057
X16914Y26883
X15990Y26506
X16167Y26240
X16394Y25299
X16402Y24047
X17427Y24542
X17427Y24778
X17427Y25014
X17742Y24866
X17742Y24630
X17742Y24394
X18057Y24292
X18057Y24630
X18057Y24866
X18057Y25103
X20597Y23809
X20459Y23523
X20449Y23199
X19957Y22606
X19957Y22276
X19622Y22234
X20262Y21673
X18293Y15486
X17231Y15831
X14258Y15998
X13156Y15975
X13254Y15659
X13136Y15276
X12388Y15866
X11866Y15723
X11866Y15467
X12985Y17113
X12732Y17953
X12900Y24020
X12900Y24266
X12900Y24512
X12900Y24758
X12900Y25004
X13291Y23989
X12339Y15111
X11866Y15230
X14258Y15034
X15073Y15110
X15575Y15110
X16067Y15110
X16601Y15014
X17093Y15014
X18668Y14984
X21404Y14276
X21896Y14266
X41050Y9340
X40706Y9547
X40587Y9045
X40617Y7647
X22048Y8067
X21585Y8559
X21438Y9612
X21448Y10576
X21644Y11561
X21488Y12573
X20650Y12634
X20296Y13027
X20207Y11659
X18810Y13106
X18879Y8559
X23654Y40766
X23447Y40422
X23949Y40303
X25347Y40333
X9124Y47954
X8487Y50107
X8681Y50848
X6427Y50100
X5906Y53338
X7411Y31343
X5914Y30797
X5914Y35625
X5914Y41215
X5914Y45507
X26389Y39176
X27334Y39195
X27688Y39215
X28082Y39215
X29480Y39215
X29873Y39215
X29125Y39235
X31921Y39235
X28436Y39254
X30247Y39254
X31468Y39530
X26881Y39648
X31606Y39865
X30622Y40101
X31586Y40180
X29154Y40406
X27291Y40432
X28200Y40436
X26842Y40613
X31783Y40987
X29854Y41380
X27826Y41439
X29003Y41479
X31901Y41676
X26448Y41735
X31370Y41991
X30326Y42010
X26822Y42050
X29160Y42365
X29480Y42443
X28810Y42621
X26586Y42660
X29755Y42857
X31901Y42995
X27807Y43132
X29224Y43408
X30011Y43743
X26645Y43762
X31822Y44176
X27726Y44308
X29086Y44373
X29456Y44605
X28706Y44628
X27767Y44628
X28082Y44628
X30484Y44983
X30818Y44983
X31625Y45239
X27216Y45278
X29460Y45711
X31921Y45731
X27669Y45790
X31335Y46105
X28966Y46108
X31035Y46243
X26921Y46302
X30484Y47227
X29913Y47384
X28889Y47463
X29204Y47621
X27511Y47640
X26744Y47758
X27039Y47837
X31921Y48172
X27984Y48270
X31330Y48290
X30228Y48408
X29362Y48565
X29716Y48565
X28870Y48664
X27078Y48703
X27984Y48999
X28666Y49308
X31429Y49333
X27629Y49530
X30226Y49718
X26724Y50258
X29876Y50448
X28929Y50455
X29566Y50458
X30636Y50458
X27885Y50534
X31921Y51046
X26980Y51380
X27413Y51380
X26980Y51695
X27413Y51695
X27925Y51853
X31448Y52660
X26448Y52719
X28023Y52916
X26901Y53329
X27275Y53329
X26901Y53782
X27275Y53782
X26429Y54235
X27255Y54274
X30307Y54274
X30700Y54274
X31094Y54274
X31488Y54274
X31921Y54294
T02
X12284Y48310
X14724Y32283
T03
X35000Y49350
X35315Y50039
X35630Y49350
X35945Y50039
X36260Y49350
X34193Y49950G85X34193Y49439
X37067Y49950G85X37067Y49439
T04
X33937Y52641
X34922Y52641
X35906Y52641
X36890Y52641
X37874Y52641
X12918Y51262
X12918Y49762
X13902Y53821
X13902Y52321
X14493Y51262
X14493Y49762
X15083Y53821
X15083Y52321
X15674Y51262
X15674Y49762
X16264Y53821
X16264Y52321
X16855Y51262
X16855Y49762
X17445Y53821
X17445Y52321
X18626Y53821
X18626Y52321
X19217Y51262
X19217Y49762
X19807Y53821
X19807Y52321
X20355Y51262
X20355Y49762
X21264Y49778
X21264Y48278
X22170Y53821
X22170Y52321
X22205Y51265
X22205Y49765
X22957Y51262
X22957Y49762
X24532Y53821
X24532Y52321
X40122Y53838
X40122Y52338
X42288Y49665
X42288Y48165
X43075Y51260
X43075Y49760
X43075Y48976
X43075Y47476
X44650Y49705
X44650Y48205
X44847Y53819
X44847Y52319
X45437Y51260
X45437Y49760
X45437Y48738
X45437Y47238
X46618Y51260
X46618Y49760
X47795Y49746
X47795Y48246
X48390Y53819
X48390Y52319
X48981Y51260
X48981Y49760
X49571Y53819
X49571Y52319
X50162Y51260
X50162Y49760
X50394Y20868
X50394Y19868
X50394Y18868
X50394Y17868
X50394Y16868
X50394Y15868
X52327Y53821
X52327Y52321
X52918Y51260
X52918Y49760
X20875Y7061
X20875Y8061
X20875Y9061
X20875Y10061
X20875Y11061
X19875Y11061
X19875Y10061
X19875Y9061
X19875Y8061
X19875Y7061
T05
X2000Y26000
X2000Y25000
X2000Y24000
X2000Y23000
X2000Y22000
X2000Y17000
X2000Y16000
X2000Y15000
X2000Y14000
X2000Y13000
X3000Y26000
X3000Y25000
X3000Y24000
X3000Y23000
X3000Y22000
X3000Y17000
X3000Y16000
X3000Y15000
X3000Y14000
X3000Y13000
X4000Y26000
X4000Y25000
X4000Y24000
X4000Y23000
X4000Y22000
X4000Y17000
X4000Y16000
X4000Y15000
X4000Y14000
X4000Y13000
X8000Y26000
X8000Y25000
X8000Y24000
X8000Y23000
X8000Y22000
X8000Y17000
X8000Y16000
X8000Y15000
X8000Y14000
X8000Y13000
X9000Y26000
X9000Y25000
X9000Y24000
X9000Y23000
X9000Y22000
X9000Y17000
X9000Y16000
X9000Y15000
X9000Y14000
X9000Y13000
X10000Y26000
X10000Y25000
X10000Y24000
X10000Y23000
X10000Y22000
X10000Y17000
X10000Y16000
X10000Y15000
X10000Y14000
X10000Y13000
X11999Y33378
X11999Y32378
X12999Y33378
X12999Y32378
X17784Y33273
X17784Y32273
X18036Y50512
X18784Y33273
X18784Y32273
X19784Y33273
X19784Y32273
X20989Y53071
X21284Y51103
X23351Y53071
X24138Y50512
X24567Y19373
X24567Y16419
X25516Y50512
X25674Y19372
X25674Y16419
X26177Y29852
X26177Y28852
X26177Y27852
X26177Y26852
X27177Y29852
X27177Y28852
X27177Y27852
X27177Y26852
X30189Y2837
X31181Y32363
X31189Y2837
X32189Y2837
X32288Y33467
X32288Y32363
X33189Y2837
X34060Y35331
X34060Y34331
X34189Y2837
X35060Y35331
X35060Y34331
X35189Y2837
X36060Y35331
X36060Y34331
X37395Y5820
X37395Y4820
X38395Y5820
X38395Y4820
X39395Y5820
X39395Y4820
X40395Y5820
X40395Y4820
X40627Y35331
X40627Y34331
X41146Y53069
X41395Y5820
X41395Y4820
X41627Y35331
X41627Y34331
X42395Y5820
X42395Y4820
X42406Y53069
X42627Y35331
X42627Y34331
X43110Y37244
X43395Y5820
X43395Y4820
X43627Y35331
X43627Y34331
X43666Y53069
X44395Y5820
X44395Y4820
X45395Y5820
X45395Y4820
X46395Y5820
X46395Y4820
X46830Y18388
X46830Y17388
X47209Y53069
X47395Y5820
X47395Y4820
X47830Y18388
X47830Y17388
X48395Y5820
X48395Y4820
X48830Y18388
X48830Y17388
X50949Y53069
X28792Y15807
X27992Y15807
X28392Y13807
X31055Y39416
X30655Y41416
X31455Y41416
T06
X13083Y58218
X13083Y56446
X14460Y58218
X14460Y56446
X15681Y58218
X15681Y56446
X16862Y58218
X16862Y56446
X18043Y58218
X18043Y56446
X19224Y58218
X19224Y56446
X20405Y58218
X20405Y56446
X21586Y58218
X21586Y56446
X22767Y58218
X22767Y56446
X23948Y58218
X23948Y56446
X25169Y58218
X25169Y56446
X27511Y58218
X27511Y56446
X28692Y58218
X28692Y56446
X29873Y58218
X29873Y56446
X31054Y58218
X31054Y56446
X32236Y58218
X32236Y56446
X33417Y58218
X33417Y56446
X34598Y58218
X34598Y56446
X35779Y58218
X35779Y56446
X38120Y58218
X38120Y56446
X39498Y58218
X39498Y56446
X40720Y58218
X40720Y56446
X41901Y58218
X41901Y56446
X43082Y58218
X43082Y56446
X44263Y58218
X44263Y56446
X45444Y58218
X45444Y56446
X46625Y58218
X46625Y56446
X47806Y58218
X47806Y56446
X48987Y58218
X48987Y56446
X50208Y58218
X50208Y56446
X51586Y58218
X51586Y56446
X52964Y58218
X52964Y56446
T07
X55394Y22868
X55394Y13868
T08
X11094Y60462
X26389Y60462
X36901Y60462
X54952Y60462
T09
X1575Y55906
X1575Y30512
X1575Y7283
X6693Y60709
X53780Y1932
X59055Y30512
X59055Y7283
X59099Y55906
M30
