G75*
G70*
%OFA0B0*%
%FSLAX25Y25*%
%IPPOS*%
%LPD*%
%AMOC8*
5,1,8,0,0,1.08239X$1,22.5*
%
%AMM160*
21,1,0.033070,0.030710,-0.000000,0.000000,180.000000*
21,1,0.022050,0.041730,-0.000000,0.000000,180.000000*
1,1,0.011020,0.015350,0.011020*
1,1,0.011020,0.015350,-0.011020*
1,1,0.011020,-0.015350,-0.011020*
1,1,0.011020,-0.015350,0.011020*
%
%AMM162*
21,1,0.038980,0.026770,-0.000000,0.000000,270.000000*
21,1,0.026770,0.038980,-0.000000,0.000000,270.000000*
1,1,0.012210,-0.013390,0.013390*
1,1,0.012210,0.013390,0.013390*
1,1,0.012210,0.013390,-0.013390*
1,1,0.012210,-0.013390,-0.013390*
%
%AMM163*
21,1,0.033070,0.030710,-0.000000,0.000000,90.000000*
21,1,0.022050,0.041730,-0.000000,0.000000,90.000000*
1,1,0.011020,0.011020,-0.015350*
1,1,0.011020,-0.011020,-0.015350*
1,1,0.011020,-0.011020,0.015350*
1,1,0.011020,0.011020,0.015350*
%
%AMM164*
21,1,0.044880,0.049210,-0.000000,0.000000,180.000000*
21,1,0.031500,0.062600,-0.000000,0.000000,180.000000*
1,1,0.013390,0.024610,0.015750*
1,1,0.013390,0.024610,-0.015750*
1,1,0.013390,-0.024610,-0.015750*
1,1,0.013390,-0.024610,0.015750*
%
%AMM166*
21,1,0.038980,0.026770,-0.000000,0.000000,0.000000*
21,1,0.026770,0.038980,-0.000000,0.000000,0.000000*
1,1,0.012210,-0.013390,-0.013390*
1,1,0.012210,-0.013390,0.013390*
1,1,0.012210,0.013390,0.013390*
1,1,0.012210,0.013390,-0.013390*
%
%AMM189*
21,1,0.033070,0.030710,-0.000000,-0.000000,270.000000*
21,1,0.022050,0.041730,-0.000000,-0.000000,270.000000*
1,1,0.011020,0.015350,0.011020*
1,1,0.011020,0.015350,-0.011020*
1,1,0.011020,-0.015350,-0.011020*
1,1,0.011020,-0.015350,0.011020*
%
%AMM190*
21,1,0.092130,0.073230,-0.000000,-0.000000,90.000000*
21,1,0.069290,0.096060,-0.000000,-0.000000,90.000000*
1,1,0.022840,-0.036610,-0.034650*
1,1,0.022840,-0.036610,0.034650*
1,1,0.022840,0.036610,0.034650*
1,1,0.022840,0.036610,-0.034650*
%
%AMM191*
21,1,0.038980,0.026770,-0.000000,-0.000000,0.000000*
21,1,0.026770,0.038980,-0.000000,-0.000000,0.000000*
1,1,0.012210,-0.013390,0.013390*
1,1,0.012210,0.013390,0.013390*
1,1,0.012210,0.013390,-0.013390*
1,1,0.012210,-0.013390,-0.013390*
%
%AMM192*
21,1,0.033070,0.030710,-0.000000,-0.000000,180.000000*
21,1,0.022050,0.041730,-0.000000,-0.000000,180.000000*
1,1,0.011020,0.011020,-0.015350*
1,1,0.011020,-0.011020,-0.015350*
1,1,0.011020,-0.011020,0.015350*
1,1,0.011020,0.011020,0.015350*
%
%AMM193*
21,1,0.044880,0.049210,-0.000000,-0.000000,270.000000*
21,1,0.031500,0.062600,-0.000000,-0.000000,270.000000*
1,1,0.013390,0.024610,0.015750*
1,1,0.013390,0.024610,-0.015750*
1,1,0.013390,-0.024610,-0.015750*
1,1,0.013390,-0.024610,0.015750*
%
%AMM194*
21,1,0.023230,0.027950,-0.000000,-0.000000,180.000000*
21,1,0.014170,0.037010,-0.000000,-0.000000,180.000000*
1,1,0.009060,0.007090,-0.013980*
1,1,0.009060,-0.007090,-0.013980*
1,1,0.009060,-0.007090,0.013980*
1,1,0.009060,0.007090,0.013980*
%
%AMM195*
21,1,0.038980,0.026770,-0.000000,-0.000000,90.000000*
21,1,0.026770,0.038980,-0.000000,-0.000000,90.000000*
1,1,0.012210,-0.013390,-0.013390*
1,1,0.012210,-0.013390,0.013390*
1,1,0.012210,0.013390,0.013390*
1,1,0.012210,0.013390,-0.013390*
%
%AMM196*
21,1,0.029130,0.030710,-0.000000,-0.000000,270.000000*
21,1,0.018900,0.040950,-0.000000,-0.000000,270.000000*
1,1,0.010240,0.015350,0.009450*
1,1,0.010240,0.015350,-0.009450*
1,1,0.010240,-0.015350,-0.009450*
1,1,0.010240,-0.015350,0.009450*
%
%AMM197*
21,1,0.031100,0.026380,-0.000000,-0.000000,180.000000*
21,1,0.020470,0.037010,-0.000000,-0.000000,180.000000*
1,1,0.010630,0.010240,-0.013190*
1,1,0.010630,-0.010240,-0.013190*
1,1,0.010630,-0.010240,0.013190*
1,1,0.010630,0.010240,0.013190*
%
%AMM198*
21,1,0.044880,0.049210,-0.000000,-0.000000,0.000000*
21,1,0.031500,0.062600,-0.000000,-0.000000,0.000000*
1,1,0.013390,-0.015750,0.024610*
1,1,0.013390,0.015750,0.024610*
1,1,0.013390,0.015750,-0.024610*
1,1,0.013390,-0.015750,-0.024610*
%
%AMM199*
21,1,0.040950,0.050000,-0.000000,-0.000000,90.000000*
21,1,0.028350,0.062600,-0.000000,-0.000000,90.000000*
1,1,0.012600,-0.025000,-0.014170*
1,1,0.012600,-0.025000,0.014170*
1,1,0.012600,0.025000,0.014170*
1,1,0.012600,0.025000,-0.014170*
%
%AMM208*
21,1,0.038980,0.026770,-0.000000,-0.000000,180.000000*
21,1,0.026770,0.038980,-0.000000,-0.000000,180.000000*
1,1,0.012210,0.013390,-0.013390*
1,1,0.012210,-0.013390,-0.013390*
1,1,0.012210,-0.013390,0.013390*
1,1,0.012210,0.013390,0.013390*
%
%AMM209*
21,1,0.033070,0.030710,-0.000000,-0.000000,90.000000*
21,1,0.022050,0.041730,-0.000000,-0.000000,90.000000*
1,1,0.011020,-0.015350,-0.011020*
1,1,0.011020,-0.015350,0.011020*
1,1,0.011020,0.015350,0.011020*
1,1,0.011020,0.015350,-0.011020*
%
%AMM239*
21,1,0.040950,0.030320,-0.000000,0.000000,0.000000*
21,1,0.028350,0.042910,-0.000000,0.000000,0.000000*
1,1,0.012600,-0.015160,-0.014170*
1,1,0.012600,-0.015160,0.014170*
1,1,0.012600,0.015160,0.014170*
1,1,0.012600,0.015160,-0.014170*
%
%AMM241*
21,1,0.033070,0.030710,-0.000000,0.000000,270.000000*
21,1,0.022050,0.041730,-0.000000,0.000000,270.000000*
1,1,0.011020,-0.011020,0.015350*
1,1,0.011020,0.011020,0.015350*
1,1,0.011020,0.011020,-0.015350*
1,1,0.011020,-0.011020,-0.015350*
%
%AMM279*
21,1,0.041340,0.026770,-0.000000,-0.000000,0.000000*
21,1,0.029130,0.038980,-0.000000,-0.000000,0.000000*
1,1,0.012210,-0.014570,0.013390*
1,1,0.012210,0.014570,0.013390*
1,1,0.012210,0.014570,-0.013390*
1,1,0.012210,-0.014570,-0.013390*
%
%AMM280*
21,1,0.040950,0.030320,-0.000000,-0.000000,0.000000*
21,1,0.028350,0.042910,-0.000000,-0.000000,0.000000*
1,1,0.012600,-0.014170,0.015160*
1,1,0.012600,0.014170,0.015160*
1,1,0.012600,0.014170,-0.015160*
1,1,0.012600,-0.014170,-0.015160*
%
%AMM281*
21,1,0.040950,0.030320,-0.000000,-0.000000,90.000000*
21,1,0.028350,0.042910,-0.000000,-0.000000,90.000000*
1,1,0.012600,-0.015160,-0.014170*
1,1,0.012600,-0.015160,0.014170*
1,1,0.012600,0.015160,0.014170*
1,1,0.012600,0.015160,-0.014170*
%
%AMM282*
21,1,0.044880,0.035430,-0.000000,-0.000000,90.000000*
21,1,0.031500,0.048820,-0.000000,-0.000000,90.000000*
1,1,0.013390,-0.017720,-0.015750*
1,1,0.013390,-0.017720,0.015750*
1,1,0.013390,0.017720,0.015750*
1,1,0.013390,0.017720,-0.015750*
%
%AMM283*
21,1,0.033070,0.030710,-0.000000,-0.000000,0.000000*
21,1,0.022050,0.041730,-0.000000,-0.000000,0.000000*
1,1,0.011020,-0.011020,0.015350*
1,1,0.011020,0.011020,0.015350*
1,1,0.011020,0.011020,-0.015350*
1,1,0.011020,-0.011020,-0.015350*
%
%AMM284*
21,1,0.029130,0.030710,-0.000000,-0.000000,0.000000*
21,1,0.018900,0.040950,-0.000000,-0.000000,0.000000*
1,1,0.010240,-0.009450,0.015350*
1,1,0.010240,0.009450,0.015350*
1,1,0.010240,0.009450,-0.015350*
1,1,0.010240,-0.009450,-0.015350*
%
%AMM285*
21,1,0.041340,0.026770,-0.000000,-0.000000,90.000000*
21,1,0.029130,0.038980,-0.000000,-0.000000,90.000000*
1,1,0.012210,-0.013390,-0.014570*
1,1,0.012210,-0.013390,0.014570*
1,1,0.012210,0.013390,0.014570*
1,1,0.012210,0.013390,-0.014570*
%
%AMM286*
21,1,0.033070,0.049610,-0.000000,-0.000000,90.000000*
21,1,0.022050,0.060630,-0.000000,-0.000000,90.000000*
1,1,0.011020,-0.024800,-0.011020*
1,1,0.011020,-0.024800,0.011020*
1,1,0.011020,0.024800,0.011020*
1,1,0.011020,0.024800,-0.011020*
%
%AMM287*
21,1,0.033070,0.018900,-0.000000,-0.000000,0.000000*
21,1,0.022840,0.029130,-0.000000,-0.000000,0.000000*
1,1,0.010240,-0.011420,0.009450*
1,1,0.010240,0.011420,0.009450*
1,1,0.010240,0.011420,-0.009450*
1,1,0.010240,-0.011420,-0.009450*
%
%AMM288*
21,1,0.023230,0.027950,-0.000000,-0.000000,90.000000*
21,1,0.014170,0.037010,-0.000000,-0.000000,90.000000*
1,1,0.009060,-0.013980,-0.007090*
1,1,0.009060,-0.013980,0.007090*
1,1,0.009060,0.013980,0.007090*
1,1,0.009060,0.013980,-0.007090*
%
%AMM289*
21,1,0.031100,0.026380,-0.000000,-0.000000,90.000000*
21,1,0.020470,0.037010,-0.000000,-0.000000,90.000000*
1,1,0.010630,-0.013190,-0.010240*
1,1,0.010630,-0.013190,0.010240*
1,1,0.010630,0.013190,0.010240*
1,1,0.010630,0.013190,-0.010240*
%
%AMM290*
21,1,0.048820,0.075990,-0.000000,-0.000000,180.000000*
21,1,0.034650,0.090160,-0.000000,-0.000000,180.000000*
1,1,0.014170,0.017320,-0.037990*
1,1,0.014170,-0.017320,-0.037990*
1,1,0.014170,-0.017320,0.037990*
1,1,0.014170,0.017320,0.037990*
%
%AMM291*
21,1,0.048820,0.075980,-0.000000,-0.000000,180.000000*
21,1,0.034650,0.090160,-0.000000,-0.000000,180.000000*
1,1,0.014170,0.017320,-0.037990*
1,1,0.014170,-0.017320,-0.037990*
1,1,0.014170,-0.017320,0.037990*
1,1,0.014170,0.017320,0.037990*
%
%AMM292*
21,1,0.143310,0.067720,-0.000000,-0.000000,180.000000*
21,1,0.120870,0.090160,-0.000000,-0.000000,180.000000*
1,1,0.022440,0.060430,-0.033860*
1,1,0.022440,-0.060430,-0.033860*
1,1,0.022440,-0.060430,0.033860*
1,1,0.022440,0.060430,0.033860*
%
%AMM293*
21,1,0.015350,0.017720,-0.000000,-0.000000,0.000000*
21,1,0.000000,0.033070,-0.000000,-0.000000,0.000000*
1,1,0.015350,0.000000,0.008860*
1,1,0.015350,0.000000,0.008860*
1,1,0.015350,0.000000,-0.008860*
1,1,0.015350,0.000000,-0.008860*
%
%AMM308*
21,1,0.076380,0.036220,-0.000000,0.000000,270.000000*
21,1,0.061810,0.050790,-0.000000,0.000000,270.000000*
1,1,0.014570,-0.030910,0.018110*
1,1,0.014570,0.030910,0.018110*
1,1,0.014570,0.030910,-0.018110*
1,1,0.014570,-0.030910,-0.018110*
%
%AMM310*
21,1,0.041340,0.026770,-0.000000,0.000000,180.000000*
21,1,0.029130,0.038980,-0.000000,0.000000,180.000000*
1,1,0.012210,0.013390,0.014570*
1,1,0.012210,0.013390,-0.014570*
1,1,0.012210,-0.013390,-0.014570*
1,1,0.012210,-0.013390,0.014570*
%
%AMM329*
21,1,0.040950,0.030320,-0.000000,-0.000000,270.000000*
21,1,0.028350,0.042910,-0.000000,-0.000000,270.000000*
1,1,0.012600,0.015160,0.014170*
1,1,0.012600,0.015160,-0.014170*
1,1,0.012600,-0.015160,-0.014170*
1,1,0.012600,-0.015160,0.014170*
%
%AMM330*
21,1,0.076380,0.036220,-0.000000,-0.000000,0.000000*
21,1,0.061810,0.050790,-0.000000,-0.000000,0.000000*
1,1,0.014570,-0.030910,0.018110*
1,1,0.014570,0.030910,0.018110*
1,1,0.014570,0.030910,-0.018110*
1,1,0.014570,-0.030910,-0.018110*
%
%AMM331*
21,1,0.076380,0.036220,-0.000000,-0.000000,90.000000*
21,1,0.061810,0.050790,-0.000000,-0.000000,90.000000*
1,1,0.014570,-0.018110,-0.030910*
1,1,0.014570,-0.018110,0.030910*
1,1,0.014570,0.018110,0.030910*
1,1,0.014570,0.018110,-0.030910*
%
%AMM332*
21,1,0.143310,0.067720,-0.000000,-0.000000,0.000000*
21,1,0.120870,0.090160,-0.000000,-0.000000,0.000000*
1,1,0.022440,-0.060430,0.033860*
1,1,0.022440,0.060430,0.033860*
1,1,0.022440,0.060430,-0.033860*
1,1,0.022440,-0.060430,-0.033860*
%
%AMM333*
21,1,0.041340,0.026770,-0.000000,-0.000000,270.000000*
21,1,0.029130,0.038980,-0.000000,-0.000000,270.000000*
1,1,0.012210,0.013390,0.014570*
1,1,0.012210,0.013390,-0.014570*
1,1,0.012210,-0.013390,-0.014570*
1,1,0.012210,-0.013390,0.014570*
%
%AMM334*
21,1,0.048820,0.075990,-0.000000,-0.000000,0.000000*
21,1,0.034650,0.090160,-0.000000,-0.000000,0.000000*
1,1,0.014170,-0.017320,0.037990*
1,1,0.014170,0.017320,0.037990*
1,1,0.014170,0.017320,-0.037990*
1,1,0.014170,-0.017320,-0.037990*
%
%AMM335*
21,1,0.048820,0.075980,-0.000000,-0.000000,0.000000*
21,1,0.034650,0.090160,-0.000000,-0.000000,0.000000*
1,1,0.014170,-0.017320,0.037990*
1,1,0.014170,0.017320,0.037990*
1,1,0.014170,0.017320,-0.037990*
1,1,0.014170,-0.017320,-0.037990*
%
%AMM336*
21,1,0.023230,0.027950,-0.000000,-0.000000,270.000000*
21,1,0.014170,0.037010,-0.000000,-0.000000,270.000000*
1,1,0.009060,0.013980,0.007090*
1,1,0.009060,0.013980,-0.007090*
1,1,0.009060,-0.013980,-0.007090*
1,1,0.009060,-0.013980,0.007090*
%
%AMM337*
21,1,0.031100,0.026380,-0.000000,-0.000000,270.000000*
21,1,0.020470,0.037010,-0.000000,-0.000000,270.000000*
1,1,0.010630,0.013190,0.010240*
1,1,0.010630,0.013190,-0.010240*
1,1,0.010630,-0.013190,-0.010240*
1,1,0.010630,-0.013190,0.010240*
%
%AMM34*
21,1,0.033070,0.030710,0.000000,0.000000,270.000000*
21,1,0.022050,0.041730,0.000000,0.000000,270.000000*
1,1,0.011020,-0.015350,-0.011020*
1,1,0.011020,-0.015350,0.011020*
1,1,0.011020,0.015350,0.011020*
1,1,0.011020,0.015350,-0.011020*
%
%AMM350*
21,1,0.040950,0.030320,-0.000000,0.000000,90.000000*
21,1,0.028350,0.042910,-0.000000,0.000000,90.000000*
1,1,0.012600,0.014170,-0.015160*
1,1,0.012600,-0.014170,-0.015160*
1,1,0.012600,-0.014170,0.015160*
1,1,0.012600,0.014170,0.015160*
%
%AMM351*
21,1,0.041340,0.026770,-0.000000,0.000000,90.000000*
21,1,0.029130,0.038980,-0.000000,0.000000,90.000000*
1,1,0.012210,0.014570,-0.013390*
1,1,0.012210,-0.014570,-0.013390*
1,1,0.012210,-0.014570,0.013390*
1,1,0.012210,0.014570,0.013390*
%
%AMM355*
21,1,0.040950,0.030320,0.000000,-0.000000,90.000000*
21,1,0.028350,0.042910,0.000000,-0.000000,90.000000*
1,1,0.012600,-0.014170,0.015160*
1,1,0.012600,0.014170,0.015160*
1,1,0.012600,0.014170,-0.015160*
1,1,0.012600,-0.014170,-0.015160*
%
%AMM356*
21,1,0.038980,0.026770,0.000000,-0.000000,270.000000*
21,1,0.026770,0.038980,0.000000,-0.000000,270.000000*
1,1,0.012210,0.013390,-0.013390*
1,1,0.012210,-0.013390,-0.013390*
1,1,0.012210,-0.013390,0.013390*
1,1,0.012210,0.013390,0.013390*
%
%AMM357*
21,1,0.033070,0.030710,0.000000,-0.000000,90.000000*
21,1,0.022050,0.041730,0.000000,-0.000000,90.000000*
1,1,0.011020,-0.011020,0.015350*
1,1,0.011020,0.011020,0.015350*
1,1,0.011020,0.011020,-0.015350*
1,1,0.011020,-0.011020,-0.015350*
%
%AMM361*
21,1,0.027170,0.052760,-0.000000,-0.000000,90.000000*
21,1,0.017320,0.062600,-0.000000,-0.000000,90.000000*
1,1,0.009840,-0.026380,-0.008660*
1,1,0.009840,-0.026380,0.008660*
1,1,0.009840,0.026380,0.008660*
1,1,0.009840,0.026380,-0.008660*
%
%AMM369*
21,1,0.029130,0.018900,-0.000000,0.000000,270.000000*
21,1,0.018900,0.029130,-0.000000,0.000000,270.000000*
1,1,0.010240,-0.009450,0.009450*
1,1,0.010240,0.009450,0.009450*
1,1,0.010240,0.009450,-0.009450*
1,1,0.010240,-0.009450,-0.009450*
%
%AMM370*
21,1,0.029130,0.018900,-0.000000,0.000000,0.000000*
21,1,0.018900,0.029130,-0.000000,0.000000,0.000000*
1,1,0.010240,-0.009450,-0.009450*
1,1,0.010240,-0.009450,0.009450*
1,1,0.010240,0.009450,0.009450*
1,1,0.010240,0.009450,-0.009450*
%
%AMM371*
21,1,0.100000,0.111020,-0.000000,0.000000,270.000000*
21,1,0.075590,0.135430,-0.000000,0.000000,270.000000*
1,1,0.024410,-0.037800,0.055510*
1,1,0.024410,0.037800,0.055510*
1,1,0.024410,0.037800,-0.055510*
1,1,0.024410,-0.037800,-0.055510*
%
%AMM372*
21,1,0.056690,0.068500,-0.000000,0.000000,270.000000*
21,1,0.040950,0.084250,-0.000000,0.000000,270.000000*
1,1,0.015750,-0.020470,0.034250*
1,1,0.015750,0.020470,0.034250*
1,1,0.015750,0.020470,-0.034250*
1,1,0.015750,-0.020470,-0.034250*
%
%AMM373*
21,1,0.084250,0.070870,-0.000000,0.000000,0.000000*
21,1,0.062990,0.092130,-0.000000,0.000000,0.000000*
1,1,0.021260,-0.035430,-0.031500*
1,1,0.021260,-0.035430,0.031500*
1,1,0.021260,0.035430,0.031500*
1,1,0.021260,0.035430,-0.031500*
%
%AMM374*
21,1,0.038980,0.026770,-0.000000,0.000000,180.000000*
21,1,0.026770,0.038980,-0.000000,0.000000,180.000000*
1,1,0.012210,0.013390,0.013390*
1,1,0.012210,0.013390,-0.013390*
1,1,0.012210,-0.013390,-0.013390*
1,1,0.012210,-0.013390,0.013390*
%
%AMM380*
21,1,0.111810,0.050390,-0.000000,0.000000,90.000000*
21,1,0.093700,0.068500,-0.000000,0.000000,90.000000*
1,1,0.018110,0.046850,-0.025200*
1,1,0.018110,-0.046850,-0.025200*
1,1,0.018110,-0.046850,0.025200*
1,1,0.018110,0.046850,0.025200*
%
%AMM381*
21,1,0.092130,0.073230,-0.000000,0.000000,180.000000*
21,1,0.069290,0.096060,-0.000000,0.000000,180.000000*
1,1,0.022840,0.036610,0.034650*
1,1,0.022840,0.036610,-0.034650*
1,1,0.022840,-0.036610,-0.034650*
1,1,0.022840,-0.036610,0.034650*
%
%AMM382*
21,1,0.084250,0.053540,-0.000000,0.000000,270.000000*
21,1,0.065350,0.072440,-0.000000,0.000000,270.000000*
1,1,0.018900,-0.032680,0.026770*
1,1,0.018900,0.032680,0.026770*
1,1,0.018900,0.032680,-0.026770*
1,1,0.018900,-0.032680,-0.026770*
%
%AMM383*
21,1,0.127560,0.075590,-0.000000,0.000000,0.000000*
21,1,0.103150,0.100000,-0.000000,0.000000,0.000000*
1,1,0.024410,-0.037800,-0.051580*
1,1,0.024410,-0.037800,0.051580*
1,1,0.024410,0.037800,0.051580*
1,1,0.024410,0.037800,-0.051580*
%
%AMM384*
21,1,0.080320,0.083460,-0.000000,0.000000,270.000000*
21,1,0.059840,0.103940,-0.000000,0.000000,270.000000*
1,1,0.020470,-0.029920,0.041730*
1,1,0.020470,0.029920,0.041730*
1,1,0.020470,0.029920,-0.041730*
1,1,0.020470,-0.029920,-0.041730*
%
%AMM80*
21,1,0.084250,0.045670,0.000000,0.000000,270.000000*
21,1,0.067320,0.062600,0.000000,0.000000,270.000000*
1,1,0.016930,-0.022840,-0.033660*
1,1,0.016930,-0.022840,0.033660*
1,1,0.016930,0.022840,0.033660*
1,1,0.016930,0.022840,-0.033660*
%
%AMM81*
21,1,0.064570,0.020470,0.000000,0.000000,270.000000*
21,1,0.053940,0.031100,0.000000,0.000000,270.000000*
1,1,0.010630,-0.010240,-0.026970*
1,1,0.010630,-0.010240,0.026970*
1,1,0.010630,0.010240,0.026970*
1,1,0.010630,0.010240,-0.026970*
%
%AMM82*
21,1,0.038980,0.026770,0.000000,0.000000,90.000000*
21,1,0.026770,0.038980,0.000000,0.000000,90.000000*
1,1,0.012210,0.013390,0.013390*
1,1,0.012210,0.013390,-0.013390*
1,1,0.012210,-0.013390,-0.013390*
1,1,0.012210,-0.013390,0.013390*
%
%ADD111C,0.03651*%
%ADD112C,0.04451*%
%ADD115O,0.01969X0.00984*%
%ADD128C,0.07087*%
%ADD136M82*%
%ADD142O,0.03937X0.05906*%
%ADD143C,0.02362*%
%ADD152C,0.13780*%
%ADD156R,0.01476X0.01378*%
%ADD158O,0.01969X0.00787*%
%ADD159O,0.06693X0.06693*%
%ADD165O,0.03701X0.02913*%
%ADD177C,0.05512*%
%ADD187O,0.06693X0.07283*%
%ADD191O,0.01417X0.05669*%
%ADD196C,0.04286*%
%ADD198R,0.05512X0.05512*%
%ADD205O,0.04488X0.06457*%
%ADD209C,0.13000*%
%ADD218O,0.00984X0.01969*%
%ADD22M81*%
%ADD225C,0.03701*%
%ADD233O,0.05669X0.01417*%
%ADD234C,0.05906*%
%ADD242R,0.01378X0.01476*%
%ADD245O,0.09213X0.02913*%
%ADD252R,0.06457X0.05669*%
%ADD254R,0.10236X0.14173*%
%ADD255C,0.06457*%
%ADD260O,0.03150X0.02362*%
%ADD265O,0.02913X0.09213*%
%ADD272C,0.06000*%
%ADD282C,0.27559*%
%ADD288O,0.02520X0.01535*%
%ADD290R,0.06457X0.06457*%
%ADD291R,0.04331X0.04331*%
%ADD298C,0.04331*%
%ADD309O,0.09449X0.04331*%
%ADD312C,0.03486*%
%ADD322O,0.00787X0.01575*%
%ADD330M34*%
%ADD359M160*%
%ADD36O,0.02520X0.04488*%
%ADD361M162*%
%ADD362M163*%
%ADD363M164*%
%ADD365M166*%
%ADD388M189*%
%ADD389M190*%
%ADD390M191*%
%ADD391M192*%
%ADD392M193*%
%ADD393M194*%
%ADD394M195*%
%ADD395M196*%
%ADD396M197*%
%ADD397M198*%
%ADD398M199*%
%ADD411M208*%
%ADD412M209*%
%ADD43C,0.06693*%
%ADD445M239*%
%ADD449M241*%
%ADD45C,0.07874*%
%ADD488M279*%
%ADD489M280*%
%ADD49R,0.07244X0.10000*%
%ADD490M281*%
%ADD491M282*%
%ADD492M283*%
%ADD493M284*%
%ADD494M285*%
%ADD495M286*%
%ADD496M287*%
%ADD497M288*%
%ADD498M289*%
%ADD499M290*%
%ADD500M291*%
%ADD501M292*%
%ADD502M293*%
%ADD51R,0.06693X0.06693*%
%ADD52M80*%
%ADD532M308*%
%ADD534M310*%
%ADD553M329*%
%ADD554M330*%
%ADD555M331*%
%ADD556M332*%
%ADD557M333*%
%ADD558M334*%
%ADD559M335*%
%ADD560M336*%
%ADD561M337*%
%ADD57O,0.01339X0.02126*%
%ADD575M350*%
%ADD576O,0.11772X0.04567*%
%ADD577M351*%
%ADD581M355*%
%ADD582M356*%
%ADD583M357*%
%ADD587M361*%
%ADD598M369*%
%ADD599M370*%
%ADD600O,0.02520X0.01339*%
%ADD601M371*%
%ADD602M372*%
%ADD603M373*%
%ADD604M374*%
%ADD613M380*%
%ADD614M381*%
%ADD615M382*%
%ADD616O,0.02520X0.09213*%
%ADD617M383*%
%ADD618M384*%
%ADD62O,0.04882X0.01732*%
%ADD68O,0.05512X0.01535*%
%ADD69O,0.01969X0.03937*%
%ADD73O,0.01535X0.02520*%
%ADD83C,0.11811*%
%ADD86R,0.04724X0.09843*%
%ADD87O,0.04488X0.02520*%
%ADD95C,0.02913*%
X0000000Y0000000D02*
%LPD*%
G01*
G36*
G01*
X0205360Y0474059D02*
X0205360Y0477129D01*
G75*
G02*
X0205635Y0477405I0000276J0000000D01*
G01*
X0207840Y0477405D01*
G75*
G02*
X0208116Y0477129I0000000J-000276D01*
G01*
X0208116Y0474059D01*
G75*
G02*
X0207840Y0473783I-000276J0000000D01*
G01*
X0205635Y0473783D01*
G75*
G02*
X0205360Y0474059I0000000J0000276D01*
G01*
G37*
G36*
G01*
X0211659Y0474059D02*
X0211659Y0477129D01*
G75*
G02*
X0211934Y0477405I0000276J0000000D01*
G01*
X0214139Y0477405D01*
G75*
G02*
X0214415Y0477129I0000000J-000276D01*
G01*
X0214415Y0474059D01*
G75*
G02*
X0214139Y0473783I-000276J0000000D01*
G01*
X0211934Y0473783D01*
G75*
G02*
X0211659Y0474059I0000000J0000276D01*
G01*
G37*
G36*
G01*
X0446697Y0463406D02*
X0446697Y0466476D01*
G75*
G02*
X0446972Y0466752I0000276J0000000D01*
G01*
X0449177Y0466752D01*
G75*
G02*
X0449453Y0466476I0000000J-000276D01*
G01*
X0449453Y0463406D01*
G75*
G02*
X0449177Y0463130I-000276J0000000D01*
G01*
X0446972Y0463130D01*
G75*
G02*
X0446697Y0463406I0000000J0000276D01*
G01*
G37*
G36*
G01*
X0452996Y0463406D02*
X0452996Y0466476D01*
G75*
G02*
X0453271Y0466752I0000276J0000000D01*
G01*
X0455476Y0466752D01*
G75*
G02*
X0455752Y0466476I0000000J-000276D01*
G01*
X0455752Y0463406D01*
G75*
G02*
X0455476Y0463130I-000276J0000000D01*
G01*
X0453271Y0463130D01*
G75*
G02*
X0452996Y0463406I0000000J0000276D01*
G01*
G37*
G36*
G01*
X0432287Y0461024D02*
X0429216Y0461024D01*
G75*
G02*
X0428941Y0461299I0000000J0000276D01*
G01*
X0428941Y0463504D01*
G75*
G02*
X0429216Y0463780I0000276J0000000D01*
G01*
X0432287Y0463780D01*
G75*
G02*
X0432563Y0463504I0000000J-000276D01*
G01*
X0432563Y0461299D01*
G75*
G02*
X0432287Y0461024I-000276J0000000D01*
G01*
G37*
G36*
G01*
X0432287Y0467323D02*
X0429216Y0467323D01*
G75*
G02*
X0428941Y0467598I0000000J0000276D01*
G01*
X0428941Y0469803D01*
G75*
G02*
X0429216Y0470079I0000276J0000000D01*
G01*
X0432287Y0470079D01*
G75*
G02*
X0432563Y0469803I0000000J-000276D01*
G01*
X0432563Y0467598D01*
G75*
G02*
X0432287Y0467323I-000276J0000000D01*
G01*
G37*
D143*
X0297507Y0092873D03*
X0303708Y0073562D03*
X0353724Y0073597D03*
X0320342Y0070924D03*
X0324968Y0070924D03*
X0333531Y0070924D03*
X0342291Y0070924D03*
G36*
G01*
X0315497Y0299078D02*
X0315497Y0301716D01*
G75*
G02*
X0315753Y0301972I0000256J0000000D01*
G01*
X0317801Y0301972D01*
G75*
G02*
X0318057Y0301716I0000000J-000256D01*
G01*
X0318057Y0299078D01*
G75*
G02*
X0317801Y0298822I-000256J0000000D01*
G01*
X0315753Y0298822D01*
G75*
G02*
X0315497Y0299078I0000000J0000256D01*
G01*
G37*
G36*
G01*
X0319336Y0299000D02*
X0319336Y0301795D01*
G75*
G02*
X0319513Y0301972I0000177J0000000D01*
G01*
X0320931Y0301972D01*
G75*
G02*
X0321108Y0301795I0000000J-000177D01*
G01*
X0321108Y0299000D01*
G75*
G02*
X0320931Y0298822I-000177J0000000D01*
G01*
X0319513Y0298822D01*
G75*
G02*
X0319336Y0299000I0000000J0000177D01*
G01*
G37*
G36*
G01*
X0322486Y0299000D02*
X0322486Y0301795D01*
G75*
G02*
X0322663Y0301972I0000177J0000000D01*
G01*
X0324080Y0301972D01*
G75*
G02*
X0324257Y0301795I0000000J-000177D01*
G01*
X0324257Y0299000D01*
G75*
G02*
X0324080Y0298822I-000177J0000000D01*
G01*
X0322663Y0298822D01*
G75*
G02*
X0322486Y0299000I0000000J0000177D01*
G01*
G37*
G36*
G01*
X0325537Y0299078D02*
X0325537Y0301716D01*
G75*
G02*
X0325793Y0301972I0000256J0000000D01*
G01*
X0327840Y0301972D01*
G75*
G02*
X0328096Y0301716I0000000J-000256D01*
G01*
X0328096Y0299078D01*
G75*
G02*
X0327840Y0298822I-000256J0000000D01*
G01*
X0325793Y0298822D01*
G75*
G02*
X0325537Y0299078I0000000J0000256D01*
G01*
G37*
G36*
G01*
X0325537Y0306165D02*
X0325537Y0308803D01*
G75*
G02*
X0325793Y0309059I0000256J0000000D01*
G01*
X0327840Y0309059D01*
G75*
G02*
X0328096Y0308803I0000000J-000256D01*
G01*
X0328096Y0306165D01*
G75*
G02*
X0327840Y0305909I-000256J0000000D01*
G01*
X0325793Y0305909D01*
G75*
G02*
X0325537Y0306165I0000000J0000256D01*
G01*
G37*
G36*
G01*
X0322486Y0306086D02*
X0322486Y0308881D01*
G75*
G02*
X0322663Y0309059I0000177J0000000D01*
G01*
X0324080Y0309059D01*
G75*
G02*
X0324257Y0308881I0000000J-000177D01*
G01*
X0324257Y0306086D01*
G75*
G02*
X0324080Y0305909I-000177J0000000D01*
G01*
X0322663Y0305909D01*
G75*
G02*
X0322486Y0306086I0000000J0000177D01*
G01*
G37*
G36*
G01*
X0319336Y0306086D02*
X0319336Y0308881D01*
G75*
G02*
X0319513Y0309059I0000177J0000000D01*
G01*
X0320931Y0309059D01*
G75*
G02*
X0321108Y0308881I0000000J-000177D01*
G01*
X0321108Y0306086D01*
G75*
G02*
X0320931Y0305909I-000177J0000000D01*
G01*
X0319513Y0305909D01*
G75*
G02*
X0319336Y0306086I0000000J0000177D01*
G01*
G37*
G36*
G01*
X0315497Y0306165D02*
X0315497Y0308803D01*
G75*
G02*
X0315753Y0309059I0000256J0000000D01*
G01*
X0317801Y0309059D01*
G75*
G02*
X0318057Y0308803I0000000J-000256D01*
G01*
X0318057Y0306165D01*
G75*
G02*
X0317801Y0305909I-000256J0000000D01*
G01*
X0315753Y0305909D01*
G75*
G02*
X0315497Y0306165I0000000J0000256D01*
G01*
G37*
D115*
X0351810Y0365998D03*
X0351810Y0369443D03*
X0351810Y0372198D03*
X0421987Y0373970D03*
X0421987Y0364521D03*
G36*
G01*
X0206007Y0499409D02*
X0201085Y0499409D01*
G75*
G02*
X0200692Y0499803I0000000J0000394D01*
G01*
X0200692Y0502953D01*
G75*
G02*
X0201085Y0503346I0000394J0000000D01*
G01*
X0206007Y0503346D01*
G75*
G02*
X0206400Y0502953I0000000J-000394D01*
G01*
X0206400Y0499803D01*
G75*
G02*
X0206007Y0499409I-000394J0000000D01*
G01*
G37*
D272*
X0203546Y0497618D03*
G36*
G01*
X0206007Y0506890D02*
X0201085Y0506890D01*
G75*
G02*
X0200692Y0507284I0000000J0000394D01*
G01*
X0200692Y0510433D01*
G75*
G02*
X0201085Y0510827I0000394J0000000D01*
G01*
X0206007Y0510827D01*
G75*
G02*
X0206400Y0510433I0000000J-000394D01*
G01*
X0206400Y0507284D01*
G75*
G02*
X0206007Y0506890I-000394J0000000D01*
G01*
G37*
X0203546Y0512618D03*
D43*
X0256736Y0193720D03*
X0233508Y0530709D03*
G36*
G01*
X0292773Y0037322D02*
X0290135Y0037322D01*
G75*
G02*
X0289879Y0037578I0000000J0000256D01*
G01*
X0289879Y0039626D01*
G75*
G02*
X0290135Y0039881I0000256J0000000D01*
G01*
X0292773Y0039881D01*
G75*
G02*
X0293029Y0039626I0000000J-000256D01*
G01*
X0293029Y0037578D01*
G75*
G02*
X0292773Y0037322I-000256J0000000D01*
G01*
G37*
G36*
G01*
X0292852Y0041161D02*
X0290057Y0041161D01*
G75*
G02*
X0289879Y0041338I0000000J0000177D01*
G01*
X0289879Y0042755D01*
G75*
G02*
X0290057Y0042933I0000177J0000000D01*
G01*
X0292852Y0042933D01*
G75*
G02*
X0293029Y0042755I0000000J-000177D01*
G01*
X0293029Y0041338D01*
G75*
G02*
X0292852Y0041161I-000177J0000000D01*
G01*
G37*
G36*
G01*
X0292852Y0044311D02*
X0290057Y0044311D01*
G75*
G02*
X0289879Y0044488I0000000J0000177D01*
G01*
X0289879Y0045905D01*
G75*
G02*
X0290057Y0046082I0000177J0000000D01*
G01*
X0292852Y0046082D01*
G75*
G02*
X0293029Y0045905I0000000J-000177D01*
G01*
X0293029Y0044488D01*
G75*
G02*
X0292852Y0044311I-000177J0000000D01*
G01*
G37*
G36*
G01*
X0292773Y0047362D02*
X0290135Y0047362D01*
G75*
G02*
X0289879Y0047618I0000000J0000256D01*
G01*
X0289879Y0049665D01*
G75*
G02*
X0290135Y0049921I0000256J0000000D01*
G01*
X0292773Y0049921D01*
G75*
G02*
X0293029Y0049665I0000000J-000256D01*
G01*
X0293029Y0047618D01*
G75*
G02*
X0292773Y0047362I-000256J0000000D01*
G01*
G37*
G36*
G01*
X0285686Y0047362D02*
X0283049Y0047362D01*
G75*
G02*
X0282793Y0047618I0000000J0000256D01*
G01*
X0282793Y0049665D01*
G75*
G02*
X0283049Y0049921I0000256J0000000D01*
G01*
X0285686Y0049921D01*
G75*
G02*
X0285942Y0049665I0000000J-000256D01*
G01*
X0285942Y0047618D01*
G75*
G02*
X0285686Y0047362I-000256J0000000D01*
G01*
G37*
G36*
G01*
X0285765Y0044311D02*
X0282970Y0044311D01*
G75*
G02*
X0282793Y0044488I0000000J0000177D01*
G01*
X0282793Y0045905D01*
G75*
G02*
X0282970Y0046082I0000177J0000000D01*
G01*
X0285765Y0046082D01*
G75*
G02*
X0285942Y0045905I0000000J-000177D01*
G01*
X0285942Y0044488D01*
G75*
G02*
X0285765Y0044311I-000177J0000000D01*
G01*
G37*
G36*
G01*
X0285765Y0041161D02*
X0282970Y0041161D01*
G75*
G02*
X0282793Y0041338I0000000J0000177D01*
G01*
X0282793Y0042755D01*
G75*
G02*
X0282970Y0042933I0000177J0000000D01*
G01*
X0285765Y0042933D01*
G75*
G02*
X0285942Y0042755I0000000J-000177D01*
G01*
X0285942Y0041338D01*
G75*
G02*
X0285765Y0041161I-000177J0000000D01*
G01*
G37*
G36*
G01*
X0285686Y0037322D02*
X0283049Y0037322D01*
G75*
G02*
X0282793Y0037578I0000000J0000256D01*
G01*
X0282793Y0039626D01*
G75*
G02*
X0283049Y0039881I0000256J0000000D01*
G01*
X0285686Y0039881D01*
G75*
G02*
X0285942Y0039626I0000000J-000256D01*
G01*
X0285942Y0037578D01*
G75*
G02*
X0285686Y0037322I-000256J0000000D01*
G01*
G37*
G36*
G01*
X0464609Y0491563D02*
X0467680Y0491563D01*
G75*
G02*
X0467956Y0491288I0000000J-000276D01*
G01*
X0467956Y0489083D01*
G75*
G02*
X0467680Y0488807I-000276J0000000D01*
G01*
X0464609Y0488807D01*
G75*
G02*
X0464333Y0489083I0000000J0000276D01*
G01*
X0464333Y0491288D01*
G75*
G02*
X0464609Y0491563I0000276J0000000D01*
G01*
G37*
G36*
G01*
X0464609Y0485264D02*
X0467680Y0485264D01*
G75*
G02*
X0467956Y0484988I0000000J-000276D01*
G01*
X0467956Y0482784D01*
G75*
G02*
X0467680Y0482508I-000276J0000000D01*
G01*
X0464609Y0482508D01*
G75*
G02*
X0464333Y0482784I0000000J0000276D01*
G01*
X0464333Y0484988D01*
G75*
G02*
X0464609Y0485264I0000276J0000000D01*
G01*
G37*
D45*
X0251181Y0025197D03*
G36*
G01*
X0242937Y0135669D02*
X0242937Y0138346D01*
G75*
G02*
X0243271Y0138681I0000335J0000000D01*
G01*
X0245949Y0138681D01*
G75*
G02*
X0246283Y0138346I0000000J-000335D01*
G01*
X0246283Y0135669D01*
G75*
G02*
X0245949Y0135335I-000335J0000000D01*
G01*
X0243271Y0135335D01*
G75*
G02*
X0242937Y0135669I0000000J0000335D01*
G01*
G37*
G36*
G01*
X0249157Y0135669D02*
X0249157Y0138346D01*
G75*
G02*
X0249492Y0138681I0000335J0000000D01*
G01*
X0252169Y0138681D01*
G75*
G02*
X0252504Y0138346I0000000J-000335D01*
G01*
X0252504Y0135669D01*
G75*
G02*
X0252169Y0135335I-000335J0000000D01*
G01*
X0249492Y0135335D01*
G75*
G02*
X0249157Y0135669I0000000J0000335D01*
G01*
G37*
D51*
X0197844Y0332732D03*
D159*
X0197844Y0322732D03*
X0187844Y0332732D03*
X0187844Y0322732D03*
X0177844Y0332732D03*
X0177844Y0322732D03*
D43*
X0080000Y0220000D03*
X0080000Y0230000D03*
X0080000Y0240000D03*
X0080000Y0250000D03*
X0080000Y0260000D03*
X0090000Y0220000D03*
X0090000Y0230000D03*
X0090000Y0240000D03*
X0090000Y0250000D03*
X0090000Y0260000D03*
X0100000Y0220000D03*
X0100000Y0230000D03*
X0100000Y0240000D03*
X0100000Y0250000D03*
X0100000Y0260000D03*
D272*
X0454374Y0487382D03*
G36*
G01*
X0451913Y0485591D02*
X0456834Y0485591D01*
G75*
G02*
X0457228Y0485197I0000000J-000394D01*
G01*
X0457228Y0482047D01*
G75*
G02*
X0456834Y0481654I-000394J0000000D01*
G01*
X0451913Y0481654D01*
G75*
G02*
X0451520Y0482047I0000000J0000394D01*
G01*
X0451520Y0485197D01*
G75*
G02*
X0451913Y0485591I0000394J0000000D01*
G01*
G37*
X0454374Y0472382D03*
G36*
G01*
X0451913Y0478110D02*
X0456834Y0478110D01*
G75*
G02*
X0457228Y0477716I0000000J-000394D01*
G01*
X0457228Y0474567D01*
G75*
G02*
X0456834Y0474173I-000394J0000000D01*
G01*
X0451913Y0474173D01*
G75*
G02*
X0451520Y0474567I0000000J0000394D01*
G01*
X0451520Y0477716D01*
G75*
G02*
X0451913Y0478110I0000394J0000000D01*
G01*
G37*
G36*
G01*
X0147386Y0499409D02*
X0142464Y0499409D01*
G75*
G02*
X0142071Y0499803I0000000J0000394D01*
G01*
X0142071Y0502953D01*
G75*
G02*
X0142464Y0503346I0000394J0000000D01*
G01*
X0147386Y0503346D01*
G75*
G02*
X0147779Y0502953I0000000J-000394D01*
G01*
X0147779Y0499803D01*
G75*
G02*
X0147386Y0499409I-000394J0000000D01*
G01*
G37*
X0144925Y0497618D03*
X0144925Y0512618D03*
G36*
G01*
X0147386Y0506890D02*
X0142464Y0506890D01*
G75*
G02*
X0142071Y0507284I0000000J0000394D01*
G01*
X0142071Y0510433D01*
G75*
G02*
X0142464Y0510827I0000394J0000000D01*
G01*
X0147386Y0510827D01*
G75*
G02*
X0147779Y0510433I0000000J-000394D01*
G01*
X0147779Y0507284D01*
G75*
G02*
X0147386Y0506890I-000394J0000000D01*
G01*
G37*
D142*
X0128573Y0305562D03*
X0133517Y0305562D03*
X0190112Y0305562D03*
D260*
X0225761Y0291797D03*
G36*
G01*
X0165102Y0525000D02*
X0160181Y0525000D01*
G75*
G02*
X0159787Y0525394I0000000J0000394D01*
G01*
X0159787Y0528543D01*
G75*
G02*
X0160181Y0528937I0000394J0000000D01*
G01*
X0165102Y0528937D01*
G75*
G02*
X0165496Y0528543I0000000J-000394D01*
G01*
X0165496Y0525394D01*
G75*
G02*
X0165102Y0525000I-000394J0000000D01*
G01*
G37*
D272*
X0162642Y0523209D03*
X0162642Y0538209D03*
G36*
G01*
X0165102Y0532480D02*
X0160181Y0532480D01*
G75*
G02*
X0159787Y0532874I0000000J0000394D01*
G01*
X0159787Y0536024D01*
G75*
G02*
X0160181Y0536417I0000394J0000000D01*
G01*
X0165102Y0536417D01*
G75*
G02*
X0165496Y0536024I0000000J-000394D01*
G01*
X0165496Y0532874D01*
G75*
G02*
X0165102Y0532480I-000394J0000000D01*
G01*
G37*
G36*
G01*
X0267635Y0041043D02*
X0267635Y0036161D01*
G75*
G02*
X0267123Y0035649I-000512J0000000D01*
G01*
X0263029Y0035649D01*
G75*
G02*
X0262517Y0036161I0000000J0000512D01*
G01*
X0262517Y0041043D01*
G75*
G02*
X0263029Y0041555I0000512J0000000D01*
G01*
X0267123Y0041555D01*
G75*
G02*
X0267635Y0041043I0000000J-000512D01*
G01*
G37*
G36*
G01*
X0275116Y0041043D02*
X0275116Y0036161D01*
G75*
G02*
X0274604Y0035649I-000512J0000000D01*
G01*
X0270509Y0035649D01*
G75*
G02*
X0269997Y0036161I0000000J0000512D01*
G01*
X0269997Y0041043D01*
G75*
G02*
X0270509Y0041555I0000512J0000000D01*
G01*
X0274604Y0041555D01*
G75*
G02*
X0275116Y0041043I0000000J-000512D01*
G01*
G37*
D43*
X0256736Y0164192D03*
G36*
G01*
X0433212Y0499390D02*
X0428291Y0499390D01*
G75*
G02*
X0427897Y0499783I0000000J0000394D01*
G01*
X0427897Y0502933D01*
G75*
G02*
X0428291Y0503327I0000394J0000000D01*
G01*
X0433212Y0503327D01*
G75*
G02*
X0433606Y0502933I0000000J-000394D01*
G01*
X0433606Y0499783D01*
G75*
G02*
X0433212Y0499390I-000394J0000000D01*
G01*
G37*
D272*
X0430752Y0497598D03*
G36*
G01*
X0433212Y0506870D02*
X0428291Y0506870D01*
G75*
G02*
X0427897Y0507264I0000000J0000394D01*
G01*
X0427897Y0510413D01*
G75*
G02*
X0428291Y0510807I0000394J0000000D01*
G01*
X0433212Y0510807D01*
G75*
G02*
X0433606Y0510413I0000000J-000394D01*
G01*
X0433606Y0507264D01*
G75*
G02*
X0433212Y0506870I-000394J0000000D01*
G01*
G37*
X0430752Y0512598D03*
G36*
G01*
X0246103Y0335790D02*
X0246103Y0333901D01*
G75*
G02*
X0245867Y0333664I-000236J0000000D01*
G01*
X0243977Y0333664D01*
G75*
G02*
X0243741Y0333901I0000000J0000236D01*
G01*
X0243741Y0335790D01*
G75*
G02*
X0243977Y0336027I0000236J0000000D01*
G01*
X0245867Y0336027D01*
G75*
G02*
X0246103Y0335790I0000000J-000236D01*
G01*
G37*
G36*
G01*
X0246103Y0327129D02*
X0246103Y0325239D01*
G75*
G02*
X0245867Y0325003I-000236J0000000D01*
G01*
X0243977Y0325003D01*
G75*
G02*
X0243741Y0325239I0000000J0000236D01*
G01*
X0243741Y0327129D01*
G75*
G02*
X0243977Y0327365I0000236J0000000D01*
G01*
X0245867Y0327365D01*
G75*
G02*
X0246103Y0327129I0000000J-000236D01*
G01*
G37*
G36*
G01*
X0271749Y0082145D02*
X0271749Y0084822D01*
G75*
G02*
X0272084Y0085157I0000335J0000000D01*
G01*
X0274761Y0085157D01*
G75*
G02*
X0275096Y0084822I0000000J-000335D01*
G01*
X0275096Y0082145D01*
G75*
G02*
X0274761Y0081811I-000335J0000000D01*
G01*
X0272084Y0081811D01*
G75*
G02*
X0271749Y0082145I0000000J0000335D01*
G01*
G37*
G36*
G01*
X0277970Y0082145D02*
X0277970Y0084822D01*
G75*
G02*
X0278305Y0085157I0000335J0000000D01*
G01*
X0280982Y0085157D01*
G75*
G02*
X0281316Y0084822I0000000J-000335D01*
G01*
X0281316Y0082145D01*
G75*
G02*
X0280982Y0081811I-000335J0000000D01*
G01*
X0278305Y0081811D01*
G75*
G02*
X0277970Y0082145I0000000J0000335D01*
G01*
G37*
D198*
X0364567Y0525591D03*
D177*
X0354724Y0525591D03*
X0354724Y0512992D03*
X0364567Y0512992D03*
D83*
X0383346Y0514921D03*
X0335945Y0514921D03*
G36*
G01*
X0260273Y0077578D02*
X0267517Y0077578D01*
G75*
G02*
X0267832Y0077263I0000000J-000315D01*
G01*
X0267832Y0074744D01*
G75*
G02*
X0267517Y0074429I-000315J0000000D01*
G01*
X0260273Y0074429D01*
G75*
G02*
X0259958Y0074744I0000000J0000315D01*
G01*
X0259958Y0077263D01*
G75*
G02*
X0260273Y0077578I0000315J0000000D01*
G01*
G37*
G36*
G01*
X0260273Y0061043D02*
X0267517Y0061043D01*
G75*
G02*
X0267832Y0060728I0000000J-000315D01*
G01*
X0267832Y0058208D01*
G75*
G02*
X0267517Y0057893I-000315J0000000D01*
G01*
X0260273Y0057893D01*
G75*
G02*
X0259958Y0058208I0000000J0000315D01*
G01*
X0259958Y0060728D01*
G75*
G02*
X0260273Y0061043I0000315J0000000D01*
G01*
G37*
G36*
G01*
X0283111Y0336027D02*
X0286654Y0336027D01*
G75*
G02*
X0287048Y0335633I0000000J-000394D01*
G01*
X0287048Y0332483D01*
G75*
G02*
X0286654Y0332090I-000394J0000000D01*
G01*
X0283111Y0332090D01*
G75*
G02*
X0282717Y0332483I0000000J0000394D01*
G01*
X0282717Y0335633D01*
G75*
G02*
X0283111Y0336027I0000394J0000000D01*
G01*
G37*
G36*
G01*
X0283111Y0329334D02*
X0286654Y0329334D01*
G75*
G02*
X0287048Y0328940I0000000J-000394D01*
G01*
X0287048Y0325790D01*
G75*
G02*
X0286654Y0325397I-000394J0000000D01*
G01*
X0283111Y0325397D01*
G75*
G02*
X0282717Y0325790I0000000J0000394D01*
G01*
X0282717Y0328940D01*
G75*
G02*
X0283111Y0329334I0000394J0000000D01*
G01*
G37*
G36*
G01*
X0519311Y0355669D02*
X0519311Y0352992D01*
G75*
G02*
X0518976Y0352657I-000335J0000000D01*
G01*
X0516299Y0352657D01*
G75*
G02*
X0515965Y0352992I0000000J0000335D01*
G01*
X0515965Y0355669D01*
G75*
G02*
X0516299Y0356004I0000335J0000000D01*
G01*
X0518976Y0356004D01*
G75*
G02*
X0519311Y0355669I0000000J-000335D01*
G01*
G37*
G36*
G01*
X0513091Y0355669D02*
X0513091Y0352992D01*
G75*
G02*
X0512756Y0352657I-000335J0000000D01*
G01*
X0510079Y0352657D01*
G75*
G02*
X0509744Y0352992I0000000J0000335D01*
G01*
X0509744Y0355669D01*
G75*
G02*
X0510079Y0356004I0000335J0000000D01*
G01*
X0512756Y0356004D01*
G75*
G02*
X0513091Y0355669I0000000J-000335D01*
G01*
G37*
G36*
G01*
X0425338Y0483445D02*
X0420417Y0483445D01*
G75*
G02*
X0420023Y0483839I0000000J0000394D01*
G01*
X0420023Y0486988D01*
G75*
G02*
X0420417Y0487382I0000394J0000000D01*
G01*
X0425338Y0487382D01*
G75*
G02*
X0425732Y0486988I0000000J-000394D01*
G01*
X0425732Y0483839D01*
G75*
G02*
X0425338Y0483445I-000394J0000000D01*
G01*
G37*
D272*
X0422878Y0481654D03*
G36*
G01*
X0425338Y0490925D02*
X0420417Y0490925D01*
G75*
G02*
X0420023Y0491319I0000000J0000394D01*
G01*
X0420023Y0494469D01*
G75*
G02*
X0420417Y0494862I0000394J0000000D01*
G01*
X0425338Y0494862D01*
G75*
G02*
X0425732Y0494469I0000000J-000394D01*
G01*
X0425732Y0491319D01*
G75*
G02*
X0425338Y0490925I-000394J0000000D01*
G01*
G37*
X0422878Y0496654D03*
G36*
G01*
X0188724Y0525000D02*
X0183803Y0525000D01*
G75*
G02*
X0183409Y0525394I0000000J0000394D01*
G01*
X0183409Y0528543D01*
G75*
G02*
X0183803Y0528937I0000394J0000000D01*
G01*
X0188724Y0528937D01*
G75*
G02*
X0189118Y0528543I0000000J-000394D01*
G01*
X0189118Y0525394D01*
G75*
G02*
X0188724Y0525000I-000394J0000000D01*
G01*
G37*
X0186264Y0523209D03*
X0186264Y0538209D03*
G36*
G01*
X0188724Y0532480D02*
X0183803Y0532480D01*
G75*
G02*
X0183409Y0532874I0000000J0000394D01*
G01*
X0183409Y0536024D01*
G75*
G02*
X0183803Y0536417I0000394J0000000D01*
G01*
X0188724Y0536417D01*
G75*
G02*
X0189118Y0536024I0000000J-000394D01*
G01*
X0189118Y0532874D01*
G75*
G02*
X0188724Y0532480I-000394J0000000D01*
G01*
G37*
G36*
G01*
X0292511Y0335784D02*
X0292511Y0333895D01*
G75*
G02*
X0292274Y0333658I-000236J0000000D01*
G01*
X0290385Y0333658D01*
G75*
G02*
X0290148Y0333895I0000000J0000236D01*
G01*
X0290148Y0335784D01*
G75*
G02*
X0290385Y0336021I0000236J0000000D01*
G01*
X0292274Y0336021D01*
G75*
G02*
X0292511Y0335784I0000000J-000236D01*
G01*
G37*
G36*
G01*
X0292511Y0327123D02*
X0292511Y0325233D01*
G75*
G02*
X0292274Y0324997I-000236J0000000D01*
G01*
X0290385Y0324997D01*
G75*
G02*
X0290148Y0325233I0000000J0000236D01*
G01*
X0290148Y0327123D01*
G75*
G02*
X0290385Y0327359I0000236J0000000D01*
G01*
X0292274Y0327359D01*
G75*
G02*
X0292511Y0327123I0000000J-000236D01*
G01*
G37*
G36*
G01*
X0131638Y0499409D02*
X0126716Y0499409D01*
G75*
G02*
X0126323Y0499803I0000000J0000394D01*
G01*
X0126323Y0502953D01*
G75*
G02*
X0126716Y0503346I0000394J0000000D01*
G01*
X0131638Y0503346D01*
G75*
G02*
X0132031Y0502953I0000000J-000394D01*
G01*
X0132031Y0499803D01*
G75*
G02*
X0131638Y0499409I-000394J0000000D01*
G01*
G37*
X0129177Y0497618D03*
G36*
G01*
X0131638Y0506890D02*
X0126716Y0506890D01*
G75*
G02*
X0126323Y0507284I0000000J0000394D01*
G01*
X0126323Y0510433D01*
G75*
G02*
X0126716Y0510827I0000394J0000000D01*
G01*
X0131638Y0510827D01*
G75*
G02*
X0132031Y0510433I0000000J-000394D01*
G01*
X0132031Y0507284D01*
G75*
G02*
X0131638Y0506890I-000394J0000000D01*
G01*
G37*
X0129177Y0512618D03*
D152*
X0369009Y0604624D03*
X0549519Y0604624D03*
X0110939Y0604624D03*
X0263889Y0604624D03*
D128*
X0130829Y0564464D03*
X0144599Y0564464D03*
X0156809Y0564464D03*
X0168619Y0564464D03*
X0180429Y0564464D03*
X0192239Y0564464D03*
X0204049Y0564464D03*
X0215859Y0564464D03*
X0227669Y0564464D03*
X0239479Y0564464D03*
X0251689Y0564464D03*
X0130829Y0582184D03*
X0144599Y0582184D03*
X0156809Y0582184D03*
X0168619Y0582184D03*
X0180429Y0582184D03*
X0192239Y0582184D03*
X0204049Y0582184D03*
X0215859Y0582184D03*
X0227669Y0582184D03*
X0239479Y0582184D03*
X0251689Y0582184D03*
X0275109Y0564464D03*
X0286919Y0564464D03*
X0298729Y0564464D03*
X0310539Y0564464D03*
X0322359Y0564464D03*
X0334169Y0564464D03*
X0345979Y0564464D03*
X0357789Y0564464D03*
X0275109Y0582184D03*
X0286919Y0582184D03*
X0298729Y0582184D03*
X0310539Y0582184D03*
X0322359Y0582184D03*
X0334169Y0582184D03*
X0345979Y0582184D03*
X0357789Y0582184D03*
X0381199Y0564464D03*
X0394979Y0564464D03*
X0407199Y0564464D03*
X0419009Y0564464D03*
X0430819Y0564464D03*
X0442629Y0564464D03*
X0454439Y0564464D03*
X0466249Y0564464D03*
X0478059Y0564464D03*
X0489869Y0564464D03*
X0502079Y0564464D03*
X0515859Y0564464D03*
X0529639Y0564464D03*
X0381199Y0582184D03*
X0394979Y0582184D03*
X0407199Y0582184D03*
X0419009Y0582184D03*
X0430819Y0582184D03*
X0442629Y0582184D03*
X0454439Y0582184D03*
X0466249Y0582184D03*
X0478059Y0582184D03*
X0489869Y0582184D03*
X0502079Y0582184D03*
X0515859Y0582184D03*
X0529639Y0582184D03*
G36*
G01*
X0153888Y0386766D02*
X0153888Y0384876D01*
G75*
G02*
X0153652Y0384640I-000236J0000000D01*
G01*
X0151762Y0384640D01*
G75*
G02*
X0151526Y0384876I0000000J0000236D01*
G01*
X0151526Y0386766D01*
G75*
G02*
X0151762Y0387002I0000236J0000000D01*
G01*
X0153652Y0387002D01*
G75*
G02*
X0153888Y0386766I0000000J-000236D01*
G01*
G37*
G36*
G01*
X0153888Y0378104D02*
X0153888Y0376215D01*
G75*
G02*
X0153652Y0375978I-000236J0000000D01*
G01*
X0151762Y0375978D01*
G75*
G02*
X0151526Y0376215I0000000J0000236D01*
G01*
X0151526Y0378104D01*
G75*
G02*
X0151762Y0378341I0000236J0000000D01*
G01*
X0153652Y0378341D01*
G75*
G02*
X0153888Y0378104I0000000J-000236D01*
G01*
G37*
D43*
X0411460Y0530689D03*
D282*
X0015748Y0559055D03*
D43*
X0509492Y0530689D03*
G36*
G01*
X0125712Y0469685D02*
X0120831Y0469685D01*
G75*
G02*
X0120319Y0470197I0000000J0000512D01*
G01*
X0120319Y0474291D01*
G75*
G02*
X0120831Y0474803I0000512J0000000D01*
G01*
X0125712Y0474803D01*
G75*
G02*
X0126224Y0474291I0000000J-000512D01*
G01*
X0126224Y0470197D01*
G75*
G02*
X0125712Y0469685I-000512J0000000D01*
G01*
G37*
G36*
G01*
X0125712Y0462205D02*
X0120831Y0462205D01*
G75*
G02*
X0120319Y0462717I0000000J0000512D01*
G01*
X0120319Y0466811D01*
G75*
G02*
X0120831Y0467323I0000512J0000000D01*
G01*
X0125712Y0467323D01*
G75*
G02*
X0126224Y0466811I0000000J-000512D01*
G01*
X0126224Y0462717D01*
G75*
G02*
X0125712Y0462205I-000512J0000000D01*
G01*
G37*
G36*
G01*
X0274450Y0351519D02*
X0274450Y0348881D01*
G75*
G02*
X0274194Y0348625I-000256J0000000D01*
G01*
X0272146Y0348625D01*
G75*
G02*
X0271891Y0348881I0000000J0000256D01*
G01*
X0271891Y0351519D01*
G75*
G02*
X0272146Y0351775I0000256J0000000D01*
G01*
X0274194Y0351775D01*
G75*
G02*
X0274450Y0351519I0000000J-000256D01*
G01*
G37*
G36*
G01*
X0270611Y0351597D02*
X0270611Y0348802D01*
G75*
G02*
X0270434Y0348625I-000177J0000000D01*
G01*
X0269017Y0348625D01*
G75*
G02*
X0268839Y0348802I0000000J0000177D01*
G01*
X0268839Y0351597D01*
G75*
G02*
X0269017Y0351775I0000177J0000000D01*
G01*
X0270434Y0351775D01*
G75*
G02*
X0270611Y0351597I0000000J-000177D01*
G01*
G37*
G36*
G01*
X0267461Y0351597D02*
X0267461Y0348802D01*
G75*
G02*
X0267284Y0348625I-000177J0000000D01*
G01*
X0265867Y0348625D01*
G75*
G02*
X0265690Y0348802I0000000J0000177D01*
G01*
X0265690Y0351597D01*
G75*
G02*
X0265867Y0351775I0000177J0000000D01*
G01*
X0267284Y0351775D01*
G75*
G02*
X0267461Y0351597I0000000J-000177D01*
G01*
G37*
G36*
G01*
X0264410Y0351519D02*
X0264410Y0348881D01*
G75*
G02*
X0264154Y0348625I-000256J0000000D01*
G01*
X0262107Y0348625D01*
G75*
G02*
X0261851Y0348881I0000000J0000256D01*
G01*
X0261851Y0351519D01*
G75*
G02*
X0262107Y0351775I0000256J0000000D01*
G01*
X0264154Y0351775D01*
G75*
G02*
X0264410Y0351519I0000000J-000256D01*
G01*
G37*
G36*
G01*
X0264410Y0344432D02*
X0264410Y0341794D01*
G75*
G02*
X0264154Y0341538I-000256J0000000D01*
G01*
X0262107Y0341538D01*
G75*
G02*
X0261851Y0341794I0000000J0000256D01*
G01*
X0261851Y0344432D01*
G75*
G02*
X0262107Y0344688I0000256J0000000D01*
G01*
X0264154Y0344688D01*
G75*
G02*
X0264410Y0344432I0000000J-000256D01*
G01*
G37*
G36*
G01*
X0267461Y0344511D02*
X0267461Y0341716D01*
G75*
G02*
X0267284Y0341538I-000177J0000000D01*
G01*
X0265867Y0341538D01*
G75*
G02*
X0265690Y0341716I0000000J0000177D01*
G01*
X0265690Y0344511D01*
G75*
G02*
X0265867Y0344688I0000177J0000000D01*
G01*
X0267284Y0344688D01*
G75*
G02*
X0267461Y0344511I0000000J-000177D01*
G01*
G37*
G36*
G01*
X0270611Y0344511D02*
X0270611Y0341716D01*
G75*
G02*
X0270434Y0341538I-000177J0000000D01*
G01*
X0269017Y0341538D01*
G75*
G02*
X0268839Y0341716I0000000J0000177D01*
G01*
X0268839Y0344511D01*
G75*
G02*
X0269017Y0344688I0000177J0000000D01*
G01*
X0270434Y0344688D01*
G75*
G02*
X0270611Y0344511I0000000J-000177D01*
G01*
G37*
G36*
G01*
X0274450Y0344432D02*
X0274450Y0341794D01*
G75*
G02*
X0274194Y0341538I-000256J0000000D01*
G01*
X0272146Y0341538D01*
G75*
G02*
X0271891Y0341794I0000000J0000256D01*
G01*
X0271891Y0344432D01*
G75*
G02*
X0272146Y0344688I0000256J0000000D01*
G01*
X0274194Y0344688D01*
G75*
G02*
X0274450Y0344432I0000000J-000256D01*
G01*
G37*
X0311814Y0323626D03*
D45*
X0251181Y0037008D03*
D272*
X0483901Y0523189D03*
G36*
G01*
X0486362Y0524980D02*
X0481441Y0524980D01*
G75*
G02*
X0481047Y0525374I0000000J0000394D01*
G01*
X0481047Y0528524D01*
G75*
G02*
X0481441Y0528917I0000394J0000000D01*
G01*
X0486362Y0528917D01*
G75*
G02*
X0486756Y0528524I0000000J-000394D01*
G01*
X0486756Y0525374D01*
G75*
G02*
X0486362Y0524980I-000394J0000000D01*
G01*
G37*
G36*
G01*
X0486362Y0532461D02*
X0481441Y0532461D01*
G75*
G02*
X0481047Y0532854I0000000J0000394D01*
G01*
X0481047Y0536004D01*
G75*
G02*
X0481441Y0536398I0000394J0000000D01*
G01*
X0486362Y0536398D01*
G75*
G02*
X0486756Y0536004I0000000J-000394D01*
G01*
X0486756Y0532854D01*
G75*
G02*
X0486362Y0532461I-000394J0000000D01*
G01*
G37*
X0483901Y0538189D03*
D291*
X0343307Y0424803D03*
D298*
X0336417Y0427953D03*
X0343307Y0431102D03*
X0336417Y0434252D03*
X0343307Y0437402D03*
D309*
X0339862Y0416732D03*
X0339862Y0445472D03*
D51*
X0271769Y0268523D03*
D159*
X0261769Y0268523D03*
X0271769Y0278523D03*
X0261769Y0278523D03*
X0271769Y0288523D03*
X0261769Y0288523D03*
X0271769Y0298523D03*
X0261769Y0298523D03*
G36*
G01*
X0380948Y0418876D02*
X0382837Y0418876D01*
G75*
G02*
X0383074Y0418640I0000000J-000236D01*
G01*
X0383074Y0416750D01*
G75*
G02*
X0382837Y0416514I-000236J0000000D01*
G01*
X0380948Y0416514D01*
G75*
G02*
X0380711Y0416750I0000000J0000236D01*
G01*
X0380711Y0418640D01*
G75*
G02*
X0380948Y0418876I0000236J0000000D01*
G01*
G37*
G36*
G01*
X0389609Y0418876D02*
X0391499Y0418876D01*
G75*
G02*
X0391735Y0418640I0000000J-000236D01*
G01*
X0391735Y0416750D01*
G75*
G02*
X0391499Y0416514I-000236J0000000D01*
G01*
X0389609Y0416514D01*
G75*
G02*
X0389373Y0416750I0000000J0000236D01*
G01*
X0389373Y0418640D01*
G75*
G02*
X0389609Y0418876I0000236J0000000D01*
G01*
G37*
D51*
X0119990Y0323775D03*
D159*
X0119990Y0333775D03*
X0129990Y0323775D03*
X0129990Y0333775D03*
D272*
X0466185Y0497598D03*
G36*
G01*
X0468646Y0499390D02*
X0463724Y0499390D01*
G75*
G02*
X0463331Y0499783I0000000J0000394D01*
G01*
X0463331Y0502933D01*
G75*
G02*
X0463724Y0503327I0000394J0000000D01*
G01*
X0468646Y0503327D01*
G75*
G02*
X0469039Y0502933I0000000J-000394D01*
G01*
X0469039Y0499783D01*
G75*
G02*
X0468646Y0499390I-000394J0000000D01*
G01*
G37*
G36*
G01*
X0468646Y0506870D02*
X0463724Y0506870D01*
G75*
G02*
X0463331Y0507264I0000000J0000394D01*
G01*
X0463331Y0510413D01*
G75*
G02*
X0463724Y0510807I0000394J0000000D01*
G01*
X0468646Y0510807D01*
G75*
G02*
X0469039Y0510413I0000000J-000394D01*
G01*
X0469039Y0507264D01*
G75*
G02*
X0468646Y0506870I-000394J0000000D01*
G01*
G37*
X0466185Y0512598D03*
D218*
X0230147Y0391219D03*
D115*
X0230344Y0431967D03*
X0230344Y0429998D03*
D143*
X0234478Y0404211D03*
X0236545Y0407656D03*
X0239497Y0403030D03*
X0253474Y0403325D03*
D51*
X0340596Y0343311D03*
D159*
X0340596Y0353311D03*
X0350596Y0343311D03*
X0350596Y0353311D03*
X0360596Y0343311D03*
X0360596Y0353311D03*
D209*
X0553937Y0228681D03*
X0553937Y0138681D03*
D272*
X0503937Y0208681D03*
X0503937Y0198681D03*
X0503937Y0188681D03*
X0503937Y0178681D03*
X0503937Y0168681D03*
X0503937Y0158681D03*
G36*
G01*
X0498173Y0524980D02*
X0493252Y0524980D01*
G75*
G02*
X0492858Y0525374I0000000J0000394D01*
G01*
X0492858Y0528524D01*
G75*
G02*
X0493252Y0528917I0000394J0000000D01*
G01*
X0498173Y0528917D01*
G75*
G02*
X0498567Y0528524I0000000J-000394D01*
G01*
X0498567Y0525374D01*
G75*
G02*
X0498173Y0524980I-000394J0000000D01*
G01*
G37*
X0495712Y0523189D03*
G36*
G01*
X0498173Y0532461D02*
X0493252Y0532461D01*
G75*
G02*
X0492858Y0532854I0000000J0000394D01*
G01*
X0492858Y0536004D01*
G75*
G02*
X0493252Y0536398I0000394J0000000D01*
G01*
X0498173Y0536398D01*
G75*
G02*
X0498567Y0536004I0000000J-000394D01*
G01*
X0498567Y0532854D01*
G75*
G02*
X0498173Y0532461I-000394J0000000D01*
G01*
G37*
X0495712Y0538189D03*
D51*
X0436265Y0353311D03*
D159*
X0436265Y0343311D03*
X0426265Y0353311D03*
X0426265Y0343311D03*
X0416265Y0353311D03*
X0416265Y0343311D03*
X0406265Y0353311D03*
X0406265Y0343311D03*
D43*
X0020000Y0220000D03*
X0020000Y0230000D03*
X0020000Y0240000D03*
X0020000Y0250000D03*
X0020000Y0260000D03*
X0030000Y0220000D03*
X0030000Y0230000D03*
X0030000Y0240000D03*
X0030000Y0250000D03*
X0030000Y0260000D03*
X0040000Y0220000D03*
X0040000Y0230000D03*
X0040000Y0240000D03*
X0040000Y0250000D03*
X0040000Y0260000D03*
X0424057Y0530686D03*
D51*
X0301887Y0028366D03*
D159*
X0311887Y0028366D03*
X0321887Y0028366D03*
X0331887Y0028366D03*
X0341887Y0028366D03*
X0351887Y0028366D03*
G36*
G01*
X0276021Y0077578D02*
X0283265Y0077578D01*
G75*
G02*
X0283580Y0077263I0000000J-000315D01*
G01*
X0283580Y0074744D01*
G75*
G02*
X0283265Y0074429I-000315J0000000D01*
G01*
X0276021Y0074429D01*
G75*
G02*
X0275706Y0074744I0000000J0000315D01*
G01*
X0275706Y0077263D01*
G75*
G02*
X0276021Y0077578I0000315J0000000D01*
G01*
G37*
G36*
G01*
X0276021Y0061043D02*
X0283265Y0061043D01*
G75*
G02*
X0283580Y0060728I0000000J-000315D01*
G01*
X0283580Y0058208D01*
G75*
G02*
X0283265Y0057893I-000315J0000000D01*
G01*
X0276021Y0057893D01*
G75*
G02*
X0275706Y0058208I0000000J0000315D01*
G01*
X0275706Y0060728D01*
G75*
G02*
X0276021Y0061043I0000315J0000000D01*
G01*
G37*
D51*
X0488305Y0183877D03*
D159*
X0488305Y0173877D03*
X0478305Y0183877D03*
X0478305Y0173877D03*
X0468305Y0183877D03*
X0468305Y0173877D03*
G36*
G01*
X0224157Y0525000D02*
X0219236Y0525000D01*
G75*
G02*
X0218842Y0525394I0000000J0000394D01*
G01*
X0218842Y0528543D01*
G75*
G02*
X0219236Y0528937I0000394J0000000D01*
G01*
X0224157Y0528937D01*
G75*
G02*
X0224551Y0528543I0000000J-000394D01*
G01*
X0224551Y0525394D01*
G75*
G02*
X0224157Y0525000I-000394J0000000D01*
G01*
G37*
D272*
X0221697Y0523209D03*
X0221697Y0538209D03*
G36*
G01*
X0224157Y0532480D02*
X0219236Y0532480D01*
G75*
G02*
X0218842Y0532874I0000000J0000394D01*
G01*
X0218842Y0536024D01*
G75*
G02*
X0219236Y0536417I0000394J0000000D01*
G01*
X0224157Y0536417D01*
G75*
G02*
X0224551Y0536024I0000000J-000394D01*
G01*
X0224551Y0532874D01*
G75*
G02*
X0224157Y0532480I-000394J0000000D01*
G01*
G37*
D43*
X0212838Y0511027D03*
D272*
X0139020Y0523209D03*
G36*
G01*
X0141480Y0525000D02*
X0136559Y0525000D01*
G75*
G02*
X0136165Y0525394I0000000J0000394D01*
G01*
X0136165Y0528543D01*
G75*
G02*
X0136559Y0528937I0000394J0000000D01*
G01*
X0141480Y0528937D01*
G75*
G02*
X0141874Y0528543I0000000J-000394D01*
G01*
X0141874Y0525394D01*
G75*
G02*
X0141480Y0525000I-000394J0000000D01*
G01*
G37*
G36*
G01*
X0141480Y0532480D02*
X0136559Y0532480D01*
G75*
G02*
X0136165Y0532874I0000000J0000394D01*
G01*
X0136165Y0536024D01*
G75*
G02*
X0136559Y0536417I0000394J0000000D01*
G01*
X0141480Y0536417D01*
G75*
G02*
X0141874Y0536024I0000000J-000394D01*
G01*
X0141874Y0532874D01*
G75*
G02*
X0141480Y0532480I-000394J0000000D01*
G01*
G37*
X0139020Y0538209D03*
G36*
G01*
X0140945Y0386772D02*
X0140945Y0384882D01*
G75*
G02*
X0140709Y0384646I-000236J0000000D01*
G01*
X0138819Y0384646D01*
G75*
G02*
X0138583Y0384882I0000000J0000236D01*
G01*
X0138583Y0386772D01*
G75*
G02*
X0138819Y0387008I0000236J0000000D01*
G01*
X0140709Y0387008D01*
G75*
G02*
X0140945Y0386772I0000000J-000236D01*
G01*
G37*
G36*
G01*
X0140945Y0378110D02*
X0140945Y0376220D01*
G75*
G02*
X0140709Y0375984I-000236J0000000D01*
G01*
X0138819Y0375984D01*
G75*
G02*
X0138583Y0376220I0000000J0000236D01*
G01*
X0138583Y0378110D01*
G75*
G02*
X0138819Y0378346I0000236J0000000D01*
G01*
X0140709Y0378346D01*
G75*
G02*
X0140945Y0378110I0000000J-000236D01*
G01*
G37*
G36*
G01*
X0380711Y0429949D02*
X0380711Y0433492D01*
G75*
G02*
X0381105Y0433886I0000394J0000000D01*
G01*
X0384255Y0433886D01*
G75*
G02*
X0384648Y0433492I0000000J-000394D01*
G01*
X0384648Y0429949D01*
G75*
G02*
X0384255Y0429555I-000394J0000000D01*
G01*
X0381105Y0429555D01*
G75*
G02*
X0380711Y0429949I0000000J0000394D01*
G01*
G37*
G36*
G01*
X0387404Y0429949D02*
X0387404Y0433492D01*
G75*
G02*
X0387798Y0433886I0000394J0000000D01*
G01*
X0390948Y0433886D01*
G75*
G02*
X0391341Y0433492I0000000J-000394D01*
G01*
X0391341Y0429949D01*
G75*
G02*
X0390948Y0429555I-000394J0000000D01*
G01*
X0387798Y0429555D01*
G75*
G02*
X0387404Y0429949I0000000J0000394D01*
G01*
G37*
D282*
X0015748Y0072835D03*
G36*
G01*
X0364038Y0434280D02*
X0366676Y0434280D01*
G75*
G02*
X0366932Y0434024I0000000J-000256D01*
G01*
X0366932Y0431977D01*
G75*
G02*
X0366676Y0431721I-000256J0000000D01*
G01*
X0364038Y0431721D01*
G75*
G02*
X0363782Y0431977I0000000J0000256D01*
G01*
X0363782Y0434024D01*
G75*
G02*
X0364038Y0434280I0000256J0000000D01*
G01*
G37*
G36*
G01*
X0363959Y0430441D02*
X0366755Y0430441D01*
G75*
G02*
X0366932Y0430264I0000000J-000177D01*
G01*
X0366932Y0428847D01*
G75*
G02*
X0366755Y0428670I-000177J0000000D01*
G01*
X0363959Y0428670D01*
G75*
G02*
X0363782Y0428847I0000000J0000177D01*
G01*
X0363782Y0430264D01*
G75*
G02*
X0363959Y0430441I0000177J0000000D01*
G01*
G37*
G36*
G01*
X0363959Y0427292D02*
X0366755Y0427292D01*
G75*
G02*
X0366932Y0427114I0000000J-000177D01*
G01*
X0366932Y0425697D01*
G75*
G02*
X0366755Y0425520I-000177J0000000D01*
G01*
X0363959Y0425520D01*
G75*
G02*
X0363782Y0425697I0000000J0000177D01*
G01*
X0363782Y0427114D01*
G75*
G02*
X0363959Y0427292I0000177J0000000D01*
G01*
G37*
G36*
G01*
X0364038Y0424240D02*
X0366676Y0424240D01*
G75*
G02*
X0366932Y0423984I0000000J-000256D01*
G01*
X0366932Y0421937D01*
G75*
G02*
X0366676Y0421681I-000256J0000000D01*
G01*
X0364038Y0421681D01*
G75*
G02*
X0363782Y0421937I0000000J0000256D01*
G01*
X0363782Y0423984D01*
G75*
G02*
X0364038Y0424240I0000256J0000000D01*
G01*
G37*
G36*
G01*
X0371125Y0424240D02*
X0373763Y0424240D01*
G75*
G02*
X0374019Y0423984I0000000J-000256D01*
G01*
X0374019Y0421937D01*
G75*
G02*
X0373763Y0421681I-000256J0000000D01*
G01*
X0371125Y0421681D01*
G75*
G02*
X0370869Y0421937I0000000J0000256D01*
G01*
X0370869Y0423984D01*
G75*
G02*
X0371125Y0424240I0000256J0000000D01*
G01*
G37*
G36*
G01*
X0371046Y0427292D02*
X0373841Y0427292D01*
G75*
G02*
X0374019Y0427114I0000000J-000177D01*
G01*
X0374019Y0425697D01*
G75*
G02*
X0373841Y0425520I-000177J0000000D01*
G01*
X0371046Y0425520D01*
G75*
G02*
X0370869Y0425697I0000000J0000177D01*
G01*
X0370869Y0427114D01*
G75*
G02*
X0371046Y0427292I0000177J0000000D01*
G01*
G37*
G36*
G01*
X0371046Y0430441D02*
X0373841Y0430441D01*
G75*
G02*
X0374019Y0430264I0000000J-000177D01*
G01*
X0374019Y0428847D01*
G75*
G02*
X0373841Y0428670I-000177J0000000D01*
G01*
X0371046Y0428670D01*
G75*
G02*
X0370869Y0428847I0000000J0000177D01*
G01*
X0370869Y0430264D01*
G75*
G02*
X0371046Y0430441I0000177J0000000D01*
G01*
G37*
G36*
G01*
X0371125Y0434280D02*
X0373763Y0434280D01*
G75*
G02*
X0374019Y0434024I0000000J-000256D01*
G01*
X0374019Y0431977D01*
G75*
G02*
X0373763Y0431721I-000256J0000000D01*
G01*
X0371125Y0431721D01*
G75*
G02*
X0370869Y0431977I0000000J0000256D01*
G01*
X0370869Y0434024D01*
G75*
G02*
X0371125Y0434280I0000256J0000000D01*
G01*
G37*
G36*
G01*
X0314612Y0267976D02*
X0314612Y0270614D01*
G75*
G02*
X0314868Y0270870I0000256J0000000D01*
G01*
X0316915Y0270870D01*
G75*
G02*
X0317171Y0270614I0000000J-000256D01*
G01*
X0317171Y0267976D01*
G75*
G02*
X0316915Y0267720I-000256J0000000D01*
G01*
X0314868Y0267720D01*
G75*
G02*
X0314612Y0267976I0000000J0000256D01*
G01*
G37*
G36*
G01*
X0318450Y0267897D02*
X0318450Y0270692D01*
G75*
G02*
X0318627Y0270870I0000177J0000000D01*
G01*
X0320045Y0270870D01*
G75*
G02*
X0320222Y0270692I0000000J-000177D01*
G01*
X0320222Y0267897D01*
G75*
G02*
X0320045Y0267720I-000177J0000000D01*
G01*
X0318627Y0267720D01*
G75*
G02*
X0318450Y0267897I0000000J0000177D01*
G01*
G37*
G36*
G01*
X0321600Y0267897D02*
X0321600Y0270692D01*
G75*
G02*
X0321777Y0270870I0000177J0000000D01*
G01*
X0323194Y0270870D01*
G75*
G02*
X0323371Y0270692I0000000J-000177D01*
G01*
X0323371Y0267897D01*
G75*
G02*
X0323194Y0267720I-000177J0000000D01*
G01*
X0321777Y0267720D01*
G75*
G02*
X0321600Y0267897I0000000J0000177D01*
G01*
G37*
G36*
G01*
X0324651Y0267976D02*
X0324651Y0270614D01*
G75*
G02*
X0324907Y0270870I0000256J0000000D01*
G01*
X0326954Y0270870D01*
G75*
G02*
X0327210Y0270614I0000000J-000256D01*
G01*
X0327210Y0267976D01*
G75*
G02*
X0326954Y0267720I-000256J0000000D01*
G01*
X0324907Y0267720D01*
G75*
G02*
X0324651Y0267976I0000000J0000256D01*
G01*
G37*
G36*
G01*
X0324651Y0275063D02*
X0324651Y0277700D01*
G75*
G02*
X0324907Y0277956I0000256J0000000D01*
G01*
X0326954Y0277956D01*
G75*
G02*
X0327210Y0277700I0000000J-000256D01*
G01*
X0327210Y0275063D01*
G75*
G02*
X0326954Y0274807I-000256J0000000D01*
G01*
X0324907Y0274807D01*
G75*
G02*
X0324651Y0275063I0000000J0000256D01*
G01*
G37*
G36*
G01*
X0321600Y0274984D02*
X0321600Y0277779D01*
G75*
G02*
X0321777Y0277956I0000177J0000000D01*
G01*
X0323194Y0277956D01*
G75*
G02*
X0323371Y0277779I0000000J-000177D01*
G01*
X0323371Y0274984D01*
G75*
G02*
X0323194Y0274807I-000177J0000000D01*
G01*
X0321777Y0274807D01*
G75*
G02*
X0321600Y0274984I0000000J0000177D01*
G01*
G37*
G36*
G01*
X0318450Y0274984D02*
X0318450Y0277779D01*
G75*
G02*
X0318627Y0277956I0000177J0000000D01*
G01*
X0320045Y0277956D01*
G75*
G02*
X0320222Y0277779I0000000J-000177D01*
G01*
X0320222Y0274984D01*
G75*
G02*
X0320045Y0274807I-000177J0000000D01*
G01*
X0318627Y0274807D01*
G75*
G02*
X0318450Y0274984I0000000J0000177D01*
G01*
G37*
G36*
G01*
X0314612Y0275063D02*
X0314612Y0277700D01*
G75*
G02*
X0314868Y0277956I0000256J0000000D01*
G01*
X0316915Y0277956D01*
G75*
G02*
X0317171Y0277700I0000000J-000256D01*
G01*
X0317171Y0275063D01*
G75*
G02*
X0316915Y0274807I-000256J0000000D01*
G01*
X0314868Y0274807D01*
G75*
G02*
X0314612Y0275063I0000000J0000256D01*
G01*
G37*
G36*
G01*
X0249647Y0336027D02*
X0253190Y0336027D01*
G75*
G02*
X0253584Y0335633I0000000J-000394D01*
G01*
X0253584Y0332483D01*
G75*
G02*
X0253190Y0332090I-000394J0000000D01*
G01*
X0249647Y0332090D01*
G75*
G02*
X0249253Y0332483I0000000J0000394D01*
G01*
X0249253Y0335633D01*
G75*
G02*
X0249647Y0336027I0000394J0000000D01*
G01*
G37*
G36*
G01*
X0249647Y0329334D02*
X0253190Y0329334D01*
G75*
G02*
X0253584Y0328940I0000000J-000394D01*
G01*
X0253584Y0325790D01*
G75*
G02*
X0253190Y0325397I-000394J0000000D01*
G01*
X0249647Y0325397D01*
G75*
G02*
X0249253Y0325790I0000000J0000394D01*
G01*
X0249253Y0328940D01*
G75*
G02*
X0249647Y0329334I0000394J0000000D01*
G01*
G37*
D43*
X0322879Y0323626D03*
D282*
X0015748Y0305118D03*
G36*
G01*
X0262639Y0336027D02*
X0266182Y0336027D01*
G75*
G02*
X0266576Y0335633I0000000J-000394D01*
G01*
X0266576Y0332483D01*
G75*
G02*
X0266182Y0332090I-000394J0000000D01*
G01*
X0262639Y0332090D01*
G75*
G02*
X0262245Y0332483I0000000J0000394D01*
G01*
X0262245Y0335633D01*
G75*
G02*
X0262639Y0336027I0000394J0000000D01*
G01*
G37*
G36*
G01*
X0262639Y0329334D02*
X0266182Y0329334D01*
G75*
G02*
X0266576Y0328940I0000000J-000394D01*
G01*
X0266576Y0325790D01*
G75*
G02*
X0266182Y0325397I-000394J0000000D01*
G01*
X0262639Y0325397D01*
G75*
G02*
X0262245Y0325790I0000000J0000394D01*
G01*
X0262245Y0328940D01*
G75*
G02*
X0262639Y0329334I0000394J0000000D01*
G01*
G37*
D43*
X0436657Y0530689D03*
G36*
G01*
X0259095Y0335790D02*
X0259095Y0333901D01*
G75*
G02*
X0258859Y0333664I-000236J0000000D01*
G01*
X0256969Y0333664D01*
G75*
G02*
X0256733Y0333901I0000000J0000236D01*
G01*
X0256733Y0335790D01*
G75*
G02*
X0256969Y0336027I0000236J0000000D01*
G01*
X0258859Y0336027D01*
G75*
G02*
X0259095Y0335790I0000000J-000236D01*
G01*
G37*
G36*
G01*
X0259095Y0327129D02*
X0259095Y0325239D01*
G75*
G02*
X0258859Y0325003I-000236J0000000D01*
G01*
X0256969Y0325003D01*
G75*
G02*
X0256733Y0325239I0000000J0000236D01*
G01*
X0256733Y0327129D01*
G75*
G02*
X0256969Y0327365I0000236J0000000D01*
G01*
X0258859Y0327365D01*
G75*
G02*
X0259095Y0327129I0000000J-000236D01*
G01*
G37*
D45*
X0251181Y0060630D03*
G36*
G01*
X0380948Y0439398D02*
X0382837Y0439398D01*
G75*
G02*
X0383074Y0439162I0000000J-000236D01*
G01*
X0383074Y0437272D01*
G75*
G02*
X0382837Y0437036I-000236J0000000D01*
G01*
X0380948Y0437036D01*
G75*
G02*
X0380711Y0437272I0000000J0000236D01*
G01*
X0380711Y0439162D01*
G75*
G02*
X0380948Y0439398I0000236J0000000D01*
G01*
G37*
G36*
G01*
X0389609Y0439398D02*
X0391499Y0439398D01*
G75*
G02*
X0391735Y0439162I0000000J-000236D01*
G01*
X0391735Y0437272D01*
G75*
G02*
X0391499Y0437036I-000236J0000000D01*
G01*
X0389609Y0437036D01*
G75*
G02*
X0389373Y0437272I0000000J0000236D01*
G01*
X0389373Y0439162D01*
G75*
G02*
X0389609Y0439398I0000236J0000000D01*
G01*
G37*
D234*
X0591909Y0261811D03*
X0564350Y0261811D03*
D86*
X0573799Y0249016D03*
X0585610Y0249016D03*
X0553720Y0274606D03*
X0558051Y0249016D03*
G36*
G01*
X0153291Y0525000D02*
X0148370Y0525000D01*
G75*
G02*
X0147976Y0525394I0000000J0000394D01*
G01*
X0147976Y0528543D01*
G75*
G02*
X0148370Y0528937I0000394J0000000D01*
G01*
X0153291Y0528937D01*
G75*
G02*
X0153685Y0528543I0000000J-000394D01*
G01*
X0153685Y0525394D01*
G75*
G02*
X0153291Y0525000I-000394J0000000D01*
G01*
G37*
D272*
X0150831Y0523209D03*
G36*
G01*
X0153291Y0532480D02*
X0148370Y0532480D01*
G75*
G02*
X0147976Y0532874I0000000J0000394D01*
G01*
X0147976Y0536024D01*
G75*
G02*
X0148370Y0536417I0000394J0000000D01*
G01*
X0153291Y0536417D01*
G75*
G02*
X0153685Y0536024I0000000J-000394D01*
G01*
X0153685Y0532874D01*
G75*
G02*
X0153291Y0532480I-000394J0000000D01*
G01*
G37*
X0150831Y0538209D03*
G36*
G01*
X0480413Y0484252D02*
X0475492Y0484252D01*
G75*
G02*
X0475098Y0484646I0000000J0000394D01*
G01*
X0475098Y0487795D01*
G75*
G02*
X0475492Y0488189I0000394J0000000D01*
G01*
X0480413Y0488189D01*
G75*
G02*
X0480807Y0487795I0000000J-000394D01*
G01*
X0480807Y0484646D01*
G75*
G02*
X0480413Y0484252I-000394J0000000D01*
G01*
G37*
X0477953Y0482461D03*
X0477953Y0497461D03*
G36*
G01*
X0480413Y0491732D02*
X0475492Y0491732D01*
G75*
G02*
X0475098Y0492126I0000000J0000394D01*
G01*
X0475098Y0495276D01*
G75*
G02*
X0475492Y0495669I0000394J0000000D01*
G01*
X0480413Y0495669D01*
G75*
G02*
X0480807Y0495276I0000000J-000394D01*
G01*
X0480807Y0492126D01*
G75*
G02*
X0480413Y0491732I-000394J0000000D01*
G01*
G37*
X0489807Y0497598D03*
G36*
G01*
X0492268Y0499390D02*
X0487346Y0499390D01*
G75*
G02*
X0486953Y0499783I0000000J0000394D01*
G01*
X0486953Y0502933D01*
G75*
G02*
X0487346Y0503327I0000394J0000000D01*
G01*
X0492268Y0503327D01*
G75*
G02*
X0492661Y0502933I0000000J-000394D01*
G01*
X0492661Y0499783D01*
G75*
G02*
X0492268Y0499390I-000394J0000000D01*
G01*
G37*
X0489807Y0512598D03*
G36*
G01*
X0492268Y0506870D02*
X0487346Y0506870D01*
G75*
G02*
X0486953Y0507264I0000000J0000394D01*
G01*
X0486953Y0510413D01*
G75*
G02*
X0487346Y0510807I0000394J0000000D01*
G01*
X0492268Y0510807D01*
G75*
G02*
X0492661Y0510413I0000000J-000394D01*
G01*
X0492661Y0507264D01*
G75*
G02*
X0492268Y0506870I-000394J0000000D01*
G01*
G37*
G36*
G01*
X0177756Y0387036D02*
X0181299Y0387036D01*
G75*
G02*
X0181693Y0386642I0000000J-000394D01*
G01*
X0181693Y0383492D01*
G75*
G02*
X0181299Y0383099I-000394J0000000D01*
G01*
X0177756Y0383099D01*
G75*
G02*
X0177362Y0383492I0000000J0000394D01*
G01*
X0177362Y0386642D01*
G75*
G02*
X0177756Y0387036I0000394J0000000D01*
G01*
G37*
G36*
G01*
X0177756Y0380343D02*
X0181299Y0380343D01*
G75*
G02*
X0181693Y0379949I0000000J-000394D01*
G01*
X0181693Y0376799D01*
G75*
G02*
X0181299Y0376406I-000394J0000000D01*
G01*
X0177756Y0376406D01*
G75*
G02*
X0177362Y0376799I0000000J0000394D01*
G01*
X0177362Y0379949D01*
G75*
G02*
X0177756Y0380343I0000394J0000000D01*
G01*
G37*
G36*
G01*
X0313925Y0250329D02*
X0313925Y0252100D01*
G75*
G02*
X0314417Y0252593I0000492J0000000D01*
G01*
X0314417Y0252593D01*
G75*
G02*
X0314909Y0252100I0000000J-000492D01*
G01*
X0314909Y0250329D01*
G75*
G02*
X0314417Y0249837I-000492J0000000D01*
G01*
X0314417Y0249837D01*
G75*
G02*
X0313925Y0250329I0000000J0000492D01*
G01*
G37*
G36*
G01*
X0344688Y0328414D02*
X0344688Y0331484D01*
G75*
G02*
X0344963Y0331760I0000276J0000000D01*
G01*
X0347168Y0331760D01*
G75*
G02*
X0347444Y0331484I0000000J-000276D01*
G01*
X0347444Y0328414D01*
G75*
G02*
X0347168Y0328138I-000276J0000000D01*
G01*
X0344963Y0328138D01*
G75*
G02*
X0344688Y0328414I0000000J0000276D01*
G01*
G37*
G36*
G01*
X0350987Y0328414D02*
X0350987Y0331484D01*
G75*
G02*
X0351263Y0331760I0000276J0000000D01*
G01*
X0353467Y0331760D01*
G75*
G02*
X0353743Y0331484I0000000J-000276D01*
G01*
X0353743Y0328414D01*
G75*
G02*
X0353467Y0328138I-000276J0000000D01*
G01*
X0351263Y0328138D01*
G75*
G02*
X0350987Y0328414I0000000J0000276D01*
G01*
G37*
G36*
G01*
X0144488Y0387008D02*
X0148032Y0387008D01*
G75*
G02*
X0148425Y0386614I0000000J-000394D01*
G01*
X0148425Y0383465D01*
G75*
G02*
X0148032Y0383071I-000394J0000000D01*
G01*
X0144488Y0383071D01*
G75*
G02*
X0144094Y0383465I0000000J0000394D01*
G01*
X0144094Y0386614D01*
G75*
G02*
X0144488Y0387008I0000394J0000000D01*
G01*
G37*
G36*
G01*
X0144488Y0380315D02*
X0148032Y0380315D01*
G75*
G02*
X0148425Y0379921I0000000J-000394D01*
G01*
X0148425Y0376772D01*
G75*
G02*
X0148032Y0376378I-000394J0000000D01*
G01*
X0144488Y0376378D01*
G75*
G02*
X0144094Y0376772I0000000J0000394D01*
G01*
X0144094Y0379921D01*
G75*
G02*
X0144488Y0380315I0000394J0000000D01*
G01*
G37*
G36*
G01*
X0232031Y0499409D02*
X0227110Y0499409D01*
G75*
G02*
X0226716Y0499803I0000000J0000394D01*
G01*
X0226716Y0502953D01*
G75*
G02*
X0227110Y0503346I0000394J0000000D01*
G01*
X0232031Y0503346D01*
G75*
G02*
X0232425Y0502953I0000000J-000394D01*
G01*
X0232425Y0499803D01*
G75*
G02*
X0232031Y0499409I-000394J0000000D01*
G01*
G37*
X0229571Y0497618D03*
G36*
G01*
X0232031Y0506890D02*
X0227110Y0506890D01*
G75*
G02*
X0226716Y0507284I0000000J0000394D01*
G01*
X0226716Y0510433D01*
G75*
G02*
X0227110Y0510827I0000394J0000000D01*
G01*
X0232031Y0510827D01*
G75*
G02*
X0232425Y0510433I0000000J-000394D01*
G01*
X0232425Y0507284D01*
G75*
G02*
X0232031Y0506890I-000394J0000000D01*
G01*
G37*
X0229571Y0512618D03*
G36*
G01*
X0174409Y0386772D02*
X0174409Y0384882D01*
G75*
G02*
X0174173Y0384646I-000236J0000000D01*
G01*
X0172283Y0384646D01*
G75*
G02*
X0172047Y0384882I0000000J0000236D01*
G01*
X0172047Y0386772D01*
G75*
G02*
X0172283Y0387008I0000236J0000000D01*
G01*
X0174173Y0387008D01*
G75*
G02*
X0174409Y0386772I0000000J-000236D01*
G01*
G37*
G36*
G01*
X0174409Y0378110D02*
X0174409Y0376220D01*
G75*
G02*
X0174173Y0375984I-000236J0000000D01*
G01*
X0172283Y0375984D01*
G75*
G02*
X0172047Y0376220I0000000J0000236D01*
G01*
X0172047Y0378110D01*
G75*
G02*
X0172283Y0378346I0000236J0000000D01*
G01*
X0174173Y0378346D01*
G75*
G02*
X0174409Y0378110I0000000J-000236D01*
G01*
G37*
D43*
X0241382Y0505118D03*
G36*
G01*
X0200535Y0525000D02*
X0195614Y0525000D01*
G75*
G02*
X0195220Y0525394I0000000J0000394D01*
G01*
X0195220Y0528543D01*
G75*
G02*
X0195614Y0528937I0000394J0000000D01*
G01*
X0200535Y0528937D01*
G75*
G02*
X0200929Y0528543I0000000J-000394D01*
G01*
X0200929Y0525394D01*
G75*
G02*
X0200535Y0525000I-000394J0000000D01*
G01*
G37*
D272*
X0198075Y0523209D03*
G36*
G01*
X0200535Y0532480D02*
X0195614Y0532480D01*
G75*
G02*
X0195220Y0532874I0000000J0000394D01*
G01*
X0195220Y0536024D01*
G75*
G02*
X0195614Y0536417I0000394J0000000D01*
G01*
X0200535Y0536417D01*
G75*
G02*
X0200929Y0536024I0000000J-000394D01*
G01*
X0200929Y0532874D01*
G75*
G02*
X0200535Y0532480I-000394J0000000D01*
G01*
G37*
X0198075Y0538209D03*
D282*
X0590988Y0559055D03*
D156*
X0257055Y0125807D03*
X0257055Y0127775D03*
X0257055Y0129744D03*
X0257055Y0131712D03*
D242*
X0255037Y0131761D03*
X0253068Y0131761D03*
D156*
X0251051Y0131712D03*
X0251051Y0129744D03*
X0251051Y0127775D03*
X0251051Y0125807D03*
D242*
X0253068Y0125757D03*
X0255037Y0125757D03*
D254*
X0175394Y0068898D03*
X0060039Y0068898D03*
G36*
G01*
X0109098Y0447894D02*
X0109098Y0450531D01*
G75*
G02*
X0109354Y0450787I0000256J0000000D01*
G01*
X0111401Y0450787D01*
G75*
G02*
X0111657Y0450531I0000000J-000256D01*
G01*
X0111657Y0447894D01*
G75*
G02*
X0111401Y0447638I-000256J0000000D01*
G01*
X0109354Y0447638D01*
G75*
G02*
X0109098Y0447894I0000000J0000256D01*
G01*
G37*
G36*
G01*
X0112937Y0447815D02*
X0112937Y0450610D01*
G75*
G02*
X0113114Y0450787I0000177J0000000D01*
G01*
X0114531Y0450787D01*
G75*
G02*
X0114709Y0450610I0000000J-000177D01*
G01*
X0114709Y0447815D01*
G75*
G02*
X0114531Y0447638I-000177J0000000D01*
G01*
X0113114Y0447638D01*
G75*
G02*
X0112937Y0447815I0000000J0000177D01*
G01*
G37*
G36*
G01*
X0116086Y0447815D02*
X0116086Y0450610D01*
G75*
G02*
X0116264Y0450787I0000177J0000000D01*
G01*
X0117681Y0450787D01*
G75*
G02*
X0117858Y0450610I0000000J-000177D01*
G01*
X0117858Y0447815D01*
G75*
G02*
X0117681Y0447638I-000177J0000000D01*
G01*
X0116264Y0447638D01*
G75*
G02*
X0116086Y0447815I0000000J0000177D01*
G01*
G37*
G36*
G01*
X0119138Y0447894D02*
X0119138Y0450531D01*
G75*
G02*
X0119394Y0450787I0000256J0000000D01*
G01*
X0121441Y0450787D01*
G75*
G02*
X0121697Y0450531I0000000J-000256D01*
G01*
X0121697Y0447894D01*
G75*
G02*
X0121441Y0447638I-000256J0000000D01*
G01*
X0119394Y0447638D01*
G75*
G02*
X0119138Y0447894I0000000J0000256D01*
G01*
G37*
G36*
G01*
X0119138Y0454980D02*
X0119138Y0457618D01*
G75*
G02*
X0119394Y0457874I0000256J0000000D01*
G01*
X0121441Y0457874D01*
G75*
G02*
X0121697Y0457618I0000000J-000256D01*
G01*
X0121697Y0454980D01*
G75*
G02*
X0121441Y0454724I-000256J0000000D01*
G01*
X0119394Y0454724D01*
G75*
G02*
X0119138Y0454980I0000000J0000256D01*
G01*
G37*
G36*
G01*
X0116086Y0454902D02*
X0116086Y0457697D01*
G75*
G02*
X0116264Y0457874I0000177J0000000D01*
G01*
X0117681Y0457874D01*
G75*
G02*
X0117858Y0457697I0000000J-000177D01*
G01*
X0117858Y0454902D01*
G75*
G02*
X0117681Y0454724I-000177J0000000D01*
G01*
X0116264Y0454724D01*
G75*
G02*
X0116086Y0454902I0000000J0000177D01*
G01*
G37*
G36*
G01*
X0112937Y0454902D02*
X0112937Y0457697D01*
G75*
G02*
X0113114Y0457874I0000177J0000000D01*
G01*
X0114531Y0457874D01*
G75*
G02*
X0114709Y0457697I0000000J-000177D01*
G01*
X0114709Y0454902D01*
G75*
G02*
X0114531Y0454724I-000177J0000000D01*
G01*
X0113114Y0454724D01*
G75*
G02*
X0112937Y0454902I0000000J0000177D01*
G01*
G37*
G36*
G01*
X0109098Y0454980D02*
X0109098Y0457618D01*
G75*
G02*
X0109354Y0457874I0000256J0000000D01*
G01*
X0111401Y0457874D01*
G75*
G02*
X0111657Y0457618I0000000J-000256D01*
G01*
X0111657Y0454980D01*
G75*
G02*
X0111401Y0454724I-000256J0000000D01*
G01*
X0109354Y0454724D01*
G75*
G02*
X0109098Y0454980I0000000J0000256D01*
G01*
G37*
D282*
X0590551Y0072835D03*
G36*
G01*
X0178789Y0045911D02*
X0178789Y0047801D01*
G75*
G02*
X0179026Y0048037I0000236J0000000D01*
G01*
X0180915Y0048037D01*
G75*
G02*
X0181152Y0047801I0000000J-000236D01*
G01*
X0181152Y0045911D01*
G75*
G02*
X0180915Y0045675I-000236J0000000D01*
G01*
X0179026Y0045675D01*
G75*
G02*
X0178789Y0045911I0000000J0000236D01*
G01*
G37*
G36*
G01*
X0178789Y0054573D02*
X0178789Y0056463D01*
G75*
G02*
X0179026Y0056699I0000236J0000000D01*
G01*
X0180915Y0056699D01*
G75*
G02*
X0181152Y0056463I0000000J-000236D01*
G01*
X0181152Y0054573D01*
G75*
G02*
X0180915Y0054337I-000236J0000000D01*
G01*
X0179026Y0054337D01*
G75*
G02*
X0178789Y0054573I0000000J0000236D01*
G01*
G37*
G36*
G01*
X0267438Y0050885D02*
X0267438Y0046003D01*
G75*
G02*
X0266927Y0045492I-000512J0000000D01*
G01*
X0262832Y0045492D01*
G75*
G02*
X0262320Y0046003I0000000J0000512D01*
G01*
X0262320Y0050885D01*
G75*
G02*
X0262832Y0051397I0000512J0000000D01*
G01*
X0266927Y0051397D01*
G75*
G02*
X0267438Y0050885I0000000J-000512D01*
G01*
G37*
G36*
G01*
X0274919Y0050885D02*
X0274919Y0046003D01*
G75*
G02*
X0274407Y0045492I-000512J0000000D01*
G01*
X0270312Y0045492D01*
G75*
G02*
X0269801Y0046003I0000000J0000512D01*
G01*
X0269801Y0050885D01*
G75*
G02*
X0270312Y0051397I0000512J0000000D01*
G01*
X0274407Y0051397D01*
G75*
G02*
X0274919Y0050885I0000000J-000512D01*
G01*
G37*
G36*
G01*
X0533619Y0266297D02*
X0533619Y0266297D01*
G75*
G02*
X0533619Y0272978I0003341J0003341D01*
G01*
X0535290Y0274648D01*
G75*
G02*
X0541971Y0274648I0003341J-003341D01*
G01*
X0541971Y0274648D01*
G75*
G02*
X0541971Y0267967I-003341J-003341D01*
G01*
X0540301Y0266297D01*
G75*
G02*
X0533619Y0266297I-003341J0003341D01*
G01*
G37*
G36*
G01*
X0524958Y0273777D02*
X0524958Y0273777D01*
G75*
G02*
X0524958Y0280458I0003341J0003341D01*
G01*
X0526628Y0282129D01*
G75*
G02*
X0533310Y0282129I0003341J-003341D01*
G01*
X0533310Y0282129D01*
G75*
G02*
X0533310Y0275447I-003341J-003341D01*
G01*
X0531639Y0273777D01*
G75*
G02*
X0524958Y0273777I-003341J0003341D01*
G01*
G37*
G36*
G01*
X0524958Y0298186D02*
X0524958Y0298186D01*
G75*
G02*
X0524958Y0304868I0003341J0003341D01*
G01*
X0526628Y0306538D01*
G75*
G02*
X0533310Y0306538I0003341J-003341D01*
G01*
X0533310Y0306538D01*
G75*
G02*
X0533310Y0299857I-003341J-003341D01*
G01*
X0531639Y0298186D01*
G75*
G02*
X0524958Y0298186I-003341J0003341D01*
G01*
G37*
G36*
G01*
X0533619Y0288344D02*
X0533619Y0288344D01*
G75*
G02*
X0533619Y0295025I0003341J0003341D01*
G01*
X0535290Y0296696D01*
G75*
G02*
X0541971Y0296696I0003341J-003341D01*
G01*
X0541971Y0296696D01*
G75*
G02*
X0541971Y0290014I-003341J-003341D01*
G01*
X0540301Y0288344D01*
G75*
G02*
X0533619Y0288344I-003341J0003341D01*
G01*
G37*
G36*
G01*
X0524958Y0251730D02*
X0524958Y0251730D01*
G75*
G02*
X0524958Y0258411I0003341J0003341D01*
G01*
X0526628Y0260081D01*
G75*
G02*
X0533310Y0260081I0003341J-003341D01*
G01*
X0533310Y0260081D01*
G75*
G02*
X0533310Y0253400I-003341J-003341D01*
G01*
X0531639Y0251730D01*
G75*
G02*
X0524958Y0251730I-003341J0003341D01*
G01*
G37*
X0537798Y0019319D03*
D43*
X0255161Y0505118D03*
G36*
G01*
X0111105Y0469291D02*
X0106223Y0469291D01*
G75*
G02*
X0105711Y0469803I0000000J0000512D01*
G01*
X0105711Y0473898D01*
G75*
G02*
X0106223Y0474410I0000512J0000000D01*
G01*
X0111105Y0474410D01*
G75*
G02*
X0111617Y0473898I0000000J-000512D01*
G01*
X0111617Y0469803D01*
G75*
G02*
X0111105Y0469291I-000512J0000000D01*
G01*
G37*
G36*
G01*
X0111105Y0461811D02*
X0106223Y0461811D01*
G75*
G02*
X0105711Y0462323I0000000J0000512D01*
G01*
X0105711Y0466417D01*
G75*
G02*
X0106223Y0466929I0000512J0000000D01*
G01*
X0111105Y0466929D01*
G75*
G02*
X0111617Y0466417I0000000J-000512D01*
G01*
X0111617Y0462323D01*
G75*
G02*
X0111105Y0461811I-000512J0000000D01*
G01*
G37*
X0245672Y0164192D03*
D69*
X0076778Y0538007D03*
D158*
X0092723Y0476885D03*
D143*
X0059062Y0533381D03*
X0064278Y0500999D03*
X0084879Y0501068D03*
X0086818Y0508480D03*
X0091247Y0479543D03*
G36*
G01*
X0164961Y0387008D02*
X0168504Y0387008D01*
G75*
G02*
X0168898Y0386614I0000000J-000394D01*
G01*
X0168898Y0383465D01*
G75*
G02*
X0168504Y0383071I-000394J0000000D01*
G01*
X0164961Y0383071D01*
G75*
G02*
X0164567Y0383465I0000000J0000394D01*
G01*
X0164567Y0386614D01*
G75*
G02*
X0164961Y0387008I0000394J0000000D01*
G01*
G37*
G36*
G01*
X0164961Y0380315D02*
X0168504Y0380315D01*
G75*
G02*
X0168898Y0379921I0000000J-000394D01*
G01*
X0168898Y0376772D01*
G75*
G02*
X0168504Y0376378I-000394J0000000D01*
G01*
X0164961Y0376378D01*
G75*
G02*
X0164567Y0376772I0000000J0000394D01*
G01*
X0164567Y0379921D01*
G75*
G02*
X0164961Y0380315I0000394J0000000D01*
G01*
G37*
G36*
G01*
X0489091Y0214510D02*
X0485548Y0214510D01*
G75*
G02*
X0485154Y0214904I0000000J0000394D01*
G01*
X0485154Y0218053D01*
G75*
G02*
X0485548Y0218447I0000394J0000000D01*
G01*
X0489091Y0218447D01*
G75*
G02*
X0489485Y0218053I0000000J-000394D01*
G01*
X0489485Y0214904D01*
G75*
G02*
X0489091Y0214510I-000394J0000000D01*
G01*
G37*
G36*
G01*
X0489091Y0221203D02*
X0485548Y0221203D01*
G75*
G02*
X0485154Y0221596I0000000J0000394D01*
G01*
X0485154Y0224746D01*
G75*
G02*
X0485548Y0225140I0000394J0000000D01*
G01*
X0489091Y0225140D01*
G75*
G02*
X0489485Y0224746I0000000J-000394D01*
G01*
X0489485Y0221596D01*
G75*
G02*
X0489091Y0221203I-000394J0000000D01*
G01*
G37*
D43*
X0080000Y0130000D03*
X0080000Y0140000D03*
X0080000Y0150000D03*
X0080000Y0160000D03*
X0080000Y0170000D03*
X0090000Y0130000D03*
X0090000Y0140000D03*
X0090000Y0150000D03*
X0090000Y0160000D03*
X0090000Y0170000D03*
X0100000Y0130000D03*
X0100000Y0140000D03*
X0100000Y0150000D03*
X0100000Y0160000D03*
X0100000Y0170000D03*
G36*
G01*
X0504941Y0359252D02*
X0506122Y0359252D01*
G75*
G02*
X0506713Y0358661I0000000J-000591D01*
G01*
X0506713Y0352165D01*
G75*
G02*
X0506122Y0351575I-000591J0000000D01*
G01*
X0504941Y0351575D01*
G75*
G02*
X0504350Y0352165I0000000J0000591D01*
G01*
X0504350Y0358661D01*
G75*
G02*
X0504941Y0359252I0000591J0000000D01*
G01*
G37*
G36*
G01*
X0499941Y0359252D02*
X0501122Y0359252D01*
G75*
G02*
X0501713Y0358661I0000000J-000591D01*
G01*
X0501713Y0352165D01*
G75*
G02*
X0501122Y0351575I-000591J0000000D01*
G01*
X0499941Y0351575D01*
G75*
G02*
X0499350Y0352165I0000000J0000591D01*
G01*
X0499350Y0358661D01*
G75*
G02*
X0499941Y0359252I0000591J0000000D01*
G01*
G37*
G36*
G01*
X0494941Y0359252D02*
X0496122Y0359252D01*
G75*
G02*
X0496713Y0358661I0000000J-000591D01*
G01*
X0496713Y0352165D01*
G75*
G02*
X0496122Y0351575I-000591J0000000D01*
G01*
X0494941Y0351575D01*
G75*
G02*
X0494350Y0352165I0000000J0000591D01*
G01*
X0494350Y0358661D01*
G75*
G02*
X0494941Y0359252I0000591J0000000D01*
G01*
G37*
G36*
G01*
X0489941Y0359252D02*
X0491122Y0359252D01*
G75*
G02*
X0491713Y0358661I0000000J-000591D01*
G01*
X0491713Y0352165D01*
G75*
G02*
X0491122Y0351575I-000591J0000000D01*
G01*
X0489941Y0351575D01*
G75*
G02*
X0489350Y0352165I0000000J0000591D01*
G01*
X0489350Y0358661D01*
G75*
G02*
X0489941Y0359252I0000591J0000000D01*
G01*
G37*
G36*
G01*
X0489941Y0339764D02*
X0491122Y0339764D01*
G75*
G02*
X0491713Y0339173I0000000J-000591D01*
G01*
X0491713Y0332677D01*
G75*
G02*
X0491122Y0332087I-000591J0000000D01*
G01*
X0489941Y0332087D01*
G75*
G02*
X0489350Y0332677I0000000J0000591D01*
G01*
X0489350Y0339173D01*
G75*
G02*
X0489941Y0339764I0000591J0000000D01*
G01*
G37*
G36*
G01*
X0494941Y0339764D02*
X0496122Y0339764D01*
G75*
G02*
X0496713Y0339173I0000000J-000591D01*
G01*
X0496713Y0332677D01*
G75*
G02*
X0496122Y0332087I-000591J0000000D01*
G01*
X0494941Y0332087D01*
G75*
G02*
X0494350Y0332677I0000000J0000591D01*
G01*
X0494350Y0339173D01*
G75*
G02*
X0494941Y0339764I0000591J0000000D01*
G01*
G37*
G36*
G01*
X0499941Y0339764D02*
X0501122Y0339764D01*
G75*
G02*
X0501713Y0339173I0000000J-000591D01*
G01*
X0501713Y0332677D01*
G75*
G02*
X0501122Y0332087I-000591J0000000D01*
G01*
X0499941Y0332087D01*
G75*
G02*
X0499350Y0332677I0000000J0000591D01*
G01*
X0499350Y0339173D01*
G75*
G02*
X0499941Y0339764I0000591J0000000D01*
G01*
G37*
G36*
G01*
X0504941Y0339764D02*
X0506122Y0339764D01*
G75*
G02*
X0506713Y0339173I0000000J-000591D01*
G01*
X0506713Y0332677D01*
G75*
G02*
X0506122Y0332087I-000591J0000000D01*
G01*
X0504941Y0332087D01*
G75*
G02*
X0504350Y0332677I0000000J0000591D01*
G01*
X0504350Y0339173D01*
G75*
G02*
X0504941Y0339764I0000591J0000000D01*
G01*
G37*
D282*
X0590551Y0305118D03*
G36*
G01*
X0456834Y0499390D02*
X0451913Y0499390D01*
G75*
G02*
X0451520Y0499783I0000000J0000394D01*
G01*
X0451520Y0502933D01*
G75*
G02*
X0451913Y0503327I0000394J0000000D01*
G01*
X0456834Y0503327D01*
G75*
G02*
X0457228Y0502933I0000000J-000394D01*
G01*
X0457228Y0499783D01*
G75*
G02*
X0456834Y0499390I-000394J0000000D01*
G01*
G37*
D272*
X0454374Y0497598D03*
G36*
G01*
X0456834Y0506870D02*
X0451913Y0506870D01*
G75*
G02*
X0451520Y0507264I0000000J0000394D01*
G01*
X0451520Y0510413D01*
G75*
G02*
X0451913Y0510807I0000394J0000000D01*
G01*
X0456834Y0510807D01*
G75*
G02*
X0457228Y0510413I0000000J-000394D01*
G01*
X0457228Y0507264D01*
G75*
G02*
X0456834Y0506870I-000394J0000000D01*
G01*
G37*
X0454374Y0512598D03*
G36*
G01*
X0405318Y0433453D02*
X0405318Y0430382D01*
G75*
G02*
X0405042Y0430107I-000276J0000000D01*
G01*
X0402837Y0430107D01*
G75*
G02*
X0402562Y0430382I0000000J0000276D01*
G01*
X0402562Y0433453D01*
G75*
G02*
X0402837Y0433729I0000276J0000000D01*
G01*
X0405042Y0433729D01*
G75*
G02*
X0405318Y0433453I0000000J-000276D01*
G01*
G37*
G36*
G01*
X0399019Y0433453D02*
X0399019Y0430382D01*
G75*
G02*
X0398743Y0430107I-000276J0000000D01*
G01*
X0396538Y0430107D01*
G75*
G02*
X0396263Y0430382I0000000J0000276D01*
G01*
X0396263Y0433453D01*
G75*
G02*
X0396538Y0433729I0000276J0000000D01*
G01*
X0398743Y0433729D01*
G75*
G02*
X0399019Y0433453I0000000J-000276D01*
G01*
G37*
G36*
G01*
X0116972Y0473780D02*
X0116972Y0471890D01*
G75*
G02*
X0116736Y0471654I-000236J0000000D01*
G01*
X0114846Y0471654D01*
G75*
G02*
X0114610Y0471890I0000000J0000236D01*
G01*
X0114610Y0473780D01*
G75*
G02*
X0114846Y0474016I0000236J0000000D01*
G01*
X0116736Y0474016D01*
G75*
G02*
X0116972Y0473780I0000000J-000236D01*
G01*
G37*
G36*
G01*
X0116972Y0465118D02*
X0116972Y0463228D01*
G75*
G02*
X0116736Y0462992I-000236J0000000D01*
G01*
X0114846Y0462992D01*
G75*
G02*
X0114610Y0463228I0000000J0000236D01*
G01*
X0114610Y0465118D01*
G75*
G02*
X0114846Y0465354I0000236J0000000D01*
G01*
X0116736Y0465354D01*
G75*
G02*
X0116972Y0465118I0000000J-000236D01*
G01*
G37*
D43*
X0020000Y0130000D03*
X0020000Y0140000D03*
X0020000Y0150000D03*
X0020000Y0160000D03*
X0020000Y0170000D03*
X0030000Y0130000D03*
X0030000Y0140000D03*
X0030000Y0150000D03*
X0030000Y0160000D03*
X0030000Y0170000D03*
X0040000Y0130000D03*
X0040000Y0140000D03*
X0040000Y0150000D03*
X0040000Y0160000D03*
X0040000Y0170000D03*
G36*
G01*
X0194630Y0499409D02*
X0189709Y0499409D01*
G75*
G02*
X0189315Y0499803I0000000J0000394D01*
G01*
X0189315Y0502953D01*
G75*
G02*
X0189709Y0503346I0000394J0000000D01*
G01*
X0194630Y0503346D01*
G75*
G02*
X0195023Y0502953I0000000J-000394D01*
G01*
X0195023Y0499803D01*
G75*
G02*
X0194630Y0499409I-000394J0000000D01*
G01*
G37*
D272*
X0192169Y0497618D03*
G36*
G01*
X0194630Y0506890D02*
X0189709Y0506890D01*
G75*
G02*
X0189315Y0507284I0000000J0000394D01*
G01*
X0189315Y0510433D01*
G75*
G02*
X0189709Y0510827I0000394J0000000D01*
G01*
X0194630Y0510827D01*
G75*
G02*
X0195023Y0510433I0000000J-000394D01*
G01*
X0195023Y0507284D01*
G75*
G02*
X0194630Y0506890I-000394J0000000D01*
G01*
G37*
X0192169Y0512618D03*
G36*
G01*
X0176913Y0525000D02*
X0171992Y0525000D01*
G75*
G02*
X0171598Y0525394I0000000J0000394D01*
G01*
X0171598Y0528543D01*
G75*
G02*
X0171992Y0528937I0000394J0000000D01*
G01*
X0176913Y0528937D01*
G75*
G02*
X0177307Y0528543I0000000J-000394D01*
G01*
X0177307Y0525394D01*
G75*
G02*
X0176913Y0525000I-000394J0000000D01*
G01*
G37*
X0174453Y0523209D03*
X0174453Y0538209D03*
G36*
G01*
X0176913Y0532480D02*
X0171992Y0532480D01*
G75*
G02*
X0171598Y0532874I0000000J0000394D01*
G01*
X0171598Y0536024D01*
G75*
G02*
X0171992Y0536417I0000394J0000000D01*
G01*
X0176913Y0536417D01*
G75*
G02*
X0177307Y0536024I0000000J-000394D01*
G01*
X0177307Y0532874D01*
G75*
G02*
X0176913Y0532480I-000394J0000000D01*
G01*
G37*
G36*
G01*
X0157480Y0387008D02*
X0161024Y0387008D01*
G75*
G02*
X0161417Y0386614I0000000J-000394D01*
G01*
X0161417Y0383465D01*
G75*
G02*
X0161024Y0383071I-000394J0000000D01*
G01*
X0157480Y0383071D01*
G75*
G02*
X0157087Y0383465I0000000J0000394D01*
G01*
X0157087Y0386614D01*
G75*
G02*
X0157480Y0387008I0000394J0000000D01*
G01*
G37*
G36*
G01*
X0157480Y0380315D02*
X0161024Y0380315D01*
G75*
G02*
X0161417Y0379921I0000000J-000394D01*
G01*
X0161417Y0376772D01*
G75*
G02*
X0161024Y0376378I-000394J0000000D01*
G01*
X0157480Y0376378D01*
G75*
G02*
X0157087Y0376772I0000000J0000394D01*
G01*
X0157087Y0379921D01*
G75*
G02*
X0157480Y0380315I0000394J0000000D01*
G01*
G37*
G36*
G01*
X0187008Y0386794D02*
X0187008Y0384904D01*
G75*
G02*
X0186772Y0384668I-000236J0000000D01*
G01*
X0184882Y0384668D01*
G75*
G02*
X0184646Y0384904I0000000J0000236D01*
G01*
X0184646Y0386794D01*
G75*
G02*
X0184882Y0387030I0000236J0000000D01*
G01*
X0186772Y0387030D01*
G75*
G02*
X0187008Y0386794I0000000J-000236D01*
G01*
G37*
G36*
G01*
X0187008Y0378132D02*
X0187008Y0376242D01*
G75*
G02*
X0186772Y0376006I-000236J0000000D01*
G01*
X0184882Y0376006D01*
G75*
G02*
X0184646Y0376242I0000000J0000236D01*
G01*
X0184646Y0378132D01*
G75*
G02*
X0184882Y0378368I0000236J0000000D01*
G01*
X0186772Y0378368D01*
G75*
G02*
X0187008Y0378132I0000000J-000236D01*
G01*
G37*
G36*
G01*
X0380711Y0422469D02*
X0380711Y0426012D01*
G75*
G02*
X0381105Y0426406I0000394J0000000D01*
G01*
X0384255Y0426406D01*
G75*
G02*
X0384648Y0426012I0000000J-000394D01*
G01*
X0384648Y0422469D01*
G75*
G02*
X0384255Y0422075I-000394J0000000D01*
G01*
X0381105Y0422075D01*
G75*
G02*
X0380711Y0422469I0000000J0000394D01*
G01*
G37*
G36*
G01*
X0387404Y0422469D02*
X0387404Y0426012D01*
G75*
G02*
X0387798Y0426406I0000394J0000000D01*
G01*
X0390948Y0426406D01*
G75*
G02*
X0391341Y0426012I0000000J-000394D01*
G01*
X0391341Y0422469D01*
G75*
G02*
X0390948Y0422075I-000394J0000000D01*
G01*
X0387798Y0422075D01*
G75*
G02*
X0387404Y0422469I0000000J0000394D01*
G01*
G37*
G36*
G01*
X0171008Y0499409D02*
X0166086Y0499409D01*
G75*
G02*
X0165693Y0499803I0000000J0000394D01*
G01*
X0165693Y0502953D01*
G75*
G02*
X0166086Y0503346I0000394J0000000D01*
G01*
X0171008Y0503346D01*
G75*
G02*
X0171401Y0502953I0000000J-000394D01*
G01*
X0171401Y0499803D01*
G75*
G02*
X0171008Y0499409I-000394J0000000D01*
G01*
G37*
X0168547Y0497618D03*
G36*
G01*
X0171008Y0506890D02*
X0166086Y0506890D01*
G75*
G02*
X0165693Y0507284I0000000J0000394D01*
G01*
X0165693Y0510433D01*
G75*
G02*
X0166086Y0510827I0000394J0000000D01*
G01*
X0171008Y0510827D01*
G75*
G02*
X0171401Y0510433I0000000J-000394D01*
G01*
X0171401Y0507284D01*
G75*
G02*
X0171008Y0506890I-000394J0000000D01*
G01*
G37*
X0168547Y0512618D03*
D282*
X0066929Y0607087D03*
G36*
G01*
X0247779Y0525000D02*
X0242858Y0525000D01*
G75*
G02*
X0242464Y0525394I0000000J0000394D01*
G01*
X0242464Y0528543D01*
G75*
G02*
X0242858Y0528937I0000394J0000000D01*
G01*
X0247779Y0528937D01*
G75*
G02*
X0248173Y0528543I0000000J-000394D01*
G01*
X0248173Y0525394D01*
G75*
G02*
X0247779Y0525000I-000394J0000000D01*
G01*
G37*
D272*
X0245319Y0523209D03*
G36*
G01*
X0247779Y0532480D02*
X0242858Y0532480D01*
G75*
G02*
X0242464Y0532874I0000000J0000394D01*
G01*
X0242464Y0536024D01*
G75*
G02*
X0242858Y0536417I0000394J0000000D01*
G01*
X0247779Y0536417D01*
G75*
G02*
X0248173Y0536024I0000000J-000394D01*
G01*
X0248173Y0532874D01*
G75*
G02*
X0247779Y0532480I-000394J0000000D01*
G01*
G37*
X0245319Y0538209D03*
G36*
G01*
X0531638Y0499390D02*
X0526716Y0499390D01*
G75*
G02*
X0526323Y0499783I0000000J0000394D01*
G01*
X0526323Y0502933D01*
G75*
G02*
X0526716Y0503327I0000394J0000000D01*
G01*
X0531638Y0503327D01*
G75*
G02*
X0532031Y0502933I0000000J-000394D01*
G01*
X0532031Y0499783D01*
G75*
G02*
X0531638Y0499390I-000394J0000000D01*
G01*
G37*
X0529177Y0497598D03*
G36*
G01*
X0531638Y0506870D02*
X0526716Y0506870D01*
G75*
G02*
X0526323Y0507264I0000000J0000394D01*
G01*
X0526323Y0510413D01*
G75*
G02*
X0526716Y0510807I0000394J0000000D01*
G01*
X0531638Y0510807D01*
G75*
G02*
X0532031Y0510413I0000000J-000394D01*
G01*
X0532031Y0507264D01*
G75*
G02*
X0531638Y0506870I-000394J0000000D01*
G01*
G37*
X0529177Y0512598D03*
G36*
G01*
X0327171Y0283271D02*
X0324100Y0283271D01*
G75*
G02*
X0323864Y0283507I0000000J0000236D01*
G01*
X0323864Y0285397D01*
G75*
G02*
X0324100Y0285633I0000236J0000000D01*
G01*
X0327171Y0285633D01*
G75*
G02*
X0327407Y0285397I0000000J-000236D01*
G01*
X0327407Y0283507D01*
G75*
G02*
X0327171Y0283271I-000236J0000000D01*
G01*
G37*
G36*
G01*
X0327171Y0287011D02*
X0324100Y0287011D01*
G75*
G02*
X0323864Y0287248I0000000J0000236D01*
G01*
X0323864Y0289137D01*
G75*
G02*
X0324100Y0289374I0000236J0000000D01*
G01*
X0327171Y0289374D01*
G75*
G02*
X0327407Y0289137I0000000J-000236D01*
G01*
X0327407Y0287248D01*
G75*
G02*
X0327171Y0287011I-000236J0000000D01*
G01*
G37*
G36*
G01*
X0327171Y0290751D02*
X0324100Y0290751D01*
G75*
G02*
X0323864Y0290988I0000000J0000236D01*
G01*
X0323864Y0292877D01*
G75*
G02*
X0324100Y0293114I0000236J0000000D01*
G01*
X0327171Y0293114D01*
G75*
G02*
X0327407Y0292877I0000000J-000236D01*
G01*
X0327407Y0290988D01*
G75*
G02*
X0327171Y0290751I-000236J0000000D01*
G01*
G37*
G36*
G01*
X0317722Y0290751D02*
X0314651Y0290751D01*
G75*
G02*
X0314415Y0290988I0000000J0000236D01*
G01*
X0314415Y0292877D01*
G75*
G02*
X0314651Y0293114I0000236J0000000D01*
G01*
X0317722Y0293114D01*
G75*
G02*
X0317958Y0292877I0000000J-000236D01*
G01*
X0317958Y0290988D01*
G75*
G02*
X0317722Y0290751I-000236J0000000D01*
G01*
G37*
G36*
G01*
X0317722Y0287011D02*
X0314651Y0287011D01*
G75*
G02*
X0314415Y0287248I0000000J0000236D01*
G01*
X0314415Y0289137D01*
G75*
G02*
X0314651Y0289374I0000236J0000000D01*
G01*
X0317722Y0289374D01*
G75*
G02*
X0317958Y0289137I0000000J-000236D01*
G01*
X0317958Y0287248D01*
G75*
G02*
X0317722Y0287011I-000236J0000000D01*
G01*
G37*
G36*
G01*
X0317722Y0283271D02*
X0314651Y0283271D01*
G75*
G02*
X0314415Y0283507I0000000J0000236D01*
G01*
X0314415Y0285397D01*
G75*
G02*
X0314651Y0285633I0000236J0000000D01*
G01*
X0317722Y0285633D01*
G75*
G02*
X0317958Y0285397I0000000J-000236D01*
G01*
X0317958Y0283507D01*
G75*
G02*
X0317722Y0283271I-000236J0000000D01*
G01*
G37*
G36*
G01*
X0525732Y0525000D02*
X0520811Y0525000D01*
G75*
G02*
X0520417Y0525394I0000000J0000394D01*
G01*
X0520417Y0528543D01*
G75*
G02*
X0520811Y0528937I0000394J0000000D01*
G01*
X0525732Y0528937D01*
G75*
G02*
X0526126Y0528543I0000000J-000394D01*
G01*
X0526126Y0525394D01*
G75*
G02*
X0525732Y0525000I-000394J0000000D01*
G01*
G37*
X0523271Y0523209D03*
X0523271Y0538209D03*
G36*
G01*
X0525732Y0532480D02*
X0520811Y0532480D01*
G75*
G02*
X0520417Y0532874I0000000J0000394D01*
G01*
X0520417Y0536024D01*
G75*
G02*
X0520811Y0536417I0000394J0000000D01*
G01*
X0525732Y0536417D01*
G75*
G02*
X0526126Y0536024I0000000J-000394D01*
G01*
X0526126Y0532874D01*
G75*
G02*
X0525732Y0532480I-000394J0000000D01*
G01*
G37*
G36*
G01*
X0428291Y0487972D02*
X0433212Y0487972D01*
G75*
G02*
X0433606Y0487579I0000000J-000394D01*
G01*
X0433606Y0484429D01*
G75*
G02*
X0433212Y0484035I-000394J0000000D01*
G01*
X0428291Y0484035D01*
G75*
G02*
X0427897Y0484429I0000000J0000394D01*
G01*
X0427897Y0487579D01*
G75*
G02*
X0428291Y0487972I0000394J0000000D01*
G01*
G37*
X0430752Y0489764D03*
G36*
G01*
X0428291Y0480492D02*
X0433212Y0480492D01*
G75*
G02*
X0433606Y0480098I0000000J-000394D01*
G01*
X0433606Y0476949D01*
G75*
G02*
X0433212Y0476555I-000394J0000000D01*
G01*
X0428291Y0476555D01*
G75*
G02*
X0427897Y0476949I0000000J0000394D01*
G01*
X0427897Y0480098D01*
G75*
G02*
X0428291Y0480492I0000394J0000000D01*
G01*
G37*
X0430752Y0474764D03*
D115*
X0394062Y0099796D03*
D218*
X0434810Y0099599D03*
X0432842Y0099599D03*
D143*
X0407055Y0095465D03*
X0410499Y0093398D03*
X0405873Y0090446D03*
X0406169Y0076469D03*
D43*
X0472090Y0530689D03*
D51*
X0483946Y0058204D03*
D159*
X0483946Y0048204D03*
X0473946Y0058204D03*
X0473946Y0048204D03*
X0463946Y0058204D03*
X0463946Y0048204D03*
X0453946Y0058204D03*
X0453946Y0048204D03*
X0443946Y0058204D03*
X0443946Y0048204D03*
X0433946Y0058204D03*
X0433946Y0048204D03*
X0423946Y0058204D03*
X0423946Y0048204D03*
X0413946Y0058204D03*
X0413946Y0048204D03*
X0403946Y0058204D03*
X0403946Y0048204D03*
X0393946Y0058204D03*
X0393946Y0048204D03*
X0383946Y0058204D03*
X0383946Y0048204D03*
X0373946Y0058204D03*
X0373946Y0048204D03*
G36*
G01*
X0405318Y0425973D02*
X0405318Y0422902D01*
G75*
G02*
X0405042Y0422626I-000276J0000000D01*
G01*
X0402837Y0422626D01*
G75*
G02*
X0402562Y0422902I0000000J0000276D01*
G01*
X0402562Y0425973D01*
G75*
G02*
X0402837Y0426248I0000276J0000000D01*
G01*
X0405042Y0426248D01*
G75*
G02*
X0405318Y0425973I0000000J-000276D01*
G01*
G37*
G36*
G01*
X0399019Y0425973D02*
X0399019Y0422902D01*
G75*
G02*
X0398743Y0422626I-000276J0000000D01*
G01*
X0396538Y0422626D01*
G75*
G02*
X0396263Y0422902I0000000J0000276D01*
G01*
X0396263Y0425973D01*
G75*
G02*
X0396538Y0426248I0000276J0000000D01*
G01*
X0398743Y0426248D01*
G75*
G02*
X0399019Y0425973I0000000J-000276D01*
G01*
G37*
D272*
X0222050Y0497646D03*
G36*
G01*
X0224511Y0499437D02*
X0219589Y0499437D01*
G75*
G02*
X0219196Y0499831I0000000J0000394D01*
G01*
X0219196Y0502981D01*
G75*
G02*
X0219589Y0503374I0000394J0000000D01*
G01*
X0224511Y0503374D01*
G75*
G02*
X0224904Y0502981I0000000J-000394D01*
G01*
X0224904Y0499831D01*
G75*
G02*
X0224511Y0499437I-000394J0000000D01*
G01*
G37*
G36*
G01*
X0224511Y0506918D02*
X0219589Y0506918D01*
G75*
G02*
X0219196Y0507311I0000000J0000394D01*
G01*
X0219196Y0510461D01*
G75*
G02*
X0219589Y0510855I0000394J0000000D01*
G01*
X0224511Y0510855D01*
G75*
G02*
X0224904Y0510461I0000000J-000394D01*
G01*
X0224904Y0507311D01*
G75*
G02*
X0224511Y0506918I-000394J0000000D01*
G01*
G37*
X0222050Y0512646D03*
G36*
G01*
X0159197Y0499409D02*
X0154275Y0499409D01*
G75*
G02*
X0153882Y0499803I0000000J0000394D01*
G01*
X0153882Y0502953D01*
G75*
G02*
X0154275Y0503346I0000394J0000000D01*
G01*
X0159197Y0503346D01*
G75*
G02*
X0159590Y0502953I0000000J-000394D01*
G01*
X0159590Y0499803D01*
G75*
G02*
X0159197Y0499409I-000394J0000000D01*
G01*
G37*
X0156736Y0497618D03*
X0156736Y0512618D03*
G36*
G01*
X0159197Y0506890D02*
X0154275Y0506890D01*
G75*
G02*
X0153882Y0507284I0000000J0000394D01*
G01*
X0153882Y0510433D01*
G75*
G02*
X0154275Y0510827I0000394J0000000D01*
G01*
X0159197Y0510827D01*
G75*
G02*
X0159590Y0510433I0000000J-000394D01*
G01*
X0159590Y0507284D01*
G75*
G02*
X0159197Y0506890I-000394J0000000D01*
G01*
G37*
G36*
G01*
X0403685Y0525174D02*
X0398764Y0525174D01*
G75*
G02*
X0398370Y0525567I0000000J0000394D01*
G01*
X0398370Y0528717D01*
G75*
G02*
X0398764Y0529111I0000394J0000000D01*
G01*
X0403685Y0529111D01*
G75*
G02*
X0404079Y0528717I0000000J-000394D01*
G01*
X0404079Y0525567D01*
G75*
G02*
X0403685Y0525174I-000394J0000000D01*
G01*
G37*
X0401224Y0523382D03*
G36*
G01*
X0403685Y0532654D02*
X0398764Y0532654D01*
G75*
G02*
X0398370Y0533048I0000000J0000394D01*
G01*
X0398370Y0536197D01*
G75*
G02*
X0398764Y0536591I0000394J0000000D01*
G01*
X0403685Y0536591D01*
G75*
G02*
X0404079Y0536197I0000000J-000394D01*
G01*
X0404079Y0533048D01*
G75*
G02*
X0403685Y0532654I-000394J0000000D01*
G01*
G37*
X0401224Y0538382D03*
G36*
G01*
X0481217Y0214510D02*
X0477674Y0214510D01*
G75*
G02*
X0477280Y0214904I0000000J0000394D01*
G01*
X0477280Y0218053D01*
G75*
G02*
X0477674Y0218447I0000394J0000000D01*
G01*
X0481217Y0218447D01*
G75*
G02*
X0481611Y0218053I0000000J-000394D01*
G01*
X0481611Y0214904D01*
G75*
G02*
X0481217Y0214510I-000394J0000000D01*
G01*
G37*
G36*
G01*
X0481217Y0221203D02*
X0477674Y0221203D01*
G75*
G02*
X0477280Y0221596I0000000J0000394D01*
G01*
X0477280Y0224746D01*
G75*
G02*
X0477674Y0225140I0000394J0000000D01*
G01*
X0481217Y0225140D01*
G75*
G02*
X0481611Y0224746I0000000J-000394D01*
G01*
X0481611Y0221596D01*
G75*
G02*
X0481217Y0221203I-000394J0000000D01*
G01*
G37*
G36*
G01*
X0270119Y0336027D02*
X0273662Y0336027D01*
G75*
G02*
X0274056Y0335633I0000000J-000394D01*
G01*
X0274056Y0332483D01*
G75*
G02*
X0273662Y0332090I-000394J0000000D01*
G01*
X0270119Y0332090D01*
G75*
G02*
X0269725Y0332483I0000000J0000394D01*
G01*
X0269725Y0335633D01*
G75*
G02*
X0270119Y0336027I0000394J0000000D01*
G01*
G37*
G36*
G01*
X0270119Y0329334D02*
X0273662Y0329334D01*
G75*
G02*
X0274056Y0328940I0000000J-000394D01*
G01*
X0274056Y0325790D01*
G75*
G02*
X0273662Y0325397I-000394J0000000D01*
G01*
X0270119Y0325397D01*
G75*
G02*
X0269725Y0325790I0000000J0000394D01*
G01*
X0269725Y0328940D01*
G75*
G02*
X0270119Y0329334I0000394J0000000D01*
G01*
G37*
D45*
X0251181Y0048819D03*
G36*
G01*
X0510472Y0341398D02*
X0513150Y0341398D01*
G75*
G02*
X0513484Y0341063I0000000J-000335D01*
G01*
X0513484Y0338386D01*
G75*
G02*
X0513150Y0338051I-000335J0000000D01*
G01*
X0510472Y0338051D01*
G75*
G02*
X0510138Y0338386I0000000J0000335D01*
G01*
X0510138Y0341063D01*
G75*
G02*
X0510472Y0341398I0000335J0000000D01*
G01*
G37*
G36*
G01*
X0510472Y0335177D02*
X0513150Y0335177D01*
G75*
G02*
X0513484Y0334843I0000000J-000335D01*
G01*
X0513484Y0332165D01*
G75*
G02*
X0513150Y0331831I-000335J0000000D01*
G01*
X0510472Y0331831D01*
G75*
G02*
X0510138Y0332165I0000000J0000335D01*
G01*
X0510138Y0334843D01*
G75*
G02*
X0510472Y0335177I0000335J0000000D01*
G01*
G37*
G36*
G01*
X0489879Y0240238D02*
X0489879Y0237600D01*
G75*
G02*
X0489623Y0237345I-000256J0000000D01*
G01*
X0487575Y0237345D01*
G75*
G02*
X0487319Y0237600I0000000J0000256D01*
G01*
X0487319Y0240238D01*
G75*
G02*
X0487575Y0240494I0000256J0000000D01*
G01*
X0489623Y0240494D01*
G75*
G02*
X0489879Y0240238I0000000J-000256D01*
G01*
G37*
G36*
G01*
X0486040Y0240317D02*
X0486040Y0237522D01*
G75*
G02*
X0485863Y0237345I-000177J0000000D01*
G01*
X0484445Y0237345D01*
G75*
G02*
X0484268Y0237522I0000000J0000177D01*
G01*
X0484268Y0240317D01*
G75*
G02*
X0484445Y0240494I0000177J0000000D01*
G01*
X0485863Y0240494D01*
G75*
G02*
X0486040Y0240317I0000000J-000177D01*
G01*
G37*
G36*
G01*
X0482890Y0240317D02*
X0482890Y0237522D01*
G75*
G02*
X0482713Y0237345I-000177J0000000D01*
G01*
X0481296Y0237345D01*
G75*
G02*
X0481119Y0237522I0000000J0000177D01*
G01*
X0481119Y0240317D01*
G75*
G02*
X0481296Y0240494I0000177J0000000D01*
G01*
X0482713Y0240494D01*
G75*
G02*
X0482890Y0240317I0000000J-000177D01*
G01*
G37*
G36*
G01*
X0479839Y0240238D02*
X0479839Y0237600D01*
G75*
G02*
X0479583Y0237345I-000256J0000000D01*
G01*
X0477536Y0237345D01*
G75*
G02*
X0477280Y0237600I0000000J0000256D01*
G01*
X0477280Y0240238D01*
G75*
G02*
X0477536Y0240494I0000256J0000000D01*
G01*
X0479583Y0240494D01*
G75*
G02*
X0479839Y0240238I0000000J-000256D01*
G01*
G37*
G36*
G01*
X0479839Y0233152D02*
X0479839Y0230514D01*
G75*
G02*
X0479583Y0230258I-000256J0000000D01*
G01*
X0477536Y0230258D01*
G75*
G02*
X0477280Y0230514I0000000J0000256D01*
G01*
X0477280Y0233152D01*
G75*
G02*
X0477536Y0233408I0000256J0000000D01*
G01*
X0479583Y0233408D01*
G75*
G02*
X0479839Y0233152I0000000J-000256D01*
G01*
G37*
G36*
G01*
X0482890Y0233230D02*
X0482890Y0230435D01*
G75*
G02*
X0482713Y0230258I-000177J0000000D01*
G01*
X0481296Y0230258D01*
G75*
G02*
X0481119Y0230435I0000000J0000177D01*
G01*
X0481119Y0233230D01*
G75*
G02*
X0481296Y0233408I0000177J0000000D01*
G01*
X0482713Y0233408D01*
G75*
G02*
X0482890Y0233230I0000000J-000177D01*
G01*
G37*
G36*
G01*
X0486040Y0233230D02*
X0486040Y0230435D01*
G75*
G02*
X0485863Y0230258I-000177J0000000D01*
G01*
X0484445Y0230258D01*
G75*
G02*
X0484268Y0230435I0000000J0000177D01*
G01*
X0484268Y0233230D01*
G75*
G02*
X0484445Y0233408I0000177J0000000D01*
G01*
X0485863Y0233408D01*
G75*
G02*
X0486040Y0233230I0000000J-000177D01*
G01*
G37*
G36*
G01*
X0489879Y0233152D02*
X0489879Y0230514D01*
G75*
G02*
X0489623Y0230258I-000256J0000000D01*
G01*
X0487575Y0230258D01*
G75*
G02*
X0487319Y0230514I0000000J0000256D01*
G01*
X0487319Y0233152D01*
G75*
G02*
X0487575Y0233408I0000256J0000000D01*
G01*
X0489623Y0233408D01*
G75*
G02*
X0489879Y0233152I0000000J-000256D01*
G01*
G37*
G36*
G01*
X0169291Y0402500D02*
X0169291Y0399862D01*
G75*
G02*
X0169035Y0399606I-000256J0000000D01*
G01*
X0166988Y0399606D01*
G75*
G02*
X0166732Y0399862I0000000J0000256D01*
G01*
X0166732Y0402500D01*
G75*
G02*
X0166988Y0402756I0000256J0000000D01*
G01*
X0169035Y0402756D01*
G75*
G02*
X0169291Y0402500I0000000J-000256D01*
G01*
G37*
G36*
G01*
X0165453Y0402579D02*
X0165453Y0399783D01*
G75*
G02*
X0165276Y0399606I-000177J0000000D01*
G01*
X0163858Y0399606D01*
G75*
G02*
X0163681Y0399783I0000000J0000177D01*
G01*
X0163681Y0402579D01*
G75*
G02*
X0163858Y0402756I0000177J0000000D01*
G01*
X0165276Y0402756D01*
G75*
G02*
X0165453Y0402579I0000000J-000177D01*
G01*
G37*
G36*
G01*
X0162303Y0402579D02*
X0162303Y0399783D01*
G75*
G02*
X0162126Y0399606I-000177J0000000D01*
G01*
X0160709Y0399606D01*
G75*
G02*
X0160531Y0399783I0000000J0000177D01*
G01*
X0160531Y0402579D01*
G75*
G02*
X0160709Y0402756I0000177J0000000D01*
G01*
X0162126Y0402756D01*
G75*
G02*
X0162303Y0402579I0000000J-000177D01*
G01*
G37*
G36*
G01*
X0159252Y0402500D02*
X0159252Y0399862D01*
G75*
G02*
X0158996Y0399606I-000256J0000000D01*
G01*
X0156949Y0399606D01*
G75*
G02*
X0156693Y0399862I0000000J0000256D01*
G01*
X0156693Y0402500D01*
G75*
G02*
X0156949Y0402756I0000256J0000000D01*
G01*
X0158996Y0402756D01*
G75*
G02*
X0159252Y0402500I0000000J-000256D01*
G01*
G37*
G36*
G01*
X0159252Y0395413D02*
X0159252Y0392776D01*
G75*
G02*
X0158996Y0392520I-000256J0000000D01*
G01*
X0156949Y0392520D01*
G75*
G02*
X0156693Y0392776I0000000J0000256D01*
G01*
X0156693Y0395413D01*
G75*
G02*
X0156949Y0395669I0000256J0000000D01*
G01*
X0158996Y0395669D01*
G75*
G02*
X0159252Y0395413I0000000J-000256D01*
G01*
G37*
G36*
G01*
X0162303Y0395492D02*
X0162303Y0392697D01*
G75*
G02*
X0162126Y0392520I-000177J0000000D01*
G01*
X0160709Y0392520D01*
G75*
G02*
X0160531Y0392697I0000000J0000177D01*
G01*
X0160531Y0395492D01*
G75*
G02*
X0160709Y0395669I0000177J0000000D01*
G01*
X0162126Y0395669D01*
G75*
G02*
X0162303Y0395492I0000000J-000177D01*
G01*
G37*
G36*
G01*
X0165453Y0395492D02*
X0165453Y0392697D01*
G75*
G02*
X0165276Y0392520I-000177J0000000D01*
G01*
X0163858Y0392520D01*
G75*
G02*
X0163681Y0392697I0000000J0000177D01*
G01*
X0163681Y0395492D01*
G75*
G02*
X0163858Y0395669I0000177J0000000D01*
G01*
X0165276Y0395669D01*
G75*
G02*
X0165453Y0395492I0000000J-000177D01*
G01*
G37*
G36*
G01*
X0169291Y0395413D02*
X0169291Y0392776D01*
G75*
G02*
X0169035Y0392520I-000256J0000000D01*
G01*
X0166988Y0392520D01*
G75*
G02*
X0166732Y0392776I0000000J0000256D01*
G01*
X0166732Y0395413D01*
G75*
G02*
X0166988Y0395669I0000256J0000000D01*
G01*
X0169035Y0395669D01*
G75*
G02*
X0169291Y0395413I0000000J-000256D01*
G01*
G37*
D43*
X0322879Y0334673D03*
D272*
X0212643Y0482779D03*
G36*
G01*
X0215104Y0484570D02*
X0210183Y0484570D01*
G75*
G02*
X0209789Y0484964I0000000J0000394D01*
G01*
X0209789Y0488114D01*
G75*
G02*
X0210183Y0488507I0000394J0000000D01*
G01*
X0215104Y0488507D01*
G75*
G02*
X0215497Y0488114I0000000J-000394D01*
G01*
X0215497Y0484964D01*
G75*
G02*
X0215104Y0484570I-000394J0000000D01*
G01*
G37*
G36*
G01*
X0215104Y0492051D02*
X0210183Y0492051D01*
G75*
G02*
X0209789Y0492444I0000000J0000394D01*
G01*
X0209789Y0495594D01*
G75*
G02*
X0210183Y0495988I0000394J0000000D01*
G01*
X0215104Y0495988D01*
G75*
G02*
X0215497Y0495594I0000000J-000394D01*
G01*
X0215497Y0492444D01*
G75*
G02*
X0215104Y0492051I-000394J0000000D01*
G01*
G37*
X0212643Y0497779D03*
D43*
X0431100Y0372441D03*
D272*
X0448468Y0523189D03*
G36*
G01*
X0450929Y0524980D02*
X0446008Y0524980D01*
G75*
G02*
X0445614Y0525374I0000000J0000394D01*
G01*
X0445614Y0528524D01*
G75*
G02*
X0446008Y0528917I0000394J0000000D01*
G01*
X0450929Y0528917D01*
G75*
G02*
X0451323Y0528524I0000000J-000394D01*
G01*
X0451323Y0525374D01*
G75*
G02*
X0450929Y0524980I-000394J0000000D01*
G01*
G37*
X0448468Y0538189D03*
G36*
G01*
X0450929Y0532461D02*
X0446008Y0532461D01*
G75*
G02*
X0445614Y0532854I0000000J0000394D01*
G01*
X0445614Y0536004D01*
G75*
G02*
X0446008Y0536398I0000394J0000000D01*
G01*
X0450929Y0536398D01*
G75*
G02*
X0451323Y0536004I0000000J-000394D01*
G01*
X0451323Y0532854D01*
G75*
G02*
X0450929Y0532461I-000394J0000000D01*
G01*
G37*
D43*
X0209886Y0530709D03*
G36*
G01*
X0495121Y0200481D02*
X0497798Y0200481D01*
G75*
G02*
X0498133Y0200146I0000000J-000335D01*
G01*
X0498133Y0197469D01*
G75*
G02*
X0497798Y0197134I-000335J0000000D01*
G01*
X0495121Y0197134D01*
G75*
G02*
X0494786Y0197469I0000000J0000335D01*
G01*
X0494786Y0200146D01*
G75*
G02*
X0495121Y0200481I0000335J0000000D01*
G01*
G37*
G36*
G01*
X0495121Y0194260D02*
X0497798Y0194260D01*
G75*
G02*
X0498133Y0193925I0000000J-000335D01*
G01*
X0498133Y0191248D01*
G75*
G02*
X0497798Y0190914I-000335J0000000D01*
G01*
X0495121Y0190914D01*
G75*
G02*
X0494786Y0191248I0000000J0000335D01*
G01*
X0494786Y0193925D01*
G75*
G02*
X0495121Y0194260I0000335J0000000D01*
G01*
G37*
D322*
X0465451Y0154494D03*
X0468443Y0154494D03*
X0473069Y0154494D03*
X0477695Y0154494D03*
X0481002Y0154494D03*
X0483955Y0154494D03*
X0488581Y0154494D03*
X0493207Y0154494D03*
D143*
X0473364Y0114731D03*
X0466140Y0116405D03*
X0474211Y0118570D03*
X0473364Y0122015D03*
X0473069Y0125361D03*
X0466140Y0126641D03*
X0471297Y0131759D03*
X0466140Y0134318D03*
X0489466Y0106070D03*
X0473423Y0107251D03*
G36*
G01*
X0504079Y0499390D02*
X0499157Y0499390D01*
G75*
G02*
X0498764Y0499783I0000000J0000394D01*
G01*
X0498764Y0502933D01*
G75*
G02*
X0499157Y0503327I0000394J0000000D01*
G01*
X0504079Y0503327D01*
G75*
G02*
X0504472Y0502933I0000000J-000394D01*
G01*
X0504472Y0499783D01*
G75*
G02*
X0504079Y0499390I-000394J0000000D01*
G01*
G37*
D272*
X0501618Y0497598D03*
G36*
G01*
X0504079Y0506870D02*
X0499157Y0506870D01*
G75*
G02*
X0498764Y0507264I0000000J0000394D01*
G01*
X0498764Y0510413D01*
G75*
G02*
X0499157Y0510807I0000394J0000000D01*
G01*
X0504079Y0510807D01*
G75*
G02*
X0504472Y0510413I0000000J-000394D01*
G01*
X0504472Y0507264D01*
G75*
G02*
X0504079Y0506870I-000394J0000000D01*
G01*
G37*
X0501618Y0512598D03*
X0446500Y0482047D03*
G36*
G01*
X0448960Y0483838D02*
X0444039Y0483838D01*
G75*
G02*
X0443646Y0484232I0000000J0000394D01*
G01*
X0443646Y0487382D01*
G75*
G02*
X0444039Y0487776I0000394J0000000D01*
G01*
X0448960Y0487776D01*
G75*
G02*
X0449354Y0487382I0000000J-000394D01*
G01*
X0449354Y0484232D01*
G75*
G02*
X0448960Y0483838I-000394J0000000D01*
G01*
G37*
X0446500Y0497047D03*
G36*
G01*
X0448960Y0491319D02*
X0444039Y0491319D01*
G75*
G02*
X0443646Y0491713I0000000J0000394D01*
G01*
X0443646Y0494862D01*
G75*
G02*
X0444039Y0495256I0000394J0000000D01*
G01*
X0448960Y0495256D01*
G75*
G02*
X0449354Y0494862I0000000J-000394D01*
G01*
X0449354Y0491713D01*
G75*
G02*
X0448960Y0491319I-000394J0000000D01*
G01*
G37*
D43*
X0245672Y0193729D03*
G36*
G01*
X0279519Y0335784D02*
X0279519Y0333895D01*
G75*
G02*
X0279282Y0333658I-000236J0000000D01*
G01*
X0277393Y0333658D01*
G75*
G02*
X0277156Y0333895I0000000J0000236D01*
G01*
X0277156Y0335784D01*
G75*
G02*
X0277393Y0336021I0000236J0000000D01*
G01*
X0279282Y0336021D01*
G75*
G02*
X0279519Y0335784I0000000J-000236D01*
G01*
G37*
G36*
G01*
X0279519Y0327123D02*
X0279519Y0325233D01*
G75*
G02*
X0279282Y0324997I-000236J0000000D01*
G01*
X0277393Y0324997D01*
G75*
G02*
X0277156Y0325233I0000000J0000236D01*
G01*
X0277156Y0327123D01*
G75*
G02*
X0277393Y0327359I0000236J0000000D01*
G01*
X0279282Y0327359D01*
G75*
G02*
X0279519Y0327123I0000000J-000236D01*
G01*
G37*
D143*
X0059147Y0356250D03*
X0059147Y0412156D03*
X0059147Y0307969D03*
D69*
X0073813Y0459085D03*
D143*
X0059147Y0455069D03*
D69*
X0066332Y0459085D03*
D143*
X0074108Y0313435D03*
D43*
X0180358Y0505118D03*
G36*
G01*
X0336026Y0464693D02*
X0336026Y0470008D01*
G75*
G02*
X0337011Y0470992I0000984J0000000D01*
G01*
X0341735Y0470992D01*
G75*
G02*
X0342719Y0470008I0000000J-000984D01*
G01*
X0342719Y0464693D01*
G75*
G02*
X0341735Y0463709I-000984J0000000D01*
G01*
X0337011Y0463709D01*
G75*
G02*
X0336026Y0464693I0000000J0000984D01*
G01*
G37*
D187*
X0349215Y0467351D03*
X0359058Y0467351D03*
X0368900Y0467351D03*
X0378743Y0467351D03*
X0456834Y0320392D02*
G01*
G75*
D398*
X0438527Y0303857D02*
D03*
X0438527Y0311337D02*
D03*
D389*
X0448173Y0267734D02*
D03*
X0448173Y0285451D02*
D03*
D388*
X0356539Y0314093D02*
D03*
X0356539Y0307794D02*
D03*
D397*
X0439806Y0316849D02*
D03*
X0447287Y0316849D02*
D03*
D225*
X0444039Y0305038D02*
D03*
X0444039Y0311337D02*
D03*
D395*
X0342070Y0289388D02*
D03*
X0342070Y0285648D02*
D03*
X0342070Y0281908D02*
D03*
X0351519Y0281908D02*
D03*
X0351519Y0285648D02*
D03*
X0351519Y0289388D02*
D03*
X0419236Y0289388D02*
D03*
X0419236Y0285648D02*
D03*
X0419236Y0281908D02*
D03*
X0409787Y0281908D02*
D03*
X0409787Y0285648D02*
D03*
X0409787Y0289388D02*
D03*
X0426716Y0289388D02*
D03*
X0426716Y0285648D02*
D03*
X0426716Y0281908D02*
D03*
X0436165Y0281908D02*
D03*
X0436165Y0285648D02*
D03*
X0436165Y0289388D02*
D03*
X0402306Y0289388D02*
D03*
X0402306Y0285648D02*
D03*
X0402306Y0281908D02*
D03*
X0392858Y0281908D02*
D03*
X0392858Y0285648D02*
D03*
X0392858Y0289388D02*
D03*
X0375929Y0289388D02*
D03*
X0375929Y0285648D02*
D03*
X0375929Y0281908D02*
D03*
X0385377Y0281908D02*
D03*
X0385377Y0285648D02*
D03*
X0385377Y0289388D02*
D03*
X0368448Y0289388D02*
D03*
X0368448Y0285648D02*
D03*
X0368448Y0281908D02*
D03*
X0358999Y0281908D02*
D03*
X0358999Y0285648D02*
D03*
X0358999Y0289388D02*
D03*
D396*
X0342365Y0314782D02*
D03*
X0342365Y0307695D02*
D03*
X0352405Y0307695D02*
D03*
X0352405Y0314782D02*
D03*
X0417464Y0314782D02*
D03*
X0417464Y0307695D02*
D03*
X0407425Y0307695D02*
D03*
X0407425Y0314782D02*
D03*
X0421991Y0314782D02*
D03*
X0421991Y0307695D02*
D03*
X0432031Y0307695D02*
D03*
X0432031Y0314782D02*
D03*
X0402405Y0314782D02*
D03*
X0402405Y0307695D02*
D03*
X0392366Y0307695D02*
D03*
X0392366Y0314782D02*
D03*
X0375535Y0314782D02*
D03*
X0375535Y0307695D02*
D03*
X0385574Y0307695D02*
D03*
X0385574Y0314782D02*
D03*
X0370613Y0314782D02*
D03*
X0370613Y0307695D02*
D03*
X0360574Y0307695D02*
D03*
X0360574Y0314782D02*
D03*
X0407523Y0301002D02*
D03*
X0407523Y0293916D02*
D03*
X0417562Y0293916D02*
D03*
X0417562Y0301002D02*
D03*
X0433507Y0301002D02*
D03*
X0433507Y0293916D02*
D03*
X0423468Y0293916D02*
D03*
X0423468Y0301002D02*
D03*
X0392267Y0301002D02*
D03*
X0392267Y0293916D02*
D03*
X0402306Y0293916D02*
D03*
X0402306Y0301002D02*
D03*
X0385574Y0301002D02*
D03*
X0385574Y0293916D02*
D03*
X0375535Y0293916D02*
D03*
X0375535Y0301002D02*
D03*
X0360279Y0301002D02*
D03*
X0360279Y0293916D02*
D03*
X0370318Y0293916D02*
D03*
X0370318Y0301002D02*
D03*
X0352897Y0300904D02*
D03*
X0352897Y0293817D02*
D03*
X0342858Y0293817D02*
D03*
X0342858Y0300904D02*
D03*
D393*
X0348960Y0307695D02*
D03*
X0345810Y0307695D02*
D03*
X0345810Y0314782D02*
D03*
X0348960Y0314782D02*
D03*
X0414019Y0314782D02*
D03*
X0410869Y0314782D02*
D03*
X0410869Y0307695D02*
D03*
X0414019Y0307695D02*
D03*
X0428586Y0307695D02*
D03*
X0425436Y0307695D02*
D03*
X0425436Y0314782D02*
D03*
X0428586Y0314782D02*
D03*
X0398960Y0314782D02*
D03*
X0395810Y0314782D02*
D03*
X0395810Y0307695D02*
D03*
X0398960Y0307695D02*
D03*
X0382129Y0307695D02*
D03*
X0378980Y0307695D02*
D03*
X0378980Y0314782D02*
D03*
X0382129Y0314782D02*
D03*
X0367169Y0314782D02*
D03*
X0364019Y0314782D02*
D03*
X0364019Y0307695D02*
D03*
X0367169Y0307695D02*
D03*
X0414117Y0293916D02*
D03*
X0410968Y0293916D02*
D03*
X0410968Y0301002D02*
D03*
X0414117Y0301002D02*
D03*
X0430062Y0301002D02*
D03*
X0426913Y0301002D02*
D03*
X0426913Y0293916D02*
D03*
X0430062Y0293916D02*
D03*
X0398861Y0293916D02*
D03*
X0395712Y0293916D02*
D03*
X0395712Y0301002D02*
D03*
X0398861Y0301002D02*
D03*
X0382129Y0301002D02*
D03*
X0378980Y0301002D02*
D03*
X0378980Y0293916D02*
D03*
X0382129Y0293916D02*
D03*
X0366873Y0293916D02*
D03*
X0363724Y0293916D02*
D03*
X0363724Y0301002D02*
D03*
X0366873Y0301002D02*
D03*
X0349452Y0300904D02*
D03*
X0346303Y0300904D02*
D03*
X0346303Y0293817D02*
D03*
X0349452Y0293817D02*
D03*
D394*
X0338330Y0314644D02*
D03*
X0338330Y0308423D02*
D03*
X0372877Y0273207D02*
D03*
X0372877Y0266986D02*
D03*
X0377208Y0266986D02*
D03*
X0377208Y0273207D02*
D03*
X0381539Y0273207D02*
D03*
X0381539Y0266986D02*
D03*
X0385869Y0266986D02*
D03*
X0385869Y0273207D02*
D03*
X0368547Y0273207D02*
D03*
X0368547Y0266986D02*
D03*
X0364216Y0266986D02*
D03*
X0364216Y0273207D02*
D03*
X0359885Y0273207D02*
D03*
X0359885Y0266986D02*
D03*
X0355555Y0266986D02*
D03*
X0355555Y0273207D02*
D03*
X0403192Y0273207D02*
D03*
X0403192Y0266986D02*
D03*
X0398861Y0266986D02*
D03*
X0398861Y0273207D02*
D03*
X0394531Y0273207D02*
D03*
X0394531Y0266986D02*
D03*
X0390200Y0266986D02*
D03*
X0390200Y0273207D02*
D03*
X0437838Y0273207D02*
D03*
X0437838Y0266986D02*
D03*
X0433507Y0266986D02*
D03*
X0433507Y0273207D02*
D03*
X0429177Y0273207D02*
D03*
X0429177Y0266986D02*
D03*
X0424846Y0266986D02*
D03*
X0424846Y0273207D02*
D03*
X0420515Y0273207D02*
D03*
X0420515Y0266986D02*
D03*
X0416184Y0266986D02*
D03*
X0416184Y0273207D02*
D03*
X0411854Y0273207D02*
D03*
X0411854Y0266986D02*
D03*
X0407523Y0266986D02*
D03*
X0407523Y0273207D02*
D03*
X0338330Y0301258D02*
D03*
X0338330Y0295038D02*
D03*
X0351224Y0273207D02*
D03*
X0351224Y0266986D02*
D03*
X0346893Y0266986D02*
D03*
X0346893Y0273207D02*
D03*
X0342562Y0273207D02*
D03*
X0342562Y0266986D02*
D03*
X0338232Y0266986D02*
D03*
X0338232Y0273207D02*
D03*
D391*
X0454275Y0306120D02*
D03*
X0447976Y0306120D02*
D03*
X0447976Y0310648D02*
D03*
X0454275Y0310648D02*
D03*
X0446991Y0297164D02*
D03*
X0453291Y0297164D02*
D03*
X0446991Y0292538D02*
D03*
X0453291Y0292538D02*
D03*
D392*
X0441677Y0291652D02*
D03*
X0441677Y0299132D02*
D03*
D390*
X0454039Y0301593D02*
D03*
X0447818Y0301593D02*
D03*
X0496061Y0155578D02*
G01*
G75*
D57*
X0493502Y0154494D02*
D03*
X0488876Y0154494D02*
D03*
X0465746Y0154494D02*
D03*
X0468738Y0154494D02*
D03*
X0473364Y0154494D02*
D03*
X0484250Y0154494D02*
D03*
X0477990Y0154494D02*
D03*
X0481297Y0154494D02*
D03*
D68*
X0469013Y0136877D02*
D03*
X0469013Y0134318D02*
D03*
X0469013Y0131759D02*
D03*
X0469013Y0129200D02*
D03*
X0469013Y0126641D02*
D03*
X0469013Y0124082D02*
D03*
X0469013Y0121523D02*
D03*
X0469013Y0118964D02*
D03*
X0469013Y0116405D02*
D03*
X0469013Y0113846D02*
D03*
X0469013Y0111287D02*
D03*
X0469013Y0108728D02*
D03*
X0492006Y0136877D02*
D03*
X0492006Y0134318D02*
D03*
X0492006Y0131759D02*
D03*
X0492006Y0129200D02*
D03*
X0492006Y0126641D02*
D03*
X0492006Y0124082D02*
D03*
X0492006Y0121523D02*
D03*
X0492006Y0118964D02*
D03*
X0492006Y0116405D02*
D03*
X0492006Y0113846D02*
D03*
X0492006Y0111287D02*
D03*
X0492006Y0108728D02*
D03*
D411*
X0491986Y0104791D02*
D03*
X0485765Y0104791D02*
D03*
X0475234Y0104791D02*
D03*
X0481455Y0104791D02*
D03*
D391*
X0473226Y0141995D02*
D03*
X0466927Y0141995D02*
D03*
X0486218Y0142389D02*
D03*
X0479919Y0142389D02*
D03*
D412*
X0478143Y0153019D02*
D03*
X0478143Y0146720D02*
D03*
X0484466Y0146720D02*
D03*
X0484466Y0153019D02*
D03*
X0489092Y0153019D02*
D03*
X0489092Y0146720D02*
D03*
X0468915Y0146818D02*
D03*
X0468915Y0153117D02*
D03*
X0493718Y0146720D02*
D03*
X0493718Y0153019D02*
D03*
X0473521Y0146720D02*
D03*
X0473521Y0153019D02*
D03*
D95*
X0489762Y0106070D02*
D03*
X0473718Y0107251D02*
D03*
X0466435Y0134318D02*
D03*
X0471592Y0131759D02*
D03*
X0473364Y0125361D02*
D03*
X0466435Y0126641D02*
D03*
X0473659Y0122015D02*
D03*
X0474506Y0118570D02*
D03*
X0466435Y0116405D02*
D03*
X0473659Y0114732D02*
D03*
X0457350Y0252986D02*
G01*
G75*
D496*
X0384515Y0228773D02*
D03*
X0384515Y0224836D02*
D03*
D502*
X0314417Y0251214D02*
D03*
D501*
X0289437Y0189994D02*
D03*
D500*
X0280381Y0214403D02*
D03*
X0298492Y0214403D02*
D03*
D499*
X0289437Y0214403D02*
D03*
D62*
X0306366Y0247671D02*
D03*
X0306366Y0245112D02*
D03*
X0306366Y0242553D02*
D03*
X0306366Y0239994D02*
D03*
X0306366Y0237435D02*
D03*
X0306366Y0234876D02*
D03*
X0306366Y0232317D02*
D03*
X0328807Y0247671D02*
D03*
X0328807Y0245112D02*
D03*
X0328807Y0242553D02*
D03*
X0328807Y0239994D02*
D03*
X0328807Y0237435D02*
D03*
X0328807Y0234876D02*
D03*
X0328807Y0232317D02*
D03*
X0430381Y0213321D02*
D03*
X0430381Y0210762D02*
D03*
X0430381Y0208203D02*
D03*
X0430381Y0205643D02*
D03*
X0430381Y0203084D02*
D03*
X0430381Y0200525D02*
D03*
X0430381Y0197966D02*
D03*
X0452823Y0213321D02*
D03*
X0452823Y0210762D02*
D03*
X0452823Y0208203D02*
D03*
X0452823Y0205643D02*
D03*
X0452823Y0203084D02*
D03*
X0452823Y0200525D02*
D03*
X0452823Y0197966D02*
D03*
X0430874Y0168340D02*
D03*
X0430874Y0165781D02*
D03*
X0430874Y0163222D02*
D03*
X0430874Y0160663D02*
D03*
X0430874Y0158104D02*
D03*
X0430874Y0155545D02*
D03*
X0430874Y0152986D02*
D03*
X0453315Y0168340D02*
D03*
X0453315Y0165781D02*
D03*
X0453315Y0163222D02*
D03*
X0453315Y0160663D02*
D03*
X0453315Y0158104D02*
D03*
X0453315Y0155545D02*
D03*
X0453315Y0152986D02*
D03*
X0425066Y0232317D02*
D03*
X0425066Y0234876D02*
D03*
X0425066Y0237435D02*
D03*
X0425066Y0239994D02*
D03*
X0425066Y0242553D02*
D03*
X0425066Y0245112D02*
D03*
X0425066Y0247671D02*
D03*
X0402626Y0232317D02*
D03*
X0402626Y0234876D02*
D03*
X0402626Y0237435D02*
D03*
X0402626Y0239994D02*
D03*
X0402626Y0242553D02*
D03*
X0402626Y0245112D02*
D03*
X0402626Y0247671D02*
D03*
X0380677Y0232317D02*
D03*
X0380677Y0234876D02*
D03*
X0380677Y0237435D02*
D03*
X0380677Y0239994D02*
D03*
X0380677Y0242553D02*
D03*
X0380677Y0245112D02*
D03*
X0380677Y0247671D02*
D03*
X0358236Y0232317D02*
D03*
X0358236Y0234876D02*
D03*
X0358236Y0237435D02*
D03*
X0358236Y0239994D02*
D03*
X0358236Y0242553D02*
D03*
X0358236Y0245112D02*
D03*
X0358236Y0247671D02*
D03*
X0430677Y0247671D02*
D03*
X0430677Y0245112D02*
D03*
X0430677Y0242553D02*
D03*
X0430677Y0239994D02*
D03*
X0430677Y0237435D02*
D03*
X0430677Y0234876D02*
D03*
X0430677Y0232317D02*
D03*
X0453118Y0247671D02*
D03*
X0453118Y0245112D02*
D03*
X0453118Y0242553D02*
D03*
X0453118Y0239994D02*
D03*
X0453118Y0237435D02*
D03*
X0453118Y0234876D02*
D03*
X0453118Y0232317D02*
D03*
D191*
X0403610Y0116372D02*
D03*
X0401641Y0116372D02*
D03*
X0399673Y0116372D02*
D03*
X0397704Y0116372D02*
D03*
X0395736Y0116372D02*
D03*
X0393767Y0116372D02*
D03*
X0391799Y0116372D02*
D03*
X0389830Y0116372D02*
D03*
X0387862Y0116372D02*
D03*
X0385893Y0116372D02*
D03*
X0383925Y0116372D02*
D03*
X0381956Y0116372D02*
D03*
X0379988Y0116372D02*
D03*
X0378019Y0116372D02*
D03*
X0376051Y0116372D02*
D03*
X0374082Y0116372D02*
D03*
X0372114Y0116372D02*
D03*
X0370145Y0116372D02*
D03*
X0368177Y0116372D02*
D03*
X0366208Y0116372D02*
D03*
X0364240Y0116372D02*
D03*
X0362271Y0116372D02*
D03*
X0360303Y0116372D02*
D03*
X0358334Y0116372D02*
D03*
X0356366Y0116372D02*
D03*
X0354397Y0116372D02*
D03*
X0352429Y0116372D02*
D03*
X0350460Y0116372D02*
D03*
X0348492Y0116372D02*
D03*
X0346523Y0116372D02*
D03*
X0344555Y0116372D02*
D03*
X0342586Y0116372D02*
D03*
X0340618Y0116372D02*
D03*
X0338649Y0116372D02*
D03*
X0336681Y0116372D02*
D03*
X0334712Y0116372D02*
D03*
X0332744Y0116372D02*
D03*
X0330775Y0116372D02*
D03*
X0328807Y0116372D02*
D03*
X0326838Y0116372D02*
D03*
X0324870Y0116372D02*
D03*
X0322901Y0116372D02*
D03*
X0320933Y0116372D02*
D03*
X0318964Y0116372D02*
D03*
X0318964Y0219915D02*
D03*
X0320933Y0219915D02*
D03*
X0322901Y0219915D02*
D03*
X0324870Y0219915D02*
D03*
X0326838Y0219915D02*
D03*
X0328807Y0219915D02*
D03*
X0330775Y0219915D02*
D03*
X0332744Y0219915D02*
D03*
X0334712Y0219915D02*
D03*
X0336681Y0219915D02*
D03*
X0338649Y0219915D02*
D03*
X0340618Y0219915D02*
D03*
X0342586Y0219915D02*
D03*
X0344555Y0219915D02*
D03*
X0346523Y0219915D02*
D03*
X0348492Y0219915D02*
D03*
X0350460Y0219915D02*
D03*
X0352429Y0219915D02*
D03*
X0354397Y0219915D02*
D03*
X0356366Y0219915D02*
D03*
X0358334Y0219915D02*
D03*
X0360303Y0219915D02*
D03*
X0362271Y0219915D02*
D03*
X0364240Y0219915D02*
D03*
X0366208Y0219915D02*
D03*
X0368177Y0219915D02*
D03*
X0370145Y0219915D02*
D03*
X0372114Y0219915D02*
D03*
X0374082Y0219915D02*
D03*
X0376051Y0219915D02*
D03*
X0378019Y0219915D02*
D03*
X0379988Y0219915D02*
D03*
X0381956Y0219915D02*
D03*
X0383925Y0219915D02*
D03*
X0385893Y0219915D02*
D03*
X0387862Y0219915D02*
D03*
X0389830Y0219915D02*
D03*
X0391799Y0219915D02*
D03*
X0393767Y0219915D02*
D03*
X0395736Y0219915D02*
D03*
X0397704Y0219915D02*
D03*
X0399673Y0219915D02*
D03*
X0401641Y0219915D02*
D03*
X0403610Y0219915D02*
D03*
D233*
X0309515Y0125821D02*
D03*
X0309515Y0127789D02*
D03*
X0309515Y0129758D02*
D03*
X0309515Y0131726D02*
D03*
X0309515Y0133695D02*
D03*
X0309515Y0135663D02*
D03*
X0309515Y0137632D02*
D03*
X0309515Y0139600D02*
D03*
X0309515Y0141569D02*
D03*
X0309515Y0143537D02*
D03*
X0309515Y0145506D02*
D03*
X0309515Y0147474D02*
D03*
X0309515Y0149443D02*
D03*
X0309515Y0151411D02*
D03*
X0309515Y0153380D02*
D03*
X0309515Y0155348D02*
D03*
X0309515Y0157317D02*
D03*
X0309515Y0159285D02*
D03*
X0309515Y0161254D02*
D03*
X0309515Y0163222D02*
D03*
X0309515Y0165191D02*
D03*
X0309515Y0167159D02*
D03*
X0309515Y0169128D02*
D03*
X0309515Y0171096D02*
D03*
X0309515Y0173065D02*
D03*
X0309515Y0175033D02*
D03*
X0309515Y0177002D02*
D03*
X0309515Y0178970D02*
D03*
X0309515Y0180939D02*
D03*
X0309515Y0182907D02*
D03*
X0309515Y0184876D02*
D03*
X0309515Y0186844D02*
D03*
X0309515Y0188813D02*
D03*
X0309515Y0190781D02*
D03*
X0309515Y0192750D02*
D03*
X0309515Y0194718D02*
D03*
X0309515Y0196687D02*
D03*
X0309515Y0198655D02*
D03*
X0309515Y0200624D02*
D03*
X0309515Y0202592D02*
D03*
X0309515Y0204561D02*
D03*
X0309515Y0206529D02*
D03*
X0309515Y0208498D02*
D03*
X0309515Y0210466D02*
D03*
X0413059Y0210466D02*
D03*
X0413059Y0208498D02*
D03*
X0413059Y0206529D02*
D03*
X0413059Y0204561D02*
D03*
X0413059Y0202592D02*
D03*
X0413059Y0200624D02*
D03*
X0413059Y0198655D02*
D03*
X0413059Y0196687D02*
D03*
X0413059Y0194718D02*
D03*
X0413059Y0192750D02*
D03*
X0413059Y0190781D02*
D03*
X0413059Y0188813D02*
D03*
X0413059Y0186844D02*
D03*
X0413059Y0184876D02*
D03*
X0413059Y0182907D02*
D03*
X0413059Y0180939D02*
D03*
X0413059Y0178970D02*
D03*
X0413059Y0177002D02*
D03*
X0413059Y0175033D02*
D03*
X0413059Y0173065D02*
D03*
X0413059Y0171096D02*
D03*
X0413059Y0169128D02*
D03*
X0413059Y0167159D02*
D03*
X0413059Y0165191D02*
D03*
X0413059Y0163222D02*
D03*
X0413059Y0161254D02*
D03*
X0413059Y0159285D02*
D03*
X0413059Y0157317D02*
D03*
X0413059Y0155348D02*
D03*
X0413059Y0153380D02*
D03*
X0413059Y0151411D02*
D03*
X0413059Y0149443D02*
D03*
X0413059Y0147474D02*
D03*
X0413059Y0145506D02*
D03*
X0413059Y0143537D02*
D03*
X0413059Y0141569D02*
D03*
X0413059Y0139600D02*
D03*
X0413059Y0137632D02*
D03*
X0413059Y0135663D02*
D03*
X0413059Y0133695D02*
D03*
X0413059Y0131726D02*
D03*
X0413059Y0129758D02*
D03*
X0413059Y0127789D02*
D03*
X0413059Y0125821D02*
D03*
D390*
X0295185Y0232907D02*
D03*
X0301405Y0232907D02*
D03*
X0297941Y0124246D02*
D03*
X0304161Y0124246D02*
D03*
X0288590Y0183104D02*
D03*
X0294811Y0183104D02*
D03*
X0388964Y0225132D02*
D03*
X0395185Y0225132D02*
D03*
X0327626Y0111175D02*
D03*
X0321405Y0111175D02*
D03*
X0323236Y0225821D02*
D03*
X0329456Y0225821D02*
D03*
X0409063Y0117159D02*
D03*
X0415283Y0117159D02*
D03*
X0292823Y0157809D02*
D03*
X0299043Y0157809D02*
D03*
X0399909Y0225230D02*
D03*
X0406130Y0225230D02*
D03*
X0346956Y0229955D02*
D03*
X0353177Y0229955D02*
D03*
X0425814Y0158793D02*
D03*
X0419594Y0158793D02*
D03*
X0397074Y0111057D02*
D03*
X0390854Y0111057D02*
D03*
X0365165Y0111155D02*
D03*
X0371385Y0111155D02*
D03*
X0348039Y0111155D02*
D03*
X0354259Y0111155D02*
D03*
X0309968Y0213714D02*
D03*
X0303748Y0213714D02*
D03*
X0363885Y0225230D02*
D03*
X0370106Y0225230D02*
D03*
X0356129Y0225525D02*
D03*
X0349909Y0225525D02*
D03*
X0425913Y0154463D02*
D03*
X0419693Y0154463D02*
D03*
X0418511Y0198754D02*
D03*
X0424732Y0198754D02*
D03*
D394*
X0291700Y0118498D02*
D03*
X0291700Y0112277D02*
D03*
X0277921Y0223498D02*
D03*
X0277921Y0229718D02*
D03*
X0304102Y0128813D02*
D03*
X0304102Y0135033D02*
D03*
X0420047Y0163163D02*
D03*
X0420047Y0169384D02*
D03*
X0299574Y0129600D02*
D03*
X0299574Y0135821D02*
D03*
X0335007Y0239246D02*
D03*
X0335007Y0245466D02*
D03*
X0300559Y0237769D02*
D03*
X0300559Y0243990D02*
D03*
X0296129Y0243990D02*
D03*
X0296129Y0237770D02*
D03*
X0444850Y0180506D02*
D03*
X0444850Y0174285D02*
D03*
X0424574Y0163163D02*
D03*
X0424574Y0169384D02*
D03*
X0419948Y0207848D02*
D03*
X0419948Y0214069D02*
D03*
X0299181Y0186805D02*
D03*
X0299181Y0180584D02*
D03*
X0424771Y0207947D02*
D03*
X0424771Y0214167D02*
D03*
X0438354Y0220348D02*
D03*
X0438354Y0226569D02*
D03*
X0451937Y0174384D02*
D03*
X0451937Y0180604D02*
D03*
X0303807Y0157455D02*
D03*
X0303807Y0163675D02*
D03*
X0303708Y0184639D02*
D03*
X0303708Y0178419D02*
D03*
X0423590Y0187081D02*
D03*
X0423590Y0193301D02*
D03*
X0418866Y0140250D02*
D03*
X0418866Y0134029D02*
D03*
D491*
X0278905Y0171293D02*
D03*
X0278905Y0164600D02*
D03*
X0291405Y0164502D02*
D03*
X0291405Y0171195D02*
D03*
X0285204Y0171293D02*
D03*
X0285204Y0164600D02*
D03*
X0297330Y0163911D02*
D03*
X0297330Y0170604D02*
D03*
D252*
X0284122Y0222179D02*
D03*
X0284122Y0229659D02*
D03*
D492*
X0374476Y0225722D02*
D03*
X0380775Y0225722D02*
D03*
X0292193Y0176018D02*
D03*
X0298492Y0176018D02*
D03*
X0343866Y0110958D02*
D03*
X0337566Y0110958D02*
D03*
X0286287Y0176214D02*
D03*
X0279988Y0176214D02*
D03*
X0284417Y0181726D02*
D03*
X0278118Y0181726D02*
D03*
X0418472Y0203281D02*
D03*
X0424771Y0203281D02*
D03*
X0278807Y0132809D02*
D03*
X0285106Y0132809D02*
D03*
D388*
X0310106Y0115880D02*
D03*
X0310106Y0122179D02*
D03*
X0314830Y0111057D02*
D03*
X0314830Y0117356D02*
D03*
X0303708Y0174147D02*
D03*
X0303708Y0167848D02*
D03*
X0287173Y0117750D02*
D03*
X0287173Y0111451D02*
D03*
X0278118Y0128577D02*
D03*
X0278118Y0122277D02*
D03*
X0278118Y0118439D02*
D03*
X0278118Y0112140D02*
D03*
X0282744Y0127002D02*
D03*
X0282744Y0120703D02*
D03*
X0418767Y0186943D02*
D03*
X0418767Y0193242D02*
D03*
D490*
X0305500Y0111647D02*
D03*
X0296248Y0115387D02*
D03*
D490*
X0305500Y0119128D02*
D03*
D49*
X0424181Y0177887D02*
D03*
X0438748Y0177887D02*
D03*
D493*
X0296819Y0142553D02*
D03*
X0300559Y0142553D02*
D03*
X0304299Y0142553D02*
D03*
X0304299Y0152002D02*
D03*
X0300559Y0152002D02*
D03*
X0296819Y0152002D02*
D03*
D396*
X0288354Y0244817D02*
D03*
X0288354Y0237730D02*
D03*
X0278315Y0237730D02*
D03*
X0278315Y0244817D02*
D03*
X0289732Y0228281D02*
D03*
X0289732Y0221195D02*
D03*
X0299771Y0221195D02*
D03*
X0299771Y0228281D02*
D03*
X0437960Y0193833D02*
D03*
X0437960Y0186746D02*
D03*
X0427921Y0186746D02*
D03*
X0427921Y0193833D02*
D03*
X0443177Y0193832D02*
D03*
X0443177Y0186746D02*
D03*
X0453216Y0186746D02*
D03*
X0453216Y0193832D02*
D03*
X0434023Y0227199D02*
D03*
X0434023Y0220112D02*
D03*
X0423984Y0220112D02*
D03*
X0423984Y0227199D02*
D03*
X0442685Y0227199D02*
D03*
X0442685Y0220112D02*
D03*
X0452724Y0220112D02*
D03*
X0452724Y0227199D02*
D03*
X0437763Y0148655D02*
D03*
X0437763Y0141569D02*
D03*
X0427724Y0141569D02*
D03*
X0427724Y0148655D02*
D03*
X0305578Y0227986D02*
D03*
X0305578Y0220899D02*
D03*
X0315618Y0220899D02*
D03*
X0315618Y0227986D02*
D03*
X0453118Y0148655D02*
D03*
X0453118Y0141569D02*
D03*
X0443078Y0141569D02*
D03*
X0443078Y0148655D02*
D03*
X0398197Y0229462D02*
D03*
X0398197Y0236549D02*
D03*
X0388157Y0236549D02*
D03*
X0388157Y0229462D02*
D03*
X0386976Y0247769D02*
D03*
X0386976Y0240683D02*
D03*
X0397015Y0240683D02*
D03*
X0397015Y0247769D02*
D03*
D393*
X0284909Y0244817D02*
D03*
X0281759Y0244817D02*
D03*
X0281759Y0237730D02*
D03*
X0284909Y0237730D02*
D03*
X0296326Y0221195D02*
D03*
X0293177Y0221195D02*
D03*
X0293177Y0228281D02*
D03*
X0296326Y0228281D02*
D03*
X0434515Y0193833D02*
D03*
X0431366Y0193833D02*
D03*
X0431366Y0186746D02*
D03*
X0434515Y0186746D02*
D03*
X0449771Y0186746D02*
D03*
X0446622Y0186746D02*
D03*
X0446622Y0193832D02*
D03*
X0449771Y0193832D02*
D03*
X0430578Y0227199D02*
D03*
X0427429Y0227199D02*
D03*
X0427429Y0220112D02*
D03*
X0430578Y0220112D02*
D03*
X0449279Y0220112D02*
D03*
X0446129Y0220112D02*
D03*
X0446129Y0227199D02*
D03*
X0449279Y0227199D02*
D03*
X0434318Y0148655D02*
D03*
X0431169Y0148655D02*
D03*
X0431169Y0141569D02*
D03*
X0434318Y0141569D02*
D03*
X0312173Y0220899D02*
D03*
X0309023Y0220899D02*
D03*
X0309023Y0227986D02*
D03*
X0312173Y0227986D02*
D03*
X0449673Y0148655D02*
D03*
X0446523Y0148655D02*
D03*
X0446523Y0141569D02*
D03*
X0449673Y0141569D02*
D03*
X0391602Y0236549D02*
D03*
X0394752Y0236549D02*
D03*
X0394752Y0229462D02*
D03*
X0391602Y0229462D02*
D03*
X0393570Y0240683D02*
D03*
X0390421Y0240683D02*
D03*
X0390421Y0247769D02*
D03*
X0393570Y0247769D02*
D03*
D494*
X0290618Y0123065D02*
D03*
X0290618Y0136057D02*
D03*
D489*
X0414732Y0227907D02*
D03*
X0410992Y0218655D02*
D03*
D489*
X0418472Y0218655D02*
D03*
D498*
X0352133Y0248754D02*
D03*
X0345047Y0248754D02*
D03*
X0345047Y0238714D02*
D03*
X0352133Y0238714D02*
D03*
X0342488Y0234876D02*
D03*
X0335401Y0234876D02*
D03*
X0335401Y0224836D02*
D03*
X0342488Y0224836D02*
D03*
X0428846Y0134109D02*
D03*
X0435933Y0134109D02*
D03*
X0435933Y0124069D02*
D03*
X0428846Y0124069D02*
D03*
X0444456Y0124344D02*
D03*
X0451543Y0124344D02*
D03*
X0451543Y0114305D02*
D03*
X0444456Y0114305D02*
D03*
D497*
X0345047Y0242159D02*
D03*
X0345047Y0245309D02*
D03*
X0352133Y0245309D02*
D03*
X0352133Y0242159D02*
D03*
X0335401Y0228281D02*
D03*
X0335401Y0231431D02*
D03*
X0342488Y0231431D02*
D03*
X0342488Y0228281D02*
D03*
X0428846Y0130664D02*
D03*
X0428846Y0127514D02*
D03*
X0435933Y0127514D02*
D03*
X0435933Y0130664D02*
D03*
X0444456Y0120899D02*
D03*
X0444456Y0117750D02*
D03*
X0451543Y0117750D02*
D03*
X0451543Y0120899D02*
D03*
D111*
X0286425Y0143065D02*
D03*
X0281425Y0143065D02*
D03*
X0286425Y0148065D02*
D03*
X0281425Y0148065D02*
D03*
X0286425Y0153065D02*
D03*
X0281425Y0153065D02*
D03*
D495*
X0420736Y0150230D02*
D03*
X0420736Y0144325D02*
D03*
D488*
X0415027Y0111155D02*
D03*
X0402035Y0111155D02*
D03*
D112*
X0283925Y0138065D02*
D03*
X0279925Y0158065D02*
D03*
X0287925Y0158065D02*
D03*
X0284023Y0039428D02*
G01*
G75*
D52*
X0301641Y0087459D02*
D03*
X0301641Y0054782D02*
D03*
X0355775Y0054782D02*
D03*
X0355775Y0087459D02*
D03*
D22*
X0346405Y0077223D02*
D03*
X0342074Y0077223D02*
D03*
X0337743Y0077223D02*
D03*
X0333413Y0077223D02*
D03*
X0329082Y0077223D02*
D03*
X0324751Y0077223D02*
D03*
X0320421Y0077223D02*
D03*
X0316090Y0077223D02*
D03*
D136*
X0295736Y0092026D02*
D03*
X0295736Y0098247D02*
D03*
X0291110Y0092026D02*
D03*
X0291110Y0098247D02*
D03*
D330*
X0286582Y0098286D02*
D03*
X0286582Y0091987D02*
D03*
D95*
X0297507Y0092873D02*
D03*
X0324968Y0070924D02*
D03*
X0342291Y0070924D02*
D03*
X0333531Y0070924D02*
D03*
X0303708Y0073562D02*
D03*
X0320342Y0070924D02*
D03*
X0353724Y0073598D02*
D03*
X0227618Y0308864D02*
G01*
G75*
D489*
X0156850Y0181580D02*
D03*
X0160591Y0190832D02*
D03*
X0199961Y0296187D02*
D03*
X0203701Y0305439D02*
D03*
X0217677Y0305439D02*
D03*
X0213937Y0296187D02*
D03*
X0190118Y0305439D02*
D03*
X0186378Y0296187D02*
D03*
X0177618Y0272702D02*
D03*
X0173878Y0263450D02*
D03*
X0210590Y0277486D02*
D03*
X0206850Y0268234D02*
D03*
D489*
X0164331Y0181580D02*
D03*
X0207441Y0296187D02*
D03*
X0221417Y0296187D02*
D03*
X0193858Y0296187D02*
D03*
X0170138Y0272702D02*
D03*
X0214331Y0268234D02*
D03*
D205*
X0190112Y0305562D02*
D03*
X0133517Y0305562D02*
D03*
X0128573Y0305562D02*
D03*
D165*
X0225762Y0291797D02*
D03*
D554*
X0151240Y0304336D02*
D03*
X0151240Y0292919D02*
D03*
D555*
X0156949Y0290951D02*
D03*
X0168366Y0290951D02*
D03*
D553*
X0154468Y0271462D02*
D03*
X0163720Y0267722D02*
D03*
X0157067Y0280813D02*
D03*
X0166319Y0277073D02*
D03*
D553*
X0154468Y0263982D02*
D03*
X0166319Y0284553D02*
D03*
D388*
X0152421Y0282486D02*
D03*
X0152421Y0276187D02*
D03*
X0120827Y0178391D02*
D03*
X0120827Y0172092D02*
D03*
X0141791Y0175399D02*
D03*
X0141791Y0181699D02*
D03*
X0137165Y0186521D02*
D03*
X0137165Y0180222D02*
D03*
D559*
X0148878Y0198077D02*
D03*
X0166988Y0198077D02*
D03*
X0148878Y0256344D02*
D03*
X0166988Y0256344D02*
D03*
X0139626Y0256344D02*
D03*
X0121516Y0256344D02*
D03*
X0139626Y0198077D02*
D03*
X0121516Y0198077D02*
D03*
X0176240Y0198077D02*
D03*
X0194350Y0198077D02*
D03*
X0221712Y0198077D02*
D03*
X0203602Y0198077D02*
D03*
X0194744Y0256344D02*
D03*
X0176634Y0256344D02*
D03*
X0204390Y0256344D02*
D03*
X0222500Y0256344D02*
D03*
D558*
X0157933Y0198077D02*
D03*
X0157933Y0256344D02*
D03*
X0130571Y0256344D02*
D03*
X0130571Y0198077D02*
D03*
X0185295Y0198077D02*
D03*
X0212657Y0198077D02*
D03*
X0185689Y0256344D02*
D03*
X0213445Y0256344D02*
D03*
D556*
X0157933Y0222486D02*
D03*
X0157933Y0231935D02*
D03*
X0130571Y0231935D02*
D03*
X0130571Y0222486D02*
D03*
X0185295Y0222486D02*
D03*
X0212657Y0222486D02*
D03*
X0185689Y0231935D02*
D03*
X0213445Y0231935D02*
D03*
D561*
X0196024Y0231836D02*
D03*
X0203110Y0231836D02*
D03*
X0203110Y0221797D02*
D03*
X0196024Y0221797D02*
D03*
X0216988Y0185281D02*
D03*
X0224075Y0185281D02*
D03*
X0224075Y0175242D02*
D03*
X0216988Y0175242D02*
D03*
X0140315Y0222289D02*
D03*
X0147402Y0222289D02*
D03*
X0147402Y0232329D02*
D03*
X0140315Y0232329D02*
D03*
D560*
X0196024Y0228392D02*
D03*
X0196024Y0225242D02*
D03*
X0203110Y0225242D02*
D03*
X0203110Y0228392D02*
D03*
X0216988Y0181836D02*
D03*
X0216988Y0178687D02*
D03*
X0224075Y0178687D02*
D03*
X0224075Y0181836D02*
D03*
X0147402Y0228884D02*
D03*
X0147402Y0225734D02*
D03*
X0140315Y0225734D02*
D03*
X0140315Y0228884D02*
D03*
D265*
X0222185Y0165203D02*
D03*
X0217185Y0165203D02*
D03*
X0212185Y0165203D02*
D03*
X0207185Y0165203D02*
D03*
X0202185Y0165203D02*
D03*
X0197185Y0165203D02*
D03*
X0192185Y0165203D02*
D03*
X0187185Y0165203D02*
D03*
X0222185Y0146305D02*
D03*
X0217185Y0146305D02*
D03*
X0212185Y0146305D02*
D03*
X0207185Y0146305D02*
D03*
X0202185Y0146305D02*
D03*
X0197185Y0146305D02*
D03*
X0192185Y0146305D02*
D03*
X0187185Y0146305D02*
D03*
X0145748Y0146108D02*
D03*
X0150748Y0146108D02*
D03*
X0155748Y0146108D02*
D03*
X0160748Y0146108D02*
D03*
X0165748Y0146108D02*
D03*
X0170748Y0146108D02*
D03*
X0175748Y0146108D02*
D03*
X0180748Y0146108D02*
D03*
X0145748Y0165006D02*
D03*
X0150748Y0165006D02*
D03*
X0155748Y0165006D02*
D03*
X0160748Y0165006D02*
D03*
X0165748Y0165006D02*
D03*
X0170748Y0165006D02*
D03*
X0175748Y0165006D02*
D03*
X0180748Y0165006D02*
D03*
X0139153Y0165006D02*
D03*
X0134153Y0165006D02*
D03*
X0129153Y0165006D02*
D03*
X0124153Y0165006D02*
D03*
X0139153Y0146108D02*
D03*
X0134153Y0146108D02*
D03*
X0129153Y0146108D02*
D03*
X0124153Y0146108D02*
D03*
D245*
X0142381Y0290183D02*
D03*
X0142381Y0295183D02*
D03*
X0142381Y0300183D02*
D03*
X0142381Y0305183D02*
D03*
X0123484Y0290183D02*
D03*
X0123484Y0295183D02*
D03*
X0123484Y0300183D02*
D03*
X0123484Y0305183D02*
D03*
X0125255Y0283332D02*
D03*
X0125255Y0278333D02*
D03*
X0125255Y0273333D02*
D03*
X0125255Y0268332D02*
D03*
X0144153Y0283332D02*
D03*
X0144153Y0278333D02*
D03*
X0144153Y0273333D02*
D03*
X0144153Y0268332D02*
D03*
D392*
X0222697Y0283805D02*
D03*
X0222697Y0291285D02*
D03*
X0215807Y0291285D02*
D03*
X0215807Y0283805D02*
D03*
X0208917Y0283805D02*
D03*
X0208917Y0291285D02*
D03*
X0202027Y0291285D02*
D03*
X0202027Y0283805D02*
D03*
X0195138Y0283805D02*
D03*
X0195138Y0291285D02*
D03*
X0188248Y0291285D02*
D03*
X0188248Y0283805D02*
D03*
X0181358Y0283805D02*
D03*
X0181358Y0291285D02*
D03*
X0174468Y0291285D02*
D03*
X0174468Y0283805D02*
D03*
X0161968Y0304770D02*
D03*
X0161968Y0297289D02*
D03*
X0169153Y0297486D02*
D03*
X0169153Y0304966D02*
D03*
D557*
X0184212Y0277506D02*
D03*
X0184212Y0264514D02*
D03*
X0221417Y0264907D02*
D03*
X0221417Y0277899D02*
D03*
X0200256Y0277506D02*
D03*
X0200256Y0264514D02*
D03*
X0192087Y0264514D02*
D03*
X0192087Y0277506D02*
D03*
D492*
X0174665Y0297880D02*
D03*
X0180964Y0297880D02*
D03*
X0181063Y0303490D02*
D03*
X0174764Y0303490D02*
D03*
X0177126Y0277407D02*
D03*
X0170827Y0277407D02*
D03*
X0146251Y0187844D02*
D03*
X0152550Y0187844D02*
D03*
X0206260Y0263529D02*
D03*
X0212559Y0263529D02*
D03*
D397*
X0133228Y0173372D02*
D03*
X0125748Y0173372D02*
D03*
X0437370Y0100879D02*
G01*
G75*
D288*
X0394063Y0099796D02*
D03*
D73*
X0434811Y0099599D02*
D03*
X0432842Y0099599D02*
D03*
D489*
X0425953Y0087867D02*
D03*
X0429693Y0097119D02*
D03*
D489*
X0433433Y0087867D02*
D03*
D245*
X0418394Y0076253D02*
D03*
X0418394Y0081253D02*
D03*
X0418394Y0086253D02*
D03*
X0418394Y0091253D02*
D03*
X0399496Y0076253D02*
D03*
X0399496Y0081253D02*
D03*
X0399496Y0086253D02*
D03*
X0399496Y0091253D02*
D03*
D411*
X0402685Y0096548D02*
D03*
X0396465Y0096548D02*
D03*
X0411031Y0096548D02*
D03*
X0417252Y0096548D02*
D03*
D492*
X0432843Y0082966D02*
D03*
X0426543Y0082966D02*
D03*
D95*
X0422213Y0099009D02*
D03*
X0406169Y0076470D02*
D03*
X0405874Y0090446D02*
D03*
X0407055Y0095466D02*
D03*
X0410500Y0093399D02*
D03*
X0226092Y0062948D02*
G01*
G75*
D576*
X0215462Y0110605D02*
D03*
X0192037Y0110605D02*
D03*
X0215462Y0100605D02*
D03*
X0192037Y0100605D02*
D03*
X0215462Y0090605D02*
D03*
X0192037Y0090605D02*
D03*
X0215462Y0080605D02*
D03*
X0192037Y0080605D02*
D03*
X0215462Y0070605D02*
D03*
X0192037Y0070605D02*
D03*
D361*
X0202372Y0120664D02*
D03*
X0202372Y0126885D02*
D03*
X0214379Y0123223D02*
D03*
X0214379Y0129444D02*
D03*
D577*
X0208375Y0130861D02*
D03*
X0208375Y0117869D02*
D03*
D362*
X0219005Y0129385D02*
D03*
X0219005Y0123086D02*
D03*
D575*
X0188513Y0123381D02*
D03*
X0197765Y0119641D02*
D03*
D575*
X0197765Y0127121D02*
D03*
D365*
X0219556Y0118755D02*
D03*
X0213336Y0118755D02*
D03*
D255*
X0198749Y0110605D02*
D03*
X0208749Y0110605D02*
D03*
X0198749Y0100605D02*
D03*
X0208749Y0100605D02*
D03*
X0198749Y0090605D02*
D03*
X0208749Y0090605D02*
D03*
X0198749Y0080605D02*
D03*
X0208749Y0080605D02*
D03*
X0198749Y0070605D02*
D03*
D290*
X0208749Y0070605D02*
D03*
X0229064Y0434526D02*
G01*
G75*
D73*
X0230147Y0391219D02*
D03*
D288*
X0230344Y0431967D02*
D03*
X0230344Y0429998D02*
D03*
D581*
X0242076Y0423109D02*
D03*
X0232824Y0426849D02*
D03*
D581*
X0242076Y0430589D02*
D03*
D265*
X0253690Y0415550D02*
D03*
X0248690Y0415550D02*
D03*
X0243690Y0415550D02*
D03*
X0238690Y0415550D02*
D03*
X0253690Y0396652D02*
D03*
X0248690Y0396652D02*
D03*
X0243690Y0396652D02*
D03*
X0238690Y0396652D02*
D03*
D582*
X0233395Y0399841D02*
D03*
X0233395Y0393621D02*
D03*
X0233395Y0408187D02*
D03*
X0233395Y0414408D02*
D03*
D583*
X0246977Y0429999D02*
D03*
X0246977Y0423699D02*
D03*
D95*
X0230934Y0419369D02*
D03*
X0253473Y0403325D02*
D03*
X0239497Y0403030D02*
D03*
X0234477Y0404211D02*
D03*
X0236544Y0407656D02*
D03*
X0423267Y0376824D02*
G01*
G75*
D288*
X0351810Y0372198D02*
D03*
X0351810Y0369442D02*
D03*
X0351810Y0365997D02*
D03*
X0421987Y0373970D02*
D03*
X0421987Y0364521D02*
D03*
D394*
X0375924Y0368497D02*
D03*
X0375924Y0374718D02*
D03*
X0370609Y0372848D02*
D03*
X0370609Y0366627D02*
D03*
X0380452Y0374718D02*
D03*
X0380452Y0368497D02*
D03*
X0420314Y0367710D02*
D03*
X0420314Y0373930D02*
D03*
X0389409Y0374422D02*
D03*
X0389409Y0368202D02*
D03*
D587*
X0356633Y0366293D02*
D03*
X0356633Y0373773D02*
D03*
X0365098Y0373773D02*
D03*
X0365098Y0370033D02*
D03*
X0399999Y0365800D02*
D03*
X0399999Y0373281D02*
D03*
X0408464Y0373281D02*
D03*
X0408464Y0369541D02*
D03*
D587*
X0365098Y0366293D02*
D03*
X0408464Y0365800D02*
D03*
D492*
X0372381Y0363733D02*
D03*
X0378680Y0363733D02*
D03*
X0382420Y0362946D02*
D03*
X0388720Y0362946D02*
D03*
D412*
X0384881Y0367080D02*
D03*
X0384881Y0373379D02*
D03*
X0414212Y0367080D02*
D03*
X0414212Y0373379D02*
D03*
X0394330Y0367080D02*
D03*
X0394330Y0373379D02*
D03*
X0118904Y0476098D02*
G01*
G75*
D36*
X0076778Y0538008D02*
D03*
D600*
X0092723Y0476885D02*
D03*
D601*
X0105813Y0533578D02*
D03*
X0105813Y0506216D02*
D03*
D599*
X0090754Y0492043D02*
D03*
X0090754Y0483381D02*
D03*
X0080715Y0483677D02*
D03*
X0080715Y0492338D02*
D03*
D577*
X0061128Y0521177D02*
D03*
X0061128Y0534169D02*
D03*
D598*
X0076778Y0536137D02*
D03*
X0068117Y0536137D02*
D03*
X0088491Y0506019D02*
D03*
X0079829Y0506019D02*
D03*
D362*
X0090558Y0495685D02*
D03*
X0090558Y0501984D02*
D03*
X0085735Y0495783D02*
D03*
X0085735Y0489484D02*
D03*
X0077762Y0516944D02*
D03*
X0077762Y0510645D02*
D03*
D445*
X0081207Y0528539D02*
D03*
X0084947Y0537791D02*
D03*
X0082487Y0514563D02*
D03*
X0086227Y0523815D02*
D03*
D445*
X0088687Y0528539D02*
D03*
X0089967Y0514562D02*
D03*
D575*
X0067152Y0525901D02*
D03*
X0076404Y0522161D02*
D03*
D575*
X0076404Y0529641D02*
D03*
D603*
X0074613Y0482594D02*
D03*
X0062802Y0482594D02*
D03*
D602*
X0062802Y0491255D02*
D03*
X0062802Y0505822D02*
D03*
D359*
X0076187Y0491551D02*
D03*
X0069888Y0491551D02*
D03*
D604*
X0087408Y0479740D02*
D03*
X0081188Y0479740D02*
D03*
D534*
X0068215Y0498539D02*
D03*
X0081207Y0498539D02*
D03*
D532*
X0061227Y0514385D02*
D03*
X0072644Y0514385D02*
D03*
D95*
X0084878Y0501069D02*
D03*
X0059062Y0533382D02*
D03*
X0086817Y0508480D02*
D03*
X0091247Y0479543D02*
D03*
X0064278Y0501000D02*
D03*
X0086313Y0305463D02*
G01*
G75*
D363*
X0067907Y0325050D02*
D03*
X0060427Y0325050D02*
D03*
X0068104Y0356447D02*
D03*
X0060624Y0356447D02*
D03*
D613*
X0068203Y0454380D02*
D03*
X0079226Y0454380D02*
D03*
D618*
X0074207Y0332727D02*
D03*
X0074207Y0348869D02*
D03*
D449*
X0062297Y0458219D02*
D03*
X0062297Y0451920D02*
D03*
X0061707Y0407333D02*
D03*
X0061707Y0413632D02*
D03*
X0062297Y0368652D02*
D03*
X0062297Y0362353D02*
D03*
D361*
X0061411Y0447353D02*
D03*
X0061411Y0441132D02*
D03*
X0066825Y0362294D02*
D03*
X0066825Y0368514D02*
D03*
X0081884Y0416132D02*
D03*
X0081884Y0422353D02*
D03*
D365*
X0063026Y0372884D02*
D03*
X0069246Y0372884D02*
D03*
D616*
X0065919Y0385778D02*
D03*
X0070919Y0385778D02*
D03*
X0075919Y0385778D02*
D03*
X0080919Y0385778D02*
D03*
X0065919Y0408416D02*
D03*
X0070919Y0408416D02*
D03*
X0075919Y0408416D02*
D03*
X0080919Y0408416D02*
D03*
D617*
X0073419Y0397097D02*
D03*
D615*
X0076766Y0375247D02*
D03*
X0076766Y0359498D02*
D03*
D36*
X0066333Y0459085D02*
D03*
X0073813Y0459085D02*
D03*
D532*
X0066530Y0436467D02*
D03*
X0077947Y0436467D02*
D03*
X0060427Y0419538D02*
D03*
X0071844Y0419538D02*
D03*
X0077848Y0428298D02*
D03*
X0066431Y0428298D02*
D03*
X0078045Y0444538D02*
D03*
X0066628Y0444538D02*
D03*
D614*
X0062888Y0313534D02*
D03*
X0080604Y0313534D02*
D03*
D359*
X0062986Y0377313D02*
D03*
X0069285Y0377313D02*
D03*
D87*
X0060427Y0313534D02*
D03*
D95*
X0059148Y0412156D02*
D03*
X0059148Y0455069D02*
D03*
X0074108Y0313435D02*
D03*
X0059148Y0356250D02*
D03*
X0059148Y0307970D02*
D03*
X0321361Y0389988D02*
%LPD*%
G01*
G36*
G01*
X0285254Y0458676D02*
X0285254Y0457125D01*
G75*
G02*
X0284577Y0456448I-000677J0000000D01*
G01*
X0283223Y0456448D01*
G75*
G02*
X0282546Y0457125I0000000J0000677D01*
G01*
X0282546Y0458676D01*
G75*
G02*
X0283223Y0459354I0000677J0000000D01*
G01*
X0284577Y0459354D01*
G75*
G02*
X0285254Y0458676I0000000J-000677D01*
G01*
G37*
G36*
G01*
X0281435Y0458676D02*
X0281435Y0457125D01*
G75*
G02*
X0280758Y0456448I-000677J0000000D01*
G01*
X0279404Y0456448D01*
G75*
G02*
X0278727Y0457125I0000000J0000677D01*
G01*
X0278727Y0458676D01*
G75*
G02*
X0279404Y0459354I0000677J0000000D01*
G01*
X0280758Y0459354D01*
G75*
G02*
X0281435Y0458676I0000000J-000677D01*
G01*
G37*
G36*
G01*
X0309622Y0493596D02*
X0311174Y0493596D01*
G75*
G02*
X0311851Y0492919I0000000J-000677D01*
G01*
X0311851Y0491564D01*
G75*
G02*
X0311174Y0490887I-000677J0000000D01*
G01*
X0309622Y0490887D01*
G75*
G02*
X0308945Y0491564I0000000J0000677D01*
G01*
X0308945Y0492919D01*
G75*
G02*
X0309622Y0493596I0000677J0000000D01*
G01*
G37*
G36*
G01*
X0309622Y0489777D02*
X0311174Y0489777D01*
G75*
G02*
X0311851Y0489100I0000000J-000677D01*
G01*
X0311851Y0487745D01*
G75*
G02*
X0311174Y0487068I-000677J0000000D01*
G01*
X0309622Y0487068D01*
G75*
G02*
X0308945Y0487745I0000000J0000677D01*
G01*
X0308945Y0489100D01*
G75*
G02*
X0309622Y0489777I0000677J0000000D01*
G01*
G37*
G36*
G01*
X0284924Y0495818D02*
X0283372Y0495818D01*
G75*
G02*
X0282695Y0496495I0000000J0000677D01*
G01*
X0282695Y0497850D01*
G75*
G02*
X0283372Y0498527I0000677J0000000D01*
G01*
X0284924Y0498527D01*
G75*
G02*
X0285601Y0497850I0000000J-000677D01*
G01*
X0285601Y0496495D01*
G75*
G02*
X0284924Y0495818I-000677J0000000D01*
G01*
G37*
G36*
G01*
X0284924Y0499637D02*
X0283372Y0499637D01*
G75*
G02*
X0282695Y0500314I0000000J0000677D01*
G01*
X0282695Y0501669D01*
G75*
G02*
X0283372Y0502346I0000677J0000000D01*
G01*
X0284924Y0502346D01*
G75*
G02*
X0285601Y0501669I0000000J-000677D01*
G01*
X0285601Y0500314D01*
G75*
G02*
X0284924Y0499637I-000677J0000000D01*
G01*
G37*
G36*
G01*
X0301305Y0395795D02*
X0299754Y0395795D01*
G75*
G02*
X0299077Y0396472I0000000J0000677D01*
G01*
X0299077Y0397826D01*
G75*
G02*
X0299754Y0398503I0000677J0000000D01*
G01*
X0301305Y0398503D01*
G75*
G02*
X0301983Y0397826I0000000J-000677D01*
G01*
X0301983Y0396472D01*
G75*
G02*
X0301305Y0395795I-000677J0000000D01*
G01*
G37*
G36*
G01*
X0301305Y0399613D02*
X0299754Y0399613D01*
G75*
G02*
X0299077Y0400291I0000000J0000677D01*
G01*
X0299077Y0401645D01*
G75*
G02*
X0299754Y0402322I0000677J0000000D01*
G01*
X0301305Y0402322D01*
G75*
G02*
X0301983Y0401645I0000000J-000677D01*
G01*
X0301983Y0400291D01*
G75*
G02*
X0301305Y0399613I-000677J0000000D01*
G01*
G37*
G36*
G01*
X0287014Y0409453D02*
X0287014Y0411664D01*
G75*
G02*
X0287972Y0412621I0000958J0000000D01*
G01*
X0289887Y0412621D01*
G75*
G02*
X0290845Y0411664I0000000J-000958D01*
G01*
X0290845Y0409453D01*
G75*
G02*
X0289887Y0408495I-000958J0000000D01*
G01*
X0287972Y0408495D01*
G75*
G02*
X0287014Y0409453I0000000J0000958D01*
G01*
G37*
G36*
G01*
X0293215Y0409453D02*
X0293215Y0411664D01*
G75*
G02*
X0294173Y0412621I0000958J0000000D01*
G01*
X0296088Y0412621D01*
G75*
G02*
X0297046Y0411664I0000000J-000958D01*
G01*
X0297046Y0409453D01*
G75*
G02*
X0296088Y0408495I-000958J0000000D01*
G01*
X0294173Y0408495D01*
G75*
G02*
X0293215Y0409453I0000000J0000958D01*
G01*
G37*
G36*
G01*
X0284253Y0480066D02*
X0282043Y0480066D01*
G75*
G02*
X0281085Y0481024I0000000J0000958D01*
G01*
X0281085Y0482939D01*
G75*
G02*
X0282043Y0483897I0000958J0000000D01*
G01*
X0284253Y0483897D01*
G75*
G02*
X0285211Y0482939I0000000J-000958D01*
G01*
X0285211Y0481024D01*
G75*
G02*
X0284253Y0480066I-000958J0000000D01*
G01*
G37*
G36*
G01*
X0284253Y0486267D02*
X0282043Y0486267D01*
G75*
G02*
X0281085Y0487225I0000000J0000958D01*
G01*
X0281085Y0489140D01*
G75*
G02*
X0282043Y0490098I0000958J0000000D01*
G01*
X0284253Y0490098D01*
G75*
G02*
X0285211Y0489140I0000000J-000958D01*
G01*
X0285211Y0487225D01*
G75*
G02*
X0284253Y0486267I-000958J0000000D01*
G01*
G37*
G36*
G01*
X0309622Y0485846D02*
X0311174Y0485846D01*
G75*
G02*
X0311851Y0485169I0000000J-000677D01*
G01*
X0311851Y0483814D01*
G75*
G02*
X0311174Y0483137I-000677J0000000D01*
G01*
X0309622Y0483137D01*
G75*
G02*
X0308945Y0483814I0000000J0000677D01*
G01*
X0308945Y0485169D01*
G75*
G02*
X0309622Y0485846I0000677J0000000D01*
G01*
G37*
G36*
G01*
X0309622Y0482027D02*
X0311174Y0482027D01*
G75*
G02*
X0311851Y0481350I0000000J-000677D01*
G01*
X0311851Y0479995D01*
G75*
G02*
X0311174Y0479318I-000677J0000000D01*
G01*
X0309622Y0479318D01*
G75*
G02*
X0308945Y0479995I0000000J0000677D01*
G01*
X0308945Y0481350D01*
G75*
G02*
X0309622Y0482027I0000677J0000000D01*
G01*
G37*
G36*
G01*
X0293412Y0497858D02*
X0293412Y0496306D01*
G75*
G02*
X0292735Y0495629I-000677J0000000D01*
G01*
X0291380Y0495629D01*
G75*
G02*
X0290703Y0496306I0000000J0000677D01*
G01*
X0290703Y0497858D01*
G75*
G02*
X0291380Y0498535I0000677J0000000D01*
G01*
X0292735Y0498535D01*
G75*
G02*
X0293412Y0497858I0000000J-000677D01*
G01*
G37*
G36*
G01*
X0289593Y0497858D02*
X0289593Y0496306D01*
G75*
G02*
X0288916Y0495629I-000677J0000000D01*
G01*
X0287561Y0495629D01*
G75*
G02*
X0286884Y0496306I0000000J0000677D01*
G01*
X0286884Y0497858D01*
G75*
G02*
X0287561Y0498535I0000677J0000000D01*
G01*
X0288916Y0498535D01*
G75*
G02*
X0289593Y0497858I0000000J-000677D01*
G01*
G37*
G36*
G01*
X0271050Y0491377D02*
X0271050Y0492928D01*
G75*
G02*
X0271727Y0493606I0000677J0000000D01*
G01*
X0273081Y0493606D01*
G75*
G02*
X0273758Y0492928I0000000J-000677D01*
G01*
X0273758Y0491377D01*
G75*
G02*
X0273081Y0490700I-000677J0000000D01*
G01*
X0271727Y0490700D01*
G75*
G02*
X0271050Y0491377I0000000J0000677D01*
G01*
G37*
G36*
G01*
X0274868Y0491377D02*
X0274868Y0492928D01*
G75*
G02*
X0275546Y0493606I0000677J0000000D01*
G01*
X0276900Y0493606D01*
G75*
G02*
X0277577Y0492928I0000000J-000677D01*
G01*
X0277577Y0491377D01*
G75*
G02*
X0276900Y0490700I-000677J0000000D01*
G01*
X0275546Y0490700D01*
G75*
G02*
X0274868Y0491377I0000000J0000677D01*
G01*
G37*
G36*
G01*
X0268002Y0486724D02*
X0266451Y0486724D01*
G75*
G02*
X0265774Y0487401I0000000J0000677D01*
G01*
X0265774Y0488755D01*
G75*
G02*
X0266451Y0489432I0000677J0000000D01*
G01*
X0268002Y0489432D01*
G75*
G02*
X0268679Y0488755I0000000J-000677D01*
G01*
X0268679Y0487401D01*
G75*
G02*
X0268002Y0486724I-000677J0000000D01*
G01*
G37*
G36*
G01*
X0268002Y0490543D02*
X0266451Y0490543D01*
G75*
G02*
X0265774Y0491220I0000000J0000677D01*
G01*
X0265774Y0492574D01*
G75*
G02*
X0266451Y0493251I0000677J0000000D01*
G01*
X0268002Y0493251D01*
G75*
G02*
X0268679Y0492574I0000000J-000677D01*
G01*
X0268679Y0491220D01*
G75*
G02*
X0268002Y0490543I-000677J0000000D01*
G01*
G37*
G36*
G01*
X0266821Y0461921D02*
X0265270Y0461921D01*
G75*
G02*
X0264593Y0462598I0000000J0000677D01*
G01*
X0264593Y0463952D01*
G75*
G02*
X0265270Y0464629I0000677J0000000D01*
G01*
X0266821Y0464629D01*
G75*
G02*
X0267498Y0463952I0000000J-000677D01*
G01*
X0267498Y0462598D01*
G75*
G02*
X0266821Y0461921I-000677J0000000D01*
G01*
G37*
G36*
G01*
X0266821Y0465739D02*
X0265270Y0465739D01*
G75*
G02*
X0264593Y0466417I0000000J0000677D01*
G01*
X0264593Y0467771D01*
G75*
G02*
X0265270Y0468448I0000677J0000000D01*
G01*
X0266821Y0468448D01*
G75*
G02*
X0267498Y0467771I0000000J-000677D01*
G01*
X0267498Y0466417D01*
G75*
G02*
X0266821Y0465739I-000677J0000000D01*
G01*
G37*
G36*
G01*
X0309622Y0478096D02*
X0311174Y0478096D01*
G75*
G02*
X0311851Y0477419I0000000J-000677D01*
G01*
X0311851Y0476064D01*
G75*
G02*
X0311174Y0475387I-000677J0000000D01*
G01*
X0309622Y0475387D01*
G75*
G02*
X0308945Y0476064I0000000J0000677D01*
G01*
X0308945Y0477419D01*
G75*
G02*
X0309622Y0478096I0000677J0000000D01*
G01*
G37*
G36*
G01*
X0309622Y0474277D02*
X0311174Y0474277D01*
G75*
G02*
X0311851Y0473600I0000000J-000677D01*
G01*
X0311851Y0472245D01*
G75*
G02*
X0311174Y0471568I-000677J0000000D01*
G01*
X0309622Y0471568D01*
G75*
G02*
X0308945Y0472245I0000000J0000677D01*
G01*
X0308945Y0473600D01*
G75*
G02*
X0309622Y0474277I0000677J0000000D01*
G01*
G37*
G36*
G01*
X0309622Y0470346D02*
X0311174Y0470346D01*
G75*
G02*
X0311851Y0469669I0000000J-000677D01*
G01*
X0311851Y0468314D01*
G75*
G02*
X0311174Y0467637I-000677J0000000D01*
G01*
X0309622Y0467637D01*
G75*
G02*
X0308945Y0468314I0000000J0000677D01*
G01*
X0308945Y0469669D01*
G75*
G02*
X0309622Y0470346I0000677J0000000D01*
G01*
G37*
G36*
G01*
X0309622Y0466527D02*
X0311174Y0466527D01*
G75*
G02*
X0311851Y0465850I0000000J-000677D01*
G01*
X0311851Y0464495D01*
G75*
G02*
X0311174Y0463818I-000677J0000000D01*
G01*
X0309622Y0463818D01*
G75*
G02*
X0308945Y0464495I0000000J0000677D01*
G01*
X0308945Y0465850D01*
G75*
G02*
X0309622Y0466527I0000677J0000000D01*
G01*
G37*
G36*
G01*
X0285412Y0493858D02*
X0285412Y0492306D01*
G75*
G02*
X0284735Y0491629I-000677J0000000D01*
G01*
X0283380Y0491629D01*
G75*
G02*
X0282703Y0492306I0000000J0000677D01*
G01*
X0282703Y0493858D01*
G75*
G02*
X0283380Y0494535I0000677J0000000D01*
G01*
X0284735Y0494535D01*
G75*
G02*
X0285412Y0493858I0000000J-000677D01*
G01*
G37*
G36*
G01*
X0281593Y0493858D02*
X0281593Y0492306D01*
G75*
G02*
X0280916Y0491629I-000677J0000000D01*
G01*
X0279561Y0491629D01*
G75*
G02*
X0278884Y0492306I0000000J0000677D01*
G01*
X0278884Y0493858D01*
G75*
G02*
X0279561Y0494535I0000677J0000000D01*
G01*
X0280916Y0494535D01*
G75*
G02*
X0281593Y0493858I0000000J-000677D01*
G01*
G37*
G36*
G01*
X0293595Y0405960D02*
X0296745Y0405960D01*
G75*
G02*
X0296938Y0405767I0000000J-000193D01*
G01*
X0296938Y0402224D01*
G75*
G02*
X0296745Y0402031I-000193J0000000D01*
G01*
X0293595Y0402031D01*
G75*
G02*
X0293402Y0402224I0000000J0000193D01*
G01*
X0293402Y0405767D01*
G75*
G02*
X0293595Y0405960I0000193J0000000D01*
G01*
G37*
G36*
G01*
X0286115Y0405960D02*
X0289265Y0405960D01*
G75*
G02*
X0289457Y0405767I0000000J-000193D01*
G01*
X0289457Y0402224D01*
G75*
G02*
X0289265Y0402031I-000193J0000000D01*
G01*
X0286115Y0402031D01*
G75*
G02*
X0285922Y0402224I0000000J0000193D01*
G01*
X0285922Y0405767D01*
G75*
G02*
X0286115Y0405960I0000193J0000000D01*
G01*
G37*
G36*
G01*
X0289855Y0398086D02*
X0293005Y0398086D01*
G75*
G02*
X0293198Y0397893I0000000J-000193D01*
G01*
X0293198Y0394350D01*
G75*
G02*
X0293005Y0394157I-000193J0000000D01*
G01*
X0289855Y0394157D01*
G75*
G02*
X0289662Y0394350I0000000J0000193D01*
G01*
X0289662Y0397893D01*
G75*
G02*
X0289855Y0398086I0000193J0000000D01*
G01*
G37*
G36*
G01*
X0290357Y0464421D02*
X0288585Y0464421D01*
G75*
G02*
X0288392Y0464613I0000000J0000193D01*
G01*
X0288392Y0470322D01*
G75*
G02*
X0288585Y0470515I0000193J0000000D01*
G01*
X0290357Y0470515D01*
G75*
G02*
X0290550Y0470322I0000000J-000193D01*
G01*
X0290550Y0464613D01*
G75*
G02*
X0290357Y0464421I-000193J0000000D01*
G01*
G37*
G36*
G01*
X0292916Y0464421D02*
X0291144Y0464421D01*
G75*
G02*
X0290951Y0464613I0000000J0000193D01*
G01*
X0290951Y0470322D01*
G75*
G02*
X0291144Y0470515I0000193J0000000D01*
G01*
X0292916Y0470515D01*
G75*
G02*
X0293109Y0470322I0000000J-000193D01*
G01*
X0293109Y0464613D01*
G75*
G02*
X0292916Y0464421I-000193J0000000D01*
G01*
G37*
G36*
G01*
X0295475Y0464421D02*
X0293703Y0464421D01*
G75*
G02*
X0293510Y0464613I0000000J0000193D01*
G01*
X0293510Y0470322D01*
G75*
G02*
X0293703Y0470515I0000193J0000000D01*
G01*
X0295475Y0470515D01*
G75*
G02*
X0295668Y0470322I0000000J-000193D01*
G01*
X0295668Y0464613D01*
G75*
G02*
X0295475Y0464421I-000193J0000000D01*
G01*
G37*
G36*
G01*
X0298034Y0464421D02*
X0296262Y0464421D01*
G75*
G02*
X0296069Y0464613I0000000J0000193D01*
G01*
X0296069Y0470322D01*
G75*
G02*
X0296262Y0470515I0000193J0000000D01*
G01*
X0298034Y0470515D01*
G75*
G02*
X0298227Y0470322I0000000J-000193D01*
G01*
X0298227Y0464613D01*
G75*
G02*
X0298034Y0464421I-000193J0000000D01*
G01*
G37*
G36*
G01*
X0300593Y0464421D02*
X0298821Y0464421D01*
G75*
G02*
X0298628Y0464613I0000000J0000193D01*
G01*
X0298628Y0470322D01*
G75*
G02*
X0298821Y0470515I0000193J0000000D01*
G01*
X0300593Y0470515D01*
G75*
G02*
X0300786Y0470322I0000000J-000193D01*
G01*
X0300786Y0464613D01*
G75*
G02*
X0300593Y0464421I-000193J0000000D01*
G01*
G37*
G36*
G01*
X0303152Y0464421D02*
X0301380Y0464421D01*
G75*
G02*
X0301187Y0464613I0000000J0000193D01*
G01*
X0301187Y0470322D01*
G75*
G02*
X0301380Y0470515I0000193J0000000D01*
G01*
X0303152Y0470515D01*
G75*
G02*
X0303345Y0470322I0000000J-000193D01*
G01*
X0303345Y0464613D01*
G75*
G02*
X0303152Y0464421I-000193J0000000D01*
G01*
G37*
G36*
G01*
X0305711Y0464421D02*
X0303939Y0464421D01*
G75*
G02*
X0303746Y0464613I0000000J0000193D01*
G01*
X0303746Y0470322D01*
G75*
G02*
X0303939Y0470515I0000193J0000000D01*
G01*
X0305711Y0470515D01*
G75*
G02*
X0305904Y0470322I0000000J-000193D01*
G01*
X0305904Y0464613D01*
G75*
G02*
X0305711Y0464421I-000193J0000000D01*
G01*
G37*
G36*
G01*
X0305711Y0487649D02*
X0303939Y0487649D01*
G75*
G02*
X0303746Y0487842I0000000J0000193D01*
G01*
X0303746Y0493551D01*
G75*
G02*
X0303939Y0493743I0000193J0000000D01*
G01*
X0305711Y0493743D01*
G75*
G02*
X0305904Y0493551I0000000J-000193D01*
G01*
X0305904Y0487842D01*
G75*
G02*
X0305711Y0487649I-000193J0000000D01*
G01*
G37*
G36*
G01*
X0303152Y0487649D02*
X0301380Y0487649D01*
G75*
G02*
X0301187Y0487842I0000000J0000193D01*
G01*
X0301187Y0493551D01*
G75*
G02*
X0301380Y0493743I0000193J0000000D01*
G01*
X0303152Y0493743D01*
G75*
G02*
X0303345Y0493551I0000000J-000193D01*
G01*
X0303345Y0487842D01*
G75*
G02*
X0303152Y0487649I-000193J0000000D01*
G01*
G37*
G36*
G01*
X0300593Y0487649D02*
X0298821Y0487649D01*
G75*
G02*
X0298628Y0487842I0000000J0000193D01*
G01*
X0298628Y0493551D01*
G75*
G02*
X0298821Y0493743I0000193J0000000D01*
G01*
X0300593Y0493743D01*
G75*
G02*
X0300786Y0493551I0000000J-000193D01*
G01*
X0300786Y0487842D01*
G75*
G02*
X0300593Y0487649I-000193J0000000D01*
G01*
G37*
G36*
G01*
X0298034Y0487649D02*
X0296262Y0487649D01*
G75*
G02*
X0296069Y0487842I0000000J0000193D01*
G01*
X0296069Y0493551D01*
G75*
G02*
X0296262Y0493743I0000193J0000000D01*
G01*
X0298034Y0493743D01*
G75*
G02*
X0298227Y0493551I0000000J-000193D01*
G01*
X0298227Y0487842D01*
G75*
G02*
X0298034Y0487649I-000193J0000000D01*
G01*
G37*
G36*
G01*
X0295475Y0487649D02*
X0293703Y0487649D01*
G75*
G02*
X0293510Y0487842I0000000J0000193D01*
G01*
X0293510Y0493551D01*
G75*
G02*
X0293703Y0493743I0000193J0000000D01*
G01*
X0295475Y0493743D01*
G75*
G02*
X0295668Y0493551I0000000J-000193D01*
G01*
X0295668Y0487842D01*
G75*
G02*
X0295475Y0487649I-000193J0000000D01*
G01*
G37*
G36*
G01*
X0292916Y0487649D02*
X0291144Y0487649D01*
G75*
G02*
X0290951Y0487842I0000000J0000193D01*
G01*
X0290951Y0493551D01*
G75*
G02*
X0291144Y0493743I0000193J0000000D01*
G01*
X0292916Y0493743D01*
G75*
G02*
X0293109Y0493551I0000000J-000193D01*
G01*
X0293109Y0487842D01*
G75*
G02*
X0292916Y0487649I-000193J0000000D01*
G01*
G37*
G36*
G01*
X0290357Y0487649D02*
X0288585Y0487649D01*
G75*
G02*
X0288392Y0487842I0000000J0000193D01*
G01*
X0288392Y0493551D01*
G75*
G02*
X0288585Y0493743I0000193J0000000D01*
G01*
X0290357Y0493743D01*
G75*
G02*
X0290550Y0493551I0000000J-000193D01*
G01*
X0290550Y0487842D01*
G75*
G02*
X0290357Y0487649I-000193J0000000D01*
G01*
G37*
G36*
G01*
X0293412Y0501858D02*
X0293412Y0500306D01*
G75*
G02*
X0292735Y0499629I-000677J0000000D01*
G01*
X0291380Y0499629D01*
G75*
G02*
X0290703Y0500306I0000000J0000677D01*
G01*
X0290703Y0501858D01*
G75*
G02*
X0291380Y0502535I0000677J0000000D01*
G01*
X0292735Y0502535D01*
G75*
G02*
X0293412Y0501858I0000000J-000677D01*
G01*
G37*
G36*
G01*
X0289593Y0501858D02*
X0289593Y0500306D01*
G75*
G02*
X0288916Y0499629I-000677J0000000D01*
G01*
X0287561Y0499629D01*
G75*
G02*
X0286884Y0500306I0000000J0000677D01*
G01*
X0286884Y0501858D01*
G75*
G02*
X0287561Y0502535I0000677J0000000D01*
G01*
X0288916Y0502535D01*
G75*
G02*
X0289593Y0501858I0000000J-000677D01*
G01*
G37*
G36*
G01*
X0270561Y0454440D02*
X0269010Y0454440D01*
G75*
G02*
X0268333Y0455117I0000000J0000677D01*
G01*
X0268333Y0456472D01*
G75*
G02*
X0269010Y0457149I0000677J0000000D01*
G01*
X0270561Y0457149D01*
G75*
G02*
X0271239Y0456472I0000000J-000677D01*
G01*
X0271239Y0455117D01*
G75*
G02*
X0270561Y0454440I-000677J0000000D01*
G01*
G37*
G36*
G01*
X0270561Y0458259D02*
X0269010Y0458259D01*
G75*
G02*
X0268333Y0458936I0000000J0000677D01*
G01*
X0268333Y0460291D01*
G75*
G02*
X0269010Y0460968I0000677J0000000D01*
G01*
X0270561Y0460968D01*
G75*
G02*
X0271239Y0460291I0000000J-000677D01*
G01*
X0271239Y0458936D01*
G75*
G02*
X0270561Y0458259I-000677J0000000D01*
G01*
G37*
G36*
G01*
X0265270Y0460968D02*
X0266821Y0460968D01*
G75*
G02*
X0267498Y0460291I0000000J-000677D01*
G01*
X0267498Y0458936D01*
G75*
G02*
X0266821Y0458259I-000677J0000000D01*
G01*
X0265270Y0458259D01*
G75*
G02*
X0264593Y0458936I0000000J0000677D01*
G01*
X0264593Y0460291D01*
G75*
G02*
X0265270Y0460968I0000677J0000000D01*
G01*
G37*
G36*
G01*
X0265270Y0457149D02*
X0266821Y0457149D01*
G75*
G02*
X0267498Y0456472I0000000J-000677D01*
G01*
X0267498Y0455117D01*
G75*
G02*
X0266821Y0454440I-000677J0000000D01*
G01*
X0265270Y0454440D01*
G75*
G02*
X0264593Y0455117I0000000J0000677D01*
G01*
X0264593Y0456472D01*
G75*
G02*
X0265270Y0457149I0000677J0000000D01*
G01*
G37*
G36*
G01*
X0286207Y0457125D02*
X0286207Y0458676D01*
G75*
G02*
X0286884Y0459354I0000677J0000000D01*
G01*
X0288239Y0459354D01*
G75*
G02*
X0288916Y0458676I0000000J-000677D01*
G01*
X0288916Y0457125D01*
G75*
G02*
X0288239Y0456448I-000677J0000000D01*
G01*
X0286884Y0456448D01*
G75*
G02*
X0286207Y0457125I0000000J0000677D01*
G01*
G37*
G36*
G01*
X0290026Y0457125D02*
X0290026Y0458676D01*
G75*
G02*
X0290703Y0459354I0000677J0000000D01*
G01*
X0292057Y0459354D01*
G75*
G02*
X0292735Y0458676I0000000J-000677D01*
G01*
X0292735Y0457125D01*
G75*
G02*
X0292057Y0456448I-000677J0000000D01*
G01*
X0290703Y0456448D01*
G75*
G02*
X0290026Y0457125I0000000J0000677D01*
G01*
G37*
G36*
G01*
X0276396Y0503755D02*
X0276396Y0502204D01*
G75*
G02*
X0275719Y0501527I-000677J0000000D01*
G01*
X0274365Y0501527D01*
G75*
G02*
X0273687Y0502204I0000000J0000677D01*
G01*
X0273687Y0503755D01*
G75*
G02*
X0274365Y0504432I0000677J0000000D01*
G01*
X0275719Y0504432D01*
G75*
G02*
X0276396Y0503755I0000000J-000677D01*
G01*
G37*
G36*
G01*
X0272577Y0503755D02*
X0272577Y0502204D01*
G75*
G02*
X0271900Y0501527I-000677J0000000D01*
G01*
X0270546Y0501527D01*
G75*
G02*
X0269868Y0502204I0000000J0000677D01*
G01*
X0269868Y0503755D01*
G75*
G02*
X0270546Y0504432I0000677J0000000D01*
G01*
X0271900Y0504432D01*
G75*
G02*
X0272577Y0503755I0000000J-000677D01*
G01*
G37*
G36*
G01*
X0266821Y0428909D02*
X0265270Y0428909D01*
G75*
G02*
X0264593Y0429586I0000000J0000677D01*
G01*
X0264593Y0430940D01*
G75*
G02*
X0265270Y0431617I0000677J0000000D01*
G01*
X0266821Y0431617D01*
G75*
G02*
X0267498Y0430940I0000000J-000677D01*
G01*
X0267498Y0429586D01*
G75*
G02*
X0266821Y0428909I-000677J0000000D01*
G01*
G37*
G36*
G01*
X0266821Y0432728D02*
X0265270Y0432728D01*
G75*
G02*
X0264593Y0433405I0000000J0000677D01*
G01*
X0264593Y0434759D01*
G75*
G02*
X0265270Y0435436I0000677J0000000D01*
G01*
X0266821Y0435436D01*
G75*
G02*
X0267498Y0434759I0000000J-000677D01*
G01*
X0267498Y0433405D01*
G75*
G02*
X0266821Y0432728I-000677J0000000D01*
G01*
G37*
G36*
G01*
X0302349Y0452401D02*
X0302349Y0453952D01*
G75*
G02*
X0303026Y0454629I0000677J0000000D01*
G01*
X0304380Y0454629D01*
G75*
G02*
X0305057Y0453952I0000000J-000677D01*
G01*
X0305057Y0452401D01*
G75*
G02*
X0304380Y0451724I-000677J0000000D01*
G01*
X0303026Y0451724D01*
G75*
G02*
X0302349Y0452401I0000000J0000677D01*
G01*
G37*
G36*
G01*
X0306168Y0452401D02*
X0306168Y0453952D01*
G75*
G02*
X0306845Y0454629I0000677J0000000D01*
G01*
X0308199Y0454629D01*
G75*
G02*
X0308876Y0453952I0000000J-000677D01*
G01*
X0308876Y0452401D01*
G75*
G02*
X0308199Y0451724I-000677J0000000D01*
G01*
X0306845Y0451724D01*
G75*
G02*
X0306168Y0452401I0000000J0000677D01*
G01*
G37*
G36*
G01*
X0273640Y0418125D02*
X0273640Y0416574D01*
G75*
G02*
X0272963Y0415897I-000677J0000000D01*
G01*
X0271609Y0415897D01*
G75*
G02*
X0270931Y0416574I0000000J0000677D01*
G01*
X0270931Y0418125D01*
G75*
G02*
X0271609Y0418802I0000677J0000000D01*
G01*
X0272963Y0418802D01*
G75*
G02*
X0273640Y0418125I0000000J-000677D01*
G01*
G37*
G36*
G01*
X0269821Y0418125D02*
X0269821Y0416574D01*
G75*
G02*
X0269144Y0415897I-000677J0000000D01*
G01*
X0267790Y0415897D01*
G75*
G02*
X0267113Y0416574I0000000J0000677D01*
G01*
X0267113Y0418125D01*
G75*
G02*
X0267790Y0418802I0000677J0000000D01*
G01*
X0269144Y0418802D01*
G75*
G02*
X0269821Y0418125I0000000J-000677D01*
G01*
G37*
G36*
G01*
X0267329Y0525342D02*
X0267329Y0530066D01*
G75*
G02*
X0267522Y0530259I0000193J0000000D01*
G01*
X0276183Y0530259D01*
G75*
G02*
X0276376Y0530066I0000000J-000193D01*
G01*
X0276376Y0525342D01*
G75*
G02*
X0276183Y0525149I-000193J0000000D01*
G01*
X0267522Y0525149D01*
G75*
G02*
X0267329Y0525342I0000000J0000193D01*
G01*
G37*
G36*
G01*
X0283865Y0507310D02*
X0283865Y0530145D01*
G75*
G02*
X0284057Y0530338I0000193J0000000D01*
G01*
X0309254Y0530338D01*
G75*
G02*
X0309447Y0530145I0000000J-000193D01*
G01*
X0309447Y0507310D01*
G75*
G02*
X0309254Y0507117I-000193J0000000D01*
G01*
X0284057Y0507117D01*
G75*
G02*
X0283865Y0507310I0000000J0000193D01*
G01*
G37*
G36*
G01*
X0267329Y0507389D02*
X0267329Y0512113D01*
G75*
G02*
X0267522Y0512306I0000193J0000000D01*
G01*
X0276183Y0512306D01*
G75*
G02*
X0276376Y0512113I0000000J-000193D01*
G01*
X0276376Y0507389D01*
G75*
G02*
X0276183Y0507196I-000193J0000000D01*
G01*
X0267522Y0507196D01*
G75*
G02*
X0267329Y0507389I0000000J0000193D01*
G01*
G37*
G36*
G01*
X0314459Y0496310D02*
X0312908Y0496310D01*
G75*
G02*
X0312231Y0496988I0000000J0000677D01*
G01*
X0312231Y0498342D01*
G75*
G02*
X0312908Y0499019I0000677J0000000D01*
G01*
X0314459Y0499019D01*
G75*
G02*
X0315136Y0498342I0000000J-000677D01*
G01*
X0315136Y0496988D01*
G75*
G02*
X0314459Y0496310I-000677J0000000D01*
G01*
G37*
G36*
G01*
X0314459Y0500129D02*
X0312908Y0500129D01*
G75*
G02*
X0312231Y0500806I0000000J0000677D01*
G01*
X0312231Y0502161D01*
G75*
G02*
X0312908Y0502838I0000677J0000000D01*
G01*
X0314459Y0502838D01*
G75*
G02*
X0315136Y0502161I0000000J-000677D01*
G01*
X0315136Y0500806D01*
G75*
G02*
X0314459Y0500129I-000677J0000000D01*
G01*
G37*
G36*
G01*
X0308876Y0458480D02*
X0308876Y0456928D01*
G75*
G02*
X0308199Y0456251I-000677J0000000D01*
G01*
X0306845Y0456251D01*
G75*
G02*
X0306168Y0456928I0000000J0000677D01*
G01*
X0306168Y0458480D01*
G75*
G02*
X0306845Y0459157I0000677J0000000D01*
G01*
X0308199Y0459157D01*
G75*
G02*
X0308876Y0458480I0000000J-000677D01*
G01*
G37*
G36*
G01*
X0305057Y0458480D02*
X0305057Y0456928D01*
G75*
G02*
X0304380Y0456251I-000677J0000000D01*
G01*
X0303026Y0456251D01*
G75*
G02*
X0302349Y0456928I0000000J0000677D01*
G01*
X0302349Y0458480D01*
G75*
G02*
X0303026Y0459157I0000677J0000000D01*
G01*
X0304380Y0459157D01*
G75*
G02*
X0305057Y0458480I0000000J-000677D01*
G01*
G37*
G36*
G01*
X0268199Y0494539D02*
X0266648Y0494539D01*
G75*
G02*
X0265971Y0495216I0000000J0000677D01*
G01*
X0265971Y0496570D01*
G75*
G02*
X0266648Y0497247I0000677J0000000D01*
G01*
X0268199Y0497247D01*
G75*
G02*
X0268876Y0496570I0000000J-000677D01*
G01*
X0268876Y0495216D01*
G75*
G02*
X0268199Y0494539I-000677J0000000D01*
G01*
G37*
G36*
G01*
X0268199Y0498358D02*
X0266648Y0498358D01*
G75*
G02*
X0265971Y0499035I0000000J0000677D01*
G01*
X0265971Y0500389D01*
G75*
G02*
X0266648Y0501066I0000677J0000000D01*
G01*
X0268199Y0501066D01*
G75*
G02*
X0268876Y0500389I0000000J-000677D01*
G01*
X0268876Y0499035D01*
G75*
G02*
X0268199Y0498358I-000677J0000000D01*
G01*
G37*
G36*
G01*
X0301384Y0460806D02*
X0301384Y0462358D01*
G75*
G02*
X0302061Y0463035I0000677J0000000D01*
G01*
X0303416Y0463035D01*
G75*
G02*
X0304093Y0462358I0000000J-000677D01*
G01*
X0304093Y0460806D01*
G75*
G02*
X0303416Y0460129I-000677J0000000D01*
G01*
X0302061Y0460129D01*
G75*
G02*
X0301384Y0460806I0000000J0000677D01*
G01*
G37*
G36*
G01*
X0305203Y0460806D02*
X0305203Y0462358D01*
G75*
G02*
X0305880Y0463035I0000677J0000000D01*
G01*
X0307235Y0463035D01*
G75*
G02*
X0307912Y0462358I0000000J-000677D01*
G01*
X0307912Y0460806D01*
G75*
G02*
X0307235Y0460129I-000677J0000000D01*
G01*
X0305880Y0460129D01*
G75*
G02*
X0305203Y0460806I0000000J0000677D01*
G01*
G37*
G36*
G01*
X0301270Y0406606D02*
X0299719Y0406606D01*
G75*
G02*
X0299042Y0407283I0000000J0000677D01*
G01*
X0299042Y0408637D01*
G75*
G02*
X0299719Y0409314I0000677J0000000D01*
G01*
X0301270Y0409314D01*
G75*
G02*
X0301947Y0408637I0000000J-000677D01*
G01*
X0301947Y0407283D01*
G75*
G02*
X0301270Y0406606I-000677J0000000D01*
G01*
G37*
G36*
G01*
X0301270Y0410425D02*
X0299719Y0410425D01*
G75*
G02*
X0299042Y0411102I0000000J0000677D01*
G01*
X0299042Y0412456D01*
G75*
G02*
X0299719Y0413133I0000677J0000000D01*
G01*
X0301270Y0413133D01*
G75*
G02*
X0301947Y0412456I0000000J-000677D01*
G01*
X0301947Y0411102D01*
G75*
G02*
X0301270Y0410425I-000677J0000000D01*
G01*
G37*
G36*
G01*
X0311043Y0446098D02*
X0313253Y0446098D01*
G75*
G02*
X0314211Y0445140I0000000J-000958D01*
G01*
X0314211Y0443225D01*
G75*
G02*
X0313253Y0442267I-000958J0000000D01*
G01*
X0311043Y0442267D01*
G75*
G02*
X0310085Y0443225I0000000J0000958D01*
G01*
X0310085Y0445140D01*
G75*
G02*
X0311043Y0446098I0000958J0000000D01*
G01*
G37*
G36*
G01*
X0311043Y0439897D02*
X0313253Y0439897D01*
G75*
G02*
X0314211Y0438939I0000000J-000958D01*
G01*
X0314211Y0437024D01*
G75*
G02*
X0313253Y0436066I-000958J0000000D01*
G01*
X0311043Y0436066D01*
G75*
G02*
X0310085Y0437024I0000000J0000958D01*
G01*
X0310085Y0438939D01*
G75*
G02*
X0311043Y0439897I0000958J0000000D01*
G01*
G37*
G36*
G01*
X0311372Y0454346D02*
X0312924Y0454346D01*
G75*
G02*
X0313601Y0453669I0000000J-000677D01*
G01*
X0313601Y0452314D01*
G75*
G02*
X0312924Y0451637I-000677J0000000D01*
G01*
X0311372Y0451637D01*
G75*
G02*
X0310695Y0452314I0000000J0000677D01*
G01*
X0310695Y0453669D01*
G75*
G02*
X0311372Y0454346I0000677J0000000D01*
G01*
G37*
G36*
G01*
X0311372Y0450527D02*
X0312924Y0450527D01*
G75*
G02*
X0313601Y0449850I0000000J-000677D01*
G01*
X0313601Y0448495D01*
G75*
G02*
X0312924Y0447818I-000677J0000000D01*
G01*
X0311372Y0447818D01*
G75*
G02*
X0310695Y0448495I0000000J0000677D01*
G01*
X0310695Y0449850D01*
G75*
G02*
X0311372Y0450527I0000677J0000000D01*
G01*
G37*
G36*
G01*
X0283372Y0466846D02*
X0284924Y0466846D01*
G75*
G02*
X0285601Y0466169I0000000J-000677D01*
G01*
X0285601Y0464814D01*
G75*
G02*
X0284924Y0464137I-000677J0000000D01*
G01*
X0283372Y0464137D01*
G75*
G02*
X0282695Y0464814I0000000J0000677D01*
G01*
X0282695Y0466169D01*
G75*
G02*
X0283372Y0466846I0000677J0000000D01*
G01*
G37*
G36*
G01*
X0283372Y0463027D02*
X0284924Y0463027D01*
G75*
G02*
X0285601Y0462350I0000000J-000677D01*
G01*
X0285601Y0460995D01*
G75*
G02*
X0284924Y0460318I-000677J0000000D01*
G01*
X0283372Y0460318D01*
G75*
G02*
X0282695Y0460995I0000000J0000677D01*
G01*
X0282695Y0462350D01*
G75*
G02*
X0283372Y0463027I0000677J0000000D01*
G01*
G37*
G36*
G01*
X0278884Y0472306D02*
X0278884Y0473858D01*
G75*
G02*
X0279561Y0474535I0000677J0000000D01*
G01*
X0280916Y0474535D01*
G75*
G02*
X0281593Y0473858I0000000J-000677D01*
G01*
X0281593Y0472306D01*
G75*
G02*
X0280916Y0471629I-000677J0000000D01*
G01*
X0279561Y0471629D01*
G75*
G02*
X0278884Y0472306I0000000J0000677D01*
G01*
G37*
G36*
G01*
X0282703Y0472306D02*
X0282703Y0473858D01*
G75*
G02*
X0283380Y0474535I0000677J0000000D01*
G01*
X0284735Y0474535D01*
G75*
G02*
X0285412Y0473858I0000000J-000677D01*
G01*
X0285412Y0472306D01*
G75*
G02*
X0284735Y0471629I-000677J0000000D01*
G01*
X0283380Y0471629D01*
G75*
G02*
X0282703Y0472306I0000000J0000677D01*
G01*
G37*
G36*
G01*
X0278884Y0468543D02*
X0278884Y0470094D01*
G75*
G02*
X0279561Y0470771I0000677J0000000D01*
G01*
X0280916Y0470771D01*
G75*
G02*
X0281593Y0470094I0000000J-000677D01*
G01*
X0281593Y0468543D01*
G75*
G02*
X0280916Y0467865I-000677J0000000D01*
G01*
X0279561Y0467865D01*
G75*
G02*
X0278884Y0468543I0000000J0000677D01*
G01*
G37*
G36*
G01*
X0282703Y0468543D02*
X0282703Y0470094D01*
G75*
G02*
X0283380Y0470771I0000677J0000000D01*
G01*
X0284735Y0470771D01*
G75*
G02*
X0285412Y0470094I0000000J-000677D01*
G01*
X0285412Y0468543D01*
G75*
G02*
X0284735Y0467865I-000677J0000000D01*
G01*
X0283380Y0467865D01*
G75*
G02*
X0282703Y0468543I0000000J0000677D01*
G01*
G37*
G36*
G01*
X0279372Y0466846D02*
X0280924Y0466846D01*
G75*
G02*
X0281601Y0466169I0000000J-000677D01*
G01*
X0281601Y0464814D01*
G75*
G02*
X0280924Y0464137I-000677J0000000D01*
G01*
X0279372Y0464137D01*
G75*
G02*
X0278695Y0464814I0000000J0000677D01*
G01*
X0278695Y0466169D01*
G75*
G02*
X0279372Y0466846I0000677J0000000D01*
G01*
G37*
G36*
G01*
X0279372Y0463027D02*
X0280924Y0463027D01*
G75*
G02*
X0281601Y0462350I0000000J-000677D01*
G01*
X0281601Y0460995D01*
G75*
G02*
X0280924Y0460318I-000677J0000000D01*
G01*
X0279372Y0460318D01*
G75*
G02*
X0278695Y0460995I0000000J0000677D01*
G01*
X0278695Y0462350D01*
G75*
G02*
X0279372Y0463027I0000677J0000000D01*
G01*
G37*
G36*
G01*
X0273624Y0485338D02*
X0276183Y0485338D01*
G75*
G02*
X0276376Y0485145I0000000J-000193D01*
G01*
X0276376Y0480342D01*
G75*
G02*
X0276183Y0480149I-000193J0000000D01*
G01*
X0273624Y0480149D01*
G75*
G02*
X0273431Y0480342I0000000J0000193D01*
G01*
X0273431Y0485145D01*
G75*
G02*
X0273624Y0485338I0000193J0000000D01*
G01*
G37*
G36*
G01*
X0269884Y0485338D02*
X0272443Y0485338D01*
G75*
G02*
X0272636Y0485145I0000000J-000193D01*
G01*
X0272636Y0480342D01*
G75*
G02*
X0272443Y0480149I-000193J0000000D01*
G01*
X0269884Y0480149D01*
G75*
G02*
X0269691Y0480342I0000000J0000193D01*
G01*
X0269691Y0485145D01*
G75*
G02*
X0269884Y0485338I0000193J0000000D01*
G01*
G37*
G36*
G01*
X0266144Y0485338D02*
X0268703Y0485338D01*
G75*
G02*
X0268896Y0485145I0000000J-000193D01*
G01*
X0268896Y0480342D01*
G75*
G02*
X0268703Y0480149I-000193J0000000D01*
G01*
X0266144Y0480149D01*
G75*
G02*
X0265951Y0480342I0000000J0000193D01*
G01*
X0265951Y0485145D01*
G75*
G02*
X0266144Y0485338I0000193J0000000D01*
G01*
G37*
G36*
G01*
X0266144Y0475023D02*
X0268703Y0475023D01*
G75*
G02*
X0268896Y0474830I0000000J-000193D01*
G01*
X0268896Y0470027D01*
G75*
G02*
X0268703Y0469834I-000193J0000000D01*
G01*
X0266144Y0469834D01*
G75*
G02*
X0265951Y0470027I0000000J0000193D01*
G01*
X0265951Y0474830D01*
G75*
G02*
X0266144Y0475023I0000193J0000000D01*
G01*
G37*
G36*
G01*
X0273624Y0475023D02*
X0276183Y0475023D01*
G75*
G02*
X0276376Y0474830I0000000J-000193D01*
G01*
X0276376Y0470027D01*
G75*
G02*
X0276183Y0469834I-000193J0000000D01*
G01*
X0273624Y0469834D01*
G75*
G02*
X0273431Y0470027I0000000J0000193D01*
G01*
X0273431Y0474830D01*
G75*
G02*
X0273624Y0475023I0000193J0000000D01*
G01*
G37*
G36*
G01*
X0278884Y0476306D02*
X0278884Y0477858D01*
G75*
G02*
X0279561Y0478535I0000677J0000000D01*
G01*
X0280916Y0478535D01*
G75*
G02*
X0281593Y0477858I0000000J-000677D01*
G01*
X0281593Y0476306D01*
G75*
G02*
X0280916Y0475629I-000677J0000000D01*
G01*
X0279561Y0475629D01*
G75*
G02*
X0278884Y0476306I0000000J0000677D01*
G01*
G37*
G36*
G01*
X0282703Y0476306D02*
X0282703Y0477858D01*
G75*
G02*
X0283380Y0478535I0000677J0000000D01*
G01*
X0284735Y0478535D01*
G75*
G02*
X0285412Y0477858I0000000J-000677D01*
G01*
X0285412Y0476306D01*
G75*
G02*
X0284735Y0475629I-000677J0000000D01*
G01*
X0283380Y0475629D01*
G75*
G02*
X0282703Y0476306I0000000J0000677D01*
G01*
G37*
G36*
G01*
X0271837Y0487440D02*
X0271837Y0488991D01*
G75*
G02*
X0272514Y0489669I0000677J0000000D01*
G01*
X0273868Y0489669D01*
G75*
G02*
X0274546Y0488991I0000000J-000677D01*
G01*
X0274546Y0487440D01*
G75*
G02*
X0273868Y0486763I-000677J0000000D01*
G01*
X0272514Y0486763D01*
G75*
G02*
X0271837Y0487440I0000000J0000677D01*
G01*
G37*
G36*
G01*
X0275656Y0487440D02*
X0275656Y0488991D01*
G75*
G02*
X0276333Y0489669I0000677J0000000D01*
G01*
X0277687Y0489669D01*
G75*
G02*
X0278365Y0488991I0000000J-000677D01*
G01*
X0278365Y0487440D01*
G75*
G02*
X0277687Y0486763I-000677J0000000D01*
G01*
X0276333Y0486763D01*
G75*
G02*
X0275656Y0487440I0000000J0000677D01*
G01*
G37*
G36*
G01*
X0294384Y0500806D02*
X0294384Y0502358D01*
G75*
G02*
X0295061Y0503035I0000677J0000000D01*
G01*
X0296416Y0503035D01*
G75*
G02*
X0297093Y0502358I0000000J-000677D01*
G01*
X0297093Y0500806D01*
G75*
G02*
X0296416Y0500129I-000677J0000000D01*
G01*
X0295061Y0500129D01*
G75*
G02*
X0294384Y0500806I0000000J0000677D01*
G01*
G37*
G36*
G01*
X0298203Y0500806D02*
X0298203Y0502358D01*
G75*
G02*
X0298880Y0503035I0000677J0000000D01*
G01*
X0300235Y0503035D01*
G75*
G02*
X0300912Y0502358I0000000J-000677D01*
G01*
X0300912Y0500806D01*
G75*
G02*
X0300235Y0500129I-000677J0000000D01*
G01*
X0298880Y0500129D01*
G75*
G02*
X0298203Y0500806I0000000J0000677D01*
G01*
G37*
G36*
G01*
X0281164Y0499187D02*
X0281164Y0496977D01*
G75*
G02*
X0280206Y0496019I-000958J0000000D01*
G01*
X0278291Y0496019D01*
G75*
G02*
X0277333Y0496977I0000000J0000958D01*
G01*
X0277333Y0499187D01*
G75*
G02*
X0278291Y0500145I0000958J0000000D01*
G01*
X0280206Y0500145D01*
G75*
G02*
X0281164Y0499187I0000000J-000958D01*
G01*
G37*
G36*
G01*
X0274963Y0499187D02*
X0274963Y0496977D01*
G75*
G02*
X0274005Y0496019I-000958J0000000D01*
G01*
X0272090Y0496019D01*
G75*
G02*
X0271132Y0496977I0000000J0000958D01*
G01*
X0271132Y0499187D01*
G75*
G02*
X0272090Y0500145I0000958J0000000D01*
G01*
X0274005Y0500145D01*
G75*
G02*
X0274963Y0499187I0000000J-000958D01*
G01*
G37*
G36*
G01*
X0306191Y0496310D02*
X0304640Y0496310D01*
G75*
G02*
X0303963Y0496988I0000000J0000677D01*
G01*
X0303963Y0498342D01*
G75*
G02*
X0304640Y0499019I0000677J0000000D01*
G01*
X0306191Y0499019D01*
G75*
G02*
X0306868Y0498342I0000000J-000677D01*
G01*
X0306868Y0496988D01*
G75*
G02*
X0306191Y0496310I-000677J0000000D01*
G01*
G37*
G36*
G01*
X0306191Y0500129D02*
X0304640Y0500129D01*
G75*
G02*
X0303963Y0500806I0000000J0000677D01*
G01*
X0303963Y0502161D01*
G75*
G02*
X0304640Y0502838I0000677J0000000D01*
G01*
X0306191Y0502838D01*
G75*
G02*
X0306868Y0502161I0000000J-000677D01*
G01*
X0306868Y0500806D01*
G75*
G02*
X0306191Y0500129I-000677J0000000D01*
G01*
G37*
G36*
G01*
X0308774Y0502838D02*
X0310325Y0502838D01*
G75*
G02*
X0311002Y0502161I0000000J-000677D01*
G01*
X0311002Y0500806D01*
G75*
G02*
X0310325Y0500129I-000677J0000000D01*
G01*
X0308774Y0500129D01*
G75*
G02*
X0308097Y0500806I0000000J0000677D01*
G01*
X0308097Y0502161D01*
G75*
G02*
X0308774Y0502838I0000677J0000000D01*
G01*
G37*
G36*
G01*
X0308774Y0499019D02*
X0310325Y0499019D01*
G75*
G02*
X0311002Y0498342I0000000J-000677D01*
G01*
X0311002Y0496988D01*
G75*
G02*
X0310325Y0496310I-000677J0000000D01*
G01*
X0308774Y0496310D01*
G75*
G02*
X0308097Y0496988I0000000J0000677D01*
G01*
X0308097Y0498342D01*
G75*
G02*
X0308774Y0499019I0000677J0000000D01*
G01*
G37*
G36*
G01*
X0313253Y0424066D02*
X0311043Y0424066D01*
G75*
G02*
X0310085Y0425024I0000000J0000958D01*
G01*
X0310085Y0426939D01*
G75*
G02*
X0311043Y0427897I0000958J0000000D01*
G01*
X0313253Y0427897D01*
G75*
G02*
X0314211Y0426939I0000000J-000958D01*
G01*
X0314211Y0425024D01*
G75*
G02*
X0313253Y0424066I-000958J0000000D01*
G01*
G37*
G36*
G01*
X0313253Y0430267D02*
X0311043Y0430267D01*
G75*
G02*
X0310085Y0431225I0000000J0000958D01*
G01*
X0310085Y0433140D01*
G75*
G02*
X0311043Y0434098I0000958J0000000D01*
G01*
X0313253Y0434098D01*
G75*
G02*
X0314211Y0433140I0000000J-000958D01*
G01*
X0314211Y0431225D01*
G75*
G02*
X0313253Y0430267I-000958J0000000D01*
G01*
G37*
G36*
G01*
X0317805Y0420838D02*
X0316254Y0420838D01*
G75*
G02*
X0315577Y0421515I0000000J0000677D01*
G01*
X0315577Y0422869D01*
G75*
G02*
X0316254Y0423547I0000677J0000000D01*
G01*
X0317805Y0423547D01*
G75*
G02*
X0318483Y0422869I0000000J-000677D01*
G01*
X0318483Y0421515D01*
G75*
G02*
X0317805Y0420838I-000677J0000000D01*
G01*
G37*
G36*
G01*
X0317805Y0424657D02*
X0316254Y0424657D01*
G75*
G02*
X0315577Y0425334I0000000J0000677D01*
G01*
X0315577Y0426688D01*
G75*
G02*
X0316254Y0427365I0000677J0000000D01*
G01*
X0317805Y0427365D01*
G75*
G02*
X0318483Y0426688I0000000J-000677D01*
G01*
X0318483Y0425334D01*
G75*
G02*
X0317805Y0424657I-000677J0000000D01*
G01*
G37*
G36*
G01*
X0275506Y0468448D02*
X0277057Y0468448D01*
G75*
G02*
X0277735Y0467771I0000000J-000677D01*
G01*
X0277735Y0466417D01*
G75*
G02*
X0277057Y0465739I-000677J0000000D01*
G01*
X0275506Y0465739D01*
G75*
G02*
X0274829Y0466417I0000000J0000677D01*
G01*
X0274829Y0467771D01*
G75*
G02*
X0275506Y0468448I0000677J0000000D01*
G01*
G37*
G36*
G01*
X0275506Y0464629D02*
X0277057Y0464629D01*
G75*
G02*
X0277735Y0463952I0000000J-000677D01*
G01*
X0277735Y0462598D01*
G75*
G02*
X0277057Y0461921I-000677J0000000D01*
G01*
X0275506Y0461921D01*
G75*
G02*
X0274829Y0462598I0000000J0000677D01*
G01*
X0274829Y0463952D01*
G75*
G02*
X0275506Y0464629I0000677J0000000D01*
G01*
G37*
G36*
G01*
X0299118Y0455043D02*
X0300296Y0455043D01*
G75*
G02*
X0300884Y0454454I0000000J-000589D01*
G01*
X0300884Y0449340D01*
G75*
G02*
X0300296Y0448751I-000589J0000000D01*
G01*
X0299118Y0448751D01*
G75*
G02*
X0298530Y0449340I0000000J0000589D01*
G01*
X0298530Y0454454D01*
G75*
G02*
X0299118Y0455043I0000589J0000000D01*
G01*
G37*
G36*
G01*
X0295969Y0455043D02*
X0297146Y0455043D01*
G75*
G02*
X0297735Y0454454I0000000J-000589D01*
G01*
X0297735Y0449340D01*
G75*
G02*
X0297146Y0448751I-000589J0000000D01*
G01*
X0295969Y0448751D01*
G75*
G02*
X0295380Y0449340I0000000J0000589D01*
G01*
X0295380Y0454454D01*
G75*
G02*
X0295969Y0455043I0000589J0000000D01*
G01*
G37*
G36*
G01*
X0292819Y0455043D02*
X0293996Y0455043D01*
G75*
G02*
X0294585Y0454454I0000000J-000589D01*
G01*
X0294585Y0449340D01*
G75*
G02*
X0293996Y0448751I-000589J0000000D01*
G01*
X0292819Y0448751D01*
G75*
G02*
X0292231Y0449340I0000000J0000589D01*
G01*
X0292231Y0454454D01*
G75*
G02*
X0292819Y0455043I0000589J0000000D01*
G01*
G37*
G36*
G01*
X0289670Y0455043D02*
X0290847Y0455043D01*
G75*
G02*
X0291435Y0454454I0000000J-000589D01*
G01*
X0291435Y0449340D01*
G75*
G02*
X0290847Y0448751I-000589J0000000D01*
G01*
X0289670Y0448751D01*
G75*
G02*
X0289081Y0449340I0000000J0000589D01*
G01*
X0289081Y0454454D01*
G75*
G02*
X0289670Y0455043I0000589J0000000D01*
G01*
G37*
G36*
G01*
X0286520Y0455043D02*
X0287697Y0455043D01*
G75*
G02*
X0288286Y0454454I0000000J-000589D01*
G01*
X0288286Y0449340D01*
G75*
G02*
X0287697Y0448751I-000589J0000000D01*
G01*
X0286520Y0448751D01*
G75*
G02*
X0285931Y0449340I0000000J0000589D01*
G01*
X0285931Y0454454D01*
G75*
G02*
X0286520Y0455043I0000589J0000000D01*
G01*
G37*
G36*
G01*
X0283370Y0455043D02*
X0284548Y0455043D01*
G75*
G02*
X0285136Y0454454I0000000J-000589D01*
G01*
X0285136Y0449340D01*
G75*
G02*
X0284548Y0448751I-000589J0000000D01*
G01*
X0283370Y0448751D01*
G75*
G02*
X0282782Y0449340I0000000J0000589D01*
G01*
X0282782Y0454454D01*
G75*
G02*
X0283370Y0455043I0000589J0000000D01*
G01*
G37*
G36*
G01*
X0280221Y0455043D02*
X0281398Y0455043D01*
G75*
G02*
X0281987Y0454454I0000000J-000589D01*
G01*
X0281987Y0449340D01*
G75*
G02*
X0281398Y0448751I-000589J0000000D01*
G01*
X0280221Y0448751D01*
G75*
G02*
X0279632Y0449340I0000000J0000589D01*
G01*
X0279632Y0454454D01*
G75*
G02*
X0280221Y0455043I0000589J0000000D01*
G01*
G37*
G36*
G01*
X0277071Y0455043D02*
X0278248Y0455043D01*
G75*
G02*
X0278837Y0454454I0000000J-000589D01*
G01*
X0278837Y0449340D01*
G75*
G02*
X0278248Y0448751I-000589J0000000D01*
G01*
X0277071Y0448751D01*
G75*
G02*
X0276483Y0449340I0000000J0000589D01*
G01*
X0276483Y0454454D01*
G75*
G02*
X0277071Y0455043I0000589J0000000D01*
G01*
G37*
G36*
G01*
X0269689Y0447661D02*
X0274804Y0447661D01*
G75*
G02*
X0275392Y0447072I0000000J-000589D01*
G01*
X0275392Y0445895D01*
G75*
G02*
X0274804Y0445306I-000589J0000000D01*
G01*
X0269689Y0445306D01*
G75*
G02*
X0269101Y0445895I0000000J0000589D01*
G01*
X0269101Y0447072D01*
G75*
G02*
X0269689Y0447661I0000589J0000000D01*
G01*
G37*
G36*
G01*
X0269689Y0444511D02*
X0274804Y0444511D01*
G75*
G02*
X0275392Y0443923I0000000J-000589D01*
G01*
X0275392Y0442745D01*
G75*
G02*
X0274804Y0442157I-000589J0000000D01*
G01*
X0269689Y0442157D01*
G75*
G02*
X0269101Y0442745I0000000J0000589D01*
G01*
X0269101Y0443923D01*
G75*
G02*
X0269689Y0444511I0000589J0000000D01*
G01*
G37*
G36*
G01*
X0269689Y0441362D02*
X0274804Y0441362D01*
G75*
G02*
X0275392Y0440773I0000000J-000589D01*
G01*
X0275392Y0439596D01*
G75*
G02*
X0274804Y0439007I-000589J0000000D01*
G01*
X0269689Y0439007D01*
G75*
G02*
X0269101Y0439596I0000000J0000589D01*
G01*
X0269101Y0440773D01*
G75*
G02*
X0269689Y0441362I0000589J0000000D01*
G01*
G37*
G36*
G01*
X0269689Y0438212D02*
X0274804Y0438212D01*
G75*
G02*
X0275392Y0437623I0000000J-000589D01*
G01*
X0275392Y0436446D01*
G75*
G02*
X0274804Y0435858I-000589J0000000D01*
G01*
X0269689Y0435858D01*
G75*
G02*
X0269101Y0436446I0000000J0000589D01*
G01*
X0269101Y0437623D01*
G75*
G02*
X0269689Y0438212I0000589J0000000D01*
G01*
G37*
G36*
G01*
X0269689Y0435062D02*
X0274804Y0435062D01*
G75*
G02*
X0275392Y0434474I0000000J-000589D01*
G01*
X0275392Y0433297D01*
G75*
G02*
X0274804Y0432708I-000589J0000000D01*
G01*
X0269689Y0432708D01*
G75*
G02*
X0269101Y0433297I0000000J0000589D01*
G01*
X0269101Y0434474D01*
G75*
G02*
X0269689Y0435062I0000589J0000000D01*
G01*
G37*
G36*
G01*
X0269689Y0431913D02*
X0274804Y0431913D01*
G75*
G02*
X0275392Y0431324I0000000J-000589D01*
G01*
X0275392Y0430147D01*
G75*
G02*
X0274804Y0429558I-000589J0000000D01*
G01*
X0269689Y0429558D01*
G75*
G02*
X0269101Y0430147I0000000J0000589D01*
G01*
X0269101Y0431324D01*
G75*
G02*
X0269689Y0431913I0000589J0000000D01*
G01*
G37*
G36*
G01*
X0269689Y0428763D02*
X0274804Y0428763D01*
G75*
G02*
X0275392Y0428175I0000000J-000589D01*
G01*
X0275392Y0426997D01*
G75*
G02*
X0274804Y0426409I-000589J0000000D01*
G01*
X0269689Y0426409D01*
G75*
G02*
X0269101Y0426997I0000000J0000589D01*
G01*
X0269101Y0428175D01*
G75*
G02*
X0269689Y0428763I0000589J0000000D01*
G01*
G37*
G36*
G01*
X0269689Y0425613D02*
X0274804Y0425613D01*
G75*
G02*
X0275392Y0425025I0000000J-000589D01*
G01*
X0275392Y0423848D01*
G75*
G02*
X0274804Y0423259I-000589J0000000D01*
G01*
X0269689Y0423259D01*
G75*
G02*
X0269101Y0423848I0000000J0000589D01*
G01*
X0269101Y0425025D01*
G75*
G02*
X0269689Y0425613I0000589J0000000D01*
G01*
G37*
G36*
G01*
X0277071Y0422169D02*
X0278248Y0422169D01*
G75*
G02*
X0278837Y0421580I0000000J-000589D01*
G01*
X0278837Y0416466D01*
G75*
G02*
X0278248Y0415877I-000589J0000000D01*
G01*
X0277071Y0415877D01*
G75*
G02*
X0276483Y0416466I0000000J0000589D01*
G01*
X0276483Y0421580D01*
G75*
G02*
X0277071Y0422169I0000589J0000000D01*
G01*
G37*
G36*
G01*
X0280221Y0422169D02*
X0281398Y0422169D01*
G75*
G02*
X0281987Y0421580I0000000J-000589D01*
G01*
X0281987Y0416466D01*
G75*
G02*
X0281398Y0415877I-000589J0000000D01*
G01*
X0280221Y0415877D01*
G75*
G02*
X0279632Y0416466I0000000J0000589D01*
G01*
X0279632Y0421580D01*
G75*
G02*
X0280221Y0422169I0000589J0000000D01*
G01*
G37*
G36*
G01*
X0283370Y0422169D02*
X0284548Y0422169D01*
G75*
G02*
X0285136Y0421580I0000000J-000589D01*
G01*
X0285136Y0416466D01*
G75*
G02*
X0284548Y0415877I-000589J0000000D01*
G01*
X0283370Y0415877D01*
G75*
G02*
X0282782Y0416466I0000000J0000589D01*
G01*
X0282782Y0421580D01*
G75*
G02*
X0283370Y0422169I0000589J0000000D01*
G01*
G37*
G36*
G01*
X0286520Y0422169D02*
X0287697Y0422169D01*
G75*
G02*
X0288286Y0421580I0000000J-000589D01*
G01*
X0288286Y0416466D01*
G75*
G02*
X0287697Y0415877I-000589J0000000D01*
G01*
X0286520Y0415877D01*
G75*
G02*
X0285931Y0416466I0000000J0000589D01*
G01*
X0285931Y0421580D01*
G75*
G02*
X0286520Y0422169I0000589J0000000D01*
G01*
G37*
G36*
G01*
X0289670Y0422169D02*
X0290847Y0422169D01*
G75*
G02*
X0291435Y0421580I0000000J-000589D01*
G01*
X0291435Y0416466D01*
G75*
G02*
X0290847Y0415877I-000589J0000000D01*
G01*
X0289670Y0415877D01*
G75*
G02*
X0289081Y0416466I0000000J0000589D01*
G01*
X0289081Y0421580D01*
G75*
G02*
X0289670Y0422169I0000589J0000000D01*
G01*
G37*
G36*
G01*
X0292819Y0422169D02*
X0293996Y0422169D01*
G75*
G02*
X0294585Y0421580I0000000J-000589D01*
G01*
X0294585Y0416466D01*
G75*
G02*
X0293996Y0415877I-000589J0000000D01*
G01*
X0292819Y0415877D01*
G75*
G02*
X0292231Y0416466I0000000J0000589D01*
G01*
X0292231Y0421580D01*
G75*
G02*
X0292819Y0422169I0000589J0000000D01*
G01*
G37*
G36*
G01*
X0295969Y0422169D02*
X0297146Y0422169D01*
G75*
G02*
X0297735Y0421580I0000000J-000589D01*
G01*
X0297735Y0416466D01*
G75*
G02*
X0297146Y0415877I-000589J0000000D01*
G01*
X0295969Y0415877D01*
G75*
G02*
X0295380Y0416466I0000000J0000589D01*
G01*
X0295380Y0421580D01*
G75*
G02*
X0295969Y0422169I0000589J0000000D01*
G01*
G37*
G36*
G01*
X0299118Y0422169D02*
X0300296Y0422169D01*
G75*
G02*
X0300884Y0421580I0000000J-000589D01*
G01*
X0300884Y0416466D01*
G75*
G02*
X0300296Y0415877I-000589J0000000D01*
G01*
X0299118Y0415877D01*
G75*
G02*
X0298530Y0416466I0000000J0000589D01*
G01*
X0298530Y0421580D01*
G75*
G02*
X0299118Y0422169I0000589J0000000D01*
G01*
G37*
G36*
G01*
X0302563Y0425613D02*
X0307678Y0425613D01*
G75*
G02*
X0308266Y0425025I0000000J-000589D01*
G01*
X0308266Y0423848D01*
G75*
G02*
X0307678Y0423259I-000589J0000000D01*
G01*
X0302563Y0423259D01*
G75*
G02*
X0301975Y0423848I0000000J0000589D01*
G01*
X0301975Y0425025D01*
G75*
G02*
X0302563Y0425613I0000589J0000000D01*
G01*
G37*
G36*
G01*
X0302563Y0428763D02*
X0307678Y0428763D01*
G75*
G02*
X0308266Y0428175I0000000J-000589D01*
G01*
X0308266Y0426997D01*
G75*
G02*
X0307678Y0426409I-000589J0000000D01*
G01*
X0302563Y0426409D01*
G75*
G02*
X0301975Y0426997I0000000J0000589D01*
G01*
X0301975Y0428175D01*
G75*
G02*
X0302563Y0428763I0000589J0000000D01*
G01*
G37*
G36*
G01*
X0302563Y0431913D02*
X0307678Y0431913D01*
G75*
G02*
X0308266Y0431324I0000000J-000589D01*
G01*
X0308266Y0430147D01*
G75*
G02*
X0307678Y0429558I-000589J0000000D01*
G01*
X0302563Y0429558D01*
G75*
G02*
X0301975Y0430147I0000000J0000589D01*
G01*
X0301975Y0431324D01*
G75*
G02*
X0302563Y0431913I0000589J0000000D01*
G01*
G37*
G36*
G01*
X0302563Y0435062D02*
X0307678Y0435062D01*
G75*
G02*
X0308266Y0434474I0000000J-000589D01*
G01*
X0308266Y0433297D01*
G75*
G02*
X0307678Y0432708I-000589J0000000D01*
G01*
X0302563Y0432708D01*
G75*
G02*
X0301975Y0433297I0000000J0000589D01*
G01*
X0301975Y0434474D01*
G75*
G02*
X0302563Y0435062I0000589J0000000D01*
G01*
G37*
G36*
G01*
X0302563Y0438212D02*
X0307678Y0438212D01*
G75*
G02*
X0308266Y0437623I0000000J-000589D01*
G01*
X0308266Y0436446D01*
G75*
G02*
X0307678Y0435858I-000589J0000000D01*
G01*
X0302563Y0435858D01*
G75*
G02*
X0301975Y0436446I0000000J0000589D01*
G01*
X0301975Y0437623D01*
G75*
G02*
X0302563Y0438212I0000589J0000000D01*
G01*
G37*
G36*
G01*
X0302563Y0441362D02*
X0307678Y0441362D01*
G75*
G02*
X0308266Y0440773I0000000J-000589D01*
G01*
X0308266Y0439596D01*
G75*
G02*
X0307678Y0439007I-000589J0000000D01*
G01*
X0302563Y0439007D01*
G75*
G02*
X0301975Y0439596I0000000J0000589D01*
G01*
X0301975Y0440773D01*
G75*
G02*
X0302563Y0441362I0000589J0000000D01*
G01*
G37*
G36*
G01*
X0302563Y0444511D02*
X0307678Y0444511D01*
G75*
G02*
X0308266Y0443923I0000000J-000589D01*
G01*
X0308266Y0442745D01*
G75*
G02*
X0307678Y0442157I-000589J0000000D01*
G01*
X0302563Y0442157D01*
G75*
G02*
X0301975Y0442745I0000000J0000589D01*
G01*
X0301975Y0443923D01*
G75*
G02*
X0302563Y0444511I0000589J0000000D01*
G01*
G37*
G36*
G01*
X0302563Y0447661D02*
X0307678Y0447661D01*
G75*
G02*
X0308266Y0447072I0000000J-000589D01*
G01*
X0308266Y0445895D01*
G75*
G02*
X0307678Y0445306I-000589J0000000D01*
G01*
X0302563Y0445306D01*
G75*
G02*
X0301975Y0445895I0000000J0000589D01*
G01*
X0301975Y0447072D01*
G75*
G02*
X0302563Y0447661I0000589J0000000D01*
G01*
G37*
G36*
G01*
X0274302Y0454440D02*
X0272750Y0454440D01*
G75*
G02*
X0272073Y0455117I0000000J0000677D01*
G01*
X0272073Y0456472D01*
G75*
G02*
X0272750Y0457149I0000677J0000000D01*
G01*
X0274302Y0457149D01*
G75*
G02*
X0274979Y0456472I0000000J-000677D01*
G01*
X0274979Y0455117D01*
G75*
G02*
X0274302Y0454440I-000677J0000000D01*
G01*
G37*
G36*
G01*
X0274302Y0458259D02*
X0272750Y0458259D01*
G75*
G02*
X0272073Y0458936I0000000J0000677D01*
G01*
X0272073Y0460291D01*
G75*
G02*
X0272750Y0460968I0000677J0000000D01*
G01*
X0274302Y0460968D01*
G75*
G02*
X0274979Y0460291I0000000J-000677D01*
G01*
X0274979Y0458936D01*
G75*
G02*
X0274302Y0458259I-000677J0000000D01*
G01*
G37*
G36*
G01*
X0271569Y0468448D02*
X0273120Y0468448D01*
G75*
G02*
X0273798Y0467771I0000000J-000677D01*
G01*
X0273798Y0466417D01*
G75*
G02*
X0273120Y0465739I-000677J0000000D01*
G01*
X0271569Y0465739D01*
G75*
G02*
X0270892Y0466417I0000000J0000677D01*
G01*
X0270892Y0467771D01*
G75*
G02*
X0271569Y0468448I0000677J0000000D01*
G01*
G37*
G36*
G01*
X0271569Y0464629D02*
X0273120Y0464629D01*
G75*
G02*
X0273798Y0463952I0000000J-000677D01*
G01*
X0273798Y0462598D01*
G75*
G02*
X0273120Y0461921I-000677J0000000D01*
G01*
X0271569Y0461921D01*
G75*
G02*
X0270892Y0462598I0000000J0000677D01*
G01*
X0270892Y0463952D01*
G75*
G02*
X0271569Y0464629I0000677J0000000D01*
G01*
G37*
G36*
G01*
X0296766Y0462936D02*
X0298317Y0462936D01*
G75*
G02*
X0298994Y0462259I0000000J-000677D01*
G01*
X0298994Y0460905D01*
G75*
G02*
X0298317Y0460228I-000677J0000000D01*
G01*
X0296766Y0460228D01*
G75*
G02*
X0296089Y0460905I0000000J0000677D01*
G01*
X0296089Y0462259D01*
G75*
G02*
X0296766Y0462936I0000677J0000000D01*
G01*
G37*
G36*
G01*
X0296766Y0459117D02*
X0298317Y0459117D01*
G75*
G02*
X0298994Y0458440I0000000J-000677D01*
G01*
X0298994Y0457086D01*
G75*
G02*
X0298317Y0456409I-000677J0000000D01*
G01*
X0296766Y0456409D01*
G75*
G02*
X0296089Y0457086I0000000J0000677D01*
G01*
X0296089Y0458440D01*
G75*
G02*
X0296766Y0459117I0000677J0000000D01*
G01*
G37*
G36*
G01*
X0278491Y0409852D02*
X0278491Y0411403D01*
G75*
G02*
X0279168Y0412080I0000677J0000000D01*
G01*
X0280522Y0412080D01*
G75*
G02*
X0281199Y0411403I0000000J-000677D01*
G01*
X0281199Y0409852D01*
G75*
G02*
X0280522Y0409175I-000677J0000000D01*
G01*
X0279168Y0409175D01*
G75*
G02*
X0278491Y0409852I0000000J0000677D01*
G01*
G37*
G36*
G01*
X0282310Y0409852D02*
X0282310Y0411403D01*
G75*
G02*
X0282987Y0412080I0000677J0000000D01*
G01*
X0284341Y0412080D01*
G75*
G02*
X0285018Y0411403I0000000J-000677D01*
G01*
X0285018Y0409852D01*
G75*
G02*
X0284341Y0409175I-000677J0000000D01*
G01*
X0282987Y0409175D01*
G75*
G02*
X0282310Y0409852I0000000J0000677D01*
G01*
G37*
G36*
G01*
X0304849Y0419133D02*
X0304849Y0420684D01*
G75*
G02*
X0305526Y0421362I0000677J0000000D01*
G01*
X0306880Y0421362D01*
G75*
G02*
X0307557Y0420684I0000000J-000677D01*
G01*
X0307557Y0419133D01*
G75*
G02*
X0306880Y0418456I-000677J0000000D01*
G01*
X0305526Y0418456D01*
G75*
G02*
X0304849Y0419133I0000000J0000677D01*
G01*
G37*
G36*
G01*
X0308668Y0419133D02*
X0308668Y0420684D01*
G75*
G02*
X0309345Y0421362I0000677J0000000D01*
G01*
X0310699Y0421362D01*
G75*
G02*
X0311376Y0420684I0000000J-000677D01*
G01*
X0311376Y0419133D01*
G75*
G02*
X0310699Y0418456I-000677J0000000D01*
G01*
X0309345Y0418456D01*
G75*
G02*
X0308668Y0419133I0000000J0000677D01*
G01*
G37*
G36*
G01*
X0282805Y0395295D02*
X0281254Y0395295D01*
G75*
G02*
X0280577Y0395972I0000000J0000677D01*
G01*
X0280577Y0397326D01*
G75*
G02*
X0281254Y0398003I0000677J0000000D01*
G01*
X0282805Y0398003D01*
G75*
G02*
X0283483Y0397326I0000000J-000677D01*
G01*
X0283483Y0395972D01*
G75*
G02*
X0282805Y0395295I-000677J0000000D01*
G01*
G37*
G36*
G01*
X0282805Y0399113D02*
X0281254Y0399113D01*
G75*
G02*
X0280577Y0399791I0000000J0000677D01*
G01*
X0280577Y0401145D01*
G75*
G02*
X0281254Y0401822I0000677J0000000D01*
G01*
X0282805Y0401822D01*
G75*
G02*
X0283483Y0401145I0000000J-000677D01*
G01*
X0283483Y0399791D01*
G75*
G02*
X0282805Y0399113I-000677J0000000D01*
G01*
G37*
G36*
G01*
X0278931Y0398393D02*
X0278931Y0395243D01*
G75*
G02*
X0278739Y0395051I-000193J0000000D01*
G01*
X0275195Y0395051D01*
G75*
G02*
X0275002Y0395243I0000000J0000193D01*
G01*
X0275002Y0398393D01*
G75*
G02*
X0275195Y0398586I0000193J0000000D01*
G01*
X0278739Y0398586D01*
G75*
G02*
X0278931Y0398393I0000000J-000193D01*
G01*
G37*
G36*
G01*
X0278931Y0405873D02*
X0278931Y0402724D01*
G75*
G02*
X0278739Y0402531I-000193J0000000D01*
G01*
X0275195Y0402531D01*
G75*
G02*
X0275002Y0402724I0000000J0000193D01*
G01*
X0275002Y0405873D01*
G75*
G02*
X0275195Y0406066I0000193J0000000D01*
G01*
X0278739Y0406066D01*
G75*
G02*
X0278931Y0405873I0000000J-000193D01*
G01*
G37*
G36*
G01*
X0271057Y0402133D02*
X0271057Y0398984D01*
G75*
G02*
X0270865Y0398791I-000193J0000000D01*
G01*
X0267321Y0398791D01*
G75*
G02*
X0267128Y0398984I0000000J0000193D01*
G01*
X0267128Y0402133D01*
G75*
G02*
X0267321Y0402326I0000193J0000000D01*
G01*
X0270865Y0402326D01*
G75*
G02*
X0271057Y0402133I0000000J-000193D01*
G01*
G37*
G36*
G01*
X0300912Y0498358D02*
X0300912Y0496806D01*
G75*
G02*
X0300235Y0496129I-000677J0000000D01*
G01*
X0298880Y0496129D01*
G75*
G02*
X0298203Y0496806I0000000J0000677D01*
G01*
X0298203Y0498358D01*
G75*
G02*
X0298880Y0499035I0000677J0000000D01*
G01*
X0300235Y0499035D01*
G75*
G02*
X0300912Y0498358I0000000J-000677D01*
G01*
G37*
G36*
G01*
X0297093Y0498358D02*
X0297093Y0496806D01*
G75*
G02*
X0296416Y0496129I-000677J0000000D01*
G01*
X0295061Y0496129D01*
G75*
G02*
X0294384Y0496806I0000000J0000677D01*
G01*
X0294384Y0498358D01*
G75*
G02*
X0295061Y0499035I0000677J0000000D01*
G01*
X0296416Y0499035D01*
G75*
G02*
X0297093Y0498358I0000000J-000677D01*
G01*
G37*
G36*
G01*
X0266857Y0409817D02*
X0266857Y0412028D01*
G75*
G02*
X0267815Y0412986I0000958J0000000D01*
G01*
X0269730Y0412986D01*
G75*
G02*
X0270688Y0412028I0000000J-000958D01*
G01*
X0270688Y0409817D01*
G75*
G02*
X0269730Y0408860I-000958J0000000D01*
G01*
X0267815Y0408860D01*
G75*
G02*
X0266857Y0409817I0000000J0000958D01*
G01*
G37*
G36*
G01*
X0273058Y0409817D02*
X0273058Y0412028D01*
G75*
G02*
X0274015Y0412986I0000958J0000000D01*
G01*
X0275931Y0412986D01*
G75*
G02*
X0276888Y0412028I0000000J-000958D01*
G01*
X0276888Y0409817D01*
G75*
G02*
X0275931Y0408860I-000958J0000000D01*
G01*
X0274015Y0408860D01*
G75*
G02*
X0273058Y0409817I0000000J0000958D01*
G01*
G37*
D196*
X0310534Y0394161D03*
X0314534Y0414161D03*
X0306534Y0414161D03*
D312*
X0313034Y0399161D03*
X0308034Y0399161D03*
X0313034Y0404161D03*
X0308034Y0404161D03*
X0313034Y0409161D03*
X0308034Y0409161D03*
G36*
X0303293Y0487726D02*
G01*
X0303323Y0487771D01*
X0303337Y0487843D01*
X0303337Y0493550D01*
X0303323Y0493621D01*
X0303293Y0493666D01*
X0303292Y0493674D01*
X0303299Y0493678D01*
X0303304Y0493677D01*
X0303330Y0493659D01*
X0303561Y0493594D01*
X0303761Y0493659D01*
X0303788Y0493677D01*
X0303795Y0493678D01*
X0303800Y0493671D01*
X0303798Y0493666D01*
X0303769Y0493621D01*
X0303754Y0493550D01*
X0303754Y0487843D01*
X0303769Y0487771D01*
X0303798Y0487726D01*
X0303799Y0487718D01*
X0303792Y0487714D01*
X0303788Y0487715D01*
X0303761Y0487733D01*
X0303530Y0487798D01*
X0303330Y0487733D01*
X0303304Y0487715D01*
X0303296Y0487715D01*
X0303291Y0487721D01*
X0303293Y0487726D01*
G37*
G36*
X0303293Y0464498D02*
G01*
X0303323Y0464543D01*
X0303337Y0464614D01*
X0303337Y0470321D01*
X0303323Y0470393D01*
X0303293Y0470438D01*
X0303292Y0470446D01*
X0303299Y0470450D01*
X0303304Y0470449D01*
X0303330Y0470431D01*
X0303561Y0470366D01*
X0303761Y0470431D01*
X0303788Y0470449D01*
X0303795Y0470449D01*
X0303800Y0470443D01*
X0303798Y0470438D01*
X0303769Y0470393D01*
X0303754Y0470321D01*
X0303754Y0464614D01*
X0303769Y0464543D01*
X0303798Y0464498D01*
X0303799Y0464490D01*
X0303792Y0464486D01*
X0303788Y0464487D01*
X0303761Y0464505D01*
X0303530Y0464570D01*
X0303330Y0464505D01*
X0303304Y0464487D01*
X0303296Y0464486D01*
X0303291Y0464493D01*
X0303293Y0464498D01*
G37*
G36*
X0300734Y0487726D02*
G01*
X0300764Y0487771D01*
X0300778Y0487843D01*
X0300778Y0493550D01*
X0300764Y0493621D01*
X0300734Y0493666D01*
X0300733Y0493674D01*
X0300740Y0493678D01*
X0300745Y0493677D01*
X0300771Y0493659D01*
X0301002Y0493594D01*
X0301202Y0493659D01*
X0301229Y0493677D01*
X0301236Y0493678D01*
X0301241Y0493671D01*
X0301239Y0493666D01*
X0301209Y0493621D01*
X0301195Y0493550D01*
X0301195Y0487843D01*
X0301209Y0487771D01*
X0301239Y0487726D01*
X0301240Y0487718D01*
X0301233Y0487714D01*
X0301229Y0487715D01*
X0301202Y0487733D01*
X0300971Y0487798D01*
X0300771Y0487733D01*
X0300745Y0487715D01*
X0300737Y0487715D01*
X0300732Y0487721D01*
X0300734Y0487726D01*
G37*
G36*
X0300734Y0464498D02*
G01*
X0300764Y0464543D01*
X0300778Y0464614D01*
X0300778Y0470321D01*
X0300764Y0470393D01*
X0300734Y0470438D01*
X0300733Y0470446D01*
X0300740Y0470450D01*
X0300745Y0470449D01*
X0300771Y0470431D01*
X0301002Y0470366D01*
X0301202Y0470431D01*
X0301229Y0470449D01*
X0301236Y0470449D01*
X0301241Y0470443D01*
X0301239Y0470438D01*
X0301209Y0470393D01*
X0301195Y0470321D01*
X0301195Y0464614D01*
X0301209Y0464543D01*
X0301239Y0464498D01*
X0301240Y0464490D01*
X0301233Y0464486D01*
X0301229Y0464487D01*
X0301202Y0464505D01*
X0300971Y0464570D01*
X0300771Y0464505D01*
X0300745Y0464487D01*
X0300737Y0464486D01*
X0300732Y0464493D01*
X0300734Y0464498D01*
G37*
G36*
X0298175Y0464498D02*
G01*
X0298205Y0464543D01*
X0298219Y0464614D01*
X0298219Y0470321D01*
X0298205Y0470393D01*
X0298175Y0470438D01*
X0298174Y0470446D01*
X0298181Y0470450D01*
X0298186Y0470449D01*
X0298212Y0470431D01*
X0298443Y0470366D01*
X0298643Y0470431D01*
X0298669Y0470449D01*
X0298677Y0470449D01*
X0298682Y0470443D01*
X0298680Y0470438D01*
X0298650Y0470393D01*
X0298636Y0470321D01*
X0298636Y0464614D01*
X0298650Y0464543D01*
X0298680Y0464498D01*
X0298681Y0464490D01*
X0298674Y0464486D01*
X0298669Y0464487D01*
X0298643Y0464505D01*
X0298412Y0464570D01*
X0298212Y0464505D01*
X0298186Y0464487D01*
X0298178Y0464486D01*
X0298173Y0464493D01*
X0298175Y0464498D01*
G37*
G36*
X0298175Y0487726D02*
G01*
X0298205Y0487771D01*
X0298219Y0487843D01*
X0298219Y0493550D01*
X0298205Y0493621D01*
X0298175Y0493666D01*
X0298174Y0493674D01*
X0298181Y0493678D01*
X0298186Y0493677D01*
X0298212Y0493659D01*
X0298443Y0493594D01*
X0298643Y0493659D01*
X0298669Y0493677D01*
X0298677Y0493678D01*
X0298682Y0493671D01*
X0298680Y0493666D01*
X0298650Y0493621D01*
X0298636Y0493550D01*
X0298636Y0487843D01*
X0298650Y0487771D01*
X0298680Y0487726D01*
X0298681Y0487718D01*
X0298674Y0487714D01*
X0298669Y0487715D01*
X0298643Y0487733D01*
X0298412Y0487798D01*
X0298212Y0487733D01*
X0298186Y0487715D01*
X0298178Y0487715D01*
X0298173Y0487721D01*
X0298175Y0487726D01*
G37*
G36*
X0295616Y0487726D02*
G01*
X0295646Y0487771D01*
X0295660Y0487843D01*
X0295660Y0493550D01*
X0295646Y0493621D01*
X0295616Y0493666D01*
X0295615Y0493674D01*
X0295622Y0493678D01*
X0295627Y0493677D01*
X0295653Y0493659D01*
X0295884Y0493594D01*
X0296084Y0493659D01*
X0296110Y0493677D01*
X0296118Y0493678D01*
X0296123Y0493671D01*
X0296121Y0493666D01*
X0296091Y0493621D01*
X0296077Y0493550D01*
X0296077Y0487843D01*
X0296091Y0487771D01*
X0296121Y0487726D01*
X0296122Y0487718D01*
X0296115Y0487714D01*
X0296110Y0487715D01*
X0296084Y0487733D01*
X0295853Y0487798D01*
X0295653Y0487733D01*
X0295627Y0487715D01*
X0295619Y0487715D01*
X0295614Y0487721D01*
X0295616Y0487726D01*
G37*
G36*
X0295616Y0464498D02*
G01*
X0295646Y0464543D01*
X0295660Y0464614D01*
X0295660Y0470321D01*
X0295646Y0470393D01*
X0295616Y0470438D01*
X0295615Y0470446D01*
X0295622Y0470450D01*
X0295627Y0470449D01*
X0295653Y0470431D01*
X0295884Y0470366D01*
X0296084Y0470431D01*
X0296110Y0470449D01*
X0296118Y0470449D01*
X0296123Y0470443D01*
X0296121Y0470438D01*
X0296091Y0470393D01*
X0296077Y0470321D01*
X0296077Y0464614D01*
X0296091Y0464543D01*
X0296121Y0464498D01*
X0296122Y0464490D01*
X0296115Y0464486D01*
X0296110Y0464487D01*
X0296084Y0464505D01*
X0295853Y0464570D01*
X0295653Y0464505D01*
X0295627Y0464487D01*
X0295619Y0464486D01*
X0295614Y0464493D01*
X0295616Y0464498D01*
G37*
G36*
X0293057Y0487726D02*
G01*
X0293087Y0487771D01*
X0293101Y0487843D01*
X0293101Y0493550D01*
X0293087Y0493621D01*
X0293057Y0493666D01*
X0293056Y0493674D01*
X0293063Y0493678D01*
X0293067Y0493677D01*
X0293094Y0493659D01*
X0293325Y0493594D01*
X0293525Y0493659D01*
X0293551Y0493677D01*
X0293559Y0493678D01*
X0293564Y0493671D01*
X0293562Y0493666D01*
X0293532Y0493621D01*
X0293518Y0493550D01*
X0293518Y0487843D01*
X0293532Y0487771D01*
X0293562Y0487726D01*
X0293563Y0487718D01*
X0293556Y0487714D01*
X0293551Y0487715D01*
X0293525Y0487733D01*
X0293294Y0487798D01*
X0293094Y0487733D01*
X0293067Y0487715D01*
X0293060Y0487715D01*
X0293055Y0487721D01*
X0293057Y0487726D01*
G37*
G36*
X0293057Y0464498D02*
G01*
X0293087Y0464543D01*
X0293101Y0464614D01*
X0293101Y0470321D01*
X0293087Y0470393D01*
X0293057Y0470438D01*
X0293056Y0470446D01*
X0293063Y0470450D01*
X0293067Y0470449D01*
X0293094Y0470431D01*
X0293325Y0470366D01*
X0293525Y0470431D01*
X0293551Y0470449D01*
X0293559Y0470449D01*
X0293564Y0470443D01*
X0293562Y0470438D01*
X0293532Y0470393D01*
X0293518Y0470321D01*
X0293518Y0464614D01*
X0293532Y0464543D01*
X0293562Y0464498D01*
X0293563Y0464490D01*
X0293556Y0464486D01*
X0293551Y0464487D01*
X0293525Y0464505D01*
X0293294Y0464570D01*
X0293094Y0464505D01*
X0293067Y0464487D01*
X0293060Y0464486D01*
X0293055Y0464493D01*
X0293057Y0464498D01*
G37*
G36*
X0290498Y0464498D02*
G01*
X0290527Y0464543D01*
X0290542Y0464614D01*
X0290542Y0470321D01*
X0290527Y0470393D01*
X0290498Y0470438D01*
X0290497Y0470446D01*
X0290504Y0470450D01*
X0290508Y0470449D01*
X0290535Y0470431D01*
X0290766Y0470366D01*
X0290966Y0470431D01*
X0290992Y0470449D01*
X0291000Y0470449D01*
X0291005Y0470443D01*
X0291003Y0470438D01*
X0290973Y0470393D01*
X0290959Y0470321D01*
X0290959Y0464614D01*
X0290973Y0464543D01*
X0291003Y0464498D01*
X0291004Y0464490D01*
X0290997Y0464486D01*
X0290992Y0464487D01*
X0290966Y0464505D01*
X0290735Y0464570D01*
X0290535Y0464505D01*
X0290508Y0464487D01*
X0290501Y0464486D01*
X0290496Y0464493D01*
X0290498Y0464498D01*
G37*
G36*
X0290498Y0487726D02*
G01*
X0290527Y0487771D01*
X0290542Y0487843D01*
X0290542Y0493550D01*
X0290527Y0493621D01*
X0290498Y0493666D01*
X0290497Y0493674D01*
X0290504Y0493678D01*
X0290508Y0493677D01*
X0290535Y0493659D01*
X0290766Y0493594D01*
X0290966Y0493659D01*
X0290992Y0493677D01*
X0291000Y0493678D01*
X0291005Y0493671D01*
X0291003Y0493666D01*
X0290973Y0493621D01*
X0290959Y0493550D01*
X0290959Y0487843D01*
X0290973Y0487771D01*
X0291003Y0487726D01*
X0291004Y0487718D01*
X0290997Y0487714D01*
X0290992Y0487715D01*
X0290966Y0487733D01*
X0290735Y0487798D01*
X0290535Y0487733D01*
X0290508Y0487715D01*
X0290501Y0487715D01*
X0290496Y0487721D01*
X0290498Y0487726D01*
G37*
M02*
