G75*
G70*
%OFA0B0*%
%FSLAX25Y25*%
%IPPOS*%
%LPD*%
%AMOC8*
5,1,8,0,0,1.08239X$1,22.5*
%
%ADD187C,0.00472*%
%ADD197C,0.00500*%
%ADD65C,0.00787*%
X0000000Y0000000D02*
%LPD*%
G01*
D197*
X0522814Y0566807D02*
X0522814Y0565569D01*
X0523576Y0566236D01*
X0523576Y0565950D01*
X0523671Y0565760D01*
X0523767Y0565664D01*
X0523957Y0565569D01*
X0524433Y0565569D01*
X0524624Y0565664D01*
X0524719Y0565760D01*
X0524814Y0565950D01*
X0524814Y0566522D01*
X0524719Y0566712D01*
X0524624Y0566807D01*
X0523862Y0564331D02*
X0524814Y0564331D01*
X0522814Y0564998D02*
X0523862Y0564331D01*
X0522814Y0563664D01*
X0316005Y0584117D02*
X0315909Y0584022D01*
X0315814Y0583831D01*
X0315814Y0583355D01*
X0315909Y0583164D01*
X0316005Y0583069D01*
X0316195Y0582974D01*
X0316386Y0582974D01*
X0316671Y0583069D01*
X0317814Y0584212D01*
X0317814Y0582974D01*
X0315814Y0581545D02*
X0317243Y0581545D01*
X0317528Y0581641D01*
X0317719Y0581831D01*
X0317814Y0582117D01*
X0317814Y0582307D01*
X0175314Y0582474D02*
X0175314Y0583617D01*
X0175314Y0583045D02*
X0173314Y0583045D01*
X0173600Y0583236D01*
X0173790Y0583426D01*
X0173886Y0583617D01*
X0173314Y0581045D02*
X0174743Y0581045D01*
X0175028Y0581141D01*
X0175219Y0581331D01*
X0175314Y0581617D01*
X0175314Y0581807D01*
X0424314Y0584212D02*
X0424314Y0582974D01*
X0425076Y0583641D01*
X0425076Y0583355D01*
X0425171Y0583164D01*
X0425267Y0583069D01*
X0425457Y0582974D01*
X0425933Y0582974D01*
X0426124Y0583069D01*
X0426219Y0583164D01*
X0426314Y0583355D01*
X0426314Y0583926D01*
X0426219Y0584117D01*
X0426124Y0584212D01*
X0424314Y0581545D02*
X0425743Y0581545D01*
X0426028Y0581641D01*
X0426219Y0581831D01*
X0426314Y0582117D01*
X0426314Y0582307D01*
X0280505Y0584355D02*
X0280409Y0584260D01*
X0280314Y0584069D01*
X0280314Y0583593D01*
X0280409Y0583403D01*
X0280505Y0583307D01*
X0280695Y0583212D01*
X0280886Y0583212D01*
X0281171Y0583307D01*
X0282314Y0584450D01*
X0282314Y0583212D01*
X0282314Y0582355D02*
X0280314Y0582355D01*
X0280314Y0581879D01*
X0280409Y0581593D01*
X0280600Y0581403D01*
X0280790Y0581307D01*
X0281171Y0581212D01*
X0281457Y0581212D01*
X0281838Y0581307D01*
X0282028Y0581403D01*
X0282219Y0581593D01*
X0282314Y0581879D01*
X0282314Y0582355D01*
X0211314Y0565260D02*
X0211314Y0566403D01*
X0211314Y0565831D02*
X0209314Y0565831D01*
X0209600Y0566022D01*
X0209790Y0566212D01*
X0209886Y0566403D01*
X0209314Y0564022D02*
X0209314Y0563641D01*
X0209409Y0563450D01*
X0209600Y0563260D01*
X0209981Y0563164D01*
X0210648Y0563164D01*
X0211028Y0563260D01*
X0211219Y0563450D01*
X0211314Y0563641D01*
X0211314Y0564022D01*
X0211219Y0564212D01*
X0211028Y0564403D01*
X0210648Y0564498D01*
X0209981Y0564498D01*
X0209600Y0564403D01*
X0209409Y0564212D01*
X0209314Y0564022D01*
X0328005Y0566355D02*
X0327909Y0566260D01*
X0327814Y0566069D01*
X0327814Y0565593D01*
X0327909Y0565403D01*
X0328005Y0565307D01*
X0328195Y0565212D01*
X0328386Y0565212D01*
X0328671Y0565307D01*
X0329814Y0566450D01*
X0329814Y0565212D01*
X0329814Y0564355D02*
X0327814Y0564355D01*
X0329814Y0563212D02*
X0328671Y0564069D01*
X0327814Y0563212D02*
X0328957Y0564355D01*
X0435806Y0584370D02*
X0435806Y0583132D01*
X0436568Y0583798D01*
X0436568Y0583513D01*
X0436663Y0583322D01*
X0436759Y0583227D01*
X0436949Y0583132D01*
X0437425Y0583132D01*
X0437616Y0583227D01*
X0437711Y0583322D01*
X0437806Y0583513D01*
X0437806Y0584084D01*
X0437711Y0584275D01*
X0437616Y0584370D01*
X0437806Y0581322D02*
X0437806Y0582275D01*
X0435806Y0582275D01*
X0247314Y0565260D02*
X0247314Y0566403D01*
X0247314Y0565831D02*
X0245314Y0565831D01*
X0245600Y0566022D01*
X0245790Y0566212D01*
X0245886Y0566403D01*
X0245314Y0564403D02*
X0246933Y0564403D01*
X0247124Y0564307D01*
X0247219Y0564212D01*
X0247314Y0564022D01*
X0247314Y0563641D01*
X0247219Y0563450D01*
X0247124Y0563355D01*
X0246933Y0563260D01*
X0245314Y0563260D01*
X0483314Y0583929D02*
X0483314Y0582690D01*
X0484076Y0583357D01*
X0484076Y0583071D01*
X0484171Y0582881D01*
X0484267Y0582786D01*
X0484457Y0582690D01*
X0484933Y0582690D01*
X0485124Y0582786D01*
X0485219Y0582881D01*
X0485314Y0583071D01*
X0485314Y0583643D01*
X0485219Y0583833D01*
X0485124Y0583929D01*
X0483314Y0582119D02*
X0483314Y0580976D01*
X0485314Y0581548D02*
X0483314Y0581548D01*
X0187314Y0582522D02*
X0187314Y0583664D01*
X0187314Y0583093D02*
X0185314Y0583093D01*
X0185600Y0583283D01*
X0185790Y0583474D01*
X0185886Y0583664D01*
X0187314Y0580712D02*
X0187314Y0581664D01*
X0185314Y0581664D01*
X0292005Y0566260D02*
X0291909Y0566164D01*
X0291814Y0565974D01*
X0291814Y0565498D01*
X0291909Y0565307D01*
X0292005Y0565212D01*
X0292195Y0565117D01*
X0292386Y0565117D01*
X0292671Y0565212D01*
X0293814Y0566355D01*
X0293814Y0565117D01*
X0292767Y0564260D02*
X0292767Y0563593D01*
X0293814Y0563307D02*
X0293814Y0564260D01*
X0291814Y0564260D01*
X0291814Y0563307D01*
X0316005Y0565831D02*
X0315909Y0565736D01*
X0315814Y0565545D01*
X0315814Y0565069D01*
X0315909Y0564879D01*
X0316005Y0564783D01*
X0316195Y0564688D01*
X0316386Y0564688D01*
X0316671Y0564783D01*
X0317814Y0565926D01*
X0317814Y0564688D01*
X0317814Y0563831D02*
X0315814Y0563831D01*
X0292005Y0584212D02*
X0291909Y0584117D01*
X0291814Y0583926D01*
X0291814Y0583450D01*
X0291909Y0583260D01*
X0292005Y0583164D01*
X0292195Y0583069D01*
X0292386Y0583069D01*
X0292671Y0583164D01*
X0293814Y0584307D01*
X0293814Y0583069D01*
X0292767Y0581545D02*
X0292767Y0582212D01*
X0293814Y0582212D02*
X0291814Y0582212D01*
X0291814Y0581260D01*
X0374814Y0584450D02*
X0374814Y0583212D01*
X0375576Y0583879D01*
X0375576Y0583593D01*
X0375671Y0583403D01*
X0375767Y0583307D01*
X0375957Y0583212D01*
X0376433Y0583212D01*
X0376624Y0583307D01*
X0376719Y0583403D01*
X0376814Y0583593D01*
X0376814Y0584164D01*
X0376719Y0584355D01*
X0376624Y0584450D01*
X0375767Y0581688D02*
X0375862Y0581403D01*
X0375957Y0581307D01*
X0376148Y0581212D01*
X0376433Y0581212D01*
X0376624Y0581307D01*
X0376719Y0581403D01*
X0376814Y0581593D01*
X0376814Y0582355D01*
X0374814Y0582355D01*
X0374814Y0581688D01*
X0374909Y0581498D01*
X0375005Y0581403D01*
X0375195Y0581307D01*
X0375386Y0581307D01*
X0375576Y0581403D01*
X0375671Y0581498D01*
X0375767Y0581688D01*
X0375767Y0582355D01*
X0459814Y0584450D02*
X0459814Y0583212D01*
X0460576Y0583879D01*
X0460576Y0583593D01*
X0460671Y0583403D01*
X0460767Y0583307D01*
X0460957Y0583212D01*
X0461433Y0583212D01*
X0461624Y0583307D01*
X0461719Y0583403D01*
X0461814Y0583593D01*
X0461814Y0584164D01*
X0461719Y0584355D01*
X0461624Y0584450D01*
X0461814Y0582355D02*
X0459814Y0582355D01*
X0459814Y0581593D01*
X0459909Y0581403D01*
X0460005Y0581307D01*
X0460195Y0581212D01*
X0460481Y0581212D01*
X0460671Y0581307D01*
X0460767Y0581403D01*
X0460862Y0581593D01*
X0460862Y0582355D01*
X0388314Y0584450D02*
X0388314Y0583212D01*
X0389076Y0583879D01*
X0389076Y0583593D01*
X0389171Y0583403D01*
X0389267Y0583307D01*
X0389457Y0583212D01*
X0389933Y0583212D01*
X0390124Y0583307D01*
X0390219Y0583403D01*
X0390314Y0583593D01*
X0390314Y0584164D01*
X0390219Y0584355D01*
X0390124Y0584450D01*
X0390314Y0582355D02*
X0388314Y0582355D01*
X0388314Y0581879D01*
X0388409Y0581593D01*
X0388600Y0581403D01*
X0388790Y0581307D01*
X0389171Y0581212D01*
X0389457Y0581212D01*
X0389838Y0581307D01*
X0390028Y0581403D01*
X0390219Y0581593D01*
X0390314Y0581879D01*
X0390314Y0582355D01*
X0482814Y0566403D02*
X0482814Y0565164D01*
X0483576Y0565831D01*
X0483576Y0565545D01*
X0483671Y0565355D01*
X0483767Y0565260D01*
X0483957Y0565164D01*
X0484433Y0565164D01*
X0484624Y0565260D01*
X0484719Y0565355D01*
X0484814Y0565545D01*
X0484814Y0566117D01*
X0484719Y0566307D01*
X0484624Y0566403D01*
X0484719Y0564403D02*
X0484814Y0564117D01*
X0484814Y0563641D01*
X0484719Y0563450D01*
X0484624Y0563355D01*
X0484433Y0563260D01*
X0484243Y0563260D01*
X0484052Y0563355D01*
X0483957Y0563450D01*
X0483862Y0563641D01*
X0483767Y0564022D01*
X0483671Y0564212D01*
X0483576Y0564307D01*
X0483386Y0564403D01*
X0483195Y0564403D01*
X0483005Y0564307D01*
X0482909Y0564212D01*
X0482814Y0564022D01*
X0482814Y0563545D01*
X0482909Y0563260D01*
X0447814Y0566199D02*
X0447814Y0564961D01*
X0448576Y0565628D01*
X0448576Y0565342D01*
X0448671Y0565152D01*
X0448767Y0565056D01*
X0448957Y0564961D01*
X0449433Y0564961D01*
X0449624Y0565056D01*
X0449719Y0565152D01*
X0449814Y0565342D01*
X0449814Y0565914D01*
X0449719Y0566104D01*
X0449624Y0566199D01*
X0449814Y0564104D02*
X0447814Y0564104D01*
X0449243Y0563437D01*
X0447814Y0562771D01*
X0449814Y0562771D01*
X0400814Y0584307D02*
X0400814Y0583069D01*
X0401576Y0583736D01*
X0401576Y0583450D01*
X0401671Y0583260D01*
X0401767Y0583164D01*
X0401957Y0583069D01*
X0402433Y0583069D01*
X0402624Y0583164D01*
X0402719Y0583260D01*
X0402814Y0583450D01*
X0402814Y0584022D01*
X0402719Y0584212D01*
X0402624Y0584307D01*
X0401767Y0581545D02*
X0401767Y0582212D01*
X0402814Y0582212D02*
X0400814Y0582212D01*
X0400814Y0581260D01*
X0223314Y0582712D02*
X0223314Y0583855D01*
X0223314Y0583283D02*
X0221314Y0583283D01*
X0221600Y0583474D01*
X0221790Y0583664D01*
X0221886Y0583855D01*
X0223314Y0580712D02*
X0222362Y0581379D01*
X0223314Y0581855D02*
X0221314Y0581855D01*
X0221314Y0581093D01*
X0221409Y0580903D01*
X0221505Y0580807D01*
X0221695Y0580712D01*
X0221981Y0580712D01*
X0222171Y0580807D01*
X0222267Y0580903D01*
X0222362Y0581093D01*
X0222362Y0581855D01*
X0388814Y0566450D02*
X0388814Y0565212D01*
X0389576Y0565879D01*
X0389576Y0565593D01*
X0389671Y0565403D01*
X0389767Y0565307D01*
X0389957Y0565212D01*
X0390433Y0565212D01*
X0390624Y0565307D01*
X0390719Y0565403D01*
X0390814Y0565593D01*
X0390814Y0566164D01*
X0390719Y0566355D01*
X0390624Y0566450D01*
X0390624Y0563212D02*
X0390719Y0563307D01*
X0390814Y0563593D01*
X0390814Y0563783D01*
X0390719Y0564069D01*
X0390528Y0564260D01*
X0390338Y0564355D01*
X0389957Y0564450D01*
X0389671Y0564450D01*
X0389290Y0564355D01*
X0389100Y0564260D01*
X0388909Y0564069D01*
X0388814Y0563783D01*
X0388814Y0563593D01*
X0388909Y0563307D01*
X0389005Y0563212D01*
X0304005Y0584403D02*
X0303909Y0584307D01*
X0303814Y0584117D01*
X0303814Y0583641D01*
X0303909Y0583450D01*
X0304005Y0583355D01*
X0304195Y0583260D01*
X0304386Y0583260D01*
X0304671Y0583355D01*
X0305814Y0584498D01*
X0305814Y0583260D01*
X0305814Y0582403D02*
X0303814Y0582403D01*
X0304767Y0582403D02*
X0304767Y0581260D01*
X0305814Y0581260D02*
X0303814Y0581260D01*
X0280091Y0566355D02*
X0279996Y0566260D01*
X0279901Y0566069D01*
X0279901Y0565593D01*
X0279996Y0565403D01*
X0280091Y0565307D01*
X0280282Y0565212D01*
X0280472Y0565212D01*
X0280758Y0565307D01*
X0281901Y0566450D01*
X0281901Y0565212D01*
X0281710Y0563212D02*
X0281806Y0563307D01*
X0281901Y0563593D01*
X0281901Y0563783D01*
X0281806Y0564069D01*
X0281615Y0564260D01*
X0281425Y0564355D01*
X0281044Y0564450D01*
X0280758Y0564450D01*
X0280377Y0564355D01*
X0280187Y0564260D01*
X0279996Y0564069D01*
X0279901Y0563783D01*
X0279901Y0563593D01*
X0279996Y0563307D01*
X0280091Y0563212D01*
X0374814Y0566307D02*
X0374814Y0565069D01*
X0375576Y0565736D01*
X0375576Y0565450D01*
X0375671Y0565260D01*
X0375767Y0565164D01*
X0375957Y0565069D01*
X0376433Y0565069D01*
X0376624Y0565164D01*
X0376719Y0565260D01*
X0376814Y0565450D01*
X0376814Y0566022D01*
X0376719Y0566212D01*
X0376624Y0566307D01*
X0376243Y0564307D02*
X0376243Y0563355D01*
X0376814Y0564498D02*
X0374814Y0563831D01*
X0376814Y0563164D01*
X0509314Y0566593D02*
X0509314Y0565355D01*
X0510076Y0566022D01*
X0510076Y0565736D01*
X0510171Y0565545D01*
X0510267Y0565450D01*
X0510457Y0565355D01*
X0510933Y0565355D01*
X0511124Y0565450D01*
X0511219Y0565545D01*
X0511314Y0565736D01*
X0511314Y0566307D01*
X0511219Y0566498D01*
X0511124Y0566593D01*
X0509314Y0564688D02*
X0511314Y0564212D01*
X0509886Y0563831D01*
X0511314Y0563450D01*
X0509314Y0562974D01*
X0139314Y0565212D02*
X0139314Y0566355D01*
X0139314Y0565783D02*
X0137314Y0565783D01*
X0137600Y0565974D01*
X0137790Y0566164D01*
X0137886Y0566355D01*
X0139124Y0563212D02*
X0139219Y0563307D01*
X0139314Y0563593D01*
X0139314Y0563783D01*
X0139219Y0564069D01*
X0139028Y0564260D01*
X0138838Y0564355D01*
X0138457Y0564450D01*
X0138171Y0564450D01*
X0137790Y0564355D01*
X0137600Y0564260D01*
X0137409Y0564069D01*
X0137314Y0563783D01*
X0137314Y0563593D01*
X0137409Y0563307D01*
X0137505Y0563212D01*
X0447617Y0584214D02*
X0447617Y0582976D01*
X0448379Y0583643D01*
X0448379Y0583357D01*
X0448475Y0583167D01*
X0448570Y0583071D01*
X0448760Y0582976D01*
X0449236Y0582976D01*
X0449427Y0583071D01*
X0449522Y0583167D01*
X0449617Y0583357D01*
X0449617Y0583929D01*
X0449522Y0584119D01*
X0449427Y0584214D01*
X0449617Y0582119D02*
X0447617Y0582119D01*
X0449617Y0580976D01*
X0447617Y0580976D01*
X0234814Y0565164D02*
X0234814Y0566307D01*
X0234814Y0565736D02*
X0232814Y0565736D01*
X0233100Y0565926D01*
X0233290Y0566117D01*
X0233386Y0566307D01*
X0234719Y0564403D02*
X0234814Y0564117D01*
X0234814Y0563641D01*
X0234719Y0563450D01*
X0234624Y0563355D01*
X0234433Y0563260D01*
X0234243Y0563260D01*
X0234052Y0563355D01*
X0233957Y0563450D01*
X0233862Y0563641D01*
X0233767Y0564022D01*
X0233671Y0564212D01*
X0233576Y0564307D01*
X0233386Y0564403D01*
X0233195Y0564403D01*
X0233005Y0564307D01*
X0232909Y0564212D01*
X0232814Y0564022D01*
X0232814Y0563545D01*
X0232909Y0563260D01*
X0339505Y0566498D02*
X0339409Y0566403D01*
X0339314Y0566212D01*
X0339314Y0565736D01*
X0339409Y0565545D01*
X0339505Y0565450D01*
X0339695Y0565355D01*
X0339886Y0565355D01*
X0340171Y0565450D01*
X0341314Y0566593D01*
X0341314Y0565355D01*
X0341314Y0564498D02*
X0339314Y0564498D01*
X0340743Y0563831D01*
X0339314Y0563164D01*
X0341314Y0563164D01*
X0522814Y0584403D02*
X0522814Y0583164D01*
X0523576Y0583831D01*
X0523576Y0583545D01*
X0523671Y0583355D01*
X0523767Y0583260D01*
X0523957Y0583164D01*
X0524433Y0583164D01*
X0524624Y0583260D01*
X0524719Y0583355D01*
X0524814Y0583545D01*
X0524814Y0584117D01*
X0524719Y0584307D01*
X0524624Y0584403D01*
X0522814Y0582498D02*
X0522814Y0581164D01*
X0524814Y0582498D01*
X0524814Y0581164D01*
X0304005Y0566355D02*
X0303909Y0566260D01*
X0303814Y0566069D01*
X0303814Y0565593D01*
X0303909Y0565403D01*
X0304005Y0565307D01*
X0304195Y0565212D01*
X0304386Y0565212D01*
X0304671Y0565307D01*
X0305814Y0566450D01*
X0305814Y0565212D01*
X0303909Y0563307D02*
X0303814Y0563498D01*
X0303814Y0563783D01*
X0303909Y0564069D01*
X0304100Y0564260D01*
X0304290Y0564355D01*
X0304671Y0564450D01*
X0304957Y0564450D01*
X0305338Y0564355D01*
X0305528Y0564260D01*
X0305719Y0564069D01*
X0305814Y0563783D01*
X0305814Y0563593D01*
X0305719Y0563307D01*
X0305624Y0563212D01*
X0304957Y0563212D01*
X0304957Y0563593D01*
X0199314Y0582760D02*
X0199314Y0583903D01*
X0199314Y0583331D02*
X0197314Y0583331D01*
X0197600Y0583522D01*
X0197790Y0583712D01*
X0197886Y0583903D01*
X0199314Y0581903D02*
X0197314Y0581903D01*
X0199314Y0580760D01*
X0197314Y0580760D01*
X0436314Y0566450D02*
X0436314Y0565212D01*
X0437076Y0565879D01*
X0437076Y0565593D01*
X0437171Y0565403D01*
X0437267Y0565307D01*
X0437457Y0565212D01*
X0437933Y0565212D01*
X0438124Y0565307D01*
X0438219Y0565403D01*
X0438314Y0565593D01*
X0438314Y0566164D01*
X0438219Y0566355D01*
X0438124Y0566450D01*
X0438314Y0564355D02*
X0436314Y0564355D01*
X0438314Y0563212D02*
X0437171Y0564069D01*
X0436314Y0563212D02*
X0437457Y0564355D01*
X0509314Y0584403D02*
X0509314Y0583164D01*
X0510076Y0583831D01*
X0510076Y0583545D01*
X0510171Y0583355D01*
X0510267Y0583260D01*
X0510457Y0583164D01*
X0510933Y0583164D01*
X0511124Y0583260D01*
X0511219Y0583355D01*
X0511314Y0583545D01*
X0511314Y0584117D01*
X0511219Y0584307D01*
X0511124Y0584403D01*
X0509314Y0582498D02*
X0511314Y0581164D01*
X0509314Y0581164D02*
X0511314Y0582498D01*
X0351505Y0566403D02*
X0351409Y0566307D01*
X0351314Y0566117D01*
X0351314Y0565641D01*
X0351409Y0565450D01*
X0351505Y0565355D01*
X0351695Y0565260D01*
X0351886Y0565260D01*
X0352171Y0565355D01*
X0353314Y0566498D01*
X0353314Y0565260D01*
X0351314Y0564022D02*
X0351314Y0563641D01*
X0351409Y0563450D01*
X0351600Y0563260D01*
X0351981Y0563164D01*
X0352648Y0563164D01*
X0353028Y0563260D01*
X0353219Y0563450D01*
X0353314Y0563641D01*
X0353314Y0564022D01*
X0353219Y0564212D01*
X0353028Y0564403D01*
X0352648Y0564498D01*
X0351981Y0564498D01*
X0351600Y0564403D01*
X0351409Y0564212D01*
X0351314Y0564022D01*
X0268280Y0566212D02*
X0268185Y0566117D01*
X0268090Y0565926D01*
X0268090Y0565450D01*
X0268185Y0565260D01*
X0268280Y0565164D01*
X0268471Y0565069D01*
X0268661Y0565069D01*
X0268947Y0565164D01*
X0270090Y0566307D01*
X0270090Y0565069D01*
X0269518Y0564307D02*
X0269518Y0563355D01*
X0270090Y0564498D02*
X0268090Y0563831D01*
X0270090Y0563164D01*
X0199314Y0565355D02*
X0199314Y0566498D01*
X0199314Y0565926D02*
X0197314Y0565926D01*
X0197600Y0566117D01*
X0197790Y0566307D01*
X0197886Y0566498D01*
X0199314Y0564498D02*
X0197314Y0564498D01*
X0198743Y0563831D01*
X0197314Y0563164D01*
X0199314Y0563164D01*
X0151814Y0582569D02*
X0151814Y0583712D01*
X0151814Y0583141D02*
X0149814Y0583141D01*
X0150100Y0583331D01*
X0150290Y0583522D01*
X0150386Y0583712D01*
X0150767Y0581045D02*
X0150767Y0581712D01*
X0151814Y0581712D02*
X0149814Y0581712D01*
X0149814Y0580760D01*
X0151814Y0565117D02*
X0151814Y0566260D01*
X0151814Y0565688D02*
X0149814Y0565688D01*
X0150100Y0565879D01*
X0150290Y0566069D01*
X0150386Y0566260D01*
X0150767Y0564260D02*
X0150767Y0563593D01*
X0151814Y0563307D02*
X0151814Y0564260D01*
X0149814Y0564260D01*
X0149814Y0563307D01*
X0412314Y0566450D02*
X0412314Y0565212D01*
X0413076Y0565879D01*
X0413076Y0565593D01*
X0413171Y0565403D01*
X0413267Y0565307D01*
X0413457Y0565212D01*
X0413933Y0565212D01*
X0414124Y0565307D01*
X0414219Y0565403D01*
X0414314Y0565593D01*
X0414314Y0566164D01*
X0414219Y0566355D01*
X0414124Y0566450D01*
X0412409Y0563307D02*
X0412314Y0563498D01*
X0412314Y0563783D01*
X0412409Y0564069D01*
X0412600Y0564260D01*
X0412790Y0564355D01*
X0413171Y0564450D01*
X0413457Y0564450D01*
X0413838Y0564355D01*
X0414028Y0564260D01*
X0414219Y0564069D01*
X0414314Y0563783D01*
X0414314Y0563593D01*
X0414219Y0563307D01*
X0414124Y0563212D01*
X0413457Y0563212D01*
X0413457Y0563593D01*
X0412314Y0584498D02*
X0412314Y0583260D01*
X0413076Y0583926D01*
X0413076Y0583641D01*
X0413171Y0583450D01*
X0413267Y0583355D01*
X0413457Y0583260D01*
X0413933Y0583260D01*
X0414124Y0583355D01*
X0414219Y0583450D01*
X0414314Y0583641D01*
X0414314Y0584212D01*
X0414219Y0584403D01*
X0414124Y0584498D01*
X0414314Y0582403D02*
X0412314Y0582403D01*
X0413267Y0582403D02*
X0413267Y0581260D01*
X0414314Y0581260D02*
X0412314Y0581260D01*
X0424314Y0565926D02*
X0424314Y0564688D01*
X0425076Y0565355D01*
X0425076Y0565069D01*
X0425171Y0564879D01*
X0425267Y0564783D01*
X0425457Y0564688D01*
X0425933Y0564688D01*
X0426124Y0564783D01*
X0426219Y0564879D01*
X0426314Y0565069D01*
X0426314Y0565641D01*
X0426219Y0565831D01*
X0426124Y0565926D01*
X0426314Y0563831D02*
X0424314Y0563831D01*
X0163814Y0565212D02*
X0163814Y0566355D01*
X0163814Y0565783D02*
X0161814Y0565783D01*
X0162100Y0565974D01*
X0162290Y0566164D01*
X0162386Y0566355D01*
X0161909Y0563307D02*
X0161814Y0563498D01*
X0161814Y0563783D01*
X0161909Y0564069D01*
X0162100Y0564260D01*
X0162290Y0564355D01*
X0162671Y0564450D01*
X0162957Y0564450D01*
X0163338Y0564355D01*
X0163528Y0564260D01*
X0163719Y0564069D01*
X0163814Y0563783D01*
X0163814Y0563593D01*
X0163719Y0563307D01*
X0163624Y0563212D01*
X0162957Y0563212D01*
X0162957Y0563593D01*
X0211314Y0582712D02*
X0211314Y0583855D01*
X0211314Y0583283D02*
X0209314Y0583283D01*
X0209600Y0583474D01*
X0209790Y0583664D01*
X0209886Y0583855D01*
X0211314Y0581855D02*
X0209314Y0581855D01*
X0209314Y0581093D01*
X0209409Y0580903D01*
X0209505Y0580807D01*
X0209695Y0580712D01*
X0209981Y0580712D01*
X0210171Y0580807D01*
X0210267Y0580903D01*
X0210362Y0581093D01*
X0210362Y0581855D01*
X0495314Y0584307D02*
X0495314Y0583069D01*
X0496076Y0583736D01*
X0496076Y0583450D01*
X0496171Y0583260D01*
X0496267Y0583164D01*
X0496457Y0583069D01*
X0496933Y0583069D01*
X0497124Y0583164D01*
X0497219Y0583260D01*
X0497314Y0583450D01*
X0497314Y0584022D01*
X0497219Y0584212D01*
X0497124Y0584307D01*
X0495314Y0582498D02*
X0497314Y0581831D01*
X0495314Y0581164D01*
X0175814Y0564688D02*
X0175814Y0565831D01*
X0175814Y0565260D02*
X0173814Y0565260D01*
X0174100Y0565450D01*
X0174290Y0565641D01*
X0174386Y0565831D01*
X0175814Y0563831D02*
X0173814Y0563831D01*
X0471633Y0584167D02*
X0471633Y0582929D01*
X0472395Y0583595D01*
X0472395Y0583310D01*
X0472490Y0583119D01*
X0472585Y0583024D01*
X0472776Y0582929D01*
X0473252Y0582929D01*
X0473443Y0583024D01*
X0473538Y0583119D01*
X0473633Y0583310D01*
X0473633Y0583881D01*
X0473538Y0584071D01*
X0473443Y0584167D01*
X0473633Y0580929D02*
X0472681Y0581595D01*
X0473633Y0582071D02*
X0471633Y0582071D01*
X0471633Y0581310D01*
X0471728Y0581119D01*
X0471824Y0581024D01*
X0472014Y0580929D01*
X0472300Y0580929D01*
X0472490Y0581024D01*
X0472585Y0581119D01*
X0472681Y0581310D01*
X0472681Y0582071D01*
X0124814Y0565069D02*
X0124814Y0566212D01*
X0124814Y0565641D02*
X0122814Y0565641D01*
X0123100Y0565831D01*
X0123290Y0566022D01*
X0123386Y0566212D01*
X0124243Y0564307D02*
X0124243Y0563355D01*
X0124814Y0564498D02*
X0122814Y0563831D01*
X0124814Y0563164D01*
X0235314Y0582474D02*
X0235314Y0583617D01*
X0235314Y0583045D02*
X0233314Y0583045D01*
X0233600Y0583236D01*
X0233790Y0583426D01*
X0233886Y0583617D01*
X0233314Y0581903D02*
X0233314Y0580760D01*
X0235314Y0581331D02*
X0233314Y0581331D01*
X0125314Y0582712D02*
X0125314Y0583855D01*
X0125314Y0583283D02*
X0123314Y0583283D01*
X0123600Y0583474D01*
X0123790Y0583664D01*
X0123886Y0583855D01*
X0124267Y0581188D02*
X0124362Y0580903D01*
X0124457Y0580807D01*
X0124648Y0580712D01*
X0124933Y0580712D01*
X0125124Y0580807D01*
X0125219Y0580903D01*
X0125314Y0581093D01*
X0125314Y0581855D01*
X0123314Y0581855D01*
X0123314Y0581188D01*
X0123409Y0580998D01*
X0123505Y0580903D01*
X0123695Y0580807D01*
X0123886Y0580807D01*
X0124076Y0580903D01*
X0124171Y0580998D01*
X0124267Y0581188D01*
X0124267Y0581855D01*
X0247314Y0582569D02*
X0247314Y0583712D01*
X0247314Y0583141D02*
X0245314Y0583141D01*
X0245600Y0583331D01*
X0245790Y0583522D01*
X0245886Y0583712D01*
X0245314Y0581998D02*
X0247314Y0581331D01*
X0245314Y0580664D01*
X0471314Y0566498D02*
X0471314Y0565260D01*
X0472076Y0565926D01*
X0472076Y0565641D01*
X0472171Y0565450D01*
X0472267Y0565355D01*
X0472457Y0565260D01*
X0472933Y0565260D01*
X0473124Y0565355D01*
X0473219Y0565450D01*
X0473314Y0565641D01*
X0473314Y0566212D01*
X0473219Y0566403D01*
X0473124Y0566498D01*
X0473505Y0563069D02*
X0473409Y0563260D01*
X0473219Y0563450D01*
X0472933Y0563736D01*
X0472838Y0563926D01*
X0472838Y0564117D01*
X0473314Y0564022D02*
X0473219Y0564212D01*
X0473028Y0564403D01*
X0472648Y0564498D01*
X0471981Y0564498D01*
X0471600Y0564403D01*
X0471409Y0564212D01*
X0471314Y0564022D01*
X0471314Y0563641D01*
X0471409Y0563450D01*
X0471600Y0563260D01*
X0471981Y0563164D01*
X0472648Y0563164D01*
X0473028Y0563260D01*
X0473219Y0563450D01*
X0473314Y0563641D01*
X0473314Y0564022D01*
X0495314Y0566498D02*
X0495314Y0565260D01*
X0496076Y0565926D01*
X0496076Y0565641D01*
X0496171Y0565450D01*
X0496267Y0565355D01*
X0496457Y0565260D01*
X0496933Y0565260D01*
X0497124Y0565355D01*
X0497219Y0565450D01*
X0497314Y0565641D01*
X0497314Y0566212D01*
X0497219Y0566403D01*
X0497124Y0566498D01*
X0495314Y0564403D02*
X0496933Y0564403D01*
X0497124Y0564307D01*
X0497219Y0564212D01*
X0497314Y0564022D01*
X0497314Y0563641D01*
X0497219Y0563450D01*
X0497124Y0563355D01*
X0496933Y0563260D01*
X0495314Y0563260D01*
X0351505Y0584355D02*
X0351409Y0584260D01*
X0351314Y0584069D01*
X0351314Y0583593D01*
X0351409Y0583403D01*
X0351505Y0583307D01*
X0351695Y0583212D01*
X0351886Y0583212D01*
X0352171Y0583307D01*
X0353314Y0584450D01*
X0353314Y0583212D01*
X0353314Y0582355D02*
X0351314Y0582355D01*
X0351314Y0581593D01*
X0351409Y0581403D01*
X0351505Y0581307D01*
X0351695Y0581212D01*
X0351981Y0581212D01*
X0352171Y0581307D01*
X0352267Y0581403D01*
X0352362Y0581593D01*
X0352362Y0582355D01*
X0459814Y0566498D02*
X0459814Y0565260D01*
X0460576Y0565926D01*
X0460576Y0565641D01*
X0460671Y0565450D01*
X0460767Y0565355D01*
X0460957Y0565260D01*
X0461433Y0565260D01*
X0461624Y0565355D01*
X0461719Y0565450D01*
X0461814Y0565641D01*
X0461814Y0566212D01*
X0461719Y0566403D01*
X0461624Y0566498D01*
X0459814Y0564022D02*
X0459814Y0563641D01*
X0459909Y0563450D01*
X0460100Y0563260D01*
X0460481Y0563164D01*
X0461148Y0563164D01*
X0461528Y0563260D01*
X0461719Y0563450D01*
X0461814Y0563641D01*
X0461814Y0564022D01*
X0461719Y0564212D01*
X0461528Y0564403D01*
X0461148Y0564498D01*
X0460481Y0564498D01*
X0460100Y0564403D01*
X0459909Y0564212D01*
X0459814Y0564022D01*
X0268674Y0584071D02*
X0268579Y0583976D01*
X0268484Y0583786D01*
X0268484Y0583310D01*
X0268579Y0583119D01*
X0268674Y0583024D01*
X0268864Y0582929D01*
X0269055Y0582929D01*
X0269341Y0583024D01*
X0270484Y0584167D01*
X0270484Y0582929D01*
X0269436Y0581405D02*
X0269531Y0581119D01*
X0269626Y0581024D01*
X0269817Y0580929D01*
X0270103Y0580929D01*
X0270293Y0581024D01*
X0270388Y0581119D01*
X0270484Y0581310D01*
X0270484Y0582071D01*
X0268484Y0582071D01*
X0268484Y0581405D01*
X0268579Y0581214D01*
X0268674Y0581119D01*
X0268864Y0581024D01*
X0269055Y0581024D01*
X0269245Y0581119D01*
X0269341Y0581214D01*
X0269436Y0581405D01*
X0269436Y0582071D01*
X0163814Y0582760D02*
X0163814Y0583903D01*
X0163814Y0583331D02*
X0161814Y0583331D01*
X0162100Y0583522D01*
X0162290Y0583712D01*
X0162386Y0583903D01*
X0163814Y0581903D02*
X0161814Y0581903D01*
X0162767Y0581903D02*
X0162767Y0580760D01*
X0163814Y0580760D02*
X0161814Y0580760D01*
X0339505Y0584403D02*
X0339409Y0584307D01*
X0339314Y0584117D01*
X0339314Y0583641D01*
X0339409Y0583450D01*
X0339505Y0583355D01*
X0339695Y0583260D01*
X0339886Y0583260D01*
X0340171Y0583355D01*
X0341314Y0584498D01*
X0341314Y0583260D01*
X0341314Y0582403D02*
X0339314Y0582403D01*
X0341314Y0581260D01*
X0339314Y0581260D01*
X0328005Y0584164D02*
X0327909Y0584069D01*
X0327814Y0583879D01*
X0327814Y0583403D01*
X0327909Y0583212D01*
X0328005Y0583117D01*
X0328195Y0583022D01*
X0328386Y0583022D01*
X0328671Y0583117D01*
X0329814Y0584260D01*
X0329814Y0583022D01*
X0329814Y0581212D02*
X0329814Y0582164D01*
X0327814Y0582164D01*
X0139314Y0582712D02*
X0139314Y0583855D01*
X0139314Y0583283D02*
X0137314Y0583283D01*
X0137600Y0583474D01*
X0137790Y0583664D01*
X0137886Y0583855D01*
X0139314Y0581855D02*
X0137314Y0581855D01*
X0137314Y0581379D01*
X0137409Y0581093D01*
X0137600Y0580903D01*
X0137790Y0580807D01*
X0138171Y0580712D01*
X0138457Y0580712D01*
X0138838Y0580807D01*
X0139028Y0580903D01*
X0139219Y0581093D01*
X0139314Y0581379D01*
X0139314Y0581855D01*
X0187314Y0565212D02*
X0187314Y0566355D01*
X0187314Y0565783D02*
X0185314Y0565783D01*
X0185600Y0565974D01*
X0185790Y0566164D01*
X0185886Y0566355D01*
X0187314Y0564355D02*
X0185314Y0564355D01*
X0187314Y0563212D02*
X0186171Y0564069D01*
X0185314Y0563212D02*
X0186457Y0564355D01*
X0400814Y0566355D02*
X0400814Y0565117D01*
X0401576Y0565783D01*
X0401576Y0565498D01*
X0401671Y0565307D01*
X0401767Y0565212D01*
X0401957Y0565117D01*
X0402433Y0565117D01*
X0402624Y0565212D01*
X0402719Y0565307D01*
X0402814Y0565498D01*
X0402814Y0566069D01*
X0402719Y0566260D01*
X0402624Y0566355D01*
X0401767Y0564260D02*
X0401767Y0563593D01*
X0402814Y0563307D02*
X0402814Y0564260D01*
X0400814Y0564260D01*
X0400814Y0563307D01*
X0223314Y0565260D02*
X0223314Y0566403D01*
X0223314Y0565831D02*
X0221314Y0565831D01*
X0221600Y0566022D01*
X0221790Y0566212D01*
X0221886Y0566403D01*
X0223505Y0563069D02*
X0223409Y0563260D01*
X0223219Y0563450D01*
X0222933Y0563736D01*
X0222838Y0563926D01*
X0222838Y0564117D01*
X0223314Y0564022D02*
X0223219Y0564212D01*
X0223028Y0564403D01*
X0222648Y0564498D01*
X0221981Y0564498D01*
X0221600Y0564403D01*
X0221409Y0564212D01*
X0221314Y0564022D01*
X0221314Y0563641D01*
X0221409Y0563450D01*
X0221600Y0563260D01*
X0221981Y0563164D01*
X0222648Y0563164D01*
X0223028Y0563260D01*
X0223219Y0563450D01*
X0223314Y0563641D01*
X0223314Y0564022D01*
D65*
X0298787Y0039822D02*
X0355682Y0039822D01*
X0355682Y0039822D02*
X0355682Y0049705D01*
X0358629Y0049705D02*
X0358629Y0099172D01*
X0284417Y0090117D02*
X0284417Y0099959D01*
X0284417Y0090117D02*
X0297015Y0090117D01*
X0298787Y0039822D02*
X0298787Y0088345D01*
X0284417Y0099959D02*
X0357842Y0099959D01*
X0355682Y0049705D02*
X0358629Y0049705D01*
X0297015Y0090117D02*
X0298787Y0088345D01*
X0422873Y0376431D02*
X0350924Y0376431D01*
X0396298Y0362356D02*
X0393444Y0359502D01*
X0350924Y0376431D02*
X0350924Y0362356D01*
X0422873Y0376431D02*
X0422873Y0362356D01*
X0422873Y0362356D02*
X0396298Y0362356D01*
X0371397Y0359502D02*
X0368542Y0362356D01*
X0368542Y0362356D02*
X0350924Y0362356D01*
X0393444Y0359502D02*
X0371397Y0359502D01*
X0226824Y0243455D02*
X0226824Y0146014D01*
X0118194Y0308447D02*
X0116686Y0306940D01*
X0116686Y0306940D02*
X0116686Y0141684D01*
X0118556Y0139814D02*
X0116686Y0141684D01*
X0226824Y0146014D02*
X0220623Y0139814D01*
X0227358Y0307489D02*
X0227358Y0243989D01*
X0220623Y0139814D02*
X0118556Y0139814D01*
X0227358Y0243989D02*
X0226824Y0243455D01*
X0226399Y0308447D02*
X0118194Y0308447D01*
X0227358Y0307489D02*
X0226399Y0308447D01*
X0233986Y0434132D02*
X0232903Y0433049D01*
X0229458Y0432828D02*
X0229458Y0390136D01*
X0233986Y0434132D02*
X0256418Y0434132D01*
X0256418Y0434132D02*
X0256571Y0390136D01*
X0229655Y0433049D02*
X0229458Y0432828D01*
X0229655Y0433049D02*
X0232903Y0433049D01*
X0229434Y0390136D02*
X0256571Y0390136D01*
X0184753Y0134235D02*
X0184857Y0134339D01*
X0184753Y0069050D02*
X0184753Y0134235D01*
X0225702Y0069350D02*
X0225702Y0133712D01*
X0225702Y0133712D02*
X0225175Y0134239D01*
X0225175Y0134239D02*
X0184857Y0134339D01*
X0219694Y0063342D02*
X0190462Y0063342D01*
X0219694Y0063342D02*
X0225702Y0069350D01*
X0190462Y0063342D02*
X0184753Y0069050D01*
X0337149Y0263011D02*
X0335181Y0264979D01*
X0456441Y0313896D02*
X0450338Y0319999D01*
X0454866Y0263011D02*
X0337149Y0263011D01*
X0338823Y0319999D02*
X0335181Y0316357D01*
X0456441Y0264585D02*
X0454866Y0263011D01*
X0450338Y0319999D02*
X0338803Y0319999D01*
X0335181Y0316357D02*
X0335181Y0264979D01*
X0456441Y0313896D02*
X0456441Y0264585D01*
X0281464Y0109089D02*
X0275460Y0109089D01*
X0275926Y0252589D02*
X0274577Y0251240D01*
X0456956Y0108253D02*
X0455036Y0106333D01*
X0456956Y0108253D02*
X0456956Y0250348D01*
X0284220Y0106333D02*
X0281464Y0109089D01*
X0274577Y0109971D02*
X0274577Y0251240D01*
X0456956Y0250348D02*
X0454716Y0252589D01*
X0454716Y0252589D02*
X0275926Y0252589D01*
X0275460Y0109089D02*
X0274577Y0109971D01*
X0455036Y0106333D02*
X0284220Y0106333D01*
X0114278Y0500212D02*
X0096956Y0500212D01*
X0118511Y0504444D02*
X0118511Y0540173D01*
X0057389Y0476492D02*
X0057389Y0540173D01*
X0094003Y0497259D02*
X0096956Y0500212D01*
X0114278Y0500212D02*
X0118511Y0504444D01*
X0118511Y0540173D02*
X0057389Y0540173D01*
X0093511Y0476492D02*
X0094003Y0476984D01*
X0093511Y0476492D02*
X0057389Y0476492D01*
X0094003Y0476984D02*
X0094003Y0497259D01*
X0262306Y0544516D02*
X0320967Y0544516D01*
X0320967Y0544516D02*
X0320967Y0390382D01*
X0320967Y0390382D02*
X0262306Y0390382D01*
X0262306Y0390382D02*
X0262306Y0544516D01*
X0435893Y0100288D02*
X0435672Y0100485D01*
X0436976Y0073525D02*
X0392980Y0073372D01*
X0436976Y0095958D02*
X0436976Y0073525D01*
X0435672Y0100485D02*
X0392980Y0100485D01*
X0435893Y0100288D02*
X0435893Y0097040D01*
X0436976Y0095958D02*
X0435893Y0097040D01*
X0392980Y0100510D02*
X0392980Y0073372D01*
X0495962Y0154198D02*
X0494978Y0155182D01*
X0494539Y0101350D02*
X0471947Y0101350D01*
X0468994Y0106660D02*
X0465057Y0106660D01*
X0471947Y0103708D02*
X0471947Y0101350D01*
X0465057Y0154200D02*
X0465057Y0106660D01*
X0495962Y0154198D02*
X0495962Y0102774D01*
X0494978Y0155182D02*
X0466040Y0155182D01*
X0471947Y0103708D02*
X0468994Y0106660D01*
X0466040Y0155182D02*
X0465057Y0154200D01*
X0495962Y0102774D02*
X0494539Y0101350D01*
X0085919Y0305856D02*
X0085919Y0454085D01*
X0063380Y0427018D02*
X0063380Y0437352D01*
X0085919Y0305856D02*
X0057377Y0305856D01*
X0083557Y0458514D02*
X0080998Y0461073D01*
X0057377Y0305856D02*
X0057670Y0461073D01*
X0083557Y0456447D02*
X0083557Y0458514D01*
X0085919Y0454085D02*
X0083557Y0456447D01*
X0080998Y0461073D02*
X0057670Y0461073D01*
X0456834Y0320392D02*
G01*
G75*
D65*
X0454865Y0263010D02*
X0337149Y0263010D01*
X0335181Y0264979D01*
X0335181Y0316357D02*
X0335181Y0264979D01*
X0338822Y0319998D02*
X0335181Y0316357D01*
X0450338Y0319998D02*
X0338802Y0319998D01*
X0456440Y0313896D02*
X0450338Y0319998D01*
X0456440Y0313896D02*
X0456440Y0264585D01*
X0454865Y0263010D01*
X0496061Y0155578D02*
G01*
G75*
D65*
X0469289Y0106661D02*
X0465352Y0106661D01*
X0472242Y0103708D02*
X0472242Y0101351D01*
X0496061Y0102578D02*
X0494834Y0101351D01*
X0496061Y0154396D02*
X0495273Y0155183D01*
X0466335Y0155183D01*
X0465352Y0154200D01*
X0465352Y0106661D01*
X0472242Y0103708D02*
X0469289Y0106661D01*
X0494834Y0101351D02*
X0472242Y0101351D01*
X0457350Y0252986D02*
G01*
G75*
D65*
X0455036Y0106333D02*
X0284220Y0106333D01*
X0281464Y0109088D01*
X0275460Y0109088D01*
X0456956Y0250348D02*
X0454716Y0252588D01*
X0274577Y0109971D02*
X0274577Y0251240D01*
X0456956Y0108252D02*
X0456956Y0250348D01*
X0456956Y0108252D02*
X0455036Y0106333D01*
X0454716Y0252588D02*
X0275926Y0252588D01*
X0274577Y0251240D01*
X0275460Y0109088D02*
X0274577Y0109971D01*
X0284023Y0039428D02*
G01*
G75*
D65*
X0355682Y0039822D02*
X0355682Y0049705D01*
X0358629Y0049705D01*
X0284417Y0090117D02*
X0284417Y0099960D01*
X0284417Y0090117D02*
X0297015Y0090117D01*
X0298787Y0088345D01*
X0298787Y0039822D02*
X0298787Y0088345D01*
X0298787Y0039822D02*
X0355682Y0039822D01*
X0358629Y0049705D02*
X0358629Y0099172D01*
X0284417Y0099960D02*
X0357842Y0099960D01*
X0227618Y0308864D02*
G01*
G75*
D65*
X0227358Y0243989D02*
X0226825Y0243456D01*
X0227358Y0307489D02*
X0227358Y0243989D01*
X0227358Y0307489D02*
X0226399Y0308448D01*
X0118195Y0308448D01*
X0226825Y0243456D02*
X0226825Y0146015D01*
X0220624Y0139814D02*
X0118557Y0139814D01*
X0226825Y0146015D02*
X0220624Y0139814D01*
X0118557Y0139814D02*
X0116687Y0141684D01*
X0118195Y0308448D02*
X0116687Y0306940D01*
X0116687Y0141684D01*
X0437370Y0100879D02*
G01*
G75*
D65*
X0435894Y0100288D02*
X0435672Y0100485D01*
X0435894Y0100288D02*
X0435894Y0097040D01*
X0436976Y0095958D02*
X0435894Y0097040D01*
X0392980Y0100510D02*
X0392980Y0073372D01*
X0436976Y0073525D02*
X0392980Y0073372D01*
X0435672Y0100485D02*
X0392980Y0100485D01*
X0436976Y0095958D02*
X0436976Y0073525D01*
X0226092Y0062948D02*
G01*
G75*
D65*
X0184753Y0069050D02*
X0184753Y0134235D01*
X0190462Y0063341D02*
X0184753Y0069050D01*
X0225702Y0069349D02*
X0225702Y0133711D01*
X0219694Y0063341D02*
X0190462Y0063341D01*
X0219694Y0063341D02*
X0225702Y0069349D01*
X0225702Y0133711D02*
X0225175Y0134239D01*
X0184753Y0134235D02*
X0184857Y0134339D01*
X0225175Y0134239D02*
X0184857Y0134339D01*
X0229064Y0434526D02*
G01*
G75*
D65*
X0229655Y0433050D02*
X0229458Y0432828D01*
X0229655Y0433050D02*
X0232903Y0433050D01*
X0233985Y0434132D02*
X0232903Y0433050D01*
X0229433Y0390136D02*
X0256571Y0390136D01*
X0256418Y0434132D02*
X0256571Y0390136D01*
X0229458Y0432828D02*
X0229458Y0390136D01*
X0233985Y0434132D02*
X0256418Y0434132D01*
X0423267Y0376824D02*
G01*
G75*
D65*
X0368543Y0362355D02*
X0350925Y0362355D01*
X0371397Y0359501D02*
X0368543Y0362355D01*
X0422873Y0362355D02*
X0396298Y0362355D01*
X0393444Y0359501D01*
X0371397Y0359501D01*
X0350925Y0376430D02*
X0350925Y0362355D01*
X0422873Y0376430D02*
X0350925Y0376430D01*
X0422873Y0376430D02*
X0422873Y0362355D01*
X0118904Y0476098D02*
G01*
G75*
D65*
X0114278Y0500212D02*
X0118510Y0504444D01*
X0114278Y0500212D02*
X0096955Y0500212D01*
X0093510Y0476492D02*
X0094003Y0476984D01*
X0094003Y0497260D01*
X0093510Y0476492D02*
X0057388Y0476492D01*
X0094003Y0497260D02*
X0096955Y0500212D01*
X0118510Y0504444D02*
X0118510Y0540173D01*
X0057388Y0476492D02*
X0057388Y0540173D01*
X0118510Y0540173D02*
X0057388Y0540173D01*
X0086313Y0305463D02*
G01*
G75*
D65*
X0085919Y0305857D02*
X0085919Y0454085D01*
X0083557Y0456447D01*
X0083557Y0458514D01*
X0080998Y0461073D01*
X0063380Y0427018D02*
X0063380Y0437353D01*
X0057377Y0305857D02*
X0057670Y0461073D01*
X0085919Y0305857D02*
X0057377Y0305857D01*
X0080998Y0461073D02*
X0057670Y0461073D01*
X0321361Y0389988D02*
%LPD*%
G01*
D187*
X0262305Y0544515D02*
X0262305Y0390381D01*
X0262305Y0390381D02*
X0320967Y0390381D01*
X0320967Y0390381D02*
X0320967Y0544515D01*
X0320967Y0544515D02*
X0262305Y0544515D01*
M02*
