G75*
G70*
%OFA0B0*%
%FSLAX25Y25*%
%IPPOS*%
%LPD*%
%AMOC8*
5,1,8,0,0,1.08239X$1,22.5*
%
%AMM146*
21,1,0.039370,0.049210,-0.000000,0.000000,180.000000*
21,1,0.031500,0.057090,-0.000000,0.000000,180.000000*
1,1,0.007870,0.024610,0.015750*
1,1,0.007870,0.024610,-0.015750*
1,1,0.007870,-0.024610,-0.015750*
1,1,0.007870,-0.024610,0.015750*
%
%AMM149*
21,1,0.027560,0.030710,-0.000000,0.000000,180.000000*
21,1,0.022050,0.036220,-0.000000,0.000000,180.000000*
1,1,0.005510,0.015350,0.011020*
1,1,0.005510,0.015350,-0.011020*
1,1,0.005510,-0.015350,-0.011020*
1,1,0.005510,-0.015350,0.011020*
%
%AMM153*
21,1,0.033470,0.026770,-0.000000,0.000000,0.000000*
21,1,0.026770,0.033470,-0.000000,0.000000,0.000000*
1,1,0.006690,-0.013390,-0.013390*
1,1,0.006690,-0.013390,0.013390*
1,1,0.006690,0.013390,0.013390*
1,1,0.006690,0.013390,-0.013390*
%
%AMM156*
21,1,0.027560,0.030710,-0.000000,0.000000,90.000000*
21,1,0.022050,0.036220,-0.000000,0.000000,90.000000*
1,1,0.005510,0.011020,-0.015350*
1,1,0.005510,-0.011020,-0.015350*
1,1,0.005510,-0.011020,0.015350*
1,1,0.005510,0.011020,0.015350*
%
%AMM158*
21,1,0.033470,0.026770,-0.000000,0.000000,270.000000*
21,1,0.026770,0.033470,-0.000000,0.000000,270.000000*
1,1,0.006690,-0.013390,0.013390*
1,1,0.006690,0.013390,0.013390*
1,1,0.006690,0.013390,-0.013390*
1,1,0.006690,-0.013390,-0.013390*
%
%AMM175*
21,1,0.035430,0.050000,-0.000000,-0.000000,90.000000*
21,1,0.028350,0.057090,-0.000000,-0.000000,90.000000*
1,1,0.007090,-0.025000,-0.014170*
1,1,0.007090,-0.025000,0.014170*
1,1,0.007090,0.025000,0.014170*
1,1,0.007090,0.025000,-0.014170*
%
%AMM176*
21,1,0.086610,0.073230,-0.000000,-0.000000,90.000000*
21,1,0.069290,0.090550,-0.000000,-0.000000,90.000000*
1,1,0.017320,-0.036610,-0.034650*
1,1,0.017320,-0.036610,0.034650*
1,1,0.017320,0.036610,0.034650*
1,1,0.017320,0.036610,-0.034650*
%
%AMM177*
21,1,0.027560,0.030710,-0.000000,-0.000000,270.000000*
21,1,0.022050,0.036220,-0.000000,-0.000000,270.000000*
1,1,0.005510,0.015350,0.011020*
1,1,0.005510,0.015350,-0.011020*
1,1,0.005510,-0.015350,-0.011020*
1,1,0.005510,-0.015350,0.011020*
%
%AMM179*
21,1,0.025590,0.026380,-0.000000,-0.000000,180.000000*
21,1,0.020470,0.031500,-0.000000,-0.000000,180.000000*
1,1,0.005120,0.010240,-0.013190*
1,1,0.005120,-0.010240,-0.013190*
1,1,0.005120,-0.010240,0.013190*
1,1,0.005120,0.010240,0.013190*
%
%AMM180*
21,1,0.023620,0.030710,-0.000000,-0.000000,270.000000*
21,1,0.018900,0.035430,-0.000000,-0.000000,270.000000*
1,1,0.004720,0.015350,0.009450*
1,1,0.004720,0.015350,-0.009450*
1,1,0.004720,-0.015350,-0.009450*
1,1,0.004720,-0.015350,0.009450*
%
%AMM181*
21,1,0.033470,0.026770,-0.000000,-0.000000,90.000000*
21,1,0.026770,0.033470,-0.000000,-0.000000,90.000000*
1,1,0.006690,-0.013390,-0.013390*
1,1,0.006690,-0.013390,0.013390*
1,1,0.006690,0.013390,0.013390*
1,1,0.006690,0.013390,-0.013390*
%
%AMM182*
21,1,0.017720,0.027950,-0.000000,-0.000000,180.000000*
21,1,0.014170,0.031500,-0.000000,-0.000000,180.000000*
1,1,0.003540,0.007090,-0.013980*
1,1,0.003540,-0.007090,-0.013980*
1,1,0.003540,-0.007090,0.013980*
1,1,0.003540,0.007090,0.013980*
%
%AMM183*
21,1,0.039370,0.049210,-0.000000,-0.000000,270.000000*
21,1,0.031500,0.057090,-0.000000,-0.000000,270.000000*
1,1,0.007870,0.024610,0.015750*
1,1,0.007870,0.024610,-0.015750*
1,1,0.007870,-0.024610,-0.015750*
1,1,0.007870,-0.024610,0.015750*
%
%AMM184*
21,1,0.027560,0.030710,-0.000000,-0.000000,180.000000*
21,1,0.022050,0.036220,-0.000000,-0.000000,180.000000*
1,1,0.005510,0.011020,-0.015350*
1,1,0.005510,-0.011020,-0.015350*
1,1,0.005510,-0.011020,0.015350*
1,1,0.005510,0.011020,0.015350*
%
%AMM185*
21,1,0.039370,0.049210,-0.000000,-0.000000,0.000000*
21,1,0.031500,0.057090,-0.000000,-0.000000,0.000000*
1,1,0.007870,-0.015750,0.024610*
1,1,0.007870,0.015750,0.024610*
1,1,0.007870,0.015750,-0.024610*
1,1,0.007870,-0.015750,-0.024610*
%
%AMM187*
21,1,0.033470,0.026770,-0.000000,-0.000000,0.000000*
21,1,0.026770,0.033470,-0.000000,-0.000000,0.000000*
1,1,0.006690,-0.013390,0.013390*
1,1,0.006690,0.013390,0.013390*
1,1,0.006690,0.013390,-0.013390*
1,1,0.006690,-0.013390,-0.013390*
%
%AMM205*
21,1,0.033470,0.026770,-0.000000,-0.000000,180.000000*
21,1,0.026770,0.033470,-0.000000,-0.000000,180.000000*
1,1,0.006690,0.013390,-0.013390*
1,1,0.006690,-0.013390,-0.013390*
1,1,0.006690,-0.013390,0.013390*
1,1,0.006690,0.013390,0.013390*
%
%AMM206*
21,1,0.027560,0.030710,-0.000000,-0.000000,90.000000*
21,1,0.022050,0.036220,-0.000000,-0.000000,90.000000*
1,1,0.005510,-0.015350,-0.011020*
1,1,0.005510,-0.015350,0.011020*
1,1,0.005510,0.015350,0.011020*
1,1,0.005510,0.015350,-0.011020*
%
%AMM220*
21,1,0.035430,0.030320,-0.000000,0.000000,0.000000*
21,1,0.028350,0.037400,-0.000000,0.000000,0.000000*
1,1,0.007090,-0.015160,-0.014170*
1,1,0.007090,-0.015160,0.014170*
1,1,0.007090,0.015160,0.014170*
1,1,0.007090,0.015160,-0.014170*
%
%AMM227*
21,1,0.027560,0.030710,-0.000000,0.000000,270.000000*
21,1,0.022050,0.036220,-0.000000,0.000000,270.000000*
1,1,0.005510,-0.011020,0.015350*
1,1,0.005510,0.011020,0.015350*
1,1,0.005510,0.011020,-0.015350*
1,1,0.005510,-0.011020,-0.015350*
%
%AMM256*
21,1,0.027560,0.018900,-0.000000,-0.000000,0.000000*
21,1,0.022840,0.023620,-0.000000,-0.000000,0.000000*
1,1,0.004720,-0.011420,0.009450*
1,1,0.004720,0.011420,0.009450*
1,1,0.004720,0.011420,-0.009450*
1,1,0.004720,-0.011420,-0.009450*
%
%AMM257*
21,1,0.035430,0.030320,-0.000000,-0.000000,0.000000*
21,1,0.028350,0.037400,-0.000000,-0.000000,0.000000*
1,1,0.007090,-0.014170,0.015160*
1,1,0.007090,0.014170,0.015160*
1,1,0.007090,0.014170,-0.015160*
1,1,0.007090,-0.014170,-0.015160*
%
%AMM258*
21,1,0.025590,0.026380,-0.000000,-0.000000,90.000000*
21,1,0.020470,0.031500,-0.000000,-0.000000,90.000000*
1,1,0.005120,-0.013190,-0.010240*
1,1,0.005120,-0.013190,0.010240*
1,1,0.005120,0.013190,0.010240*
1,1,0.005120,0.013190,-0.010240*
%
%AMM259*
21,1,0.035830,0.026770,-0.000000,-0.000000,90.000000*
21,1,0.029130,0.033470,-0.000000,-0.000000,90.000000*
1,1,0.006690,-0.013390,-0.014570*
1,1,0.006690,-0.013390,0.014570*
1,1,0.006690,0.013390,0.014570*
1,1,0.006690,0.013390,-0.014570*
%
%AMM260*
21,1,0.137800,0.067720,-0.000000,-0.000000,180.000000*
21,1,0.120870,0.084650,-0.000000,-0.000000,180.000000*
1,1,0.016930,0.060430,-0.033860*
1,1,0.016930,-0.060430,-0.033860*
1,1,0.016930,-0.060430,0.033860*
1,1,0.016930,0.060430,0.033860*
%
%AMM261*
21,1,0.043310,0.075980,-0.000000,-0.000000,180.000000*
21,1,0.034650,0.084650,-0.000000,-0.000000,180.000000*
1,1,0.008660,0.017320,-0.037990*
1,1,0.008660,-0.017320,-0.037990*
1,1,0.008660,-0.017320,0.037990*
1,1,0.008660,0.017320,0.037990*
%
%AMM262*
21,1,0.035430,0.030320,-0.000000,-0.000000,90.000000*
21,1,0.028350,0.037400,-0.000000,-0.000000,90.000000*
1,1,0.007090,-0.015160,-0.014170*
1,1,0.007090,-0.015160,0.014170*
1,1,0.007090,0.015160,0.014170*
1,1,0.007090,0.015160,-0.014170*
%
%AMM268*
21,1,0.027560,0.030710,-0.000000,-0.000000,0.000000*
21,1,0.022050,0.036220,-0.000000,-0.000000,0.000000*
1,1,0.005510,-0.011020,0.015350*
1,1,0.005510,0.011020,0.015350*
1,1,0.005510,0.011020,-0.015350*
1,1,0.005510,-0.011020,-0.015350*
%
%AMM269*
21,1,0.039370,0.035430,-0.000000,-0.000000,90.000000*
21,1,0.031500,0.043310,-0.000000,-0.000000,90.000000*
1,1,0.007870,-0.017720,-0.015750*
1,1,0.007870,-0.017720,0.015750*
1,1,0.007870,0.017720,0.015750*
1,1,0.007870,0.017720,-0.015750*
%
%AMM271*
21,1,0.043310,0.075990,-0.000000,-0.000000,180.000000*
21,1,0.034650,0.084650,-0.000000,-0.000000,180.000000*
1,1,0.008660,0.017320,-0.037990*
1,1,0.008660,-0.017320,-0.037990*
1,1,0.008660,-0.017320,0.037990*
1,1,0.008660,0.017320,0.037990*
%
%AMM272*
21,1,0.023620,0.030710,-0.000000,-0.000000,0.000000*
21,1,0.018900,0.035430,-0.000000,-0.000000,0.000000*
1,1,0.004720,-0.009450,0.015350*
1,1,0.004720,0.009450,0.015350*
1,1,0.004720,0.009450,-0.015350*
1,1,0.004720,-0.009450,-0.015350*
%
%AMM273*
21,1,0.035830,0.026770,-0.000000,-0.000000,0.000000*
21,1,0.029130,0.033470,-0.000000,-0.000000,0.000000*
1,1,0.006690,-0.014570,0.013390*
1,1,0.006690,0.014570,0.013390*
1,1,0.006690,0.014570,-0.013390*
1,1,0.006690,-0.014570,-0.013390*
%
%AMM274*
21,1,0.027560,0.049610,-0.000000,-0.000000,90.000000*
21,1,0.022050,0.055120,-0.000000,-0.000000,90.000000*
1,1,0.005510,-0.024800,-0.011020*
1,1,0.005510,-0.024800,0.011020*
1,1,0.005510,0.024800,0.011020*
1,1,0.005510,0.024800,-0.011020*
%
%AMM275*
21,1,0.017720,0.027950,-0.000000,-0.000000,90.000000*
21,1,0.014170,0.031500,-0.000000,-0.000000,90.000000*
1,1,0.003540,-0.013980,-0.007090*
1,1,0.003540,-0.013980,0.007090*
1,1,0.003540,0.013980,0.007090*
1,1,0.003540,0.013980,-0.007090*
%
%AMM295*
21,1,0.070870,0.036220,-0.000000,0.000000,270.000000*
21,1,0.061810,0.045280,-0.000000,0.000000,270.000000*
1,1,0.009060,-0.030910,0.018110*
1,1,0.009060,0.030910,0.018110*
1,1,0.009060,0.030910,-0.018110*
1,1,0.009060,-0.030910,-0.018110*
%
%AMM300*
21,1,0.035830,0.026770,-0.000000,0.000000,180.000000*
21,1,0.029130,0.033470,-0.000000,0.000000,180.000000*
1,1,0.006690,0.013390,0.014570*
1,1,0.006690,0.013390,-0.014570*
1,1,0.006690,-0.013390,-0.014570*
1,1,0.006690,-0.013390,0.014570*
%
%AMM31*
21,1,0.027560,0.030710,0.000000,0.000000,270.000000*
21,1,0.022050,0.036220,0.000000,0.000000,270.000000*
1,1,0.005510,-0.015350,-0.011020*
1,1,0.005510,-0.015350,0.011020*
1,1,0.005510,0.015350,0.011020*
1,1,0.005510,0.015350,-0.011020*
%
%AMM317*
21,1,0.070870,0.036220,-0.000000,-0.000000,0.000000*
21,1,0.061810,0.045280,-0.000000,-0.000000,0.000000*
1,1,0.009060,-0.030910,0.018110*
1,1,0.009060,0.030910,0.018110*
1,1,0.009060,0.030910,-0.018110*
1,1,0.009060,-0.030910,-0.018110*
%
%AMM318*
21,1,0.070870,0.036220,-0.000000,-0.000000,90.000000*
21,1,0.061810,0.045280,-0.000000,-0.000000,90.000000*
1,1,0.009060,-0.018110,-0.030910*
1,1,0.009060,-0.018110,0.030910*
1,1,0.009060,0.018110,0.030910*
1,1,0.009060,0.018110,-0.030910*
%
%AMM319*
21,1,0.035430,0.030320,-0.000000,-0.000000,270.000000*
21,1,0.028350,0.037400,-0.000000,-0.000000,270.000000*
1,1,0.007090,0.015160,0.014170*
1,1,0.007090,0.015160,-0.014170*
1,1,0.007090,-0.015160,-0.014170*
1,1,0.007090,-0.015160,0.014170*
%
%AMM322*
21,1,0.035830,0.026770,-0.000000,-0.000000,270.000000*
21,1,0.029130,0.033470,-0.000000,-0.000000,270.000000*
1,1,0.006690,0.013390,0.014570*
1,1,0.006690,0.013390,-0.014570*
1,1,0.006690,-0.013390,-0.014570*
1,1,0.006690,-0.013390,0.014570*
%
%AMM323*
21,1,0.043310,0.075980,-0.000000,-0.000000,0.000000*
21,1,0.034650,0.084650,-0.000000,-0.000000,0.000000*
1,1,0.008660,-0.017320,0.037990*
1,1,0.008660,0.017320,0.037990*
1,1,0.008660,0.017320,-0.037990*
1,1,0.008660,-0.017320,-0.037990*
%
%AMM324*
21,1,0.137800,0.067720,-0.000000,-0.000000,0.000000*
21,1,0.120870,0.084650,-0.000000,-0.000000,0.000000*
1,1,0.016930,-0.060430,0.033860*
1,1,0.016930,0.060430,0.033860*
1,1,0.016930,0.060430,-0.033860*
1,1,0.016930,-0.060430,-0.033860*
%
%AMM325*
21,1,0.043310,0.075990,-0.000000,-0.000000,0.000000*
21,1,0.034650,0.084650,-0.000000,-0.000000,0.000000*
1,1,0.008660,-0.017320,0.037990*
1,1,0.008660,0.017320,0.037990*
1,1,0.008660,0.017320,-0.037990*
1,1,0.008660,-0.017320,-0.037990*
%
%AMM326*
21,1,0.017720,0.027950,-0.000000,-0.000000,270.000000*
21,1,0.014170,0.031500,-0.000000,-0.000000,270.000000*
1,1,0.003540,0.013980,0.007090*
1,1,0.003540,0.013980,-0.007090*
1,1,0.003540,-0.013980,-0.007090*
1,1,0.003540,-0.013980,0.007090*
%
%AMM327*
21,1,0.025590,0.026380,-0.000000,-0.000000,270.000000*
21,1,0.020470,0.031500,-0.000000,-0.000000,270.000000*
1,1,0.005120,0.013190,0.010240*
1,1,0.005120,0.013190,-0.010240*
1,1,0.005120,-0.013190,-0.010240*
1,1,0.005120,-0.013190,0.010240*
%
%AMM345*
21,1,0.035430,0.030320,-0.000000,0.000000,90.000000*
21,1,0.028350,0.037400,-0.000000,0.000000,90.000000*
1,1,0.007090,0.014170,-0.015160*
1,1,0.007090,-0.014170,-0.015160*
1,1,0.007090,-0.014170,0.015160*
1,1,0.007090,0.014170,0.015160*
%
%AMM347*
21,1,0.035830,0.026770,-0.000000,0.000000,90.000000*
21,1,0.029130,0.033470,-0.000000,0.000000,90.000000*
1,1,0.006690,0.014570,-0.013390*
1,1,0.006690,-0.014570,-0.013390*
1,1,0.006690,-0.014570,0.013390*
1,1,0.006690,0.014570,0.013390*
%
%AMM352*
21,1,0.035430,0.030320,0.000000,-0.000000,90.000000*
21,1,0.028350,0.037400,0.000000,-0.000000,90.000000*
1,1,0.007090,-0.014170,0.015160*
1,1,0.007090,0.014170,0.015160*
1,1,0.007090,0.014170,-0.015160*
1,1,0.007090,-0.014170,-0.015160*
%
%AMM353*
21,1,0.033470,0.026770,0.000000,-0.000000,270.000000*
21,1,0.026770,0.033470,0.000000,-0.000000,270.000000*
1,1,0.006690,0.013390,-0.013390*
1,1,0.006690,-0.013390,-0.013390*
1,1,0.006690,-0.013390,0.013390*
1,1,0.006690,0.013390,0.013390*
%
%AMM354*
21,1,0.027560,0.030710,0.000000,-0.000000,90.000000*
21,1,0.022050,0.036220,0.000000,-0.000000,90.000000*
1,1,0.005510,-0.011020,0.015350*
1,1,0.005510,0.011020,0.015350*
1,1,0.005510,0.011020,-0.015350*
1,1,0.005510,-0.011020,-0.015350*
%
%AMM360*
21,1,0.021650,0.052760,-0.000000,-0.000000,90.000000*
21,1,0.017320,0.057090,-0.000000,-0.000000,90.000000*
1,1,0.004330,-0.026380,-0.008660*
1,1,0.004330,-0.026380,0.008660*
1,1,0.004330,0.026380,0.008660*
1,1,0.004330,0.026380,-0.008660*
%
%AMM362*
21,1,0.094490,0.111020,-0.000000,0.000000,270.000000*
21,1,0.075590,0.129920,-0.000000,0.000000,270.000000*
1,1,0.018900,-0.037800,0.055510*
1,1,0.018900,0.037800,0.055510*
1,1,0.018900,0.037800,-0.055510*
1,1,0.018900,-0.037800,-0.055510*
%
%AMM363*
21,1,0.023620,0.018900,-0.000000,0.000000,0.000000*
21,1,0.018900,0.023620,-0.000000,0.000000,0.000000*
1,1,0.004720,-0.009450,-0.009450*
1,1,0.004720,-0.009450,0.009450*
1,1,0.004720,0.009450,0.009450*
1,1,0.004720,0.009450,-0.009450*
%
%AMM364*
21,1,0.023620,0.018900,-0.000000,0.000000,270.000000*
21,1,0.018900,0.023620,-0.000000,0.000000,270.000000*
1,1,0.004720,-0.009450,0.009450*
1,1,0.004720,0.009450,0.009450*
1,1,0.004720,0.009450,-0.009450*
1,1,0.004720,-0.009450,-0.009450*
%
%AMM366*
21,1,0.033470,0.026770,-0.000000,0.000000,180.000000*
21,1,0.026770,0.033470,-0.000000,0.000000,180.000000*
1,1,0.006690,0.013390,0.013390*
1,1,0.006690,0.013390,-0.013390*
1,1,0.006690,-0.013390,-0.013390*
1,1,0.006690,-0.013390,0.013390*
%
%AMM367*
21,1,0.078740,0.070870,-0.000000,0.000000,0.000000*
21,1,0.062990,0.086610,-0.000000,0.000000,0.000000*
1,1,0.015750,-0.035430,-0.031500*
1,1,0.015750,-0.035430,0.031500*
1,1,0.015750,0.035430,0.031500*
1,1,0.015750,0.035430,-0.031500*
%
%AMM368*
21,1,0.051180,0.068500,-0.000000,0.000000,270.000000*
21,1,0.040950,0.078740,-0.000000,0.000000,270.000000*
1,1,0.010240,-0.020470,0.034250*
1,1,0.010240,0.020470,0.034250*
1,1,0.010240,0.020470,-0.034250*
1,1,0.010240,-0.020470,-0.034250*
%
%AMM375*
21,1,0.106300,0.050390,-0.000000,0.000000,90.000000*
21,1,0.093700,0.062990,-0.000000,0.000000,90.000000*
1,1,0.012600,0.046850,-0.025200*
1,1,0.012600,-0.046850,-0.025200*
1,1,0.012600,-0.046850,0.025200*
1,1,0.012600,0.046850,0.025200*
%
%AMM376*
21,1,0.074800,0.083460,-0.000000,0.000000,270.000000*
21,1,0.059840,0.098430,-0.000000,0.000000,270.000000*
1,1,0.014960,-0.029920,0.041730*
1,1,0.014960,0.029920,0.041730*
1,1,0.014960,0.029920,-0.041730*
1,1,0.014960,-0.029920,-0.041730*
%
%AMM377*
21,1,0.078740,0.053540,-0.000000,0.000000,270.000000*
21,1,0.065350,0.066930,-0.000000,0.000000,270.000000*
1,1,0.013390,-0.032680,0.026770*
1,1,0.013390,0.032680,0.026770*
1,1,0.013390,0.032680,-0.026770*
1,1,0.013390,-0.032680,-0.026770*
%
%AMM378*
21,1,0.122050,0.075590,-0.000000,0.000000,0.000000*
21,1,0.103150,0.094490,-0.000000,0.000000,0.000000*
1,1,0.018900,-0.037800,-0.051580*
1,1,0.018900,-0.037800,0.051580*
1,1,0.018900,0.037800,0.051580*
1,1,0.018900,0.037800,-0.051580*
%
%AMM379*
21,1,0.086610,0.073230,-0.000000,0.000000,180.000000*
21,1,0.069290,0.090550,-0.000000,0.000000,180.000000*
1,1,0.017320,0.036610,0.034650*
1,1,0.017320,0.036610,-0.034650*
1,1,0.017320,-0.036610,-0.034650*
1,1,0.017320,-0.036610,0.034650*
%
%AMM77*
21,1,0.078740,0.045670,0.000000,0.000000,270.000000*
21,1,0.067320,0.057090,0.000000,0.000000,270.000000*
1,1,0.011420,-0.022840,-0.033660*
1,1,0.011420,-0.022840,0.033660*
1,1,0.011420,0.022840,0.033660*
1,1,0.011420,0.022840,-0.033660*
%
%AMM78*
21,1,0.059060,0.020470,0.000000,0.000000,270.000000*
21,1,0.053940,0.025590,0.000000,0.000000,270.000000*
1,1,0.005120,-0.010240,-0.026970*
1,1,0.005120,-0.010240,0.026970*
1,1,0.005120,0.010240,0.026970*
1,1,0.005120,0.010240,-0.026970*
%
%AMM79*
21,1,0.033470,0.026770,0.000000,0.000000,90.000000*
21,1,0.026770,0.033470,0.000000,0.000000,90.000000*
1,1,0.006690,0.013390,0.013390*
1,1,0.006690,0.013390,-0.013390*
1,1,0.006690,-0.013390,-0.013390*
1,1,0.006690,-0.013390,0.013390*
%
%ADD110R,0.03543X0.03150*%
%ADD12O,0.05118X0.00866*%
%ADD129R,0.05906X0.05118*%
%ADD143C,0.02362*%
%ADD146O,0.02362X0.08661*%
%ADD156R,0.01476X0.01378*%
%ADD164M78*%
%ADD172O,0.00000X0.00000*%
%ADD20M79*%
%ADD200M31*%
%ADD242R,0.01378X0.01476*%
%ADD254R,0.10236X0.14173*%
%ADD258R,0.03150X0.03543*%
%ADD262R,0.06693X0.09449*%
%ADD275C,0.03150*%
%ADD279O,0.04961X0.00984*%
%ADD287O,0.03937X0.01968*%
%ADD318O,0.08661X0.02362*%
%ADD329O,0.00866X0.05118*%
%ADD345M146*%
%ADD348M149*%
%ADD352M153*%
%ADD355M156*%
%ADD357M158*%
%ADD374M175*%
%ADD375M176*%
%ADD376M177*%
%ADD378M179*%
%ADD379M180*%
%ADD380M181*%
%ADD381M182*%
%ADD382M183*%
%ADD383M184*%
%ADD384M185*%
%ADD386M187*%
%ADD408M205*%
%ADD409M206*%
%ADD423M220*%
%ADD430M227*%
%ADD44O,0.04331X0.01181*%
%ADD465M256*%
%ADD466M257*%
%ADD467M258*%
%ADD468M259*%
%ADD469M260*%
%ADD470M261*%
%ADD471M262*%
%ADD477M268*%
%ADD478M269*%
%ADD480M271*%
%ADD481M272*%
%ADD482M273*%
%ADD483M274*%
%ADD484M275*%
%ADD510M295*%
%ADD521M300*%
%ADD541M317*%
%ADD542M318*%
%ADD543M319*%
%ADD546M322*%
%ADD547M323*%
%ADD548M324*%
%ADD549M325*%
%ADD550M326*%
%ADD551M327*%
%ADD569O,0.11221X0.04016*%
%ADD570M345*%
%ADD572M347*%
%ADD578M352*%
%ADD579M353*%
%ADD580M354*%
%ADD586M360*%
%ADD588M362*%
%ADD589M363*%
%ADD590M364*%
%ADD594M366*%
%ADD595M367*%
%ADD596M368*%
%ADD605M375*%
%ADD606M376*%
%ADD607O,0.01968X0.08661*%
%ADD608M377*%
%ADD609M378*%
%ADD610M379*%
%ADD619R,0.02559X0.04803*%
%ADD620R,0.01772X0.05709*%
%ADD621R,0.08661X0.04724*%
%ADD623R,0.12008X0.10827*%
%ADD86R,0.04724X0.09843*%
%ADD92M77*%
X0000000Y0000000D02*
%LPD*%
G01*
G36*
G01*
X0205360Y0474059D02*
X0205360Y0477129D01*
G75*
G02*
X0205635Y0477405I0000276J0000000D01*
G01*
X0207840Y0477405D01*
G75*
G02*
X0208116Y0477129I0000000J-000276D01*
G01*
X0208116Y0474059D01*
G75*
G02*
X0207840Y0473783I-000276J0000000D01*
G01*
X0205635Y0473783D01*
G75*
G02*
X0205360Y0474059I0000000J0000276D01*
G01*
G37*
G36*
G01*
X0211659Y0474059D02*
X0211659Y0477129D01*
G75*
G02*
X0211934Y0477405I0000276J0000000D01*
G01*
X0214139Y0477405D01*
G75*
G02*
X0214415Y0477129I0000000J-000276D01*
G01*
X0214415Y0474059D01*
G75*
G02*
X0214139Y0473783I-000276J0000000D01*
G01*
X0211934Y0473783D01*
G75*
G02*
X0211659Y0474059I0000000J0000276D01*
G01*
G37*
G36*
G01*
X0446697Y0463406D02*
X0446697Y0466476D01*
G75*
G02*
X0446972Y0466752I0000276J0000000D01*
G01*
X0449177Y0466752D01*
G75*
G02*
X0449453Y0466476I0000000J-000276D01*
G01*
X0449453Y0463406D01*
G75*
G02*
X0449177Y0463130I-000276J0000000D01*
G01*
X0446972Y0463130D01*
G75*
G02*
X0446697Y0463406I0000000J0000276D01*
G01*
G37*
G36*
G01*
X0452996Y0463406D02*
X0452996Y0466476D01*
G75*
G02*
X0453271Y0466752I0000276J0000000D01*
G01*
X0455476Y0466752D01*
G75*
G02*
X0455752Y0466476I0000000J-000276D01*
G01*
X0455752Y0463406D01*
G75*
G02*
X0455476Y0463130I-000276J0000000D01*
G01*
X0453271Y0463130D01*
G75*
G02*
X0452996Y0463406I0000000J0000276D01*
G01*
G37*
G36*
G01*
X0432287Y0461024D02*
X0429216Y0461024D01*
G75*
G02*
X0428941Y0461299I0000000J0000276D01*
G01*
X0428941Y0463504D01*
G75*
G02*
X0429216Y0463780I0000276J0000000D01*
G01*
X0432287Y0463780D01*
G75*
G02*
X0432563Y0463504I0000000J-000276D01*
G01*
X0432563Y0461299D01*
G75*
G02*
X0432287Y0461024I-000276J0000000D01*
G01*
G37*
G36*
G01*
X0432287Y0467323D02*
X0429216Y0467323D01*
G75*
G02*
X0428941Y0467598I0000000J0000276D01*
G01*
X0428941Y0469803D01*
G75*
G02*
X0429216Y0470079I0000276J0000000D01*
G01*
X0432287Y0470079D01*
G75*
G02*
X0432563Y0469803I0000000J-000276D01*
G01*
X0432563Y0467598D01*
G75*
G02*
X0432287Y0467323I-000276J0000000D01*
G01*
G37*
D172*
X0354594Y0045826D03*
X0324082Y0099172D03*
X0327114Y0040806D03*
G36*
G01*
X0315497Y0299078D02*
X0315497Y0301716D01*
G75*
G02*
X0315753Y0301972I0000256J0000000D01*
G01*
X0317801Y0301972D01*
G75*
G02*
X0318057Y0301716I0000000J-000256D01*
G01*
X0318057Y0299078D01*
G75*
G02*
X0317801Y0298822I-000256J0000000D01*
G01*
X0315753Y0298822D01*
G75*
G02*
X0315497Y0299078I0000000J0000256D01*
G01*
G37*
G36*
G01*
X0319336Y0299000D02*
X0319336Y0301795D01*
G75*
G02*
X0319513Y0301972I0000177J0000000D01*
G01*
X0320931Y0301972D01*
G75*
G02*
X0321108Y0301795I0000000J-000177D01*
G01*
X0321108Y0299000D01*
G75*
G02*
X0320931Y0298822I-000177J0000000D01*
G01*
X0319513Y0298822D01*
G75*
G02*
X0319336Y0299000I0000000J0000177D01*
G01*
G37*
G36*
G01*
X0322486Y0299000D02*
X0322486Y0301795D01*
G75*
G02*
X0322663Y0301972I0000177J0000000D01*
G01*
X0324080Y0301972D01*
G75*
G02*
X0324257Y0301795I0000000J-000177D01*
G01*
X0324257Y0299000D01*
G75*
G02*
X0324080Y0298822I-000177J0000000D01*
G01*
X0322663Y0298822D01*
G75*
G02*
X0322486Y0299000I0000000J0000177D01*
G01*
G37*
G36*
G01*
X0325537Y0299078D02*
X0325537Y0301716D01*
G75*
G02*
X0325793Y0301972I0000256J0000000D01*
G01*
X0327840Y0301972D01*
G75*
G02*
X0328096Y0301716I0000000J-000256D01*
G01*
X0328096Y0299078D01*
G75*
G02*
X0327840Y0298822I-000256J0000000D01*
G01*
X0325793Y0298822D01*
G75*
G02*
X0325537Y0299078I0000000J0000256D01*
G01*
G37*
G36*
G01*
X0325537Y0306165D02*
X0325537Y0308803D01*
G75*
G02*
X0325793Y0309059I0000256J0000000D01*
G01*
X0327840Y0309059D01*
G75*
G02*
X0328096Y0308803I0000000J-000256D01*
G01*
X0328096Y0306165D01*
G75*
G02*
X0327840Y0305909I-000256J0000000D01*
G01*
X0325793Y0305909D01*
G75*
G02*
X0325537Y0306165I0000000J0000256D01*
G01*
G37*
G36*
G01*
X0322486Y0306086D02*
X0322486Y0308881D01*
G75*
G02*
X0322663Y0309059I0000177J0000000D01*
G01*
X0324080Y0309059D01*
G75*
G02*
X0324257Y0308881I0000000J-000177D01*
G01*
X0324257Y0306086D01*
G75*
G02*
X0324080Y0305909I-000177J0000000D01*
G01*
X0322663Y0305909D01*
G75*
G02*
X0322486Y0306086I0000000J0000177D01*
G01*
G37*
G36*
G01*
X0319336Y0306086D02*
X0319336Y0308881D01*
G75*
G02*
X0319513Y0309059I0000177J0000000D01*
G01*
X0320931Y0309059D01*
G75*
G02*
X0321108Y0308881I0000000J-000177D01*
G01*
X0321108Y0306086D01*
G75*
G02*
X0320931Y0305909I-000177J0000000D01*
G01*
X0319513Y0305909D01*
G75*
G02*
X0319336Y0306086I0000000J0000177D01*
G01*
G37*
G36*
G01*
X0315497Y0306165D02*
X0315497Y0308803D01*
G75*
G02*
X0315753Y0309059I0000256J0000000D01*
G01*
X0317801Y0309059D01*
G75*
G02*
X0318057Y0308803I0000000J-000256D01*
G01*
X0318057Y0306165D01*
G75*
G02*
X0317801Y0305909I-000256J0000000D01*
G01*
X0315753Y0305909D01*
G75*
G02*
X0315497Y0306165I0000000J0000256D01*
G01*
G37*
G36*
G01*
X0206007Y0499409D02*
X0201085Y0499409D01*
G75*
G02*
X0200692Y0499803I0000000J0000394D01*
G01*
X0200692Y0502953D01*
G75*
G02*
X0201085Y0503346I0000394J0000000D01*
G01*
X0206007Y0503346D01*
G75*
G02*
X0206400Y0502953I0000000J-000394D01*
G01*
X0206400Y0499803D01*
G75*
G02*
X0206007Y0499409I-000394J0000000D01*
G01*
G37*
G36*
G01*
X0206007Y0506890D02*
X0201085Y0506890D01*
G75*
G02*
X0200692Y0507284I0000000J0000394D01*
G01*
X0200692Y0510433D01*
G75*
G02*
X0201085Y0510827I0000394J0000000D01*
G01*
X0206007Y0510827D01*
G75*
G02*
X0206400Y0510433I0000000J-000394D01*
G01*
X0206400Y0507284D01*
G75*
G02*
X0206007Y0506890I-000394J0000000D01*
G01*
G37*
G36*
G01*
X0292773Y0037322D02*
X0290135Y0037322D01*
G75*
G02*
X0289879Y0037578I0000000J0000256D01*
G01*
X0289879Y0039626D01*
G75*
G02*
X0290135Y0039881I0000256J0000000D01*
G01*
X0292773Y0039881D01*
G75*
G02*
X0293029Y0039626I0000000J-000256D01*
G01*
X0293029Y0037578D01*
G75*
G02*
X0292773Y0037322I-000256J0000000D01*
G01*
G37*
G36*
G01*
X0292852Y0041161D02*
X0290057Y0041161D01*
G75*
G02*
X0289879Y0041338I0000000J0000177D01*
G01*
X0289879Y0042755D01*
G75*
G02*
X0290057Y0042933I0000177J0000000D01*
G01*
X0292852Y0042933D01*
G75*
G02*
X0293029Y0042755I0000000J-000177D01*
G01*
X0293029Y0041338D01*
G75*
G02*
X0292852Y0041161I-000177J0000000D01*
G01*
G37*
G36*
G01*
X0292852Y0044311D02*
X0290057Y0044311D01*
G75*
G02*
X0289879Y0044488I0000000J0000177D01*
G01*
X0289879Y0045905D01*
G75*
G02*
X0290057Y0046082I0000177J0000000D01*
G01*
X0292852Y0046082D01*
G75*
G02*
X0293029Y0045905I0000000J-000177D01*
G01*
X0293029Y0044488D01*
G75*
G02*
X0292852Y0044311I-000177J0000000D01*
G01*
G37*
G36*
G01*
X0292773Y0047362D02*
X0290135Y0047362D01*
G75*
G02*
X0289879Y0047618I0000000J0000256D01*
G01*
X0289879Y0049665D01*
G75*
G02*
X0290135Y0049921I0000256J0000000D01*
G01*
X0292773Y0049921D01*
G75*
G02*
X0293029Y0049665I0000000J-000256D01*
G01*
X0293029Y0047618D01*
G75*
G02*
X0292773Y0047362I-000256J0000000D01*
G01*
G37*
G36*
G01*
X0285686Y0047362D02*
X0283049Y0047362D01*
G75*
G02*
X0282793Y0047618I0000000J0000256D01*
G01*
X0282793Y0049665D01*
G75*
G02*
X0283049Y0049921I0000256J0000000D01*
G01*
X0285686Y0049921D01*
G75*
G02*
X0285942Y0049665I0000000J-000256D01*
G01*
X0285942Y0047618D01*
G75*
G02*
X0285686Y0047362I-000256J0000000D01*
G01*
G37*
G36*
G01*
X0285765Y0044311D02*
X0282970Y0044311D01*
G75*
G02*
X0282793Y0044488I0000000J0000177D01*
G01*
X0282793Y0045905D01*
G75*
G02*
X0282970Y0046082I0000177J0000000D01*
G01*
X0285765Y0046082D01*
G75*
G02*
X0285942Y0045905I0000000J-000177D01*
G01*
X0285942Y0044488D01*
G75*
G02*
X0285765Y0044311I-000177J0000000D01*
G01*
G37*
G36*
G01*
X0285765Y0041161D02*
X0282970Y0041161D01*
G75*
G02*
X0282793Y0041338I0000000J0000177D01*
G01*
X0282793Y0042755D01*
G75*
G02*
X0282970Y0042933I0000177J0000000D01*
G01*
X0285765Y0042933D01*
G75*
G02*
X0285942Y0042755I0000000J-000177D01*
G01*
X0285942Y0041338D01*
G75*
G02*
X0285765Y0041161I-000177J0000000D01*
G01*
G37*
G36*
G01*
X0285686Y0037322D02*
X0283049Y0037322D01*
G75*
G02*
X0282793Y0037578I0000000J0000256D01*
G01*
X0282793Y0039626D01*
G75*
G02*
X0283049Y0039881I0000256J0000000D01*
G01*
X0285686Y0039881D01*
G75*
G02*
X0285942Y0039626I0000000J-000256D01*
G01*
X0285942Y0037578D01*
G75*
G02*
X0285686Y0037322I-000256J0000000D01*
G01*
G37*
G36*
G01*
X0464609Y0491563D02*
X0467680Y0491563D01*
G75*
G02*
X0467956Y0491288I0000000J-000276D01*
G01*
X0467956Y0489083D01*
G75*
G02*
X0467680Y0488807I-000276J0000000D01*
G01*
X0464609Y0488807D01*
G75*
G02*
X0464333Y0489083I0000000J0000276D01*
G01*
X0464333Y0491288D01*
G75*
G02*
X0464609Y0491563I0000276J0000000D01*
G01*
G37*
G36*
G01*
X0464609Y0485264D02*
X0467680Y0485264D01*
G75*
G02*
X0467956Y0484988I0000000J-000276D01*
G01*
X0467956Y0482784D01*
G75*
G02*
X0467680Y0482508I-000276J0000000D01*
G01*
X0464609Y0482508D01*
G75*
G02*
X0464333Y0482784I0000000J0000276D01*
G01*
X0464333Y0484988D01*
G75*
G02*
X0464609Y0485264I0000276J0000000D01*
G01*
G37*
G36*
G01*
X0242937Y0135669D02*
X0242937Y0138346D01*
G75*
G02*
X0243271Y0138681I0000335J0000000D01*
G01*
X0245949Y0138681D01*
G75*
G02*
X0246283Y0138346I0000000J-000335D01*
G01*
X0246283Y0135669D01*
G75*
G02*
X0245949Y0135335I-000335J0000000D01*
G01*
X0243271Y0135335D01*
G75*
G02*
X0242937Y0135669I0000000J0000335D01*
G01*
G37*
G36*
G01*
X0249157Y0135669D02*
X0249157Y0138346D01*
G75*
G02*
X0249492Y0138681I0000335J0000000D01*
G01*
X0252169Y0138681D01*
G75*
G02*
X0252504Y0138346I0000000J-000335D01*
G01*
X0252504Y0135669D01*
G75*
G02*
X0252169Y0135335I-000335J0000000D01*
G01*
X0249492Y0135335D01*
G75*
G02*
X0249157Y0135669I0000000J0000335D01*
G01*
G37*
G36*
G01*
X0451913Y0485591D02*
X0456834Y0485591D01*
G75*
G02*
X0457228Y0485197I0000000J-000394D01*
G01*
X0457228Y0482047D01*
G75*
G02*
X0456834Y0481654I-000394J0000000D01*
G01*
X0451913Y0481654D01*
G75*
G02*
X0451520Y0482047I0000000J0000394D01*
G01*
X0451520Y0485197D01*
G75*
G02*
X0451913Y0485591I0000394J0000000D01*
G01*
G37*
G36*
G01*
X0451913Y0478110D02*
X0456834Y0478110D01*
G75*
G02*
X0457228Y0477716I0000000J-000394D01*
G01*
X0457228Y0474567D01*
G75*
G02*
X0456834Y0474173I-000394J0000000D01*
G01*
X0451913Y0474173D01*
G75*
G02*
X0451520Y0474567I0000000J0000394D01*
G01*
X0451520Y0477716D01*
G75*
G02*
X0451913Y0478110I0000394J0000000D01*
G01*
G37*
G36*
G01*
X0147386Y0499409D02*
X0142464Y0499409D01*
G75*
G02*
X0142071Y0499803I0000000J0000394D01*
G01*
X0142071Y0502953D01*
G75*
G02*
X0142464Y0503346I0000394J0000000D01*
G01*
X0147386Y0503346D01*
G75*
G02*
X0147779Y0502953I0000000J-000394D01*
G01*
X0147779Y0499803D01*
G75*
G02*
X0147386Y0499409I-000394J0000000D01*
G01*
G37*
G36*
G01*
X0147386Y0506890D02*
X0142464Y0506890D01*
G75*
G02*
X0142071Y0507284I0000000J0000394D01*
G01*
X0142071Y0510433D01*
G75*
G02*
X0142464Y0510827I0000394J0000000D01*
G01*
X0147386Y0510827D01*
G75*
G02*
X0147779Y0510433I0000000J-000394D01*
G01*
X0147779Y0507284D01*
G75*
G02*
X0147386Y0506890I-000394J0000000D01*
G01*
G37*
X0225761Y0291797D03*
G36*
G01*
X0165102Y0525000D02*
X0160181Y0525000D01*
G75*
G02*
X0159787Y0525394I0000000J0000394D01*
G01*
X0159787Y0528543D01*
G75*
G02*
X0160181Y0528937I0000394J0000000D01*
G01*
X0165102Y0528937D01*
G75*
G02*
X0165496Y0528543I0000000J-000394D01*
G01*
X0165496Y0525394D01*
G75*
G02*
X0165102Y0525000I-000394J0000000D01*
G01*
G37*
G36*
G01*
X0165102Y0532480D02*
X0160181Y0532480D01*
G75*
G02*
X0159787Y0532874I0000000J0000394D01*
G01*
X0159787Y0536024D01*
G75*
G02*
X0160181Y0536417I0000394J0000000D01*
G01*
X0165102Y0536417D01*
G75*
G02*
X0165496Y0536024I0000000J-000394D01*
G01*
X0165496Y0532874D01*
G75*
G02*
X0165102Y0532480I-000394J0000000D01*
G01*
G37*
G36*
G01*
X0267635Y0041043D02*
X0267635Y0036161D01*
G75*
G02*
X0267123Y0035649I-000512J0000000D01*
G01*
X0263029Y0035649D01*
G75*
G02*
X0262517Y0036161I0000000J0000512D01*
G01*
X0262517Y0041043D01*
G75*
G02*
X0263029Y0041555I0000512J0000000D01*
G01*
X0267123Y0041555D01*
G75*
G02*
X0267635Y0041043I0000000J-000512D01*
G01*
G37*
G36*
G01*
X0275116Y0041043D02*
X0275116Y0036161D01*
G75*
G02*
X0274604Y0035649I-000512J0000000D01*
G01*
X0270509Y0035649D01*
G75*
G02*
X0269997Y0036161I0000000J0000512D01*
G01*
X0269997Y0041043D01*
G75*
G02*
X0270509Y0041555I0000512J0000000D01*
G01*
X0274604Y0041555D01*
G75*
G02*
X0275116Y0041043I0000000J-000512D01*
G01*
G37*
G36*
G01*
X0433212Y0499390D02*
X0428291Y0499390D01*
G75*
G02*
X0427897Y0499783I0000000J0000394D01*
G01*
X0427897Y0502933D01*
G75*
G02*
X0428291Y0503327I0000394J0000000D01*
G01*
X0433212Y0503327D01*
G75*
G02*
X0433606Y0502933I0000000J-000394D01*
G01*
X0433606Y0499783D01*
G75*
G02*
X0433212Y0499390I-000394J0000000D01*
G01*
G37*
G36*
G01*
X0433212Y0506870D02*
X0428291Y0506870D01*
G75*
G02*
X0427897Y0507264I0000000J0000394D01*
G01*
X0427897Y0510413D01*
G75*
G02*
X0428291Y0510807I0000394J0000000D01*
G01*
X0433212Y0510807D01*
G75*
G02*
X0433606Y0510413I0000000J-000394D01*
G01*
X0433606Y0507264D01*
G75*
G02*
X0433212Y0506870I-000394J0000000D01*
G01*
G37*
G36*
G01*
X0246103Y0335790D02*
X0246103Y0333901D01*
G75*
G02*
X0245867Y0333664I-000236J0000000D01*
G01*
X0243977Y0333664D01*
G75*
G02*
X0243741Y0333901I0000000J0000236D01*
G01*
X0243741Y0335790D01*
G75*
G02*
X0243977Y0336027I0000236J0000000D01*
G01*
X0245867Y0336027D01*
G75*
G02*
X0246103Y0335790I0000000J-000236D01*
G01*
G37*
G36*
G01*
X0246103Y0327129D02*
X0246103Y0325239D01*
G75*
G02*
X0245867Y0325003I-000236J0000000D01*
G01*
X0243977Y0325003D01*
G75*
G02*
X0243741Y0325239I0000000J0000236D01*
G01*
X0243741Y0327129D01*
G75*
G02*
X0243977Y0327365I0000236J0000000D01*
G01*
X0245867Y0327365D01*
G75*
G02*
X0246103Y0327129I0000000J-000236D01*
G01*
G37*
G36*
G01*
X0271749Y0082145D02*
X0271749Y0084822D01*
G75*
G02*
X0272084Y0085157I0000335J0000000D01*
G01*
X0274761Y0085157D01*
G75*
G02*
X0275096Y0084822I0000000J-000335D01*
G01*
X0275096Y0082145D01*
G75*
G02*
X0274761Y0081811I-000335J0000000D01*
G01*
X0272084Y0081811D01*
G75*
G02*
X0271749Y0082145I0000000J0000335D01*
G01*
G37*
G36*
G01*
X0277970Y0082145D02*
X0277970Y0084822D01*
G75*
G02*
X0278305Y0085157I0000335J0000000D01*
G01*
X0280982Y0085157D01*
G75*
G02*
X0281316Y0084822I0000000J-000335D01*
G01*
X0281316Y0082145D01*
G75*
G02*
X0280982Y0081811I-000335J0000000D01*
G01*
X0278305Y0081811D01*
G75*
G02*
X0277970Y0082145I0000000J0000335D01*
G01*
G37*
G36*
G01*
X0260273Y0077578D02*
X0267517Y0077578D01*
G75*
G02*
X0267832Y0077263I0000000J-000315D01*
G01*
X0267832Y0074744D01*
G75*
G02*
X0267517Y0074429I-000315J0000000D01*
G01*
X0260273Y0074429D01*
G75*
G02*
X0259958Y0074744I0000000J0000315D01*
G01*
X0259958Y0077263D01*
G75*
G02*
X0260273Y0077578I0000315J0000000D01*
G01*
G37*
G36*
G01*
X0260273Y0061043D02*
X0267517Y0061043D01*
G75*
G02*
X0267832Y0060728I0000000J-000315D01*
G01*
X0267832Y0058208D01*
G75*
G02*
X0267517Y0057893I-000315J0000000D01*
G01*
X0260273Y0057893D01*
G75*
G02*
X0259958Y0058208I0000000J0000315D01*
G01*
X0259958Y0060728D01*
G75*
G02*
X0260273Y0061043I0000315J0000000D01*
G01*
G37*
G36*
G01*
X0283111Y0336027D02*
X0286654Y0336027D01*
G75*
G02*
X0287048Y0335633I0000000J-000394D01*
G01*
X0287048Y0332483D01*
G75*
G02*
X0286654Y0332090I-000394J0000000D01*
G01*
X0283111Y0332090D01*
G75*
G02*
X0282717Y0332483I0000000J0000394D01*
G01*
X0282717Y0335633D01*
G75*
G02*
X0283111Y0336027I0000394J0000000D01*
G01*
G37*
G36*
G01*
X0283111Y0329334D02*
X0286654Y0329334D01*
G75*
G02*
X0287048Y0328940I0000000J-000394D01*
G01*
X0287048Y0325790D01*
G75*
G02*
X0286654Y0325397I-000394J0000000D01*
G01*
X0283111Y0325397D01*
G75*
G02*
X0282717Y0325790I0000000J0000394D01*
G01*
X0282717Y0328940D01*
G75*
G02*
X0283111Y0329334I0000394J0000000D01*
G01*
G37*
G36*
G01*
X0519311Y0355669D02*
X0519311Y0352992D01*
G75*
G02*
X0518976Y0352657I-000335J0000000D01*
G01*
X0516299Y0352657D01*
G75*
G02*
X0515965Y0352992I0000000J0000335D01*
G01*
X0515965Y0355669D01*
G75*
G02*
X0516299Y0356004I0000335J0000000D01*
G01*
X0518976Y0356004D01*
G75*
G02*
X0519311Y0355669I0000000J-000335D01*
G01*
G37*
G36*
G01*
X0513091Y0355669D02*
X0513091Y0352992D01*
G75*
G02*
X0512756Y0352657I-000335J0000000D01*
G01*
X0510079Y0352657D01*
G75*
G02*
X0509744Y0352992I0000000J0000335D01*
G01*
X0509744Y0355669D01*
G75*
G02*
X0510079Y0356004I0000335J0000000D01*
G01*
X0512756Y0356004D01*
G75*
G02*
X0513091Y0355669I0000000J-000335D01*
G01*
G37*
G36*
G01*
X0425338Y0483445D02*
X0420417Y0483445D01*
G75*
G02*
X0420023Y0483839I0000000J0000394D01*
G01*
X0420023Y0486988D01*
G75*
G02*
X0420417Y0487382I0000394J0000000D01*
G01*
X0425338Y0487382D01*
G75*
G02*
X0425732Y0486988I0000000J-000394D01*
G01*
X0425732Y0483839D01*
G75*
G02*
X0425338Y0483445I-000394J0000000D01*
G01*
G37*
G36*
G01*
X0425338Y0490925D02*
X0420417Y0490925D01*
G75*
G02*
X0420023Y0491319I0000000J0000394D01*
G01*
X0420023Y0494469D01*
G75*
G02*
X0420417Y0494862I0000394J0000000D01*
G01*
X0425338Y0494862D01*
G75*
G02*
X0425732Y0494469I0000000J-000394D01*
G01*
X0425732Y0491319D01*
G75*
G02*
X0425338Y0490925I-000394J0000000D01*
G01*
G37*
G36*
G01*
X0188724Y0525000D02*
X0183803Y0525000D01*
G75*
G02*
X0183409Y0525394I0000000J0000394D01*
G01*
X0183409Y0528543D01*
G75*
G02*
X0183803Y0528937I0000394J0000000D01*
G01*
X0188724Y0528937D01*
G75*
G02*
X0189118Y0528543I0000000J-000394D01*
G01*
X0189118Y0525394D01*
G75*
G02*
X0188724Y0525000I-000394J0000000D01*
G01*
G37*
G36*
G01*
X0188724Y0532480D02*
X0183803Y0532480D01*
G75*
G02*
X0183409Y0532874I0000000J0000394D01*
G01*
X0183409Y0536024D01*
G75*
G02*
X0183803Y0536417I0000394J0000000D01*
G01*
X0188724Y0536417D01*
G75*
G02*
X0189118Y0536024I0000000J-000394D01*
G01*
X0189118Y0532874D01*
G75*
G02*
X0188724Y0532480I-000394J0000000D01*
G01*
G37*
G36*
G01*
X0292511Y0335784D02*
X0292511Y0333895D01*
G75*
G02*
X0292274Y0333658I-000236J0000000D01*
G01*
X0290385Y0333658D01*
G75*
G02*
X0290148Y0333895I0000000J0000236D01*
G01*
X0290148Y0335784D01*
G75*
G02*
X0290385Y0336021I0000236J0000000D01*
G01*
X0292274Y0336021D01*
G75*
G02*
X0292511Y0335784I0000000J-000236D01*
G01*
G37*
G36*
G01*
X0292511Y0327123D02*
X0292511Y0325233D01*
G75*
G02*
X0292274Y0324997I-000236J0000000D01*
G01*
X0290385Y0324997D01*
G75*
G02*
X0290148Y0325233I0000000J0000236D01*
G01*
X0290148Y0327123D01*
G75*
G02*
X0290385Y0327359I0000236J0000000D01*
G01*
X0292274Y0327359D01*
G75*
G02*
X0292511Y0327123I0000000J-000236D01*
G01*
G37*
G36*
G01*
X0131638Y0499409D02*
X0126716Y0499409D01*
G75*
G02*
X0126323Y0499803I0000000J0000394D01*
G01*
X0126323Y0502953D01*
G75*
G02*
X0126716Y0503346I0000394J0000000D01*
G01*
X0131638Y0503346D01*
G75*
G02*
X0132031Y0502953I0000000J-000394D01*
G01*
X0132031Y0499803D01*
G75*
G02*
X0131638Y0499409I-000394J0000000D01*
G01*
G37*
G36*
G01*
X0131638Y0506890D02*
X0126716Y0506890D01*
G75*
G02*
X0126323Y0507284I0000000J0000394D01*
G01*
X0126323Y0510433D01*
G75*
G02*
X0126716Y0510827I0000394J0000000D01*
G01*
X0131638Y0510827D01*
G75*
G02*
X0132031Y0510433I0000000J-000394D01*
G01*
X0132031Y0507284D01*
G75*
G02*
X0131638Y0506890I-000394J0000000D01*
G01*
G37*
G36*
G01*
X0153888Y0386766D02*
X0153888Y0384876D01*
G75*
G02*
X0153652Y0384640I-000236J0000000D01*
G01*
X0151762Y0384640D01*
G75*
G02*
X0151526Y0384876I0000000J0000236D01*
G01*
X0151526Y0386766D01*
G75*
G02*
X0151762Y0387002I0000236J0000000D01*
G01*
X0153652Y0387002D01*
G75*
G02*
X0153888Y0386766I0000000J-000236D01*
G01*
G37*
G36*
G01*
X0153888Y0378104D02*
X0153888Y0376215D01*
G75*
G02*
X0153652Y0375978I-000236J0000000D01*
G01*
X0151762Y0375978D01*
G75*
G02*
X0151526Y0376215I0000000J0000236D01*
G01*
X0151526Y0378104D01*
G75*
G02*
X0151762Y0378341I0000236J0000000D01*
G01*
X0153652Y0378341D01*
G75*
G02*
X0153888Y0378104I0000000J-000236D01*
G01*
G37*
G36*
G01*
X0125712Y0469685D02*
X0120831Y0469685D01*
G75*
G02*
X0120319Y0470197I0000000J0000512D01*
G01*
X0120319Y0474291D01*
G75*
G02*
X0120831Y0474803I0000512J0000000D01*
G01*
X0125712Y0474803D01*
G75*
G02*
X0126224Y0474291I0000000J-000512D01*
G01*
X0126224Y0470197D01*
G75*
G02*
X0125712Y0469685I-000512J0000000D01*
G01*
G37*
G36*
G01*
X0125712Y0462205D02*
X0120831Y0462205D01*
G75*
G02*
X0120319Y0462717I0000000J0000512D01*
G01*
X0120319Y0466811D01*
G75*
G02*
X0120831Y0467323I0000512J0000000D01*
G01*
X0125712Y0467323D01*
G75*
G02*
X0126224Y0466811I0000000J-000512D01*
G01*
X0126224Y0462717D01*
G75*
G02*
X0125712Y0462205I-000512J0000000D01*
G01*
G37*
G36*
G01*
X0274450Y0351519D02*
X0274450Y0348881D01*
G75*
G02*
X0274194Y0348625I-000256J0000000D01*
G01*
X0272146Y0348625D01*
G75*
G02*
X0271891Y0348881I0000000J0000256D01*
G01*
X0271891Y0351519D01*
G75*
G02*
X0272146Y0351775I0000256J0000000D01*
G01*
X0274194Y0351775D01*
G75*
G02*
X0274450Y0351519I0000000J-000256D01*
G01*
G37*
G36*
G01*
X0270611Y0351597D02*
X0270611Y0348802D01*
G75*
G02*
X0270434Y0348625I-000177J0000000D01*
G01*
X0269017Y0348625D01*
G75*
G02*
X0268839Y0348802I0000000J0000177D01*
G01*
X0268839Y0351597D01*
G75*
G02*
X0269017Y0351775I0000177J0000000D01*
G01*
X0270434Y0351775D01*
G75*
G02*
X0270611Y0351597I0000000J-000177D01*
G01*
G37*
G36*
G01*
X0267461Y0351597D02*
X0267461Y0348802D01*
G75*
G02*
X0267284Y0348625I-000177J0000000D01*
G01*
X0265867Y0348625D01*
G75*
G02*
X0265690Y0348802I0000000J0000177D01*
G01*
X0265690Y0351597D01*
G75*
G02*
X0265867Y0351775I0000177J0000000D01*
G01*
X0267284Y0351775D01*
G75*
G02*
X0267461Y0351597I0000000J-000177D01*
G01*
G37*
G36*
G01*
X0264410Y0351519D02*
X0264410Y0348881D01*
G75*
G02*
X0264154Y0348625I-000256J0000000D01*
G01*
X0262107Y0348625D01*
G75*
G02*
X0261851Y0348881I0000000J0000256D01*
G01*
X0261851Y0351519D01*
G75*
G02*
X0262107Y0351775I0000256J0000000D01*
G01*
X0264154Y0351775D01*
G75*
G02*
X0264410Y0351519I0000000J-000256D01*
G01*
G37*
G36*
G01*
X0264410Y0344432D02*
X0264410Y0341794D01*
G75*
G02*
X0264154Y0341538I-000256J0000000D01*
G01*
X0262107Y0341538D01*
G75*
G02*
X0261851Y0341794I0000000J0000256D01*
G01*
X0261851Y0344432D01*
G75*
G02*
X0262107Y0344688I0000256J0000000D01*
G01*
X0264154Y0344688D01*
G75*
G02*
X0264410Y0344432I0000000J-000256D01*
G01*
G37*
G36*
G01*
X0267461Y0344511D02*
X0267461Y0341716D01*
G75*
G02*
X0267284Y0341538I-000177J0000000D01*
G01*
X0265867Y0341538D01*
G75*
G02*
X0265690Y0341716I0000000J0000177D01*
G01*
X0265690Y0344511D01*
G75*
G02*
X0265867Y0344688I0000177J0000000D01*
G01*
X0267284Y0344688D01*
G75*
G02*
X0267461Y0344511I0000000J-000177D01*
G01*
G37*
G36*
G01*
X0270611Y0344511D02*
X0270611Y0341716D01*
G75*
G02*
X0270434Y0341538I-000177J0000000D01*
G01*
X0269017Y0341538D01*
G75*
G02*
X0268839Y0341716I0000000J0000177D01*
G01*
X0268839Y0344511D01*
G75*
G02*
X0269017Y0344688I0000177J0000000D01*
G01*
X0270434Y0344688D01*
G75*
G02*
X0270611Y0344511I0000000J-000177D01*
G01*
G37*
G36*
G01*
X0274450Y0344432D02*
X0274450Y0341794D01*
G75*
G02*
X0274194Y0341538I-000256J0000000D01*
G01*
X0272146Y0341538D01*
G75*
G02*
X0271891Y0341794I0000000J0000256D01*
G01*
X0271891Y0344432D01*
G75*
G02*
X0272146Y0344688I0000256J0000000D01*
G01*
X0274194Y0344688D01*
G75*
G02*
X0274450Y0344432I0000000J-000256D01*
G01*
G37*
G36*
G01*
X0486362Y0524980D02*
X0481441Y0524980D01*
G75*
G02*
X0481047Y0525374I0000000J0000394D01*
G01*
X0481047Y0528524D01*
G75*
G02*
X0481441Y0528917I0000394J0000000D01*
G01*
X0486362Y0528917D01*
G75*
G02*
X0486756Y0528524I0000000J-000394D01*
G01*
X0486756Y0525374D01*
G75*
G02*
X0486362Y0524980I-000394J0000000D01*
G01*
G37*
G36*
G01*
X0486362Y0532461D02*
X0481441Y0532461D01*
G75*
G02*
X0481047Y0532854I0000000J0000394D01*
G01*
X0481047Y0536004D01*
G75*
G02*
X0481441Y0536398I0000394J0000000D01*
G01*
X0486362Y0536398D01*
G75*
G02*
X0486756Y0536004I0000000J-000394D01*
G01*
X0486756Y0532854D01*
G75*
G02*
X0486362Y0532461I-000394J0000000D01*
G01*
G37*
G36*
G01*
X0380948Y0418876D02*
X0382837Y0418876D01*
G75*
G02*
X0383074Y0418640I0000000J-000236D01*
G01*
X0383074Y0416750D01*
G75*
G02*
X0382837Y0416514I-000236J0000000D01*
G01*
X0380948Y0416514D01*
G75*
G02*
X0380711Y0416750I0000000J0000236D01*
G01*
X0380711Y0418640D01*
G75*
G02*
X0380948Y0418876I0000236J0000000D01*
G01*
G37*
G36*
G01*
X0389609Y0418876D02*
X0391499Y0418876D01*
G75*
G02*
X0391735Y0418640I0000000J-000236D01*
G01*
X0391735Y0416750D01*
G75*
G02*
X0391499Y0416514I-000236J0000000D01*
G01*
X0389609Y0416514D01*
G75*
G02*
X0389373Y0416750I0000000J0000236D01*
G01*
X0389373Y0418640D01*
G75*
G02*
X0389609Y0418876I0000236J0000000D01*
G01*
G37*
G36*
G01*
X0468646Y0499390D02*
X0463724Y0499390D01*
G75*
G02*
X0463331Y0499783I0000000J0000394D01*
G01*
X0463331Y0502933D01*
G75*
G02*
X0463724Y0503327I0000394J0000000D01*
G01*
X0468646Y0503327D01*
G75*
G02*
X0469039Y0502933I0000000J-000394D01*
G01*
X0469039Y0499783D01*
G75*
G02*
X0468646Y0499390I-000394J0000000D01*
G01*
G37*
G36*
G01*
X0468646Y0506870D02*
X0463724Y0506870D01*
G75*
G02*
X0463331Y0507264I0000000J0000394D01*
G01*
X0463331Y0510413D01*
G75*
G02*
X0463724Y0510807I0000394J0000000D01*
G01*
X0468646Y0510807D01*
G75*
G02*
X0469039Y0510413I0000000J-000394D01*
G01*
X0469039Y0507264D01*
G75*
G02*
X0468646Y0506870I-000394J0000000D01*
G01*
G37*
X0230147Y0409427D03*
G36*
G01*
X0498173Y0524980D02*
X0493252Y0524980D01*
G75*
G02*
X0492858Y0525374I0000000J0000394D01*
G01*
X0492858Y0528524D01*
G75*
G02*
X0493252Y0528917I0000394J0000000D01*
G01*
X0498173Y0528917D01*
G75*
G02*
X0498567Y0528524I0000000J-000394D01*
G01*
X0498567Y0525374D01*
G75*
G02*
X0498173Y0524980I-000394J0000000D01*
G01*
G37*
G36*
G01*
X0498173Y0532461D02*
X0493252Y0532461D01*
G75*
G02*
X0492858Y0532854I0000000J0000394D01*
G01*
X0492858Y0536004D01*
G75*
G02*
X0493252Y0536398I0000394J0000000D01*
G01*
X0498173Y0536398D01*
G75*
G02*
X0498567Y0536004I0000000J-000394D01*
G01*
X0498567Y0532854D01*
G75*
G02*
X0498173Y0532461I-000394J0000000D01*
G01*
G37*
G36*
G01*
X0276021Y0077578D02*
X0283265Y0077578D01*
G75*
G02*
X0283580Y0077263I0000000J-000315D01*
G01*
X0283580Y0074744D01*
G75*
G02*
X0283265Y0074429I-000315J0000000D01*
G01*
X0276021Y0074429D01*
G75*
G02*
X0275706Y0074744I0000000J0000315D01*
G01*
X0275706Y0077263D01*
G75*
G02*
X0276021Y0077578I0000315J0000000D01*
G01*
G37*
G36*
G01*
X0276021Y0061043D02*
X0283265Y0061043D01*
G75*
G02*
X0283580Y0060728I0000000J-000315D01*
G01*
X0283580Y0058208D01*
G75*
G02*
X0283265Y0057893I-000315J0000000D01*
G01*
X0276021Y0057893D01*
G75*
G02*
X0275706Y0058208I0000000J0000315D01*
G01*
X0275706Y0060728D01*
G75*
G02*
X0276021Y0061043I0000315J0000000D01*
G01*
G37*
G36*
G01*
X0224157Y0525000D02*
X0219236Y0525000D01*
G75*
G02*
X0218842Y0525394I0000000J0000394D01*
G01*
X0218842Y0528543D01*
G75*
G02*
X0219236Y0528937I0000394J0000000D01*
G01*
X0224157Y0528937D01*
G75*
G02*
X0224551Y0528543I0000000J-000394D01*
G01*
X0224551Y0525394D01*
G75*
G02*
X0224157Y0525000I-000394J0000000D01*
G01*
G37*
G36*
G01*
X0224157Y0532480D02*
X0219236Y0532480D01*
G75*
G02*
X0218842Y0532874I0000000J0000394D01*
G01*
X0218842Y0536024D01*
G75*
G02*
X0219236Y0536417I0000394J0000000D01*
G01*
X0224157Y0536417D01*
G75*
G02*
X0224551Y0536024I0000000J-000394D01*
G01*
X0224551Y0532874D01*
G75*
G02*
X0224157Y0532480I-000394J0000000D01*
G01*
G37*
G36*
G01*
X0141480Y0525000D02*
X0136559Y0525000D01*
G75*
G02*
X0136165Y0525394I0000000J0000394D01*
G01*
X0136165Y0528543D01*
G75*
G02*
X0136559Y0528937I0000394J0000000D01*
G01*
X0141480Y0528937D01*
G75*
G02*
X0141874Y0528543I0000000J-000394D01*
G01*
X0141874Y0525394D01*
G75*
G02*
X0141480Y0525000I-000394J0000000D01*
G01*
G37*
G36*
G01*
X0141480Y0532480D02*
X0136559Y0532480D01*
G75*
G02*
X0136165Y0532874I0000000J0000394D01*
G01*
X0136165Y0536024D01*
G75*
G02*
X0136559Y0536417I0000394J0000000D01*
G01*
X0141480Y0536417D01*
G75*
G02*
X0141874Y0536024I0000000J-000394D01*
G01*
X0141874Y0532874D01*
G75*
G02*
X0141480Y0532480I-000394J0000000D01*
G01*
G37*
G36*
G01*
X0140945Y0386772D02*
X0140945Y0384882D01*
G75*
G02*
X0140709Y0384646I-000236J0000000D01*
G01*
X0138819Y0384646D01*
G75*
G02*
X0138583Y0384882I0000000J0000236D01*
G01*
X0138583Y0386772D01*
G75*
G02*
X0138819Y0387008I0000236J0000000D01*
G01*
X0140709Y0387008D01*
G75*
G02*
X0140945Y0386772I0000000J-000236D01*
G01*
G37*
G36*
G01*
X0140945Y0378110D02*
X0140945Y0376220D01*
G75*
G02*
X0140709Y0375984I-000236J0000000D01*
G01*
X0138819Y0375984D01*
G75*
G02*
X0138583Y0376220I0000000J0000236D01*
G01*
X0138583Y0378110D01*
G75*
G02*
X0138819Y0378346I0000236J0000000D01*
G01*
X0140709Y0378346D01*
G75*
G02*
X0140945Y0378110I0000000J-000236D01*
G01*
G37*
G36*
G01*
X0380711Y0429949D02*
X0380711Y0433492D01*
G75*
G02*
X0381105Y0433886I0000394J0000000D01*
G01*
X0384255Y0433886D01*
G75*
G02*
X0384648Y0433492I0000000J-000394D01*
G01*
X0384648Y0429949D01*
G75*
G02*
X0384255Y0429555I-000394J0000000D01*
G01*
X0381105Y0429555D01*
G75*
G02*
X0380711Y0429949I0000000J0000394D01*
G01*
G37*
G36*
G01*
X0387404Y0429949D02*
X0387404Y0433492D01*
G75*
G02*
X0387798Y0433886I0000394J0000000D01*
G01*
X0390948Y0433886D01*
G75*
G02*
X0391341Y0433492I0000000J-000394D01*
G01*
X0391341Y0429949D01*
G75*
G02*
X0390948Y0429555I-000394J0000000D01*
G01*
X0387798Y0429555D01*
G75*
G02*
X0387404Y0429949I0000000J0000394D01*
G01*
G37*
G36*
G01*
X0364038Y0434280D02*
X0366676Y0434280D01*
G75*
G02*
X0366932Y0434024I0000000J-000256D01*
G01*
X0366932Y0431977D01*
G75*
G02*
X0366676Y0431721I-000256J0000000D01*
G01*
X0364038Y0431721D01*
G75*
G02*
X0363782Y0431977I0000000J0000256D01*
G01*
X0363782Y0434024D01*
G75*
G02*
X0364038Y0434280I0000256J0000000D01*
G01*
G37*
G36*
G01*
X0363959Y0430441D02*
X0366755Y0430441D01*
G75*
G02*
X0366932Y0430264I0000000J-000177D01*
G01*
X0366932Y0428847D01*
G75*
G02*
X0366755Y0428670I-000177J0000000D01*
G01*
X0363959Y0428670D01*
G75*
G02*
X0363782Y0428847I0000000J0000177D01*
G01*
X0363782Y0430264D01*
G75*
G02*
X0363959Y0430441I0000177J0000000D01*
G01*
G37*
G36*
G01*
X0363959Y0427292D02*
X0366755Y0427292D01*
G75*
G02*
X0366932Y0427114I0000000J-000177D01*
G01*
X0366932Y0425697D01*
G75*
G02*
X0366755Y0425520I-000177J0000000D01*
G01*
X0363959Y0425520D01*
G75*
G02*
X0363782Y0425697I0000000J0000177D01*
G01*
X0363782Y0427114D01*
G75*
G02*
X0363959Y0427292I0000177J0000000D01*
G01*
G37*
G36*
G01*
X0364038Y0424240D02*
X0366676Y0424240D01*
G75*
G02*
X0366932Y0423984I0000000J-000256D01*
G01*
X0366932Y0421937D01*
G75*
G02*
X0366676Y0421681I-000256J0000000D01*
G01*
X0364038Y0421681D01*
G75*
G02*
X0363782Y0421937I0000000J0000256D01*
G01*
X0363782Y0423984D01*
G75*
G02*
X0364038Y0424240I0000256J0000000D01*
G01*
G37*
G36*
G01*
X0371125Y0424240D02*
X0373763Y0424240D01*
G75*
G02*
X0374019Y0423984I0000000J-000256D01*
G01*
X0374019Y0421937D01*
G75*
G02*
X0373763Y0421681I-000256J0000000D01*
G01*
X0371125Y0421681D01*
G75*
G02*
X0370869Y0421937I0000000J0000256D01*
G01*
X0370869Y0423984D01*
G75*
G02*
X0371125Y0424240I0000256J0000000D01*
G01*
G37*
G36*
G01*
X0371046Y0427292D02*
X0373841Y0427292D01*
G75*
G02*
X0374019Y0427114I0000000J-000177D01*
G01*
X0374019Y0425697D01*
G75*
G02*
X0373841Y0425520I-000177J0000000D01*
G01*
X0371046Y0425520D01*
G75*
G02*
X0370869Y0425697I0000000J0000177D01*
G01*
X0370869Y0427114D01*
G75*
G02*
X0371046Y0427292I0000177J0000000D01*
G01*
G37*
G36*
G01*
X0371046Y0430441D02*
X0373841Y0430441D01*
G75*
G02*
X0374019Y0430264I0000000J-000177D01*
G01*
X0374019Y0428847D01*
G75*
G02*
X0373841Y0428670I-000177J0000000D01*
G01*
X0371046Y0428670D01*
G75*
G02*
X0370869Y0428847I0000000J0000177D01*
G01*
X0370869Y0430264D01*
G75*
G02*
X0371046Y0430441I0000177J0000000D01*
G01*
G37*
G36*
G01*
X0371125Y0434280D02*
X0373763Y0434280D01*
G75*
G02*
X0374019Y0434024I0000000J-000256D01*
G01*
X0374019Y0431977D01*
G75*
G02*
X0373763Y0431721I-000256J0000000D01*
G01*
X0371125Y0431721D01*
G75*
G02*
X0370869Y0431977I0000000J0000256D01*
G01*
X0370869Y0434024D01*
G75*
G02*
X0371125Y0434280I0000256J0000000D01*
G01*
G37*
G36*
G01*
X0314612Y0267976D02*
X0314612Y0270614D01*
G75*
G02*
X0314868Y0270870I0000256J0000000D01*
G01*
X0316915Y0270870D01*
G75*
G02*
X0317171Y0270614I0000000J-000256D01*
G01*
X0317171Y0267976D01*
G75*
G02*
X0316915Y0267720I-000256J0000000D01*
G01*
X0314868Y0267720D01*
G75*
G02*
X0314612Y0267976I0000000J0000256D01*
G01*
G37*
G36*
G01*
X0318450Y0267897D02*
X0318450Y0270692D01*
G75*
G02*
X0318627Y0270870I0000177J0000000D01*
G01*
X0320045Y0270870D01*
G75*
G02*
X0320222Y0270692I0000000J-000177D01*
G01*
X0320222Y0267897D01*
G75*
G02*
X0320045Y0267720I-000177J0000000D01*
G01*
X0318627Y0267720D01*
G75*
G02*
X0318450Y0267897I0000000J0000177D01*
G01*
G37*
G36*
G01*
X0321600Y0267897D02*
X0321600Y0270692D01*
G75*
G02*
X0321777Y0270870I0000177J0000000D01*
G01*
X0323194Y0270870D01*
G75*
G02*
X0323371Y0270692I0000000J-000177D01*
G01*
X0323371Y0267897D01*
G75*
G02*
X0323194Y0267720I-000177J0000000D01*
G01*
X0321777Y0267720D01*
G75*
G02*
X0321600Y0267897I0000000J0000177D01*
G01*
G37*
G36*
G01*
X0324651Y0267976D02*
X0324651Y0270614D01*
G75*
G02*
X0324907Y0270870I0000256J0000000D01*
G01*
X0326954Y0270870D01*
G75*
G02*
X0327210Y0270614I0000000J-000256D01*
G01*
X0327210Y0267976D01*
G75*
G02*
X0326954Y0267720I-000256J0000000D01*
G01*
X0324907Y0267720D01*
G75*
G02*
X0324651Y0267976I0000000J0000256D01*
G01*
G37*
G36*
G01*
X0324651Y0275063D02*
X0324651Y0277700D01*
G75*
G02*
X0324907Y0277956I0000256J0000000D01*
G01*
X0326954Y0277956D01*
G75*
G02*
X0327210Y0277700I0000000J-000256D01*
G01*
X0327210Y0275063D01*
G75*
G02*
X0326954Y0274807I-000256J0000000D01*
G01*
X0324907Y0274807D01*
G75*
G02*
X0324651Y0275063I0000000J0000256D01*
G01*
G37*
G36*
G01*
X0321600Y0274984D02*
X0321600Y0277779D01*
G75*
G02*
X0321777Y0277956I0000177J0000000D01*
G01*
X0323194Y0277956D01*
G75*
G02*
X0323371Y0277779I0000000J-000177D01*
G01*
X0323371Y0274984D01*
G75*
G02*
X0323194Y0274807I-000177J0000000D01*
G01*
X0321777Y0274807D01*
G75*
G02*
X0321600Y0274984I0000000J0000177D01*
G01*
G37*
G36*
G01*
X0318450Y0274984D02*
X0318450Y0277779D01*
G75*
G02*
X0318627Y0277956I0000177J0000000D01*
G01*
X0320045Y0277956D01*
G75*
G02*
X0320222Y0277779I0000000J-000177D01*
G01*
X0320222Y0274984D01*
G75*
G02*
X0320045Y0274807I-000177J0000000D01*
G01*
X0318627Y0274807D01*
G75*
G02*
X0318450Y0274984I0000000J0000177D01*
G01*
G37*
G36*
G01*
X0314612Y0275063D02*
X0314612Y0277700D01*
G75*
G02*
X0314868Y0277956I0000256J0000000D01*
G01*
X0316915Y0277956D01*
G75*
G02*
X0317171Y0277700I0000000J-000256D01*
G01*
X0317171Y0275063D01*
G75*
G02*
X0316915Y0274807I-000256J0000000D01*
G01*
X0314868Y0274807D01*
G75*
G02*
X0314612Y0275063I0000000J0000256D01*
G01*
G37*
G36*
G01*
X0249647Y0336027D02*
X0253190Y0336027D01*
G75*
G02*
X0253584Y0335633I0000000J-000394D01*
G01*
X0253584Y0332483D01*
G75*
G02*
X0253190Y0332090I-000394J0000000D01*
G01*
X0249647Y0332090D01*
G75*
G02*
X0249253Y0332483I0000000J0000394D01*
G01*
X0249253Y0335633D01*
G75*
G02*
X0249647Y0336027I0000394J0000000D01*
G01*
G37*
G36*
G01*
X0249647Y0329334D02*
X0253190Y0329334D01*
G75*
G02*
X0253584Y0328940I0000000J-000394D01*
G01*
X0253584Y0325790D01*
G75*
G02*
X0253190Y0325397I-000394J0000000D01*
G01*
X0249647Y0325397D01*
G75*
G02*
X0249253Y0325790I0000000J0000394D01*
G01*
X0249253Y0328940D01*
G75*
G02*
X0249647Y0329334I0000394J0000000D01*
G01*
G37*
G36*
G01*
X0262639Y0336027D02*
X0266182Y0336027D01*
G75*
G02*
X0266576Y0335633I0000000J-000394D01*
G01*
X0266576Y0332483D01*
G75*
G02*
X0266182Y0332090I-000394J0000000D01*
G01*
X0262639Y0332090D01*
G75*
G02*
X0262245Y0332483I0000000J0000394D01*
G01*
X0262245Y0335633D01*
G75*
G02*
X0262639Y0336027I0000394J0000000D01*
G01*
G37*
G36*
G01*
X0262639Y0329334D02*
X0266182Y0329334D01*
G75*
G02*
X0266576Y0328940I0000000J-000394D01*
G01*
X0266576Y0325790D01*
G75*
G02*
X0266182Y0325397I-000394J0000000D01*
G01*
X0262639Y0325397D01*
G75*
G02*
X0262245Y0325790I0000000J0000394D01*
G01*
X0262245Y0328940D01*
G75*
G02*
X0262639Y0329334I0000394J0000000D01*
G01*
G37*
G36*
G01*
X0259095Y0335790D02*
X0259095Y0333901D01*
G75*
G02*
X0258859Y0333664I-000236J0000000D01*
G01*
X0256969Y0333664D01*
G75*
G02*
X0256733Y0333901I0000000J0000236D01*
G01*
X0256733Y0335790D01*
G75*
G02*
X0256969Y0336027I0000236J0000000D01*
G01*
X0258859Y0336027D01*
G75*
G02*
X0259095Y0335790I0000000J-000236D01*
G01*
G37*
G36*
G01*
X0259095Y0327129D02*
X0259095Y0325239D01*
G75*
G02*
X0258859Y0325003I-000236J0000000D01*
G01*
X0256969Y0325003D01*
G75*
G02*
X0256733Y0325239I0000000J0000236D01*
G01*
X0256733Y0327129D01*
G75*
G02*
X0256969Y0327365I0000236J0000000D01*
G01*
X0258859Y0327365D01*
G75*
G02*
X0259095Y0327129I0000000J-000236D01*
G01*
G37*
G36*
G01*
X0380948Y0439398D02*
X0382837Y0439398D01*
G75*
G02*
X0383074Y0439162I0000000J-000236D01*
G01*
X0383074Y0437272D01*
G75*
G02*
X0382837Y0437036I-000236J0000000D01*
G01*
X0380948Y0437036D01*
G75*
G02*
X0380711Y0437272I0000000J0000236D01*
G01*
X0380711Y0439162D01*
G75*
G02*
X0380948Y0439398I0000236J0000000D01*
G01*
G37*
G36*
G01*
X0389609Y0439398D02*
X0391499Y0439398D01*
G75*
G02*
X0391735Y0439162I0000000J-000236D01*
G01*
X0391735Y0437272D01*
G75*
G02*
X0391499Y0437036I-000236J0000000D01*
G01*
X0389609Y0437036D01*
G75*
G02*
X0389373Y0437272I0000000J0000236D01*
G01*
X0389373Y0439162D01*
G75*
G02*
X0389609Y0439398I0000236J0000000D01*
G01*
G37*
D86*
X0573799Y0249016D03*
X0585610Y0249016D03*
X0553720Y0274606D03*
X0558051Y0249016D03*
G36*
G01*
X0153291Y0525000D02*
X0148370Y0525000D01*
G75*
G02*
X0147976Y0525394I0000000J0000394D01*
G01*
X0147976Y0528543D01*
G75*
G02*
X0148370Y0528937I0000394J0000000D01*
G01*
X0153291Y0528937D01*
G75*
G02*
X0153685Y0528543I0000000J-000394D01*
G01*
X0153685Y0525394D01*
G75*
G02*
X0153291Y0525000I-000394J0000000D01*
G01*
G37*
G36*
G01*
X0153291Y0532480D02*
X0148370Y0532480D01*
G75*
G02*
X0147976Y0532874I0000000J0000394D01*
G01*
X0147976Y0536024D01*
G75*
G02*
X0148370Y0536417I0000394J0000000D01*
G01*
X0153291Y0536417D01*
G75*
G02*
X0153685Y0536024I0000000J-000394D01*
G01*
X0153685Y0532874D01*
G75*
G02*
X0153291Y0532480I-000394J0000000D01*
G01*
G37*
G36*
G01*
X0480413Y0484252D02*
X0475492Y0484252D01*
G75*
G02*
X0475098Y0484646I0000000J0000394D01*
G01*
X0475098Y0487795D01*
G75*
G02*
X0475492Y0488189I0000394J0000000D01*
G01*
X0480413Y0488189D01*
G75*
G02*
X0480807Y0487795I0000000J-000394D01*
G01*
X0480807Y0484646D01*
G75*
G02*
X0480413Y0484252I-000394J0000000D01*
G01*
G37*
G36*
G01*
X0480413Y0491732D02*
X0475492Y0491732D01*
G75*
G02*
X0475098Y0492126I0000000J0000394D01*
G01*
X0475098Y0495276D01*
G75*
G02*
X0475492Y0495669I0000394J0000000D01*
G01*
X0480413Y0495669D01*
G75*
G02*
X0480807Y0495276I0000000J-000394D01*
G01*
X0480807Y0492126D01*
G75*
G02*
X0480413Y0491732I-000394J0000000D01*
G01*
G37*
G36*
G01*
X0492268Y0499390D02*
X0487346Y0499390D01*
G75*
G02*
X0486953Y0499783I0000000J0000394D01*
G01*
X0486953Y0502933D01*
G75*
G02*
X0487346Y0503327I0000394J0000000D01*
G01*
X0492268Y0503327D01*
G75*
G02*
X0492661Y0502933I0000000J-000394D01*
G01*
X0492661Y0499783D01*
G75*
G02*
X0492268Y0499390I-000394J0000000D01*
G01*
G37*
G36*
G01*
X0492268Y0506870D02*
X0487346Y0506870D01*
G75*
G02*
X0486953Y0507264I0000000J0000394D01*
G01*
X0486953Y0510413D01*
G75*
G02*
X0487346Y0510807I0000394J0000000D01*
G01*
X0492268Y0510807D01*
G75*
G02*
X0492661Y0510413I0000000J-000394D01*
G01*
X0492661Y0507264D01*
G75*
G02*
X0492268Y0506870I-000394J0000000D01*
G01*
G37*
G36*
G01*
X0177756Y0387036D02*
X0181299Y0387036D01*
G75*
G02*
X0181693Y0386642I0000000J-000394D01*
G01*
X0181693Y0383492D01*
G75*
G02*
X0181299Y0383099I-000394J0000000D01*
G01*
X0177756Y0383099D01*
G75*
G02*
X0177362Y0383492I0000000J0000394D01*
G01*
X0177362Y0386642D01*
G75*
G02*
X0177756Y0387036I0000394J0000000D01*
G01*
G37*
G36*
G01*
X0177756Y0380343D02*
X0181299Y0380343D01*
G75*
G02*
X0181693Y0379949I0000000J-000394D01*
G01*
X0181693Y0376799D01*
G75*
G02*
X0181299Y0376406I-000394J0000000D01*
G01*
X0177756Y0376406D01*
G75*
G02*
X0177362Y0376799I0000000J0000394D01*
G01*
X0177362Y0379949D01*
G75*
G02*
X0177756Y0380343I0000394J0000000D01*
G01*
G37*
G36*
G01*
X0344688Y0328414D02*
X0344688Y0331484D01*
G75*
G02*
X0344963Y0331760I0000276J0000000D01*
G01*
X0347168Y0331760D01*
G75*
G02*
X0347444Y0331484I0000000J-000276D01*
G01*
X0347444Y0328414D01*
G75*
G02*
X0347168Y0328138I-000276J0000000D01*
G01*
X0344963Y0328138D01*
G75*
G02*
X0344688Y0328414I0000000J0000276D01*
G01*
G37*
G36*
G01*
X0350987Y0328414D02*
X0350987Y0331484D01*
G75*
G02*
X0351263Y0331760I0000276J0000000D01*
G01*
X0353467Y0331760D01*
G75*
G02*
X0353743Y0331484I0000000J-000276D01*
G01*
X0353743Y0328414D01*
G75*
G02*
X0353467Y0328138I-000276J0000000D01*
G01*
X0351263Y0328138D01*
G75*
G02*
X0350987Y0328414I0000000J0000276D01*
G01*
G37*
G36*
G01*
X0144488Y0387008D02*
X0148032Y0387008D01*
G75*
G02*
X0148425Y0386614I0000000J-000394D01*
G01*
X0148425Y0383465D01*
G75*
G02*
X0148032Y0383071I-000394J0000000D01*
G01*
X0144488Y0383071D01*
G75*
G02*
X0144094Y0383465I0000000J0000394D01*
G01*
X0144094Y0386614D01*
G75*
G02*
X0144488Y0387008I0000394J0000000D01*
G01*
G37*
G36*
G01*
X0144488Y0380315D02*
X0148032Y0380315D01*
G75*
G02*
X0148425Y0379921I0000000J-000394D01*
G01*
X0148425Y0376772D01*
G75*
G02*
X0148032Y0376378I-000394J0000000D01*
G01*
X0144488Y0376378D01*
G75*
G02*
X0144094Y0376772I0000000J0000394D01*
G01*
X0144094Y0379921D01*
G75*
G02*
X0144488Y0380315I0000394J0000000D01*
G01*
G37*
G36*
G01*
X0232031Y0499409D02*
X0227110Y0499409D01*
G75*
G02*
X0226716Y0499803I0000000J0000394D01*
G01*
X0226716Y0502953D01*
G75*
G02*
X0227110Y0503346I0000394J0000000D01*
G01*
X0232031Y0503346D01*
G75*
G02*
X0232425Y0502953I0000000J-000394D01*
G01*
X0232425Y0499803D01*
G75*
G02*
X0232031Y0499409I-000394J0000000D01*
G01*
G37*
G36*
G01*
X0232031Y0506890D02*
X0227110Y0506890D01*
G75*
G02*
X0226716Y0507284I0000000J0000394D01*
G01*
X0226716Y0510433D01*
G75*
G02*
X0227110Y0510827I0000394J0000000D01*
G01*
X0232031Y0510827D01*
G75*
G02*
X0232425Y0510433I0000000J-000394D01*
G01*
X0232425Y0507284D01*
G75*
G02*
X0232031Y0506890I-000394J0000000D01*
G01*
G37*
G36*
G01*
X0174409Y0386772D02*
X0174409Y0384882D01*
G75*
G02*
X0174173Y0384646I-000236J0000000D01*
G01*
X0172283Y0384646D01*
G75*
G02*
X0172047Y0384882I0000000J0000236D01*
G01*
X0172047Y0386772D01*
G75*
G02*
X0172283Y0387008I0000236J0000000D01*
G01*
X0174173Y0387008D01*
G75*
G02*
X0174409Y0386772I0000000J-000236D01*
G01*
G37*
G36*
G01*
X0174409Y0378110D02*
X0174409Y0376220D01*
G75*
G02*
X0174173Y0375984I-000236J0000000D01*
G01*
X0172283Y0375984D01*
G75*
G02*
X0172047Y0376220I0000000J0000236D01*
G01*
X0172047Y0378110D01*
G75*
G02*
X0172283Y0378346I0000236J0000000D01*
G01*
X0174173Y0378346D01*
G75*
G02*
X0174409Y0378110I0000000J-000236D01*
G01*
G37*
G36*
G01*
X0200535Y0525000D02*
X0195614Y0525000D01*
G75*
G02*
X0195220Y0525394I0000000J0000394D01*
G01*
X0195220Y0528543D01*
G75*
G02*
X0195614Y0528937I0000394J0000000D01*
G01*
X0200535Y0528937D01*
G75*
G02*
X0200929Y0528543I0000000J-000394D01*
G01*
X0200929Y0525394D01*
G75*
G02*
X0200535Y0525000I-000394J0000000D01*
G01*
G37*
G36*
G01*
X0200535Y0532480D02*
X0195614Y0532480D01*
G75*
G02*
X0195220Y0532874I0000000J0000394D01*
G01*
X0195220Y0536024D01*
G75*
G02*
X0195614Y0536417I0000394J0000000D01*
G01*
X0200535Y0536417D01*
G75*
G02*
X0200929Y0536024I0000000J-000394D01*
G01*
X0200929Y0532874D01*
G75*
G02*
X0200535Y0532480I-000394J0000000D01*
G01*
G37*
D156*
X0257055Y0125807D03*
X0257055Y0127775D03*
X0257055Y0129744D03*
X0257055Y0131712D03*
D242*
X0255037Y0131761D03*
X0253068Y0131761D03*
D156*
X0251051Y0131712D03*
X0251051Y0129744D03*
X0251051Y0127775D03*
X0251051Y0125807D03*
D242*
X0253068Y0125757D03*
X0255037Y0125757D03*
D254*
X0175394Y0068898D03*
X0060039Y0068898D03*
G36*
G01*
X0109098Y0447894D02*
X0109098Y0450531D01*
G75*
G02*
X0109354Y0450787I0000256J0000000D01*
G01*
X0111401Y0450787D01*
G75*
G02*
X0111657Y0450531I0000000J-000256D01*
G01*
X0111657Y0447894D01*
G75*
G02*
X0111401Y0447638I-000256J0000000D01*
G01*
X0109354Y0447638D01*
G75*
G02*
X0109098Y0447894I0000000J0000256D01*
G01*
G37*
G36*
G01*
X0112937Y0447815D02*
X0112937Y0450610D01*
G75*
G02*
X0113114Y0450787I0000177J0000000D01*
G01*
X0114531Y0450787D01*
G75*
G02*
X0114709Y0450610I0000000J-000177D01*
G01*
X0114709Y0447815D01*
G75*
G02*
X0114531Y0447638I-000177J0000000D01*
G01*
X0113114Y0447638D01*
G75*
G02*
X0112937Y0447815I0000000J0000177D01*
G01*
G37*
G36*
G01*
X0116086Y0447815D02*
X0116086Y0450610D01*
G75*
G02*
X0116264Y0450787I0000177J0000000D01*
G01*
X0117681Y0450787D01*
G75*
G02*
X0117858Y0450610I0000000J-000177D01*
G01*
X0117858Y0447815D01*
G75*
G02*
X0117681Y0447638I-000177J0000000D01*
G01*
X0116264Y0447638D01*
G75*
G02*
X0116086Y0447815I0000000J0000177D01*
G01*
G37*
G36*
G01*
X0119138Y0447894D02*
X0119138Y0450531D01*
G75*
G02*
X0119394Y0450787I0000256J0000000D01*
G01*
X0121441Y0450787D01*
G75*
G02*
X0121697Y0450531I0000000J-000256D01*
G01*
X0121697Y0447894D01*
G75*
G02*
X0121441Y0447638I-000256J0000000D01*
G01*
X0119394Y0447638D01*
G75*
G02*
X0119138Y0447894I0000000J0000256D01*
G01*
G37*
G36*
G01*
X0119138Y0454980D02*
X0119138Y0457618D01*
G75*
G02*
X0119394Y0457874I0000256J0000000D01*
G01*
X0121441Y0457874D01*
G75*
G02*
X0121697Y0457618I0000000J-000256D01*
G01*
X0121697Y0454980D01*
G75*
G02*
X0121441Y0454724I-000256J0000000D01*
G01*
X0119394Y0454724D01*
G75*
G02*
X0119138Y0454980I0000000J0000256D01*
G01*
G37*
G36*
G01*
X0116086Y0454902D02*
X0116086Y0457697D01*
G75*
G02*
X0116264Y0457874I0000177J0000000D01*
G01*
X0117681Y0457874D01*
G75*
G02*
X0117858Y0457697I0000000J-000177D01*
G01*
X0117858Y0454902D01*
G75*
G02*
X0117681Y0454724I-000177J0000000D01*
G01*
X0116264Y0454724D01*
G75*
G02*
X0116086Y0454902I0000000J0000177D01*
G01*
G37*
G36*
G01*
X0112937Y0454902D02*
X0112937Y0457697D01*
G75*
G02*
X0113114Y0457874I0000177J0000000D01*
G01*
X0114531Y0457874D01*
G75*
G02*
X0114709Y0457697I0000000J-000177D01*
G01*
X0114709Y0454902D01*
G75*
G02*
X0114531Y0454724I-000177J0000000D01*
G01*
X0113114Y0454724D01*
G75*
G02*
X0112937Y0454902I0000000J0000177D01*
G01*
G37*
G36*
G01*
X0109098Y0454980D02*
X0109098Y0457618D01*
G75*
G02*
X0109354Y0457874I0000256J0000000D01*
G01*
X0111401Y0457874D01*
G75*
G02*
X0111657Y0457618I0000000J-000256D01*
G01*
X0111657Y0454980D01*
G75*
G02*
X0111401Y0454724I-000256J0000000D01*
G01*
X0109354Y0454724D01*
G75*
G02*
X0109098Y0454980I0000000J0000256D01*
G01*
G37*
G36*
G01*
X0178789Y0045911D02*
X0178789Y0047801D01*
G75*
G02*
X0179026Y0048037I0000236J0000000D01*
G01*
X0180915Y0048037D01*
G75*
G02*
X0181152Y0047801I0000000J-000236D01*
G01*
X0181152Y0045911D01*
G75*
G02*
X0180915Y0045675I-000236J0000000D01*
G01*
X0179026Y0045675D01*
G75*
G02*
X0178789Y0045911I0000000J0000236D01*
G01*
G37*
G36*
G01*
X0178789Y0054573D02*
X0178789Y0056463D01*
G75*
G02*
X0179026Y0056699I0000236J0000000D01*
G01*
X0180915Y0056699D01*
G75*
G02*
X0181152Y0056463I0000000J-000236D01*
G01*
X0181152Y0054573D01*
G75*
G02*
X0180915Y0054337I-000236J0000000D01*
G01*
X0179026Y0054337D01*
G75*
G02*
X0178789Y0054573I0000000J0000236D01*
G01*
G37*
G36*
G01*
X0267438Y0050885D02*
X0267438Y0046003D01*
G75*
G02*
X0266927Y0045492I-000512J0000000D01*
G01*
X0262832Y0045492D01*
G75*
G02*
X0262320Y0046003I0000000J0000512D01*
G01*
X0262320Y0050885D01*
G75*
G02*
X0262832Y0051397I0000512J0000000D01*
G01*
X0266927Y0051397D01*
G75*
G02*
X0267438Y0050885I0000000J-000512D01*
G01*
G37*
G36*
G01*
X0274919Y0050885D02*
X0274919Y0046003D01*
G75*
G02*
X0274407Y0045492I-000512J0000000D01*
G01*
X0270312Y0045492D01*
G75*
G02*
X0269801Y0046003I0000000J0000512D01*
G01*
X0269801Y0050885D01*
G75*
G02*
X0270312Y0051397I0000512J0000000D01*
G01*
X0274407Y0051397D01*
G75*
G02*
X0274919Y0050885I0000000J-000512D01*
G01*
G37*
G36*
G01*
X0111105Y0469291D02*
X0106223Y0469291D01*
G75*
G02*
X0105711Y0469803I0000000J0000512D01*
G01*
X0105711Y0473898D01*
G75*
G02*
X0106223Y0474410I0000512J0000000D01*
G01*
X0111105Y0474410D01*
G75*
G02*
X0111617Y0473898I0000000J-000512D01*
G01*
X0111617Y0469803D01*
G75*
G02*
X0111105Y0469291I-000512J0000000D01*
G01*
G37*
G36*
G01*
X0111105Y0461811D02*
X0106223Y0461811D01*
G75*
G02*
X0105711Y0462323I0000000J0000512D01*
G01*
X0105711Y0466417D01*
G75*
G02*
X0106223Y0466929I0000512J0000000D01*
G01*
X0111105Y0466929D01*
G75*
G02*
X0111617Y0466417I0000000J-000512D01*
G01*
X0111617Y0462323D01*
G75*
G02*
X0111105Y0461811I-000512J0000000D01*
G01*
G37*
D172*
X0076778Y0538007D03*
X0098442Y0537672D03*
G36*
G01*
X0115853Y0503263D02*
X0115853Y0503263D01*
X0115853Y0503263D01*
X0115853Y0503263D01*
X0115853Y0503263D01*
G37*
X0104042Y0501295D03*
G36*
G01*
X0164961Y0387008D02*
X0168504Y0387008D01*
G75*
G02*
X0168898Y0386614I0000000J-000394D01*
G01*
X0168898Y0383465D01*
G75*
G02*
X0168504Y0383071I-000394J0000000D01*
G01*
X0164961Y0383071D01*
G75*
G02*
X0164567Y0383465I0000000J0000394D01*
G01*
X0164567Y0386614D01*
G75*
G02*
X0164961Y0387008I0000394J0000000D01*
G01*
G37*
G36*
G01*
X0164961Y0380315D02*
X0168504Y0380315D01*
G75*
G02*
X0168898Y0379921I0000000J-000394D01*
G01*
X0168898Y0376772D01*
G75*
G02*
X0168504Y0376378I-000394J0000000D01*
G01*
X0164961Y0376378D01*
G75*
G02*
X0164567Y0376772I0000000J0000394D01*
G01*
X0164567Y0379921D01*
G75*
G02*
X0164961Y0380315I0000394J0000000D01*
G01*
G37*
G36*
G01*
X0489091Y0214510D02*
X0485548Y0214510D01*
G75*
G02*
X0485154Y0214904I0000000J0000394D01*
G01*
X0485154Y0218053D01*
G75*
G02*
X0485548Y0218447I0000394J0000000D01*
G01*
X0489091Y0218447D01*
G75*
G02*
X0489485Y0218053I0000000J-000394D01*
G01*
X0489485Y0214904D01*
G75*
G02*
X0489091Y0214510I-000394J0000000D01*
G01*
G37*
G36*
G01*
X0489091Y0221203D02*
X0485548Y0221203D01*
G75*
G02*
X0485154Y0221596I0000000J0000394D01*
G01*
X0485154Y0224746D01*
G75*
G02*
X0485548Y0225140I0000394J0000000D01*
G01*
X0489091Y0225140D01*
G75*
G02*
X0489485Y0224746I0000000J-000394D01*
G01*
X0489485Y0221596D01*
G75*
G02*
X0489091Y0221203I-000394J0000000D01*
G01*
G37*
G36*
G01*
X0504941Y0359252D02*
X0506122Y0359252D01*
G75*
G02*
X0506713Y0358661I0000000J-000591D01*
G01*
X0506713Y0352165D01*
G75*
G02*
X0506122Y0351575I-000591J0000000D01*
G01*
X0504941Y0351575D01*
G75*
G02*
X0504350Y0352165I0000000J0000591D01*
G01*
X0504350Y0358661D01*
G75*
G02*
X0504941Y0359252I0000591J0000000D01*
G01*
G37*
G36*
G01*
X0499941Y0359252D02*
X0501122Y0359252D01*
G75*
G02*
X0501713Y0358661I0000000J-000591D01*
G01*
X0501713Y0352165D01*
G75*
G02*
X0501122Y0351575I-000591J0000000D01*
G01*
X0499941Y0351575D01*
G75*
G02*
X0499350Y0352165I0000000J0000591D01*
G01*
X0499350Y0358661D01*
G75*
G02*
X0499941Y0359252I0000591J0000000D01*
G01*
G37*
G36*
G01*
X0494941Y0359252D02*
X0496122Y0359252D01*
G75*
G02*
X0496713Y0358661I0000000J-000591D01*
G01*
X0496713Y0352165D01*
G75*
G02*
X0496122Y0351575I-000591J0000000D01*
G01*
X0494941Y0351575D01*
G75*
G02*
X0494350Y0352165I0000000J0000591D01*
G01*
X0494350Y0358661D01*
G75*
G02*
X0494941Y0359252I0000591J0000000D01*
G01*
G37*
G36*
G01*
X0489941Y0359252D02*
X0491122Y0359252D01*
G75*
G02*
X0491713Y0358661I0000000J-000591D01*
G01*
X0491713Y0352165D01*
G75*
G02*
X0491122Y0351575I-000591J0000000D01*
G01*
X0489941Y0351575D01*
G75*
G02*
X0489350Y0352165I0000000J0000591D01*
G01*
X0489350Y0358661D01*
G75*
G02*
X0489941Y0359252I0000591J0000000D01*
G01*
G37*
G36*
G01*
X0489941Y0339764D02*
X0491122Y0339764D01*
G75*
G02*
X0491713Y0339173I0000000J-000591D01*
G01*
X0491713Y0332677D01*
G75*
G02*
X0491122Y0332087I-000591J0000000D01*
G01*
X0489941Y0332087D01*
G75*
G02*
X0489350Y0332677I0000000J0000591D01*
G01*
X0489350Y0339173D01*
G75*
G02*
X0489941Y0339764I0000591J0000000D01*
G01*
G37*
G36*
G01*
X0494941Y0339764D02*
X0496122Y0339764D01*
G75*
G02*
X0496713Y0339173I0000000J-000591D01*
G01*
X0496713Y0332677D01*
G75*
G02*
X0496122Y0332087I-000591J0000000D01*
G01*
X0494941Y0332087D01*
G75*
G02*
X0494350Y0332677I0000000J0000591D01*
G01*
X0494350Y0339173D01*
G75*
G02*
X0494941Y0339764I0000591J0000000D01*
G01*
G37*
G36*
G01*
X0499941Y0339764D02*
X0501122Y0339764D01*
G75*
G02*
X0501713Y0339173I0000000J-000591D01*
G01*
X0501713Y0332677D01*
G75*
G02*
X0501122Y0332087I-000591J0000000D01*
G01*
X0499941Y0332087D01*
G75*
G02*
X0499350Y0332677I0000000J0000591D01*
G01*
X0499350Y0339173D01*
G75*
G02*
X0499941Y0339764I0000591J0000000D01*
G01*
G37*
G36*
G01*
X0504941Y0339764D02*
X0506122Y0339764D01*
G75*
G02*
X0506713Y0339173I0000000J-000591D01*
G01*
X0506713Y0332677D01*
G75*
G02*
X0506122Y0332087I-000591J0000000D01*
G01*
X0504941Y0332087D01*
G75*
G02*
X0504350Y0332677I0000000J0000591D01*
G01*
X0504350Y0339173D01*
G75*
G02*
X0504941Y0339764I0000591J0000000D01*
G01*
G37*
G36*
G01*
X0456834Y0499390D02*
X0451913Y0499390D01*
G75*
G02*
X0451520Y0499783I0000000J0000394D01*
G01*
X0451520Y0502933D01*
G75*
G02*
X0451913Y0503327I0000394J0000000D01*
G01*
X0456834Y0503327D01*
G75*
G02*
X0457228Y0502933I0000000J-000394D01*
G01*
X0457228Y0499783D01*
G75*
G02*
X0456834Y0499390I-000394J0000000D01*
G01*
G37*
G36*
G01*
X0456834Y0506870D02*
X0451913Y0506870D01*
G75*
G02*
X0451520Y0507264I0000000J0000394D01*
G01*
X0451520Y0510413D01*
G75*
G02*
X0451913Y0510807I0000394J0000000D01*
G01*
X0456834Y0510807D01*
G75*
G02*
X0457228Y0510413I0000000J-000394D01*
G01*
X0457228Y0507264D01*
G75*
G02*
X0456834Y0506870I-000394J0000000D01*
G01*
G37*
G36*
G01*
X0405318Y0433453D02*
X0405318Y0430382D01*
G75*
G02*
X0405042Y0430107I-000276J0000000D01*
G01*
X0402837Y0430107D01*
G75*
G02*
X0402562Y0430382I0000000J0000276D01*
G01*
X0402562Y0433453D01*
G75*
G02*
X0402837Y0433729I0000276J0000000D01*
G01*
X0405042Y0433729D01*
G75*
G02*
X0405318Y0433453I0000000J-000276D01*
G01*
G37*
G36*
G01*
X0399019Y0433453D02*
X0399019Y0430382D01*
G75*
G02*
X0398743Y0430107I-000276J0000000D01*
G01*
X0396538Y0430107D01*
G75*
G02*
X0396263Y0430382I0000000J0000276D01*
G01*
X0396263Y0433453D01*
G75*
G02*
X0396538Y0433729I0000276J0000000D01*
G01*
X0398743Y0433729D01*
G75*
G02*
X0399019Y0433453I0000000J-000276D01*
G01*
G37*
G36*
G01*
X0116972Y0473780D02*
X0116972Y0471890D01*
G75*
G02*
X0116736Y0471654I-000236J0000000D01*
G01*
X0114846Y0471654D01*
G75*
G02*
X0114610Y0471890I0000000J0000236D01*
G01*
X0114610Y0473780D01*
G75*
G02*
X0114846Y0474016I0000236J0000000D01*
G01*
X0116736Y0474016D01*
G75*
G02*
X0116972Y0473780I0000000J-000236D01*
G01*
G37*
G36*
G01*
X0116972Y0465118D02*
X0116972Y0463228D01*
G75*
G02*
X0116736Y0462992I-000236J0000000D01*
G01*
X0114846Y0462992D01*
G75*
G02*
X0114610Y0463228I0000000J0000236D01*
G01*
X0114610Y0465118D01*
G75*
G02*
X0114846Y0465354I0000236J0000000D01*
G01*
X0116736Y0465354D01*
G75*
G02*
X0116972Y0465118I0000000J-000236D01*
G01*
G37*
G36*
G01*
X0194630Y0499409D02*
X0189709Y0499409D01*
G75*
G02*
X0189315Y0499803I0000000J0000394D01*
G01*
X0189315Y0502953D01*
G75*
G02*
X0189709Y0503346I0000394J0000000D01*
G01*
X0194630Y0503346D01*
G75*
G02*
X0195023Y0502953I0000000J-000394D01*
G01*
X0195023Y0499803D01*
G75*
G02*
X0194630Y0499409I-000394J0000000D01*
G01*
G37*
G36*
G01*
X0194630Y0506890D02*
X0189709Y0506890D01*
G75*
G02*
X0189315Y0507284I0000000J0000394D01*
G01*
X0189315Y0510433D01*
G75*
G02*
X0189709Y0510827I0000394J0000000D01*
G01*
X0194630Y0510827D01*
G75*
G02*
X0195023Y0510433I0000000J-000394D01*
G01*
X0195023Y0507284D01*
G75*
G02*
X0194630Y0506890I-000394J0000000D01*
G01*
G37*
G36*
G01*
X0176913Y0525000D02*
X0171992Y0525000D01*
G75*
G02*
X0171598Y0525394I0000000J0000394D01*
G01*
X0171598Y0528543D01*
G75*
G02*
X0171992Y0528937I0000394J0000000D01*
G01*
X0176913Y0528937D01*
G75*
G02*
X0177307Y0528543I0000000J-000394D01*
G01*
X0177307Y0525394D01*
G75*
G02*
X0176913Y0525000I-000394J0000000D01*
G01*
G37*
G36*
G01*
X0176913Y0532480D02*
X0171992Y0532480D01*
G75*
G02*
X0171598Y0532874I0000000J0000394D01*
G01*
X0171598Y0536024D01*
G75*
G02*
X0171992Y0536417I0000394J0000000D01*
G01*
X0176913Y0536417D01*
G75*
G02*
X0177307Y0536024I0000000J-000394D01*
G01*
X0177307Y0532874D01*
G75*
G02*
X0176913Y0532480I-000394J0000000D01*
G01*
G37*
G36*
G01*
X0157480Y0387008D02*
X0161024Y0387008D01*
G75*
G02*
X0161417Y0386614I0000000J-000394D01*
G01*
X0161417Y0383465D01*
G75*
G02*
X0161024Y0383071I-000394J0000000D01*
G01*
X0157480Y0383071D01*
G75*
G02*
X0157087Y0383465I0000000J0000394D01*
G01*
X0157087Y0386614D01*
G75*
G02*
X0157480Y0387008I0000394J0000000D01*
G01*
G37*
G36*
G01*
X0157480Y0380315D02*
X0161024Y0380315D01*
G75*
G02*
X0161417Y0379921I0000000J-000394D01*
G01*
X0161417Y0376772D01*
G75*
G02*
X0161024Y0376378I-000394J0000000D01*
G01*
X0157480Y0376378D01*
G75*
G02*
X0157087Y0376772I0000000J0000394D01*
G01*
X0157087Y0379921D01*
G75*
G02*
X0157480Y0380315I0000394J0000000D01*
G01*
G37*
G36*
G01*
X0187008Y0386794D02*
X0187008Y0384904D01*
G75*
G02*
X0186772Y0384668I-000236J0000000D01*
G01*
X0184882Y0384668D01*
G75*
G02*
X0184646Y0384904I0000000J0000236D01*
G01*
X0184646Y0386794D01*
G75*
G02*
X0184882Y0387030I0000236J0000000D01*
G01*
X0186772Y0387030D01*
G75*
G02*
X0187008Y0386794I0000000J-000236D01*
G01*
G37*
G36*
G01*
X0187008Y0378132D02*
X0187008Y0376242D01*
G75*
G02*
X0186772Y0376006I-000236J0000000D01*
G01*
X0184882Y0376006D01*
G75*
G02*
X0184646Y0376242I0000000J0000236D01*
G01*
X0184646Y0378132D01*
G75*
G02*
X0184882Y0378368I0000236J0000000D01*
G01*
X0186772Y0378368D01*
G75*
G02*
X0187008Y0378132I0000000J-000236D01*
G01*
G37*
G36*
G01*
X0380711Y0422469D02*
X0380711Y0426012D01*
G75*
G02*
X0381105Y0426406I0000394J0000000D01*
G01*
X0384255Y0426406D01*
G75*
G02*
X0384648Y0426012I0000000J-000394D01*
G01*
X0384648Y0422469D01*
G75*
G02*
X0384255Y0422075I-000394J0000000D01*
G01*
X0381105Y0422075D01*
G75*
G02*
X0380711Y0422469I0000000J0000394D01*
G01*
G37*
G36*
G01*
X0387404Y0422469D02*
X0387404Y0426012D01*
G75*
G02*
X0387798Y0426406I0000394J0000000D01*
G01*
X0390948Y0426406D01*
G75*
G02*
X0391341Y0426012I0000000J-000394D01*
G01*
X0391341Y0422469D01*
G75*
G02*
X0390948Y0422075I-000394J0000000D01*
G01*
X0387798Y0422075D01*
G75*
G02*
X0387404Y0422469I0000000J0000394D01*
G01*
G37*
G36*
G01*
X0171008Y0499409D02*
X0166086Y0499409D01*
G75*
G02*
X0165693Y0499803I0000000J0000394D01*
G01*
X0165693Y0502953D01*
G75*
G02*
X0166086Y0503346I0000394J0000000D01*
G01*
X0171008Y0503346D01*
G75*
G02*
X0171401Y0502953I0000000J-000394D01*
G01*
X0171401Y0499803D01*
G75*
G02*
X0171008Y0499409I-000394J0000000D01*
G01*
G37*
G36*
G01*
X0171008Y0506890D02*
X0166086Y0506890D01*
G75*
G02*
X0165693Y0507284I0000000J0000394D01*
G01*
X0165693Y0510433D01*
G75*
G02*
X0166086Y0510827I0000394J0000000D01*
G01*
X0171008Y0510827D01*
G75*
G02*
X0171401Y0510433I0000000J-000394D01*
G01*
X0171401Y0507284D01*
G75*
G02*
X0171008Y0506890I-000394J0000000D01*
G01*
G37*
G36*
G01*
X0247779Y0525000D02*
X0242858Y0525000D01*
G75*
G02*
X0242464Y0525394I0000000J0000394D01*
G01*
X0242464Y0528543D01*
G75*
G02*
X0242858Y0528937I0000394J0000000D01*
G01*
X0247779Y0528937D01*
G75*
G02*
X0248173Y0528543I0000000J-000394D01*
G01*
X0248173Y0525394D01*
G75*
G02*
X0247779Y0525000I-000394J0000000D01*
G01*
G37*
G36*
G01*
X0247779Y0532480D02*
X0242858Y0532480D01*
G75*
G02*
X0242464Y0532874I0000000J0000394D01*
G01*
X0242464Y0536024D01*
G75*
G02*
X0242858Y0536417I0000394J0000000D01*
G01*
X0247779Y0536417D01*
G75*
G02*
X0248173Y0536024I0000000J-000394D01*
G01*
X0248173Y0532874D01*
G75*
G02*
X0247779Y0532480I-000394J0000000D01*
G01*
G37*
G36*
G01*
X0531638Y0499390D02*
X0526716Y0499390D01*
G75*
G02*
X0526323Y0499783I0000000J0000394D01*
G01*
X0526323Y0502933D01*
G75*
G02*
X0526716Y0503327I0000394J0000000D01*
G01*
X0531638Y0503327D01*
G75*
G02*
X0532031Y0502933I0000000J-000394D01*
G01*
X0532031Y0499783D01*
G75*
G02*
X0531638Y0499390I-000394J0000000D01*
G01*
G37*
G36*
G01*
X0531638Y0506870D02*
X0526716Y0506870D01*
G75*
G02*
X0526323Y0507264I0000000J0000394D01*
G01*
X0526323Y0510413D01*
G75*
G02*
X0526716Y0510807I0000394J0000000D01*
G01*
X0531638Y0510807D01*
G75*
G02*
X0532031Y0510413I0000000J-000394D01*
G01*
X0532031Y0507264D01*
G75*
G02*
X0531638Y0506870I-000394J0000000D01*
G01*
G37*
G36*
G01*
X0327171Y0283271D02*
X0324100Y0283271D01*
G75*
G02*
X0323864Y0283507I0000000J0000236D01*
G01*
X0323864Y0285397D01*
G75*
G02*
X0324100Y0285633I0000236J0000000D01*
G01*
X0327171Y0285633D01*
G75*
G02*
X0327407Y0285397I0000000J-000236D01*
G01*
X0327407Y0283507D01*
G75*
G02*
X0327171Y0283271I-000236J0000000D01*
G01*
G37*
G36*
G01*
X0327171Y0287011D02*
X0324100Y0287011D01*
G75*
G02*
X0323864Y0287248I0000000J0000236D01*
G01*
X0323864Y0289137D01*
G75*
G02*
X0324100Y0289374I0000236J0000000D01*
G01*
X0327171Y0289374D01*
G75*
G02*
X0327407Y0289137I0000000J-000236D01*
G01*
X0327407Y0287248D01*
G75*
G02*
X0327171Y0287011I-000236J0000000D01*
G01*
G37*
G36*
G01*
X0327171Y0290751D02*
X0324100Y0290751D01*
G75*
G02*
X0323864Y0290988I0000000J0000236D01*
G01*
X0323864Y0292877D01*
G75*
G02*
X0324100Y0293114I0000236J0000000D01*
G01*
X0327171Y0293114D01*
G75*
G02*
X0327407Y0292877I0000000J-000236D01*
G01*
X0327407Y0290988D01*
G75*
G02*
X0327171Y0290751I-000236J0000000D01*
G01*
G37*
G36*
G01*
X0317722Y0290751D02*
X0314651Y0290751D01*
G75*
G02*
X0314415Y0290988I0000000J0000236D01*
G01*
X0314415Y0292877D01*
G75*
G02*
X0314651Y0293114I0000236J0000000D01*
G01*
X0317722Y0293114D01*
G75*
G02*
X0317958Y0292877I0000000J-000236D01*
G01*
X0317958Y0290988D01*
G75*
G02*
X0317722Y0290751I-000236J0000000D01*
G01*
G37*
G36*
G01*
X0317722Y0287011D02*
X0314651Y0287011D01*
G75*
G02*
X0314415Y0287248I0000000J0000236D01*
G01*
X0314415Y0289137D01*
G75*
G02*
X0314651Y0289374I0000236J0000000D01*
G01*
X0317722Y0289374D01*
G75*
G02*
X0317958Y0289137I0000000J-000236D01*
G01*
X0317958Y0287248D01*
G75*
G02*
X0317722Y0287011I-000236J0000000D01*
G01*
G37*
G36*
G01*
X0317722Y0283271D02*
X0314651Y0283271D01*
G75*
G02*
X0314415Y0283507I0000000J0000236D01*
G01*
X0314415Y0285397D01*
G75*
G02*
X0314651Y0285633I0000236J0000000D01*
G01*
X0317722Y0285633D01*
G75*
G02*
X0317958Y0285397I0000000J-000236D01*
G01*
X0317958Y0283507D01*
G75*
G02*
X0317722Y0283271I-000236J0000000D01*
G01*
G37*
G36*
G01*
X0525732Y0525000D02*
X0520811Y0525000D01*
G75*
G02*
X0520417Y0525394I0000000J0000394D01*
G01*
X0520417Y0528543D01*
G75*
G02*
X0520811Y0528937I0000394J0000000D01*
G01*
X0525732Y0528937D01*
G75*
G02*
X0526126Y0528543I0000000J-000394D01*
G01*
X0526126Y0525394D01*
G75*
G02*
X0525732Y0525000I-000394J0000000D01*
G01*
G37*
G36*
G01*
X0525732Y0532480D02*
X0520811Y0532480D01*
G75*
G02*
X0520417Y0532874I0000000J0000394D01*
G01*
X0520417Y0536024D01*
G75*
G02*
X0520811Y0536417I0000394J0000000D01*
G01*
X0525732Y0536417D01*
G75*
G02*
X0526126Y0536024I0000000J-000394D01*
G01*
X0526126Y0532874D01*
G75*
G02*
X0525732Y0532480I-000394J0000000D01*
G01*
G37*
G36*
G01*
X0428291Y0487972D02*
X0433212Y0487972D01*
G75*
G02*
X0433606Y0487579I0000000J-000394D01*
G01*
X0433606Y0484429D01*
G75*
G02*
X0433212Y0484035I-000394J0000000D01*
G01*
X0428291Y0484035D01*
G75*
G02*
X0427897Y0484429I0000000J0000394D01*
G01*
X0427897Y0487579D01*
G75*
G02*
X0428291Y0487972I0000394J0000000D01*
G01*
G37*
G36*
G01*
X0428291Y0480492D02*
X0433212Y0480492D01*
G75*
G02*
X0433606Y0480098I0000000J-000394D01*
G01*
X0433606Y0476949D01*
G75*
G02*
X0433212Y0476555I-000394J0000000D01*
G01*
X0428291Y0476555D01*
G75*
G02*
X0427897Y0476949I0000000J0000394D01*
G01*
X0427897Y0480098D01*
G75*
G02*
X0428291Y0480492I0000394J0000000D01*
G01*
G37*
X0412271Y0099796D03*
G36*
G01*
X0405318Y0425973D02*
X0405318Y0422902D01*
G75*
G02*
X0405042Y0422626I-000276J0000000D01*
G01*
X0402837Y0422626D01*
G75*
G02*
X0402562Y0422902I0000000J0000276D01*
G01*
X0402562Y0425973D01*
G75*
G02*
X0402837Y0426248I0000276J0000000D01*
G01*
X0405042Y0426248D01*
G75*
G02*
X0405318Y0425973I0000000J-000276D01*
G01*
G37*
G36*
G01*
X0399019Y0425973D02*
X0399019Y0422902D01*
G75*
G02*
X0398743Y0422626I-000276J0000000D01*
G01*
X0396538Y0422626D01*
G75*
G02*
X0396263Y0422902I0000000J0000276D01*
G01*
X0396263Y0425973D01*
G75*
G02*
X0396538Y0426248I0000276J0000000D01*
G01*
X0398743Y0426248D01*
G75*
G02*
X0399019Y0425973I0000000J-000276D01*
G01*
G37*
G36*
G01*
X0224511Y0499437D02*
X0219589Y0499437D01*
G75*
G02*
X0219196Y0499831I0000000J0000394D01*
G01*
X0219196Y0502981D01*
G75*
G02*
X0219589Y0503374I0000394J0000000D01*
G01*
X0224511Y0503374D01*
G75*
G02*
X0224904Y0502981I0000000J-000394D01*
G01*
X0224904Y0499831D01*
G75*
G02*
X0224511Y0499437I-000394J0000000D01*
G01*
G37*
G36*
G01*
X0224511Y0506918D02*
X0219589Y0506918D01*
G75*
G02*
X0219196Y0507311I0000000J0000394D01*
G01*
X0219196Y0510461D01*
G75*
G02*
X0219589Y0510855I0000394J0000000D01*
G01*
X0224511Y0510855D01*
G75*
G02*
X0224904Y0510461I0000000J-000394D01*
G01*
X0224904Y0507311D01*
G75*
G02*
X0224511Y0506918I-000394J0000000D01*
G01*
G37*
G36*
G01*
X0159197Y0499409D02*
X0154275Y0499409D01*
G75*
G02*
X0153882Y0499803I0000000J0000394D01*
G01*
X0153882Y0502953D01*
G75*
G02*
X0154275Y0503346I0000394J0000000D01*
G01*
X0159197Y0503346D01*
G75*
G02*
X0159590Y0502953I0000000J-000394D01*
G01*
X0159590Y0499803D01*
G75*
G02*
X0159197Y0499409I-000394J0000000D01*
G01*
G37*
G36*
G01*
X0159197Y0506890D02*
X0154275Y0506890D01*
G75*
G02*
X0153882Y0507284I0000000J0000394D01*
G01*
X0153882Y0510433D01*
G75*
G02*
X0154275Y0510827I0000394J0000000D01*
G01*
X0159197Y0510827D01*
G75*
G02*
X0159590Y0510433I0000000J-000394D01*
G01*
X0159590Y0507284D01*
G75*
G02*
X0159197Y0506890I-000394J0000000D01*
G01*
G37*
G36*
G01*
X0403685Y0525174D02*
X0398764Y0525174D01*
G75*
G02*
X0398370Y0525567I0000000J0000394D01*
G01*
X0398370Y0528717D01*
G75*
G02*
X0398764Y0529111I0000394J0000000D01*
G01*
X0403685Y0529111D01*
G75*
G02*
X0404079Y0528717I0000000J-000394D01*
G01*
X0404079Y0525567D01*
G75*
G02*
X0403685Y0525174I-000394J0000000D01*
G01*
G37*
G36*
G01*
X0403685Y0532654D02*
X0398764Y0532654D01*
G75*
G02*
X0398370Y0533048I0000000J0000394D01*
G01*
X0398370Y0536197D01*
G75*
G02*
X0398764Y0536591I0000394J0000000D01*
G01*
X0403685Y0536591D01*
G75*
G02*
X0404079Y0536197I0000000J-000394D01*
G01*
X0404079Y0533048D01*
G75*
G02*
X0403685Y0532654I-000394J0000000D01*
G01*
G37*
G36*
G01*
X0481217Y0214510D02*
X0477674Y0214510D01*
G75*
G02*
X0477280Y0214904I0000000J0000394D01*
G01*
X0477280Y0218053D01*
G75*
G02*
X0477674Y0218447I0000394J0000000D01*
G01*
X0481217Y0218447D01*
G75*
G02*
X0481611Y0218053I0000000J-000394D01*
G01*
X0481611Y0214904D01*
G75*
G02*
X0481217Y0214510I-000394J0000000D01*
G01*
G37*
G36*
G01*
X0481217Y0221203D02*
X0477674Y0221203D01*
G75*
G02*
X0477280Y0221596I0000000J0000394D01*
G01*
X0477280Y0224746D01*
G75*
G02*
X0477674Y0225140I0000394J0000000D01*
G01*
X0481217Y0225140D01*
G75*
G02*
X0481611Y0224746I0000000J-000394D01*
G01*
X0481611Y0221596D01*
G75*
G02*
X0481217Y0221203I-000394J0000000D01*
G01*
G37*
G36*
G01*
X0270119Y0336027D02*
X0273662Y0336027D01*
G75*
G02*
X0274056Y0335633I0000000J-000394D01*
G01*
X0274056Y0332483D01*
G75*
G02*
X0273662Y0332090I-000394J0000000D01*
G01*
X0270119Y0332090D01*
G75*
G02*
X0269725Y0332483I0000000J0000394D01*
G01*
X0269725Y0335633D01*
G75*
G02*
X0270119Y0336027I0000394J0000000D01*
G01*
G37*
G36*
G01*
X0270119Y0329334D02*
X0273662Y0329334D01*
G75*
G02*
X0274056Y0328940I0000000J-000394D01*
G01*
X0274056Y0325790D01*
G75*
G02*
X0273662Y0325397I-000394J0000000D01*
G01*
X0270119Y0325397D01*
G75*
G02*
X0269725Y0325790I0000000J0000394D01*
G01*
X0269725Y0328940D01*
G75*
G02*
X0270119Y0329334I0000394J0000000D01*
G01*
G37*
G36*
G01*
X0510472Y0341398D02*
X0513150Y0341398D01*
G75*
G02*
X0513484Y0341063I0000000J-000335D01*
G01*
X0513484Y0338386D01*
G75*
G02*
X0513150Y0338051I-000335J0000000D01*
G01*
X0510472Y0338051D01*
G75*
G02*
X0510138Y0338386I0000000J0000335D01*
G01*
X0510138Y0341063D01*
G75*
G02*
X0510472Y0341398I0000335J0000000D01*
G01*
G37*
G36*
G01*
X0510472Y0335177D02*
X0513150Y0335177D01*
G75*
G02*
X0513484Y0334843I0000000J-000335D01*
G01*
X0513484Y0332165D01*
G75*
G02*
X0513150Y0331831I-000335J0000000D01*
G01*
X0510472Y0331831D01*
G75*
G02*
X0510138Y0332165I0000000J0000335D01*
G01*
X0510138Y0334843D01*
G75*
G02*
X0510472Y0335177I0000335J0000000D01*
G01*
G37*
G36*
G01*
X0489879Y0240238D02*
X0489879Y0237600D01*
G75*
G02*
X0489623Y0237345I-000256J0000000D01*
G01*
X0487575Y0237345D01*
G75*
G02*
X0487319Y0237600I0000000J0000256D01*
G01*
X0487319Y0240238D01*
G75*
G02*
X0487575Y0240494I0000256J0000000D01*
G01*
X0489623Y0240494D01*
G75*
G02*
X0489879Y0240238I0000000J-000256D01*
G01*
G37*
G36*
G01*
X0486040Y0240317D02*
X0486040Y0237522D01*
G75*
G02*
X0485863Y0237345I-000177J0000000D01*
G01*
X0484445Y0237345D01*
G75*
G02*
X0484268Y0237522I0000000J0000177D01*
G01*
X0484268Y0240317D01*
G75*
G02*
X0484445Y0240494I0000177J0000000D01*
G01*
X0485863Y0240494D01*
G75*
G02*
X0486040Y0240317I0000000J-000177D01*
G01*
G37*
G36*
G01*
X0482890Y0240317D02*
X0482890Y0237522D01*
G75*
G02*
X0482713Y0237345I-000177J0000000D01*
G01*
X0481296Y0237345D01*
G75*
G02*
X0481119Y0237522I0000000J0000177D01*
G01*
X0481119Y0240317D01*
G75*
G02*
X0481296Y0240494I0000177J0000000D01*
G01*
X0482713Y0240494D01*
G75*
G02*
X0482890Y0240317I0000000J-000177D01*
G01*
G37*
G36*
G01*
X0479839Y0240238D02*
X0479839Y0237600D01*
G75*
G02*
X0479583Y0237345I-000256J0000000D01*
G01*
X0477536Y0237345D01*
G75*
G02*
X0477280Y0237600I0000000J0000256D01*
G01*
X0477280Y0240238D01*
G75*
G02*
X0477536Y0240494I0000256J0000000D01*
G01*
X0479583Y0240494D01*
G75*
G02*
X0479839Y0240238I0000000J-000256D01*
G01*
G37*
G36*
G01*
X0479839Y0233152D02*
X0479839Y0230514D01*
G75*
G02*
X0479583Y0230258I-000256J0000000D01*
G01*
X0477536Y0230258D01*
G75*
G02*
X0477280Y0230514I0000000J0000256D01*
G01*
X0477280Y0233152D01*
G75*
G02*
X0477536Y0233408I0000256J0000000D01*
G01*
X0479583Y0233408D01*
G75*
G02*
X0479839Y0233152I0000000J-000256D01*
G01*
G37*
G36*
G01*
X0482890Y0233230D02*
X0482890Y0230435D01*
G75*
G02*
X0482713Y0230258I-000177J0000000D01*
G01*
X0481296Y0230258D01*
G75*
G02*
X0481119Y0230435I0000000J0000177D01*
G01*
X0481119Y0233230D01*
G75*
G02*
X0481296Y0233408I0000177J0000000D01*
G01*
X0482713Y0233408D01*
G75*
G02*
X0482890Y0233230I0000000J-000177D01*
G01*
G37*
G36*
G01*
X0486040Y0233230D02*
X0486040Y0230435D01*
G75*
G02*
X0485863Y0230258I-000177J0000000D01*
G01*
X0484445Y0230258D01*
G75*
G02*
X0484268Y0230435I0000000J0000177D01*
G01*
X0484268Y0233230D01*
G75*
G02*
X0484445Y0233408I0000177J0000000D01*
G01*
X0485863Y0233408D01*
G75*
G02*
X0486040Y0233230I0000000J-000177D01*
G01*
G37*
G36*
G01*
X0489879Y0233152D02*
X0489879Y0230514D01*
G75*
G02*
X0489623Y0230258I-000256J0000000D01*
G01*
X0487575Y0230258D01*
G75*
G02*
X0487319Y0230514I0000000J0000256D01*
G01*
X0487319Y0233152D01*
G75*
G02*
X0487575Y0233408I0000256J0000000D01*
G01*
X0489623Y0233408D01*
G75*
G02*
X0489879Y0233152I0000000J-000256D01*
G01*
G37*
G36*
G01*
X0169291Y0402500D02*
X0169291Y0399862D01*
G75*
G02*
X0169035Y0399606I-000256J0000000D01*
G01*
X0166988Y0399606D01*
G75*
G02*
X0166732Y0399862I0000000J0000256D01*
G01*
X0166732Y0402500D01*
G75*
G02*
X0166988Y0402756I0000256J0000000D01*
G01*
X0169035Y0402756D01*
G75*
G02*
X0169291Y0402500I0000000J-000256D01*
G01*
G37*
G36*
G01*
X0165453Y0402579D02*
X0165453Y0399783D01*
G75*
G02*
X0165276Y0399606I-000177J0000000D01*
G01*
X0163858Y0399606D01*
G75*
G02*
X0163681Y0399783I0000000J0000177D01*
G01*
X0163681Y0402579D01*
G75*
G02*
X0163858Y0402756I0000177J0000000D01*
G01*
X0165276Y0402756D01*
G75*
G02*
X0165453Y0402579I0000000J-000177D01*
G01*
G37*
G36*
G01*
X0162303Y0402579D02*
X0162303Y0399783D01*
G75*
G02*
X0162126Y0399606I-000177J0000000D01*
G01*
X0160709Y0399606D01*
G75*
G02*
X0160531Y0399783I0000000J0000177D01*
G01*
X0160531Y0402579D01*
G75*
G02*
X0160709Y0402756I0000177J0000000D01*
G01*
X0162126Y0402756D01*
G75*
G02*
X0162303Y0402579I0000000J-000177D01*
G01*
G37*
G36*
G01*
X0159252Y0402500D02*
X0159252Y0399862D01*
G75*
G02*
X0158996Y0399606I-000256J0000000D01*
G01*
X0156949Y0399606D01*
G75*
G02*
X0156693Y0399862I0000000J0000256D01*
G01*
X0156693Y0402500D01*
G75*
G02*
X0156949Y0402756I0000256J0000000D01*
G01*
X0158996Y0402756D01*
G75*
G02*
X0159252Y0402500I0000000J-000256D01*
G01*
G37*
G36*
G01*
X0159252Y0395413D02*
X0159252Y0392776D01*
G75*
G02*
X0158996Y0392520I-000256J0000000D01*
G01*
X0156949Y0392520D01*
G75*
G02*
X0156693Y0392776I0000000J0000256D01*
G01*
X0156693Y0395413D01*
G75*
G02*
X0156949Y0395669I0000256J0000000D01*
G01*
X0158996Y0395669D01*
G75*
G02*
X0159252Y0395413I0000000J-000256D01*
G01*
G37*
G36*
G01*
X0162303Y0395492D02*
X0162303Y0392697D01*
G75*
G02*
X0162126Y0392520I-000177J0000000D01*
G01*
X0160709Y0392520D01*
G75*
G02*
X0160531Y0392697I0000000J0000177D01*
G01*
X0160531Y0395492D01*
G75*
G02*
X0160709Y0395669I0000177J0000000D01*
G01*
X0162126Y0395669D01*
G75*
G02*
X0162303Y0395492I0000000J-000177D01*
G01*
G37*
G36*
G01*
X0165453Y0395492D02*
X0165453Y0392697D01*
G75*
G02*
X0165276Y0392520I-000177J0000000D01*
G01*
X0163858Y0392520D01*
G75*
G02*
X0163681Y0392697I0000000J0000177D01*
G01*
X0163681Y0395492D01*
G75*
G02*
X0163858Y0395669I0000177J0000000D01*
G01*
X0165276Y0395669D01*
G75*
G02*
X0165453Y0395492I0000000J-000177D01*
G01*
G37*
G36*
G01*
X0169291Y0395413D02*
X0169291Y0392776D01*
G75*
G02*
X0169035Y0392520I-000256J0000000D01*
G01*
X0166988Y0392520D01*
G75*
G02*
X0166732Y0392776I0000000J0000256D01*
G01*
X0166732Y0395413D01*
G75*
G02*
X0166988Y0395669I0000256J0000000D01*
G01*
X0169035Y0395669D01*
G75*
G02*
X0169291Y0395413I0000000J-000256D01*
G01*
G37*
G36*
G01*
X0215104Y0484570D02*
X0210183Y0484570D01*
G75*
G02*
X0209789Y0484964I0000000J0000394D01*
G01*
X0209789Y0488114D01*
G75*
G02*
X0210183Y0488507I0000394J0000000D01*
G01*
X0215104Y0488507D01*
G75*
G02*
X0215497Y0488114I0000000J-000394D01*
G01*
X0215497Y0484964D01*
G75*
G02*
X0215104Y0484570I-000394J0000000D01*
G01*
G37*
G36*
G01*
X0215104Y0492051D02*
X0210183Y0492051D01*
G75*
G02*
X0209789Y0492444I0000000J0000394D01*
G01*
X0209789Y0495594D01*
G75*
G02*
X0210183Y0495988I0000394J0000000D01*
G01*
X0215104Y0495988D01*
G75*
G02*
X0215497Y0495594I0000000J-000394D01*
G01*
X0215497Y0492444D01*
G75*
G02*
X0215104Y0492051I-000394J0000000D01*
G01*
G37*
G36*
G01*
X0450929Y0524980D02*
X0446008Y0524980D01*
G75*
G02*
X0445614Y0525374I0000000J0000394D01*
G01*
X0445614Y0528524D01*
G75*
G02*
X0446008Y0528917I0000394J0000000D01*
G01*
X0450929Y0528917D01*
G75*
G02*
X0451323Y0528524I0000000J-000394D01*
G01*
X0451323Y0525374D01*
G75*
G02*
X0450929Y0524980I-000394J0000000D01*
G01*
G37*
G36*
G01*
X0450929Y0532461D02*
X0446008Y0532461D01*
G75*
G02*
X0445614Y0532854I0000000J0000394D01*
G01*
X0445614Y0536004D01*
G75*
G02*
X0446008Y0536398I0000394J0000000D01*
G01*
X0450929Y0536398D01*
G75*
G02*
X0451323Y0536004I0000000J-000394D01*
G01*
X0451323Y0532854D01*
G75*
G02*
X0450929Y0532461I-000394J0000000D01*
G01*
G37*
G36*
G01*
X0495121Y0200481D02*
X0497798Y0200481D01*
G75*
G02*
X0498133Y0200146I0000000J-000335D01*
G01*
X0498133Y0197469D01*
G75*
G02*
X0497798Y0197134I-000335J0000000D01*
G01*
X0495121Y0197134D01*
G75*
G02*
X0494786Y0197469I0000000J0000335D01*
G01*
X0494786Y0200146D01*
G75*
G02*
X0495121Y0200481I0000335J0000000D01*
G01*
G37*
G36*
G01*
X0495121Y0194260D02*
X0497798Y0194260D01*
G75*
G02*
X0498133Y0193925I0000000J-000335D01*
G01*
X0498133Y0191248D01*
G75*
G02*
X0497798Y0190914I-000335J0000000D01*
G01*
X0495121Y0190914D01*
G75*
G02*
X0494786Y0191248I0000000J0000335D01*
G01*
X0494786Y0193925D01*
G75*
G02*
X0495121Y0194260I0000335J0000000D01*
G01*
G37*
G36*
G01*
X0504079Y0499390D02*
X0499157Y0499390D01*
G75*
G02*
X0498764Y0499783I0000000J0000394D01*
G01*
X0498764Y0502933D01*
G75*
G02*
X0499157Y0503327I0000394J0000000D01*
G01*
X0504079Y0503327D01*
G75*
G02*
X0504472Y0502933I0000000J-000394D01*
G01*
X0504472Y0499783D01*
G75*
G02*
X0504079Y0499390I-000394J0000000D01*
G01*
G37*
G36*
G01*
X0504079Y0506870D02*
X0499157Y0506870D01*
G75*
G02*
X0498764Y0507264I0000000J0000394D01*
G01*
X0498764Y0510413D01*
G75*
G02*
X0499157Y0510807I0000394J0000000D01*
G01*
X0504079Y0510807D01*
G75*
G02*
X0504472Y0510413I0000000J-000394D01*
G01*
X0504472Y0507264D01*
G75*
G02*
X0504079Y0506870I-000394J0000000D01*
G01*
G37*
G36*
G01*
X0448960Y0483838D02*
X0444039Y0483838D01*
G75*
G02*
X0443646Y0484232I0000000J0000394D01*
G01*
X0443646Y0487382D01*
G75*
G02*
X0444039Y0487776I0000394J0000000D01*
G01*
X0448960Y0487776D01*
G75*
G02*
X0449354Y0487382I0000000J-000394D01*
G01*
X0449354Y0484232D01*
G75*
G02*
X0448960Y0483838I-000394J0000000D01*
G01*
G37*
G36*
G01*
X0448960Y0491319D02*
X0444039Y0491319D01*
G75*
G02*
X0443646Y0491713I0000000J0000394D01*
G01*
X0443646Y0494862D01*
G75*
G02*
X0444039Y0495256I0000394J0000000D01*
G01*
X0448960Y0495256D01*
G75*
G02*
X0449354Y0494862I0000000J-000394D01*
G01*
X0449354Y0491713D01*
G75*
G02*
X0448960Y0491319I-000394J0000000D01*
G01*
G37*
G36*
G01*
X0279519Y0335784D02*
X0279519Y0333895D01*
G75*
G02*
X0279282Y0333658I-000236J0000000D01*
G01*
X0277393Y0333658D01*
G75*
G02*
X0277156Y0333895I0000000J0000236D01*
G01*
X0277156Y0335784D01*
G75*
G02*
X0277393Y0336021I0000236J0000000D01*
G01*
X0279282Y0336021D01*
G75*
G02*
X0279519Y0335784I0000000J-000236D01*
G01*
G37*
G36*
G01*
X0279519Y0327123D02*
X0279519Y0325233D01*
G75*
G02*
X0279282Y0324997I-000236J0000000D01*
G01*
X0277393Y0324997D01*
G75*
G02*
X0277156Y0325233I0000000J0000236D01*
G01*
X0277156Y0327123D01*
G75*
G02*
X0277393Y0327359I0000236J0000000D01*
G01*
X0279282Y0327359D01*
G75*
G02*
X0279519Y0327123I0000000J-000236D01*
G01*
G37*
X0071670Y0306742D03*
X0058262Y0365305D03*
X0073813Y0459085D03*
X0066332Y0459085D03*
X0079552Y0313435D03*
X0456834Y0320392D02*
G01*
G75*
D374*
X0438527Y0303857D02*
D03*
X0438527Y0311337D02*
D03*
D375*
X0448173Y0267734D02*
D03*
X0448173Y0285451D02*
D03*
D376*
X0356539Y0314093D02*
D03*
X0356539Y0307794D02*
D03*
D384*
X0439806Y0316849D02*
D03*
X0447287Y0316849D02*
D03*
D275*
X0444039Y0305038D02*
D03*
X0444039Y0311337D02*
D03*
D379*
X0342070Y0289388D02*
D03*
X0342070Y0285648D02*
D03*
X0342070Y0281908D02*
D03*
X0351519Y0281908D02*
D03*
X0351519Y0285648D02*
D03*
X0351519Y0289388D02*
D03*
X0419236Y0289388D02*
D03*
X0419236Y0285648D02*
D03*
X0419236Y0281908D02*
D03*
X0409787Y0281908D02*
D03*
X0409787Y0285648D02*
D03*
X0409787Y0289388D02*
D03*
X0426716Y0289388D02*
D03*
X0426716Y0285648D02*
D03*
X0426716Y0281908D02*
D03*
X0436165Y0281908D02*
D03*
X0436165Y0285648D02*
D03*
X0436165Y0289388D02*
D03*
X0402306Y0289388D02*
D03*
X0402306Y0285648D02*
D03*
X0402306Y0281908D02*
D03*
X0392858Y0281908D02*
D03*
X0392858Y0285648D02*
D03*
X0392858Y0289388D02*
D03*
X0375929Y0289388D02*
D03*
X0375929Y0285648D02*
D03*
X0375929Y0281908D02*
D03*
X0385377Y0281908D02*
D03*
X0385377Y0285648D02*
D03*
X0385377Y0289388D02*
D03*
X0368448Y0289388D02*
D03*
X0368448Y0285648D02*
D03*
X0368448Y0281908D02*
D03*
X0358999Y0281908D02*
D03*
X0358999Y0285648D02*
D03*
X0358999Y0289388D02*
D03*
D378*
X0342365Y0314782D02*
D03*
X0342365Y0307695D02*
D03*
X0352405Y0307695D02*
D03*
X0352405Y0314782D02*
D03*
X0417464Y0314782D02*
D03*
X0417464Y0307695D02*
D03*
X0407425Y0307695D02*
D03*
X0407425Y0314782D02*
D03*
X0421991Y0314782D02*
D03*
X0421991Y0307695D02*
D03*
X0432031Y0307695D02*
D03*
X0432031Y0314782D02*
D03*
X0402405Y0314782D02*
D03*
X0402405Y0307695D02*
D03*
X0392366Y0307695D02*
D03*
X0392366Y0314782D02*
D03*
X0375535Y0314782D02*
D03*
X0375535Y0307695D02*
D03*
X0385574Y0307695D02*
D03*
X0385574Y0314782D02*
D03*
X0370613Y0314782D02*
D03*
X0370613Y0307695D02*
D03*
X0360574Y0307695D02*
D03*
X0360574Y0314782D02*
D03*
X0407523Y0301002D02*
D03*
X0407523Y0293916D02*
D03*
X0417562Y0293916D02*
D03*
X0417562Y0301002D02*
D03*
X0433507Y0301002D02*
D03*
X0433507Y0293916D02*
D03*
X0423468Y0293916D02*
D03*
X0423468Y0301002D02*
D03*
X0392267Y0301002D02*
D03*
X0392267Y0293916D02*
D03*
X0402306Y0293916D02*
D03*
X0402306Y0301002D02*
D03*
X0385574Y0301002D02*
D03*
X0385574Y0293916D02*
D03*
X0375535Y0293916D02*
D03*
X0375535Y0301002D02*
D03*
X0360279Y0301002D02*
D03*
X0360279Y0293916D02*
D03*
X0370318Y0293916D02*
D03*
X0370318Y0301002D02*
D03*
X0352897Y0300904D02*
D03*
X0352897Y0293817D02*
D03*
X0342858Y0293817D02*
D03*
X0342858Y0300904D02*
D03*
D381*
X0348960Y0307695D02*
D03*
X0345810Y0307695D02*
D03*
X0345810Y0314782D02*
D03*
X0348960Y0314782D02*
D03*
X0414019Y0314782D02*
D03*
X0410869Y0314782D02*
D03*
X0410869Y0307695D02*
D03*
X0414019Y0307695D02*
D03*
X0428586Y0307695D02*
D03*
X0425436Y0307695D02*
D03*
X0425436Y0314782D02*
D03*
X0428586Y0314782D02*
D03*
X0398960Y0314782D02*
D03*
X0395810Y0314782D02*
D03*
X0395810Y0307695D02*
D03*
X0398960Y0307695D02*
D03*
X0382129Y0307695D02*
D03*
X0378980Y0307695D02*
D03*
X0378980Y0314782D02*
D03*
X0382129Y0314782D02*
D03*
X0367169Y0314782D02*
D03*
X0364019Y0314782D02*
D03*
X0364019Y0307695D02*
D03*
X0367169Y0307695D02*
D03*
X0414117Y0293916D02*
D03*
X0410968Y0293916D02*
D03*
X0410968Y0301002D02*
D03*
X0414117Y0301002D02*
D03*
X0430062Y0301002D02*
D03*
X0426913Y0301002D02*
D03*
X0426913Y0293916D02*
D03*
X0430062Y0293916D02*
D03*
X0398861Y0293916D02*
D03*
X0395712Y0293916D02*
D03*
X0395712Y0301002D02*
D03*
X0398861Y0301002D02*
D03*
X0382129Y0301002D02*
D03*
X0378980Y0301002D02*
D03*
X0378980Y0293916D02*
D03*
X0382129Y0293916D02*
D03*
X0366873Y0293916D02*
D03*
X0363724Y0293916D02*
D03*
X0363724Y0301002D02*
D03*
X0366873Y0301002D02*
D03*
X0349452Y0300904D02*
D03*
X0346303Y0300904D02*
D03*
X0346303Y0293817D02*
D03*
X0349452Y0293817D02*
D03*
D380*
X0338330Y0314644D02*
D03*
X0338330Y0308423D02*
D03*
X0372877Y0273207D02*
D03*
X0372877Y0266986D02*
D03*
X0377208Y0266986D02*
D03*
X0377208Y0273207D02*
D03*
X0381539Y0273207D02*
D03*
X0381539Y0266986D02*
D03*
X0385869Y0266986D02*
D03*
X0385869Y0273207D02*
D03*
X0368547Y0273207D02*
D03*
X0368547Y0266986D02*
D03*
X0364216Y0266986D02*
D03*
X0364216Y0273207D02*
D03*
X0359885Y0273207D02*
D03*
X0359885Y0266986D02*
D03*
X0355555Y0266986D02*
D03*
X0355555Y0273207D02*
D03*
X0403192Y0273207D02*
D03*
X0403192Y0266986D02*
D03*
X0398861Y0266986D02*
D03*
X0398861Y0273207D02*
D03*
X0394531Y0273207D02*
D03*
X0394531Y0266986D02*
D03*
X0390200Y0266986D02*
D03*
X0390200Y0273207D02*
D03*
X0437838Y0273207D02*
D03*
X0437838Y0266986D02*
D03*
X0433507Y0266986D02*
D03*
X0433507Y0273207D02*
D03*
X0429177Y0273207D02*
D03*
X0429177Y0266986D02*
D03*
X0424846Y0266986D02*
D03*
X0424846Y0273207D02*
D03*
X0420515Y0273207D02*
D03*
X0420515Y0266986D02*
D03*
X0416184Y0266986D02*
D03*
X0416184Y0273207D02*
D03*
X0411854Y0273207D02*
D03*
X0411854Y0266986D02*
D03*
X0407523Y0266986D02*
D03*
X0407523Y0273207D02*
D03*
X0338330Y0301258D02*
D03*
X0338330Y0295038D02*
D03*
X0351224Y0273207D02*
D03*
X0351224Y0266986D02*
D03*
X0346893Y0266986D02*
D03*
X0346893Y0273207D02*
D03*
X0342562Y0273207D02*
D03*
X0342562Y0266986D02*
D03*
X0338232Y0266986D02*
D03*
X0338232Y0273207D02*
D03*
D383*
X0454275Y0306120D02*
D03*
X0447976Y0306120D02*
D03*
X0447976Y0310648D02*
D03*
X0454275Y0310648D02*
D03*
X0446991Y0297164D02*
D03*
X0453291Y0297164D02*
D03*
X0446991Y0292538D02*
D03*
X0453291Y0292538D02*
D03*
D382*
X0441677Y0291652D02*
D03*
X0441677Y0299132D02*
D03*
D386*
X0454039Y0301593D02*
D03*
X0447818Y0301593D02*
D03*
X0496061Y0155578D02*
G01*
G75*
D279*
X0469013Y0136877D02*
D03*
X0469013Y0134318D02*
D03*
X0469013Y0131759D02*
D03*
X0469013Y0129200D02*
D03*
X0469013Y0126641D02*
D03*
X0469013Y0124082D02*
D03*
X0469013Y0121523D02*
D03*
X0469013Y0118964D02*
D03*
X0469013Y0116405D02*
D03*
X0469013Y0113846D02*
D03*
X0469013Y0111287D02*
D03*
X0469013Y0108728D02*
D03*
X0492006Y0136877D02*
D03*
X0492006Y0134318D02*
D03*
X0492006Y0131759D02*
D03*
X0492006Y0129200D02*
D03*
X0492006Y0126641D02*
D03*
X0492006Y0124082D02*
D03*
X0492006Y0121523D02*
D03*
X0492006Y0118964D02*
D03*
X0492006Y0116405D02*
D03*
X0492006Y0113846D02*
D03*
X0492006Y0111287D02*
D03*
X0492006Y0108728D02*
D03*
D408*
X0491986Y0104791D02*
D03*
X0485765Y0104791D02*
D03*
X0475234Y0104791D02*
D03*
X0481455Y0104791D02*
D03*
D383*
X0473226Y0141995D02*
D03*
X0466927Y0141995D02*
D03*
X0486218Y0142389D02*
D03*
X0479919Y0142389D02*
D03*
D409*
X0478143Y0153019D02*
D03*
X0478143Y0146720D02*
D03*
X0484466Y0146720D02*
D03*
X0484466Y0153019D02*
D03*
X0489092Y0153019D02*
D03*
X0489092Y0146720D02*
D03*
X0468915Y0146818D02*
D03*
X0468915Y0153117D02*
D03*
X0493718Y0146720D02*
D03*
X0493718Y0153019D02*
D03*
X0473521Y0146720D02*
D03*
X0473521Y0153019D02*
D03*
X0457350Y0252986D02*
G01*
G75*
D465*
X0384515Y0228773D02*
D03*
X0384515Y0224836D02*
D03*
D469*
X0289437Y0189994D02*
D03*
D470*
X0280381Y0214403D02*
D03*
X0298492Y0214403D02*
D03*
D480*
X0289437Y0214403D02*
D03*
D44*
X0306366Y0247671D02*
D03*
X0306366Y0245112D02*
D03*
X0306366Y0242553D02*
D03*
X0306366Y0239994D02*
D03*
X0306366Y0237435D02*
D03*
X0306366Y0234876D02*
D03*
X0306366Y0232317D02*
D03*
X0328807Y0247671D02*
D03*
X0328807Y0245112D02*
D03*
X0328807Y0242553D02*
D03*
X0328807Y0239994D02*
D03*
X0328807Y0237435D02*
D03*
X0328807Y0234876D02*
D03*
X0328807Y0232317D02*
D03*
X0430381Y0213321D02*
D03*
X0430381Y0210762D02*
D03*
X0430381Y0208203D02*
D03*
X0430381Y0205643D02*
D03*
X0430381Y0203084D02*
D03*
X0430381Y0200525D02*
D03*
X0430381Y0197966D02*
D03*
X0452823Y0213321D02*
D03*
X0452823Y0210762D02*
D03*
X0452823Y0208203D02*
D03*
X0452823Y0205643D02*
D03*
X0452823Y0203084D02*
D03*
X0452823Y0200525D02*
D03*
X0452823Y0197966D02*
D03*
X0430874Y0168340D02*
D03*
X0430874Y0165781D02*
D03*
X0430874Y0163222D02*
D03*
X0430874Y0160663D02*
D03*
X0430874Y0158104D02*
D03*
X0430874Y0155545D02*
D03*
X0430874Y0152986D02*
D03*
X0453315Y0168340D02*
D03*
X0453315Y0165781D02*
D03*
X0453315Y0163222D02*
D03*
X0453315Y0160663D02*
D03*
X0453315Y0158104D02*
D03*
X0453315Y0155545D02*
D03*
X0453315Y0152986D02*
D03*
X0425066Y0232317D02*
D03*
X0425066Y0234876D02*
D03*
X0425066Y0237435D02*
D03*
X0425066Y0239994D02*
D03*
X0425066Y0242553D02*
D03*
X0425066Y0245112D02*
D03*
X0425066Y0247671D02*
D03*
X0402626Y0232317D02*
D03*
X0402626Y0234876D02*
D03*
X0402626Y0237435D02*
D03*
X0402626Y0239994D02*
D03*
X0402626Y0242553D02*
D03*
X0402626Y0245112D02*
D03*
X0402626Y0247671D02*
D03*
X0380677Y0232317D02*
D03*
X0380677Y0234876D02*
D03*
X0380677Y0237435D02*
D03*
X0380677Y0239994D02*
D03*
X0380677Y0242553D02*
D03*
X0380677Y0245112D02*
D03*
X0380677Y0247671D02*
D03*
X0358236Y0232317D02*
D03*
X0358236Y0234876D02*
D03*
X0358236Y0237435D02*
D03*
X0358236Y0239994D02*
D03*
X0358236Y0242553D02*
D03*
X0358236Y0245112D02*
D03*
X0358236Y0247671D02*
D03*
X0430677Y0247671D02*
D03*
X0430677Y0245112D02*
D03*
X0430677Y0242553D02*
D03*
X0430677Y0239994D02*
D03*
X0430677Y0237435D02*
D03*
X0430677Y0234876D02*
D03*
X0430677Y0232317D02*
D03*
X0453118Y0247671D02*
D03*
X0453118Y0245112D02*
D03*
X0453118Y0242553D02*
D03*
X0453118Y0239994D02*
D03*
X0453118Y0237435D02*
D03*
X0453118Y0234876D02*
D03*
X0453118Y0232317D02*
D03*
D329*
X0403610Y0116372D02*
D03*
X0401641Y0116372D02*
D03*
X0399673Y0116372D02*
D03*
X0397704Y0116372D02*
D03*
X0395736Y0116372D02*
D03*
X0393767Y0116372D02*
D03*
X0391799Y0116372D02*
D03*
X0389830Y0116372D02*
D03*
X0387862Y0116372D02*
D03*
X0385893Y0116372D02*
D03*
X0383925Y0116372D02*
D03*
X0381956Y0116372D02*
D03*
X0379988Y0116372D02*
D03*
X0378019Y0116372D02*
D03*
X0376051Y0116372D02*
D03*
X0374082Y0116372D02*
D03*
X0372114Y0116372D02*
D03*
X0370145Y0116372D02*
D03*
X0368177Y0116372D02*
D03*
X0366208Y0116372D02*
D03*
X0364240Y0116372D02*
D03*
X0362271Y0116372D02*
D03*
X0360303Y0116372D02*
D03*
X0358334Y0116372D02*
D03*
X0356366Y0116372D02*
D03*
X0354397Y0116372D02*
D03*
X0352429Y0116372D02*
D03*
X0350460Y0116372D02*
D03*
X0348492Y0116372D02*
D03*
X0346523Y0116372D02*
D03*
X0344555Y0116372D02*
D03*
X0342586Y0116372D02*
D03*
X0340618Y0116372D02*
D03*
X0338649Y0116372D02*
D03*
X0336681Y0116372D02*
D03*
X0334712Y0116372D02*
D03*
X0332744Y0116372D02*
D03*
X0330775Y0116372D02*
D03*
X0328807Y0116372D02*
D03*
X0326838Y0116372D02*
D03*
X0324870Y0116372D02*
D03*
X0322901Y0116372D02*
D03*
X0320933Y0116372D02*
D03*
X0318964Y0116372D02*
D03*
X0318964Y0219915D02*
D03*
X0320933Y0219915D02*
D03*
X0322901Y0219915D02*
D03*
X0324870Y0219915D02*
D03*
X0326838Y0219915D02*
D03*
X0328807Y0219915D02*
D03*
X0330775Y0219915D02*
D03*
X0332744Y0219915D02*
D03*
X0334712Y0219915D02*
D03*
X0336681Y0219915D02*
D03*
X0338649Y0219915D02*
D03*
X0340618Y0219915D02*
D03*
X0342586Y0219915D02*
D03*
X0344555Y0219915D02*
D03*
X0346523Y0219915D02*
D03*
X0348492Y0219915D02*
D03*
X0350460Y0219915D02*
D03*
X0352429Y0219915D02*
D03*
X0354397Y0219915D02*
D03*
X0356366Y0219915D02*
D03*
X0358334Y0219915D02*
D03*
X0360303Y0219915D02*
D03*
X0362271Y0219915D02*
D03*
X0364240Y0219915D02*
D03*
X0366208Y0219915D02*
D03*
X0368177Y0219915D02*
D03*
X0370145Y0219915D02*
D03*
X0372114Y0219915D02*
D03*
X0374082Y0219915D02*
D03*
X0376051Y0219915D02*
D03*
X0378019Y0219915D02*
D03*
X0379988Y0219915D02*
D03*
X0381956Y0219915D02*
D03*
X0383925Y0219915D02*
D03*
X0385893Y0219915D02*
D03*
X0387862Y0219915D02*
D03*
X0389830Y0219915D02*
D03*
X0391799Y0219915D02*
D03*
X0393767Y0219915D02*
D03*
X0395736Y0219915D02*
D03*
X0397704Y0219915D02*
D03*
X0399673Y0219915D02*
D03*
X0401641Y0219915D02*
D03*
X0403610Y0219915D02*
D03*
D12*
X0309515Y0125821D02*
D03*
X0309515Y0127789D02*
D03*
X0309515Y0129758D02*
D03*
X0309515Y0131726D02*
D03*
X0309515Y0133695D02*
D03*
X0309515Y0135663D02*
D03*
X0309515Y0137632D02*
D03*
X0309515Y0139600D02*
D03*
X0309515Y0141569D02*
D03*
X0309515Y0143537D02*
D03*
X0309515Y0145506D02*
D03*
X0309515Y0147474D02*
D03*
X0309515Y0149443D02*
D03*
X0309515Y0151411D02*
D03*
X0309515Y0153380D02*
D03*
X0309515Y0155348D02*
D03*
X0309515Y0157317D02*
D03*
X0309515Y0159285D02*
D03*
X0309515Y0161254D02*
D03*
X0309515Y0163222D02*
D03*
X0309515Y0165191D02*
D03*
X0309515Y0167159D02*
D03*
X0309515Y0169128D02*
D03*
X0309515Y0171096D02*
D03*
X0309515Y0173065D02*
D03*
X0309515Y0175033D02*
D03*
X0309515Y0177002D02*
D03*
X0309515Y0178970D02*
D03*
X0309515Y0180939D02*
D03*
X0309515Y0182907D02*
D03*
X0309515Y0184876D02*
D03*
X0309515Y0186844D02*
D03*
X0309515Y0188813D02*
D03*
X0309515Y0190781D02*
D03*
X0309515Y0192750D02*
D03*
X0309515Y0194718D02*
D03*
X0309515Y0196687D02*
D03*
X0309515Y0198655D02*
D03*
X0309515Y0200624D02*
D03*
X0309515Y0202592D02*
D03*
X0309515Y0204561D02*
D03*
X0309515Y0206529D02*
D03*
X0309515Y0208498D02*
D03*
X0309515Y0210466D02*
D03*
X0413059Y0210466D02*
D03*
X0413059Y0208498D02*
D03*
X0413059Y0206529D02*
D03*
X0413059Y0204561D02*
D03*
X0413059Y0202592D02*
D03*
X0413059Y0200624D02*
D03*
X0413059Y0198655D02*
D03*
X0413059Y0196687D02*
D03*
X0413059Y0194718D02*
D03*
X0413059Y0192750D02*
D03*
X0413059Y0190781D02*
D03*
X0413059Y0188813D02*
D03*
X0413059Y0186844D02*
D03*
X0413059Y0184876D02*
D03*
X0413059Y0182907D02*
D03*
X0413059Y0180939D02*
D03*
X0413059Y0178970D02*
D03*
X0413059Y0177002D02*
D03*
X0413059Y0175033D02*
D03*
X0413059Y0173065D02*
D03*
X0413059Y0171096D02*
D03*
X0413059Y0169128D02*
D03*
X0413059Y0167159D02*
D03*
X0413059Y0165191D02*
D03*
X0413059Y0163222D02*
D03*
X0413059Y0161254D02*
D03*
X0413059Y0159285D02*
D03*
X0413059Y0157317D02*
D03*
X0413059Y0155348D02*
D03*
X0413059Y0153380D02*
D03*
X0413059Y0151411D02*
D03*
X0413059Y0149443D02*
D03*
X0413059Y0147474D02*
D03*
X0413059Y0145506D02*
D03*
X0413059Y0143537D02*
D03*
X0413059Y0141569D02*
D03*
X0413059Y0139600D02*
D03*
X0413059Y0137632D02*
D03*
X0413059Y0135663D02*
D03*
X0413059Y0133695D02*
D03*
X0413059Y0131726D02*
D03*
X0413059Y0129758D02*
D03*
X0413059Y0127789D02*
D03*
X0413059Y0125821D02*
D03*
D386*
X0295185Y0232907D02*
D03*
X0301405Y0232907D02*
D03*
X0297941Y0124246D02*
D03*
X0304161Y0124246D02*
D03*
X0288590Y0183104D02*
D03*
X0294811Y0183104D02*
D03*
X0388964Y0225132D02*
D03*
X0395185Y0225132D02*
D03*
X0327626Y0111175D02*
D03*
X0321405Y0111175D02*
D03*
X0323236Y0225821D02*
D03*
X0329456Y0225821D02*
D03*
X0409063Y0117159D02*
D03*
X0415283Y0117159D02*
D03*
X0292823Y0157809D02*
D03*
X0299043Y0157809D02*
D03*
X0399909Y0225230D02*
D03*
X0406130Y0225230D02*
D03*
X0346956Y0229955D02*
D03*
X0353177Y0229955D02*
D03*
X0425814Y0158793D02*
D03*
X0419594Y0158793D02*
D03*
X0397074Y0111057D02*
D03*
X0390854Y0111057D02*
D03*
X0365165Y0111155D02*
D03*
X0371385Y0111155D02*
D03*
X0348039Y0111155D02*
D03*
X0354259Y0111155D02*
D03*
X0309968Y0213714D02*
D03*
X0303748Y0213714D02*
D03*
X0363885Y0225230D02*
D03*
X0370106Y0225230D02*
D03*
X0356129Y0225525D02*
D03*
X0349909Y0225525D02*
D03*
X0425913Y0154463D02*
D03*
X0419693Y0154463D02*
D03*
X0418511Y0198754D02*
D03*
X0424732Y0198754D02*
D03*
D380*
X0291700Y0118498D02*
D03*
X0291700Y0112277D02*
D03*
X0277921Y0223498D02*
D03*
X0277921Y0229718D02*
D03*
X0304102Y0128813D02*
D03*
X0304102Y0135033D02*
D03*
X0420047Y0163163D02*
D03*
X0420047Y0169384D02*
D03*
X0299574Y0129600D02*
D03*
X0299574Y0135821D02*
D03*
X0335007Y0239246D02*
D03*
X0335007Y0245466D02*
D03*
X0300559Y0237769D02*
D03*
X0300559Y0243990D02*
D03*
X0296129Y0243990D02*
D03*
X0296129Y0237770D02*
D03*
X0444850Y0180506D02*
D03*
X0444850Y0174285D02*
D03*
X0424574Y0163163D02*
D03*
X0424574Y0169384D02*
D03*
X0419948Y0207848D02*
D03*
X0419948Y0214069D02*
D03*
X0299181Y0186805D02*
D03*
X0299181Y0180584D02*
D03*
X0424771Y0207947D02*
D03*
X0424771Y0214167D02*
D03*
X0438354Y0220348D02*
D03*
X0438354Y0226569D02*
D03*
X0451937Y0174384D02*
D03*
X0451937Y0180604D02*
D03*
X0303807Y0157455D02*
D03*
X0303807Y0163675D02*
D03*
X0303708Y0184639D02*
D03*
X0303708Y0178419D02*
D03*
X0423590Y0187081D02*
D03*
X0423590Y0193301D02*
D03*
X0418866Y0140250D02*
D03*
X0418866Y0134029D02*
D03*
D478*
X0278905Y0171293D02*
D03*
X0278905Y0164600D02*
D03*
X0291405Y0164502D02*
D03*
X0291405Y0171195D02*
D03*
X0285204Y0171293D02*
D03*
X0285204Y0164600D02*
D03*
X0297330Y0163911D02*
D03*
X0297330Y0170604D02*
D03*
D129*
X0284122Y0222179D02*
D03*
X0284122Y0229659D02*
D03*
D477*
X0374476Y0225722D02*
D03*
X0380775Y0225722D02*
D03*
X0292193Y0176018D02*
D03*
X0298492Y0176018D02*
D03*
X0343866Y0110958D02*
D03*
X0337566Y0110958D02*
D03*
X0286287Y0176214D02*
D03*
X0279988Y0176214D02*
D03*
X0284417Y0181726D02*
D03*
X0278118Y0181726D02*
D03*
X0418472Y0203281D02*
D03*
X0424771Y0203281D02*
D03*
X0278807Y0132809D02*
D03*
X0285106Y0132809D02*
D03*
D376*
X0310106Y0115880D02*
D03*
X0310106Y0122179D02*
D03*
X0314830Y0111057D02*
D03*
X0314830Y0117356D02*
D03*
X0303708Y0174147D02*
D03*
X0303708Y0167848D02*
D03*
X0287173Y0117750D02*
D03*
X0287173Y0111451D02*
D03*
X0278118Y0128577D02*
D03*
X0278118Y0122277D02*
D03*
X0278118Y0118439D02*
D03*
X0278118Y0112140D02*
D03*
X0282744Y0127002D02*
D03*
X0282744Y0120703D02*
D03*
X0418767Y0186943D02*
D03*
X0418767Y0193242D02*
D03*
D471*
X0305500Y0111647D02*
D03*
X0296248Y0115387D02*
D03*
D471*
X0305500Y0119128D02*
D03*
D262*
X0424181Y0177887D02*
D03*
X0438748Y0177887D02*
D03*
D481*
X0296819Y0142553D02*
D03*
X0300559Y0142553D02*
D03*
X0304299Y0142553D02*
D03*
X0304299Y0152002D02*
D03*
X0300559Y0152002D02*
D03*
X0296819Y0152002D02*
D03*
D378*
X0288354Y0244817D02*
D03*
X0288354Y0237730D02*
D03*
X0278315Y0237730D02*
D03*
X0278315Y0244817D02*
D03*
X0289732Y0228281D02*
D03*
X0289732Y0221195D02*
D03*
X0299771Y0221195D02*
D03*
X0299771Y0228281D02*
D03*
X0437960Y0193833D02*
D03*
X0437960Y0186746D02*
D03*
X0427921Y0186746D02*
D03*
X0427921Y0193833D02*
D03*
X0443177Y0193832D02*
D03*
X0443177Y0186746D02*
D03*
X0453216Y0186746D02*
D03*
X0453216Y0193832D02*
D03*
X0434023Y0227199D02*
D03*
X0434023Y0220112D02*
D03*
X0423984Y0220112D02*
D03*
X0423984Y0227199D02*
D03*
X0442685Y0227199D02*
D03*
X0442685Y0220112D02*
D03*
X0452724Y0220112D02*
D03*
X0452724Y0227199D02*
D03*
X0437763Y0148655D02*
D03*
X0437763Y0141569D02*
D03*
X0427724Y0141569D02*
D03*
X0427724Y0148655D02*
D03*
X0305578Y0227986D02*
D03*
X0305578Y0220899D02*
D03*
X0315618Y0220899D02*
D03*
X0315618Y0227986D02*
D03*
X0453118Y0148655D02*
D03*
X0453118Y0141569D02*
D03*
X0443078Y0141569D02*
D03*
X0443078Y0148655D02*
D03*
X0398197Y0229462D02*
D03*
X0398197Y0236549D02*
D03*
X0388157Y0236549D02*
D03*
X0388157Y0229462D02*
D03*
X0386976Y0247769D02*
D03*
X0386976Y0240683D02*
D03*
X0397015Y0240683D02*
D03*
X0397015Y0247769D02*
D03*
D381*
X0284909Y0244817D02*
D03*
X0281759Y0244817D02*
D03*
X0281759Y0237730D02*
D03*
X0284909Y0237730D02*
D03*
X0296326Y0221195D02*
D03*
X0293177Y0221195D02*
D03*
X0293177Y0228281D02*
D03*
X0296326Y0228281D02*
D03*
X0434515Y0193833D02*
D03*
X0431366Y0193833D02*
D03*
X0431366Y0186746D02*
D03*
X0434515Y0186746D02*
D03*
X0449771Y0186746D02*
D03*
X0446622Y0186746D02*
D03*
X0446622Y0193832D02*
D03*
X0449771Y0193832D02*
D03*
X0430578Y0227199D02*
D03*
X0427429Y0227199D02*
D03*
X0427429Y0220112D02*
D03*
X0430578Y0220112D02*
D03*
X0449279Y0220112D02*
D03*
X0446129Y0220112D02*
D03*
X0446129Y0227199D02*
D03*
X0449279Y0227199D02*
D03*
X0434318Y0148655D02*
D03*
X0431169Y0148655D02*
D03*
X0431169Y0141569D02*
D03*
X0434318Y0141569D02*
D03*
X0312173Y0220899D02*
D03*
X0309023Y0220899D02*
D03*
X0309023Y0227986D02*
D03*
X0312173Y0227986D02*
D03*
X0449673Y0148655D02*
D03*
X0446523Y0148655D02*
D03*
X0446523Y0141569D02*
D03*
X0449673Y0141569D02*
D03*
X0391602Y0236549D02*
D03*
X0394752Y0236549D02*
D03*
X0394752Y0229462D02*
D03*
X0391602Y0229462D02*
D03*
X0393570Y0240683D02*
D03*
X0390421Y0240683D02*
D03*
X0390421Y0247769D02*
D03*
X0393570Y0247769D02*
D03*
D468*
X0290618Y0123065D02*
D03*
X0290618Y0136057D02*
D03*
D466*
X0414732Y0227907D02*
D03*
X0410992Y0218655D02*
D03*
D466*
X0418472Y0218655D02*
D03*
D467*
X0352133Y0248754D02*
D03*
X0345047Y0248754D02*
D03*
X0345047Y0238714D02*
D03*
X0352133Y0238714D02*
D03*
X0342488Y0234876D02*
D03*
X0335401Y0234876D02*
D03*
X0335401Y0224836D02*
D03*
X0342488Y0224836D02*
D03*
X0428846Y0134109D02*
D03*
X0435933Y0134109D02*
D03*
X0435933Y0124069D02*
D03*
X0428846Y0124069D02*
D03*
X0444456Y0124344D02*
D03*
X0451543Y0124344D02*
D03*
X0451543Y0114305D02*
D03*
X0444456Y0114305D02*
D03*
D484*
X0345047Y0242159D02*
D03*
X0345047Y0245309D02*
D03*
X0352133Y0245309D02*
D03*
X0352133Y0242159D02*
D03*
X0335401Y0228281D02*
D03*
X0335401Y0231431D02*
D03*
X0342488Y0231431D02*
D03*
X0342488Y0228281D02*
D03*
X0428846Y0130664D02*
D03*
X0428846Y0127514D02*
D03*
X0435933Y0127514D02*
D03*
X0435933Y0130664D02*
D03*
X0444456Y0120899D02*
D03*
X0444456Y0117750D02*
D03*
X0451543Y0117750D02*
D03*
X0451543Y0120899D02*
D03*
D483*
X0420736Y0150230D02*
D03*
X0420736Y0144325D02*
D03*
D482*
X0415027Y0111155D02*
D03*
X0402035Y0111155D02*
D03*
X0284023Y0039428D02*
G01*
G75*
D92*
X0301641Y0087459D02*
D03*
X0301641Y0054782D02*
D03*
X0355775Y0054782D02*
D03*
X0355775Y0087459D02*
D03*
D164*
X0346405Y0077223D02*
D03*
X0342074Y0077223D02*
D03*
X0337743Y0077223D02*
D03*
X0333413Y0077223D02*
D03*
X0329082Y0077223D02*
D03*
X0324751Y0077223D02*
D03*
X0320421Y0077223D02*
D03*
X0316090Y0077223D02*
D03*
D20*
X0295736Y0092026D02*
D03*
X0295736Y0098247D02*
D03*
X0291110Y0092026D02*
D03*
X0291110Y0098247D02*
D03*
D200*
X0286582Y0098286D02*
D03*
X0286582Y0091987D02*
D03*
X0227618Y0308864D02*
G01*
G75*
D466*
X0156850Y0181580D02*
D03*
X0160591Y0190832D02*
D03*
X0199961Y0296187D02*
D03*
X0203701Y0305439D02*
D03*
X0217677Y0305439D02*
D03*
X0213937Y0296187D02*
D03*
X0190118Y0305439D02*
D03*
X0186378Y0296187D02*
D03*
X0177618Y0272702D02*
D03*
X0173878Y0263450D02*
D03*
X0210590Y0277486D02*
D03*
X0206850Y0268234D02*
D03*
D466*
X0164331Y0181580D02*
D03*
X0207441Y0296187D02*
D03*
X0221417Y0296187D02*
D03*
X0193858Y0296187D02*
D03*
X0170138Y0272702D02*
D03*
X0214331Y0268234D02*
D03*
D541*
X0151240Y0304336D02*
D03*
X0151240Y0292919D02*
D03*
D542*
X0156949Y0290951D02*
D03*
X0168366Y0290951D02*
D03*
D543*
X0154468Y0271462D02*
D03*
X0163720Y0267722D02*
D03*
X0157067Y0280813D02*
D03*
X0166319Y0277073D02*
D03*
D543*
X0154468Y0263982D02*
D03*
X0166319Y0284553D02*
D03*
D376*
X0152421Y0282486D02*
D03*
X0152421Y0276187D02*
D03*
X0120827Y0178391D02*
D03*
X0120827Y0172092D02*
D03*
X0141791Y0175399D02*
D03*
X0141791Y0181699D02*
D03*
X0137165Y0186521D02*
D03*
X0137165Y0180222D02*
D03*
D547*
X0148878Y0198077D02*
D03*
X0166988Y0198077D02*
D03*
X0148878Y0256344D02*
D03*
X0166988Y0256344D02*
D03*
X0139626Y0256344D02*
D03*
X0121516Y0256344D02*
D03*
X0139626Y0198077D02*
D03*
X0121516Y0198077D02*
D03*
X0176240Y0198077D02*
D03*
X0194350Y0198077D02*
D03*
X0221712Y0198077D02*
D03*
X0203602Y0198077D02*
D03*
X0194744Y0256344D02*
D03*
X0176634Y0256344D02*
D03*
X0204390Y0256344D02*
D03*
X0222500Y0256344D02*
D03*
D549*
X0157933Y0198077D02*
D03*
X0157933Y0256344D02*
D03*
X0130571Y0256344D02*
D03*
X0130571Y0198077D02*
D03*
X0185295Y0198077D02*
D03*
X0212657Y0198077D02*
D03*
X0185689Y0256344D02*
D03*
X0213445Y0256344D02*
D03*
D548*
X0157933Y0222486D02*
D03*
X0157933Y0231935D02*
D03*
X0130571Y0231935D02*
D03*
X0130571Y0222486D02*
D03*
X0185295Y0222486D02*
D03*
X0212657Y0222486D02*
D03*
X0185689Y0231935D02*
D03*
X0213445Y0231935D02*
D03*
D551*
X0196024Y0231836D02*
D03*
X0203110Y0231836D02*
D03*
X0203110Y0221797D02*
D03*
X0196024Y0221797D02*
D03*
X0216988Y0185281D02*
D03*
X0224075Y0185281D02*
D03*
X0224075Y0175242D02*
D03*
X0216988Y0175242D02*
D03*
X0140315Y0222289D02*
D03*
X0147402Y0222289D02*
D03*
X0147402Y0232329D02*
D03*
X0140315Y0232329D02*
D03*
D550*
X0196024Y0228392D02*
D03*
X0196024Y0225242D02*
D03*
X0203110Y0225242D02*
D03*
X0203110Y0228392D02*
D03*
X0216988Y0181836D02*
D03*
X0216988Y0178687D02*
D03*
X0224075Y0178687D02*
D03*
X0224075Y0181836D02*
D03*
X0147402Y0228884D02*
D03*
X0147402Y0225734D02*
D03*
X0140315Y0225734D02*
D03*
X0140315Y0228884D02*
D03*
D146*
X0222185Y0165203D02*
D03*
X0217185Y0165203D02*
D03*
X0212185Y0165203D02*
D03*
X0207185Y0165203D02*
D03*
X0202185Y0165203D02*
D03*
X0197185Y0165203D02*
D03*
X0192185Y0165203D02*
D03*
X0187185Y0165203D02*
D03*
X0222185Y0146305D02*
D03*
X0217185Y0146305D02*
D03*
X0212185Y0146305D02*
D03*
X0207185Y0146305D02*
D03*
X0202185Y0146305D02*
D03*
X0197185Y0146305D02*
D03*
X0192185Y0146305D02*
D03*
X0187185Y0146305D02*
D03*
X0145748Y0146108D02*
D03*
X0150748Y0146108D02*
D03*
X0155748Y0146108D02*
D03*
X0160748Y0146108D02*
D03*
X0165748Y0146108D02*
D03*
X0170748Y0146108D02*
D03*
X0175748Y0146108D02*
D03*
X0180748Y0146108D02*
D03*
X0145748Y0165006D02*
D03*
X0150748Y0165006D02*
D03*
X0155748Y0165006D02*
D03*
X0160748Y0165006D02*
D03*
X0165748Y0165006D02*
D03*
X0170748Y0165006D02*
D03*
X0175748Y0165006D02*
D03*
X0180748Y0165006D02*
D03*
X0139153Y0165006D02*
D03*
X0134153Y0165006D02*
D03*
X0129153Y0165006D02*
D03*
X0124153Y0165006D02*
D03*
X0139153Y0146108D02*
D03*
X0134153Y0146108D02*
D03*
X0129153Y0146108D02*
D03*
X0124153Y0146108D02*
D03*
D318*
X0142381Y0290183D02*
D03*
X0142381Y0295183D02*
D03*
X0142381Y0300183D02*
D03*
X0142381Y0305183D02*
D03*
X0123484Y0290183D02*
D03*
X0123484Y0295183D02*
D03*
X0123484Y0300183D02*
D03*
X0123484Y0305183D02*
D03*
X0125255Y0283332D02*
D03*
X0125255Y0278333D02*
D03*
X0125255Y0273333D02*
D03*
X0125255Y0268332D02*
D03*
X0144153Y0283332D02*
D03*
X0144153Y0278333D02*
D03*
X0144153Y0273333D02*
D03*
X0144153Y0268332D02*
D03*
D382*
X0222697Y0283805D02*
D03*
X0222697Y0291285D02*
D03*
X0215807Y0291285D02*
D03*
X0215807Y0283805D02*
D03*
X0208917Y0283805D02*
D03*
X0208917Y0291285D02*
D03*
X0202027Y0291285D02*
D03*
X0202027Y0283805D02*
D03*
X0195138Y0283805D02*
D03*
X0195138Y0291285D02*
D03*
X0188248Y0291285D02*
D03*
X0188248Y0283805D02*
D03*
X0181358Y0283805D02*
D03*
X0181358Y0291285D02*
D03*
X0174468Y0291285D02*
D03*
X0174468Y0283805D02*
D03*
X0161968Y0304770D02*
D03*
X0161968Y0297289D02*
D03*
X0169153Y0297486D02*
D03*
X0169153Y0304966D02*
D03*
D546*
X0184212Y0277506D02*
D03*
X0184212Y0264514D02*
D03*
X0221417Y0264907D02*
D03*
X0221417Y0277899D02*
D03*
X0200256Y0277506D02*
D03*
X0200256Y0264514D02*
D03*
X0192087Y0264514D02*
D03*
X0192087Y0277506D02*
D03*
D477*
X0174665Y0297880D02*
D03*
X0180964Y0297880D02*
D03*
X0181063Y0303490D02*
D03*
X0174764Y0303490D02*
D03*
X0177126Y0277407D02*
D03*
X0170827Y0277407D02*
D03*
X0146251Y0187844D02*
D03*
X0152550Y0187844D02*
D03*
X0206260Y0263529D02*
D03*
X0212559Y0263529D02*
D03*
D384*
X0133228Y0173372D02*
D03*
X0125748Y0173372D02*
D03*
X0437370Y0100879D02*
G01*
G75*
D466*
X0425953Y0087867D02*
D03*
X0429693Y0097119D02*
D03*
D466*
X0433433Y0087867D02*
D03*
D318*
X0418394Y0076253D02*
D03*
X0418394Y0081253D02*
D03*
X0418394Y0086253D02*
D03*
X0418394Y0091253D02*
D03*
X0399496Y0076253D02*
D03*
X0399496Y0081253D02*
D03*
X0399496Y0086253D02*
D03*
X0399496Y0091253D02*
D03*
D408*
X0402685Y0096548D02*
D03*
X0396465Y0096548D02*
D03*
X0411031Y0096548D02*
D03*
X0417252Y0096548D02*
D03*
D477*
X0432843Y0082966D02*
D03*
X0426543Y0082966D02*
D03*
D143*
X0422213Y0099009D02*
D03*
X0226092Y0062948D02*
G01*
G75*
D569*
X0215462Y0110605D02*
D03*
X0192037Y0110605D02*
D03*
X0215462Y0100605D02*
D03*
X0192037Y0100605D02*
D03*
X0215462Y0090605D02*
D03*
X0192037Y0090605D02*
D03*
X0215462Y0080605D02*
D03*
X0192037Y0080605D02*
D03*
X0215462Y0070605D02*
D03*
X0192037Y0070605D02*
D03*
D357*
X0202372Y0120664D02*
D03*
X0202372Y0126885D02*
D03*
X0214379Y0123223D02*
D03*
X0214379Y0129444D02*
D03*
D572*
X0208375Y0130861D02*
D03*
X0208375Y0117869D02*
D03*
D355*
X0219005Y0129385D02*
D03*
X0219005Y0123086D02*
D03*
D570*
X0188513Y0123381D02*
D03*
X0197765Y0119641D02*
D03*
D570*
X0197765Y0127121D02*
D03*
D352*
X0219556Y0118755D02*
D03*
X0213336Y0118755D02*
D03*
X0229064Y0434526D02*
G01*
G75*
D578*
X0242076Y0423109D02*
D03*
X0232824Y0426849D02*
D03*
D578*
X0242076Y0430589D02*
D03*
D146*
X0253690Y0415550D02*
D03*
X0248690Y0415550D02*
D03*
X0243690Y0415550D02*
D03*
X0238690Y0415550D02*
D03*
X0253690Y0396652D02*
D03*
X0248690Y0396652D02*
D03*
X0243690Y0396652D02*
D03*
X0238690Y0396652D02*
D03*
D579*
X0233395Y0399841D02*
D03*
X0233395Y0393621D02*
D03*
X0233395Y0408187D02*
D03*
X0233395Y0414408D02*
D03*
D580*
X0246977Y0429999D02*
D03*
X0246977Y0423699D02*
D03*
D143*
X0230934Y0419369D02*
D03*
X0423267Y0376824D02*
G01*
G75*
D380*
X0375924Y0368497D02*
D03*
X0375924Y0374718D02*
D03*
X0370609Y0372848D02*
D03*
X0370609Y0366627D02*
D03*
X0380452Y0374718D02*
D03*
X0380452Y0368497D02*
D03*
X0420314Y0367710D02*
D03*
X0420314Y0373930D02*
D03*
X0389409Y0374422D02*
D03*
X0389409Y0368202D02*
D03*
D586*
X0356633Y0366293D02*
D03*
X0356633Y0373773D02*
D03*
X0365098Y0373773D02*
D03*
X0365098Y0370033D02*
D03*
X0399999Y0365800D02*
D03*
X0399999Y0373281D02*
D03*
X0408464Y0373281D02*
D03*
X0408464Y0369541D02*
D03*
D586*
X0365098Y0366293D02*
D03*
X0408464Y0365800D02*
D03*
D477*
X0372381Y0363733D02*
D03*
X0378680Y0363733D02*
D03*
X0382420Y0362946D02*
D03*
X0388720Y0362946D02*
D03*
D409*
X0384881Y0367080D02*
D03*
X0384881Y0373379D02*
D03*
X0414212Y0367080D02*
D03*
X0414212Y0373379D02*
D03*
X0394330Y0367080D02*
D03*
X0394330Y0373379D02*
D03*
X0118904Y0476098D02*
G01*
G75*
D588*
X0105813Y0533578D02*
D03*
X0105813Y0506216D02*
D03*
D589*
X0090754Y0492043D02*
D03*
X0090754Y0483381D02*
D03*
X0080715Y0483677D02*
D03*
X0080715Y0492338D02*
D03*
D572*
X0061128Y0521177D02*
D03*
X0061128Y0534169D02*
D03*
D590*
X0076778Y0536137D02*
D03*
X0068117Y0536137D02*
D03*
X0088491Y0506019D02*
D03*
X0079829Y0506019D02*
D03*
D355*
X0090558Y0495685D02*
D03*
X0090558Y0501984D02*
D03*
X0085735Y0495783D02*
D03*
X0085735Y0489484D02*
D03*
X0077762Y0516944D02*
D03*
X0077762Y0510645D02*
D03*
D423*
X0081207Y0528539D02*
D03*
X0084947Y0537791D02*
D03*
X0082487Y0514563D02*
D03*
X0086227Y0523815D02*
D03*
D423*
X0088687Y0528539D02*
D03*
X0089967Y0514562D02*
D03*
D570*
X0067152Y0525901D02*
D03*
X0076404Y0522161D02*
D03*
D570*
X0076404Y0529641D02*
D03*
D595*
X0074613Y0482594D02*
D03*
X0062802Y0482594D02*
D03*
D596*
X0062802Y0491255D02*
D03*
X0062802Y0505822D02*
D03*
D348*
X0076187Y0491551D02*
D03*
X0069888Y0491551D02*
D03*
D594*
X0087408Y0479740D02*
D03*
X0081188Y0479740D02*
D03*
D521*
X0068215Y0498539D02*
D03*
X0081207Y0498539D02*
D03*
D510*
X0061227Y0514385D02*
D03*
X0072644Y0514385D02*
D03*
X0086313Y0305463D02*
G01*
G75*
D345*
X0067907Y0325050D02*
D03*
X0060427Y0325050D02*
D03*
X0068104Y0356447D02*
D03*
X0060624Y0356447D02*
D03*
D605*
X0068203Y0454380D02*
D03*
X0079226Y0454380D02*
D03*
D606*
X0074207Y0332727D02*
D03*
X0074207Y0348869D02*
D03*
D430*
X0062297Y0458219D02*
D03*
X0062297Y0451920D02*
D03*
X0061707Y0407333D02*
D03*
X0061707Y0413632D02*
D03*
X0062297Y0368652D02*
D03*
X0062297Y0362353D02*
D03*
D357*
X0061411Y0447353D02*
D03*
X0061411Y0441132D02*
D03*
X0066825Y0362294D02*
D03*
X0066825Y0368514D02*
D03*
X0081884Y0416132D02*
D03*
X0081884Y0422353D02*
D03*
D352*
X0063026Y0372884D02*
D03*
X0069246Y0372884D02*
D03*
D607*
X0065919Y0385778D02*
D03*
X0070919Y0385778D02*
D03*
X0075919Y0385778D02*
D03*
X0080919Y0385778D02*
D03*
X0065919Y0408416D02*
D03*
X0070919Y0408416D02*
D03*
X0075919Y0408416D02*
D03*
X0080919Y0408416D02*
D03*
D609*
X0073419Y0397097D02*
D03*
D608*
X0076766Y0375247D02*
D03*
X0076766Y0359498D02*
D03*
D510*
X0066530Y0436467D02*
D03*
X0077947Y0436467D02*
D03*
X0060427Y0419538D02*
D03*
X0071844Y0419538D02*
D03*
X0077848Y0428298D02*
D03*
X0066431Y0428298D02*
D03*
X0078045Y0444538D02*
D03*
X0066628Y0444538D02*
D03*
D610*
X0062888Y0313534D02*
D03*
X0080604Y0313534D02*
D03*
D348*
X0062986Y0377313D02*
D03*
X0069285Y0377313D02*
D03*
D287*
X0060427Y0313534D02*
D03*
X0321361Y0389988D02*
%LPD*%
G01*
G36*
G01*
X0285061Y0458580D02*
X0285061Y0457222D01*
G75*
G02*
X0284481Y0456641I-000581J0000000D01*
G01*
X0283319Y0456641D01*
G75*
G02*
X0282739Y0457222I0000000J0000581D01*
G01*
X0282739Y0458580D01*
G75*
G02*
X0283319Y0459161I0000581J0000000D01*
G01*
X0284481Y0459161D01*
G75*
G02*
X0285061Y0458580I0000000J-000581D01*
G01*
G37*
G36*
G01*
X0281242Y0458580D02*
X0281242Y0457222D01*
G75*
G02*
X0280662Y0456641I-000581J0000000D01*
G01*
X0279500Y0456641D01*
G75*
G02*
X0278920Y0457222I0000000J0000581D01*
G01*
X0278920Y0458580D01*
G75*
G02*
X0279500Y0459161I0000581J0000000D01*
G01*
X0280662Y0459161D01*
G75*
G02*
X0281242Y0458580I0000000J-000581D01*
G01*
G37*
G36*
G01*
X0309719Y0493403D02*
X0311077Y0493403D01*
G75*
G02*
X0311658Y0492822I0000000J-000581D01*
G01*
X0311658Y0491661D01*
G75*
G02*
X0311077Y0491080I-000581J0000000D01*
G01*
X0309719Y0491080D01*
G75*
G02*
X0309138Y0491661I0000000J0000581D01*
G01*
X0309138Y0492822D01*
G75*
G02*
X0309719Y0493403I0000581J0000000D01*
G01*
G37*
G36*
G01*
X0309719Y0489584D02*
X0311077Y0489584D01*
G75*
G02*
X0311658Y0489003I0000000J-000581D01*
G01*
X0311658Y0487842D01*
G75*
G02*
X0311077Y0487261I-000581J0000000D01*
G01*
X0309719Y0487261D01*
G75*
G02*
X0309138Y0487842I0000000J0000581D01*
G01*
X0309138Y0489003D01*
G75*
G02*
X0309719Y0489584I0000581J0000000D01*
G01*
G37*
G36*
G01*
X0284827Y0496011D02*
X0283469Y0496011D01*
G75*
G02*
X0282888Y0496592I0000000J0000581D01*
G01*
X0282888Y0497753D01*
G75*
G02*
X0283469Y0498334I0000581J0000000D01*
G01*
X0284827Y0498334D01*
G75*
G02*
X0285408Y0497753I0000000J-000581D01*
G01*
X0285408Y0496592D01*
G75*
G02*
X0284827Y0496011I-000581J0000000D01*
G01*
G37*
G36*
G01*
X0284827Y0499830D02*
X0283469Y0499830D01*
G75*
G02*
X0282888Y0500411I0000000J0000581D01*
G01*
X0282888Y0501572D01*
G75*
G02*
X0283469Y0502153I0000581J0000000D01*
G01*
X0284827Y0502153D01*
G75*
G02*
X0285408Y0501572I0000000J-000581D01*
G01*
X0285408Y0500411D01*
G75*
G02*
X0284827Y0499830I-000581J0000000D01*
G01*
G37*
G36*
G01*
X0301209Y0395988D02*
X0299851Y0395988D01*
G75*
G02*
X0299270Y0396568I0000000J0000581D01*
G01*
X0299270Y0397730D01*
G75*
G02*
X0299851Y0398310I0000581J0000000D01*
G01*
X0301209Y0398310D01*
G75*
G02*
X0301790Y0397730I0000000J-000581D01*
G01*
X0301790Y0396568D01*
G75*
G02*
X0301209Y0395988I-000581J0000000D01*
G01*
G37*
G36*
G01*
X0301209Y0399806D02*
X0299851Y0399806D01*
G75*
G02*
X0299270Y0400387I0000000J0000581D01*
G01*
X0299270Y0401549D01*
G75*
G02*
X0299851Y0402129I0000581J0000000D01*
G01*
X0301209Y0402129D01*
G75*
G02*
X0301790Y0401549I0000000J-000581D01*
G01*
X0301790Y0400387D01*
G75*
G02*
X0301209Y0399806I-000581J0000000D01*
G01*
G37*
G36*
G01*
X0287207Y0409550D02*
X0287207Y0411567D01*
G75*
G02*
X0288068Y0412428I0000861J0000000D01*
G01*
X0289791Y0412428D01*
G75*
G02*
X0290652Y0411567I0000000J-000861D01*
G01*
X0290652Y0409550D01*
G75*
G02*
X0289791Y0408688I-000861J0000000D01*
G01*
X0288068Y0408688D01*
G75*
G02*
X0287207Y0409550I0000000J0000861D01*
G01*
G37*
G36*
G01*
X0293408Y0409550D02*
X0293408Y0411567D01*
G75*
G02*
X0294269Y0412428I0000861J0000000D01*
G01*
X0295992Y0412428D01*
G75*
G02*
X0296853Y0411567I0000000J-000861D01*
G01*
X0296853Y0409550D01*
G75*
G02*
X0295992Y0408688I-000861J0000000D01*
G01*
X0294269Y0408688D01*
G75*
G02*
X0293408Y0409550I0000000J0000861D01*
G01*
G37*
G36*
G01*
X0284157Y0480259D02*
X0282139Y0480259D01*
G75*
G02*
X0281278Y0481120I0000000J0000861D01*
G01*
X0281278Y0482843D01*
G75*
G02*
X0282139Y0483704I0000861J0000000D01*
G01*
X0284157Y0483704D01*
G75*
G02*
X0285018Y0482843I0000000J-000861D01*
G01*
X0285018Y0481120D01*
G75*
G02*
X0284157Y0480259I-000861J0000000D01*
G01*
G37*
G36*
G01*
X0284157Y0486460D02*
X0282139Y0486460D01*
G75*
G02*
X0281278Y0487321I0000000J0000861D01*
G01*
X0281278Y0489044D01*
G75*
G02*
X0282139Y0489905I0000861J0000000D01*
G01*
X0284157Y0489905D01*
G75*
G02*
X0285018Y0489044I0000000J-000861D01*
G01*
X0285018Y0487321D01*
G75*
G02*
X0284157Y0486460I-000861J0000000D01*
G01*
G37*
G36*
G01*
X0309719Y0485653D02*
X0311077Y0485653D01*
G75*
G02*
X0311658Y0485072I0000000J-000581D01*
G01*
X0311658Y0483911D01*
G75*
G02*
X0311077Y0483330I-000581J0000000D01*
G01*
X0309719Y0483330D01*
G75*
G02*
X0309138Y0483911I0000000J0000581D01*
G01*
X0309138Y0485072D01*
G75*
G02*
X0309719Y0485653I0000581J0000000D01*
G01*
G37*
G36*
G01*
X0309719Y0481834D02*
X0311077Y0481834D01*
G75*
G02*
X0311658Y0481253I0000000J-000581D01*
G01*
X0311658Y0480092D01*
G75*
G02*
X0311077Y0479511I-000581J0000000D01*
G01*
X0309719Y0479511D01*
G75*
G02*
X0309138Y0480092I0000000J0000581D01*
G01*
X0309138Y0481253D01*
G75*
G02*
X0309719Y0481834I0000581J0000000D01*
G01*
G37*
G36*
G01*
X0293219Y0497761D02*
X0293219Y0496403D01*
G75*
G02*
X0292638Y0495822I-000581J0000000D01*
G01*
X0291477Y0495822D01*
G75*
G02*
X0290896Y0496403I0000000J0000581D01*
G01*
X0290896Y0497761D01*
G75*
G02*
X0291477Y0498342I0000581J0000000D01*
G01*
X0292638Y0498342D01*
G75*
G02*
X0293219Y0497761I0000000J-000581D01*
G01*
G37*
G36*
G01*
X0289400Y0497761D02*
X0289400Y0496403D01*
G75*
G02*
X0288819Y0495822I-000581J0000000D01*
G01*
X0287658Y0495822D01*
G75*
G02*
X0287077Y0496403I0000000J0000581D01*
G01*
X0287077Y0497761D01*
G75*
G02*
X0287658Y0498342I0000581J0000000D01*
G01*
X0288819Y0498342D01*
G75*
G02*
X0289400Y0497761I0000000J-000581D01*
G01*
G37*
G36*
G01*
X0271242Y0491474D02*
X0271242Y0492832D01*
G75*
G02*
X0271823Y0493413I0000581J0000000D01*
G01*
X0272985Y0493413D01*
G75*
G02*
X0273565Y0492832I0000000J-000581D01*
G01*
X0273565Y0491474D01*
G75*
G02*
X0272985Y0490893I-000581J0000000D01*
G01*
X0271823Y0490893D01*
G75*
G02*
X0271242Y0491474I0000000J0000581D01*
G01*
G37*
G36*
G01*
X0275061Y0491474D02*
X0275061Y0492832D01*
G75*
G02*
X0275642Y0493413I0000581J0000000D01*
G01*
X0276804Y0493413D01*
G75*
G02*
X0277384Y0492832I0000000J-000581D01*
G01*
X0277384Y0491474D01*
G75*
G02*
X0276804Y0490893I-000581J0000000D01*
G01*
X0275642Y0490893D01*
G75*
G02*
X0275061Y0491474I0000000J0000581D01*
G01*
G37*
G36*
G01*
X0267906Y0486917D02*
X0266548Y0486917D01*
G75*
G02*
X0265967Y0487497I0000000J0000581D01*
G01*
X0265967Y0488659D01*
G75*
G02*
X0266548Y0489239I0000581J0000000D01*
G01*
X0267906Y0489239D01*
G75*
G02*
X0268487Y0488659I0000000J-000581D01*
G01*
X0268487Y0487497D01*
G75*
G02*
X0267906Y0486917I-000581J0000000D01*
G01*
G37*
G36*
G01*
X0267906Y0490736D02*
X0266548Y0490736D01*
G75*
G02*
X0265967Y0491316I0000000J0000581D01*
G01*
X0265967Y0492478D01*
G75*
G02*
X0266548Y0493058I0000581J0000000D01*
G01*
X0267906Y0493058D01*
G75*
G02*
X0268487Y0492478I0000000J-000581D01*
G01*
X0268487Y0491316D01*
G75*
G02*
X0267906Y0490736I-000581J0000000D01*
G01*
G37*
G36*
G01*
X0266725Y0462113D02*
X0265367Y0462113D01*
G75*
G02*
X0264786Y0462694I0000000J0000581D01*
G01*
X0264786Y0463856D01*
G75*
G02*
X0265367Y0464436I0000581J0000000D01*
G01*
X0266725Y0464436D01*
G75*
G02*
X0267305Y0463856I0000000J-000581D01*
G01*
X0267305Y0462694D01*
G75*
G02*
X0266725Y0462113I-000581J0000000D01*
G01*
G37*
G36*
G01*
X0266725Y0465932D02*
X0265367Y0465932D01*
G75*
G02*
X0264786Y0466513I0000000J0000581D01*
G01*
X0264786Y0467675D01*
G75*
G02*
X0265367Y0468255I0000581J0000000D01*
G01*
X0266725Y0468255D01*
G75*
G02*
X0267305Y0467675I0000000J-000581D01*
G01*
X0267305Y0466513D01*
G75*
G02*
X0266725Y0465932I-000581J0000000D01*
G01*
G37*
G36*
G01*
X0309719Y0477903D02*
X0311077Y0477903D01*
G75*
G02*
X0311658Y0477322I0000000J-000581D01*
G01*
X0311658Y0476161D01*
G75*
G02*
X0311077Y0475580I-000581J0000000D01*
G01*
X0309719Y0475580D01*
G75*
G02*
X0309138Y0476161I0000000J0000581D01*
G01*
X0309138Y0477322D01*
G75*
G02*
X0309719Y0477903I0000581J0000000D01*
G01*
G37*
G36*
G01*
X0309719Y0474084D02*
X0311077Y0474084D01*
G75*
G02*
X0311658Y0473503I0000000J-000581D01*
G01*
X0311658Y0472342D01*
G75*
G02*
X0311077Y0471761I-000581J0000000D01*
G01*
X0309719Y0471761D01*
G75*
G02*
X0309138Y0472342I0000000J0000581D01*
G01*
X0309138Y0473503D01*
G75*
G02*
X0309719Y0474084I0000581J0000000D01*
G01*
G37*
G36*
G01*
X0309719Y0470153D02*
X0311077Y0470153D01*
G75*
G02*
X0311658Y0469572I0000000J-000581D01*
G01*
X0311658Y0468411D01*
G75*
G02*
X0311077Y0467830I-000581J0000000D01*
G01*
X0309719Y0467830D01*
G75*
G02*
X0309138Y0468411I0000000J0000581D01*
G01*
X0309138Y0469572D01*
G75*
G02*
X0309719Y0470153I0000581J0000000D01*
G01*
G37*
G36*
G01*
X0309719Y0466334D02*
X0311077Y0466334D01*
G75*
G02*
X0311658Y0465753I0000000J-000581D01*
G01*
X0311658Y0464592D01*
G75*
G02*
X0311077Y0464011I-000581J0000000D01*
G01*
X0309719Y0464011D01*
G75*
G02*
X0309138Y0464592I0000000J0000581D01*
G01*
X0309138Y0465753D01*
G75*
G02*
X0309719Y0466334I0000581J0000000D01*
G01*
G37*
G36*
G01*
X0285219Y0493761D02*
X0285219Y0492403D01*
G75*
G02*
X0284638Y0491822I-000581J0000000D01*
G01*
X0283477Y0491822D01*
G75*
G02*
X0282896Y0492403I0000000J0000581D01*
G01*
X0282896Y0493761D01*
G75*
G02*
X0283477Y0494342I0000581J0000000D01*
G01*
X0284638Y0494342D01*
G75*
G02*
X0285219Y0493761I0000000J-000581D01*
G01*
G37*
G36*
G01*
X0281400Y0493761D02*
X0281400Y0492403D01*
G75*
G02*
X0280819Y0491822I-000581J0000000D01*
G01*
X0279658Y0491822D01*
G75*
G02*
X0279077Y0492403I0000000J0000581D01*
G01*
X0279077Y0493761D01*
G75*
G02*
X0279658Y0494342I0000581J0000000D01*
G01*
X0280819Y0494342D01*
G75*
G02*
X0281400Y0493761I0000000J-000581D01*
G01*
G37*
D258*
X0295170Y0403995D03*
X0287690Y0403995D03*
X0291430Y0396121D03*
D620*
X0289471Y0467468D03*
X0292030Y0467468D03*
X0294589Y0467468D03*
X0297148Y0467468D03*
X0299707Y0467468D03*
X0302266Y0467468D03*
X0304825Y0467468D03*
X0304825Y0490696D03*
X0302266Y0490696D03*
X0299707Y0490696D03*
X0297148Y0490696D03*
X0294589Y0490696D03*
X0292030Y0490696D03*
X0289471Y0490696D03*
G36*
G01*
X0293219Y0501761D02*
X0293219Y0500403D01*
G75*
G02*
X0292638Y0499822I-000581J0000000D01*
G01*
X0291477Y0499822D01*
G75*
G02*
X0290896Y0500403I0000000J0000581D01*
G01*
X0290896Y0501761D01*
G75*
G02*
X0291477Y0502342I0000581J0000000D01*
G01*
X0292638Y0502342D01*
G75*
G02*
X0293219Y0501761I0000000J-000581D01*
G01*
G37*
G36*
G01*
X0289400Y0501761D02*
X0289400Y0500403D01*
G75*
G02*
X0288819Y0499822I-000581J0000000D01*
G01*
X0287658Y0499822D01*
G75*
G02*
X0287077Y0500403I0000000J0000581D01*
G01*
X0287077Y0501761D01*
G75*
G02*
X0287658Y0502342I0000581J0000000D01*
G01*
X0288819Y0502342D01*
G75*
G02*
X0289400Y0501761I0000000J-000581D01*
G01*
G37*
G36*
G01*
X0270465Y0454633D02*
X0269107Y0454633D01*
G75*
G02*
X0268526Y0455214I0000000J0000581D01*
G01*
X0268526Y0456375D01*
G75*
G02*
X0269107Y0456956I0000581J0000000D01*
G01*
X0270465Y0456956D01*
G75*
G02*
X0271046Y0456375I0000000J-000581D01*
G01*
X0271046Y0455214D01*
G75*
G02*
X0270465Y0454633I-000581J0000000D01*
G01*
G37*
G36*
G01*
X0270465Y0458452D02*
X0269107Y0458452D01*
G75*
G02*
X0268526Y0459033I0000000J0000581D01*
G01*
X0268526Y0460194D01*
G75*
G02*
X0269107Y0460775I0000581J0000000D01*
G01*
X0270465Y0460775D01*
G75*
G02*
X0271046Y0460194I0000000J-000581D01*
G01*
X0271046Y0459033D01*
G75*
G02*
X0270465Y0458452I-000581J0000000D01*
G01*
G37*
G36*
G01*
X0265367Y0460775D02*
X0266725Y0460775D01*
G75*
G02*
X0267305Y0460194I0000000J-000581D01*
G01*
X0267305Y0459033D01*
G75*
G02*
X0266725Y0458452I-000581J0000000D01*
G01*
X0265367Y0458452D01*
G75*
G02*
X0264786Y0459033I0000000J0000581D01*
G01*
X0264786Y0460194D01*
G75*
G02*
X0265367Y0460775I0000581J0000000D01*
G01*
G37*
G36*
G01*
X0265367Y0456956D02*
X0266725Y0456956D01*
G75*
G02*
X0267305Y0456375I0000000J-000581D01*
G01*
X0267305Y0455214D01*
G75*
G02*
X0266725Y0454633I-000581J0000000D01*
G01*
X0265367Y0454633D01*
G75*
G02*
X0264786Y0455214I0000000J0000581D01*
G01*
X0264786Y0456375D01*
G75*
G02*
X0265367Y0456956I0000581J0000000D01*
G01*
G37*
G36*
G01*
X0286400Y0457222D02*
X0286400Y0458580D01*
G75*
G02*
X0286981Y0459161I0000581J0000000D01*
G01*
X0288142Y0459161D01*
G75*
G02*
X0288723Y0458580I0000000J-000581D01*
G01*
X0288723Y0457222D01*
G75*
G02*
X0288142Y0456641I-000581J0000000D01*
G01*
X0286981Y0456641D01*
G75*
G02*
X0286400Y0457222I0000000J0000581D01*
G01*
G37*
G36*
G01*
X0290219Y0457222D02*
X0290219Y0458580D01*
G75*
G02*
X0290800Y0459161I0000581J0000000D01*
G01*
X0291961Y0459161D01*
G75*
G02*
X0292542Y0458580I0000000J-000581D01*
G01*
X0292542Y0457222D01*
G75*
G02*
X0291961Y0456641I-000581J0000000D01*
G01*
X0290800Y0456641D01*
G75*
G02*
X0290219Y0457222I0000000J0000581D01*
G01*
G37*
G36*
G01*
X0276203Y0503659D02*
X0276203Y0502301D01*
G75*
G02*
X0275622Y0501720I-000581J0000000D01*
G01*
X0274461Y0501720D01*
G75*
G02*
X0273880Y0502301I0000000J0000581D01*
G01*
X0273880Y0503659D01*
G75*
G02*
X0274461Y0504239I0000581J0000000D01*
G01*
X0275622Y0504239D01*
G75*
G02*
X0276203Y0503659I0000000J-000581D01*
G01*
G37*
G36*
G01*
X0272384Y0503659D02*
X0272384Y0502301D01*
G75*
G02*
X0271804Y0501720I-000581J0000000D01*
G01*
X0270642Y0501720D01*
G75*
G02*
X0270061Y0502301I0000000J0000581D01*
G01*
X0270061Y0503659D01*
G75*
G02*
X0270642Y0504239I0000581J0000000D01*
G01*
X0271804Y0504239D01*
G75*
G02*
X0272384Y0503659I0000000J-000581D01*
G01*
G37*
G36*
G01*
X0266725Y0429102D02*
X0265367Y0429102D01*
G75*
G02*
X0264786Y0429682I0000000J0000581D01*
G01*
X0264786Y0430844D01*
G75*
G02*
X0265367Y0431425I0000581J0000000D01*
G01*
X0266725Y0431425D01*
G75*
G02*
X0267305Y0430844I0000000J-000581D01*
G01*
X0267305Y0429682D01*
G75*
G02*
X0266725Y0429102I-000581J0000000D01*
G01*
G37*
G36*
G01*
X0266725Y0432921D02*
X0265367Y0432921D01*
G75*
G02*
X0264786Y0433501I0000000J0000581D01*
G01*
X0264786Y0434663D01*
G75*
G02*
X0265367Y0435243I0000581J0000000D01*
G01*
X0266725Y0435243D01*
G75*
G02*
X0267305Y0434663I0000000J-000581D01*
G01*
X0267305Y0433501D01*
G75*
G02*
X0266725Y0432921I-000581J0000000D01*
G01*
G37*
G36*
G01*
X0302542Y0452497D02*
X0302542Y0453856D01*
G75*
G02*
X0303122Y0454436I0000581J0000000D01*
G01*
X0304284Y0454436D01*
G75*
G02*
X0304865Y0453856I0000000J-000581D01*
G01*
X0304865Y0452497D01*
G75*
G02*
X0304284Y0451917I-000581J0000000D01*
G01*
X0303122Y0451917D01*
G75*
G02*
X0302542Y0452497I0000000J0000581D01*
G01*
G37*
G36*
G01*
X0306361Y0452497D02*
X0306361Y0453856D01*
G75*
G02*
X0306941Y0454436I0000581J0000000D01*
G01*
X0308103Y0454436D01*
G75*
G02*
X0308683Y0453856I0000000J-000581D01*
G01*
X0308683Y0452497D01*
G75*
G02*
X0308103Y0451917I-000581J0000000D01*
G01*
X0306941Y0451917D01*
G75*
G02*
X0306361Y0452497I0000000J0000581D01*
G01*
G37*
G36*
G01*
X0273447Y0418029D02*
X0273447Y0416671D01*
G75*
G02*
X0272867Y0416090I-000581J0000000D01*
G01*
X0271705Y0416090D01*
G75*
G02*
X0271124Y0416671I0000000J0000581D01*
G01*
X0271124Y0418029D01*
G75*
G02*
X0271705Y0418610I0000581J0000000D01*
G01*
X0272867Y0418610D01*
G75*
G02*
X0273447Y0418029I0000000J-000581D01*
G01*
G37*
G36*
G01*
X0269628Y0418029D02*
X0269628Y0416671D01*
G75*
G02*
X0269048Y0416090I-000581J0000000D01*
G01*
X0267886Y0416090D01*
G75*
G02*
X0267305Y0416671I0000000J0000581D01*
G01*
X0267305Y0418029D01*
G75*
G02*
X0267886Y0418610I0000581J0000000D01*
G01*
X0269048Y0418610D01*
G75*
G02*
X0269628Y0418029I0000000J-000581D01*
G01*
G37*
D623*
X0290061Y0524732D03*
X0290061Y0512724D03*
X0303250Y0524732D03*
X0303250Y0512724D03*
D621*
X0271853Y0527704D03*
X0271853Y0509751D03*
G36*
G01*
X0314363Y0496503D02*
X0313004Y0496503D01*
G75*
G02*
X0312424Y0497084I0000000J0000581D01*
G01*
X0312424Y0498245D01*
G75*
G02*
X0313004Y0498826I0000581J0000000D01*
G01*
X0314363Y0498826D01*
G75*
G02*
X0314943Y0498245I0000000J-000581D01*
G01*
X0314943Y0497084D01*
G75*
G02*
X0314363Y0496503I-000581J0000000D01*
G01*
G37*
G36*
G01*
X0314363Y0500322D02*
X0313004Y0500322D01*
G75*
G02*
X0312424Y0500903I0000000J0000581D01*
G01*
X0312424Y0502064D01*
G75*
G02*
X0313004Y0502645I0000581J0000000D01*
G01*
X0314363Y0502645D01*
G75*
G02*
X0314943Y0502064I0000000J-000581D01*
G01*
X0314943Y0500903D01*
G75*
G02*
X0314363Y0500322I-000581J0000000D01*
G01*
G37*
G36*
G01*
X0308683Y0458383D02*
X0308683Y0457025D01*
G75*
G02*
X0308103Y0456444I-000581J0000000D01*
G01*
X0306941Y0456444D01*
G75*
G02*
X0306361Y0457025I0000000J0000581D01*
G01*
X0306361Y0458383D01*
G75*
G02*
X0306941Y0458964I0000581J0000000D01*
G01*
X0308103Y0458964D01*
G75*
G02*
X0308683Y0458383I0000000J-000581D01*
G01*
G37*
G36*
G01*
X0304865Y0458383D02*
X0304865Y0457025D01*
G75*
G02*
X0304284Y0456444I-000581J0000000D01*
G01*
X0303122Y0456444D01*
G75*
G02*
X0302542Y0457025I0000000J0000581D01*
G01*
X0302542Y0458383D01*
G75*
G02*
X0303122Y0458964I0000581J0000000D01*
G01*
X0304284Y0458964D01*
G75*
G02*
X0304865Y0458383I0000000J-000581D01*
G01*
G37*
G36*
G01*
X0268103Y0494732D02*
X0266744Y0494732D01*
G75*
G02*
X0266164Y0495312I0000000J0000581D01*
G01*
X0266164Y0496474D01*
G75*
G02*
X0266744Y0497054I0000581J0000000D01*
G01*
X0268103Y0497054D01*
G75*
G02*
X0268683Y0496474I0000000J-000581D01*
G01*
X0268683Y0495312D01*
G75*
G02*
X0268103Y0494732I-000581J0000000D01*
G01*
G37*
G36*
G01*
X0268103Y0498551D02*
X0266744Y0498551D01*
G75*
G02*
X0266164Y0499131I0000000J0000581D01*
G01*
X0266164Y0500293D01*
G75*
G02*
X0266744Y0500873I0000581J0000000D01*
G01*
X0268103Y0500873D01*
G75*
G02*
X0268683Y0500293I0000000J-000581D01*
G01*
X0268683Y0499131D01*
G75*
G02*
X0268103Y0498551I-000581J0000000D01*
G01*
G37*
G36*
G01*
X0301577Y0460903D02*
X0301577Y0462261D01*
G75*
G02*
X0302158Y0462842I0000581J0000000D01*
G01*
X0303319Y0462842D01*
G75*
G02*
X0303900Y0462261I0000000J-000581D01*
G01*
X0303900Y0460903D01*
G75*
G02*
X0303319Y0460322I-000581J0000000D01*
G01*
X0302158Y0460322D01*
G75*
G02*
X0301577Y0460903I0000000J0000581D01*
G01*
G37*
G36*
G01*
X0305396Y0460903D02*
X0305396Y0462261D01*
G75*
G02*
X0305977Y0462842I0000581J0000000D01*
G01*
X0307138Y0462842D01*
G75*
G02*
X0307719Y0462261I0000000J-000581D01*
G01*
X0307719Y0460903D01*
G75*
G02*
X0307138Y0460322I-000581J0000000D01*
G01*
X0305977Y0460322D01*
G75*
G02*
X0305396Y0460903I0000000J0000581D01*
G01*
G37*
G36*
G01*
X0301174Y0406799D02*
X0299815Y0406799D01*
G75*
G02*
X0299235Y0407379I0000000J0000581D01*
G01*
X0299235Y0408541D01*
G75*
G02*
X0299815Y0409121I0000581J0000000D01*
G01*
X0301174Y0409121D01*
G75*
G02*
X0301754Y0408541I0000000J-000581D01*
G01*
X0301754Y0407379D01*
G75*
G02*
X0301174Y0406799I-000581J0000000D01*
G01*
G37*
G36*
G01*
X0301174Y0410617D02*
X0299815Y0410617D01*
G75*
G02*
X0299235Y0411198I0000000J0000581D01*
G01*
X0299235Y0412360D01*
G75*
G02*
X0299815Y0412940I0000581J0000000D01*
G01*
X0301174Y0412940D01*
G75*
G02*
X0301754Y0412360I0000000J-000581D01*
G01*
X0301754Y0411198D01*
G75*
G02*
X0301174Y0410617I-000581J0000000D01*
G01*
G37*
G36*
G01*
X0311139Y0445905D02*
X0313157Y0445905D01*
G75*
G02*
X0314018Y0445044I0000000J-000861D01*
G01*
X0314018Y0443321D01*
G75*
G02*
X0313157Y0442460I-000861J0000000D01*
G01*
X0311139Y0442460D01*
G75*
G02*
X0310278Y0443321I0000000J0000861D01*
G01*
X0310278Y0445044D01*
G75*
G02*
X0311139Y0445905I0000861J0000000D01*
G01*
G37*
G36*
G01*
X0311139Y0439704D02*
X0313157Y0439704D01*
G75*
G02*
X0314018Y0438843I0000000J-000861D01*
G01*
X0314018Y0437120D01*
G75*
G02*
X0313157Y0436259I-000861J0000000D01*
G01*
X0311139Y0436259D01*
G75*
G02*
X0310278Y0437120I0000000J0000861D01*
G01*
X0310278Y0438843D01*
G75*
G02*
X0311139Y0439704I0000861J0000000D01*
G01*
G37*
G36*
G01*
X0311469Y0454153D02*
X0312827Y0454153D01*
G75*
G02*
X0313408Y0453572I0000000J-000581D01*
G01*
X0313408Y0452411D01*
G75*
G02*
X0312827Y0451830I-000581J0000000D01*
G01*
X0311469Y0451830D01*
G75*
G02*
X0310888Y0452411I0000000J0000581D01*
G01*
X0310888Y0453572D01*
G75*
G02*
X0311469Y0454153I0000581J0000000D01*
G01*
G37*
G36*
G01*
X0311469Y0450334D02*
X0312827Y0450334D01*
G75*
G02*
X0313408Y0449753I0000000J-000581D01*
G01*
X0313408Y0448592D01*
G75*
G02*
X0312827Y0448011I-000581J0000000D01*
G01*
X0311469Y0448011D01*
G75*
G02*
X0310888Y0448592I0000000J0000581D01*
G01*
X0310888Y0449753D01*
G75*
G02*
X0311469Y0450334I0000581J0000000D01*
G01*
G37*
G36*
G01*
X0283469Y0466653D02*
X0284827Y0466653D01*
G75*
G02*
X0285408Y0466072I0000000J-000581D01*
G01*
X0285408Y0464911D01*
G75*
G02*
X0284827Y0464330I-000581J0000000D01*
G01*
X0283469Y0464330D01*
G75*
G02*
X0282888Y0464911I0000000J0000581D01*
G01*
X0282888Y0466072D01*
G75*
G02*
X0283469Y0466653I0000581J0000000D01*
G01*
G37*
G36*
G01*
X0283469Y0462834D02*
X0284827Y0462834D01*
G75*
G02*
X0285408Y0462253I0000000J-000581D01*
G01*
X0285408Y0461092D01*
G75*
G02*
X0284827Y0460511I-000581J0000000D01*
G01*
X0283469Y0460511D01*
G75*
G02*
X0282888Y0461092I0000000J0000581D01*
G01*
X0282888Y0462253D01*
G75*
G02*
X0283469Y0462834I0000581J0000000D01*
G01*
G37*
G36*
G01*
X0279077Y0472403D02*
X0279077Y0473761D01*
G75*
G02*
X0279658Y0474342I0000581J0000000D01*
G01*
X0280819Y0474342D01*
G75*
G02*
X0281400Y0473761I0000000J-000581D01*
G01*
X0281400Y0472403D01*
G75*
G02*
X0280819Y0471822I-000581J0000000D01*
G01*
X0279658Y0471822D01*
G75*
G02*
X0279077Y0472403I0000000J0000581D01*
G01*
G37*
G36*
G01*
X0282896Y0472403D02*
X0282896Y0473761D01*
G75*
G02*
X0283477Y0474342I0000581J0000000D01*
G01*
X0284638Y0474342D01*
G75*
G02*
X0285219Y0473761I0000000J-000581D01*
G01*
X0285219Y0472403D01*
G75*
G02*
X0284638Y0471822I-000581J0000000D01*
G01*
X0283477Y0471822D01*
G75*
G02*
X0282896Y0472403I0000000J0000581D01*
G01*
G37*
G36*
G01*
X0279077Y0468639D02*
X0279077Y0469997D01*
G75*
G02*
X0279658Y0470578I0000581J0000000D01*
G01*
X0280819Y0470578D01*
G75*
G02*
X0281400Y0469997I0000000J-000581D01*
G01*
X0281400Y0468639D01*
G75*
G02*
X0280819Y0468058I-000581J0000000D01*
G01*
X0279658Y0468058D01*
G75*
G02*
X0279077Y0468639I0000000J0000581D01*
G01*
G37*
G36*
G01*
X0282896Y0468639D02*
X0282896Y0469997D01*
G75*
G02*
X0283477Y0470578I0000581J0000000D01*
G01*
X0284638Y0470578D01*
G75*
G02*
X0285219Y0469997I0000000J-000581D01*
G01*
X0285219Y0468639D01*
G75*
G02*
X0284638Y0468058I-000581J0000000D01*
G01*
X0283477Y0468058D01*
G75*
G02*
X0282896Y0468639I0000000J0000581D01*
G01*
G37*
G36*
G01*
X0279469Y0466653D02*
X0280827Y0466653D01*
G75*
G02*
X0281408Y0466072I0000000J-000581D01*
G01*
X0281408Y0464911D01*
G75*
G02*
X0280827Y0464330I-000581J0000000D01*
G01*
X0279469Y0464330D01*
G75*
G02*
X0278888Y0464911I0000000J0000581D01*
G01*
X0278888Y0466072D01*
G75*
G02*
X0279469Y0466653I0000581J0000000D01*
G01*
G37*
G36*
G01*
X0279469Y0462834D02*
X0280827Y0462834D01*
G75*
G02*
X0281408Y0462253I0000000J-000581D01*
G01*
X0281408Y0461092D01*
G75*
G02*
X0280827Y0460511I-000581J0000000D01*
G01*
X0279469Y0460511D01*
G75*
G02*
X0278888Y0461092I0000000J0000581D01*
G01*
X0278888Y0462253D01*
G75*
G02*
X0279469Y0462834I0000581J0000000D01*
G01*
G37*
D619*
X0274904Y0482743D03*
X0271164Y0482743D03*
X0267424Y0482743D03*
X0267424Y0472428D03*
X0274904Y0472428D03*
G36*
G01*
X0279077Y0476403D02*
X0279077Y0477761D01*
G75*
G02*
X0279658Y0478342I0000581J0000000D01*
G01*
X0280819Y0478342D01*
G75*
G02*
X0281400Y0477761I0000000J-000581D01*
G01*
X0281400Y0476403D01*
G75*
G02*
X0280819Y0475822I-000581J0000000D01*
G01*
X0279658Y0475822D01*
G75*
G02*
X0279077Y0476403I0000000J0000581D01*
G01*
G37*
G36*
G01*
X0282896Y0476403D02*
X0282896Y0477761D01*
G75*
G02*
X0283477Y0478342I0000581J0000000D01*
G01*
X0284638Y0478342D01*
G75*
G02*
X0285219Y0477761I0000000J-000581D01*
G01*
X0285219Y0476403D01*
G75*
G02*
X0284638Y0475822I-000581J0000000D01*
G01*
X0283477Y0475822D01*
G75*
G02*
X0282896Y0476403I0000000J0000581D01*
G01*
G37*
G36*
G01*
X0272030Y0487537D02*
X0272030Y0488895D01*
G75*
G02*
X0272611Y0489476I0000581J0000000D01*
G01*
X0273772Y0489476D01*
G75*
G02*
X0274353Y0488895I0000000J-000581D01*
G01*
X0274353Y0487537D01*
G75*
G02*
X0273772Y0486956I-000581J0000000D01*
G01*
X0272611Y0486956D01*
G75*
G02*
X0272030Y0487537I0000000J0000581D01*
G01*
G37*
G36*
G01*
X0275849Y0487537D02*
X0275849Y0488895D01*
G75*
G02*
X0276429Y0489476I0000581J0000000D01*
G01*
X0277591Y0489476D01*
G75*
G02*
X0278172Y0488895I0000000J-000581D01*
G01*
X0278172Y0487537D01*
G75*
G02*
X0277591Y0486956I-000581J0000000D01*
G01*
X0276429Y0486956D01*
G75*
G02*
X0275849Y0487537I0000000J0000581D01*
G01*
G37*
G36*
G01*
X0294577Y0500903D02*
X0294577Y0502261D01*
G75*
G02*
X0295158Y0502842I0000581J0000000D01*
G01*
X0296319Y0502842D01*
G75*
G02*
X0296900Y0502261I0000000J-000581D01*
G01*
X0296900Y0500903D01*
G75*
G02*
X0296319Y0500322I-000581J0000000D01*
G01*
X0295158Y0500322D01*
G75*
G02*
X0294577Y0500903I0000000J0000581D01*
G01*
G37*
G36*
G01*
X0298396Y0500903D02*
X0298396Y0502261D01*
G75*
G02*
X0298977Y0502842I0000581J0000000D01*
G01*
X0300138Y0502842D01*
G75*
G02*
X0300719Y0502261I0000000J-000581D01*
G01*
X0300719Y0500903D01*
G75*
G02*
X0300138Y0500322I-000581J0000000D01*
G01*
X0298977Y0500322D01*
G75*
G02*
X0298396Y0500903I0000000J0000581D01*
G01*
G37*
G36*
G01*
X0280971Y0499091D02*
X0280971Y0497073D01*
G75*
G02*
X0280110Y0496212I-000861J0000000D01*
G01*
X0278387Y0496212D01*
G75*
G02*
X0277526Y0497073I0000000J0000861D01*
G01*
X0277526Y0499091D01*
G75*
G02*
X0278387Y0499952I0000861J0000000D01*
G01*
X0280110Y0499952D01*
G75*
G02*
X0280971Y0499091I0000000J-000861D01*
G01*
G37*
G36*
G01*
X0274770Y0499091D02*
X0274770Y0497073D01*
G75*
G02*
X0273909Y0496212I-000861J0000000D01*
G01*
X0272186Y0496212D01*
G75*
G02*
X0271325Y0497073I0000000J0000861D01*
G01*
X0271325Y0499091D01*
G75*
G02*
X0272186Y0499952I0000861J0000000D01*
G01*
X0273909Y0499952D01*
G75*
G02*
X0274770Y0499091I0000000J-000861D01*
G01*
G37*
G36*
G01*
X0306095Y0496503D02*
X0304737Y0496503D01*
G75*
G02*
X0304156Y0497084I0000000J0000581D01*
G01*
X0304156Y0498245D01*
G75*
G02*
X0304737Y0498826I0000581J0000000D01*
G01*
X0306095Y0498826D01*
G75*
G02*
X0306676Y0498245I0000000J-000581D01*
G01*
X0306676Y0497084D01*
G75*
G02*
X0306095Y0496503I-000581J0000000D01*
G01*
G37*
G36*
G01*
X0306095Y0500322D02*
X0304737Y0500322D01*
G75*
G02*
X0304156Y0500903I0000000J0000581D01*
G01*
X0304156Y0502064D01*
G75*
G02*
X0304737Y0502645I0000581J0000000D01*
G01*
X0306095Y0502645D01*
G75*
G02*
X0306676Y0502064I0000000J-000581D01*
G01*
X0306676Y0500903D01*
G75*
G02*
X0306095Y0500322I-000581J0000000D01*
G01*
G37*
G36*
G01*
X0308870Y0502645D02*
X0310229Y0502645D01*
G75*
G02*
X0310809Y0502064I0000000J-000581D01*
G01*
X0310809Y0500903D01*
G75*
G02*
X0310229Y0500322I-000581J0000000D01*
G01*
X0308870Y0500322D01*
G75*
G02*
X0308290Y0500903I0000000J0000581D01*
G01*
X0308290Y0502064D01*
G75*
G02*
X0308870Y0502645I0000581J0000000D01*
G01*
G37*
G36*
G01*
X0308870Y0498826D02*
X0310229Y0498826D01*
G75*
G02*
X0310809Y0498245I0000000J-000581D01*
G01*
X0310809Y0497084D01*
G75*
G02*
X0310229Y0496503I-000581J0000000D01*
G01*
X0308870Y0496503D01*
G75*
G02*
X0308290Y0497084I0000000J0000581D01*
G01*
X0308290Y0498245D01*
G75*
G02*
X0308870Y0498826I0000581J0000000D01*
G01*
G37*
G36*
G01*
X0313157Y0424259D02*
X0311139Y0424259D01*
G75*
G02*
X0310278Y0425120I0000000J0000861D01*
G01*
X0310278Y0426843D01*
G75*
G02*
X0311139Y0427704I0000861J0000000D01*
G01*
X0313157Y0427704D01*
G75*
G02*
X0314018Y0426843I0000000J-000861D01*
G01*
X0314018Y0425120D01*
G75*
G02*
X0313157Y0424259I-000861J0000000D01*
G01*
G37*
G36*
G01*
X0313157Y0430460D02*
X0311139Y0430460D01*
G75*
G02*
X0310278Y0431321I0000000J0000861D01*
G01*
X0310278Y0433044D01*
G75*
G02*
X0311139Y0433905I0000861J0000000D01*
G01*
X0313157Y0433905D01*
G75*
G02*
X0314018Y0433044I0000000J-000861D01*
G01*
X0314018Y0431321D01*
G75*
G02*
X0313157Y0430460I-000861J0000000D01*
G01*
G37*
G36*
G01*
X0317709Y0421031D02*
X0316351Y0421031D01*
G75*
G02*
X0315770Y0421612I0000000J0000581D01*
G01*
X0315770Y0422773D01*
G75*
G02*
X0316351Y0423354I0000581J0000000D01*
G01*
X0317709Y0423354D01*
G75*
G02*
X0318290Y0422773I0000000J-000581D01*
G01*
X0318290Y0421612D01*
G75*
G02*
X0317709Y0421031I-000581J0000000D01*
G01*
G37*
G36*
G01*
X0317709Y0424850D02*
X0316351Y0424850D01*
G75*
G02*
X0315770Y0425430I0000000J0000581D01*
G01*
X0315770Y0426592D01*
G75*
G02*
X0316351Y0427173I0000581J0000000D01*
G01*
X0317709Y0427173D01*
G75*
G02*
X0318290Y0426592I0000000J-000581D01*
G01*
X0318290Y0425430D01*
G75*
G02*
X0317709Y0424850I-000581J0000000D01*
G01*
G37*
G36*
G01*
X0275603Y0468255D02*
X0276961Y0468255D01*
G75*
G02*
X0277542Y0467675I0000000J-000581D01*
G01*
X0277542Y0466513D01*
G75*
G02*
X0276961Y0465932I-000581J0000000D01*
G01*
X0275603Y0465932D01*
G75*
G02*
X0275022Y0466513I0000000J0000581D01*
G01*
X0275022Y0467675D01*
G75*
G02*
X0275603Y0468255I0000581J0000000D01*
G01*
G37*
G36*
G01*
X0275603Y0464436D02*
X0276961Y0464436D01*
G75*
G02*
X0277542Y0463856I0000000J-000581D01*
G01*
X0277542Y0462694D01*
G75*
G02*
X0276961Y0462113I-000581J0000000D01*
G01*
X0275603Y0462113D01*
G75*
G02*
X0275022Y0462694I0000000J0000581D01*
G01*
X0275022Y0463856D01*
G75*
G02*
X0275603Y0464436I0000581J0000000D01*
G01*
G37*
G36*
G01*
X0299215Y0454850D02*
X0300199Y0454850D01*
G75*
G02*
X0300691Y0454358I0000000J-000492D01*
G01*
X0300691Y0449436D01*
G75*
G02*
X0300199Y0448944I-000492J0000000D01*
G01*
X0299215Y0448944D01*
G75*
G02*
X0298723Y0449436I0000000J0000492D01*
G01*
X0298723Y0454358D01*
G75*
G02*
X0299215Y0454850I0000492J0000000D01*
G01*
G37*
G36*
G01*
X0296065Y0454850D02*
X0297050Y0454850D01*
G75*
G02*
X0297542Y0454358I0000000J-000492D01*
G01*
X0297542Y0449436D01*
G75*
G02*
X0297050Y0448944I-000492J0000000D01*
G01*
X0296065Y0448944D01*
G75*
G02*
X0295573Y0449436I0000000J0000492D01*
G01*
X0295573Y0454358D01*
G75*
G02*
X0296065Y0454850I0000492J0000000D01*
G01*
G37*
G36*
G01*
X0292916Y0454850D02*
X0293900Y0454850D01*
G75*
G02*
X0294392Y0454358I0000000J-000492D01*
G01*
X0294392Y0449436D01*
G75*
G02*
X0293900Y0448944I-000492J0000000D01*
G01*
X0292916Y0448944D01*
G75*
G02*
X0292424Y0449436I0000000J0000492D01*
G01*
X0292424Y0454358D01*
G75*
G02*
X0292916Y0454850I0000492J0000000D01*
G01*
G37*
G36*
G01*
X0289766Y0454850D02*
X0290750Y0454850D01*
G75*
G02*
X0291242Y0454358I0000000J-000492D01*
G01*
X0291242Y0449436D01*
G75*
G02*
X0290750Y0448944I-000492J0000000D01*
G01*
X0289766Y0448944D01*
G75*
G02*
X0289274Y0449436I0000000J0000492D01*
G01*
X0289274Y0454358D01*
G75*
G02*
X0289766Y0454850I0000492J0000000D01*
G01*
G37*
G36*
G01*
X0286617Y0454850D02*
X0287601Y0454850D01*
G75*
G02*
X0288093Y0454358I0000000J-000492D01*
G01*
X0288093Y0449436D01*
G75*
G02*
X0287601Y0448944I-000492J0000000D01*
G01*
X0286617Y0448944D01*
G75*
G02*
X0286124Y0449436I0000000J0000492D01*
G01*
X0286124Y0454358D01*
G75*
G02*
X0286617Y0454850I0000492J0000000D01*
G01*
G37*
G36*
G01*
X0283467Y0454850D02*
X0284451Y0454850D01*
G75*
G02*
X0284943Y0454358I0000000J-000492D01*
G01*
X0284943Y0449436D01*
G75*
G02*
X0284451Y0448944I-000492J0000000D01*
G01*
X0283467Y0448944D01*
G75*
G02*
X0282975Y0449436I0000000J0000492D01*
G01*
X0282975Y0454358D01*
G75*
G02*
X0283467Y0454850I0000492J0000000D01*
G01*
G37*
G36*
G01*
X0280317Y0454850D02*
X0281302Y0454850D01*
G75*
G02*
X0281794Y0454358I0000000J-000492D01*
G01*
X0281794Y0449436D01*
G75*
G02*
X0281302Y0448944I-000492J0000000D01*
G01*
X0280317Y0448944D01*
G75*
G02*
X0279825Y0449436I0000000J0000492D01*
G01*
X0279825Y0454358D01*
G75*
G02*
X0280317Y0454850I0000492J0000000D01*
G01*
G37*
G36*
G01*
X0277168Y0454850D02*
X0278152Y0454850D01*
G75*
G02*
X0278644Y0454358I0000000J-000492D01*
G01*
X0278644Y0449436D01*
G75*
G02*
X0278152Y0448944I-000492J0000000D01*
G01*
X0277168Y0448944D01*
G75*
G02*
X0276676Y0449436I0000000J0000492D01*
G01*
X0276676Y0454358D01*
G75*
G02*
X0277168Y0454850I0000492J0000000D01*
G01*
G37*
G36*
G01*
X0269786Y0447468D02*
X0274707Y0447468D01*
G75*
G02*
X0275199Y0446976I0000000J-000492D01*
G01*
X0275199Y0445991D01*
G75*
G02*
X0274707Y0445499I-000492J0000000D01*
G01*
X0269786Y0445499D01*
G75*
G02*
X0269294Y0445991I0000000J0000492D01*
G01*
X0269294Y0446976D01*
G75*
G02*
X0269786Y0447468I0000492J0000000D01*
G01*
G37*
G36*
G01*
X0269786Y0444318D02*
X0274707Y0444318D01*
G75*
G02*
X0275199Y0443826I0000000J-000492D01*
G01*
X0275199Y0442842D01*
G75*
G02*
X0274707Y0442350I-000492J0000000D01*
G01*
X0269786Y0442350D01*
G75*
G02*
X0269294Y0442842I0000000J0000492D01*
G01*
X0269294Y0443826D01*
G75*
G02*
X0269786Y0444318I0000492J0000000D01*
G01*
G37*
G36*
G01*
X0269786Y0441169D02*
X0274707Y0441169D01*
G75*
G02*
X0275199Y0440676I0000000J-000492D01*
G01*
X0275199Y0439692D01*
G75*
G02*
X0274707Y0439200I-000492J0000000D01*
G01*
X0269786Y0439200D01*
G75*
G02*
X0269294Y0439692I0000000J0000492D01*
G01*
X0269294Y0440676D01*
G75*
G02*
X0269786Y0441169I0000492J0000000D01*
G01*
G37*
G36*
G01*
X0269786Y0438019D02*
X0274707Y0438019D01*
G75*
G02*
X0275199Y0437527I0000000J-000492D01*
G01*
X0275199Y0436543D01*
G75*
G02*
X0274707Y0436051I-000492J0000000D01*
G01*
X0269786Y0436051D01*
G75*
G02*
X0269294Y0436543I0000000J0000492D01*
G01*
X0269294Y0437527D01*
G75*
G02*
X0269786Y0438019I0000492J0000000D01*
G01*
G37*
G36*
G01*
X0269786Y0434869D02*
X0274707Y0434869D01*
G75*
G02*
X0275199Y0434377I0000000J-000492D01*
G01*
X0275199Y0433393D01*
G75*
G02*
X0274707Y0432901I-000492J0000000D01*
G01*
X0269786Y0432901D01*
G75*
G02*
X0269294Y0433393I0000000J0000492D01*
G01*
X0269294Y0434377D01*
G75*
G02*
X0269786Y0434869I0000492J0000000D01*
G01*
G37*
G36*
G01*
X0269786Y0431720D02*
X0274707Y0431720D01*
G75*
G02*
X0275199Y0431228I0000000J-000492D01*
G01*
X0275199Y0430243D01*
G75*
G02*
X0274707Y0429751I-000492J0000000D01*
G01*
X0269786Y0429751D01*
G75*
G02*
X0269294Y0430243I0000000J0000492D01*
G01*
X0269294Y0431228D01*
G75*
G02*
X0269786Y0431720I0000492J0000000D01*
G01*
G37*
G36*
G01*
X0269786Y0428570D02*
X0274707Y0428570D01*
G75*
G02*
X0275199Y0428078I0000000J-000492D01*
G01*
X0275199Y0427094D01*
G75*
G02*
X0274707Y0426602I-000492J0000000D01*
G01*
X0269786Y0426602D01*
G75*
G02*
X0269294Y0427094I0000000J0000492D01*
G01*
X0269294Y0428078D01*
G75*
G02*
X0269786Y0428570I0000492J0000000D01*
G01*
G37*
G36*
G01*
X0269786Y0425421D02*
X0274707Y0425421D01*
G75*
G02*
X0275199Y0424928I0000000J-000492D01*
G01*
X0275199Y0423944D01*
G75*
G02*
X0274707Y0423452I-000492J0000000D01*
G01*
X0269786Y0423452D01*
G75*
G02*
X0269294Y0423944I0000000J0000492D01*
G01*
X0269294Y0424928D01*
G75*
G02*
X0269786Y0425421I0000492J0000000D01*
G01*
G37*
G36*
G01*
X0277168Y0421976D02*
X0278152Y0421976D01*
G75*
G02*
X0278644Y0421484I0000000J-000492D01*
G01*
X0278644Y0416562D01*
G75*
G02*
X0278152Y0416070I-000492J0000000D01*
G01*
X0277168Y0416070D01*
G75*
G02*
X0276676Y0416562I0000000J0000492D01*
G01*
X0276676Y0421484D01*
G75*
G02*
X0277168Y0421976I0000492J0000000D01*
G01*
G37*
G36*
G01*
X0280317Y0421976D02*
X0281302Y0421976D01*
G75*
G02*
X0281794Y0421484I0000000J-000492D01*
G01*
X0281794Y0416562D01*
G75*
G02*
X0281302Y0416070I-000492J0000000D01*
G01*
X0280317Y0416070D01*
G75*
G02*
X0279825Y0416562I0000000J0000492D01*
G01*
X0279825Y0421484D01*
G75*
G02*
X0280317Y0421976I0000492J0000000D01*
G01*
G37*
G36*
G01*
X0283467Y0421976D02*
X0284451Y0421976D01*
G75*
G02*
X0284943Y0421484I0000000J-000492D01*
G01*
X0284943Y0416562D01*
G75*
G02*
X0284451Y0416070I-000492J0000000D01*
G01*
X0283467Y0416070D01*
G75*
G02*
X0282975Y0416562I0000000J0000492D01*
G01*
X0282975Y0421484D01*
G75*
G02*
X0283467Y0421976I0000492J0000000D01*
G01*
G37*
G36*
G01*
X0286617Y0421976D02*
X0287601Y0421976D01*
G75*
G02*
X0288093Y0421484I0000000J-000492D01*
G01*
X0288093Y0416562D01*
G75*
G02*
X0287601Y0416070I-000492J0000000D01*
G01*
X0286617Y0416070D01*
G75*
G02*
X0286124Y0416562I0000000J0000492D01*
G01*
X0286124Y0421484D01*
G75*
G02*
X0286617Y0421976I0000492J0000000D01*
G01*
G37*
G36*
G01*
X0289766Y0421976D02*
X0290750Y0421976D01*
G75*
G02*
X0291242Y0421484I0000000J-000492D01*
G01*
X0291242Y0416562D01*
G75*
G02*
X0290750Y0416070I-000492J0000000D01*
G01*
X0289766Y0416070D01*
G75*
G02*
X0289274Y0416562I0000000J0000492D01*
G01*
X0289274Y0421484D01*
G75*
G02*
X0289766Y0421976I0000492J0000000D01*
G01*
G37*
G36*
G01*
X0292916Y0421976D02*
X0293900Y0421976D01*
G75*
G02*
X0294392Y0421484I0000000J-000492D01*
G01*
X0294392Y0416562D01*
G75*
G02*
X0293900Y0416070I-000492J0000000D01*
G01*
X0292916Y0416070D01*
G75*
G02*
X0292424Y0416562I0000000J0000492D01*
G01*
X0292424Y0421484D01*
G75*
G02*
X0292916Y0421976I0000492J0000000D01*
G01*
G37*
G36*
G01*
X0296065Y0421976D02*
X0297050Y0421976D01*
G75*
G02*
X0297542Y0421484I0000000J-000492D01*
G01*
X0297542Y0416562D01*
G75*
G02*
X0297050Y0416070I-000492J0000000D01*
G01*
X0296065Y0416070D01*
G75*
G02*
X0295573Y0416562I0000000J0000492D01*
G01*
X0295573Y0421484D01*
G75*
G02*
X0296065Y0421976I0000492J0000000D01*
G01*
G37*
G36*
G01*
X0299215Y0421976D02*
X0300199Y0421976D01*
G75*
G02*
X0300691Y0421484I0000000J-000492D01*
G01*
X0300691Y0416562D01*
G75*
G02*
X0300199Y0416070I-000492J0000000D01*
G01*
X0299215Y0416070D01*
G75*
G02*
X0298723Y0416562I0000000J0000492D01*
G01*
X0298723Y0421484D01*
G75*
G02*
X0299215Y0421976I0000492J0000000D01*
G01*
G37*
G36*
G01*
X0302660Y0425421D02*
X0307581Y0425421D01*
G75*
G02*
X0308073Y0424928I0000000J-000492D01*
G01*
X0308073Y0423944D01*
G75*
G02*
X0307581Y0423452I-000492J0000000D01*
G01*
X0302660Y0423452D01*
G75*
G02*
X0302168Y0423944I0000000J0000492D01*
G01*
X0302168Y0424928D01*
G75*
G02*
X0302660Y0425421I0000492J0000000D01*
G01*
G37*
G36*
G01*
X0302660Y0428570D02*
X0307581Y0428570D01*
G75*
G02*
X0308073Y0428078I0000000J-000492D01*
G01*
X0308073Y0427094D01*
G75*
G02*
X0307581Y0426602I-000492J0000000D01*
G01*
X0302660Y0426602D01*
G75*
G02*
X0302168Y0427094I0000000J0000492D01*
G01*
X0302168Y0428078D01*
G75*
G02*
X0302660Y0428570I0000492J0000000D01*
G01*
G37*
G36*
G01*
X0302660Y0431720D02*
X0307581Y0431720D01*
G75*
G02*
X0308073Y0431228I0000000J-000492D01*
G01*
X0308073Y0430243D01*
G75*
G02*
X0307581Y0429751I-000492J0000000D01*
G01*
X0302660Y0429751D01*
G75*
G02*
X0302168Y0430243I0000000J0000492D01*
G01*
X0302168Y0431228D01*
G75*
G02*
X0302660Y0431720I0000492J0000000D01*
G01*
G37*
G36*
G01*
X0302660Y0434869D02*
X0307581Y0434869D01*
G75*
G02*
X0308073Y0434377I0000000J-000492D01*
G01*
X0308073Y0433393D01*
G75*
G02*
X0307581Y0432901I-000492J0000000D01*
G01*
X0302660Y0432901D01*
G75*
G02*
X0302168Y0433393I0000000J0000492D01*
G01*
X0302168Y0434377D01*
G75*
G02*
X0302660Y0434869I0000492J0000000D01*
G01*
G37*
G36*
G01*
X0302660Y0438019D02*
X0307581Y0438019D01*
G75*
G02*
X0308073Y0437527I0000000J-000492D01*
G01*
X0308073Y0436543D01*
G75*
G02*
X0307581Y0436051I-000492J0000000D01*
G01*
X0302660Y0436051D01*
G75*
G02*
X0302168Y0436543I0000000J0000492D01*
G01*
X0302168Y0437527D01*
G75*
G02*
X0302660Y0438019I0000492J0000000D01*
G01*
G37*
G36*
G01*
X0302660Y0441169D02*
X0307581Y0441169D01*
G75*
G02*
X0308073Y0440676I0000000J-000492D01*
G01*
X0308073Y0439692D01*
G75*
G02*
X0307581Y0439200I-000492J0000000D01*
G01*
X0302660Y0439200D01*
G75*
G02*
X0302168Y0439692I0000000J0000492D01*
G01*
X0302168Y0440676D01*
G75*
G02*
X0302660Y0441169I0000492J0000000D01*
G01*
G37*
G36*
G01*
X0302660Y0444318D02*
X0307581Y0444318D01*
G75*
G02*
X0308073Y0443826I0000000J-000492D01*
G01*
X0308073Y0442842D01*
G75*
G02*
X0307581Y0442350I-000492J0000000D01*
G01*
X0302660Y0442350D01*
G75*
G02*
X0302168Y0442842I0000000J0000492D01*
G01*
X0302168Y0443826D01*
G75*
G02*
X0302660Y0444318I0000492J0000000D01*
G01*
G37*
G36*
G01*
X0302660Y0447468D02*
X0307581Y0447468D01*
G75*
G02*
X0308073Y0446976I0000000J-000492D01*
G01*
X0308073Y0445991D01*
G75*
G02*
X0307581Y0445499I-000492J0000000D01*
G01*
X0302660Y0445499D01*
G75*
G02*
X0302168Y0445991I0000000J0000492D01*
G01*
X0302168Y0446976D01*
G75*
G02*
X0302660Y0447468I0000492J0000000D01*
G01*
G37*
G36*
G01*
X0274205Y0454633D02*
X0272847Y0454633D01*
G75*
G02*
X0272266Y0455214I0000000J0000581D01*
G01*
X0272266Y0456375D01*
G75*
G02*
X0272847Y0456956I0000581J0000000D01*
G01*
X0274205Y0456956D01*
G75*
G02*
X0274786Y0456375I0000000J-000581D01*
G01*
X0274786Y0455214D01*
G75*
G02*
X0274205Y0454633I-000581J0000000D01*
G01*
G37*
G36*
G01*
X0274205Y0458452D02*
X0272847Y0458452D01*
G75*
G02*
X0272266Y0459033I0000000J0000581D01*
G01*
X0272266Y0460194D01*
G75*
G02*
X0272847Y0460775I0000581J0000000D01*
G01*
X0274205Y0460775D01*
G75*
G02*
X0274786Y0460194I0000000J-000581D01*
G01*
X0274786Y0459033D01*
G75*
G02*
X0274205Y0458452I-000581J0000000D01*
G01*
G37*
G36*
G01*
X0271666Y0468255D02*
X0273024Y0468255D01*
G75*
G02*
X0273605Y0467675I0000000J-000581D01*
G01*
X0273605Y0466513D01*
G75*
G02*
X0273024Y0465932I-000581J0000000D01*
G01*
X0271666Y0465932D01*
G75*
G02*
X0271085Y0466513I0000000J0000581D01*
G01*
X0271085Y0467675D01*
G75*
G02*
X0271666Y0468255I0000581J0000000D01*
G01*
G37*
G36*
G01*
X0271666Y0464436D02*
X0273024Y0464436D01*
G75*
G02*
X0273605Y0463856I0000000J-000581D01*
G01*
X0273605Y0462694D01*
G75*
G02*
X0273024Y0462113I-000581J0000000D01*
G01*
X0271666Y0462113D01*
G75*
G02*
X0271085Y0462694I0000000J0000581D01*
G01*
X0271085Y0463856D01*
G75*
G02*
X0271666Y0464436I0000581J0000000D01*
G01*
G37*
G36*
G01*
X0296863Y0462743D02*
X0298221Y0462743D01*
G75*
G02*
X0298802Y0462163I0000000J-000581D01*
G01*
X0298802Y0461001D01*
G75*
G02*
X0298221Y0460421I-000581J0000000D01*
G01*
X0296863Y0460421D01*
G75*
G02*
X0296282Y0461001I0000000J0000581D01*
G01*
X0296282Y0462163D01*
G75*
G02*
X0296863Y0462743I0000581J0000000D01*
G01*
G37*
G36*
G01*
X0296863Y0458925D02*
X0298221Y0458925D01*
G75*
G02*
X0298802Y0458344I0000000J-000581D01*
G01*
X0298802Y0457182D01*
G75*
G02*
X0298221Y0456602I-000581J0000000D01*
G01*
X0296863Y0456602D01*
G75*
G02*
X0296282Y0457182I0000000J0000581D01*
G01*
X0296282Y0458344D01*
G75*
G02*
X0296863Y0458925I0000581J0000000D01*
G01*
G37*
G36*
G01*
X0278684Y0409948D02*
X0278684Y0411307D01*
G75*
G02*
X0279264Y0411887I0000581J0000000D01*
G01*
X0280426Y0411887D01*
G75*
G02*
X0281006Y0411307I0000000J-000581D01*
G01*
X0281006Y0409948D01*
G75*
G02*
X0280426Y0409368I-000581J0000000D01*
G01*
X0279264Y0409368D01*
G75*
G02*
X0278684Y0409948I0000000J0000581D01*
G01*
G37*
G36*
G01*
X0282503Y0409948D02*
X0282503Y0411307D01*
G75*
G02*
X0283083Y0411887I0000581J0000000D01*
G01*
X0284245Y0411887D01*
G75*
G02*
X0284825Y0411307I0000000J-000581D01*
G01*
X0284825Y0409948D01*
G75*
G02*
X0284245Y0409368I-000581J0000000D01*
G01*
X0283083Y0409368D01*
G75*
G02*
X0282503Y0409948I0000000J0000581D01*
G01*
G37*
G36*
G01*
X0305042Y0419230D02*
X0305042Y0420588D01*
G75*
G02*
X0305622Y0421169I0000581J0000000D01*
G01*
X0306784Y0421169D01*
G75*
G02*
X0307365Y0420588I0000000J-000581D01*
G01*
X0307365Y0419230D01*
G75*
G02*
X0306784Y0418649I-000581J0000000D01*
G01*
X0305622Y0418649D01*
G75*
G02*
X0305042Y0419230I0000000J0000581D01*
G01*
G37*
G36*
G01*
X0308861Y0419230D02*
X0308861Y0420588D01*
G75*
G02*
X0309441Y0421169I0000581J0000000D01*
G01*
X0310603Y0421169D01*
G75*
G02*
X0311183Y0420588I0000000J-000581D01*
G01*
X0311183Y0419230D01*
G75*
G02*
X0310603Y0418649I-000581J0000000D01*
G01*
X0309441Y0418649D01*
G75*
G02*
X0308861Y0419230I0000000J0000581D01*
G01*
G37*
G36*
G01*
X0282709Y0395488D02*
X0281351Y0395488D01*
G75*
G02*
X0280770Y0396068I0000000J0000581D01*
G01*
X0280770Y0397230D01*
G75*
G02*
X0281351Y0397810I0000581J0000000D01*
G01*
X0282709Y0397810D01*
G75*
G02*
X0283290Y0397230I0000000J-000581D01*
G01*
X0283290Y0396068D01*
G75*
G02*
X0282709Y0395488I-000581J0000000D01*
G01*
G37*
G36*
G01*
X0282709Y0399306D02*
X0281351Y0399306D01*
G75*
G02*
X0280770Y0399887I0000000J0000581D01*
G01*
X0280770Y0401049D01*
G75*
G02*
X0281351Y0401629I0000581J0000000D01*
G01*
X0282709Y0401629D01*
G75*
G02*
X0283290Y0401049I0000000J-000581D01*
G01*
X0283290Y0399887D01*
G75*
G02*
X0282709Y0399306I-000581J0000000D01*
G01*
G37*
D110*
X0276967Y0396818D03*
X0276967Y0404299D03*
X0269093Y0400558D03*
G36*
G01*
X0300719Y0498261D02*
X0300719Y0496903D01*
G75*
G02*
X0300138Y0496322I-000581J0000000D01*
G01*
X0298977Y0496322D01*
G75*
G02*
X0298396Y0496903I0000000J0000581D01*
G01*
X0298396Y0498261D01*
G75*
G02*
X0298977Y0498842I0000581J0000000D01*
G01*
X0300138Y0498842D01*
G75*
G02*
X0300719Y0498261I0000000J-000581D01*
G01*
G37*
G36*
G01*
X0296900Y0498261D02*
X0296900Y0496903D01*
G75*
G02*
X0296319Y0496322I-000581J0000000D01*
G01*
X0295158Y0496322D01*
G75*
G02*
X0294577Y0496903I0000000J0000581D01*
G01*
X0294577Y0498261D01*
G75*
G02*
X0295158Y0498842I0000581J0000000D01*
G01*
X0296319Y0498842D01*
G75*
G02*
X0296900Y0498261I0000000J-000581D01*
G01*
G37*
G36*
G01*
X0267050Y0409914D02*
X0267050Y0411932D01*
G75*
G02*
X0267911Y0412793I0000861J0000000D01*
G01*
X0269633Y0412793D01*
G75*
G02*
X0270495Y0411932I0000000J-000861D01*
G01*
X0270495Y0409914D01*
G75*
G02*
X0269633Y0409053I-000861J0000000D01*
G01*
X0267911Y0409053D01*
G75*
G02*
X0267050Y0409914I0000000J0000861D01*
G01*
G37*
G36*
G01*
X0273251Y0409914D02*
X0273251Y0411932D01*
G75*
G02*
X0274112Y0412793I0000861J0000000D01*
G01*
X0275834Y0412793D01*
G75*
G02*
X0276695Y0411932I0000000J-000861D01*
G01*
X0276695Y0409914D01*
G75*
G02*
X0275834Y0409053I-000861J0000000D01*
G01*
X0274112Y0409053D01*
G75*
G02*
X0273251Y0409914I0000000J0000861D01*
G01*
G37*
M02*
