G75*
G70*
%OFA0B0*%
%FSLAX25Y25*%
%IPPOS*%
%LPD*%
%AMOC8*
5,1,8,0,0,1.08239X$1,22.5*
%
%AMM173*
21,1,0.015350,0.009840,-0.000000,-0.000000,180.000000*
21,1,0.000000,0.025200,-0.000000,-0.000000,180.000000*
1,1,0.015350,0.000000,-0.004920*
1,1,0.015350,0.000000,-0.004920*
1,1,0.015350,0.000000,0.004920*
1,1,0.015350,0.000000,0.004920*
%
%AMM174*
21,1,0.015350,0.009840,-0.000000,-0.000000,270.000000*
21,1,0.000000,0.025200,-0.000000,-0.000000,270.000000*
1,1,0.015350,0.004920,0.000000*
1,1,0.015350,0.004920,0.000000*
1,1,0.015350,-0.004920,0.000000*
1,1,0.015350,-0.004920,0.000000*
%
%AMM253*
21,1,0.015350,0.009840,-0.000000,-0.000000,90.000000*
21,1,0.000000,0.025200,-0.000000,-0.000000,90.000000*
1,1,0.015350,-0.004920,0.000000*
1,1,0.015350,-0.004920,0.000000*
1,1,0.015350,0.004920,0.000000*
1,1,0.015350,0.004920,0.000000*
%
%AMM344*
21,1,0.015350,0.009840,-0.000000,0.000000,270.000000*
21,1,0.000000,0.025200,-0.000000,0.000000,270.000000*
1,1,0.015350,0.000000,0.004920*
1,1,0.015350,0.000000,0.004920*
1,1,0.015350,0.000000,-0.004920*
1,1,0.015350,0.000000,-0.004920*
%
%ADD112C,0.04451*%
%ADD128C,0.07087*%
%ADD142O,0.03937X0.05906*%
%ADD143C,0.02362*%
%ADD150O,0.02913X0.02126*%
%ADD152C,0.13780*%
%ADD159O,0.06693X0.06693*%
%ADD165O,0.03701X0.02913*%
%ADD177C,0.05512*%
%ADD185O,0.02362X0.03150*%
%ADD187O,0.06693X0.07283*%
%ADD196C,0.04286*%
%ADD198R,0.05512X0.05512*%
%ADD205O,0.04488X0.06457*%
%ADD209C,0.13000*%
%ADD231O,0.01575X0.02362*%
%ADD234C,0.05906*%
%ADD238O,0.45433X0.04882*%
%ADD255C,0.06457*%
%ADD260O,0.03150X0.02362*%
%ADD261O,0.02362X0.01575*%
%ADD272C,0.06000*%
%ADD282C,0.27559*%
%ADD290R,0.06457X0.06457*%
%ADD291R,0.04331X0.04331*%
%ADD298C,0.04331*%
%ADD309O,0.09449X0.04331*%
%ADD32O,0.02913X0.03701*%
%ADD328O,0.02126X0.01339*%
%ADD338O,0.01575X0.00787*%
%ADD372M173*%
%ADD373M174*%
%ADD43C,0.06693*%
%ADD45C,0.07874*%
%ADD462M253*%
%ADD51R,0.06693X0.06693*%
%ADD53O,0.44882X0.04331*%
%ADD568M344*%
%ADD77O,0.02126X0.02913*%
%ADD83C,0.11811*%
%ADD95C,0.02913*%
X0000000Y0000000D02*
%LPD*%
G01*
D143*
X0297507Y0092873D03*
X0303708Y0073562D03*
X0353724Y0073597D03*
X0320342Y0070924D03*
X0324968Y0070924D03*
X0333531Y0070924D03*
X0342291Y0070924D03*
D272*
X0203546Y0497618D03*
X0203546Y0512618D03*
D43*
X0256736Y0193720D03*
X0233508Y0530709D03*
D51*
X0197844Y0332732D03*
D159*
X0197844Y0322732D03*
X0187844Y0332732D03*
X0187844Y0322732D03*
X0177844Y0332732D03*
X0177844Y0322732D03*
D43*
X0080000Y0220000D03*
X0080000Y0230000D03*
X0080000Y0240000D03*
X0080000Y0250000D03*
X0080000Y0260000D03*
X0090000Y0220000D03*
X0090000Y0230000D03*
X0090000Y0240000D03*
X0090000Y0250000D03*
X0090000Y0260000D03*
X0100000Y0220000D03*
X0100000Y0230000D03*
X0100000Y0240000D03*
X0100000Y0250000D03*
X0100000Y0260000D03*
D272*
X0454374Y0487382D03*
X0454374Y0472382D03*
X0144925Y0497618D03*
X0144925Y0512618D03*
D142*
X0120131Y0305660D03*
X0125076Y0305660D03*
D53*
X0150446Y0306152D03*
D231*
X0175840Y0307333D03*
D185*
X0179678Y0306940D03*
D231*
X0183103Y0307333D03*
X0185978Y0307333D03*
X0189500Y0307333D03*
X0197670Y0307333D03*
X0201213Y0307333D03*
X0204009Y0307333D03*
D185*
X0208025Y0306940D03*
X0212651Y0306940D03*
X0217966Y0306940D03*
X0222592Y0306940D03*
D261*
X0226135Y0303277D03*
X0226135Y0300542D03*
X0226135Y0297864D03*
D260*
X0225761Y0294636D03*
D261*
X0226135Y0289498D03*
D260*
X0225761Y0285680D03*
D261*
X0226135Y0280660D03*
X0226135Y0278101D03*
D260*
X0225761Y0273377D03*
X0225761Y0269144D03*
X0225761Y0265699D03*
D261*
X0226135Y0262451D03*
X0226135Y0239420D03*
D338*
X0226548Y0223455D03*
X0226548Y0220857D03*
X0226548Y0216684D03*
X0226548Y0213912D03*
X0226548Y0210762D03*
X0226548Y0207612D03*
X0226548Y0204479D03*
X0226548Y0195837D03*
X0226548Y0194105D03*
X0226548Y0192373D03*
X0226548Y0190640D03*
X0226548Y0188908D03*
X0226548Y0187176D03*
X0226548Y0185444D03*
X0226548Y0183711D03*
X0226548Y0179282D03*
X0226548Y0176684D03*
X0226548Y0174085D03*
X0226548Y0171487D03*
X0226548Y0158081D03*
X0226548Y0156349D03*
X0226548Y0154617D03*
X0226548Y0152885D03*
X0226548Y0151152D03*
X0226548Y0149420D03*
X0226548Y0147688D03*
D272*
X0162642Y0523209D03*
X0162642Y0538209D03*
D43*
X0256736Y0164192D03*
D272*
X0430752Y0497598D03*
X0430752Y0512598D03*
D198*
X0364567Y0525591D03*
D177*
X0354724Y0525591D03*
X0354724Y0512992D03*
X0364567Y0512992D03*
D83*
X0383346Y0514921D03*
X0335945Y0514921D03*
D272*
X0422878Y0481654D03*
X0422878Y0496654D03*
X0186264Y0523209D03*
X0186264Y0538209D03*
X0129177Y0497618D03*
X0129177Y0512618D03*
D152*
X0369009Y0604624D03*
X0549519Y0604624D03*
X0110939Y0604624D03*
X0263889Y0604624D03*
D128*
X0130829Y0564464D03*
X0144599Y0564464D03*
X0156809Y0564464D03*
X0168619Y0564464D03*
X0180429Y0564464D03*
X0192239Y0564464D03*
X0204049Y0564464D03*
X0215859Y0564464D03*
X0227669Y0564464D03*
X0239479Y0564464D03*
X0251689Y0564464D03*
X0130829Y0582184D03*
X0144599Y0582184D03*
X0156809Y0582184D03*
X0168619Y0582184D03*
X0180429Y0582184D03*
X0192239Y0582184D03*
X0204049Y0582184D03*
X0215859Y0582184D03*
X0227669Y0582184D03*
X0239479Y0582184D03*
X0251689Y0582184D03*
X0275109Y0564464D03*
X0286919Y0564464D03*
X0298729Y0564464D03*
X0310539Y0564464D03*
X0322359Y0564464D03*
X0334169Y0564464D03*
X0345979Y0564464D03*
X0357789Y0564464D03*
X0275109Y0582184D03*
X0286919Y0582184D03*
X0298729Y0582184D03*
X0310539Y0582184D03*
X0322359Y0582184D03*
X0334169Y0582184D03*
X0345979Y0582184D03*
X0357789Y0582184D03*
X0381199Y0564464D03*
X0394979Y0564464D03*
X0407199Y0564464D03*
X0419009Y0564464D03*
X0430819Y0564464D03*
X0442629Y0564464D03*
X0454439Y0564464D03*
X0466249Y0564464D03*
X0478059Y0564464D03*
X0489869Y0564464D03*
X0502079Y0564464D03*
X0515859Y0564464D03*
X0529639Y0564464D03*
X0381199Y0582184D03*
X0394979Y0582184D03*
X0407199Y0582184D03*
X0419009Y0582184D03*
X0430819Y0582184D03*
X0442629Y0582184D03*
X0454439Y0582184D03*
X0466249Y0582184D03*
X0478059Y0582184D03*
X0489869Y0582184D03*
X0502079Y0582184D03*
X0515859Y0582184D03*
X0529639Y0582184D03*
D43*
X0411460Y0530689D03*
D282*
X0015748Y0559055D03*
D43*
X0509492Y0530689D03*
X0311814Y0323626D03*
D272*
X0483901Y0523189D03*
X0483901Y0538189D03*
D291*
X0343307Y0424803D03*
D298*
X0336417Y0427953D03*
X0343307Y0431102D03*
X0336417Y0434252D03*
X0343307Y0437402D03*
D309*
X0339862Y0416732D03*
X0339862Y0445472D03*
D51*
X0271769Y0268523D03*
D159*
X0261769Y0268523D03*
X0271769Y0278523D03*
X0261769Y0278523D03*
X0271769Y0288523D03*
X0261769Y0288523D03*
X0271769Y0298523D03*
X0261769Y0298523D03*
D51*
X0119990Y0323775D03*
D159*
X0119990Y0333775D03*
X0129990Y0323775D03*
X0129990Y0333775D03*
D272*
X0466185Y0497598D03*
X0466185Y0512598D03*
D143*
X0234478Y0404211D03*
X0236545Y0407656D03*
X0239497Y0403030D03*
X0253474Y0403325D03*
D51*
X0340596Y0343311D03*
D159*
X0340596Y0353311D03*
X0350596Y0343311D03*
X0350596Y0353311D03*
X0360596Y0343311D03*
X0360596Y0353311D03*
D209*
X0553937Y0228681D03*
X0553937Y0138681D03*
D272*
X0503937Y0208681D03*
X0503937Y0198681D03*
X0503937Y0188681D03*
X0503937Y0178681D03*
X0503937Y0168681D03*
X0503937Y0158681D03*
X0495712Y0523189D03*
X0495712Y0538189D03*
D51*
X0436265Y0353311D03*
D159*
X0436265Y0343311D03*
X0426265Y0353311D03*
X0426265Y0343311D03*
X0416265Y0353311D03*
X0416265Y0343311D03*
X0406265Y0353311D03*
X0406265Y0343311D03*
D43*
X0020000Y0220000D03*
X0020000Y0230000D03*
X0020000Y0240000D03*
X0020000Y0250000D03*
X0020000Y0260000D03*
X0030000Y0220000D03*
X0030000Y0230000D03*
X0030000Y0240000D03*
X0030000Y0250000D03*
X0030000Y0260000D03*
X0040000Y0220000D03*
X0040000Y0230000D03*
X0040000Y0240000D03*
X0040000Y0250000D03*
X0040000Y0260000D03*
X0424057Y0530686D03*
D51*
X0301887Y0028366D03*
D159*
X0311887Y0028366D03*
X0321887Y0028366D03*
X0331887Y0028366D03*
X0341887Y0028366D03*
X0351887Y0028366D03*
D51*
X0488305Y0183877D03*
D159*
X0488305Y0173877D03*
X0478305Y0183877D03*
X0478305Y0173877D03*
X0468305Y0183877D03*
X0468305Y0173877D03*
D272*
X0221697Y0523209D03*
X0221697Y0538209D03*
D43*
X0212838Y0511027D03*
D272*
X0139020Y0523209D03*
X0139020Y0538209D03*
D282*
X0015748Y0072835D03*
G36*
G01*
X0224025Y0109602D02*
X0225009Y0109602D01*
G75*
G02*
X0225501Y0109110I0000000J-000492D01*
G01*
X0225501Y0109110D01*
G75*
G02*
X0225009Y0108618I-000492J0000000D01*
G01*
X0224025Y0108618D01*
G75*
G02*
X0223533Y0109110I0000000J0000492D01*
G01*
X0223533Y0109110D01*
G75*
G02*
X0224025Y0109602I0000492J0000000D01*
G01*
G37*
G36*
G01*
X0224025Y0105271D02*
X0225009Y0105271D01*
G75*
G02*
X0225501Y0104779I0000000J-000492D01*
G01*
X0225501Y0104779D01*
G75*
G02*
X0225009Y0104287I-000492J0000000D01*
G01*
X0224025Y0104287D01*
G75*
G02*
X0223533Y0104779I0000000J0000492D01*
G01*
X0223533Y0104779D01*
G75*
G02*
X0224025Y0105271I0000492J0000000D01*
G01*
G37*
G36*
G01*
X0224025Y0100940D02*
X0225009Y0100940D01*
G75*
G02*
X0225501Y0100448I0000000J-000492D01*
G01*
X0225501Y0100448D01*
G75*
G02*
X0225009Y0099956I-000492J0000000D01*
G01*
X0224025Y0099956D01*
G75*
G02*
X0223533Y0100448I0000000J0000492D01*
G01*
X0223533Y0100448D01*
G75*
G02*
X0224025Y0100940I0000492J0000000D01*
G01*
G37*
G36*
G01*
X0224025Y0096610D02*
X0225009Y0096610D01*
G75*
G02*
X0225501Y0096118I0000000J-000492D01*
G01*
X0225501Y0096118D01*
G75*
G02*
X0225009Y0095626I-000492J0000000D01*
G01*
X0224025Y0095626D01*
G75*
G02*
X0223533Y0096118I0000000J0000492D01*
G01*
X0223533Y0096118D01*
G75*
G02*
X0224025Y0096610I0000492J0000000D01*
G01*
G37*
G36*
G01*
X0224025Y0092279D02*
X0225009Y0092279D01*
G75*
G02*
X0225501Y0091787I0000000J-000492D01*
G01*
X0225501Y0091787D01*
G75*
G02*
X0225009Y0091295I-000492J0000000D01*
G01*
X0224025Y0091295D01*
G75*
G02*
X0223533Y0091787I0000000J0000492D01*
G01*
X0223533Y0091787D01*
G75*
G02*
X0224025Y0092279I0000492J0000000D01*
G01*
G37*
G36*
G01*
X0224025Y0087948D02*
X0225009Y0087948D01*
G75*
G02*
X0225501Y0087456I0000000J-000492D01*
G01*
X0225501Y0087456D01*
G75*
G02*
X0225009Y0086964I-000492J0000000D01*
G01*
X0224025Y0086964D01*
G75*
G02*
X0223533Y0087456I0000000J0000492D01*
G01*
X0223533Y0087456D01*
G75*
G02*
X0224025Y0087948I0000492J0000000D01*
G01*
G37*
D43*
X0322879Y0323626D03*
D282*
X0015748Y0305118D03*
D43*
X0436657Y0530689D03*
G36*
G01*
X0335673Y0295852D02*
X0336657Y0295852D01*
G75*
G02*
X0337149Y0295360I0000000J-000492D01*
G01*
X0337149Y0295360D01*
G75*
G02*
X0336657Y0294868I-000492J0000000D01*
G01*
X0335673Y0294868D01*
G75*
G02*
X0335181Y0295360I0000000J0000492D01*
G01*
X0335181Y0295360D01*
G75*
G02*
X0335673Y0295852I0000492J0000000D01*
G01*
G37*
G36*
G01*
X0335673Y0298451D02*
X0336657Y0298451D01*
G75*
G02*
X0337149Y0297959I0000000J-000492D01*
G01*
X0337149Y0297959D01*
G75*
G02*
X0336657Y0297466I-000492J0000000D01*
G01*
X0335673Y0297466D01*
G75*
G02*
X0335181Y0297959I0000000J0000492D01*
G01*
X0335181Y0297959D01*
G75*
G02*
X0335673Y0298451I0000492J0000000D01*
G01*
G37*
G36*
G01*
X0335673Y0301049D02*
X0336657Y0301049D01*
G75*
G02*
X0337149Y0300557I0000000J-000492D01*
G01*
X0337149Y0300557D01*
G75*
G02*
X0336657Y0300065I-000492J0000000D01*
G01*
X0335673Y0300065D01*
G75*
G02*
X0335181Y0300557I0000000J0000492D01*
G01*
X0335181Y0300557D01*
G75*
G02*
X0335673Y0301049I0000492J0000000D01*
G01*
G37*
G36*
G01*
X0335673Y0303648D02*
X0336657Y0303648D01*
G75*
G02*
X0337149Y0303155I0000000J-000492D01*
G01*
X0337149Y0303155D01*
G75*
G02*
X0336657Y0302663I-000492J0000000D01*
G01*
X0335673Y0302663D01*
G75*
G02*
X0335181Y0303155I0000000J0000492D01*
G01*
X0335181Y0303155D01*
G75*
G02*
X0335673Y0303648I0000492J0000000D01*
G01*
G37*
G36*
G01*
X0335673Y0316640D02*
X0336657Y0316640D01*
G75*
G02*
X0337149Y0316148I0000000J-000492D01*
G01*
X0337149Y0316148D01*
G75*
G02*
X0336657Y0315655I-000492J0000000D01*
G01*
X0335673Y0315655D01*
G75*
G02*
X0335181Y0316148I0000000J0000492D01*
G01*
X0335181Y0316148D01*
G75*
G02*
X0335673Y0316640I0000492J0000000D01*
G01*
G37*
G36*
G01*
X0448941Y0263495D02*
X0448941Y0264479D01*
G75*
G02*
X0449433Y0264971I0000492J0000000D01*
G01*
X0449433Y0264971D01*
G75*
G02*
X0449925Y0264479I0000000J-000492D01*
G01*
X0449925Y0263495D01*
G75*
G02*
X0449433Y0263003I-000492J0000000D01*
G01*
X0449433Y0263003D01*
G75*
G02*
X0448941Y0263495I0000000J0000492D01*
G01*
G37*
G36*
G01*
X0445594Y0264479D02*
X0445594Y0263495D01*
G75*
G02*
X0445102Y0263003I-000492J0000000D01*
G01*
X0445102Y0263003D01*
G75*
G02*
X0444610Y0263495I0000000J0000492D01*
G01*
X0444610Y0264479D01*
G75*
G02*
X0445102Y0264971I0000492J0000000D01*
G01*
X0445102Y0264971D01*
G75*
G02*
X0445594Y0264479I0000000J-000492D01*
G01*
G37*
G36*
G01*
X0441264Y0264479D02*
X0441264Y0263495D01*
G75*
G02*
X0440771Y0263003I-000492J0000000D01*
G01*
X0440771Y0263003D01*
G75*
G02*
X0440279Y0263495I0000000J0000492D01*
G01*
X0440279Y0264479D01*
G75*
G02*
X0440771Y0264971I0000492J0000000D01*
G01*
X0440771Y0264971D01*
G75*
G02*
X0441264Y0264479I0000000J-000492D01*
G01*
G37*
G36*
G01*
X0436933Y0264479D02*
X0436933Y0263495D01*
G75*
G02*
X0436441Y0263003I-000492J0000000D01*
G01*
X0436441Y0263003D01*
G75*
G02*
X0435949Y0263495I0000000J0000492D01*
G01*
X0435949Y0264479D01*
G75*
G02*
X0436441Y0264971I0000492J0000000D01*
G01*
X0436441Y0264971D01*
G75*
G02*
X0436933Y0264479I0000000J-000492D01*
G01*
G37*
G36*
G01*
X0432602Y0264479D02*
X0432602Y0263495D01*
G75*
G02*
X0432110Y0263003I-000492J0000000D01*
G01*
X0432110Y0263003D01*
G75*
G02*
X0431618Y0263495I0000000J0000492D01*
G01*
X0431618Y0264479D01*
G75*
G02*
X0432110Y0264971I0000492J0000000D01*
G01*
X0432110Y0264971D01*
G75*
G02*
X0432602Y0264479I0000000J-000492D01*
G01*
G37*
G36*
G01*
X0428272Y0264479D02*
X0428272Y0263495D01*
G75*
G02*
X0427779Y0263003I-000492J0000000D01*
G01*
X0427779Y0263003D01*
G75*
G02*
X0427287Y0263495I0000000J0000492D01*
G01*
X0427287Y0264479D01*
G75*
G02*
X0427779Y0264971I0000492J0000000D01*
G01*
X0427779Y0264971D01*
G75*
G02*
X0428272Y0264479I0000000J-000492D01*
G01*
G37*
G36*
G01*
X0423941Y0264479D02*
X0423941Y0263495D01*
G75*
G02*
X0423449Y0263003I-000492J0000000D01*
G01*
X0423449Y0263003D01*
G75*
G02*
X0422957Y0263495I0000000J0000492D01*
G01*
X0422957Y0264479D01*
G75*
G02*
X0423449Y0264971I0000492J0000000D01*
G01*
X0423449Y0264971D01*
G75*
G02*
X0423941Y0264479I0000000J-000492D01*
G01*
G37*
G36*
G01*
X0419610Y0264479D02*
X0419610Y0263495D01*
G75*
G02*
X0419118Y0263003I-000492J0000000D01*
G01*
X0419118Y0263003D01*
G75*
G02*
X0418626Y0263495I0000000J0000492D01*
G01*
X0418626Y0264479D01*
G75*
G02*
X0419118Y0264971I0000492J0000000D01*
G01*
X0419118Y0264971D01*
G75*
G02*
X0419610Y0264479I0000000J-000492D01*
G01*
G37*
G36*
G01*
X0415279Y0264479D02*
X0415279Y0263495D01*
G75*
G02*
X0414787Y0263003I-000492J0000000D01*
G01*
X0414787Y0263003D01*
G75*
G02*
X0414295Y0263495I0000000J0000492D01*
G01*
X0414295Y0264479D01*
G75*
G02*
X0414787Y0264971I0000492J0000000D01*
G01*
X0414787Y0264971D01*
G75*
G02*
X0415279Y0264479I0000000J-000492D01*
G01*
G37*
G36*
G01*
X0410949Y0264479D02*
X0410949Y0263495D01*
G75*
G02*
X0410457Y0263003I-000492J0000000D01*
G01*
X0410457Y0263003D01*
G75*
G02*
X0409964Y0263495I0000000J0000492D01*
G01*
X0409964Y0264479D01*
G75*
G02*
X0410457Y0264971I0000492J0000000D01*
G01*
X0410457Y0264971D01*
G75*
G02*
X0410949Y0264479I0000000J-000492D01*
G01*
G37*
G36*
G01*
X0406618Y0264479D02*
X0406618Y0263495D01*
G75*
G02*
X0406126Y0263003I-000492J0000000D01*
G01*
X0406126Y0263003D01*
G75*
G02*
X0405634Y0263495I0000000J0000492D01*
G01*
X0405634Y0264479D01*
G75*
G02*
X0406126Y0264971I0000492J0000000D01*
G01*
X0406126Y0264971D01*
G75*
G02*
X0406618Y0264479I0000000J-000492D01*
G01*
G37*
G36*
G01*
X0402287Y0264479D02*
X0402287Y0263495D01*
G75*
G02*
X0401795Y0263003I-000492J0000000D01*
G01*
X0401795Y0263003D01*
G75*
G02*
X0401303Y0263495I0000000J0000492D01*
G01*
X0401303Y0264479D01*
G75*
G02*
X0401795Y0264971I0000492J0000000D01*
G01*
X0401795Y0264971D01*
G75*
G02*
X0402287Y0264479I0000000J-000492D01*
G01*
G37*
G36*
G01*
X0397957Y0264479D02*
X0397957Y0263495D01*
G75*
G02*
X0397464Y0263003I-000492J0000000D01*
G01*
X0397464Y0263003D01*
G75*
G02*
X0396972Y0263495I0000000J0000492D01*
G01*
X0396972Y0264479D01*
G75*
G02*
X0397464Y0264971I0000492J0000000D01*
G01*
X0397464Y0264971D01*
G75*
G02*
X0397957Y0264479I0000000J-000492D01*
G01*
G37*
G36*
G01*
X0393626Y0264479D02*
X0393626Y0263495D01*
G75*
G02*
X0393134Y0263003I-000492J0000000D01*
G01*
X0393134Y0263003D01*
G75*
G02*
X0392642Y0263495I0000000J0000492D01*
G01*
X0392642Y0264479D01*
G75*
G02*
X0393134Y0264971I0000492J0000000D01*
G01*
X0393134Y0264971D01*
G75*
G02*
X0393626Y0264479I0000000J-000492D01*
G01*
G37*
G36*
G01*
X0389295Y0264479D02*
X0389295Y0263495D01*
G75*
G02*
X0388803Y0263003I-000492J0000000D01*
G01*
X0388803Y0263003D01*
G75*
G02*
X0388311Y0263495I0000000J0000492D01*
G01*
X0388311Y0264479D01*
G75*
G02*
X0388803Y0264971I0000492J0000000D01*
G01*
X0388803Y0264971D01*
G75*
G02*
X0389295Y0264479I0000000J-000492D01*
G01*
G37*
G36*
G01*
X0384965Y0264479D02*
X0384965Y0263495D01*
G75*
G02*
X0384472Y0263003I-000492J0000000D01*
G01*
X0384472Y0263003D01*
G75*
G02*
X0383980Y0263495I0000000J0000492D01*
G01*
X0383980Y0264479D01*
G75*
G02*
X0384472Y0264971I0000492J0000000D01*
G01*
X0384472Y0264971D01*
G75*
G02*
X0384965Y0264479I0000000J-000492D01*
G01*
G37*
G36*
G01*
X0380634Y0264479D02*
X0380634Y0263495D01*
G75*
G02*
X0380142Y0263003I-000492J0000000D01*
G01*
X0380142Y0263003D01*
G75*
G02*
X0379650Y0263495I0000000J0000492D01*
G01*
X0379650Y0264479D01*
G75*
G02*
X0380142Y0264971I0000492J0000000D01*
G01*
X0380142Y0264971D01*
G75*
G02*
X0380634Y0264479I0000000J-000492D01*
G01*
G37*
G36*
G01*
X0376303Y0264479D02*
X0376303Y0263495D01*
G75*
G02*
X0375811Y0263003I-000492J0000000D01*
G01*
X0375811Y0263003D01*
G75*
G02*
X0375319Y0263495I0000000J0000492D01*
G01*
X0375319Y0264479D01*
G75*
G02*
X0375811Y0264971I0000492J0000000D01*
G01*
X0375811Y0264971D01*
G75*
G02*
X0376303Y0264479I0000000J-000492D01*
G01*
G37*
G36*
G01*
X0371972Y0264479D02*
X0371972Y0263495D01*
G75*
G02*
X0371480Y0263003I-000492J0000000D01*
G01*
X0371480Y0263003D01*
G75*
G02*
X0370988Y0263495I0000000J0000492D01*
G01*
X0370988Y0264479D01*
G75*
G02*
X0371480Y0264971I0000492J0000000D01*
G01*
X0371480Y0264971D01*
G75*
G02*
X0371972Y0264479I0000000J-000492D01*
G01*
G37*
G36*
G01*
X0367642Y0264479D02*
X0367642Y0263495D01*
G75*
G02*
X0367150Y0263003I-000492J0000000D01*
G01*
X0367150Y0263003D01*
G75*
G02*
X0366657Y0263495I0000000J0000492D01*
G01*
X0366657Y0264479D01*
G75*
G02*
X0367150Y0264971I0000492J0000000D01*
G01*
X0367150Y0264971D01*
G75*
G02*
X0367642Y0264479I0000000J-000492D01*
G01*
G37*
G36*
G01*
X0363311Y0264479D02*
X0363311Y0263495D01*
G75*
G02*
X0362819Y0263003I-000492J0000000D01*
G01*
X0362819Y0263003D01*
G75*
G02*
X0362327Y0263495I0000000J0000492D01*
G01*
X0362327Y0264479D01*
G75*
G02*
X0362819Y0264971I0000492J0000000D01*
G01*
X0362819Y0264971D01*
G75*
G02*
X0363311Y0264479I0000000J-000492D01*
G01*
G37*
G36*
G01*
X0358980Y0264479D02*
X0358980Y0263495D01*
G75*
G02*
X0358488Y0263003I-000492J0000000D01*
G01*
X0358488Y0263003D01*
G75*
G02*
X0357996Y0263495I0000000J0000492D01*
G01*
X0357996Y0264479D01*
G75*
G02*
X0358488Y0264971I0000492J0000000D01*
G01*
X0358488Y0264971D01*
G75*
G02*
X0358980Y0264479I0000000J-000492D01*
G01*
G37*
G36*
G01*
X0354650Y0264479D02*
X0354650Y0263495D01*
G75*
G02*
X0354157Y0263003I-000492J0000000D01*
G01*
X0354157Y0263003D01*
G75*
G02*
X0353665Y0263495I0000000J0000492D01*
G01*
X0353665Y0264479D01*
G75*
G02*
X0354157Y0264971I0000492J0000000D01*
G01*
X0354157Y0264971D01*
G75*
G02*
X0354650Y0264479I0000000J-000492D01*
G01*
G37*
G36*
G01*
X0350319Y0264479D02*
X0350319Y0263495D01*
G75*
G02*
X0349827Y0263003I-000492J0000000D01*
G01*
X0349827Y0263003D01*
G75*
G02*
X0349335Y0263495I0000000J0000492D01*
G01*
X0349335Y0264479D01*
G75*
G02*
X0349827Y0264971I0000492J0000000D01*
G01*
X0349827Y0264971D01*
G75*
G02*
X0350319Y0264479I0000000J-000492D01*
G01*
G37*
G36*
G01*
X0345988Y0264479D02*
X0345988Y0263495D01*
G75*
G02*
X0345496Y0263003I-000492J0000000D01*
G01*
X0345496Y0263003D01*
G75*
G02*
X0345004Y0263495I0000000J0000492D01*
G01*
X0345004Y0264479D01*
G75*
G02*
X0345496Y0264971I0000492J0000000D01*
G01*
X0345496Y0264971D01*
G75*
G02*
X0345988Y0264479I0000000J-000492D01*
G01*
G37*
G36*
G01*
X0341658Y0264479D02*
X0341658Y0263495D01*
G75*
G02*
X0341165Y0263003I-000492J0000000D01*
G01*
X0341165Y0263003D01*
G75*
G02*
X0340673Y0263495I0000000J0000492D01*
G01*
X0340673Y0264479D01*
G75*
G02*
X0341165Y0264971I0000492J0000000D01*
G01*
X0341165Y0264971D01*
G75*
G02*
X0341658Y0264479I0000000J-000492D01*
G01*
G37*
G36*
G01*
X0342645Y0319448D02*
X0342645Y0318463D01*
G75*
G02*
X0342153Y0317971I-000492J0000000D01*
G01*
X0342153Y0317971D01*
G75*
G02*
X0341661Y0318463I0000000J0000492D01*
G01*
X0341661Y0319448D01*
G75*
G02*
X0342153Y0319940I0000492J0000000D01*
G01*
X0342153Y0319940D01*
G75*
G02*
X0342645Y0319448I0000000J-000492D01*
G01*
G37*
G36*
G01*
X0345244Y0319448D02*
X0345244Y0318463D01*
G75*
G02*
X0344752Y0317971I-000492J0000000D01*
G01*
X0344752Y0317971D01*
G75*
G02*
X0344260Y0318463I0000000J0000492D01*
G01*
X0344260Y0319448D01*
G75*
G02*
X0344752Y0319940I0000492J0000000D01*
G01*
X0344752Y0319940D01*
G75*
G02*
X0345244Y0319448I0000000J-000492D01*
G01*
G37*
G36*
G01*
X0347842Y0319448D02*
X0347842Y0318463D01*
G75*
G02*
X0347350Y0317971I-000492J0000000D01*
G01*
X0347350Y0317971D01*
G75*
G02*
X0346858Y0318463I0000000J0000492D01*
G01*
X0346858Y0319448D01*
G75*
G02*
X0347350Y0319940I0000492J0000000D01*
G01*
X0347350Y0319940D01*
G75*
G02*
X0347842Y0319448I0000000J-000492D01*
G01*
G37*
G36*
G01*
X0350441Y0319448D02*
X0350441Y0318463D01*
G75*
G02*
X0349949Y0317971I-000492J0000000D01*
G01*
X0349949Y0317971D01*
G75*
G02*
X0349457Y0318463I0000000J0000492D01*
G01*
X0349457Y0319448D01*
G75*
G02*
X0349949Y0319940I0000492J0000000D01*
G01*
X0349949Y0319940D01*
G75*
G02*
X0350441Y0319448I0000000J-000492D01*
G01*
G37*
G36*
G01*
X0353039Y0319448D02*
X0353039Y0318463D01*
G75*
G02*
X0352547Y0317971I-000492J0000000D01*
G01*
X0352547Y0317971D01*
G75*
G02*
X0352055Y0318463I0000000J0000492D01*
G01*
X0352055Y0319448D01*
G75*
G02*
X0352547Y0319940I0000492J0000000D01*
G01*
X0352547Y0319940D01*
G75*
G02*
X0353039Y0319448I0000000J-000492D01*
G01*
G37*
G36*
G01*
X0355638Y0319448D02*
X0355638Y0318463D01*
G75*
G02*
X0355146Y0317971I-000492J0000000D01*
G01*
X0355146Y0317971D01*
G75*
G02*
X0354653Y0318463I0000000J0000492D01*
G01*
X0354653Y0319448D01*
G75*
G02*
X0355146Y0319940I0000492J0000000D01*
G01*
X0355146Y0319940D01*
G75*
G02*
X0355638Y0319448I0000000J-000492D01*
G01*
G37*
G36*
G01*
X0361941Y0319448D02*
X0361941Y0318463D01*
G75*
G02*
X0361449Y0317971I-000492J0000000D01*
G01*
X0361449Y0317971D01*
G75*
G02*
X0360957Y0318463I0000000J0000492D01*
G01*
X0360957Y0319448D01*
G75*
G02*
X0361449Y0319940I0000492J0000000D01*
G01*
X0361449Y0319940D01*
G75*
G02*
X0361941Y0319448I0000000J-000492D01*
G01*
G37*
G36*
G01*
X0364539Y0319448D02*
X0364539Y0318463D01*
G75*
G02*
X0364047Y0317971I-000492J0000000D01*
G01*
X0364047Y0317971D01*
G75*
G02*
X0363555Y0318463I0000000J0000492D01*
G01*
X0363555Y0319448D01*
G75*
G02*
X0364047Y0319940I0000492J0000000D01*
G01*
X0364047Y0319940D01*
G75*
G02*
X0364539Y0319448I0000000J-000492D01*
G01*
G37*
G36*
G01*
X0367138Y0319448D02*
X0367138Y0318463D01*
G75*
G02*
X0366646Y0317971I-000492J0000000D01*
G01*
X0366646Y0317971D01*
G75*
G02*
X0366153Y0318463I0000000J0000492D01*
G01*
X0366153Y0319448D01*
G75*
G02*
X0366646Y0319940I0000492J0000000D01*
G01*
X0366646Y0319940D01*
G75*
G02*
X0367138Y0319448I0000000J-000492D01*
G01*
G37*
G36*
G01*
X0371551Y0319448D02*
X0371551Y0318463D01*
G75*
G02*
X0371058Y0317971I-000492J0000000D01*
G01*
X0371058Y0317971D01*
G75*
G02*
X0370566Y0318463I0000000J0000492D01*
G01*
X0370566Y0319448D01*
G75*
G02*
X0371058Y0319940I0000492J0000000D01*
G01*
X0371058Y0319940D01*
G75*
G02*
X0371551Y0319448I0000000J-000492D01*
G01*
G37*
G36*
G01*
X0374149Y0319448D02*
X0374149Y0318463D01*
G75*
G02*
X0373657Y0317971I-000492J0000000D01*
G01*
X0373657Y0317971D01*
G75*
G02*
X0373165Y0318463I0000000J0000492D01*
G01*
X0373165Y0319448D01*
G75*
G02*
X0373657Y0319940I0000492J0000000D01*
G01*
X0373657Y0319940D01*
G75*
G02*
X0374149Y0319448I0000000J-000492D01*
G01*
G37*
G36*
G01*
X0376747Y0319448D02*
X0376747Y0318463D01*
G75*
G02*
X0376255Y0317971I-000492J0000000D01*
G01*
X0376255Y0317971D01*
G75*
G02*
X0375763Y0318463I0000000J0000492D01*
G01*
X0375763Y0319448D01*
G75*
G02*
X0376255Y0319940I0000492J0000000D01*
G01*
X0376255Y0319940D01*
G75*
G02*
X0376747Y0319448I0000000J-000492D01*
G01*
G37*
G36*
G01*
X0379346Y0319448D02*
X0379346Y0318463D01*
G75*
G02*
X0378854Y0317971I-000492J0000000D01*
G01*
X0378854Y0317971D01*
G75*
G02*
X0378362Y0318463I0000000J0000492D01*
G01*
X0378362Y0319448D01*
G75*
G02*
X0378854Y0319940I0000492J0000000D01*
G01*
X0378854Y0319940D01*
G75*
G02*
X0379346Y0319448I0000000J-000492D01*
G01*
G37*
G36*
G01*
X0392441Y0319448D02*
X0392441Y0318463D01*
G75*
G02*
X0391949Y0317971I-000492J0000000D01*
G01*
X0391949Y0317971D01*
G75*
G02*
X0391457Y0318463I0000000J0000492D01*
G01*
X0391457Y0319448D01*
G75*
G02*
X0391949Y0319940I0000492J0000000D01*
G01*
X0391949Y0319940D01*
G75*
G02*
X0392441Y0319448I0000000J-000492D01*
G01*
G37*
G36*
G01*
X0395039Y0319448D02*
X0395039Y0318463D01*
G75*
G02*
X0394547Y0317971I-000492J0000000D01*
G01*
X0394547Y0317971D01*
G75*
G02*
X0394055Y0318463I0000000J0000492D01*
G01*
X0394055Y0319448D01*
G75*
G02*
X0394547Y0319940I0000492J0000000D01*
G01*
X0394547Y0319940D01*
G75*
G02*
X0395039Y0319448I0000000J-000492D01*
G01*
G37*
G36*
G01*
X0397638Y0319448D02*
X0397638Y0318463D01*
G75*
G02*
X0397146Y0317971I-000492J0000000D01*
G01*
X0397146Y0317971D01*
G75*
G02*
X0396653Y0318463I0000000J0000492D01*
G01*
X0396653Y0319448D01*
G75*
G02*
X0397146Y0319940I0000492J0000000D01*
G01*
X0397146Y0319940D01*
G75*
G02*
X0397638Y0319448I0000000J-000492D01*
G01*
G37*
G36*
G01*
X0408055Y0319448D02*
X0408055Y0318463D01*
G75*
G02*
X0407563Y0317971I-000492J0000000D01*
G01*
X0407563Y0317971D01*
G75*
G02*
X0407071Y0318463I0000000J0000492D01*
G01*
X0407071Y0319448D01*
G75*
G02*
X0407563Y0319940I0000492J0000000D01*
G01*
X0407563Y0319940D01*
G75*
G02*
X0408055Y0319448I0000000J-000492D01*
G01*
G37*
G36*
G01*
X0410653Y0319448D02*
X0410653Y0318463D01*
G75*
G02*
X0410161Y0317971I-000492J0000000D01*
G01*
X0410161Y0317971D01*
G75*
G02*
X0409669Y0318463I0000000J0000492D01*
G01*
X0409669Y0319448D01*
G75*
G02*
X0410161Y0319940I0000492J0000000D01*
G01*
X0410161Y0319940D01*
G75*
G02*
X0410653Y0319448I0000000J-000492D01*
G01*
G37*
G36*
G01*
X0413252Y0319448D02*
X0413252Y0318463D01*
G75*
G02*
X0412760Y0317971I-000492J0000000D01*
G01*
X0412760Y0317971D01*
G75*
G02*
X0412268Y0318463I0000000J0000492D01*
G01*
X0412268Y0319448D01*
G75*
G02*
X0412760Y0319940I0000492J0000000D01*
G01*
X0412760Y0319940D01*
G75*
G02*
X0413252Y0319448I0000000J-000492D01*
G01*
G37*
G36*
G01*
X0415850Y0319448D02*
X0415850Y0318463D01*
G75*
G02*
X0415358Y0317971I-000492J0000000D01*
G01*
X0415358Y0317971D01*
G75*
G02*
X0414866Y0318463I0000000J0000492D01*
G01*
X0414866Y0319448D01*
G75*
G02*
X0415358Y0319940I0000492J0000000D01*
G01*
X0415358Y0319940D01*
G75*
G02*
X0415850Y0319448I0000000J-000492D01*
G01*
G37*
G36*
G01*
X0418449Y0319448D02*
X0418449Y0318463D01*
G75*
G02*
X0417957Y0317971I-000492J0000000D01*
G01*
X0417957Y0317971D01*
G75*
G02*
X0417464Y0318463I0000000J0000492D01*
G01*
X0417464Y0319448D01*
G75*
G02*
X0417957Y0319940I0000492J0000000D01*
G01*
X0417957Y0319940D01*
G75*
G02*
X0418449Y0319448I0000000J-000492D01*
G01*
G37*
G36*
G01*
X0421047Y0319448D02*
X0421047Y0318463D01*
G75*
G02*
X0420555Y0317971I-000492J0000000D01*
G01*
X0420555Y0317971D01*
G75*
G02*
X0420063Y0318463I0000000J0000492D01*
G01*
X0420063Y0319448D01*
G75*
G02*
X0420555Y0319940I0000492J0000000D01*
G01*
X0420555Y0319940D01*
G75*
G02*
X0421047Y0319448I0000000J-000492D01*
G01*
G37*
G36*
G01*
X0423645Y0319448D02*
X0423645Y0318463D01*
G75*
G02*
X0423153Y0317971I-000492J0000000D01*
G01*
X0423153Y0317971D01*
G75*
G02*
X0422661Y0318463I0000000J0000492D01*
G01*
X0422661Y0319448D01*
G75*
G02*
X0423153Y0319940I0000492J0000000D01*
G01*
X0423153Y0319940D01*
G75*
G02*
X0423645Y0319448I0000000J-000492D01*
G01*
G37*
G36*
G01*
X0426244Y0319448D02*
X0426244Y0318463D01*
G75*
G02*
X0425752Y0317971I-000492J0000000D01*
G01*
X0425752Y0317971D01*
G75*
G02*
X0425260Y0318463I0000000J0000492D01*
G01*
X0425260Y0319448D01*
G75*
G02*
X0425752Y0319940I0000492J0000000D01*
G01*
X0425752Y0319940D01*
G75*
G02*
X0426244Y0319448I0000000J-000492D01*
G01*
G37*
G36*
G01*
X0428842Y0319448D02*
X0428842Y0318463D01*
G75*
G02*
X0428350Y0317971I-000492J0000000D01*
G01*
X0428350Y0317971D01*
G75*
G02*
X0427858Y0318463I0000000J0000492D01*
G01*
X0427858Y0319448D01*
G75*
G02*
X0428350Y0319940I0000492J0000000D01*
G01*
X0428350Y0319940D01*
G75*
G02*
X0428842Y0319448I0000000J-000492D01*
G01*
G37*
G36*
G01*
X0431441Y0319448D02*
X0431441Y0318463D01*
G75*
G02*
X0430949Y0317971I-000492J0000000D01*
G01*
X0430949Y0317971D01*
G75*
G02*
X0430457Y0318463I0000000J0000492D01*
G01*
X0430457Y0319448D01*
G75*
G02*
X0430949Y0319940I0000492J0000000D01*
G01*
X0430949Y0319940D01*
G75*
G02*
X0431441Y0319448I0000000J-000492D01*
G01*
G37*
D234*
X0591909Y0261811D03*
X0564350Y0261811D03*
D272*
X0150831Y0523209D03*
X0150831Y0538209D03*
X0477953Y0482461D03*
X0477953Y0497461D03*
X0489807Y0497598D03*
X0489807Y0512598D03*
G36*
G01*
X0275747Y0126215D02*
X0276732Y0126215D01*
G75*
G02*
X0277224Y0125722I0000000J-000492D01*
G01*
X0277224Y0125722D01*
G75*
G02*
X0276732Y0125230I-000492J0000000D01*
G01*
X0275747Y0125230D01*
G75*
G02*
X0275255Y0125722I0000000J0000492D01*
G01*
X0275255Y0125722D01*
G75*
G02*
X0275747Y0126215I0000492J0000000D01*
G01*
G37*
G36*
G01*
X0276732Y0127829D02*
X0275747Y0127829D01*
G75*
G02*
X0275255Y0128321I0000000J0000492D01*
G01*
X0275255Y0128321D01*
G75*
G02*
X0275747Y0128813I0000492J0000000D01*
G01*
X0276732Y0128813D01*
G75*
G02*
X0277224Y0128321I0000000J-000492D01*
G01*
X0277224Y0128321D01*
G75*
G02*
X0276732Y0127829I-000492J0000000D01*
G01*
G37*
G36*
G01*
X0276732Y0130427D02*
X0275747Y0130427D01*
G75*
G02*
X0275255Y0130919I0000000J0000492D01*
G01*
X0275255Y0130919D01*
G75*
G02*
X0275747Y0131411I0000492J0000000D01*
G01*
X0276732Y0131411D01*
G75*
G02*
X0277224Y0130919I0000000J-000492D01*
G01*
X0277224Y0130919D01*
G75*
G02*
X0276732Y0130427I-000492J0000000D01*
G01*
G37*
G36*
G01*
X0276732Y0133026D02*
X0275747Y0133026D01*
G75*
G02*
X0275255Y0133518I0000000J0000492D01*
G01*
X0275255Y0133518D01*
G75*
G02*
X0275747Y0134010I0000492J0000000D01*
G01*
X0276732Y0134010D01*
G75*
G02*
X0277224Y0133518I0000000J-000492D01*
G01*
X0277224Y0133518D01*
G75*
G02*
X0276732Y0133026I-000492J0000000D01*
G01*
G37*
G36*
G01*
X0276732Y0135624D02*
X0275747Y0135624D01*
G75*
G02*
X0275255Y0136116I0000000J0000492D01*
G01*
X0275255Y0136116D01*
G75*
G02*
X0275747Y0136608I0000492J0000000D01*
G01*
X0276732Y0136608D01*
G75*
G02*
X0277224Y0136116I0000000J-000492D01*
G01*
X0277224Y0136116D01*
G75*
G02*
X0276732Y0135624I-000492J0000000D01*
G01*
G37*
G36*
G01*
X0276732Y0148616D02*
X0275747Y0148616D01*
G75*
G02*
X0275255Y0149108I0000000J0000492D01*
G01*
X0275255Y0149108D01*
G75*
G02*
X0275747Y0149600I0000492J0000000D01*
G01*
X0276732Y0149600D01*
G75*
G02*
X0277224Y0149108I0000000J-000492D01*
G01*
X0277224Y0149108D01*
G75*
G02*
X0276732Y0148616I-000492J0000000D01*
G01*
G37*
G36*
G01*
X0276732Y0151215D02*
X0275747Y0151215D01*
G75*
G02*
X0275255Y0151707I0000000J0000492D01*
G01*
X0275255Y0151707D01*
G75*
G02*
X0275747Y0152199I0000492J0000000D01*
G01*
X0276732Y0152199D01*
G75*
G02*
X0277224Y0151707I0000000J-000492D01*
G01*
X0277224Y0151707D01*
G75*
G02*
X0276732Y0151215I-000492J0000000D01*
G01*
G37*
G36*
G01*
X0276732Y0153813D02*
X0275747Y0153813D01*
G75*
G02*
X0275255Y0154305I0000000J0000492D01*
G01*
X0275255Y0154305D01*
G75*
G02*
X0275747Y0154797I0000492J0000000D01*
G01*
X0276732Y0154797D01*
G75*
G02*
X0277224Y0154305I0000000J-000492D01*
G01*
X0277224Y0154305D01*
G75*
G02*
X0276732Y0153813I-000492J0000000D01*
G01*
G37*
G36*
G01*
X0276732Y0156411D02*
X0275747Y0156411D01*
G75*
G02*
X0275255Y0156904I0000000J0000492D01*
G01*
X0275255Y0156904D01*
G75*
G02*
X0275747Y0157396I0000492J0000000D01*
G01*
X0276732Y0157396D01*
G75*
G02*
X0277224Y0156904I0000000J-000492D01*
G01*
X0277224Y0156904D01*
G75*
G02*
X0276732Y0156411I-000492J0000000D01*
G01*
G37*
G36*
G01*
X0276732Y0159010D02*
X0275747Y0159010D01*
G75*
G02*
X0275255Y0159502I0000000J0000492D01*
G01*
X0275255Y0159502D01*
G75*
G02*
X0275747Y0159994I0000492J0000000D01*
G01*
X0276732Y0159994D01*
G75*
G02*
X0277224Y0159502I0000000J-000492D01*
G01*
X0277224Y0159502D01*
G75*
G02*
X0276732Y0159010I-000492J0000000D01*
G01*
G37*
G36*
G01*
X0276732Y0161608D02*
X0275747Y0161608D01*
G75*
G02*
X0275255Y0162100I0000000J0000492D01*
G01*
X0275255Y0162100D01*
G75*
G02*
X0275747Y0162593I0000492J0000000D01*
G01*
X0276732Y0162593D01*
G75*
G02*
X0277224Y0162100I0000000J-000492D01*
G01*
X0277224Y0162100D01*
G75*
G02*
X0276732Y0161608I-000492J0000000D01*
G01*
G37*
G36*
G01*
X0276732Y0164207D02*
X0275747Y0164207D01*
G75*
G02*
X0275255Y0164699I0000000J0000492D01*
G01*
X0275255Y0164699D01*
G75*
G02*
X0275747Y0165191I0000492J0000000D01*
G01*
X0276732Y0165191D01*
G75*
G02*
X0277224Y0164699I0000000J-000492D01*
G01*
X0277224Y0164699D01*
G75*
G02*
X0276732Y0164207I-000492J0000000D01*
G01*
G37*
G36*
G01*
X0276732Y0166805D02*
X0275747Y0166805D01*
G75*
G02*
X0275255Y0167297I0000000J0000492D01*
G01*
X0275255Y0167297D01*
G75*
G02*
X0275747Y0167789I0000492J0000000D01*
G01*
X0276732Y0167789D01*
G75*
G02*
X0277224Y0167297I0000000J-000492D01*
G01*
X0277224Y0167297D01*
G75*
G02*
X0276732Y0166805I-000492J0000000D01*
G01*
G37*
G36*
G01*
X0276732Y0169404D02*
X0275747Y0169404D01*
G75*
G02*
X0275255Y0169896I0000000J0000492D01*
G01*
X0275255Y0169896D01*
G75*
G02*
X0275747Y0170388I0000492J0000000D01*
G01*
X0276732Y0170388D01*
G75*
G02*
X0277224Y0169896I0000000J-000492D01*
G01*
X0277224Y0169896D01*
G75*
G02*
X0276732Y0169404I-000492J0000000D01*
G01*
G37*
G36*
G01*
X0276732Y0172002D02*
X0275747Y0172002D01*
G75*
G02*
X0275255Y0172494I0000000J0000492D01*
G01*
X0275255Y0172494D01*
G75*
G02*
X0275747Y0172986I0000492J0000000D01*
G01*
X0276732Y0172986D01*
G75*
G02*
X0277224Y0172494I0000000J-000492D01*
G01*
X0277224Y0172494D01*
G75*
G02*
X0276732Y0172002I-000492J0000000D01*
G01*
G37*
G36*
G01*
X0276732Y0174600D02*
X0275747Y0174600D01*
G75*
G02*
X0275255Y0175093I0000000J0000492D01*
G01*
X0275255Y0175093D01*
G75*
G02*
X0275747Y0175585I0000492J0000000D01*
G01*
X0276732Y0175585D01*
G75*
G02*
X0277224Y0175093I0000000J-000492D01*
G01*
X0277224Y0175093D01*
G75*
G02*
X0276732Y0174600I-000492J0000000D01*
G01*
G37*
G36*
G01*
X0276732Y0177199D02*
X0275747Y0177199D01*
G75*
G02*
X0275255Y0177691I0000000J0000492D01*
G01*
X0275255Y0177691D01*
G75*
G02*
X0275747Y0178183I0000492J0000000D01*
G01*
X0276732Y0178183D01*
G75*
G02*
X0277224Y0177691I0000000J-000492D01*
G01*
X0277224Y0177691D01*
G75*
G02*
X0276732Y0177199I-000492J0000000D01*
G01*
G37*
G36*
G01*
X0276732Y0179797D02*
X0275747Y0179797D01*
G75*
G02*
X0275255Y0180289I0000000J0000492D01*
G01*
X0275255Y0180289D01*
G75*
G02*
X0275747Y0180782I0000492J0000000D01*
G01*
X0276732Y0180782D01*
G75*
G02*
X0277224Y0180289I0000000J-000492D01*
G01*
X0277224Y0180289D01*
G75*
G02*
X0276732Y0179797I-000492J0000000D01*
G01*
G37*
G36*
G01*
X0276732Y0182396D02*
X0275747Y0182396D01*
G75*
G02*
X0275255Y0182888I0000000J0000492D01*
G01*
X0275255Y0182888D01*
G75*
G02*
X0275747Y0183380I0000492J0000000D01*
G01*
X0276732Y0183380D01*
G75*
G02*
X0277224Y0182888I0000000J-000492D01*
G01*
X0277224Y0182888D01*
G75*
G02*
X0276732Y0182396I-000492J0000000D01*
G01*
G37*
G36*
G01*
X0276732Y0184994D02*
X0275747Y0184994D01*
G75*
G02*
X0275255Y0185486I0000000J0000492D01*
G01*
X0275255Y0185486D01*
G75*
G02*
X0275747Y0185978I0000492J0000000D01*
G01*
X0276732Y0185978D01*
G75*
G02*
X0277224Y0185486I0000000J-000492D01*
G01*
X0277224Y0185486D01*
G75*
G02*
X0276732Y0184994I-000492J0000000D01*
G01*
G37*
G36*
G01*
X0276732Y0187593D02*
X0275747Y0187593D01*
G75*
G02*
X0275255Y0188085I0000000J0000492D01*
G01*
X0275255Y0188085D01*
G75*
G02*
X0275747Y0188577I0000492J0000000D01*
G01*
X0276732Y0188577D01*
G75*
G02*
X0277224Y0188085I0000000J-000492D01*
G01*
X0277224Y0188085D01*
G75*
G02*
X0276732Y0187593I-000492J0000000D01*
G01*
G37*
G36*
G01*
X0276732Y0190191D02*
X0275747Y0190191D01*
G75*
G02*
X0275255Y0190683I0000000J0000492D01*
G01*
X0275255Y0190683D01*
G75*
G02*
X0275747Y0191175I0000492J0000000D01*
G01*
X0276732Y0191175D01*
G75*
G02*
X0277224Y0190683I0000000J-000492D01*
G01*
X0277224Y0190683D01*
G75*
G02*
X0276732Y0190191I-000492J0000000D01*
G01*
G37*
G36*
G01*
X0276732Y0192789D02*
X0275747Y0192789D01*
G75*
G02*
X0275255Y0193282I0000000J0000492D01*
G01*
X0275255Y0193282D01*
G75*
G02*
X0275747Y0193774I0000492J0000000D01*
G01*
X0276732Y0193774D01*
G75*
G02*
X0277224Y0193282I0000000J-000492D01*
G01*
X0277224Y0193282D01*
G75*
G02*
X0276732Y0192789I-000492J0000000D01*
G01*
G37*
G36*
G01*
X0276732Y0195388D02*
X0275747Y0195388D01*
G75*
G02*
X0275255Y0195880I0000000J0000492D01*
G01*
X0275255Y0195880D01*
G75*
G02*
X0275747Y0196372I0000492J0000000D01*
G01*
X0276732Y0196372D01*
G75*
G02*
X0277224Y0195880I0000000J-000492D01*
G01*
X0277224Y0195880D01*
G75*
G02*
X0276732Y0195388I-000492J0000000D01*
G01*
G37*
G36*
G01*
X0276732Y0197986D02*
X0275747Y0197986D01*
G75*
G02*
X0275255Y0198478I0000000J0000492D01*
G01*
X0275255Y0198478D01*
G75*
G02*
X0275747Y0198971I0000492J0000000D01*
G01*
X0276732Y0198971D01*
G75*
G02*
X0277224Y0198478I0000000J-000492D01*
G01*
X0277224Y0198478D01*
G75*
G02*
X0276732Y0197986I-000492J0000000D01*
G01*
G37*
G36*
G01*
X0276732Y0200585D02*
X0275747Y0200585D01*
G75*
G02*
X0275255Y0201077I0000000J0000492D01*
G01*
X0275255Y0201077D01*
G75*
G02*
X0275747Y0201569I0000492J0000000D01*
G01*
X0276732Y0201569D01*
G75*
G02*
X0277224Y0201077I0000000J-000492D01*
G01*
X0277224Y0201077D01*
G75*
G02*
X0276732Y0200585I-000492J0000000D01*
G01*
G37*
G36*
G01*
X0276732Y0203183D02*
X0275747Y0203183D01*
G75*
G02*
X0275255Y0203675I0000000J0000492D01*
G01*
X0275255Y0203675D01*
G75*
G02*
X0275747Y0204167I0000492J0000000D01*
G01*
X0276732Y0204167D01*
G75*
G02*
X0277224Y0203675I0000000J-000492D01*
G01*
X0277224Y0203675D01*
G75*
G02*
X0276732Y0203183I-000492J0000000D01*
G01*
G37*
G36*
G01*
X0276732Y0205782D02*
X0275747Y0205782D01*
G75*
G02*
X0275255Y0206274I0000000J0000492D01*
G01*
X0275255Y0206274D01*
G75*
G02*
X0275747Y0206766I0000492J0000000D01*
G01*
X0276732Y0206766D01*
G75*
G02*
X0277224Y0206274I0000000J-000492D01*
G01*
X0277224Y0206274D01*
G75*
G02*
X0276732Y0205782I-000492J0000000D01*
G01*
G37*
G36*
G01*
X0276732Y0208380D02*
X0275747Y0208380D01*
G75*
G02*
X0275255Y0208872I0000000J0000492D01*
G01*
X0275255Y0208872D01*
G75*
G02*
X0275747Y0209364I0000492J0000000D01*
G01*
X0276732Y0209364D01*
G75*
G02*
X0277224Y0208872I0000000J-000492D01*
G01*
X0277224Y0208872D01*
G75*
G02*
X0276732Y0208380I-000492J0000000D01*
G01*
G37*
G36*
G01*
X0276732Y0210978D02*
X0275747Y0210978D01*
G75*
G02*
X0275255Y0211471I0000000J0000492D01*
G01*
X0275255Y0211471D01*
G75*
G02*
X0275747Y0211963I0000492J0000000D01*
G01*
X0276732Y0211963D01*
G75*
G02*
X0277224Y0211471I0000000J-000492D01*
G01*
X0277224Y0211471D01*
G75*
G02*
X0276732Y0210978I-000492J0000000D01*
G01*
G37*
G36*
G01*
X0276732Y0213577D02*
X0275747Y0213577D01*
G75*
G02*
X0275255Y0214069I0000000J0000492D01*
G01*
X0275255Y0214069D01*
G75*
G02*
X0275747Y0214561I0000492J0000000D01*
G01*
X0276732Y0214561D01*
G75*
G02*
X0277224Y0214069I0000000J-000492D01*
G01*
X0277224Y0214069D01*
G75*
G02*
X0276732Y0213577I-000492J0000000D01*
G01*
G37*
G36*
G01*
X0276732Y0216175D02*
X0275747Y0216175D01*
G75*
G02*
X0275255Y0216667I0000000J0000492D01*
G01*
X0275255Y0216667D01*
G75*
G02*
X0275747Y0217159I0000492J0000000D01*
G01*
X0276732Y0217159D01*
G75*
G02*
X0277224Y0216667I0000000J-000492D01*
G01*
X0277224Y0216667D01*
G75*
G02*
X0276732Y0216175I-000492J0000000D01*
G01*
G37*
G36*
G01*
X0276732Y0218774D02*
X0275747Y0218774D01*
G75*
G02*
X0275255Y0219266I0000000J0000492D01*
G01*
X0275255Y0219266D01*
G75*
G02*
X0275747Y0219758I0000492J0000000D01*
G01*
X0276732Y0219758D01*
G75*
G02*
X0277224Y0219266I0000000J-000492D01*
G01*
X0277224Y0219266D01*
G75*
G02*
X0276732Y0218774I-000492J0000000D01*
G01*
G37*
G36*
G01*
X0276732Y0221372D02*
X0275747Y0221372D01*
G75*
G02*
X0275255Y0221864I0000000J0000492D01*
G01*
X0275255Y0221864D01*
G75*
G02*
X0275747Y0222356I0000492J0000000D01*
G01*
X0276732Y0222356D01*
G75*
G02*
X0277224Y0221864I0000000J-000492D01*
G01*
X0277224Y0221864D01*
G75*
G02*
X0276732Y0221372I-000492J0000000D01*
G01*
G37*
G36*
G01*
X0409397Y0108982D02*
X0409397Y0109967D01*
G75*
G02*
X0409889Y0110459I0000492J0000000D01*
G01*
X0409889Y0110459D01*
G75*
G02*
X0410381Y0109967I0000000J-000492D01*
G01*
X0410381Y0108982D01*
G75*
G02*
X0409889Y0108490I-000492J0000000D01*
G01*
X0409889Y0108490D01*
G75*
G02*
X0409397Y0108982I0000000J0000492D01*
G01*
G37*
G36*
G01*
X0405184Y0109967D02*
X0405184Y0108982D01*
G75*
G02*
X0404692Y0108490I-000492J0000000D01*
G01*
X0404692Y0108490D01*
G75*
G02*
X0404200Y0108982I0000000J0000492D01*
G01*
X0404200Y0109967D01*
G75*
G02*
X0404692Y0110459I0000492J0000000D01*
G01*
X0404692Y0110459D01*
G75*
G02*
X0405184Y0109967I0000000J-000492D01*
G01*
G37*
G36*
G01*
X0399988Y0109967D02*
X0399988Y0108982D01*
G75*
G02*
X0399495Y0108490I-000492J0000000D01*
G01*
X0399495Y0108490D01*
G75*
G02*
X0399003Y0108982I0000000J0000492D01*
G01*
X0399003Y0109967D01*
G75*
G02*
X0399495Y0110459I0000492J0000000D01*
G01*
X0399495Y0110459D01*
G75*
G02*
X0399988Y0109967I0000000J-000492D01*
G01*
G37*
G36*
G01*
X0396996Y0109967D02*
X0396996Y0108982D01*
G75*
G02*
X0396503Y0108490I-000492J0000000D01*
G01*
X0396503Y0108490D01*
G75*
G02*
X0396011Y0108982I0000000J0000492D01*
G01*
X0396011Y0109967D01*
G75*
G02*
X0396503Y0110459I0000492J0000000D01*
G01*
X0396503Y0110459D01*
G75*
G02*
X0396996Y0109967I0000000J-000492D01*
G01*
G37*
G36*
G01*
X0394377Y0109967D02*
X0394377Y0108982D01*
G75*
G02*
X0393885Y0108490I-000492J0000000D01*
G01*
X0393885Y0108490D01*
G75*
G02*
X0393393Y0108982I0000000J0000492D01*
G01*
X0393393Y0109967D01*
G75*
G02*
X0393885Y0110459I0000492J0000000D01*
G01*
X0393885Y0110459D01*
G75*
G02*
X0394377Y0109967I0000000J-000492D01*
G01*
G37*
G36*
G01*
X0391759Y0109967D02*
X0391759Y0108982D01*
G75*
G02*
X0391267Y0108490I-000492J0000000D01*
G01*
X0391267Y0108490D01*
G75*
G02*
X0390775Y0108982I0000000J0000492D01*
G01*
X0390775Y0109967D01*
G75*
G02*
X0391267Y0110459I0000492J0000000D01*
G01*
X0391267Y0110459D01*
G75*
G02*
X0391759Y0109967I0000000J-000492D01*
G01*
G37*
G36*
G01*
X0389141Y0109967D02*
X0389141Y0108982D01*
G75*
G02*
X0388649Y0108490I-000492J0000000D01*
G01*
X0388649Y0108490D01*
G75*
G02*
X0388157Y0108982I0000000J0000492D01*
G01*
X0388157Y0109967D01*
G75*
G02*
X0388649Y0110459I0000492J0000000D01*
G01*
X0388649Y0110459D01*
G75*
G02*
X0389141Y0109967I0000000J-000492D01*
G01*
G37*
G36*
G01*
X0386090Y0109967D02*
X0386090Y0108982D01*
G75*
G02*
X0385598Y0108490I-000492J0000000D01*
G01*
X0385598Y0108490D01*
G75*
G02*
X0385106Y0108982I0000000J0000492D01*
G01*
X0385106Y0109967D01*
G75*
G02*
X0385598Y0110459I0000492J0000000D01*
G01*
X0385598Y0110459D01*
G75*
G02*
X0386090Y0109967I0000000J-000492D01*
G01*
G37*
G36*
G01*
X0381759Y0109967D02*
X0381759Y0108982D01*
G75*
G02*
X0381267Y0108490I-000492J0000000D01*
G01*
X0381267Y0108490D01*
G75*
G02*
X0380775Y0108982I0000000J0000492D01*
G01*
X0380775Y0109967D01*
G75*
G02*
X0381267Y0110459I0000492J0000000D01*
G01*
X0381267Y0110459D01*
G75*
G02*
X0381759Y0109967I0000000J-000492D01*
G01*
G37*
G36*
G01*
X0377429Y0109967D02*
X0377429Y0108982D01*
G75*
G02*
X0376936Y0108490I-000492J0000000D01*
G01*
X0376936Y0108490D01*
G75*
G02*
X0376444Y0108982I0000000J0000492D01*
G01*
X0376444Y0109967D01*
G75*
G02*
X0376936Y0110459I0000492J0000000D01*
G01*
X0376936Y0110459D01*
G75*
G02*
X0377429Y0109967I0000000J-000492D01*
G01*
G37*
G36*
G01*
X0373098Y0109967D02*
X0373098Y0108982D01*
G75*
G02*
X0372606Y0108490I-000492J0000000D01*
G01*
X0372606Y0108490D01*
G75*
G02*
X0372114Y0108982I0000000J0000492D01*
G01*
X0372114Y0109967D01*
G75*
G02*
X0372606Y0110459I0000492J0000000D01*
G01*
X0372606Y0110459D01*
G75*
G02*
X0373098Y0109967I0000000J-000492D01*
G01*
G37*
G36*
G01*
X0368767Y0109967D02*
X0368767Y0108982D01*
G75*
G02*
X0368275Y0108490I-000492J0000000D01*
G01*
X0368275Y0108490D01*
G75*
G02*
X0367783Y0108982I0000000J0000492D01*
G01*
X0367783Y0109967D01*
G75*
G02*
X0368275Y0110459I0000492J0000000D01*
G01*
X0368275Y0110459D01*
G75*
G02*
X0368767Y0109967I0000000J-000492D01*
G01*
G37*
G36*
G01*
X0364437Y0109967D02*
X0364437Y0108982D01*
G75*
G02*
X0363944Y0108490I-000492J0000000D01*
G01*
X0363944Y0108490D01*
G75*
G02*
X0363452Y0108982I0000000J0000492D01*
G01*
X0363452Y0109967D01*
G75*
G02*
X0363944Y0110459I0000492J0000000D01*
G01*
X0363944Y0110459D01*
G75*
G02*
X0364437Y0109967I0000000J-000492D01*
G01*
G37*
G36*
G01*
X0360106Y0109967D02*
X0360106Y0108982D01*
G75*
G02*
X0359614Y0108490I-000492J0000000D01*
G01*
X0359614Y0108490D01*
G75*
G02*
X0359122Y0108982I0000000J0000492D01*
G01*
X0359122Y0109967D01*
G75*
G02*
X0359614Y0110459I0000492J0000000D01*
G01*
X0359614Y0110459D01*
G75*
G02*
X0360106Y0109967I0000000J-000492D01*
G01*
G37*
G36*
G01*
X0355775Y0109967D02*
X0355775Y0108982D01*
G75*
G02*
X0355283Y0108490I-000492J0000000D01*
G01*
X0355283Y0108490D01*
G75*
G02*
X0354791Y0108982I0000000J0000492D01*
G01*
X0354791Y0109967D01*
G75*
G02*
X0355283Y0110459I0000492J0000000D01*
G01*
X0355283Y0110459D01*
G75*
G02*
X0355775Y0109967I0000000J-000492D01*
G01*
G37*
G36*
G01*
X0351444Y0109967D02*
X0351444Y0108982D01*
G75*
G02*
X0350952Y0108490I-000492J0000000D01*
G01*
X0350952Y0108490D01*
G75*
G02*
X0350460Y0108982I0000000J0000492D01*
G01*
X0350460Y0109967D01*
G75*
G02*
X0350952Y0110459I0000492J0000000D01*
G01*
X0350952Y0110459D01*
G75*
G02*
X0351444Y0109967I0000000J-000492D01*
G01*
G37*
G36*
G01*
X0347114Y0109967D02*
X0347114Y0108982D01*
G75*
G02*
X0346622Y0108490I-000492J0000000D01*
G01*
X0346622Y0108490D01*
G75*
G02*
X0346129Y0108982I0000000J0000492D01*
G01*
X0346129Y0109967D01*
G75*
G02*
X0346622Y0110459I0000492J0000000D01*
G01*
X0346622Y0110459D01*
G75*
G02*
X0347114Y0109967I0000000J-000492D01*
G01*
G37*
G36*
G01*
X0342783Y0109967D02*
X0342783Y0108982D01*
G75*
G02*
X0342291Y0108490I-000492J0000000D01*
G01*
X0342291Y0108490D01*
G75*
G02*
X0341799Y0108982I0000000J0000492D01*
G01*
X0341799Y0109967D01*
G75*
G02*
X0342291Y0110459I0000492J0000000D01*
G01*
X0342291Y0110459D01*
G75*
G02*
X0342783Y0109967I0000000J-000492D01*
G01*
G37*
G36*
G01*
X0338452Y0109967D02*
X0338452Y0108982D01*
G75*
G02*
X0337960Y0108490I-000492J0000000D01*
G01*
X0337960Y0108490D01*
G75*
G02*
X0337468Y0108982I0000000J0000492D01*
G01*
X0337468Y0109967D01*
G75*
G02*
X0337960Y0110459I0000492J0000000D01*
G01*
X0337960Y0110459D01*
G75*
G02*
X0338452Y0109967I0000000J-000492D01*
G01*
G37*
G36*
G01*
X0334122Y0109967D02*
X0334122Y0108982D01*
G75*
G02*
X0333629Y0108490I-000492J0000000D01*
G01*
X0333629Y0108490D01*
G75*
G02*
X0333137Y0108982I0000000J0000492D01*
G01*
X0333137Y0109967D01*
G75*
G02*
X0333629Y0110459I0000492J0000000D01*
G01*
X0333629Y0110459D01*
G75*
G02*
X0334122Y0109967I0000000J-000492D01*
G01*
G37*
G36*
G01*
X0329791Y0109967D02*
X0329791Y0108982D01*
G75*
G02*
X0329299Y0108490I-000492J0000000D01*
G01*
X0329299Y0108490D01*
G75*
G02*
X0328807Y0108982I0000000J0000492D01*
G01*
X0328807Y0109967D01*
G75*
G02*
X0329299Y0110459I0000492J0000000D01*
G01*
X0329299Y0110459D01*
G75*
G02*
X0329791Y0109967I0000000J-000492D01*
G01*
G37*
G36*
G01*
X0325460Y0109967D02*
X0325460Y0108982D01*
G75*
G02*
X0324968Y0108490I-000492J0000000D01*
G01*
X0324968Y0108490D01*
G75*
G02*
X0324476Y0108982I0000000J0000492D01*
G01*
X0324476Y0109967D01*
G75*
G02*
X0324968Y0110459I0000492J0000000D01*
G01*
X0324968Y0110459D01*
G75*
G02*
X0325460Y0109967I0000000J-000492D01*
G01*
G37*
G36*
G01*
X0321130Y0109967D02*
X0321130Y0108982D01*
G75*
G02*
X0320637Y0108490I-000492J0000000D01*
G01*
X0320637Y0108490D01*
G75*
G02*
X0320145Y0108982I0000000J0000492D01*
G01*
X0320145Y0109967D01*
G75*
G02*
X0320637Y0110459I0000492J0000000D01*
G01*
X0320637Y0110459D01*
G75*
G02*
X0321130Y0109967I0000000J-000492D01*
G01*
G37*
G36*
G01*
X0316799Y0109967D02*
X0316799Y0108982D01*
G75*
G02*
X0316307Y0108490I-000492J0000000D01*
G01*
X0316307Y0108490D01*
G75*
G02*
X0315815Y0108982I0000000J0000492D01*
G01*
X0315815Y0109967D01*
G75*
G02*
X0316307Y0110459I0000492J0000000D01*
G01*
X0316307Y0110459D01*
G75*
G02*
X0316799Y0109967I0000000J-000492D01*
G01*
G37*
G36*
G01*
X0312468Y0109967D02*
X0312468Y0108982D01*
G75*
G02*
X0311976Y0108490I-000492J0000000D01*
G01*
X0311976Y0108490D01*
G75*
G02*
X0311484Y0108982I0000000J0000492D01*
G01*
X0311484Y0109967D01*
G75*
G02*
X0311976Y0110459I0000492J0000000D01*
G01*
X0311976Y0110459D01*
G75*
G02*
X0312468Y0109967I0000000J-000492D01*
G01*
G37*
G36*
G01*
X0308137Y0109967D02*
X0308137Y0108982D01*
G75*
G02*
X0307645Y0108490I-000492J0000000D01*
G01*
X0307645Y0108490D01*
G75*
G02*
X0307153Y0108982I0000000J0000492D01*
G01*
X0307153Y0109967D01*
G75*
G02*
X0307645Y0110459I0000492J0000000D01*
G01*
X0307645Y0110459D01*
G75*
G02*
X0308137Y0109967I0000000J-000492D01*
G01*
G37*
G36*
G01*
X0303807Y0109967D02*
X0303807Y0108982D01*
G75*
G02*
X0303315Y0108490I-000492J0000000D01*
G01*
X0303315Y0108490D01*
G75*
G02*
X0302822Y0108982I0000000J0000492D01*
G01*
X0302822Y0109967D01*
G75*
G02*
X0303315Y0110459I0000492J0000000D01*
G01*
X0303315Y0110459D01*
G75*
G02*
X0303807Y0109967I0000000J-000492D01*
G01*
G37*
G36*
G01*
X0299476Y0109967D02*
X0299476Y0108982D01*
G75*
G02*
X0298984Y0108490I-000492J0000000D01*
G01*
X0298984Y0108490D01*
G75*
G02*
X0298492Y0108982I0000000J0000492D01*
G01*
X0298492Y0109967D01*
G75*
G02*
X0298984Y0110459I0000492J0000000D01*
G01*
X0298984Y0110459D01*
G75*
G02*
X0299476Y0109967I0000000J-000492D01*
G01*
G37*
G36*
G01*
X0295145Y0109967D02*
X0295145Y0108982D01*
G75*
G02*
X0294653Y0108490I-000492J0000000D01*
G01*
X0294653Y0108490D01*
G75*
G02*
X0294161Y0108982I0000000J0000492D01*
G01*
X0294161Y0109967D01*
G75*
G02*
X0294653Y0110459I0000492J0000000D01*
G01*
X0294653Y0110459D01*
G75*
G02*
X0295145Y0109967I0000000J-000492D01*
G01*
G37*
G36*
G01*
X0290815Y0109967D02*
X0290815Y0108982D01*
G75*
G02*
X0290322Y0108490I-000492J0000000D01*
G01*
X0290322Y0108490D01*
G75*
G02*
X0289830Y0108982I0000000J0000492D01*
G01*
X0289830Y0109967D01*
G75*
G02*
X0290322Y0110459I0000492J0000000D01*
G01*
X0290322Y0110459D01*
G75*
G02*
X0290815Y0109967I0000000J-000492D01*
G01*
G37*
G36*
G01*
X0286484Y0109967D02*
X0286484Y0108982D01*
G75*
G02*
X0285992Y0108490I-000492J0000000D01*
G01*
X0285992Y0108490D01*
G75*
G02*
X0285500Y0108982I0000000J0000492D01*
G01*
X0285500Y0109967D01*
G75*
G02*
X0285992Y0110459I0000492J0000000D01*
G01*
X0285992Y0110459D01*
G75*
G02*
X0286484Y0109967I0000000J-000492D01*
G01*
G37*
G36*
G01*
X0282153Y0109967D02*
X0282153Y0108982D01*
G75*
G02*
X0281661Y0108490I-000492J0000000D01*
G01*
X0281661Y0108490D01*
G75*
G02*
X0281169Y0108982I0000000J0000492D01*
G01*
X0281169Y0109967D01*
G75*
G02*
X0281661Y0110459I0000492J0000000D01*
G01*
X0281661Y0110459D01*
G75*
G02*
X0282153Y0109967I0000000J-000492D01*
G01*
G37*
G36*
G01*
X0309712Y0251419D02*
X0309712Y0250435D01*
G75*
G02*
X0309220Y0249943I-000492J0000000D01*
G01*
X0309220Y0249943D01*
G75*
G02*
X0308728Y0250435I0000000J0000492D01*
G01*
X0308728Y0251419D01*
G75*
G02*
X0309220Y0251911I0000492J0000000D01*
G01*
X0309220Y0251911D01*
G75*
G02*
X0309712Y0251419I0000000J-000492D01*
G01*
G37*
G36*
G01*
X0313925Y0250435D02*
X0313925Y0251419D01*
G75*
G02*
X0314417Y0251911I0000492J0000000D01*
G01*
X0314417Y0251911D01*
G75*
G02*
X0314909Y0251419I0000000J-000492D01*
G01*
X0314909Y0250435D01*
G75*
G02*
X0314417Y0249943I-000492J0000000D01*
G01*
X0314417Y0249943D01*
G75*
G02*
X0313925Y0250435I0000000J0000492D01*
G01*
G37*
G36*
G01*
X0319122Y0250435D02*
X0319122Y0251419D01*
G75*
G02*
X0319614Y0251911I0000492J0000000D01*
G01*
X0319614Y0251911D01*
G75*
G02*
X0320106Y0251419I0000000J-000492D01*
G01*
X0320106Y0250435D01*
G75*
G02*
X0319614Y0249943I-000492J0000000D01*
G01*
X0319614Y0249943D01*
G75*
G02*
X0319122Y0250435I0000000J0000492D01*
G01*
G37*
G36*
G01*
X0323452Y0250435D02*
X0323452Y0251419D01*
G75*
G02*
X0323944Y0251911I0000492J0000000D01*
G01*
X0323944Y0251911D01*
G75*
G02*
X0324436Y0251419I0000000J-000492D01*
G01*
X0324436Y0250435D01*
G75*
G02*
X0323944Y0249943I-000492J0000000D01*
G01*
X0323944Y0249943D01*
G75*
G02*
X0323452Y0250435I0000000J0000492D01*
G01*
G37*
G36*
G01*
X0327783Y0250435D02*
X0327783Y0251419D01*
G75*
G02*
X0328275Y0251911I0000492J0000000D01*
G01*
X0328275Y0251911D01*
G75*
G02*
X0328767Y0251419I0000000J-000492D01*
G01*
X0328767Y0250435D01*
G75*
G02*
X0328275Y0249943I-000492J0000000D01*
G01*
X0328275Y0249943D01*
G75*
G02*
X0327783Y0250435I0000000J0000492D01*
G01*
G37*
G36*
G01*
X0332114Y0250435D02*
X0332114Y0251419D01*
G75*
G02*
X0332606Y0251911I0000492J0000000D01*
G01*
X0332606Y0251911D01*
G75*
G02*
X0333098Y0251419I0000000J-000492D01*
G01*
X0333098Y0250435D01*
G75*
G02*
X0332606Y0249943I-000492J0000000D01*
G01*
X0332606Y0249943D01*
G75*
G02*
X0332114Y0250435I0000000J0000492D01*
G01*
G37*
G36*
G01*
X0336444Y0250435D02*
X0336444Y0251419D01*
G75*
G02*
X0336936Y0251911I0000492J0000000D01*
G01*
X0336936Y0251911D01*
G75*
G02*
X0337429Y0251419I0000000J-000492D01*
G01*
X0337429Y0250435D01*
G75*
G02*
X0336936Y0249943I-000492J0000000D01*
G01*
X0336936Y0249943D01*
G75*
G02*
X0336444Y0250435I0000000J0000492D01*
G01*
G37*
G36*
G01*
X0340775Y0250435D02*
X0340775Y0251419D01*
G75*
G02*
X0341267Y0251911I0000492J0000000D01*
G01*
X0341267Y0251911D01*
G75*
G02*
X0341759Y0251419I0000000J-000492D01*
G01*
X0341759Y0250435D01*
G75*
G02*
X0341267Y0249943I-000492J0000000D01*
G01*
X0341267Y0249943D01*
G75*
G02*
X0340775Y0250435I0000000J0000492D01*
G01*
G37*
G36*
G01*
X0345106Y0250435D02*
X0345106Y0251419D01*
G75*
G02*
X0345598Y0251911I0000492J0000000D01*
G01*
X0345598Y0251911D01*
G75*
G02*
X0346090Y0251419I0000000J-000492D01*
G01*
X0346090Y0250435D01*
G75*
G02*
X0345598Y0249943I-000492J0000000D01*
G01*
X0345598Y0249943D01*
G75*
G02*
X0345106Y0250435I0000000J0000492D01*
G01*
G37*
G36*
G01*
X0349436Y0250435D02*
X0349436Y0251419D01*
G75*
G02*
X0349929Y0251911I0000492J0000000D01*
G01*
X0349929Y0251911D01*
G75*
G02*
X0350421Y0251419I0000000J-000492D01*
G01*
X0350421Y0250435D01*
G75*
G02*
X0349929Y0249943I-000492J0000000D01*
G01*
X0349929Y0249943D01*
G75*
G02*
X0349436Y0250435I0000000J0000492D01*
G01*
G37*
G36*
G01*
X0353767Y0250435D02*
X0353767Y0251419D01*
G75*
G02*
X0354259Y0251911I0000492J0000000D01*
G01*
X0354259Y0251911D01*
G75*
G02*
X0354751Y0251419I0000000J-000492D01*
G01*
X0354751Y0250435D01*
G75*
G02*
X0354259Y0249943I-000492J0000000D01*
G01*
X0354259Y0249943D01*
G75*
G02*
X0353767Y0250435I0000000J0000492D01*
G01*
G37*
G36*
G01*
X0358098Y0250435D02*
X0358098Y0251419D01*
G75*
G02*
X0358590Y0251911I0000492J0000000D01*
G01*
X0358590Y0251911D01*
G75*
G02*
X0359082Y0251419I0000000J-000492D01*
G01*
X0359082Y0250435D01*
G75*
G02*
X0358590Y0249943I-000492J0000000D01*
G01*
X0358590Y0249943D01*
G75*
G02*
X0358098Y0250435I0000000J0000492D01*
G01*
G37*
G36*
G01*
X0362429Y0250435D02*
X0362429Y0251419D01*
G75*
G02*
X0362921Y0251911I0000492J0000000D01*
G01*
X0362921Y0251911D01*
G75*
G02*
X0363413Y0251419I0000000J-000492D01*
G01*
X0363413Y0250435D01*
G75*
G02*
X0362921Y0249943I-000492J0000000D01*
G01*
X0362921Y0249943D01*
G75*
G02*
X0362429Y0250435I0000000J0000492D01*
G01*
G37*
G36*
G01*
X0366759Y0250435D02*
X0366759Y0251419D01*
G75*
G02*
X0367251Y0251911I0000492J0000000D01*
G01*
X0367251Y0251911D01*
G75*
G02*
X0367743Y0251419I0000000J-000492D01*
G01*
X0367743Y0250435D01*
G75*
G02*
X0367251Y0249943I-000492J0000000D01*
G01*
X0367251Y0249943D01*
G75*
G02*
X0366759Y0250435I0000000J0000492D01*
G01*
G37*
G36*
G01*
X0371090Y0250435D02*
X0371090Y0251419D01*
G75*
G02*
X0371582Y0251911I0000492J0000000D01*
G01*
X0371582Y0251911D01*
G75*
G02*
X0372074Y0251419I0000000J-000492D01*
G01*
X0372074Y0250435D01*
G75*
G02*
X0371582Y0249943I-000492J0000000D01*
G01*
X0371582Y0249943D01*
G75*
G02*
X0371090Y0250435I0000000J0000492D01*
G01*
G37*
G36*
G01*
X0375421Y0250435D02*
X0375421Y0251419D01*
G75*
G02*
X0375913Y0251911I0000492J0000000D01*
G01*
X0375913Y0251911D01*
G75*
G02*
X0376405Y0251419I0000000J-000492D01*
G01*
X0376405Y0250435D01*
G75*
G02*
X0375913Y0249943I-000492J0000000D01*
G01*
X0375913Y0249943D01*
G75*
G02*
X0375421Y0250435I0000000J0000492D01*
G01*
G37*
G36*
G01*
X0379751Y0250435D02*
X0379751Y0251419D01*
G75*
G02*
X0380243Y0251911I0000492J0000000D01*
G01*
X0380243Y0251911D01*
G75*
G02*
X0380736Y0251419I0000000J-000492D01*
G01*
X0380736Y0250435D01*
G75*
G02*
X0380243Y0249943I-000492J0000000D01*
G01*
X0380243Y0249943D01*
G75*
G02*
X0379751Y0250435I0000000J0000492D01*
G01*
G37*
G36*
G01*
X0384082Y0250435D02*
X0384082Y0251419D01*
G75*
G02*
X0384574Y0251911I0000492J0000000D01*
G01*
X0384574Y0251911D01*
G75*
G02*
X0385066Y0251419I0000000J-000492D01*
G01*
X0385066Y0250435D01*
G75*
G02*
X0384574Y0249943I-000492J0000000D01*
G01*
X0384574Y0249943D01*
G75*
G02*
X0384082Y0250435I0000000J0000492D01*
G01*
G37*
G36*
G01*
X0388413Y0250435D02*
X0388413Y0251419D01*
G75*
G02*
X0388905Y0251911I0000492J0000000D01*
G01*
X0388905Y0251911D01*
G75*
G02*
X0389397Y0251419I0000000J-000492D01*
G01*
X0389397Y0250435D01*
G75*
G02*
X0388905Y0249943I-000492J0000000D01*
G01*
X0388905Y0249943D01*
G75*
G02*
X0388413Y0250435I0000000J0000492D01*
G01*
G37*
G36*
G01*
X0392743Y0250435D02*
X0392743Y0251419D01*
G75*
G02*
X0393236Y0251911I0000492J0000000D01*
G01*
X0393236Y0251911D01*
G75*
G02*
X0393728Y0251419I0000000J-000492D01*
G01*
X0393728Y0250435D01*
G75*
G02*
X0393236Y0249943I-000492J0000000D01*
G01*
X0393236Y0249943D01*
G75*
G02*
X0392743Y0250435I0000000J0000492D01*
G01*
G37*
G36*
G01*
X0397074Y0250435D02*
X0397074Y0251419D01*
G75*
G02*
X0397566Y0251911I0000492J0000000D01*
G01*
X0397566Y0251911D01*
G75*
G02*
X0398058Y0251419I0000000J-000492D01*
G01*
X0398058Y0250435D01*
G75*
G02*
X0397566Y0249943I-000492J0000000D01*
G01*
X0397566Y0249943D01*
G75*
G02*
X0397074Y0250435I0000000J0000492D01*
G01*
G37*
G36*
G01*
X0401405Y0250435D02*
X0401405Y0251419D01*
G75*
G02*
X0401897Y0251911I0000492J0000000D01*
G01*
X0401897Y0251911D01*
G75*
G02*
X0402389Y0251419I0000000J-000492D01*
G01*
X0402389Y0250435D01*
G75*
G02*
X0401897Y0249943I-000492J0000000D01*
G01*
X0401897Y0249943D01*
G75*
G02*
X0401405Y0250435I0000000J0000492D01*
G01*
G37*
G36*
G01*
X0405736Y0250435D02*
X0405736Y0251419D01*
G75*
G02*
X0406228Y0251911I0000492J0000000D01*
G01*
X0406228Y0251911D01*
G75*
G02*
X0406720Y0251419I0000000J-000492D01*
G01*
X0406720Y0250435D01*
G75*
G02*
X0406228Y0249943I-000492J0000000D01*
G01*
X0406228Y0249943D01*
G75*
G02*
X0405736Y0250435I0000000J0000492D01*
G01*
G37*
G36*
G01*
X0410066Y0250435D02*
X0410066Y0251419D01*
G75*
G02*
X0410558Y0251911I0000492J0000000D01*
G01*
X0410558Y0251911D01*
G75*
G02*
X0411050Y0251419I0000000J-000492D01*
G01*
X0411050Y0250435D01*
G75*
G02*
X0410558Y0249943I-000492J0000000D01*
G01*
X0410558Y0249943D01*
G75*
G02*
X0410066Y0250435I0000000J0000492D01*
G01*
G37*
G36*
G01*
X0414397Y0250435D02*
X0414397Y0251419D01*
G75*
G02*
X0414889Y0251911I0000492J0000000D01*
G01*
X0414889Y0251911D01*
G75*
G02*
X0415381Y0251419I0000000J-000492D01*
G01*
X0415381Y0250435D01*
G75*
G02*
X0414889Y0249943I-000492J0000000D01*
G01*
X0414889Y0249943D01*
G75*
G02*
X0414397Y0250435I0000000J0000492D01*
G01*
G37*
G36*
G01*
X0418728Y0250435D02*
X0418728Y0251419D01*
G75*
G02*
X0419220Y0251911I0000492J0000000D01*
G01*
X0419220Y0251911D01*
G75*
G02*
X0419712Y0251419I0000000J-000492D01*
G01*
X0419712Y0250435D01*
G75*
G02*
X0419220Y0249943I-000492J0000000D01*
G01*
X0419220Y0249943D01*
G75*
G02*
X0418728Y0250435I0000000J0000492D01*
G01*
G37*
G36*
G01*
X0423058Y0250435D02*
X0423058Y0251419D01*
G75*
G02*
X0423550Y0251911I0000492J0000000D01*
G01*
X0423550Y0251911D01*
G75*
G02*
X0424043Y0251419I0000000J-000492D01*
G01*
X0424043Y0250435D01*
G75*
G02*
X0423550Y0249943I-000492J0000000D01*
G01*
X0423550Y0249943D01*
G75*
G02*
X0423058Y0250435I0000000J0000492D01*
G01*
G37*
G36*
G01*
X0427389Y0250435D02*
X0427389Y0251419D01*
G75*
G02*
X0427881Y0251911I0000492J0000000D01*
G01*
X0427881Y0251911D01*
G75*
G02*
X0428373Y0251419I0000000J-000492D01*
G01*
X0428373Y0250435D01*
G75*
G02*
X0427881Y0249943I-000492J0000000D01*
G01*
X0427881Y0249943D01*
G75*
G02*
X0427389Y0250435I0000000J0000492D01*
G01*
G37*
G36*
G01*
X0431720Y0250435D02*
X0431720Y0251419D01*
G75*
G02*
X0432212Y0251911I0000492J0000000D01*
G01*
X0432212Y0251911D01*
G75*
G02*
X0432704Y0251419I0000000J-000492D01*
G01*
X0432704Y0250435D01*
G75*
G02*
X0432212Y0249943I-000492J0000000D01*
G01*
X0432212Y0249943D01*
G75*
G02*
X0431720Y0250435I0000000J0000492D01*
G01*
G37*
G36*
G01*
X0436050Y0250435D02*
X0436050Y0251419D01*
G75*
G02*
X0436543Y0251911I0000492J0000000D01*
G01*
X0436543Y0251911D01*
G75*
G02*
X0437035Y0251419I0000000J-000492D01*
G01*
X0437035Y0250435D01*
G75*
G02*
X0436543Y0249943I-000492J0000000D01*
G01*
X0436543Y0249943D01*
G75*
G02*
X0436050Y0250435I0000000J0000492D01*
G01*
G37*
G36*
G01*
X0440381Y0250435D02*
X0440381Y0251419D01*
G75*
G02*
X0440873Y0251911I0000492J0000000D01*
G01*
X0440873Y0251911D01*
G75*
G02*
X0441365Y0251419I0000000J-000492D01*
G01*
X0441365Y0250435D01*
G75*
G02*
X0440873Y0249943I-000492J0000000D01*
G01*
X0440873Y0249943D01*
G75*
G02*
X0440381Y0250435I0000000J0000492D01*
G01*
G37*
G36*
G01*
X0444712Y0250435D02*
X0444712Y0251419D01*
G75*
G02*
X0445204Y0251911I0000492J0000000D01*
G01*
X0445204Y0251911D01*
G75*
G02*
X0445696Y0251419I0000000J-000492D01*
G01*
X0445696Y0250435D01*
G75*
G02*
X0445204Y0249943I-000492J0000000D01*
G01*
X0445204Y0249943D01*
G75*
G02*
X0444712Y0250435I0000000J0000492D01*
G01*
G37*
G36*
G01*
X0449043Y0250435D02*
X0449043Y0251419D01*
G75*
G02*
X0449535Y0251911I0000492J0000000D01*
G01*
X0449535Y0251911D01*
G75*
G02*
X0450027Y0251419I0000000J-000492D01*
G01*
X0450027Y0250435D01*
G75*
G02*
X0449535Y0249943I-000492J0000000D01*
G01*
X0449535Y0249943D01*
G75*
G02*
X0449043Y0250435I0000000J0000492D01*
G01*
G37*
G36*
G01*
X0454988Y0133085D02*
X0455972Y0133085D01*
G75*
G02*
X0456464Y0132593I0000000J-000492D01*
G01*
X0456464Y0132593D01*
G75*
G02*
X0455972Y0132100I-000492J0000000D01*
G01*
X0454988Y0132100D01*
G75*
G02*
X0454496Y0132593I0000000J0000492D01*
G01*
X0454496Y0132593D01*
G75*
G02*
X0454988Y0133085I0000492J0000000D01*
G01*
G37*
G36*
G01*
X0454988Y0130486D02*
X0455972Y0130486D01*
G75*
G02*
X0456464Y0129994I0000000J-000492D01*
G01*
X0456464Y0129994D01*
G75*
G02*
X0455972Y0129502I-000492J0000000D01*
G01*
X0454988Y0129502D01*
G75*
G02*
X0454496Y0129994I0000000J0000492D01*
G01*
X0454496Y0129994D01*
G75*
G02*
X0454988Y0130486I0000492J0000000D01*
G01*
G37*
G36*
G01*
X0454988Y0127888D02*
X0455972Y0127888D01*
G75*
G02*
X0456464Y0127396I0000000J-000492D01*
G01*
X0456464Y0127396D01*
G75*
G02*
X0455972Y0126904I-000492J0000000D01*
G01*
X0454988Y0126904D01*
G75*
G02*
X0454496Y0127396I0000000J0000492D01*
G01*
X0454496Y0127396D01*
G75*
G02*
X0454988Y0127888I0000492J0000000D01*
G01*
G37*
G36*
G01*
X0454988Y0125289D02*
X0455972Y0125289D01*
G75*
G02*
X0456464Y0124797I0000000J-000492D01*
G01*
X0456464Y0124797D01*
G75*
G02*
X0455972Y0124305I-000492J0000000D01*
G01*
X0454988Y0124305D01*
G75*
G02*
X0454496Y0124797I0000000J0000492D01*
G01*
X0454496Y0124797D01*
G75*
G02*
X0454988Y0125289I0000492J0000000D01*
G01*
G37*
G36*
G01*
X0454988Y0122691D02*
X0455972Y0122691D01*
G75*
G02*
X0456464Y0122199I0000000J-000492D01*
G01*
X0456464Y0122199D01*
G75*
G02*
X0455972Y0121707I-000492J0000000D01*
G01*
X0454988Y0121707D01*
G75*
G02*
X0454496Y0122199I0000000J0000492D01*
G01*
X0454496Y0122199D01*
G75*
G02*
X0454988Y0122691I0000492J0000000D01*
G01*
G37*
G36*
G01*
X0454988Y0120093D02*
X0455972Y0120093D01*
G75*
G02*
X0456464Y0119600I0000000J-000492D01*
G01*
X0456464Y0119600D01*
G75*
G02*
X0455972Y0119108I-000492J0000000D01*
G01*
X0454988Y0119108D01*
G75*
G02*
X0454496Y0119600I0000000J0000492D01*
G01*
X0454496Y0119600D01*
G75*
G02*
X0454988Y0120093I0000492J0000000D01*
G01*
G37*
G36*
G01*
X0454988Y0117494D02*
X0455972Y0117494D01*
G75*
G02*
X0456464Y0117002I0000000J-000492D01*
G01*
X0456464Y0117002D01*
G75*
G02*
X0455972Y0116510I-000492J0000000D01*
G01*
X0454988Y0116510D01*
G75*
G02*
X0454496Y0117002I0000000J0000492D01*
G01*
X0454496Y0117002D01*
G75*
G02*
X0454988Y0117494I0000492J0000000D01*
G01*
G37*
G36*
G01*
X0454988Y0114896D02*
X0455972Y0114896D01*
G75*
G02*
X0456464Y0114404I0000000J-000492D01*
G01*
X0456464Y0114404D01*
G75*
G02*
X0455972Y0113911I-000492J0000000D01*
G01*
X0454988Y0113911D01*
G75*
G02*
X0454496Y0114404I0000000J0000492D01*
G01*
X0454496Y0114404D01*
G75*
G02*
X0454988Y0114896I0000492J0000000D01*
G01*
G37*
G36*
G01*
X0454988Y0112297D02*
X0455972Y0112297D01*
G75*
G02*
X0456464Y0111805I0000000J-000492D01*
G01*
X0456464Y0111805D01*
G75*
G02*
X0455972Y0111313I-000492J0000000D01*
G01*
X0454988Y0111313D01*
G75*
G02*
X0454496Y0111805I0000000J0000492D01*
G01*
X0454496Y0111805D01*
G75*
G02*
X0454988Y0112297I0000492J0000000D01*
G01*
G37*
G36*
G01*
X0454988Y0109699D02*
X0455972Y0109699D01*
G75*
G02*
X0456464Y0109207I0000000J-000492D01*
G01*
X0456464Y0109207D01*
G75*
G02*
X0455972Y0108715I-000492J0000000D01*
G01*
X0454988Y0108715D01*
G75*
G02*
X0454496Y0109207I0000000J0000492D01*
G01*
X0454496Y0109207D01*
G75*
G02*
X0454988Y0109699I0000492J0000000D01*
G01*
G37*
X0229571Y0497618D03*
X0229571Y0512618D03*
D43*
X0241382Y0505118D03*
D272*
X0198075Y0523209D03*
X0198075Y0538209D03*
D282*
X0590988Y0559055D03*
X0590551Y0072835D03*
G36*
G01*
X0533619Y0266297D02*
X0533619Y0266297D01*
G75*
G02*
X0533619Y0272978I0003341J0003341D01*
G01*
X0535290Y0274648D01*
G75*
G02*
X0541971Y0274648I0003341J-003341D01*
G01*
X0541971Y0274648D01*
G75*
G02*
X0541971Y0267967I-003341J-003341D01*
G01*
X0540301Y0266297D01*
G75*
G02*
X0533619Y0266297I-003341J0003341D01*
G01*
G37*
G36*
G01*
X0524958Y0273777D02*
X0524958Y0273777D01*
G75*
G02*
X0524958Y0280458I0003341J0003341D01*
G01*
X0526628Y0282129D01*
G75*
G02*
X0533310Y0282129I0003341J-003341D01*
G01*
X0533310Y0282129D01*
G75*
G02*
X0533310Y0275447I-003341J-003341D01*
G01*
X0531639Y0273777D01*
G75*
G02*
X0524958Y0273777I-003341J0003341D01*
G01*
G37*
G36*
G01*
X0524958Y0298186D02*
X0524958Y0298186D01*
G75*
G02*
X0524958Y0304868I0003341J0003341D01*
G01*
X0526628Y0306538D01*
G75*
G02*
X0533310Y0306538I0003341J-003341D01*
G01*
X0533310Y0306538D01*
G75*
G02*
X0533310Y0299857I-003341J-003341D01*
G01*
X0531639Y0298186D01*
G75*
G02*
X0524958Y0298186I-003341J0003341D01*
G01*
G37*
G36*
G01*
X0533619Y0288344D02*
X0533619Y0288344D01*
G75*
G02*
X0533619Y0295025I0003341J0003341D01*
G01*
X0535290Y0296696D01*
G75*
G02*
X0541971Y0296696I0003341J-003341D01*
G01*
X0541971Y0296696D01*
G75*
G02*
X0541971Y0290014I-003341J-003341D01*
G01*
X0540301Y0288344D01*
G75*
G02*
X0533619Y0288344I-003341J0003341D01*
G01*
G37*
G36*
G01*
X0524958Y0251730D02*
X0524958Y0251730D01*
G75*
G02*
X0524958Y0258411I0003341J0003341D01*
G01*
X0526628Y0260081D01*
G75*
G02*
X0533310Y0260081I0003341J-003341D01*
G01*
X0533310Y0260081D01*
G75*
G02*
X0533310Y0253400I-003341J-003341D01*
G01*
X0531639Y0251730D01*
G75*
G02*
X0524958Y0251730I-003341J0003341D01*
G01*
G37*
X0537798Y0019319D03*
D43*
X0255161Y0505118D03*
X0245672Y0164192D03*
D143*
X0059062Y0533381D03*
X0064278Y0500999D03*
X0084879Y0501068D03*
X0086818Y0508480D03*
X0091247Y0479543D03*
D43*
X0080000Y0130000D03*
X0080000Y0140000D03*
X0080000Y0150000D03*
X0080000Y0160000D03*
X0080000Y0170000D03*
X0090000Y0130000D03*
X0090000Y0140000D03*
X0090000Y0150000D03*
X0090000Y0160000D03*
X0090000Y0170000D03*
X0100000Y0130000D03*
X0100000Y0140000D03*
X0100000Y0150000D03*
X0100000Y0160000D03*
X0100000Y0170000D03*
D282*
X0590551Y0305118D03*
D272*
X0454374Y0497598D03*
X0454374Y0512598D03*
D43*
X0020000Y0130000D03*
X0020000Y0140000D03*
X0020000Y0150000D03*
X0020000Y0160000D03*
X0020000Y0170000D03*
X0030000Y0130000D03*
X0030000Y0140000D03*
X0030000Y0150000D03*
X0030000Y0160000D03*
X0030000Y0170000D03*
X0040000Y0130000D03*
X0040000Y0140000D03*
X0040000Y0150000D03*
X0040000Y0160000D03*
X0040000Y0170000D03*
D272*
X0192169Y0497618D03*
X0192169Y0512618D03*
X0174453Y0523209D03*
X0174453Y0538209D03*
X0168547Y0497618D03*
X0168547Y0512618D03*
D282*
X0066929Y0607087D03*
D272*
X0245319Y0523209D03*
X0245319Y0538209D03*
X0529177Y0497598D03*
X0529177Y0512598D03*
X0523271Y0523209D03*
X0523271Y0538209D03*
X0430752Y0489764D03*
X0430752Y0474764D03*
D143*
X0407055Y0095465D03*
X0410499Y0093398D03*
X0405873Y0090446D03*
X0406169Y0076469D03*
D43*
X0472090Y0530689D03*
D51*
X0483946Y0058204D03*
D159*
X0483946Y0048204D03*
X0473946Y0058204D03*
X0473946Y0048204D03*
X0463946Y0058204D03*
X0463946Y0048204D03*
X0453946Y0058204D03*
X0453946Y0048204D03*
X0443946Y0058204D03*
X0443946Y0048204D03*
X0433946Y0058204D03*
X0433946Y0048204D03*
X0423946Y0058204D03*
X0423946Y0048204D03*
X0413946Y0058204D03*
X0413946Y0048204D03*
X0403946Y0058204D03*
X0403946Y0048204D03*
X0393946Y0058204D03*
X0393946Y0048204D03*
X0383946Y0058204D03*
X0383946Y0048204D03*
X0373946Y0058204D03*
X0373946Y0048204D03*
D272*
X0222050Y0497646D03*
X0222050Y0512646D03*
X0156736Y0497618D03*
X0156736Y0512618D03*
X0401224Y0523382D03*
X0401224Y0538382D03*
D43*
X0322879Y0334673D03*
D272*
X0212643Y0482779D03*
X0212643Y0497779D03*
D43*
X0431100Y0372441D03*
D272*
X0448468Y0523189D03*
X0448468Y0538189D03*
D43*
X0209886Y0530709D03*
D143*
X0473364Y0114731D03*
X0466140Y0116405D03*
X0474211Y0118570D03*
X0473364Y0122015D03*
X0473069Y0125361D03*
X0466140Y0126641D03*
X0471297Y0131759D03*
X0466140Y0134318D03*
X0489466Y0106070D03*
X0473423Y0107251D03*
D272*
X0501618Y0497598D03*
X0501618Y0512598D03*
X0446500Y0482047D03*
X0446500Y0497047D03*
D43*
X0245672Y0193729D03*
D143*
X0059147Y0356250D03*
X0059147Y0412156D03*
X0059147Y0307969D03*
X0059147Y0455069D03*
X0074108Y0313435D03*
D43*
X0180358Y0505118D03*
G36*
G01*
X0336026Y0464693D02*
X0336026Y0470008D01*
G75*
G02*
X0337011Y0470992I0000984J0000000D01*
G01*
X0341735Y0470992D01*
G75*
G02*
X0342719Y0470008I0000000J-000984D01*
G01*
X0342719Y0464693D01*
G75*
G02*
X0341735Y0463709I-000984J0000000D01*
G01*
X0337011Y0463709D01*
G75*
G02*
X0336026Y0464693I0000000J0000984D01*
G01*
G37*
D187*
X0349215Y0467351D03*
X0359058Y0467351D03*
X0368900Y0467351D03*
X0378743Y0467351D03*
D45*
X0031102Y0499213D03*
X0456834Y0320392D02*
G01*
G75*
D373*
X0336165Y0316147D02*
D03*
X0336165Y0295360D02*
D03*
X0336165Y0297958D02*
D03*
X0336165Y0300557D02*
D03*
X0336165Y0303155D02*
D03*
D372*
X0436440Y0263986D02*
D03*
X0440771Y0263986D02*
D03*
X0445102Y0263986D02*
D03*
X0449432Y0263986D02*
D03*
X0342153Y0318955D02*
D03*
X0344751Y0318955D02*
D03*
X0347350Y0318955D02*
D03*
X0349948Y0318955D02*
D03*
X0352547Y0318955D02*
D03*
X0355145Y0318955D02*
D03*
X0361448Y0318955D02*
D03*
X0364047Y0318955D02*
D03*
X0366645Y0318955D02*
D03*
X0371058Y0318955D02*
D03*
X0373656Y0318955D02*
D03*
X0376255Y0318955D02*
D03*
X0378853Y0318955D02*
D03*
X0391948Y0318955D02*
D03*
X0394547Y0318955D02*
D03*
X0397145Y0318955D02*
D03*
X0407562Y0318955D02*
D03*
X0410161Y0318955D02*
D03*
X0412759Y0318955D02*
D03*
X0415358Y0318955D02*
D03*
X0417956Y0318955D02*
D03*
X0420554Y0318955D02*
D03*
X0423153Y0318955D02*
D03*
X0425751Y0318955D02*
D03*
X0428350Y0318955D02*
D03*
X0430948Y0318955D02*
D03*
X0432110Y0263986D02*
D03*
X0427779Y0263986D02*
D03*
X0423448Y0263986D02*
D03*
X0419118Y0263986D02*
D03*
X0414787Y0263986D02*
D03*
X0410456Y0263986D02*
D03*
X0406125Y0263986D02*
D03*
X0401795Y0263986D02*
D03*
X0397464Y0263986D02*
D03*
X0393133Y0263986D02*
D03*
X0388803Y0263986D02*
D03*
X0384472Y0263986D02*
D03*
X0380141Y0263986D02*
D03*
X0375810Y0263986D02*
D03*
X0371480Y0263986D02*
D03*
X0367149Y0263986D02*
D03*
X0362818Y0263986D02*
D03*
X0358488Y0263986D02*
D03*
X0354157Y0263986D02*
D03*
X0349826Y0263986D02*
D03*
X0345496Y0263986D02*
D03*
X0341165Y0263986D02*
D03*
X0496061Y0155578D02*
G01*
G75*
D95*
X0489762Y0106070D02*
D03*
X0473718Y0107251D02*
D03*
X0466435Y0134318D02*
D03*
X0471592Y0131759D02*
D03*
X0473364Y0125361D02*
D03*
X0466435Y0126641D02*
D03*
X0473659Y0122015D02*
D03*
X0474506Y0118570D02*
D03*
X0466435Y0116405D02*
D03*
X0473659Y0114732D02*
D03*
X0457350Y0252986D02*
G01*
G75*
D112*
X0283925Y0138065D02*
D03*
X0279925Y0158065D02*
D03*
X0287925Y0158065D02*
D03*
D372*
X0391267Y0109474D02*
D03*
X0396503Y0109474D02*
D03*
X0294653Y0109474D02*
D03*
X0290323Y0109474D02*
D03*
X0285992Y0109474D02*
D03*
X0432212Y0250927D02*
D03*
X0436543Y0250927D02*
D03*
X0440873Y0250927D02*
D03*
X0445204Y0250927D02*
D03*
X0323945Y0250927D02*
D03*
X0319614Y0250927D02*
D03*
X0314417Y0250927D02*
D03*
X0309220Y0250927D02*
D03*
X0328275Y0250927D02*
D03*
X0332606Y0250927D02*
D03*
X0336937Y0250927D02*
D03*
X0341267Y0250927D02*
D03*
X0345598Y0250927D02*
D03*
X0349929Y0250927D02*
D03*
X0354259Y0250927D02*
D03*
X0358590Y0250927D02*
D03*
X0362921Y0250927D02*
D03*
X0367251Y0250927D02*
D03*
X0371582Y0250927D02*
D03*
X0375913Y0250927D02*
D03*
X0380244Y0250927D02*
D03*
X0384574Y0250927D02*
D03*
X0388905Y0250927D02*
D03*
X0393236Y0250927D02*
D03*
X0397566Y0250927D02*
D03*
X0401897Y0250927D02*
D03*
X0406228Y0250927D02*
D03*
X0410559Y0250927D02*
D03*
X0414889Y0250927D02*
D03*
X0419220Y0250927D02*
D03*
X0393885Y0109474D02*
D03*
X0399496Y0109474D02*
D03*
X0404692Y0109474D02*
D03*
X0409889Y0109474D02*
D03*
X0388649Y0109474D02*
D03*
X0385598Y0109474D02*
D03*
X0381267Y0109474D02*
D03*
X0376937Y0109474D02*
D03*
X0372606Y0109474D02*
D03*
X0368275Y0109474D02*
D03*
X0363945Y0109474D02*
D03*
X0359614Y0109474D02*
D03*
X0355283Y0109474D02*
D03*
X0350952Y0109474D02*
D03*
X0346622Y0109474D02*
D03*
X0342291Y0109474D02*
D03*
X0337960Y0109474D02*
D03*
X0333630Y0109474D02*
D03*
X0329299Y0109474D02*
D03*
X0324968Y0109474D02*
D03*
X0320637Y0109474D02*
D03*
X0316307Y0109474D02*
D03*
X0311976Y0109474D02*
D03*
X0307645Y0109474D02*
D03*
X0303315Y0109474D02*
D03*
X0298984Y0109474D02*
D03*
X0423551Y0250927D02*
D03*
X0427881Y0250927D02*
D03*
X0449535Y0250927D02*
D03*
X0281661Y0109474D02*
D03*
D462*
X0276240Y0203675D02*
D03*
X0276240Y0206273D02*
D03*
X0276240Y0208872D02*
D03*
X0276240Y0211470D02*
D03*
X0276240Y0214069D02*
D03*
X0276240Y0216667D02*
D03*
X0276240Y0219266D02*
D03*
X0276240Y0221864D02*
D03*
X0276240Y0133518D02*
D03*
X0276240Y0130919D02*
D03*
X0276240Y0128321D02*
D03*
X0276240Y0125722D02*
D03*
X0276240Y0136116D02*
D03*
X0276240Y0149108D02*
D03*
X0276240Y0151707D02*
D03*
X0276240Y0154305D02*
D03*
X0276240Y0156903D02*
D03*
X0276240Y0159502D02*
D03*
X0276240Y0162100D02*
D03*
X0276240Y0164699D02*
D03*
X0276240Y0167297D02*
D03*
X0276240Y0169895D02*
D03*
X0276240Y0172494D02*
D03*
X0276240Y0175092D02*
D03*
X0276240Y0177691D02*
D03*
X0276240Y0180289D02*
D03*
X0276240Y0182888D02*
D03*
X0276240Y0185486D02*
D03*
X0276240Y0188084D02*
D03*
X0276240Y0190683D02*
D03*
X0276240Y0193281D02*
D03*
X0276240Y0195880D02*
D03*
X0276240Y0198478D02*
D03*
X0276240Y0201077D02*
D03*
X0455480Y0114403D02*
D03*
X0455480Y0117002D02*
D03*
X0455480Y0119600D02*
D03*
X0455480Y0122199D02*
D03*
X0455480Y0124797D02*
D03*
X0455480Y0127395D02*
D03*
X0455480Y0129994D02*
D03*
X0455480Y0132592D02*
D03*
X0455480Y0109206D02*
D03*
X0455480Y0111805D02*
D03*
X0284023Y0039428D02*
G01*
G75*
D95*
X0297507Y0092873D02*
D03*
X0324968Y0070924D02*
D03*
X0342291Y0070924D02*
D03*
X0333531Y0070924D02*
D03*
X0303708Y0073562D02*
D03*
X0320342Y0070924D02*
D03*
X0353724Y0073598D02*
D03*
X0227618Y0308864D02*
G01*
G75*
D205*
X0120132Y0305660D02*
D03*
X0125076Y0305660D02*
D03*
D165*
X0225762Y0265700D02*
D03*
X0225762Y0269145D02*
D03*
X0225762Y0273377D02*
D03*
X0225762Y0285680D02*
D03*
X0225762Y0294637D02*
D03*
D328*
X0226549Y0147688D02*
D03*
X0226549Y0149420D02*
D03*
X0226549Y0151152D02*
D03*
X0226549Y0152885D02*
D03*
X0226549Y0154617D02*
D03*
X0226549Y0156349D02*
D03*
X0226549Y0158082D02*
D03*
X0226549Y0171487D02*
D03*
X0226549Y0174086D02*
D03*
X0226549Y0176684D02*
D03*
X0226549Y0179283D02*
D03*
X0226549Y0183712D02*
D03*
X0226549Y0185444D02*
D03*
X0226549Y0187176D02*
D03*
X0226549Y0188908D02*
D03*
X0226549Y0190641D02*
D03*
X0226549Y0192373D02*
D03*
X0226549Y0194105D02*
D03*
X0226549Y0195838D02*
D03*
X0226549Y0204479D02*
D03*
X0226549Y0207613D02*
D03*
X0226549Y0210762D02*
D03*
X0226549Y0213912D02*
D03*
X0226549Y0223456D02*
D03*
X0226549Y0220857D02*
D03*
X0226549Y0216684D02*
D03*
D150*
X0226135Y0239420D02*
D03*
X0226135Y0262452D02*
D03*
X0226135Y0303278D02*
D03*
X0226135Y0300542D02*
D03*
X0226135Y0297864D02*
D03*
X0226135Y0289498D02*
D03*
X0226135Y0280660D02*
D03*
X0226135Y0278101D02*
D03*
D32*
X0222592Y0306940D02*
D03*
X0217966Y0306940D02*
D03*
X0212651Y0306940D02*
D03*
X0208025Y0306940D02*
D03*
X0179679Y0306940D02*
D03*
D238*
X0150447Y0306152D02*
D03*
D77*
X0175840Y0307334D02*
D03*
X0183103Y0307334D02*
D03*
X0189501Y0307334D02*
D03*
X0204010Y0307334D02*
D03*
X0201213Y0307334D02*
D03*
X0197670Y0307334D02*
D03*
X0185978Y0307334D02*
D03*
X0437370Y0100879D02*
G01*
G75*
D95*
X0406169Y0076470D02*
D03*
X0405874Y0090446D02*
D03*
X0407055Y0095466D02*
D03*
X0410500Y0093399D02*
D03*
X0226092Y0062948D02*
G01*
G75*
D255*
X0198749Y0110605D02*
D03*
X0208749Y0110605D02*
D03*
X0198749Y0100605D02*
D03*
X0208749Y0100605D02*
D03*
X0198749Y0090605D02*
D03*
X0208749Y0090605D02*
D03*
X0198749Y0080605D02*
D03*
X0208749Y0080605D02*
D03*
X0198749Y0070605D02*
D03*
D290*
X0208749Y0070605D02*
D03*
D568*
X0224517Y0109109D02*
D03*
X0224517Y0104779D02*
D03*
X0224517Y0100448D02*
D03*
X0224517Y0096117D02*
D03*
X0224517Y0091787D02*
D03*
X0224517Y0087456D02*
D03*
X0229064Y0434526D02*
G01*
G75*
D95*
X0253473Y0403325D02*
D03*
X0239497Y0403030D02*
D03*
X0234477Y0404211D02*
D03*
X0236544Y0407656D02*
D03*
X0423267Y0376824D02*
G01*
G75*
X0118904Y0476098D02*
G01*
G75*
D95*
X0084878Y0501069D02*
D03*
X0059062Y0533382D02*
D03*
X0086817Y0508480D02*
D03*
X0091247Y0479543D02*
D03*
X0064278Y0501000D02*
D03*
X0086313Y0305463D02*
G01*
G75*
D95*
X0059148Y0412156D02*
D03*
X0059148Y0455069D02*
D03*
X0074108Y0313435D02*
D03*
X0059148Y0356250D02*
D03*
X0059148Y0307970D02*
D03*
X0321361Y0389988D02*
%LPD*%
G01*
D196*
X0310534Y0394161D03*
X0314534Y0414161D03*
X0306534Y0414161D03*
M02*
